<?xml version="1.0" encoding="utf-8"?>
<!-- Generator: Adobe Illustrator 16.0.0, SVG Export Plug-In . SVG Version: 6.00 Build 0)  -->
<!DOCTYPE svg PUBLIC "-//W3C//DTD SVG 1.1//EN" "http://www.w3.org/Graphics/SVG/1.1/DTD/svg11.dtd" [
	<!ENTITY ns_flows "http://ns.adobe.com/Flows/1.0/">
	<!ENTITY ns_extend "http://ns.adobe.com/Extensibility/1.0/">
	<!ENTITY ns_ai "http://ns.adobe.com/AdobeIllustrator/10.0/">
	<!ENTITY ns_graphs "http://ns.adobe.com/Graphs/1.0/">
	<!ENTITY ns_vars "http://ns.adobe.com/Variables/1.0/">
	<!ENTITY ns_imrep "http://ns.adobe.com/ImageReplacement/1.0/">
	<!ENTITY ns_sfw "http://ns.adobe.com/SaveForWeb/1.0/">
	<!ENTITY ns_custom "http://ns.adobe.com/GenericCustomNamespace/1.0/">
	<!ENTITY ns_adobe_xpath "http://ns.adobe.com/XPath/1.0/">
]>
<svg version="1.1" id="Calque_1" xmlns:x="&ns_extend;" xmlns:i="&ns_ai;" xmlns:graph="&ns_graphs;"
	 xmlns="http://www.w3.org/2000/svg" xmlns:xlink="http://www.w3.org/1999/xlink" xmlns:a="http://ns.adobe.com/AdobeSVGViewerExtensions/3.0/"
	 x="0px" y="0px" width="376.7px" height="59.5px" viewBox="0 0 376.7 59.5" enable-background="new 0 0 376.7 59.5"
	 xml:space="preserve">
<metadata><?xpacket begin="﻿" id="W5M0MpCehiHzreSzNTczkc9d"?>
<x:xmpmeta xmlns:x="adobe:ns:meta/" x:xmptk="Adobe XMP Core 5.3-c011 66.145661, 2012/02/06-14:56:27        ">
   <rdf:RDF xmlns:rdf="http://www.w3.org/1999/02/22-rdf-syntax-ns#">
      <rdf:Description rdf:about=""
            xmlns:dc="http://purl.org/dc/elements/1.1/">
         <dc:format>image/svg+xml</dc:format>
         <dc:title>
            <rdf:Alt>
               <rdf:li xml:lang="x-default">Impression</rdf:li>
            </rdf:Alt>
         </dc:title>
      </rdf:Description>
      <rdf:Description rdf:about=""
            xmlns:xmp="http://ns.adobe.com/xap/1.0/"
            xmlns:xmpGImg="http://ns.adobe.com/xap/1.0/g/img/">
         <xmp:MetadataDate>2015-05-14T17:47:20+02:00</xmp:MetadataDate>
         <xmp:ModifyDate>2015-05-14T17:47:20+02:00</xmp:ModifyDate>
         <xmp:CreateDate>2015-05-14T17:47:19+02:00</xmp:CreateDate>
         <xmp:CreatorTool>Adobe Illustrator CS6 (Macintosh)</xmp:CreatorTool>
         <xmp:Thumbnails>
            <rdf:Alt>
               <rdf:li rdf:parseType="Resource">
                  <xmpGImg:width>244</xmpGImg:width>
                  <xmpGImg:height>256</xmpGImg:height>
                  <xmpGImg:format>JPEG</xmpGImg:format>
                  <xmpGImg:image>/9j/4AAQSkZJRgABAgEBLAEsAAD/7QAsUGhvdG9zaG9wIDMuMAA4QklNA+0AAAAAABABLAAAAAEA&#xA;AQEsAAAAAQAB/+4ADkFkb2JlAGTAAAAAAf/bAIQABgQEBAUEBgUFBgkGBQYJCwgGBggLDAoKCwoK&#xA;DBAMDAwMDAwQDA4PEA8ODBMTFBQTExwbGxscHx8fHx8fHx8fHwEHBwcNDA0YEBAYGhURFRofHx8f&#xA;Hx8fHx8fHx8fHx8fHx8fHx8fHx8fHx8fHx8fHx8fHx8fHx8fHx8fHx8fHx8f/8AAEQgBAAD0AwER&#xA;AAIRAQMRAf/EAaIAAAAHAQEBAQEAAAAAAAAAAAQFAwIGAQAHCAkKCwEAAgIDAQEBAQEAAAAAAAAA&#xA;AQACAwQFBgcICQoLEAACAQMDAgQCBgcDBAIGAnMBAgMRBAAFIRIxQVEGE2EicYEUMpGhBxWxQiPB&#xA;UtHhMxZi8CRygvElQzRTkqKyY3PCNUQnk6OzNhdUZHTD0uIIJoMJChgZhJRFRqS0VtNVKBry4/PE&#xA;1OT0ZXWFlaW1xdXl9WZ2hpamtsbW5vY3R1dnd4eXp7fH1+f3OEhYaHiImKi4yNjo+Ck5SVlpeYmZ&#xA;qbnJ2en5KjpKWmp6ipqqusra6voRAAICAQIDBQUEBQYECAMDbQEAAhEDBCESMUEFURNhIgZxgZEy&#xA;obHwFMHR4SNCFVJicvEzJDRDghaSUyWiY7LCB3PSNeJEgxdUkwgJChgZJjZFGidkdFU38qOzwygp&#xA;0+PzhJSktMTU5PRldYWVpbXF1eX1RlZmdoaWprbG1ub2R1dnd4eXp7fH1+f3OEhYaHiImKi4yNjo&#xA;+DlJWWl5iZmpucnZ6fkqOkpaanqKmqq6ytrq+v/aAAwDAQACEQMRAD8A9U4q7FXYq7FXYq7FXYq7&#xA;FXYq7FXYq7FXYq7FXYq7FXYq7FXYq7FXYq7FXYq7FXYq7FXYq7FXYq7FXYq7FXYq7FXYq7FXYq7F&#xA;XYq7FXYq7FXYq7FXYq7FXYq7FXYq7FXYq7FXYq7FXYq7FXYq7FXYq7FXYq7FXYq7FXYq7FXYq7FX&#xA;Yq7FXYq7FXYq7FXYq7FXYq7FXYq7FXYq7FXYq7FXYq7FXYq7FXYq7FXYq7FXYq7FXYq7FXYq7FXY&#xA;q7FXYq7FXYq7FXYq7FXYq7FXYq7FXYq7FXYq7FXYq7FXYq7FXYq7FXYq7FXYq7FXYq7FXYq7FXYq&#xA;7FXYq7FXYq7FXYq7FXYq7FXYq7FXYq7FXYq7FXYq7FXYq7FXYq7FXYq7FXYq7FXYq7FXYq7FXYq7&#xA;FXYq7FXYq7FXYq7FXYq7FXYq7FXYq7FXYq7FXYq7FXYq7FXYq7FXYq7FXYq7FXYq7FXYq7FXYq7F&#xA;XYq7FXYq7FXYq7FXYq7FXYq7FXYq7FXYq7FXYq7FXYq7FXYq7FXYq7FXYq7FXYq7FXYq7FXYq7FX&#xA;Yq7FXYq7FXYq7FXYq7FXYq7FXYq7FXYq7FXYq7FXYq7FXYq7FXYq7FXYq7FXYq7FXYq7FXYq7FXY&#xA;q7FXYq7FXYq7FXYq7FXYq7FXYq7FXYq7FXYq7FXYq7FXYq7FXYq7FXYq7FXYq7FXYq7FXYq7FXYq&#xA;7FXYq7FXYq7FXYq7FXYq7FXYq7FXYq7FXYq7FXYq7FXYq7FXYq7FXYq7FXYq7FXYq7FXYq7FXYq7&#xA;FXYq7FXYq7FXYq7FXYq7FXYq7FXYq7FXYq7FXYq7FXYq7FXYq7FXYq7FXYq7FXYq7FXYq7FXYq7F&#xA;XYq7FXYq7FXYq7FXYq7FXYq7FXYq7FXYq7FXYq7FXYq7FXYq7FXYq7FXYq7FXYq7FXYq7FXYq7FX&#xA;Yq7FXYq7FXYq7FXYq7FXYq7FXYq7FXYq7FXYq7FXYq7FXYq7FXYq7FXYq7FXYq7FXYq7FXYq7FXY&#xA;q7FXYq7FXYq7FXYq7FXYq7FXYq7FXYq7FXYq7FXYq7FXYq7FXYq7FXYq7FXYq7FXYq7FXYq7FXYq&#xA;7FXYq7FXYq7FXYq7FXYq7FXYq7FXYq7FXYq7FXYq7FXYq7FXYq7FXYq7FXYq7FXYq7FXYq7FXYq7&#xA;FXYq7FXYq7FXYq7FXYq7FXYq7FXYq7FXYq7FXYq7FXYq7FXYq7FXYq7FXYq7FXYq7FXYq7FXYq7F&#xA;XYq7FXYq7FXYq7FXYq7FXYq7FXYq7FXYq7FXYq7FXYq7FXYq7FXYq7FXYq7FXYq7FXYq7FXYq7FX&#xA;Yq7FXYq7FXYq7FXYq7FXYq7FXYq7FXYq7FXYq7FXYq7FXYq7FXYq7FXYq7FXYq7FXYq7FXYq7FXY&#xA;q7FXYq7FXYq7FXYq7FXYq7FXYq7FXYq7FXYq7FXYq7FXYq7FXYq7FXYq7FXYq7FXYq7FXYq7FXYq&#xA;7FXYq7FXYq7FXYq7FXYq7FXYq7FXYq7FXYq7FXYq7FXYq7FXYq7FXYq7FXYq7FXYq7FXYq7FXYq7&#xA;FXYq7FXYq7FXYq7FXYq7FXYq7FXYq7FXYq7FXYq7FXYq7FXYq7FXYq7FXYq7FXYq7FXYq7FXYq7F&#xA;XYq7FXYq7FXYq7FXYq7FXYq7FXYq7FXYq7FXYq7FXYq7FXYq7FXYq7FXYq7FXYq7FXYq7FXYq7FX&#xA;Yq7FXYq7FXYq7FXYq7FXYq7FXYq7FXYq7FULb30M13Pbq1XhpVaUp47/ADwkItFYEuxV2KuxV2Ku&#xA;xV2KuxV2KuxV2KuxV2KuxV2KuxV2KuxV2KuxV2KuxV2KuxV2KuxV2KuxV2KuxVK7AWw1K4kjIMs1&#xA;edAa/Cad+mTI2YjmmmQZOxV2KuxV2KuxV2KuxV2KuxV2KuxV2KuxV2KuxV2KuxV2KuxV2KuxV2Ku&#xA;xV2KuxV2KuxV2KobUL5LOHmw5MdkXxOGItBNMes9Y9K8aYkP6hPNRt9o1PHLTGw1gsoilSWNZENU&#xA;YVBykhtU7i7ht+PqEgvXjQV6CpwgWglDtq8H7Ckjux2FOxFK1r28e2HhW1NtRuTTjEB8Xple4kNe&#xA;K16dviPbGkWonUbsU+MbgE7DuK5LhDHiKv8ApGeN6SIGWrEN3KKSC238tN9umRplaomrW2wlBiYi&#xA;tDvQHcHbxrtjwptExXEEoBjkVq9KHBSbVMCuxV2KuxV2KuxVSkuFjnihPWXlQ16cRXDSquBXYq7F&#xA;XYq7FXYq7FXYq7FXYq7FXYq7FXYqkfmZmRrV1P7fEg7ijHfLIMJMZtp5vrklWrtISDuNgSNvoybF&#xA;mWgMzaTbsxqSCfvNcqlzZx5Im6sLO6Km4iWQrULy7VwAsqQ/6B0f/llT8ceIooIO88vQtLW2giWP&#xA;hShA+1U77g5IS70EKAgaAeiwAKbEL0+jJsCjX0DT2liZbaP09zLWtTttT+OV8TOlVtE0VFLNaoFU&#xA;Ek0PQYLKaDrfSdGZVmgt0od1YVHQ4SStBMMil2KuxV2KuxV2KpVfif8AScAWQLyp6Y41p45OPJge&#xA;aa5Bm7FXYq7FXYq7FXYq7FXYq7FXYq7FXYqxPzBrF+16YLMyRxQ1VmSo5N36dhlkYsCUNZ3OpTRs&#xA;ZpGZldaeqSPh3qBWvXJUxJRXqT8nPwUanEc+n/C4UIC6vNXilCRTShQq/YJ41oK0p74KTaj+ktc/&#xA;3/P97Y8Kbd+ktc/3/P8Ae2PCtpr5d1e/F76F40kkc2ys9Txbt9ByMopBXahYzfpOZi4/etVEY9id&#xA;qCmGPJB5slT91brzP92g5H5DfK2xJdX1J50WK0Z0XrIwVhWv7PTJxiwMnaRqUkAMV2zulB6bFG+G&#xA;nbpjKKgp5HIskayL9lhUV26/PK2a7FXYq7FXYq7FUsvv+Orabjam3zJyceRYHmmeQZuxV2KuxV2K&#xA;uxV2KuxV2KuxV2KuxV2KsUuo3e+uAoBPqP8AaJH7R8MvHJqPNbA5WKQjrtSuKGxJKpqW5U+0DTFW&#xA;pUZ7ghQCadGJA/DFVNY2KMwAoOpJNfowq4xuEVqCh6Gpr9OKq1t+5vYWl4qqsGJBJFAffAeSQt1M&#xA;2d3qBuAhKHjyqBVuO1enhgA2Undk9pdW9xEGhaoAoVPUfMZURTYClUUaG0snI+KW4KOfFavt+AyV&#xA;saVJ4Yli1BlWhhI9I+H7tW/WcQSmgm4AAAGwHQZBk7FXYq7FXYq7FUp1Bh+lrf8AyeFfpY5ZHkwl&#xA;zTbK2bsVdirsVdirsVdirsVdirsVdirsVdirGHIGoXNdvjf/AIllw5NR5oMxloywagUgkeOSQvkF&#xA;RKOlcCqkS+nPxZqkLTlirUZHoy74q5yPq8Y98VVRGkt9DG26MVDfKuPRIRWqRxx6vpsSKFjkqpUe&#xA;Cmo/XlYOxZkbt6pbRWtzHJGvGOYMrr+zX5fTkom2MhSh6Uf8i/cMkxQ95DCUWqKd/AYhWQaQqrps&#xA;AUACh2Gw6nKpc22PJGZFKRXus6jHdOlv6DQj7DEMxp8wwGWCDAyUP07rP8tv/wAC/jT+bHgXjd+n&#xA;dZ/lt/8AgX8afzY8C8aZaRqNzciQXXpK4pwEdQSN67MTkZRpMTaT32qpJePIsUvwlQlUI+z45YBs&#xA;wPNkK6jbG1juXJjST7IcUb7sqpstEggio6YEqM15bwyRxyOFeU0QYQEWrYEuxV2KuxV2KuxV2Kux&#xA;V2KuxVDvp1i7F2hUsxJY+JOHiKKDQ02xGwhAHtXDxFeEO/R1l/vofef648RXhDjpliTUwqT4muPE&#xA;V4Q1+i9P/wB8LjxFaDv0Xp/++Fx4itByaXYJIJEiAdTUGp2I9q4OIrQbn02yuJ1nljLSp9huTCny&#xA;oRja03dWFrdcfXQvx6fEw/URiDSkOGn2YAAj2G3U/wBceIrwhp9NsXFGiBA9z/XDxFeEK8UUcUax&#xA;xjii7AZElK7FWGapHY219LG3JNyyqrNQAnLhyaisjtPVYC3hmmqgeqMaAGtKkkeGJKgKUi20O06y&#xA;xPUqUYtWop/XCqb+X0s1WW8BqqDipdj1NdgD40yEkxRcEOntaSFzEJWrwqVBFOmJJtQBSpBb215Z&#xA;qgYJJDUArTYHfdfA4k0UgWEgv9Q1BjDFbyER27/CQCDUHYmv7NOmGgi0z022TVbh7u7cs0ZCrEAV&#xA;FPEV/hgJrkkC03ur2O2HFRyYUBWoAAJpuTkQLZEq8MySpyQ+xB6g+BwEJX4FdirsVdirsVdirsVd&#xA;irsVdirsVdirsVdirsVdirsVdirsVdirsVY7qVpHLeysx3rT7KH9anLY8mo80z0WMR2hUGoDkA0A&#xA;7DwAyE+bOKC1q1jluwW7KOyn/iQOSjyYy5oSkkFs0MEnEyOvw8FNRv4cclSLRSaPqTRgmeNSeimP&#xA;f6d8jxBPCowXdzps031luSqtfTVAOR6Dep8cJFqDS6ETTpJcTBAZQzKhJqgr2oftb4oVYdRlto3t&#xA;moWUkeqN6fR/HExvdINKXOsRPKv7xt6/8WeJFf4/qxVWhmkjuao1KKBTqKcjtQfw+jwwEJCa2t1H&#xA;cRB1+FiAWQ9RUVGQIpkCrYEuxV2KuxV2KuxV2KuxV2KuxV2KuxV2KuxV2KuxV2KuxV2KuxVj99I5&#xA;u5eKtQMR/dyHpt1Ay0HZrI3THRn5W7qQQwapqrLsQKfaHtkJMooTVZGN5xQNsACeDkVO/wBoCnfJ&#xA;R5MZDdrTbZ3vA8o2jFV22wyOyxG6d5U2JbrNq0ixyxrydTTpWo98nAsJBAFZK7xv9Ck/qGTY0t9M&#xA;lwzRsAoNSVI/Xja036iCMjlvzO1WrT1K/P3/AI1wJXK6mbY8vhHSrftE9qfh+BxVdbrdRrCY45FK&#xA;rvRCB9nvtTr9/scBpKb+vP8AV+fot6vTh/H5fjkKZW//2Q==</xmpGImg:image>
               </rdf:li>
            </rdf:Alt>
         </xmp:Thumbnails>
      </rdf:Description>
      <rdf:Description rdf:about=""
            xmlns:xmpMM="http://ns.adobe.com/xap/1.0/mm/"
            xmlns:stRef="http://ns.adobe.com/xap/1.0/sType/ResourceRef#"
            xmlns:stEvt="http://ns.adobe.com/xap/1.0/sType/ResourceEvent#">
         <xmpMM:InstanceID>xmp.iid:FC5B0DB7F02068119109D8ECEF294106</xmpMM:InstanceID>
         <xmpMM:DocumentID>xmp.did:FC5B0DB7F02068119109D8ECEF294106</xmpMM:DocumentID>
         <xmpMM:OriginalDocumentID>uuid:5D20892493BFDB11914A8590D31508C8</xmpMM:OriginalDocumentID>
         <xmpMM:RenditionClass>proof:pdf</xmpMM:RenditionClass>
         <xmpMM:DerivedFrom rdf:parseType="Resource">
            <stRef:instanceID>xmp.iid:0807E8AC7D2068119109D8ECEF294106</stRef:instanceID>
            <stRef:documentID>xmp.did:0807E8AC7D2068119109D8ECEF294106</stRef:documentID>
            <stRef:originalDocumentID>uuid:5D20892493BFDB11914A8590D31508C8</stRef:originalDocumentID>
            <stRef:renditionClass>proof:pdf</stRef:renditionClass>
         </xmpMM:DerivedFrom>
         <xmpMM:History>
            <rdf:Seq>
               <rdf:li rdf:parseType="Resource">
                  <stEvt:action>saved</stEvt:action>
                  <stEvt:instanceID>xmp.iid:0207E8AC7D2068119109D8ECEF294106</stEvt:instanceID>
                  <stEvt:when>2015-05-13T16:41:38+02:00</stEvt:when>
                  <stEvt:softwareAgent>Adobe Illustrator CS6 (Macintosh)</stEvt:softwareAgent>
                  <stEvt:changed>/</stEvt:changed>
               </rdf:li>
               <rdf:li rdf:parseType="Resource">
                  <stEvt:action>saved</stEvt:action>
                  <stEvt:instanceID>xmp.iid:FC5B0DB7F02068119109D8ECEF294106</stEvt:instanceID>
                  <stEvt:when>2015-05-14T17:47:20+02:00</stEvt:when>
                  <stEvt:softwareAgent>Adobe Illustrator CS6 (Macintosh)</stEvt:softwareAgent>
                  <stEvt:changed>/</stEvt:changed>
               </rdf:li>
            </rdf:Seq>
         </xmpMM:History>
      </rdf:Description>
      <rdf:Description rdf:about=""
            xmlns:illustrator="http://ns.adobe.com/illustrator/1.0/">
         <illustrator:StartupProfile>Print</illustrator:StartupProfile>
      </rdf:Description>
      <rdf:Description rdf:about=""
            xmlns:xmpTPg="http://ns.adobe.com/xap/1.0/t/pg/"
            xmlns:stDim="http://ns.adobe.com/xap/1.0/sType/Dimensions#"
            xmlns:xmpG="http://ns.adobe.com/xap/1.0/g/">
         <xmpTPg:HasVisibleOverprint>False</xmpTPg:HasVisibleOverprint>
         <xmpTPg:HasVisibleTransparency>False</xmpTPg:HasVisibleTransparency>
         <xmpTPg:NPages>1</xmpTPg:NPages>
         <xmpTPg:MaxPageSize rdf:parseType="Resource">
            <stDim:w>376.738281</stDim:w>
            <stDim:h>59.498047</stDim:h>
            <stDim:unit>Pixels</stDim:unit>
         </xmpTPg:MaxPageSize>
         <xmpTPg:PlateNames>
            <rdf:Seq>
               <rdf:li>Cyan</rdf:li>
               <rdf:li>Magenta</rdf:li>
               <rdf:li>Yellow</rdf:li>
               <rdf:li>Black</rdf:li>
            </rdf:Seq>
         </xmpTPg:PlateNames>
         <xmpTPg:SwatchGroups>
            <rdf:Seq>
               <rdf:li rdf:parseType="Resource">
                  <xmpG:groupName>Groupe de nuances par défaut</xmpG:groupName>
                  <xmpG:groupType>0</xmpG:groupType>
                  <xmpG:Colorants>
                     <rdf:Seq>
                        <rdf:li rdf:parseType="Resource">
                           <xmpG:swatchName>Blanc</xmpG:swatchName>
                           <xmpG:mode>CMYK</xmpG:mode>
                           <xmpG:type>PROCESS</xmpG:type>
                           <xmpG:cyan>0.000000</xmpG:cyan>
                           <xmpG:magenta>0.000000</xmpG:magenta>
                           <xmpG:yellow>0.000000</xmpG:yellow>
                           <xmpG:black>0.000000</xmpG:black>
                        </rdf:li>
                        <rdf:li rdf:parseType="Resource">
                           <xmpG:swatchName>Noir</xmpG:swatchName>
                           <xmpG:mode>CMYK</xmpG:mode>
                           <xmpG:type>PROCESS</xmpG:type>
                           <xmpG:cyan>0.000000</xmpG:cyan>
                           <xmpG:magenta>0.000000</xmpG:magenta>
                           <xmpG:yellow>0.000000</xmpG:yellow>
                           <xmpG:black>100.000000</xmpG:black>
                        </rdf:li>
                        <rdf:li rdf:parseType="Resource">
                           <xmpG:swatchName>Rouge CMJN</xmpG:swatchName>
                           <xmpG:mode>CMYK</xmpG:mode>
                           <xmpG:type>PROCESS</xmpG:type>
                           <xmpG:cyan>0.000000</xmpG:cyan>
                           <xmpG:magenta>100.000000</xmpG:magenta>
                           <xmpG:yellow>100.000000</xmpG:yellow>
                           <xmpG:black>0.000000</xmpG:black>
                        </rdf:li>
                        <rdf:li rdf:parseType="Resource">
                           <xmpG:swatchName>Jaune CMJN</xmpG:swatchName>
                           <xmpG:mode>CMYK</xmpG:mode>
                           <xmpG:type>PROCESS</xmpG:type>
                           <xmpG:cyan>0.000000</xmpG:cyan>
                           <xmpG:magenta>0.000000</xmpG:magenta>
                           <xmpG:yellow>100.000000</xmpG:yellow>
                           <xmpG:black>0.000000</xmpG:black>
                        </rdf:li>
                        <rdf:li rdf:parseType="Resource">
                           <xmpG:swatchName>Vert CMJN</xmpG:swatchName>
                           <xmpG:mode>CMYK</xmpG:mode>
                           <xmpG:type>PROCESS</xmpG:type>
                           <xmpG:cyan>100.000000</xmpG:cyan>
                           <xmpG:magenta>0.000000</xmpG:magenta>
                           <xmpG:yellow>100.000000</xmpG:yellow>
                           <xmpG:black>0.000000</xmpG:black>
                        </rdf:li>
                        <rdf:li rdf:parseType="Resource">
                           <xmpG:swatchName>Cyan CMJN</xmpG:swatchName>
                           <xmpG:mode>CMYK</xmpG:mode>
                           <xmpG:type>PROCESS</xmpG:type>
                           <xmpG:cyan>100.000000</xmpG:cyan>
                           <xmpG:magenta>0.000000</xmpG:magenta>
                           <xmpG:yellow>0.000000</xmpG:yellow>
                           <xmpG:black>0.000000</xmpG:black>
                        </rdf:li>
                        <rdf:li rdf:parseType="Resource">
                           <xmpG:swatchName>Bleu CMJN</xmpG:swatchName>
                           <xmpG:mode>CMYK</xmpG:mode>
                           <xmpG:type>PROCESS</xmpG:type>
                           <xmpG:cyan>100.000000</xmpG:cyan>
                           <xmpG:magenta>100.000000</xmpG:magenta>
                           <xmpG:yellow>0.000000</xmpG:yellow>
                           <xmpG:black>0.000000</xmpG:black>
                        </rdf:li>
                        <rdf:li rdf:parseType="Resource">
                           <xmpG:swatchName>Magenta CMJN</xmpG:swatchName>
                           <xmpG:mode>CMYK</xmpG:mode>
                           <xmpG:type>PROCESS</xmpG:type>
                           <xmpG:cyan>0.000000</xmpG:cyan>
                           <xmpG:magenta>100.000000</xmpG:magenta>
                           <xmpG:yellow>0.000000</xmpG:yellow>
                           <xmpG:black>0.000000</xmpG:black>
                        </rdf:li>
                        <rdf:li rdf:parseType="Resource">
                           <xmpG:swatchName>C=15 M=100 J=90 N=10</xmpG:swatchName>
                           <xmpG:mode>CMYK</xmpG:mode>
                           <xmpG:type>PROCESS</xmpG:type>
                           <xmpG:cyan>14.999998</xmpG:cyan>
                           <xmpG:magenta>100.000000</xmpG:magenta>
                           <xmpG:yellow>90.000000</xmpG:yellow>
                           <xmpG:black>10.000002</xmpG:black>
                        </rdf:li>
                        <rdf:li rdf:parseType="Resource">
                           <xmpG:swatchName>C=0 M=90 J=85 N=0</xmpG:swatchName>
                           <xmpG:mode>CMYK</xmpG:mode>
                           <xmpG:type>PROCESS</xmpG:type>
                           <xmpG:cyan>0.000000</xmpG:cyan>
                           <xmpG:magenta>90.000000</xmpG:magenta>
                           <xmpG:yellow>85.000000</xmpG:yellow>
                           <xmpG:black>0.000000</xmpG:black>
                        </rdf:li>
                        <rdf:li rdf:parseType="Resource">
                           <xmpG:swatchName>C=0 M=80 J=95 N=0</xmpG:swatchName>
                           <xmpG:mode>CMYK</xmpG:mode>
                           <xmpG:type>PROCESS</xmpG:type>
                           <xmpG:cyan>0.000000</xmpG:cyan>
                           <xmpG:magenta>80.000000</xmpG:magenta>
                           <xmpG:yellow>95.000000</xmpG:yellow>
                           <xmpG:black>0.000000</xmpG:black>
                        </rdf:li>
                        <rdf:li rdf:parseType="Resource">
                           <xmpG:swatchName>C=0 M=50 J=100 N=0</xmpG:swatchName>
                           <xmpG:mode>CMYK</xmpG:mode>
                           <xmpG:type>PROCESS</xmpG:type>
                           <xmpG:cyan>0.000000</xmpG:cyan>
                           <xmpG:magenta>50.000000</xmpG:magenta>
                           <xmpG:yellow>100.000000</xmpG:yellow>
                           <xmpG:black>0.000000</xmpG:black>
                        </rdf:li>
                        <rdf:li rdf:parseType="Resource">
                           <xmpG:swatchName>C=0 M=35 J=85 N=0</xmpG:swatchName>
                           <xmpG:mode>CMYK</xmpG:mode>
                           <xmpG:type>PROCESS</xmpG:type>
                           <xmpG:cyan>0.000000</xmpG:cyan>
                           <xmpG:magenta>35.000004</xmpG:magenta>
                           <xmpG:yellow>85.000000</xmpG:yellow>
                           <xmpG:black>0.000000</xmpG:black>
                        </rdf:li>
                        <rdf:li rdf:parseType="Resource">
                           <xmpG:swatchName>C=5 M=0 J=90 N=0</xmpG:swatchName>
                           <xmpG:mode>CMYK</xmpG:mode>
                           <xmpG:type>PROCESS</xmpG:type>
                           <xmpG:cyan>5.000001</xmpG:cyan>
                           <xmpG:magenta>0.000000</xmpG:magenta>
                           <xmpG:yellow>90.000000</xmpG:yellow>
                           <xmpG:black>0.000000</xmpG:black>
                        </rdf:li>
                        <rdf:li rdf:parseType="Resource">
                           <xmpG:swatchName>C=20 M=0 J=100 N=0</xmpG:swatchName>
                           <xmpG:mode>CMYK</xmpG:mode>
                           <xmpG:type>PROCESS</xmpG:type>
                           <xmpG:cyan>19.999998</xmpG:cyan>
                           <xmpG:magenta>0.000000</xmpG:magenta>
                           <xmpG:yellow>100.000000</xmpG:yellow>
                           <xmpG:black>0.000000</xmpG:black>
                        </rdf:li>
                        <rdf:li rdf:parseType="Resource">
                           <xmpG:swatchName>C=50 M=0 J=100 N=0</xmpG:swatchName>
                           <xmpG:mode>CMYK</xmpG:mode>
                           <xmpG:type>PROCESS</xmpG:type>
                           <xmpG:cyan>50.000000</xmpG:cyan>
                           <xmpG:magenta>0.000000</xmpG:magenta>
                           <xmpG:yellow>100.000000</xmpG:yellow>
                           <xmpG:black>0.000000</xmpG:black>
                        </rdf:li>
                        <rdf:li rdf:parseType="Resource">
                           <xmpG:swatchName>C=75 M=0 J=100 N=0</xmpG:swatchName>
                           <xmpG:mode>CMYK</xmpG:mode>
                           <xmpG:type>PROCESS</xmpG:type>
                           <xmpG:cyan>75.000000</xmpG:cyan>
                           <xmpG:magenta>0.000000</xmpG:magenta>
                           <xmpG:yellow>100.000000</xmpG:yellow>
                           <xmpG:black>0.000000</xmpG:black>
                        </rdf:li>
                        <rdf:li rdf:parseType="Resource">
                           <xmpG:swatchName>C=85 M=10 J=100 N=10</xmpG:swatchName>
                           <xmpG:mode>CMYK</xmpG:mode>
                           <xmpG:type>PROCESS</xmpG:type>
                           <xmpG:cyan>85.000000</xmpG:cyan>
                           <xmpG:magenta>10.000002</xmpG:magenta>
                           <xmpG:yellow>100.000000</xmpG:yellow>
                           <xmpG:black>10.000002</xmpG:black>
                        </rdf:li>
                        <rdf:li rdf:parseType="Resource">
                           <xmpG:swatchName>C=90 M=30 J=95 N=30</xmpG:swatchName>
                           <xmpG:mode>CMYK</xmpG:mode>
                           <xmpG:type>PROCESS</xmpG:type>
                           <xmpG:cyan>90.000000</xmpG:cyan>
                           <xmpG:magenta>30.000002</xmpG:magenta>
                           <xmpG:yellow>95.000000</xmpG:yellow>
                           <xmpG:black>30.000002</xmpG:black>
                        </rdf:li>
                        <rdf:li rdf:parseType="Resource">
                           <xmpG:swatchName>C=75 M=0 J=75 N=0</xmpG:swatchName>
                           <xmpG:mode>CMYK</xmpG:mode>
                           <xmpG:type>PROCESS</xmpG:type>
                           <xmpG:cyan>75.000000</xmpG:cyan>
                           <xmpG:magenta>0.000000</xmpG:magenta>
                           <xmpG:yellow>75.000000</xmpG:yellow>
                           <xmpG:black>0.000000</xmpG:black>
                        </rdf:li>
                        <rdf:li rdf:parseType="Resource">
                           <xmpG:swatchName>C=80 M=10 J=45 N=0</xmpG:swatchName>
                           <xmpG:mode>CMYK</xmpG:mode>
                           <xmpG:type>PROCESS</xmpG:type>
                           <xmpG:cyan>80.000000</xmpG:cyan>
                           <xmpG:magenta>10.000002</xmpG:magenta>
                           <xmpG:yellow>45.000000</xmpG:yellow>
                           <xmpG:black>0.000000</xmpG:black>
                        </rdf:li>
                        <rdf:li rdf:parseType="Resource">
                           <xmpG:swatchName>C=70 M=15 J=0 N=0</xmpG:swatchName>
                           <xmpG:mode>CMYK</xmpG:mode>
                           <xmpG:type>PROCESS</xmpG:type>
                           <xmpG:cyan>70.000000</xmpG:cyan>
                           <xmpG:magenta>14.999998</xmpG:magenta>
                           <xmpG:yellow>0.000000</xmpG:yellow>
                           <xmpG:black>0.000000</xmpG:black>
                        </rdf:li>
                        <rdf:li rdf:parseType="Resource">
                           <xmpG:swatchName>C=85 M=50 J=0 N=0</xmpG:swatchName>
                           <xmpG:mode>CMYK</xmpG:mode>
                           <xmpG:type>PROCESS</xmpG:type>
                           <xmpG:cyan>85.000000</xmpG:cyan>
                           <xmpG:magenta>50.000000</xmpG:magenta>
                           <xmpG:yellow>0.000000</xmpG:yellow>
                           <xmpG:black>0.000000</xmpG:black>
                        </rdf:li>
                        <rdf:li rdf:parseType="Resource">
                           <xmpG:swatchName>C=100 M=95 J=5 N=0</xmpG:swatchName>
                           <xmpG:mode>CMYK</xmpG:mode>
                           <xmpG:type>PROCESS</xmpG:type>
                           <xmpG:cyan>100.000000</xmpG:cyan>
                           <xmpG:magenta>95.000000</xmpG:magenta>
                           <xmpG:yellow>5.000001</xmpG:yellow>
                           <xmpG:black>0.000000</xmpG:black>
                        </rdf:li>
                        <rdf:li rdf:parseType="Resource">
                           <xmpG:swatchName>C=100 M=100 J=25 N=25</xmpG:swatchName>
                           <xmpG:mode>CMYK</xmpG:mode>
                           <xmpG:type>PROCESS</xmpG:type>
                           <xmpG:cyan>100.000000</xmpG:cyan>
                           <xmpG:magenta>100.000000</xmpG:magenta>
                           <xmpG:yellow>25.000000</xmpG:yellow>
                           <xmpG:black>25.000000</xmpG:black>
                        </rdf:li>
                        <rdf:li rdf:parseType="Resource">
                           <xmpG:swatchName>C=75 M=100 J=0 N=0</xmpG:swatchName>
                           <xmpG:mode>CMYK</xmpG:mode>
                           <xmpG:type>PROCESS</xmpG:type>
                           <xmpG:cyan>75.000000</xmpG:cyan>
                           <xmpG:magenta>100.000000</xmpG:magenta>
                           <xmpG:yellow>0.000000</xmpG:yellow>
                           <xmpG:black>0.000000</xmpG:black>
                        </rdf:li>
                        <rdf:li rdf:parseType="Resource">
                           <xmpG:swatchName>C=50 M=100 J=0 N=0</xmpG:swatchName>
                           <xmpG:mode>CMYK</xmpG:mode>
                           <xmpG:type>PROCESS</xmpG:type>
                           <xmpG:cyan>50.000000</xmpG:cyan>
                           <xmpG:magenta>100.000000</xmpG:magenta>
                           <xmpG:yellow>0.000000</xmpG:yellow>
                           <xmpG:black>0.000000</xmpG:black>
                        </rdf:li>
                        <rdf:li rdf:parseType="Resource">
                           <xmpG:swatchName>C=35 M=100 J=35 N=10</xmpG:swatchName>
                           <xmpG:mode>CMYK</xmpG:mode>
                           <xmpG:type>PROCESS</xmpG:type>
                           <xmpG:cyan>35.000004</xmpG:cyan>
                           <xmpG:magenta>100.000000</xmpG:magenta>
                           <xmpG:yellow>35.000004</xmpG:yellow>
                           <xmpG:black>10.000002</xmpG:black>
                        </rdf:li>
                        <rdf:li rdf:parseType="Resource">
                           <xmpG:swatchName>C=10 M=100 J=50 N=0</xmpG:swatchName>
                           <xmpG:mode>CMYK</xmpG:mode>
                           <xmpG:type>PROCESS</xmpG:type>
                           <xmpG:cyan>10.000002</xmpG:cyan>
                           <xmpG:magenta>100.000000</xmpG:magenta>
                           <xmpG:yellow>50.000000</xmpG:yellow>
                           <xmpG:black>0.000000</xmpG:black>
                        </rdf:li>
                        <rdf:li rdf:parseType="Resource">
                           <xmpG:swatchName>C=0 M=95 J=20 N=0</xmpG:swatchName>
                           <xmpG:mode>CMYK</xmpG:mode>
                           <xmpG:type>PROCESS</xmpG:type>
                           <xmpG:cyan>0.000000</xmpG:cyan>
                           <xmpG:magenta>95.000000</xmpG:magenta>
                           <xmpG:yellow>19.999998</xmpG:yellow>
                           <xmpG:black>0.000000</xmpG:black>
                        </rdf:li>
                        <rdf:li rdf:parseType="Resource">
                           <xmpG:swatchName>C=25 M=25 J=40 N=0</xmpG:swatchName>
                           <xmpG:mode>CMYK</xmpG:mode>
                           <xmpG:type>PROCESS</xmpG:type>
                           <xmpG:cyan>25.000000</xmpG:cyan>
                           <xmpG:magenta>25.000000</xmpG:magenta>
                           <xmpG:yellow>39.999996</xmpG:yellow>
                           <xmpG:black>0.000000</xmpG:black>
                        </rdf:li>
                        <rdf:li rdf:parseType="Resource">
                           <xmpG:swatchName>C=40 M=45 J=50 N=5</xmpG:swatchName>
                           <xmpG:mode>CMYK</xmpG:mode>
                           <xmpG:type>PROCESS</xmpG:type>
                           <xmpG:cyan>39.999996</xmpG:cyan>
                           <xmpG:magenta>45.000000</xmpG:magenta>
                           <xmpG:yellow>50.000000</xmpG:yellow>
                           <xmpG:black>5.000001</xmpG:black>
                        </rdf:li>
                        <rdf:li rdf:parseType="Resource">
                           <xmpG:swatchName>C=50 M=50 J=60 N=25</xmpG:swatchName>
                           <xmpG:mode>CMYK</xmpG:mode>
                           <xmpG:type>PROCESS</xmpG:type>
                           <xmpG:cyan>50.000000</xmpG:cyan>
                           <xmpG:magenta>50.000000</xmpG:magenta>
                           <xmpG:yellow>60.000004</xmpG:yellow>
                           <xmpG:black>25.000000</xmpG:black>
                        </rdf:li>
                        <rdf:li rdf:parseType="Resource">
                           <xmpG:swatchName>C=55 M=60 J=65 N=40</xmpG:swatchName>
                           <xmpG:mode>CMYK</xmpG:mode>
                           <xmpG:type>PROCESS</xmpG:type>
                           <xmpG:cyan>55.000000</xmpG:cyan>
                           <xmpG:magenta>60.000004</xmpG:magenta>
                           <xmpG:yellow>65.000000</xmpG:yellow>
                           <xmpG:black>39.999996</xmpG:black>
                        </rdf:li>
                        <rdf:li rdf:parseType="Resource">
                           <xmpG:swatchName>C=25 M=40 J=65 N=0</xmpG:swatchName>
                           <xmpG:mode>CMYK</xmpG:mode>
                           <xmpG:type>PROCESS</xmpG:type>
                           <xmpG:cyan>25.000000</xmpG:cyan>
                           <xmpG:magenta>39.999996</xmpG:magenta>
                           <xmpG:yellow>65.000000</xmpG:yellow>
                           <xmpG:black>0.000000</xmpG:black>
                        </rdf:li>
                        <rdf:li rdf:parseType="Resource">
                           <xmpG:swatchName>C=30 M=50 J=75 N=10</xmpG:swatchName>
                           <xmpG:mode>CMYK</xmpG:mode>
                           <xmpG:type>PROCESS</xmpG:type>
                           <xmpG:cyan>30.000002</xmpG:cyan>
                           <xmpG:magenta>50.000000</xmpG:magenta>
                           <xmpG:yellow>75.000000</xmpG:yellow>
                           <xmpG:black>10.000002</xmpG:black>
                        </rdf:li>
                        <rdf:li rdf:parseType="Resource">
                           <xmpG:swatchName>C=35 M=60 J=80 N=25</xmpG:swatchName>
                           <xmpG:mode>CMYK</xmpG:mode>
                           <xmpG:type>PROCESS</xmpG:type>
                           <xmpG:cyan>35.000004</xmpG:cyan>
                           <xmpG:magenta>60.000004</xmpG:magenta>
                           <xmpG:yellow>80.000000</xmpG:yellow>
                           <xmpG:black>25.000000</xmpG:black>
                        </rdf:li>
                        <rdf:li rdf:parseType="Resource">
                           <xmpG:swatchName>C=40 M=65 J=90 N=35</xmpG:swatchName>
                           <xmpG:mode>CMYK</xmpG:mode>
                           <xmpG:type>PROCESS</xmpG:type>
                           <xmpG:cyan>39.999996</xmpG:cyan>
                           <xmpG:magenta>65.000000</xmpG:magenta>
                           <xmpG:yellow>90.000000</xmpG:yellow>
                           <xmpG:black>35.000004</xmpG:black>
                        </rdf:li>
                        <rdf:li rdf:parseType="Resource">
                           <xmpG:swatchName>C=40 M=70 J=100 N=50</xmpG:swatchName>
                           <xmpG:mode>CMYK</xmpG:mode>
                           <xmpG:type>PROCESS</xmpG:type>
                           <xmpG:cyan>39.999996</xmpG:cyan>
                           <xmpG:magenta>70.000000</xmpG:magenta>
                           <xmpG:yellow>100.000000</xmpG:yellow>
                           <xmpG:black>50.000000</xmpG:black>
                        </rdf:li>
                        <rdf:li rdf:parseType="Resource">
                           <xmpG:swatchName>C=50 M=70 J=80 N=70</xmpG:swatchName>
                           <xmpG:mode>CMYK</xmpG:mode>
                           <xmpG:type>PROCESS</xmpG:type>
                           <xmpG:cyan>50.000000</xmpG:cyan>
                           <xmpG:magenta>70.000000</xmpG:magenta>
                           <xmpG:yellow>80.000000</xmpG:yellow>
                           <xmpG:black>70.000000</xmpG:black>
                        </rdf:li>
                     </rdf:Seq>
                  </xmpG:Colorants>
               </rdf:li>
               <rdf:li rdf:parseType="Resource">
                  <xmpG:groupName>Gris</xmpG:groupName>
                  <xmpG:groupType>1</xmpG:groupType>
                  <xmpG:Colorants>
                     <rdf:Seq>
                        <rdf:li rdf:parseType="Resource">
                           <xmpG:swatchName>C=0 M=0 J=0 N=100</xmpG:swatchName>
                           <xmpG:mode>CMYK</xmpG:mode>
                           <xmpG:type>PROCESS</xmpG:type>
                           <xmpG:cyan>0.000000</xmpG:cyan>
                           <xmpG:magenta>0.000000</xmpG:magenta>
                           <xmpG:yellow>0.000000</xmpG:yellow>
                           <xmpG:black>100.000000</xmpG:black>
                        </rdf:li>
                        <rdf:li rdf:parseType="Resource">
                           <xmpG:swatchName>C=0 M=0 J=0 N=90</xmpG:swatchName>
                           <xmpG:mode>CMYK</xmpG:mode>
                           <xmpG:type>PROCESS</xmpG:type>
                           <xmpG:cyan>0.000000</xmpG:cyan>
                           <xmpG:magenta>0.000000</xmpG:magenta>
                           <xmpG:yellow>0.000000</xmpG:yellow>
                           <xmpG:black>89.999405</xmpG:black>
                        </rdf:li>
                        <rdf:li rdf:parseType="Resource">
                           <xmpG:swatchName>C=0 M=0 J=0 N=80</xmpG:swatchName>
                           <xmpG:mode>CMYK</xmpG:mode>
                           <xmpG:type>PROCESS</xmpG:type>
                           <xmpG:cyan>0.000000</xmpG:cyan>
                           <xmpG:magenta>0.000000</xmpG:magenta>
                           <xmpG:yellow>0.000000</xmpG:yellow>
                           <xmpG:black>79.998795</xmpG:black>
                        </rdf:li>
                        <rdf:li rdf:parseType="Resource">
                           <xmpG:swatchName>C=0 M=0 J=0 N=70</xmpG:swatchName>
                           <xmpG:mode>CMYK</xmpG:mode>
                           <xmpG:type>PROCESS</xmpG:type>
                           <xmpG:cyan>0.000000</xmpG:cyan>
                           <xmpG:magenta>0.000000</xmpG:magenta>
                           <xmpG:yellow>0.000000</xmpG:yellow>
                           <xmpG:black>69.999702</xmpG:black>
                        </rdf:li>
                        <rdf:li rdf:parseType="Resource">
                           <xmpG:swatchName>C=0 M=0 J=0 N=60</xmpG:swatchName>
                           <xmpG:mode>CMYK</xmpG:mode>
                           <xmpG:type>PROCESS</xmpG:type>
                           <xmpG:cyan>0.000000</xmpG:cyan>
                           <xmpG:magenta>0.000000</xmpG:magenta>
                           <xmpG:yellow>0.000000</xmpG:yellow>
                           <xmpG:black>59.999104</xmpG:black>
                        </rdf:li>
                        <rdf:li rdf:parseType="Resource">
                           <xmpG:swatchName>C=0 M=0 J=0 N=50</xmpG:swatchName>
                           <xmpG:mode>CMYK</xmpG:mode>
                           <xmpG:type>PROCESS</xmpG:type>
                           <xmpG:cyan>0.000000</xmpG:cyan>
                           <xmpG:magenta>0.000000</xmpG:magenta>
                           <xmpG:yellow>0.000000</xmpG:yellow>
                           <xmpG:black>50.000000</xmpG:black>
                        </rdf:li>
                        <rdf:li rdf:parseType="Resource">
                           <xmpG:swatchName>C=0 M=0 J=0 N=40</xmpG:swatchName>
                           <xmpG:mode>CMYK</xmpG:mode>
                           <xmpG:type>PROCESS</xmpG:type>
                           <xmpG:cyan>0.000000</xmpG:cyan>
                           <xmpG:magenta>0.000000</xmpG:magenta>
                           <xmpG:yellow>0.000000</xmpG:yellow>
                           <xmpG:black>39.999401</xmpG:black>
                        </rdf:li>
                        <rdf:li rdf:parseType="Resource">
                           <xmpG:swatchName>C=0 M=0 J=0 N=30</xmpG:swatchName>
                           <xmpG:mode>CMYK</xmpG:mode>
                           <xmpG:type>PROCESS</xmpG:type>
                           <xmpG:cyan>0.000000</xmpG:cyan>
                           <xmpG:magenta>0.000000</xmpG:magenta>
                           <xmpG:yellow>0.000000</xmpG:yellow>
                           <xmpG:black>29.998802</xmpG:black>
                        </rdf:li>
                        <rdf:li rdf:parseType="Resource">
                           <xmpG:swatchName>C=0 M=0 J=0 N=20</xmpG:swatchName>
                           <xmpG:mode>CMYK</xmpG:mode>
                           <xmpG:type>PROCESS</xmpG:type>
                           <xmpG:cyan>0.000000</xmpG:cyan>
                           <xmpG:magenta>0.000000</xmpG:magenta>
                           <xmpG:yellow>0.000000</xmpG:yellow>
                           <xmpG:black>19.999701</xmpG:black>
                        </rdf:li>
                        <rdf:li rdf:parseType="Resource">
                           <xmpG:swatchName>C=0 M=0 J=0 N=10</xmpG:swatchName>
                           <xmpG:mode>CMYK</xmpG:mode>
                           <xmpG:type>PROCESS</xmpG:type>
                           <xmpG:cyan>0.000000</xmpG:cyan>
                           <xmpG:magenta>0.000000</xmpG:magenta>
                           <xmpG:yellow>0.000000</xmpG:yellow>
                           <xmpG:black>9.999103</xmpG:black>
                        </rdf:li>
                        <rdf:li rdf:parseType="Resource">
                           <xmpG:swatchName>C=0 M=0 J=0 N=5</xmpG:swatchName>
                           <xmpG:mode>CMYK</xmpG:mode>
                           <xmpG:type>PROCESS</xmpG:type>
                           <xmpG:cyan>0.000000</xmpG:cyan>
                           <xmpG:magenta>0.000000</xmpG:magenta>
                           <xmpG:yellow>0.000000</xmpG:yellow>
                           <xmpG:black>4.998803</xmpG:black>
                        </rdf:li>
                     </rdf:Seq>
                  </xmpG:Colorants>
               </rdf:li>
               <rdf:li rdf:parseType="Resource">
                  <xmpG:groupName>Couleurs vives</xmpG:groupName>
                  <xmpG:groupType>1</xmpG:groupType>
                  <xmpG:Colorants>
                     <rdf:Seq>
                        <rdf:li rdf:parseType="Resource">
                           <xmpG:swatchName>C=0 M=100 J=100 N=0</xmpG:swatchName>
                           <xmpG:mode>CMYK</xmpG:mode>
                           <xmpG:type>PROCESS</xmpG:type>
                           <xmpG:cyan>0.000000</xmpG:cyan>
                           <xmpG:magenta>100.000000</xmpG:magenta>
                           <xmpG:yellow>100.000000</xmpG:yellow>
                           <xmpG:black>0.000000</xmpG:black>
                        </rdf:li>
                        <rdf:li rdf:parseType="Resource">
                           <xmpG:swatchName>C=0 M=75 J=100 N=0</xmpG:swatchName>
                           <xmpG:mode>CMYK</xmpG:mode>
                           <xmpG:type>PROCESS</xmpG:type>
                           <xmpG:cyan>0.000000</xmpG:cyan>
                           <xmpG:magenta>75.000000</xmpG:magenta>
                           <xmpG:yellow>100.000000</xmpG:yellow>
                           <xmpG:black>0.000000</xmpG:black>
                        </rdf:li>
                        <rdf:li rdf:parseType="Resource">
                           <xmpG:swatchName>C=0 M=10 J=95 N=0</xmpG:swatchName>
                           <xmpG:mode>CMYK</xmpG:mode>
                           <xmpG:type>PROCESS</xmpG:type>
                           <xmpG:cyan>0.000000</xmpG:cyan>
                           <xmpG:magenta>10.000002</xmpG:magenta>
                           <xmpG:yellow>95.000000</xmpG:yellow>
                           <xmpG:black>0.000000</xmpG:black>
                        </rdf:li>
                        <rdf:li rdf:parseType="Resource">
                           <xmpG:swatchName>C=85 M=10 J=100 N=0</xmpG:swatchName>
                           <xmpG:mode>CMYK</xmpG:mode>
                           <xmpG:type>PROCESS</xmpG:type>
                           <xmpG:cyan>85.000000</xmpG:cyan>
                           <xmpG:magenta>10.000002</xmpG:magenta>
                           <xmpG:yellow>100.000000</xmpG:yellow>
                           <xmpG:black>0.000000</xmpG:black>
                        </rdf:li>
                        <rdf:li rdf:parseType="Resource">
                           <xmpG:swatchName>C=100 M=90 J=0 N=0</xmpG:swatchName>
                           <xmpG:mode>CMYK</xmpG:mode>
                           <xmpG:type>PROCESS</xmpG:type>
                           <xmpG:cyan>100.000000</xmpG:cyan>
                           <xmpG:magenta>90.000000</xmpG:magenta>
                           <xmpG:yellow>0.000000</xmpG:yellow>
                           <xmpG:black>0.000000</xmpG:black>
                        </rdf:li>
                        <rdf:li rdf:parseType="Resource">
                           <xmpG:swatchName>C=60 M=90 J=0 N=0</xmpG:swatchName>
                           <xmpG:mode>CMYK</xmpG:mode>
                           <xmpG:type>PROCESS</xmpG:type>
                           <xmpG:cyan>60.000004</xmpG:cyan>
                           <xmpG:magenta>90.000000</xmpG:magenta>
                           <xmpG:yellow>0.003099</xmpG:yellow>
                           <xmpG:black>0.003099</xmpG:black>
                        </rdf:li>
                     </rdf:Seq>
                  </xmpG:Colorants>
               </rdf:li>
            </rdf:Seq>
         </xmpTPg:SwatchGroups>
      </rdf:Description>
      <rdf:Description rdf:about=""
            xmlns:pdf="http://ns.adobe.com/pdf/1.3/">
         <pdf:Producer>Adobe PDF library 10.01</pdf:Producer>
      </rdf:Description>
   </rdf:RDF>
</x:xmpmeta>
                                                                                                    
                                                                                                    
                                                                                                    
                                                                                                    
                                                                                                    
                                                                                                    
                                                                                                    
                                                                                                    
                                                                                                    
                                                                                                    
                                                                                                    
                                                                                                    
                                                                                                    
                                                                                                    
                                                                                                    
                                                                                                    
                                                                                                    
                                                                                                    
                                                                                                    
                                                                                                    
                           
<?xpacket end="w"?>
	</metadata>
<g>
	<path fill="#FFFFFF" d="M31.4,10.9c0.2,0.2,0.4,0.3,0.7,0.3s0.5-0.1,0.7-0.3c0.2-0.2,0.3-0.6,0.3-1c0-0.9-0.3-1.4-1-1.4
		s-1,0.5-1,1.4C31.1,10.3,31.2,10.6,31.4,10.9z"/>
</g>
<g>
	<path fill="#FFFFFF" d="M17.6,11.5H11v4.4h6.2V19H11v5h6.9V27H7.3V8.4h10.4V11.5z"/>
	<path fill="#FFFFFF" d="M30.6,11.5h-4.1V27h-3.7V11.5h-4.1V8.4h11.9V11.5z"/>
	<path fill="#FFFFFF" d="M38.5,8.4h3.7v15.5h6.6V27H38.5V8.4z"/>
	<path fill="#FFFFFF" d="M60.9,11.5h-6.6v4.4h6.2V19h-6.2v5h6.9V27H50.5V8.4h10.4V11.5z"/>
	<path fill="#FFFFFF" d="M66,21.8c0,0.4,0,0.8,0.1,1.2c0.1,0.4,0.2,0.7,0.4,0.9c0.2,0.2,0.4,0.4,0.8,0.6c0.3,0.1,0.7,0.2,1.2,0.2
		c0.6,0,1.1-0.2,1.5-0.6c0.5-0.4,0.7-0.9,0.7-1.7c0-0.4-0.1-0.8-0.2-1.1c-0.1-0.3-0.3-0.6-0.6-0.8c-0.3-0.2-0.6-0.5-1-0.7
		c-0.4-0.2-0.9-0.4-1.6-0.6c-0.8-0.3-1.6-0.6-2.2-0.9c-0.6-0.3-1.1-0.7-1.5-1.2c-0.4-0.4-0.7-1-0.9-1.5c-0.2-0.6-0.3-1.3-0.3-2
		c0-1.8,0.5-3.2,1.5-4.1c1-0.9,2.4-1.4,4.2-1.4c0.8,0,1.6,0.1,2.3,0.3c0.7,0.2,1.3,0.5,1.8,0.9c0.5,0.4,0.9,0.9,1.2,1.6
		s0.4,1.4,0.4,2.3v0.5h-3.6c0-0.9-0.2-1.6-0.5-2c-0.3-0.5-0.8-0.7-1.6-0.7c-0.4,0-0.8,0.1-1,0.2c-0.3,0.1-0.5,0.3-0.7,0.5
		c-0.2,0.2-0.3,0.4-0.3,0.7c-0.1,0.3-0.1,0.5-0.1,0.8c0,0.6,0.1,1.1,0.4,1.4c0.2,0.4,0.8,0.7,1.6,1.1l2.9,1.2c0.7,0.3,1.3,0.6,1.7,1
		s0.8,0.7,1.1,1.1c0.3,0.4,0.5,0.8,0.6,1.3c0.1,0.5,0.2,1,0.2,1.6c0,2-0.6,3.4-1.7,4.3c-1.1,0.9-2.7,1.3-4.7,1.3
		c-2.1,0-3.6-0.5-4.5-1.4s-1.4-2.2-1.4-4v-0.8H66V21.8z"/>
	<path fill="#FFFFFF" d="M93.1,8.4v3.1h-6.6v4.4h6.2V19h-6.2V27h-3.7V8.4H93.1z"/>
	<path fill="#FFFFFF" d="M105.2,11.5h-6.6v4.4h6.2V19h-6.2v5h6.9V27H94.8V8.4h10.4V11.5z"/>
	<path fill="#FFFFFF" d="M113,8.4l2.7,13.1h0.1l2.7-13.1h5.5V27h-3.4V12.2h-0.1L117.1,27h-2.9l-3.3-14.8h-0.1V27h-3.4V8.4H113z"/>
	<path fill="#FFFFFF" d="M132.2,8.4l2.7,13.1h0.1l2.7-13.1h5.5V27h-3.4V12.2h-0.1L136.3,27h-2.9l-3.3-14.8h-0.1V27h-3.4V8.4H132.2z"
		/>
	<path fill="#FFFFFF" d="M156.2,11.5h-6.6v4.4h6.2V19h-6.2v5h6.9V27h-10.6V8.4h10.4V11.5z"/>
	<path fill="#FFFFFF" d="M161.3,21.8c0,0.4,0,0.8,0.1,1.2c0.1,0.4,0.2,0.7,0.4,0.9c0.2,0.2,0.4,0.4,0.8,0.6c0.3,0.1,0.7,0.2,1.2,0.2
		c0.6,0,1.1-0.2,1.5-0.6c0.5-0.4,0.7-0.9,0.7-1.7c0-0.4-0.1-0.8-0.2-1.1c-0.1-0.3-0.3-0.6-0.6-0.8c-0.3-0.2-0.6-0.5-1-0.7
		c-0.4-0.2-0.9-0.4-1.6-0.6c-0.8-0.3-1.6-0.6-2.2-0.9c-0.6-0.3-1.1-0.7-1.5-1.2c-0.4-0.4-0.7-1-0.9-1.5c-0.2-0.6-0.3-1.3-0.3-2
		c0-1.8,0.5-3.2,1.5-4.1c1-0.9,2.4-1.4,4.2-1.4c0.8,0,1.6,0.1,2.3,0.3c0.7,0.2,1.3,0.5,1.8,0.9c0.5,0.4,0.9,0.9,1.2,1.6
		s0.4,1.4,0.4,2.3v0.5h-3.6c0-0.9-0.2-1.6-0.5-2c-0.3-0.5-0.8-0.7-1.6-0.7c-0.4,0-0.8,0.1-1,0.2c-0.3,0.1-0.5,0.3-0.7,0.5
		c-0.2,0.2-0.3,0.4-0.3,0.7c-0.1,0.3-0.1,0.5-0.1,0.8c0,0.6,0.1,1.1,0.4,1.4c0.2,0.4,0.8,0.7,1.6,1.1l2.9,1.2c0.7,0.3,1.3,0.6,1.7,1
		s0.8,0.7,1.1,1.1c0.3,0.4,0.5,0.8,0.6,1.3c0.1,0.5,0.2,1,0.2,1.6c0,2-0.6,3.4-1.7,4.3c-1.1,0.9-2.7,1.3-4.7,1.3
		c-2.1,0-3.6-0.5-4.5-1.4s-1.4-2.2-1.4-4v-0.8h3.7V21.8z"/>
	<path fill="#FFFFFF" d="M184.3,8.4c1.3,0,2.3,0.2,3.1,0.6c0.8,0.4,1.4,1,1.9,1.8c0.4,0.8,0.7,1.7,0.9,2.8c0.2,1.1,0.2,2.3,0.2,3.7
		c0,1.6-0.1,3-0.3,4.3c-0.2,1.2-0.5,2.2-1,3c-0.5,0.8-1.1,1.4-2,1.7c-0.8,0.4-1.8,0.6-3.1,0.6h-5.9V8.4H184.3z M183.6,24.3
		c0.7,0,1.2-0.1,1.6-0.3c0.4-0.2,0.7-0.6,0.9-1.1c0.2-0.5,0.4-1.2,0.5-2.1c0.1-0.8,0.1-1.9,0.1-3.2c0-1.1,0-2-0.1-2.8
		c-0.1-0.8-0.2-1.5-0.4-2c-0.2-0.5-0.5-0.9-1-1.2c-0.4-0.3-1-0.4-1.7-0.4H182v13.1H183.6z"/>
	<path fill="#FFFFFF" d="M203.3,11.5h-6.6v4.4h6.2V19h-6.2v5h6.9V27H193V8.4h10.4V11.5z"/>
	<path fill="#FFFFFF" d="M219.1,11.8c-0.3-0.6-0.9-0.9-1.8-0.9c-0.5,0-0.9,0.1-1.2,0.4c-0.3,0.3-0.5,0.7-0.7,1.2
		c-0.2,0.6-0.3,1.3-0.4,2.2c-0.1,0.9-0.1,2-0.1,3.3c0,1.4,0,2.5,0.1,3.4c0.1,0.9,0.2,1.5,0.4,2c0.2,0.5,0.5,0.8,0.8,1
		c0.3,0.2,0.7,0.2,1.1,0.2c0.3,0,0.6-0.1,0.9-0.2c0.3-0.1,0.5-0.3,0.7-0.7c0.2-0.3,0.4-0.8,0.5-1.4c0.1-0.6,0.2-1.4,0.2-2.4h3.7
		c0,1-0.1,2-0.2,2.9s-0.4,1.7-0.9,2.4c-0.4,0.7-1,1.2-1.8,1.6c-0.8,0.4-1.8,0.6-3,0.6c-1.4,0-2.5-0.2-3.4-0.7
		c-0.8-0.5-1.5-1.1-1.9-1.9s-0.7-1.9-0.9-3s-0.2-2.5-0.2-3.9c0-1.4,0.1-2.7,0.2-3.9c0.1-1.2,0.4-2.2,0.9-3.1c0.4-0.8,1.1-1.5,1.9-2
		c0.8-0.5,2-0.7,3.4-0.7c1.3,0,2.4,0.2,3.2,0.7c0.8,0.4,1.3,1,1.7,1.7c0.4,0.7,0.6,1.4,0.7,2.2c0.1,0.8,0.1,1.5,0.1,2.2h-3.7
		C219.6,13.4,219.5,12.4,219.1,11.8z"/>
	<path fill="#FFFFFF" d="M236,11.5h-6.6v4.4h6.2V19h-6.2v5h6.9V27h-10.6V8.4H236V11.5z"/>
	<path fill="#FFFFFF" d="M250,8.4l2.7,13.1h0.1l2.7-13.1h5.5V27h-3.4V12.2h-0.1L254.2,27h-2.9L248,12.2h-0.1V27h-3.4V8.4H250z"/>
	<path fill="#FFFFFF" d="M271.9,8.4l4.9,18.6h-3.9l-0.9-3.9h-4.9l-0.9,3.9h-3.9l4.9-18.6H271.9z M271.4,20l-1.8-8.3h-0.1l-1.8,8.3
		H271.4z"/>
	<path fill="#FFFFFF" d="M285,8.4c1.6,0,2.8,0.4,3.6,1.2s1.3,2,1.3,3.6c0,1.2-0.3,2.3-0.8,3.1c-0.5,0.8-1.3,1.3-2.3,1.5v0.1
		c0.9,0.1,1.6,0.4,2.1,0.9c0.4,0.5,0.7,1.2,0.8,2.3c0,0.3,0.1,0.7,0.1,1.1c0,0.4,0,0.9,0.1,1.4c0,1,0.1,1.7,0.2,2.3
		c0.1,0.5,0.3,0.9,0.7,1.1V27h-4.1c-0.2-0.3-0.3-0.6-0.4-0.9c-0.1-0.3-0.1-0.7-0.1-1.1l-0.1-3.6c0-0.7-0.2-1.3-0.5-1.7
		c-0.3-0.4-0.9-0.6-1.7-0.6h-2V27h-3.7V8.4H285z M283.4,16.6c0.9,0,1.6-0.2,2.1-0.6c0.5-0.4,0.7-1.1,0.7-2.1c0-1.7-0.9-2.6-2.6-2.6
		h-1.8v5.4H283.4z"/>
	<path fill="#FFFFFF" d="M300.8,8.4l4.9,18.6h-3.9l-0.9-3.9H296l-0.9,3.9h-3.9l4.9-18.6H300.8z M300.3,20l-1.8-8.3h-0.1l-1.8,8.3
		H300.3z"/>
	<path fill="#FFFFFF" d="M316.5,11.5h-4.1V27h-3.7V11.5h-4.1V8.4h11.9V11.5z"/>
	<path fill="#FFFFFF" d="M321.8,8.4v7.1h4.4V8.4h3.7V27h-3.7v-8.2h-4.4V27h-3.7V8.4H321.8z"/>
	<path fill="#FFFFFF" d="M332.3,13.8c0.1-1.2,0.4-2.2,0.9-3.1c0.4-0.8,1.1-1.5,1.9-2c0.8-0.5,2-0.7,3.4-0.7s2.5,0.2,3.4,0.7
		c0.8,0.5,1.5,1.1,1.9,2c0.4,0.8,0.7,1.9,0.9,3.1c0.1,1.2,0.2,2.5,0.2,3.9c0,1.4-0.1,2.7-0.2,3.9s-0.4,2.2-0.9,3
		c-0.4,0.8-1.1,1.5-1.9,1.9c-0.8,0.5-2,0.7-3.4,0.7s-2.5-0.2-3.4-0.7c-0.8-0.5-1.5-1.1-1.9-1.9s-0.7-1.9-0.9-3s-0.2-2.5-0.2-3.9
		C332.1,16.3,332.2,15,332.3,13.8z M336,20.9c0.1,0.9,0.2,1.6,0.4,2.1c0.2,0.5,0.4,0.9,0.8,1.2c0.3,0.3,0.8,0.4,1.3,0.4
		c0.6,0,1-0.1,1.3-0.4c0.3-0.3,0.6-0.6,0.8-1.2c0.2-0.5,0.3-1.3,0.4-2.1C341,20,341,19,341,17.7c0-1.2,0-2.3-0.1-3.2
		c-0.1-0.9-0.2-1.6-0.4-2.1c-0.2-0.6-0.4-1-0.8-1.2c-0.3-0.3-0.8-0.4-1.3-0.4c-0.6,0-1,0.1-1.3,0.4c-0.3,0.3-0.6,0.7-0.8,1.2
		s-0.3,1.3-0.4,2.1c-0.1,0.9-0.1,1.9-0.1,3.2C335.9,19,335.9,20,336,20.9z"/>
	<path fill="#FFFFFF" d="M355.8,21.2L355.8,21.2l0.1-12.7h3.4V27H355l-4.6-13h-0.1v13H347V8.4h4.3L355.8,21.2z"/>
	<path fill="#FFFFFF" d="M361.5,13.6c0-0.8,0.1-1.5,0.3-2.2c0.2-0.7,0.5-1.2,1-1.7c0.4-0.5,1-0.8,1.6-1.1c0.6-0.3,1.4-0.4,2.2-0.4
		c1.8,0,3.2,0.5,4.1,1.4c0.9,0.9,1.4,2.1,1.4,3.7c0,0.7-0.1,1.4-0.4,2c-0.2,0.6-0.7,1.3-1.3,2l-1,1.2c-0.5,0.5-0.8,1-1,1.4
		s-0.3,1-0.3,1.6v0.4H365v-1c0-0.9,0.1-1.6,0.4-2.2c0.2-0.6,0.7-1.2,1.2-1.9l1-1.1c0.4-0.4,0.6-0.8,0.8-1.3c0.1-0.5,0.2-0.9,0.2-1.5
		c0-0.7-0.1-1.2-0.4-1.6c-0.3-0.4-0.7-0.6-1.3-0.6c-0.7,0-1.1,0.3-1.4,0.8c-0.3,0.5-0.4,1.2-0.4,2.1v0.6h-3.4V13.6z M368.4,27h-3.6
		v-3.4h3.6V27z"/>
	<path fill="#FFFFFF" d="M17.5,39.2l-0.7,2.8h-0.6c0-0.6-0.2-1.1-0.4-1.5c-0.2-0.4-0.5-0.6-0.9-0.7c-0.2,0-0.4,0-0.6,0
		c-0.2,0-0.5,0-0.8,0h-1.9l-1.1,4.7h1.3c0.4,0,0.7,0,1-0.1c0.2-0.1,0.4-0.2,0.6-0.4c0.2-0.2,0.3-0.4,0.5-0.7
		c0.2-0.3,0.3-0.5,0.3-0.7h0.6l-1.1,4.6h-0.6c0-0.1,0-0.1,0-0.2c0-0.1,0-0.2,0-0.3c0-0.2,0-0.4,0-0.6c0-0.2-0.1-0.3-0.1-0.4
		c-0.1-0.2-0.3-0.4-0.5-0.4s-0.5-0.1-0.8-0.1h-1.3l-0.8,3.6c0,0.1-0.1,0.3-0.1,0.4c0,0.2,0,0.3,0,0.4c0,0.3,0.1,0.5,0.3,0.6
		c0.2,0.1,0.7,0.1,1.5,0.1c0.9,0,1.6,0,1.9-0.1c0.3-0.1,0.6-0.2,0.7-0.3c0.3-0.3,0.7-0.7,1.1-1.2s0.7-1,0.9-1.2h0.6l-1,3.5H5.6
		l0.1-0.5c0.2,0,0.4,0,0.7-0.1c0.3,0,0.5-0.1,0.6-0.1c0.2-0.1,0.3-0.2,0.4-0.3c0.1-0.1,0.2-0.3,0.2-0.5l2-8.5c0,0,0-0.1,0-0.1
		s0-0.1,0-0.2c0-0.1,0-0.2-0.1-0.3c0-0.1-0.1-0.2-0.3-0.2c-0.1-0.1-0.3-0.1-0.6-0.2s-0.4-0.1-0.6-0.1l0.1-0.5H17.5z"/>
	<path fill="#FFFFFF" d="M22.1,38.3l-2.3,10c0,0.2-0.1,0.4-0.1,0.6c0,0.2-0.1,0.4-0.1,0.5c0,0.3,0.1,0.5,0.2,0.6
		c0.1,0.1,0.4,0.2,0.7,0.2c0.1,0,0.3,0,0.5,0s0.4-0.1,0.5-0.1l-0.1,0.5c-0.5,0.2-0.9,0.3-1.1,0.4c-0.3,0.1-0.6,0.1-0.9,0.1
		c-0.4,0-0.8-0.1-1-0.3c-0.2-0.2-0.3-0.5-0.3-0.9c0-0.1,0-0.3,0-0.4c0-0.1,0.1-0.3,0.1-0.5l2-8.7c0-0.2,0.1-0.3,0.1-0.4s0-0.1,0-0.2
		c0-0.2,0-0.4-0.1-0.5c-0.1-0.1-0.2-0.2-0.3-0.2c-0.1,0-0.3-0.1-0.4-0.1s-0.4,0-0.5-0.1l0.1-0.5l3.1-0.2L22.1,38.3z"/>
	<path fill="#FFFFFF" d="M26.9,38.3l-2.3,10c0,0.2-0.1,0.4-0.1,0.6c0,0.2-0.1,0.4-0.1,0.5c0,0.3,0.1,0.5,0.2,0.6
		c0.1,0.1,0.4,0.2,0.7,0.2c0.1,0,0.3,0,0.5,0s0.4-0.1,0.5-0.1l-0.1,0.5c-0.5,0.2-0.9,0.3-1.1,0.4c-0.3,0.1-0.6,0.1-0.9,0.1
		c-0.4,0-0.8-0.1-1-0.3c-0.2-0.2-0.3-0.5-0.3-0.9c0-0.1,0-0.3,0-0.4c0-0.1,0.1-0.3,0.1-0.5l2-8.7c0-0.2,0.1-0.3,0.1-0.4s0-0.1,0-0.2
		c0-0.2,0-0.4-0.1-0.5c-0.1-0.1-0.2-0.2-0.3-0.2c-0.1,0-0.3-0.1-0.4-0.1s-0.4,0-0.5-0.1l0.1-0.5l3.1-0.2L26.9,38.3z"/>
	<path fill="#FFFFFF" d="M34.5,44.4c0,0.6-0.2,1.1-0.6,1.5c-0.4,0.4-0.9,0.8-1.6,1c-0.5,0.2-1,0.3-1.6,0.5c-0.5,0.1-1.1,0.2-1.7,0.3
		c0,0.9,0.2,1.5,0.5,2c0.3,0.5,0.8,0.7,1.4,0.7c0.6,0,1-0.1,1.5-0.4c0.4-0.3,0.8-0.7,1.2-1.2l0.5,0.3c-0.4,0.7-1,1.2-1.7,1.6
		s-1.4,0.6-2.1,0.6c-1,0-1.7-0.3-2.2-0.8c-0.5-0.5-0.8-1.3-0.8-2.3c0-0.7,0.1-1.4,0.3-2c0.2-0.6,0.5-1.2,1-1.7
		c0.4-0.5,0.9-0.9,1.5-1.2c0.6-0.3,1.3-0.5,2-0.5c0.8,0,1.4,0.2,1.8,0.5C34.3,43.4,34.5,43.9,34.5,44.4z M32.9,44.2
		c0-0.2,0-0.4-0.1-0.5c-0.1-0.1-0.1-0.2-0.2-0.3c-0.1-0.1-0.2-0.1-0.3-0.1s-0.2,0-0.3,0c-0.7,0-1.3,0.4-1.8,1.1
		C29.5,45,29.2,45.9,29,47c0.4-0.1,0.8-0.1,1.3-0.2s0.9-0.2,1.2-0.4c0.5-0.2,0.8-0.5,1-0.9C32.8,45.1,32.9,44.7,32.9,44.2z"/>
	<path fill="#FFFFFF" d="M37.8,51.3c-0.8,0-1.5-0.1-2-0.4c-0.5-0.3-0.8-0.7-0.8-1.1c0-0.2,0.1-0.4,0.2-0.6s0.4-0.3,0.6-0.3
		c0.2,0,0.4,0.1,0.5,0.2c0.1,0.1,0.2,0.2,0.3,0.4c0.1,0.1,0.2,0.3,0.2,0.5c0.1,0.2,0.1,0.4,0.2,0.5c0.1,0.1,0.2,0.2,0.3,0.3
		c0.1,0.1,0.4,0.1,0.6,0.1c0.6,0,1-0.1,1.4-0.4c0.3-0.3,0.5-0.7,0.5-1.2c0-0.4-0.1-0.7-0.4-0.9s-0.7-0.4-1.3-0.6
		c-0.2-0.1-0.4-0.2-0.7-0.3c-0.3-0.1-0.5-0.3-0.7-0.4c-0.2-0.2-0.4-0.4-0.5-0.6c-0.1-0.2-0.2-0.5-0.2-0.9c0-0.7,0.3-1.3,1-1.8
		c0.6-0.5,1.4-0.8,2.3-0.8c0.2,0,0.4,0,0.7,0s0.5,0.1,0.8,0.2c0.3,0.1,0.5,0.2,0.7,0.4c0.2,0.2,0.3,0.4,0.3,0.7
		c0,0.2-0.1,0.4-0.2,0.6c-0.2,0.2-0.4,0.3-0.6,0.3c-0.2,0-0.4,0-0.5-0.1s-0.2-0.2-0.3-0.4s-0.2-0.3-0.2-0.5s-0.1-0.3-0.2-0.5
		c-0.1,0-0.2-0.1-0.3-0.1s-0.2,0-0.3,0c-0.5,0-1,0.1-1.2,0.4c-0.3,0.3-0.4,0.6-0.4,1c0,0.4,0.1,0.7,0.4,0.9c0.3,0.2,0.7,0.4,1.2,0.6
		c0.8,0.3,1.3,0.6,1.6,0.9c0.3,0.3,0.5,0.8,0.5,1.3c0,0.8-0.3,1.5-1,2.1C39.6,51,38.8,51.3,37.8,51.3z"/>
	<path fill="#FFFFFF" d="M55.5,45.8c0,0.7-0.1,1.4-0.4,2.1c-0.3,0.7-0.6,1.2-1,1.7c-0.5,0.5-1,0.9-1.6,1.2c-0.6,0.3-1.1,0.4-1.7,0.4
		c-0.5,0-0.9-0.1-1.2-0.2c-0.3-0.1-0.6-0.3-0.8-0.4l-0.5,2.2c0,0.1-0.1,0.3-0.1,0.4c0,0.1,0,0.2,0,0.3c0,0.1,0.1,0.3,0.2,0.4
		c0.1,0.1,0.2,0.2,0.4,0.2c0.1,0,0.3,0.1,0.5,0.1s0.3,0,0.5,0l-0.1,0.5h-4.6l0.1-0.5c0.2,0,0.3,0,0.5,0s0.3,0,0.4-0.1
		c0.2,0,0.3-0.1,0.4-0.3c0.1-0.1,0.2-0.3,0.2-0.5l1.7-7.6c0-0.2,0.1-0.4,0.1-0.6c0-0.2,0.1-0.4,0.1-0.6c0-0.3,0-0.5-0.1-0.6
		c-0.1-0.1-0.3-0.2-0.6-0.2c-0.1,0-0.3,0-0.5,0.1c-0.2,0-0.3,0.1-0.4,0.1l0.1-0.5c0.4-0.2,0.8-0.3,1.1-0.4c0.3-0.1,0.6-0.2,0.9-0.2
		c0.4,0,0.7,0.1,0.9,0.3c0.2,0.2,0.3,0.5,0.4,0.8h0.1c0.4-0.3,0.8-0.6,1.2-0.9c0.4-0.2,0.9-0.3,1.3-0.3c0.8,0,1.5,0.3,2,0.9
		C55.2,44.1,55.5,44.8,55.5,45.8z M52.9,49.2c0.3-0.5,0.5-1,0.7-1.6c0.2-0.6,0.2-1.2,0.2-1.8c0-0.3,0-0.6-0.1-0.9
		c-0.1-0.3-0.1-0.5-0.3-0.7c-0.1-0.2-0.3-0.4-0.5-0.5c-0.2-0.1-0.5-0.2-0.8-0.2c-0.3,0-0.5,0.1-0.8,0.2c-0.3,0.2-0.7,0.4-1.1,0.9
		l-1.1,4.7c0,0.3,0.2,0.6,0.5,0.9c0.3,0.3,0.7,0.4,1.1,0.4c0.4,0,0.8-0.1,1.2-0.4C52.3,50,52.6,49.7,52.9,49.2z"/>
	<path fill="#FFFFFF" d="M64,44c0,0.2,0,0.3-0.1,0.5c0,0.2-0.1,0.3-0.2,0.5c-0.1,0.1-0.2,0.3-0.3,0.3c-0.1,0.1-0.3,0.1-0.5,0.1
		c-0.3,0-0.5-0.1-0.7-0.2S62,44.9,62,44.7c0-0.2,0-0.4,0.1-0.6c0.1-0.2,0.2-0.4,0.3-0.6c-0.1,0-0.2,0-0.3,0.1s-0.3,0.1-0.6,0.2
		c-0.2,0.1-0.5,0.3-0.7,0.5c-0.3,0.2-0.6,0.5-0.9,0.8L58.5,51H57l1.2-5.4c0-0.1,0.1-0.3,0.1-0.6c0.1-0.3,0.1-0.5,0.1-0.6
		c0-0.3-0.1-0.5-0.2-0.6c-0.1-0.1-0.3-0.2-0.6-0.2c-0.1,0-0.3,0-0.5,0.1c-0.2,0-0.3,0.1-0.4,0.1l0.1-0.5c0.4-0.2,0.8-0.3,1.1-0.4
		s0.6-0.1,0.9-0.1c0.4,0,0.8,0.1,0.9,0.4c0.2,0.2,0.3,0.6,0.3,1.1h0c0.7-0.6,1.2-1,1.5-1.2s0.7-0.3,1.1-0.3c0.2,0,0.3,0,0.5,0.1
		s0.3,0.1,0.4,0.2c0.1,0.1,0.2,0.3,0.3,0.4C63.9,43.5,64,43.7,64,44z"/>
	<path fill="#FFFFFF" d="M72.5,45.9c0,0.7-0.1,1.3-0.3,2c-0.2,0.7-0.5,1.2-1,1.7c-0.4,0.5-0.9,0.9-1.5,1.2c-0.6,0.3-1.3,0.5-2.1,0.5
		c-0.9,0-1.7-0.3-2.2-0.9c-0.6-0.6-0.9-1.4-0.9-2.4c0-0.7,0.1-1.4,0.4-2.1c0.2-0.6,0.6-1.2,1-1.7c0.4-0.5,0.9-0.9,1.5-1.2
		c0.6-0.3,1.3-0.4,2-0.4c1,0,1.8,0.3,2.3,0.9C72.2,44.1,72.5,44.9,72.5,45.9z M70.8,45.6c0-0.8-0.1-1.4-0.4-1.8
		c-0.3-0.4-0.7-0.6-1.2-0.6c-0.5,0-0.9,0.1-1.3,0.4c-0.4,0.3-0.8,0.7-1,1.4c-0.2,0.5-0.4,1-0.5,1.6c-0.1,0.6-0.2,1.1-0.2,1.6
		c0,0.8,0.1,1.4,0.4,1.8c0.3,0.4,0.7,0.6,1.2,0.6c0.5,0,0.9-0.2,1.3-0.5s0.7-0.7,0.9-1.2c0.2-0.5,0.4-1,0.5-1.6S70.8,46.2,70.8,45.6
		z"/>
	<path fill="#FFFFFF" d="M78.9,49.9L78.9,49.9c-0.2,0.1-0.3,0.2-0.5,0.4s-0.4,0.3-0.6,0.4c-0.3,0.1-0.5,0.3-0.8,0.4
		c-0.3,0.1-0.5,0.1-0.9,0.1c-0.8,0-1.4-0.3-1.9-0.9c-0.4-0.6-0.7-1.4-0.7-2.3c0-0.7,0.1-1.4,0.4-2c0.3-0.6,0.6-1.2,1-1.7
		c0.4-0.5,0.9-0.9,1.5-1.2c0.6-0.3,1.2-0.4,1.8-0.4c0.4,0,0.8,0.1,1.1,0.2c0.4,0.1,0.6,0.2,0.9,0.4l1.5-0.4l0.1,0.1l-1.4,6.5
		c-0.2,1-0.5,1.8-0.8,2.5c-0.3,0.7-0.7,1.2-1.1,1.6c-0.4,0.4-0.9,0.7-1.5,0.9s-1.1,0.3-1.8,0.3c-0.5,0-0.8,0-1.1-0.1
		s-0.5-0.2-0.7-0.3s-0.3-0.2-0.3-0.4c-0.1-0.1-0.1-0.3-0.1-0.4c0-0.2,0.1-0.5,0.2-0.6c0.1-0.2,0.4-0.3,0.6-0.3
		c0.2,0,0.4,0.1,0.5,0.2c0.1,0.1,0.3,0.2,0.3,0.4c0.1,0.1,0.2,0.3,0.3,0.5c0.1,0.2,0.2,0.3,0.2,0.4h0.2c0.3,0,0.6-0.1,1-0.2
		c0.3-0.1,0.7-0.4,1-0.7c0.3-0.3,0.6-0.8,0.8-1.3C78.6,51.4,78.8,50.7,78.9,49.9z M80,44.6c0-0.2,0-0.3-0.1-0.5
		c0-0.2-0.1-0.3-0.3-0.5c-0.1-0.1-0.3-0.2-0.5-0.3c-0.2-0.1-0.4-0.1-0.7-0.1c-0.4,0-0.8,0.1-1.2,0.4c-0.4,0.3-0.7,0.6-1,1.1
		c-0.3,0.4-0.5,0.9-0.7,1.5c-0.2,0.6-0.3,1.2-0.3,1.8c0,0.3,0,0.6,0.1,0.9c0,0.3,0.1,0.5,0.2,0.7c0.1,0.2,0.3,0.4,0.5,0.5
		c0.2,0.1,0.4,0.2,0.7,0.2c0.4,0,0.8-0.1,1.2-0.3c0.4-0.2,0.7-0.5,1.1-0.9L80,44.6z"/>
	<path fill="#FFFFFF" d="M90.7,44c0,0.2,0,0.3-0.1,0.5c0,0.2-0.1,0.3-0.2,0.5c-0.1,0.1-0.2,0.3-0.3,0.3c-0.1,0.1-0.3,0.1-0.5,0.1
		c-0.3,0-0.5-0.1-0.7-0.2s-0.2-0.3-0.2-0.5c0-0.2,0-0.4,0.1-0.6c0.1-0.2,0.2-0.4,0.3-0.6c-0.1,0-0.2,0-0.3,0.1s-0.3,0.1-0.6,0.2
		c-0.2,0.1-0.5,0.3-0.7,0.5c-0.3,0.2-0.6,0.5-0.9,0.8L85.2,51h-1.5l1.2-5.4c0-0.1,0.1-0.3,0.1-0.6c0.1-0.3,0.1-0.5,0.1-0.6
		c0-0.3-0.1-0.5-0.2-0.6c-0.1-0.1-0.3-0.2-0.6-0.2c-0.1,0-0.3,0-0.5,0.1c-0.2,0-0.3,0.1-0.4,0.1l0.1-0.5c0.4-0.2,0.8-0.3,1.1-0.4
		s0.6-0.1,0.9-0.1c0.4,0,0.8,0.1,0.9,0.4c0.2,0.2,0.3,0.6,0.3,1.1h0c0.7-0.6,1.2-1,1.5-1.2s0.7-0.3,1.1-0.3c0.2,0,0.3,0,0.5,0.1
		s0.3,0.1,0.4,0.2c0.1,0.1,0.2,0.3,0.3,0.4C90.6,43.5,90.7,43.7,90.7,44z"/>
	<path fill="#FFFFFF" d="M98.3,44.4c0,0.6-0.2,1.1-0.6,1.5c-0.4,0.4-0.9,0.8-1.6,1c-0.5,0.2-1,0.3-1.6,0.5c-0.5,0.1-1.1,0.2-1.7,0.3
		c0,0.9,0.2,1.5,0.5,2c0.3,0.5,0.8,0.7,1.4,0.7c0.6,0,1-0.1,1.5-0.4c0.4-0.3,0.8-0.7,1.2-1.2l0.5,0.3c-0.4,0.7-1,1.2-1.7,1.6
		s-1.4,0.6-2.1,0.6c-1,0-1.7-0.3-2.2-0.8c-0.5-0.5-0.8-1.3-0.8-2.3c0-0.7,0.1-1.4,0.3-2c0.2-0.6,0.5-1.2,1-1.7
		c0.4-0.5,0.9-0.9,1.5-1.2c0.6-0.3,1.3-0.5,2-0.5c0.8,0,1.4,0.2,1.8,0.5C98.1,43.4,98.3,43.9,98.3,44.4z M96.8,44.2
		c0-0.2,0-0.4-0.1-0.5c-0.1-0.1-0.1-0.2-0.2-0.3c-0.1-0.1-0.2-0.1-0.3-0.1s-0.2,0-0.3,0c-0.7,0-1.3,0.4-1.8,1.1
		C93.4,45,93,45.9,92.9,47c0.4-0.1,0.8-0.1,1.3-0.2s0.9-0.2,1.2-0.4c0.5-0.2,0.8-0.5,1-0.9C96.6,45.1,96.8,44.7,96.8,44.2z"/>
	<path fill="#FFFFFF" d="M101.6,51.3c-0.8,0-1.5-0.1-2-0.4c-0.5-0.3-0.8-0.7-0.8-1.1c0-0.2,0.1-0.4,0.2-0.6s0.4-0.3,0.6-0.3
		c0.2,0,0.4,0.1,0.5,0.2c0.1,0.1,0.2,0.2,0.3,0.4c0.1,0.1,0.2,0.3,0.2,0.5c0.1,0.2,0.1,0.4,0.2,0.5c0.1,0.1,0.2,0.2,0.3,0.3
		c0.1,0.1,0.4,0.1,0.6,0.1c0.6,0,1-0.1,1.4-0.4c0.3-0.3,0.5-0.7,0.5-1.2c0-0.4-0.1-0.7-0.4-0.9s-0.7-0.4-1.3-0.6
		c-0.2-0.1-0.4-0.2-0.7-0.3c-0.3-0.1-0.5-0.3-0.7-0.4c-0.2-0.2-0.4-0.4-0.5-0.6c-0.1-0.2-0.2-0.5-0.2-0.9c0-0.7,0.3-1.3,1-1.8
		c0.6-0.5,1.4-0.8,2.3-0.8c0.2,0,0.4,0,0.7,0s0.5,0.1,0.8,0.2c0.3,0.1,0.5,0.2,0.7,0.4c0.2,0.2,0.3,0.4,0.3,0.7
		c0,0.2-0.1,0.4-0.2,0.6c-0.2,0.2-0.4,0.3-0.6,0.3c-0.2,0-0.4,0-0.5-0.1s-0.2-0.2-0.3-0.4s-0.2-0.3-0.2-0.5s-0.1-0.3-0.2-0.5
		c-0.1,0-0.2-0.1-0.3-0.1s-0.2,0-0.3,0c-0.5,0-1,0.1-1.2,0.4c-0.3,0.3-0.4,0.6-0.4,1c0,0.4,0.1,0.7,0.4,0.9c0.3,0.2,0.7,0.4,1.2,0.6
		c0.8,0.3,1.3,0.6,1.6,0.9c0.3,0.3,0.5,0.8,0.5,1.3c0,0.8-0.3,1.5-1,2.1C103.4,51,102.6,51.3,101.6,51.3z"/>
	<path fill="#FFFFFF" d="M109,51.3c-0.8,0-1.5-0.1-2-0.4c-0.5-0.3-0.8-0.7-0.8-1.1c0-0.2,0.1-0.4,0.2-0.6s0.4-0.3,0.6-0.3
		c0.2,0,0.4,0.1,0.5,0.2c0.1,0.1,0.2,0.2,0.3,0.4c0.1,0.1,0.2,0.3,0.2,0.5c0.1,0.2,0.1,0.4,0.2,0.5c0.1,0.1,0.2,0.2,0.3,0.3
		c0.1,0.1,0.4,0.1,0.6,0.1c0.6,0,1-0.1,1.4-0.4c0.3-0.3,0.5-0.7,0.5-1.2c0-0.4-0.1-0.7-0.4-0.9s-0.7-0.4-1.3-0.6
		c-0.2-0.1-0.4-0.2-0.7-0.3c-0.3-0.1-0.5-0.3-0.7-0.4c-0.2-0.2-0.4-0.4-0.5-0.6c-0.1-0.2-0.2-0.5-0.2-0.9c0-0.7,0.3-1.3,1-1.8
		c0.6-0.5,1.4-0.8,2.3-0.8c0.2,0,0.4,0,0.7,0s0.5,0.1,0.8,0.2c0.3,0.1,0.5,0.2,0.7,0.4c0.2,0.2,0.3,0.4,0.3,0.7
		c0,0.2-0.1,0.4-0.2,0.6c-0.2,0.2-0.4,0.3-0.6,0.3c-0.2,0-0.4,0-0.5-0.1s-0.2-0.2-0.3-0.4s-0.2-0.3-0.2-0.5s-0.1-0.3-0.2-0.5
		c-0.1,0-0.2-0.1-0.3-0.1s-0.2,0-0.3,0c-0.5,0-1,0.1-1.2,0.4c-0.3,0.3-0.4,0.6-0.4,1c0,0.4,0.1,0.7,0.4,0.9c0.3,0.2,0.7,0.4,1.2,0.6
		c0.8,0.3,1.3,0.6,1.6,0.9c0.3,0.3,0.5,0.8,0.5,1.3c0,0.8-0.3,1.5-1,2.1C110.8,51,109.9,51.3,109,51.3z"/>
	<path fill="#FFFFFF" d="M121,44.4c0,0.6-0.2,1.1-0.6,1.5c-0.4,0.4-0.9,0.8-1.6,1c-0.5,0.2-1,0.3-1.6,0.5c-0.5,0.1-1.1,0.2-1.7,0.3
		c0,0.9,0.2,1.5,0.5,2c0.3,0.5,0.8,0.7,1.4,0.7c0.6,0,1-0.1,1.5-0.4c0.4-0.3,0.8-0.7,1.2-1.2l0.5,0.3c-0.4,0.7-1,1.2-1.7,1.6
		s-1.4,0.6-2.1,0.6c-1,0-1.7-0.3-2.2-0.8c-0.5-0.5-0.8-1.3-0.8-2.3c0-0.7,0.1-1.4,0.3-2c0.2-0.6,0.5-1.2,1-1.7
		c0.4-0.5,0.9-0.9,1.5-1.2c0.6-0.3,1.3-0.5,2-0.5c0.8,0,1.4,0.2,1.8,0.5C120.8,43.4,121,43.9,121,44.4z M119.4,44.2
		c0-0.2,0-0.4-0.1-0.5c-0.1-0.1-0.1-0.2-0.2-0.3c-0.1-0.1-0.2-0.1-0.3-0.1s-0.2,0-0.3,0c-0.7,0-1.3,0.4-1.8,1.1
		c-0.6,0.7-0.9,1.6-1.1,2.7c0.4-0.1,0.8-0.1,1.3-0.2s0.9-0.2,1.2-0.4c0.5-0.2,0.8-0.5,1-0.9C119.3,45.1,119.4,44.7,119.4,44.2z"/>
	<path fill="#FFFFFF" d="M130.8,50l-0.1,0.5c-0.5,0.2-0.9,0.3-1.2,0.4c-0.3,0.1-0.6,0.1-0.8,0.1c-0.4,0-0.8-0.1-1-0.3
		c-0.2-0.2-0.3-0.5-0.3-0.9c0-0.1,0-0.3,0-0.4s0.1-0.3,0.1-0.5l0.8-3.1c0.1-0.2,0.1-0.5,0.1-0.6s0.1-0.3,0.1-0.5
		c0-0.4-0.1-0.7-0.3-0.9c-0.2-0.2-0.4-0.3-0.8-0.3c-0.3,0-0.7,0.1-1.1,0.3c-0.4,0.2-0.8,0.5-1.2,1l-1.4,6.1h-1.6l1.2-5.4
		c0-0.1,0.1-0.3,0.1-0.6s0.1-0.5,0.1-0.6c0-0.3-0.1-0.5-0.2-0.6c-0.1-0.1-0.3-0.2-0.6-0.2c-0.1,0-0.3,0-0.5,0.1
		c-0.2,0-0.3,0.1-0.4,0.1l0.1-0.5c0.4-0.2,0.8-0.3,1.2-0.4c0.3-0.1,0.6-0.1,0.9-0.1c0.4,0,0.8,0.1,0.9,0.4c0.2,0.2,0.3,0.6,0.3,1h0
		c0.6-0.5,1.1-0.8,1.6-1.1s0.9-0.4,1.5-0.4c0.5,0,0.9,0.2,1.2,0.5c0.3,0.3,0.4,0.7,0.4,1.2c0,0.1,0,0.3,0,0.5c0,0.3-0.1,0.5-0.1,0.8
		l-0.7,2.7c0,0.2-0.1,0.4-0.1,0.6c0,0.2-0.1,0.4-0.1,0.5c0,0.3,0.1,0.5,0.2,0.6c0.1,0.1,0.4,0.2,0.7,0.2c0.1,0,0.3,0,0.5-0.1
		C130.6,50.1,130.7,50.1,130.8,50z"/>
	<path fill="#FFFFFF" d="M133.8,51.2c-0.5,0-0.9-0.1-1.2-0.3c-0.2-0.2-0.4-0.5-0.4-0.9c0-0.1,0-0.2,0-0.4c0-0.1,0-0.2,0.1-0.4
		l1.3-5.5h-1.5l0.2-0.8h1.5l0.6-2.4h1.5l-0.6,2.4h2.3l-0.2,0.8h-2.3l-1.1,4.6c0,0.2-0.1,0.4-0.1,0.6c0,0.2,0,0.4,0,0.5
		c0,0.3,0.1,0.5,0.2,0.7c0.2,0.1,0.4,0.2,0.8,0.2c0.1,0,0.3,0,0.6-0.1c0.3,0,0.5-0.1,0.6-0.1l-0.1,0.6c-0.4,0.1-0.8,0.3-1.1,0.4
		C134.7,51.1,134.3,51.2,133.8,51.2z"/>
	<path fill="#FFFFFF" d="M146.3,38.3l-2.3,10c0,0.2-0.1,0.4-0.1,0.6c0,0.2-0.1,0.4-0.1,0.5c0,0.3,0.1,0.5,0.2,0.6
		c0.1,0.1,0.4,0.2,0.7,0.2c0.1,0,0.3,0,0.5,0s0.4-0.1,0.5-0.1l-0.1,0.5c-0.5,0.2-0.9,0.3-1.1,0.4c-0.3,0.1-0.6,0.1-0.9,0.1
		c-0.4,0-0.8-0.1-1-0.3c-0.2-0.2-0.3-0.5-0.3-0.9c0-0.1,0-0.3,0-0.4c0-0.1,0.1-0.3,0.1-0.5l2-8.7c0-0.2,0.1-0.3,0.1-0.4s0-0.1,0-0.2
		c0-0.2,0-0.4-0.1-0.5c-0.1-0.1-0.2-0.2-0.3-0.2c-0.1,0-0.3-0.1-0.4-0.1s-0.4,0-0.5-0.1l0.1-0.5l3.1-0.2L146.3,38.3z"/>
	<path fill="#FFFFFF" d="M153.9,44.4c0,0.6-0.2,1.1-0.6,1.5c-0.4,0.4-0.9,0.8-1.6,1c-0.5,0.2-1,0.3-1.6,0.5
		c-0.5,0.1-1.1,0.2-1.7,0.3c0,0.9,0.2,1.5,0.5,2c0.3,0.5,0.8,0.7,1.4,0.7c0.6,0,1-0.1,1.5-0.4c0.4-0.3,0.8-0.7,1.2-1.2l0.5,0.3
		c-0.4,0.7-1,1.2-1.7,1.6s-1.4,0.6-2.1,0.6c-1,0-1.7-0.3-2.2-0.8c-0.5-0.5-0.8-1.3-0.8-2.3c0-0.7,0.1-1.4,0.3-2
		c0.2-0.6,0.5-1.2,1-1.7c0.4-0.5,0.9-0.9,1.5-1.2c0.6-0.3,1.3-0.5,2-0.5c0.8,0,1.4,0.2,1.8,0.5C153.7,43.4,153.9,43.9,153.9,44.4z
		 M152.3,44.2c0-0.2,0-0.4-0.1-0.5c-0.1-0.1-0.1-0.2-0.2-0.3c-0.1-0.1-0.2-0.1-0.3-0.1s-0.2,0-0.3,0c-0.7,0-1.3,0.4-1.8,1.1
		c-0.6,0.7-0.9,1.6-1.1,2.7c0.4-0.1,0.8-0.1,1.3-0.2s0.9-0.2,1.2-0.4c0.5-0.2,0.8-0.5,1-0.9C152.2,45.1,152.3,44.7,152.3,44.2z"/>
	<path fill="#FFFFFF" d="M163.7,50l-0.1,0.5c-0.5,0.2-0.9,0.3-1.2,0.4c-0.3,0.1-0.6,0.1-0.8,0.1c-0.4,0-0.8-0.1-1-0.3
		c-0.2-0.2-0.3-0.5-0.3-0.9c0-0.1,0-0.3,0-0.4s0.1-0.3,0.1-0.5l0.8-3.1c0.1-0.2,0.1-0.5,0.1-0.6s0.1-0.3,0.1-0.5
		c0-0.4-0.1-0.7-0.3-0.9c-0.2-0.2-0.4-0.3-0.8-0.3c-0.3,0-0.7,0.1-1.1,0.3c-0.4,0.2-0.8,0.5-1.2,1l-1.4,6.1h-1.6l1.2-5.4
		c0-0.1,0.1-0.3,0.1-0.6s0.1-0.5,0.1-0.6c0-0.3-0.1-0.5-0.2-0.6c-0.1-0.1-0.3-0.2-0.6-0.2c-0.1,0-0.3,0-0.5,0.1
		c-0.2,0-0.3,0.1-0.4,0.1l0.1-0.5c0.4-0.2,0.8-0.3,1.2-0.4c0.3-0.1,0.6-0.1,0.9-0.1c0.4,0,0.8,0.1,0.9,0.4c0.2,0.2,0.3,0.6,0.3,1h0
		c0.6-0.5,1.1-0.8,1.6-1.1s0.9-0.4,1.5-0.4c0.5,0,0.9,0.2,1.2,0.5c0.3,0.3,0.4,0.7,0.4,1.2c0,0.1,0,0.3,0,0.5c0,0.3-0.1,0.5-0.1,0.8
		l-0.7,2.7c0,0.2-0.1,0.4-0.1,0.6c0,0.2-0.1,0.4-0.1,0.5c0,0.3,0.1,0.5,0.2,0.6c0.1,0.1,0.4,0.2,0.7,0.2c0.1,0,0.3,0,0.5-0.1
		C163.5,50.1,163.6,50.1,163.7,50z"/>
	<path fill="#FFFFFF" d="M166.7,51.2c-0.5,0-0.9-0.1-1.2-0.3c-0.2-0.2-0.4-0.5-0.4-0.9c0-0.1,0-0.2,0-0.4c0-0.1,0-0.2,0.1-0.4
		l1.3-5.5h-1.5l0.2-0.8h1.5l0.6-2.4h1.5l-0.6,2.4h2.3l-0.2,0.8h-2.3l-1.1,4.6c0,0.2-0.1,0.4-0.1,0.6c0,0.2,0,0.4,0,0.5
		c0,0.3,0.1,0.5,0.2,0.7c0.2,0.1,0.4,0.2,0.8,0.2c0.1,0,0.3,0,0.6-0.1c0.3,0,0.5-0.1,0.6-0.1l-0.1,0.6c-0.4,0.1-0.8,0.3-1.1,0.4
		C167.6,51.1,167.2,51.2,166.7,51.2z"/>
	<path fill="#FFFFFF" d="M177.8,44.4c0,0.6-0.2,1.1-0.6,1.5c-0.4,0.4-0.9,0.8-1.6,1c-0.5,0.2-1,0.3-1.6,0.5
		c-0.5,0.1-1.1,0.2-1.7,0.3c0,0.9,0.2,1.5,0.5,2c0.3,0.5,0.8,0.7,1.4,0.7c0.6,0,1-0.1,1.5-0.4c0.4-0.3,0.8-0.7,1.2-1.2l0.5,0.3
		c-0.4,0.7-1,1.2-1.7,1.6s-1.4,0.6-2.1,0.6c-1,0-1.7-0.3-2.2-0.8c-0.5-0.5-0.8-1.3-0.8-2.3c0-0.7,0.1-1.4,0.3-2
		c0.2-0.6,0.5-1.2,1-1.7c0.4-0.5,0.9-0.9,1.5-1.2c0.6-0.3,1.3-0.5,2-0.5c0.8,0,1.4,0.2,1.8,0.5C177.6,43.4,177.8,43.9,177.8,44.4z
		 M176.3,44.2c0-0.2,0-0.4-0.1-0.5c-0.1-0.1-0.1-0.2-0.2-0.3c-0.1-0.1-0.2-0.1-0.3-0.1s-0.2,0-0.3,0c-0.7,0-1.3,0.4-1.8,1.1
		c-0.6,0.7-0.9,1.6-1.1,2.7c0.4-0.1,0.8-0.1,1.3-0.2s0.9-0.2,1.2-0.4c0.5-0.2,0.8-0.5,1-0.9C176.2,45.1,176.3,44.7,176.3,44.2z"/>
	<path fill="#FFFFFF" d="M192.6,50.1l-0.1,0.5c-0.5,0.2-0.9,0.3-1.2,0.4c-0.3,0.1-0.6,0.1-0.8,0.1c-0.4,0-0.8-0.1-1-0.3
		c-0.2-0.2-0.3-0.5-0.3-0.9c0-0.1,0-0.3,0-0.4s0.1-0.3,0.1-0.5l0.8-3.1c0.1-0.2,0.1-0.5,0.1-0.6s0.1-0.3,0.1-0.5
		c0-0.4-0.1-0.7-0.2-0.9c-0.2-0.2-0.4-0.3-0.8-0.3c-0.4,0-0.7,0.1-1.1,0.3c-0.4,0.2-0.8,0.5-1.2,1l-1.5,6.2H184l1.3-5.6
		c0-0.1,0.1-0.3,0.1-0.4c0-0.1,0-0.2,0-0.3c0-0.4-0.1-0.6-0.3-0.8c-0.2-0.2-0.4-0.3-0.8-0.3c-0.3,0-0.7,0.1-1,0.2
		c-0.4,0.2-0.8,0.5-1.3,1.1l-1.4,6.1h-1.6l1.2-5.4c0-0.2,0.1-0.4,0.1-0.6c0-0.2,0.1-0.4,0.1-0.6c0-0.3-0.1-0.5-0.2-0.6
		c-0.1-0.1-0.3-0.2-0.6-0.2c-0.1,0-0.3,0-0.5,0.1s-0.3,0.1-0.4,0.1l0.1-0.5c0.4-0.2,0.8-0.3,1.2-0.4c0.3-0.1,0.6-0.1,0.9-0.1
		c0.4,0,0.8,0.1,0.9,0.4c0.2,0.2,0.3,0.6,0.3,1h0c0.7-0.5,1.2-0.9,1.6-1.1c0.4-0.2,0.9-0.3,1.5-0.3c0.5,0,0.9,0.1,1.2,0.4
		c0.3,0.3,0.5,0.6,0.5,1.1h0c0.6-0.5,1.1-0.9,1.6-1.1c0.5-0.3,1-0.4,1.6-0.4c0.5,0,0.9,0.2,1.2,0.5c0.3,0.3,0.4,0.7,0.4,1.2
		c0,0.1,0,0.3,0,0.5c0,0.3-0.1,0.5-0.1,0.8l-0.7,2.7c0,0.2-0.1,0.4-0.1,0.6s-0.1,0.4-0.1,0.5c0,0.3,0.1,0.5,0.2,0.6
		c0.1,0.1,0.4,0.2,0.7,0.2c0.1,0,0.3,0,0.5,0C192.3,50.1,192.5,50.1,192.6,50.1z"/>
	<path fill="#FFFFFF" d="M200.8,44.4c0,0.6-0.2,1.1-0.6,1.5c-0.4,0.4-0.9,0.8-1.6,1c-0.5,0.2-1,0.3-1.6,0.5
		c-0.5,0.1-1.1,0.2-1.7,0.3c0,0.9,0.2,1.5,0.5,2c0.3,0.5,0.8,0.7,1.4,0.7c0.6,0,1-0.1,1.5-0.4c0.4-0.3,0.8-0.7,1.2-1.2l0.5,0.3
		c-0.4,0.7-1,1.2-1.7,1.6s-1.4,0.6-2.1,0.6c-1,0-1.7-0.3-2.2-0.8c-0.5-0.5-0.8-1.3-0.8-2.3c0-0.7,0.1-1.4,0.3-2
		c0.2-0.6,0.5-1.2,1-1.7c0.4-0.5,0.9-0.9,1.5-1.2c0.6-0.3,1.3-0.5,2-0.5c0.8,0,1.4,0.2,1.8,0.5C200.6,43.4,200.8,43.9,200.8,44.4z
		 M199.2,44.2c0-0.2,0-0.4-0.1-0.5c-0.1-0.1-0.1-0.2-0.2-0.3c-0.1-0.1-0.2-0.1-0.3-0.1s-0.2,0-0.3,0c-0.7,0-1.3,0.4-1.8,1.1
		c-0.6,0.7-0.9,1.6-1.1,2.7c0.4-0.1,0.8-0.1,1.3-0.2s0.9-0.2,1.2-0.4c0.5-0.2,0.8-0.5,1-0.9C199.1,45.1,199.2,44.7,199.2,44.2z"/>
	<path fill="#FFFFFF" d="M210.6,50l-0.1,0.5c-0.5,0.2-0.9,0.3-1.2,0.4c-0.3,0.1-0.6,0.1-0.8,0.1c-0.4,0-0.8-0.1-1-0.3
		c-0.2-0.2-0.3-0.5-0.3-0.9c0-0.1,0-0.3,0-0.4s0.1-0.3,0.1-0.5l0.8-3.1c0.1-0.2,0.1-0.5,0.1-0.6s0.1-0.3,0.1-0.5
		c0-0.4-0.1-0.7-0.3-0.9c-0.2-0.2-0.4-0.3-0.8-0.3c-0.3,0-0.7,0.1-1.1,0.3c-0.4,0.2-0.8,0.5-1.2,1l-1.4,6.1H202l1.2-5.4
		c0-0.1,0.1-0.3,0.1-0.6s0.1-0.5,0.1-0.6c0-0.3-0.1-0.5-0.2-0.6c-0.1-0.1-0.3-0.2-0.6-0.2c-0.1,0-0.3,0-0.5,0.1
		c-0.2,0-0.3,0.1-0.4,0.1l0.1-0.5c0.4-0.2,0.8-0.3,1.2-0.4c0.3-0.1,0.6-0.1,0.9-0.1c0.4,0,0.8,0.1,0.9,0.4c0.2,0.2,0.3,0.6,0.3,1h0
		c0.6-0.5,1.1-0.8,1.6-1.1s0.9-0.4,1.5-0.4c0.5,0,0.9,0.2,1.2,0.5c0.3,0.3,0.4,0.7,0.4,1.2c0,0.1,0,0.3,0,0.5c0,0.3-0.1,0.5-0.1,0.8
		l-0.7,2.7c0,0.2-0.1,0.4-0.1,0.6c0,0.2-0.1,0.4-0.1,0.5c0,0.3,0.1,0.5,0.2,0.6c0.1,0.1,0.4,0.2,0.7,0.2c0.1,0,0.3,0,0.5-0.1
		C210.4,50.1,210.5,50.1,210.6,50z"/>
	<path fill="#FFFFFF" d="M213.6,51.2c-0.5,0-0.9-0.1-1.2-0.3c-0.2-0.2-0.4-0.5-0.4-0.9c0-0.1,0-0.2,0-0.4c0-0.1,0-0.2,0.1-0.4
		l1.3-5.5H212l0.2-0.8h1.5l0.6-2.4h1.5l-0.6,2.4h2.3l-0.2,0.8h-2.3l-1.1,4.6c0,0.2-0.1,0.4-0.1,0.6c0,0.2,0,0.4,0,0.5
		c0,0.3,0.1,0.5,0.2,0.7c0.2,0.1,0.4,0.2,0.8,0.2c0.1,0,0.3,0,0.6-0.1c0.3,0,0.5-0.1,0.6-0.1l-0.1,0.6c-0.4,0.1-0.8,0.3-1.1,0.4
		C214.5,51.1,214.1,51.2,213.6,51.2z"/>
	<path fill="#FFFFFF" d="M235.6,50.1l-0.1,0.5c-0.5,0.2-0.9,0.3-1.2,0.4c-0.3,0.1-0.6,0.1-0.8,0.1c-0.4,0-0.8-0.1-1-0.3
		c-0.2-0.2-0.3-0.5-0.3-0.9c0-0.1,0-0.3,0-0.4s0.1-0.3,0.1-0.5l0.8-3.1c0.1-0.2,0.1-0.5,0.1-0.6s0.1-0.3,0.1-0.5
		c0-0.4-0.1-0.7-0.2-0.9c-0.2-0.2-0.4-0.3-0.8-0.3c-0.4,0-0.7,0.1-1.1,0.3c-0.4,0.2-0.8,0.5-1.2,1l-1.5,6.2H227l1.3-5.6
		c0-0.1,0.1-0.3,0.1-0.4c0-0.1,0-0.2,0-0.3c0-0.4-0.1-0.6-0.3-0.8c-0.2-0.2-0.4-0.3-0.8-0.3c-0.3,0-0.7,0.1-1,0.2
		c-0.4,0.2-0.8,0.5-1.3,1.1l-1.4,6.1H222l1.2-5.4c0-0.2,0.1-0.4,0.1-0.6c0-0.2,0.1-0.4,0.1-0.6c0-0.3-0.1-0.5-0.2-0.6
		c-0.1-0.1-0.3-0.2-0.6-0.2c-0.1,0-0.3,0-0.5,0.1s-0.3,0.1-0.4,0.1l0.1-0.5c0.4-0.2,0.8-0.3,1.2-0.4c0.3-0.1,0.6-0.1,0.9-0.1
		c0.4,0,0.8,0.1,0.9,0.4c0.2,0.2,0.3,0.6,0.3,1h0c0.7-0.5,1.2-0.9,1.6-1.1c0.4-0.2,0.9-0.3,1.5-0.3c0.5,0,0.9,0.1,1.2,0.4
		c0.3,0.3,0.5,0.6,0.5,1.1h0c0.6-0.5,1.1-0.9,1.6-1.1c0.5-0.3,1-0.4,1.6-0.4c0.5,0,0.9,0.2,1.2,0.5c0.3,0.3,0.4,0.7,0.4,1.2
		c0,0.1,0,0.3,0,0.5c0,0.3-0.1,0.5-0.1,0.8l-0.7,2.7c0,0.2-0.1,0.4-0.1,0.6s-0.1,0.4-0.1,0.5c0,0.3,0.1,0.5,0.2,0.6
		c0.1,0.1,0.4,0.2,0.7,0.2c0.1,0,0.3,0,0.5,0C235.3,50.1,235.5,50.1,235.6,50.1z"/>
	<path fill="#FFFFFF" d="M241.9,49.9L241.9,49.9c-0.2,0.1-0.3,0.2-0.5,0.4c-0.2,0.2-0.4,0.3-0.6,0.4c-0.2,0.1-0.5,0.3-0.7,0.4
		c-0.3,0.1-0.5,0.2-0.8,0.2c-0.8,0-1.4-0.3-1.9-0.9c-0.5-0.6-0.7-1.4-0.7-2.4c0-0.7,0.1-1.4,0.4-2s0.6-1.2,1.1-1.7
		c0.4-0.5,0.9-0.9,1.5-1.2c0.6-0.3,1.2-0.5,1.8-0.5c0.4,0,0.8,0.1,1.1,0.2c0.4,0.1,0.6,0.2,0.8,0.4l1.5-0.4l0.1,0.1l-1.3,5.4
		c0,0.2-0.1,0.4-0.1,0.6c0,0.2-0.1,0.4-0.1,0.5c0,0.3,0.1,0.5,0.2,0.6c0.1,0.1,0.4,0.2,0.7,0.2c0.1,0,0.3,0,0.4,0
		c0.2,0,0.3-0.1,0.4-0.1l-0.1,0.5c-0.5,0.2-0.9,0.3-1.1,0.4c-0.2,0.1-0.5,0.1-0.9,0.1c-0.4,0-0.7-0.1-0.9-0.3
		C242,50.6,241.9,50.3,241.9,49.9z M243.1,44.7c0-0.2,0-0.4-0.1-0.5c0-0.2-0.1-0.3-0.2-0.5c-0.1-0.1-0.3-0.2-0.5-0.3
		c-0.2-0.1-0.4-0.1-0.7-0.1c-0.4,0-0.8,0.1-1.2,0.4c-0.4,0.3-0.7,0.6-1,1.1c-0.3,0.4-0.5,0.9-0.7,1.5c-0.2,0.6-0.3,1.2-0.3,1.8
		c0,0.3,0,0.6,0.1,0.9c0,0.3,0.1,0.5,0.2,0.7c0.1,0.2,0.3,0.4,0.5,0.5c0.2,0.1,0.5,0.2,0.8,0.2c0.3,0,0.6-0.1,1-0.3
		c0.3-0.2,0.7-0.5,1.1-0.9L243.1,44.7z"/>
	<path fill="#FFFFFF" d="M250.4,50.1l-0.1,0.5c-0.5,0.2-0.9,0.3-1.2,0.4c-0.3,0.1-0.6,0.1-0.8,0.1c-0.4,0-0.8-0.1-1-0.3
		c-0.2-0.2-0.3-0.5-0.3-0.9c0-0.1,0-0.3,0-0.4c0-0.1,0.1-0.3,0.1-0.5l0.9-3.5c0-0.2,0.1-0.4,0.1-0.6s0.1-0.4,0.1-0.6
		c0-0.3-0.1-0.5-0.2-0.6c-0.1-0.1-0.3-0.2-0.6-0.2c-0.1,0-0.3,0-0.5,0.1c-0.2,0-0.4,0.1-0.5,0.1l0.1-0.5c0.4-0.2,0.8-0.3,1.2-0.4
		c0.3-0.1,0.6-0.1,0.8-0.1c0.5,0,0.8,0.1,1,0.3c0.2,0.2,0.3,0.5,0.3,0.9c0,0.1,0,0.2,0,0.4c0,0.2-0.1,0.3-0.1,0.5l-0.9,3.5
		c-0.1,0.2-0.1,0.4-0.1,0.6c0,0.2-0.1,0.4-0.1,0.5c0,0.3,0.1,0.5,0.2,0.6c0.1,0.1,0.4,0.2,0.7,0.2c0.1,0,0.3,0,0.5,0
		C250.1,50.2,250.3,50.1,250.4,50.1z M251,39.5c0,0.3-0.1,0.6-0.3,0.8c-0.2,0.2-0.5,0.4-0.8,0.4c-0.3,0-0.5-0.1-0.7-0.3
		c-0.2-0.2-0.3-0.5-0.3-0.8c0-0.3,0.1-0.6,0.3-0.8s0.4-0.3,0.7-0.3c0.3,0,0.6,0.1,0.8,0.3C250.9,39,251,39.2,251,39.5z"/>
	<path fill="#FFFFFF" d="M253.9,51.3c-0.8,0-1.5-0.1-2-0.4c-0.5-0.3-0.8-0.7-0.8-1.1c0-0.2,0.1-0.4,0.2-0.6s0.4-0.3,0.6-0.3
		c0.2,0,0.4,0.1,0.5,0.2c0.1,0.1,0.2,0.2,0.3,0.4c0.1,0.1,0.2,0.3,0.2,0.5c0.1,0.2,0.1,0.4,0.2,0.5c0.1,0.1,0.2,0.2,0.3,0.3
		c0.1,0.1,0.4,0.1,0.6,0.1c0.6,0,1-0.1,1.4-0.4c0.3-0.3,0.5-0.7,0.5-1.2c0-0.4-0.1-0.7-0.4-0.9s-0.7-0.4-1.3-0.6
		c-0.2-0.1-0.4-0.2-0.7-0.3c-0.3-0.1-0.5-0.3-0.7-0.4c-0.2-0.2-0.4-0.4-0.5-0.6c-0.1-0.2-0.2-0.5-0.2-0.9c0-0.7,0.3-1.3,1-1.8
		c0.6-0.5,1.4-0.8,2.3-0.8c0.2,0,0.4,0,0.7,0s0.5,0.1,0.8,0.2c0.3,0.1,0.5,0.2,0.7,0.4c0.2,0.2,0.3,0.4,0.3,0.7
		c0,0.2-0.1,0.4-0.2,0.6c-0.2,0.2-0.4,0.3-0.6,0.3c-0.2,0-0.4,0-0.5-0.1s-0.2-0.2-0.3-0.4S256,44,256,43.8s-0.1-0.3-0.2-0.5
		c-0.1,0-0.2-0.1-0.3-0.1s-0.2,0-0.3,0c-0.5,0-1,0.1-1.2,0.4c-0.3,0.3-0.4,0.6-0.4,1c0,0.4,0.1,0.7,0.4,0.9c0.3,0.2,0.7,0.4,1.2,0.6
		c0.8,0.3,1.3,0.6,1.6,0.9c0.3,0.3,0.5,0.8,0.5,1.3c0,0.8-0.3,1.5-1,2.1C255.7,51,254.9,51.3,253.9,51.3z"/>
	<path fill="#FFFFFF" d="M265.3,51.3c-0.8,0-1.5-0.1-2-0.4c-0.5-0.3-0.8-0.7-0.8-1.1c0-0.2,0.1-0.4,0.2-0.6s0.4-0.3,0.6-0.3
		c0.2,0,0.4,0.1,0.5,0.2c0.1,0.1,0.2,0.2,0.3,0.4c0.1,0.1,0.2,0.3,0.2,0.5c0.1,0.2,0.1,0.4,0.2,0.5c0.1,0.1,0.2,0.2,0.3,0.3
		c0.1,0.1,0.4,0.1,0.6,0.1c0.6,0,1-0.1,1.4-0.4c0.3-0.3,0.5-0.7,0.5-1.2c0-0.4-0.1-0.7-0.4-0.9s-0.7-0.4-1.3-0.6
		c-0.2-0.1-0.4-0.2-0.7-0.3c-0.3-0.1-0.5-0.3-0.7-0.4c-0.2-0.2-0.4-0.4-0.5-0.6c-0.1-0.2-0.2-0.5-0.2-0.9c0-0.7,0.3-1.3,1-1.8
		c0.6-0.5,1.4-0.8,2.3-0.8c0.2,0,0.4,0,0.7,0s0.5,0.1,0.8,0.2c0.3,0.1,0.5,0.2,0.7,0.4c0.2,0.2,0.3,0.4,0.3,0.7
		c0,0.2-0.1,0.4-0.2,0.6c-0.2,0.2-0.4,0.3-0.6,0.3c-0.2,0-0.4,0-0.5-0.1s-0.2-0.2-0.3-0.4s-0.2-0.3-0.2-0.5s-0.1-0.3-0.2-0.5
		c-0.1,0-0.2-0.1-0.3-0.1s-0.2,0-0.3,0c-0.5,0-1,0.1-1.2,0.4c-0.3,0.3-0.4,0.6-0.4,1c0,0.4,0.1,0.7,0.4,0.9c0.3,0.2,0.7,0.4,1.2,0.6
		c0.8,0.3,1.3,0.6,1.6,0.9c0.3,0.3,0.5,0.8,0.5,1.3c0,0.8-0.3,1.5-1,2.1C267.1,51,266.3,51.3,265.3,51.3z"/>
	<path fill="#FFFFFF" d="M275.5,49.9L275.5,49.9c-0.3,0.2-0.5,0.4-0.8,0.6s-0.5,0.3-0.7,0.4c-0.3,0.1-0.5,0.2-0.7,0.3
		c-0.2,0.1-0.5,0.1-0.8,0.1c-0.5,0-0.9-0.2-1.2-0.5c-0.3-0.3-0.4-0.7-0.4-1.2c0-0.1,0-0.3,0-0.5s0.1-0.5,0.2-0.8l0.6-2.6
		c0.1-0.2,0.1-0.5,0.1-0.6s0.1-0.4,0.1-0.5c0-0.3-0.1-0.5-0.2-0.6c-0.1-0.1-0.3-0.2-0.6-0.2c-0.1,0-0.3,0-0.5,0.1
		c-0.2,0-0.3,0.1-0.4,0.1l0.1-0.5c0.4-0.2,0.8-0.3,1.1-0.4c0.3-0.1,0.6-0.2,0.8-0.2c0.4,0,0.8,0.1,1,0.3c0.2,0.2,0.3,0.5,0.3,0.9
		c0,0.1,0,0.2,0,0.4c0,0.2-0.1,0.3-0.1,0.5l-0.7,3.1c-0.1,0.2-0.1,0.4-0.1,0.7c0,0.2-0.1,0.4-0.1,0.5c0,0.4,0.1,0.7,0.2,0.9
		c0.2,0.2,0.4,0.3,0.8,0.3c0.4,0,0.7-0.1,1.1-0.3c0.4-0.2,0.7-0.5,1.1-0.8l1.4-6.3l1.4-0.1l0.1,0.1l-1.2,5.3
		c-0.1,0.2-0.1,0.5-0.1,0.7c0,0.2-0.1,0.4-0.1,0.5c0,0.3,0.1,0.5,0.2,0.6c0.1,0.1,0.4,0.2,0.7,0.2c0.1,0,0.3,0,0.4,0
		c0.2,0,0.3-0.1,0.4-0.1l-0.1,0.5c-0.5,0.2-0.8,0.3-1.1,0.4s-0.6,0.1-0.9,0.1c-0.4,0-0.8-0.1-1-0.4
		C275.6,50.5,275.5,50.2,275.5,49.9z"/>
	<path fill="#FFFFFF" d="M287.3,44c0,0.2,0,0.3-0.1,0.5c0,0.2-0.1,0.3-0.2,0.5c-0.1,0.1-0.2,0.3-0.3,0.3c-0.1,0.1-0.3,0.1-0.5,0.1
		c-0.3,0-0.5-0.1-0.7-0.2s-0.2-0.3-0.2-0.5c0-0.2,0-0.4,0.1-0.6c0.1-0.2,0.2-0.4,0.3-0.6c-0.1,0-0.2,0-0.3,0.1s-0.3,0.1-0.6,0.2
		c-0.2,0.1-0.5,0.3-0.7,0.5c-0.3,0.2-0.6,0.5-0.9,0.8l-1.3,5.9h-1.5l1.2-5.4c0-0.1,0.1-0.3,0.1-0.6c0.1-0.3,0.1-0.5,0.1-0.6
		c0-0.3-0.1-0.5-0.2-0.6c-0.1-0.1-0.3-0.2-0.6-0.2c-0.1,0-0.3,0-0.5,0.1c-0.2,0-0.3,0.1-0.4,0.1l0.1-0.5c0.4-0.2,0.8-0.3,1.1-0.4
		s0.6-0.1,0.9-0.1c0.4,0,0.8,0.1,0.9,0.4c0.2,0.2,0.3,0.6,0.3,1.1h0c0.7-0.6,1.2-1,1.5-1.2s0.7-0.3,1.1-0.3c0.2,0,0.3,0,0.5,0.1
		s0.3,0.1,0.4,0.2c0.1,0.1,0.2,0.3,0.3,0.4C287.3,43.5,287.3,43.7,287.3,44z"/>
	<path fill="#FFFFFF" d="M294.9,44.4c0,0.6-0.2,1.1-0.6,1.5c-0.4,0.4-0.9,0.8-1.6,1c-0.5,0.2-1,0.3-1.6,0.5
		c-0.5,0.1-1.1,0.2-1.7,0.3c0,0.9,0.2,1.5,0.5,2c0.3,0.5,0.8,0.7,1.4,0.7c0.6,0,1-0.1,1.5-0.4c0.4-0.3,0.8-0.7,1.2-1.2l0.5,0.3
		c-0.4,0.7-1,1.2-1.7,1.6s-1.4,0.6-2.1,0.6c-1,0-1.7-0.3-2.2-0.8c-0.5-0.5-0.8-1.3-0.8-2.3c0-0.7,0.1-1.4,0.3-2
		c0.2-0.6,0.5-1.2,1-1.7c0.4-0.5,0.9-0.9,1.5-1.2c0.6-0.3,1.3-0.5,2-0.5c0.8,0,1.4,0.2,1.8,0.5C294.8,43.4,294.9,43.9,294.9,44.4z
		 M293.4,44.2c0-0.2,0-0.4-0.1-0.5c-0.1-0.1-0.1-0.2-0.2-0.3c-0.1-0.1-0.2-0.1-0.3-0.1s-0.2,0-0.3,0c-0.7,0-1.3,0.4-1.8,1.1
		c-0.6,0.7-0.9,1.6-1.1,2.7c0.4-0.1,0.8-0.1,1.3-0.2s0.9-0.2,1.2-0.4c0.5-0.2,0.8-0.5,1-0.9C293.3,45.1,293.4,44.7,293.4,44.2z"/>
	<path fill="#FFFFFF" d="M309.7,50.1l-0.1,0.5c-0.5,0.2-0.9,0.3-1.2,0.4c-0.3,0.1-0.6,0.1-0.8,0.1c-0.4,0-0.8-0.1-1-0.3
		c-0.2-0.2-0.3-0.5-0.3-0.9c0-0.1,0-0.3,0-0.4s0.1-0.3,0.1-0.5l0.8-3.1c0.1-0.2,0.1-0.5,0.1-0.6s0.1-0.3,0.1-0.5
		c0-0.4-0.1-0.7-0.2-0.9c-0.2-0.2-0.4-0.3-0.8-0.3c-0.4,0-0.7,0.1-1.1,0.3c-0.4,0.2-0.8,0.5-1.2,1l-1.5,6.2h-1.5l1.3-5.6
		c0-0.1,0.1-0.3,0.1-0.4c0-0.1,0-0.2,0-0.3c0-0.4-0.1-0.6-0.3-0.8c-0.2-0.2-0.4-0.3-0.8-0.3c-0.3,0-0.7,0.1-1,0.2
		c-0.4,0.2-0.8,0.5-1.3,1.1l-1.4,6.1h-1.6l1.2-5.4c0-0.2,0.1-0.4,0.1-0.6c0-0.2,0.1-0.4,0.1-0.6c0-0.3-0.1-0.5-0.2-0.6
		c-0.1-0.1-0.3-0.2-0.6-0.2c-0.1,0-0.3,0-0.5,0.1s-0.3,0.1-0.4,0.1l0.1-0.5c0.4-0.2,0.8-0.3,1.2-0.4c0.3-0.1,0.6-0.1,0.9-0.1
		c0.4,0,0.8,0.1,0.9,0.4c0.2,0.2,0.3,0.6,0.3,1h0c0.7-0.5,1.2-0.9,1.6-1.1c0.4-0.2,0.9-0.3,1.5-0.3c0.5,0,0.9,0.1,1.2,0.4
		c0.3,0.3,0.5,0.6,0.5,1.1h0c0.6-0.5,1.1-0.9,1.6-1.1c0.5-0.3,1-0.4,1.6-0.4c0.5,0,0.9,0.2,1.2,0.5c0.3,0.3,0.4,0.7,0.4,1.2
		c0,0.1,0,0.3,0,0.5c0,0.3-0.1,0.5-0.1,0.8l-0.7,2.7c0,0.2-0.1,0.4-0.1,0.6s-0.1,0.4-0.1,0.5c0,0.3,0.1,0.5,0.2,0.6
		c0.1,0.1,0.4,0.2,0.7,0.2c0.1,0,0.3,0,0.5,0C309.5,50.1,309.6,50.1,309.7,50.1z"/>
	<path fill="#FFFFFF" d="M317.9,44.4c0,0.6-0.2,1.1-0.6,1.5c-0.4,0.4-0.9,0.8-1.6,1c-0.5,0.2-1,0.3-1.6,0.5
		c-0.5,0.1-1.1,0.2-1.7,0.3c0,0.9,0.2,1.5,0.5,2c0.3,0.5,0.8,0.7,1.4,0.7c0.6,0,1-0.1,1.5-0.4c0.4-0.3,0.8-0.7,1.2-1.2l0.5,0.3
		c-0.4,0.7-1,1.2-1.7,1.6s-1.4,0.6-2.1,0.6c-1,0-1.7-0.3-2.2-0.8c-0.5-0.5-0.8-1.3-0.8-2.3c0-0.7,0.1-1.4,0.3-2
		c0.2-0.6,0.5-1.2,1-1.7c0.4-0.5,0.9-0.9,1.5-1.2c0.6-0.3,1.3-0.5,2-0.5c0.8,0,1.4,0.2,1.8,0.5C317.7,43.4,317.9,43.9,317.9,44.4z
		 M316.4,44.2c0-0.2,0-0.4-0.1-0.5c-0.1-0.1-0.1-0.2-0.2-0.3c-0.1-0.1-0.2-0.1-0.3-0.1s-0.2,0-0.3,0c-0.7,0-1.3,0.4-1.8,1.1
		c-0.6,0.7-0.9,1.6-1.1,2.7c0.4-0.1,0.8-0.1,1.3-0.2s0.9-0.2,1.2-0.4c0.5-0.2,0.8-0.5,1-0.9C316.3,45.1,316.4,44.7,316.4,44.2z"/>
	<path fill="#FFFFFF" d="M327.8,50l-0.1,0.5c-0.5,0.2-0.9,0.3-1.2,0.4c-0.3,0.1-0.6,0.1-0.8,0.1c-0.4,0-0.8-0.1-1-0.3
		c-0.2-0.2-0.3-0.5-0.3-0.9c0-0.1,0-0.3,0-0.4s0.1-0.3,0.1-0.5l0.8-3.1c0.1-0.2,0.1-0.5,0.1-0.6s0.1-0.3,0.1-0.5
		c0-0.4-0.1-0.7-0.3-0.9c-0.2-0.2-0.4-0.3-0.8-0.3c-0.3,0-0.7,0.1-1.1,0.3c-0.4,0.2-0.8,0.5-1.2,1l-1.4,6.1h-1.6l1.2-5.4
		c0-0.1,0.1-0.3,0.1-0.6s0.1-0.5,0.1-0.6c0-0.3-0.1-0.5-0.2-0.6c-0.1-0.1-0.3-0.2-0.6-0.2c-0.1,0-0.3,0-0.5,0.1
		c-0.2,0-0.3,0.1-0.4,0.1l0.1-0.5c0.4-0.2,0.8-0.3,1.2-0.4c0.3-0.1,0.6-0.1,0.9-0.1c0.4,0,0.8,0.1,0.9,0.4c0.2,0.2,0.3,0.6,0.3,1h0
		c0.6-0.5,1.1-0.8,1.6-1.1s0.9-0.4,1.5-0.4c0.5,0,0.9,0.2,1.2,0.5c0.3,0.3,0.4,0.7,0.4,1.2c0,0.1,0,0.3,0,0.5c0,0.3-0.1,0.5-0.1,0.8
		l-0.7,2.7c0,0.2-0.1,0.4-0.1,0.6c0,0.2-0.1,0.4-0.1,0.5c0,0.3,0.1,0.5,0.2,0.6c0.1,0.1,0.4,0.2,0.7,0.2c0.1,0,0.3,0,0.5-0.1
		C327.5,50.1,327.7,50.1,327.8,50z"/>
	<path fill="#FFFFFF" d="M330.8,51.2c-0.5,0-0.9-0.1-1.2-0.3c-0.2-0.2-0.4-0.5-0.4-0.9c0-0.1,0-0.2,0-0.4c0-0.1,0-0.2,0.1-0.4
		l1.3-5.5h-1.5l0.2-0.8h1.5l0.6-2.4h1.5l-0.6,2.4h2.3l-0.2,0.8h-2.3l-1.1,4.6c0,0.2-0.1,0.4-0.1,0.6c0,0.2,0,0.4,0,0.5
		c0,0.3,0.1,0.5,0.2,0.7c0.2,0.1,0.4,0.2,0.8,0.2c0.1,0,0.3,0,0.6-0.1c0.3,0,0.5-0.1,0.6-0.1l-0.1,0.6c-0.4,0.1-0.8,0.3-1.1,0.4
		C331.7,51.1,331.3,51.2,330.8,51.2z"/>
</g>
</svg>
