<?xml version="1.0" encoding="utf-8"?>
<!-- Generator: Adobe Illustrator 18.1.1, SVG Export Plug-In . SVG Version: 6.00 Build 0)  -->
<svg version="1.1" id="Calque_1" xmlns="http://www.w3.org/2000/svg" xmlns:xlink="http://www.w3.org/1999/xlink" x="0px" y="0px"
	 viewBox="0 0 726.8 600" enable-background="new 0 0 726.8 600" xml:space="preserve">
<polygon fill="#FFFFFF" points="579.1,121.6 451.8,136.9 449.8,137.1 447.9,136.6 345.4,108.1 330.2,110.3 328.3,110.6 326.5,110.3 
	278,98.8 257.8,94 274.1,81.3 286.1,71.8 265.5,60.8 196,72.8 186,74.5 184.4,64.5 180.9,42.9 48.3,13.4 52.9,49 53.3,52.5 
	51.4,55.5 12.6,118.3 28.2,133.9 81.3,177.4 83.7,179.4 84.6,182.3 98.1,227.8 98.9,230.6 98.1,233.4 84.4,281.3 96.6,339.2 
	97.2,342.2 96,345 85.8,369.8 101,404.7 103.6,410.6 99.2,415.4 82.4,433.9 93,454.5 160.4,456.8 172,450.8 176.3,448.6 
	180.8,450.6 221.7,469.5 240.2,462.9 243.8,461.6 247.4,463.1 347.2,504.2 434.2,489.9 442.9,488.4 445.4,496.9 451.2,516 
	478.9,550 529.7,585.2 569.7,525.2 564.8,504.6 564.5,503.4 564.5,502.3 564.5,479.5 564.5,471.6 572.2,469.8 588.8,465.8 
	578.2,448.4 577.4,447.1 577,445.7 570.7,420.4 568.8,412.7 575.8,409.1 630.2,380.8 633.1,379.3 636.4,379.8 666.1,384.8 
	672,298.8 672.3,295.5 674.4,293 716.4,243.8 710.9,172.4 "/>
<path fill="#FFFFFF" d="M580.4,111.4L450.6,127L346.1,97.9l-17.3,2.5L280.3,89l24-19l-37.1-19.8l-72.9,12.6l-4.6-28.2L36.7,0.6
	L43,50.3L0,119.8l21.5,21.5L75,185.1l13.5,45.5l-14.4,50.2l12.6,60.3l-11.8,28.7l16.9,38.8l-21.5,23.6l16.4,32l75.9,2.5l13.9-7.2
	l44.7,20.7l22.3-8l102.4,42.2l89.8-14.8l6.3,21.1l30.1,36.7l60.3,41.7l48.1-72.1l-5.9-24.9v-22.7l29.9-7.2l-17.7-29.1l-6.3-25.3
	l54.4-28.2l40.5,6.7l6.7-97l44.7-52.3l-6.3-81.8L580.4,111.4z M674.4,293l-2.1,2.5l-0.2,3.3l-6,86l-29.6-4.9l-3.3-0.5l-3,1.5
	l-54.4,28.2l-7,3.6l1.9,7.7l6.3,25.3l0.4,1.5l0.8,1.3l10.6,17.4l-16.6,4l-7.7,1.8v7.9v22.8v1.2l0.3,1.1l4.9,20.6l-40,60l-50.8-35.1
	l-27.8-34l-5.8-19.2l-2.5-8.4l-8.7,1.4l-87,14.3l-99.8-41.1l-3.6-1.5l-3.6,1.3l-18.5,6.6l-41-18.9l-4.4-2l-4.3,2.2l-11.6,6
	l-67.4-2.2L82.3,434l16.8-18.5l4.4-4.8l-2.6-5.9L85.7,370l10.2-24.8l1.2-2.8l-0.6-3l-12.1-57.9l13.7-48l0.8-2.8l-0.8-2.8l-13.5-45.5
	l-0.9-2.9l-2.4-1.9l-53.2-43.5l-15.6-15.6l38.8-62.8l1.9-3l-0.4-3.5l-4.5-35.7L180.8,43l3.5,21.6l1.6,10l9.9-1.7l69.5-12.1l20.6,11
	l-12,9.5l-16.3,12.8l20.2,4.7l48.5,11.4l1.9,0.4l1.9-0.3l15.2-2.2l102.5,28.5l1.9,0.5l2-0.2l127.4-15.3l131.7,50.8l5.5,71.4
	L674.4,293z"/>
</svg>
