<?xml version="1.0" encoding="utf-8"?>
<!-- Generator: Adobe Illustrator 18.1.1, SVG Export Plug-In . SVG Version: 6.00 Build 0)  -->
<svg version="1.1" id="Calque_1" xmlns="http://www.w3.org/2000/svg" xmlns:xlink="http://www.w3.org/1999/xlink" x="0px" y="0px"
	 viewBox="0 0 473.5 600" enable-background="new 0 0 473.5 600" xml:space="preserve">
<path fill="#FFFFFF" d="M443.5,430.3l-1.3-5.1l-4.6-17.6l-21.2-2.4l-25.6,7.7l-2.3,0.7l-2.4-0.5l-11.3-2.2h-15.1h-12.4l2.6-12.1
	l3.6-16.9l0.7-3l2.3-2.1l7.2-6.8l-4.9-21.9l-26.3-20.3l-2.2-1.7l-1-2.6l-13.7-35.1l-0.9-2.3l0.2-2.4l3.2-31.2l-5.4-5.3l-4.1-4.1
	l1.5-5.6l2.2-8.6l1.3-5.1l5-1.8l14.8-5.4l-9.1-57.7l-1-6.4l5.5-3.5l32.1-20.8l1.9-8v-7.1v-0.7l0.1-0.7l2.2-14.9l-4.2-3.1l-18.7-6.6
	L342,87l-0.2-0.1l-18.2-7.5l-5.9-2.4l-0.3-6.3l-0.3-5.5l-20-33.7l-5.9,6.8l-1.2,1.4l-1.6,0.9l-12.1,6.6l-6.7,3.7l-5.3-5.6l-7.2-7.5
	l-10.2,0.9l-1.8,0.2l-1.8-0.5l-9.2-2.6l-8.3,4.8l-5.6,3.2l-5.3-3.9l-22.3-16.3l-0.8-0.6l-0.6-0.7l-11.3-12.1l-7.9,2.1l-7.2,11.2
	l-2.4,3.7l-4.4,0.7l-20.6,3.3l-2.6,0.4l-2.5-0.9l-3.1-1.1l-15.7,14.9l0.7,10.5l2.5,9.7l1.4,5.6l-4.1,4.1L103.3,85l-2.9,2.9h-4.1
	H66.4c-1.5,3.2-2.6,6.1-2.8,7.3c-0.1,4.4-2.1,7.8-5,10.4l6.1,11.8l0.1,0.2h1.7l2.8,2.4l20.1,17.2l2,1.7l0.9,2.4l7.3,19.5l2.8,1
	l6.8,2.6l-0.3,7.2l-1.1,27.2l5.2,8.3l1,1.6l0.4,1.8l4.5,22.9l1,4.9l-3.4,3.7l-18.6,20.4l-0.4,0.5l-0.5,0.4l-14.8,12.5L97.9,293
	l3.1,3.4l-0.5,4.5l-2.8,24.4l-0.1,0.8l-0.2,0.7L94,339.3l3,2.7l3.8,3.3l-0.4,5l-1.6,19.3v0.2v0.2l-2,16.5l1.9,6l1.6,5.2l-3.5,4.2
	l-2.5,3.1l-4,4.8l-6.1-1.5l-15-3.7l0.2,2.3l0.4,4.6l-3.3,3.3l-30,30.3l2.7,17.2l1.1,7.2l-5.4,2.7l1,3.5l2.9,9.9l-10,2.6l-9.2,2.4
	l3.6,8.9l3,7.4l-6.6,4.6l-7.4,5.1l1,2.8l0.7,1.9l-0.1,2.1l-0.4,6.8l14.5,24.2l2,3.3l-0.7,3.7l-3.8,20.1l0.2,0.2l4.4,4.8l2.2-1.5
	l4.2-3l4.9,1.7l10.8,3.8l21.3,1L87.7,562l3-9l3.2-14.8l1-4.6l4.2-2.2l12.6-6.5l9.3-14.6l7.3-11.5l8.8,10.4l10.9,12.9l2.4,2.8v1.6
	h6.3h7.7l2,7.4l5.6,20.6l3.5,2.3l4.8,3.1l-0.2,5.7l-0.2,6.6l6.5-19.6l0.3-1.1l0.6-1l15.2-25.2l5.6-9.4l8.8,6.5l4.6,3.4l12-11.6
	l1.5-1.5l2-0.7l20.7-7.5l9-3.3l3.6,8.9l5,12.2l10.2,14.5l14.2-9.1l4.1-2.6l4.6,1.6l11.9,4.1l5.1,1.8l0.5,2.1l7.3-3.4l4.8,6.9
	l9.5,13.5l8.1,6.1l10.7-13.7l2.4-3.1l3.9-0.6l4.5-0.7l3.7-7.7l2.6-5.4l6-0.3l19.2-0.9l10.1-19.6l2.8-5.4h6.1h4.3l0.8-4.7l0.8-4.6
	l4.1-2.3l10-5.7l-0.3-11.4v-0.5v-0.5l0.6-9.1l0.3-4.8l4-2.7l11.6-7.9v-8.3l-15-5.3L443.5,430.3z"/>
<path fill="#FFFFFF" d="M445.5,398.4l-30-3.4l-27.6,8.3l-12.2-2.3h-16l3.6-16.9l11.3-10.7l-6.9-31l-29.2-22.5l-13.7-35.1l3.7-36
	l-8.9-8.7l2.2-8.6l22.6-8.2L334,157.5l35.5-23l3.1-13v-8.3l3.1-20.8l-10.2-7.6l-20.1-7.1l-18.2-7.5l-0.4-8l-28.3-47.8l-14.9,17.4
	l-12.1,6.6l-10.5-11l-15.1,1.4l-13.3-3.7l-12,6.9l-22.3-16.3L183.1-1l-17.4,4.7l-9.3,14.4l-20.6,3.3l-8.9-3.3l-23.6,22.4l1.1,16.1
	l2.8,10.6L96.5,77.8h-36c0,0-6.6,11.8-6.7,17c-0.1,4.8-8.4,6.6-8.4,6.6L56,122v5.6h7l20.1,17.2l8.9,23.7l7,2.7l-1.3,30.3l6.8,10.9
	l4.5,22.9l-18.6,20.4l-22.7,19.2l22.7,24.9l-2.8,24.4l-5.1,18.6l7.7,6.8l-1.6,19.3l-2.2,18.7l2.5,8.1l-2.5,3.1l-28.5-7.1l1.4,16.2
	l-33.6,33.9l3.5,22.2l-6.4,3.2l3.4,11.6L6,484.1l7.8,19.4L0,513l3.7,10.1L3.2,533l16.1,26.8l-5.1,27l4,1.9l10.4,11.2l9.3-6.7
	l12.2,4.2l29,1.4l17.6-32.5l3.5-10.4l3.3-15.4l15.1-7.7l10.7-16.9l10.9,12.9v8h16.3l6.6,24.3l6.8,4.3l-0.5,15.4l12.1,18l14.2-42.9
	l15.2-25.2l11.4,8.4l18-17.5l20.7-7.5l5.4,13.3l16.3,23.2l22.3-14.2l11.9,4.1l2.1,8.6l10.7-5l10.4,14.8l17.2,12.9l16.7-21.4l9.8-1.5
	l5.9-12.5l25-1.2l12.7-24.8h12.7l2.2-13l15.2-8.7l-0.5-17.4l0.6-9.1l15.9-10.9v-20.7l-21.7-7.6L445.5,398.4z M463.6,445.7l-11.6,7.9
	l-4,2.7l-0.3,4.8l-0.6,9.1v0.5v0.5l0.3,11.4l-10,5.7l-4.1,2.3l-0.8,4.6l-0.8,4.7h-4.3h-6.1l-2.8,5.4l-10.1,19.6l-19.2,0.9l-6,0.3
	l-2.6,5.4l-3.7,7.7l-4.5,0.7l-3.9,0.6l-2.4,3.1l-10.7,13.7l-8.1-6.1l-9.5-13.5l-4.8-6.9l-7.3,3.4l-0.5-2.1l-5.1-1.8l-11.9-4.1
	l-4.6-1.6l-4.1,2.6l-14.2,9.1l-10.2-14.5l-5-12.2l-3.6-8.9l-9,3.3l-20.7,7.5l-2,0.7l-1.5,1.5l-12,11.6l-4.6-3.4l-8.8-6.5l-5.6,9.4
	L187.1,550l-0.6,1l-0.3,1.1l-6.5,19.6l0.2-6.6l0.2-5.7l-4.8-3.1l-3.5-2.3l-5.6-20.6l-2-7.4h-7.7h-6.3v-1.6l-2.4-2.8l-10.9-12.9
	l-8.8-10.4l-7.3,11.5l-9.3,14.6l-12.6,6.5l-4.2,2.2l-1,4.6l-3.2,14.8l-3,9l-14.2,26.3l-21.3-1L41.2,583l-4.9-1.7l-4.2,3l-2.2,1.5
	l-4.4-4.8l-0.2-0.2l3.8-20.1l0.7-3.7l-2-3.3l-14.5-24.2l0.4-6.8l0.1-2.1l-0.7-1.9l-1-2.8l7.4-5.1l6.6-4.6l-3-7.4l-3.6-8.9l9.2-2.4
	l10-2.6l-2.9-9.9l-1-3.5l5.4-2.7l-1.1-7.2l-2.7-17.2l30-30.3l3.3-3.3l-0.4-4.6l-0.2-2.3l15,3.7l6.1,1.5l4-4.8l2.5-3.1l3.5-4.2
	l-1.6-5.2l-1.9-6l2-16.5v-0.2v-0.2l1.6-19.3l0.4-5l-3.8-3.3l-3-2.7l3.4-12.5l0.2-0.7l0.1-0.8l2.8-24.4l0.5-4.5l-3.1-3.4l-15.7-17.2
	l14.8-12.5l0.5-0.4l0.4-0.5l18.6-20.4l3.4-3.7l-1-4.9l-4.5-22.9l-0.4-1.8l-1-1.6l-5.2-8.3l1.1-27.2l0.3-7.2l-6.8-2.6l-2.8-1
	l-7.3-19.5l-0.9-2.4l-2-1.7l-20.1-17.2l-2.8-2.4h-1.7l-0.1-0.2l-6.1-11.8c2.8-2.6,4.8-6,5-10.4c0.2-1.2,1.3-4.1,2.8-7.3h29.9h4.1
	l2.9-2.9l10.7-10.6l4.1-4.1l-1.4-5.6l-2.5-9.7l-0.7-10.5l15.7-14.9l3.1,1.1l2.5,0.9l2.6-0.4l20.6-3.3l4.4-0.7l2.4-3.7l7.2-11.2
	l7.9-2.1l11.3,12.1l0.6,0.7l0.8,0.6l22.3,16.3l5.3,3.9l5.6-3.2l8.3-4.8l9.2,2.6l1.8,0.5l1.8-0.2l10.2-0.9l7.2,7.5l5.3,5.6l6.7-3.7
	l12.1-6.6l1.6-0.9l1.2-1.4l5.9-6.8l20,33.7l0.3,5.5l0.3,6.3l5.8,2.4l18.2,7.5l0.2,0.1l0.2,0.1l18.7,6.6l4.2,3.1l-2.2,14.9l-0.1,0.7
	v0.7v7.1l-1.9,8l-32.1,20.8l-5.5,3.5l1,6.4l9.1,57.7l-14.8,5.4l-5,1.8l-1.3,5.1l-2.2,8.6l-1.5,5.6l4.1,4.1l5.4,5.3l-3.2,31.2
	l-0.2,2.4l0.9,2.3l13.7,35.1l1,2.6l2.2,1.7l26.3,20.3l4.9,21.9l-7.2,6.8l-2.3,2.1l-0.7,3l-3.6,16.9l-2.6,12.1h12.4h15.1l11.3,2.2
	l2.4,0.5l2.3-0.7l25.6-7.7l21.2,2.4l4.6,17.6l1.3,5.1l5,1.8l15,5.3v9H463.6z"/>
</svg>
