<?xml version="1.0" encoding="utf-8"?>
<!-- Generator: Adobe Illustrator 18.1.1, SVG Export Plug-In . SVG Version: 6.00 Build 0)  -->
<svg version="1.1" id="Calque_1" xmlns="http://www.w3.org/2000/svg" xmlns:xlink="http://www.w3.org/1999/xlink" x="0px" y="0px"
	 viewBox="0 0 506.6 600" enable-background="new 0 0 506.6 600" xml:space="preserve">
<polygon fill="#FFFFFF" points="489.9,131.5 468.6,115.5 475.8,72.9 455.8,44.9 437.7,27 409.9,32.3 399.6,20.4 399.2,10.5 
	383,10.9 372.8,22.1 368.5,35.9 336.3,61.8 333.7,86 307.8,104.3 301.2,102.6 287.8,121.6 265.1,128.7 235.2,110.3 223,86.4 
	206.5,77.9 197.8,77.7 186.1,99 175.3,86.1 171.1,72.6 137.3,36.3 135.9,31.6 129.3,42 111,183.8 118.1,177.2 150.5,215.7 
	117.9,210 103.8,244.9 65.8,415.7 55.6,434.4 55.4,434.6 33.3,464.2 18.1,470.5 36.1,488.5 72.4,494.4 58.6,529.1 163,559 
	193.3,590.1 219.8,583.6 269.7,487.6 266.1,456.3 258.8,442 227.4,442 250,358.7 281.1,358.4 287.2,363.7 288.4,348.8 326.6,348.2 
	377.7,336.5 380.9,340.4 403.7,323.9 416.4,301.8 409.4,284 419.4,271.7 437.7,271.7 424.7,249 442.7,229.7 495.6,170.6 "/>
<path fill="#FFFFFF" d="M506.6,173.9l-7.2-48.1L479.7,111l7-40.6l-23-32.1l-22.7-22.5L413.7,21l-4-4.7L409.1,0l-30.7,0.8L363.7,17
	l-4,12.8l-33,26.7l-2.5,23.7l-18.5,12.9l-8.9-2.2l-15.5,21.9l-14.8,4.6L242.9,103l-12.3-24.2L209,67.7l-17.3-0.4l-7.4,13.3
	l-4.2-13.3L146.3,31L139,7.3l-19.8,31.2L97,211.2l20.1-19l7.3,8.6l-13-2.2L93.8,242l-38,170.2L46.7,429l-19.9,26.8L0,466.9
	l31.2,31.2l27,4.3l-13.3,33.2L157.7,568l32.4,33.3l36.7-9l53.4-103L276,453L265,431.5h-24.3l17.1-62.8l19.3-0.2l6.7,5.9l12.4,4.7
	l1.6-20.4l29.9-0.4l46.1-10.5l5.4,6.4l32.3-23.4l16.2-28.3l-6.6-16.8l3.1-3.8h31.1l-18-31.5l12.9-13.8L506.6,173.9z M424.7,249
	l12.9,22.7h-18.3l-10,12.2l7,17.8l-12.6,22.1l-22.8,16.5l-3.2-3.8l-51.1,11.7l-38.2,0.6l-1.2,15.1l-6.2-5.5l-31.1,0.4L227.3,442
	h31.4l7.2,14.2l3.6,31.3l-49.8,96.1l-26.5,6.5L162.9,559L58.6,529.1l13.8-34.6l-36.4-5.9l-18-18l15.2-6.4l22-29.5l0.2-0.3l10.2-18.7
	L103.7,245l14-34.9l32.6,5.6L118,177.2l-7.1,6.7L129.3,42l6.6-10.3l1.4,4.6l33.8,36.4l4.2,13.4l10.7,13l11.7-21.3l8.7,0.2l16.6,8.5
	l12.1,23.8l30,18.5l22.6-7.1l13.3-19l6.6,1.6l26-18.4l2.6-24.1l32.1-26l4.3-13.6l10.2-11.2l16.2-0.4l0.4,9.9l10.3,11.9l27.7-5.4
	l18.2,18.1l20,28l-7.3,42.5l21.5,15.8l5.9,39.2l-52.9,59L424.7,249z"/>
</svg>
