<?xml version="1.0" encoding="utf-8"?>
<!-- Generator: Adobe Illustrator 18.1.1, SVG Export Plug-In . SVG Version: 6.00 Build 0)  -->
<svg version="1.1" id="Calque_1" xmlns="http://www.w3.org/2000/svg" xmlns:xlink="http://www.w3.org/1999/xlink" x="0px" y="0px"
	 viewBox="686.1 0 666.1 600" enable-background="new 686.1 0 666.1 600" xml:space="preserve">
<path fill="#FFFFFF" d="M1312.4,237.5l4.7-9.2l7.1-13.9l-9-1.4l-3.1-0.5l-2.3-2.1l-16-15.1l-2.5-2.4l-0.5-3.5l-5.7-39.9l-8.2-25
	l-54.7-86.4l-12.7,2.2l-22.9,59.9l-2.5,6.4h-6.9h-46.1h-11.6l1.7-11.5l5-33.2L1113,30.5h-46.5h-3.1l-2.5-1.7L1035,11.2l-39.8,8
	l2.3,24.3l0.4,4.5l-3.1,3.3l-67.9,72.1l3.9,19.9l1.7,8.7l-8.4,2.7l-19.3,6.3l5.3,34.2l0.6,4.1l-2.5,3.4l-22.4,30.1l-3,4h-5h-39.3
	l-17.7,13.2l-4.3,3.2l-5-1.8l-21-7.4l-22.6,12.9l-2.3,1.3h-2.6h-36.1l-21.9,69.8l33.7,26.7l3.7,3l0.1,4.8l0.4,39.5l0,2.8l-1.4,2.4
	l-45.2,77.5V508l24.7,26l0.1,0.1l0.1,0.1l18.8,21.3l39.5-8.5l4.7-1l3.7,3l9.4,7.7l70.1,3v-26.8v-13.7l13,4.2l48.8,15.6l3.6,1.1
	l1.9,3.2l9.1,14.9l24.8-6.2l6.9-1.7l3.9,5.9l18.3,27.7l10.4-10l5-4.8l6.3,3.1l25.4,12.5l28.5-3.1l44.4-18.8l-9.5-19.5h-23.9h-24.1
	l17.1-17.1l11.1-11.1l-6.1-49.6l-28.2-9.6l-4.4-1.5l-1.7-4.3l-9.3-23.9l-2.9-7.5l6.7-4.5l15.3-10.2l1.4-6.6l1.9-8.8l9,1l56.1,6
	l4.2-7.3l3.9-6.7l7.5,2.1l25.6,7.3l37.1-8v-28.3v-7.3l6.9-2.2l50.6-16.3l14.5-6.3c-0.2-0.5-0.5-1.1-0.7-1.6
	c-4.9-10.9-7.2-15.8-3.8-21.1c1.9-3,5.1-4.7,8.6-4.7c1.8,0,4.4,0.5,6.9,2.6c1.8,0.9,6.8,2.2,12.6,3.4l6.8-17.6l1.6-4l4-1.6l14-5.7
	l12.3-22.3l-16.6-7.9L1312.4,237.5z"/>
<path fill="#FFFFFF" d="M1339.3,206.7l-22.6-3.5l-16-15.1l-5.8-40.8l-8.9-27l-59-93.1l-24.9,4.4l-24.9,65.2h-46.1l5.4-35.9
	l-16.8-40.3h-53.2l-29.3-20l-52.8,10.6l3.1,33.3L916,120.3l4.8,24.9l-27.5,8.9l6.6,42.6l-22.4,30.1h-42.6l-20.4,15.1l-25.3-8.9
	l-26.6,15.1h-43.4l-26.2,83.3l39,31l0.4,39.5l-46.6,79.8V512l27.5,28.9l22.6,25.7l45.3-9.8l12,9.8l83.9,3.5v-37.2l48.8,15.6
	l12.9,21.2l32-7.9l24.9,37.6l19.1-18.2l28,13.7l32.8-3.5l55.5-23.5l-16.8-34.6h-30.1l14.6-14.6l-7.5-60.7l-34.1-11.6l-9.3-23.9
	l18.7-12.4l2.3-10.6l62.5,6.7l7.5-12.9l28,7.9l47.4-10.2v-36.4l51.1-16.4l24.3-10.6c0,0-10.9-22.5-9.4-22.5c0.1,0,0.3,0.1,0.5,0.3
	c3.5,3.5,25.3,7.1,25.3,7.1l9.8-25.3l17.3-7.1l19.1-34.6l-26.2-12.4L1339.3,206.7z M1338.3,249.8l-12.3,22.3l-14,5.7l-4,1.6l-1.6,4
	l-6.8,17.6c-5.7-1.2-10.8-2.5-12.6-3.4c-2.5-2.2-5.1-2.6-6.9-2.6c-3.5,0-6.7,1.8-8.6,4.7c-3.3,5.3-1.1,10.3,3.8,21.1
	c0.2,0.5,0.5,1.1,0.7,1.6l-14.5,6.3l-50.6,16.3l-6.9,2.2v7.3v28.3l-37.1,8l-25.6-7.3l-7.5-2.1l-3.9,6.7l-4.2,7.3l-56.1-6l-9-1
	l-1.9,8.8l-1.4,6.6l-15.3,10.2l-6.7,4.5l2.9,7.5l9.3,23.9l1.7,4.3l4.4,1.5l28.2,9.6l6.1,49.6l-11.1,11.1l-17.1,17.1h24.1h23.9
	l9.5,19.5l-44.4,18.8l-28.5,3.1l-25.4-12.5l-6.3-3.1l-5,4.8l-10.4,10l-18.3-27.7l-3.9-5.9l-6.9,1.7l-24.8,6.2l-9.1-14.9l-1.9-3.2
	l-3.6-1.1l-48.8-15.6l-13-4.2v13.7v26.8l-70.1-3l-9.4-7.7l-3.7-3l-4.7,1l-39.5,8.5L721,534.2l-0.1-0.1l-0.1-0.1l-24.7-26v-23.5
	l45.2-77.5l1.4-2.4l0-2.8l-0.4-39.5l-0.1-4.8l-3.7-3l-33.7-26.7l21.9-69.8h36.1h2.6l2.3-1.3l22.6-12.9l21,7.4l5,1.8l4.3-3.2
	l17.7-13.2h39.3h5l3-4l22.4-30.1l2.5-3.4l-0.6-4.1l-5.3-34.2l19.3-6.3l8.4-2.7l-1.7-8.7l-3.9-19.9l67.9-72.1l3.1-3.3l-0.4-4.5
	l-2.3-24.3l39.8-8l25.8,17.6l2.5,1.7h3.1h46.5l13.2,31.6l-5,33.2l-1.7,11.5h11.6h46.1h6.9l2.5-6.4l22.9-59.9l12.7-2.2l54.7,86.4
	l8.2,25l5.7,39.9l0.5,3.5l2.5,2.4l16,15.1l2.3,2.1l3.1,0.5l9,1.4l-7.1,13.9l-4.7,9.2l9.3,4.4L1338.3,249.8z"/>
</svg>
