<?xml version="1.0" encoding="utf-8"?>
<!-- Generator: Adobe Illustrator 18.1.1, SVG Export Plug-In . SVG Version: 6.00 Build 0)  -->
<svg version="1.1" id="Calque_1" xmlns="http://www.w3.org/2000/svg" xmlns:xlink="http://www.w3.org/1999/xlink" x="0px" y="0px"
	 viewBox="820 0 800 600" enable-background="new 820 0 800 600" xml:space="preserve">
<polygon fill="#FFFFFF" points="1429.1,127.1 1429.1,123.5 1429.1,89.3 1372.6,60.2 1371.5,59.6 1370.6,58.8 1332.3,24.9 
	1312.8,40.1 1305.3,46.1 1299.1,38.8 1285.8,23.1 1255,30.7 1250.2,31.9 1246.4,28.9 1227.1,13.7 1207.7,20.8 1133.6,75.1 
	1136.3,114.1 1137,124.3 1126.8,124.8 1094.5,126.5 1093.9,145 1093,170.1 1092.9,174 1090.2,176.7 1072.7,194.9 1098.8,236.3 
	1101.4,240.3 1099.9,244.8 1076.5,315.6 1075.4,318.9 1072.5,320.9 1056.1,331.6 1049.8,361.2 1078.7,380.8 1088,387.2 
	1080.6,395.7 1068.3,409.9 1092.7,447.3 1095.4,451.3 1093.8,455.9 1067,535.4 1105.3,582.3 1142.2,572 1150.3,569.7 1153.9,577.3 
	1159.3,588.6 1191.1,582.8 1255.2,493.9 1250.1,480.3 1247.7,473.7 1253.1,469.2 1322.6,411.3 1322.6,364.4 1322.6,360.6 
	1325.3,357.7 1430,242.9 1435.8,218.2 1421.9,214 1409.1,210.1 1416.5,198.9 1430.8,177.3 1432.9,174.1 1436.5,173.1 1456.7,167.7 
	1456.7,160.4 1431.4,129.9 "/>
<path fill="#FFFFFF" d="M1439.1,83.2l-61.9-31.9l-44.6-39.4l-26,20.3l-17.3-20.3l-36.8,9.1l-23.7-18.6l-26,9.5l-79.6,58.3l3,44.6
	l-59.3,3v41.5l16.9-14.7l-0.9,25.1l-22.9,23.8l30.3,48l-23.4,70.9l-19.8,13l-8.7,40.2l34.5,23.4l-17.3,19.9l28.6,43.7l-28.6,84.7
	l45.9,56.3l43.3-12.1l8.7,18.2l43.3-7.8l69.6-96.5l-6.9-18.6l73.1-60.9v-51.5l106.5-116.7l8.5-36.4l-22.8-6.9l14.3-21.6l27.6-7.4
	v-18.6l-27.6-33.3V83.2z M1077.3,137.1l-0.3,0.3v-10.1l12.3-0.6L1077.3,137.1z M1456.7,160.4v7.3l-20.2,5.4l-3.7,1l-2.1,3.2
	l-14.3,21.6l-7.4,11.2l12.8,3.9l13.8,4.2l-5.8,24.7l-104.7,114.8l-2.6,2.9v3.9v46.8l-69.5,57.9l-5.4,4.5l2.5,6.6l5.1,13.6
	l-64.1,88.9l-31.8,5.7l-5.4-11.3l-3.6-7.6l-8.1,2.3l-37,10.4l-38.2-46.9l26.8-79.5l1.6-4.6l-2.7-4.1l-24.4-37.4l12.4-14.2l7.4-8.5
	l-9.3-6.3l-28.9-19.6l6.4-29.6l16.4-10.7l2.9-1.9l1.1-3.3l23.4-70.9l1.5-4.5l-2.5-4l-26.1-41.4l17.5-18.2l2.7-2.8l0.1-3.8l0.9-25.1
	l0.6-18.6l32.3-1.6l10.2-0.5l-0.7-10.1l-2.7-39.1l74.1-54.2l19.4-7.1l19.3,15.2l3.8,3l4.7-1.2l30.8-7.6l13.3,15.6l6.2,7.3l7.6-5.9
	l19.4-15.2l38.3,33.9l0.9,0.8l1.1,0.6l56.5,29.1v34.2v3.6l2.3,2.8L1456.7,160.4z"/>
</svg>
