<?xml version="1.0" encoding="utf-8"?>
<!-- Generator: Adobe Illustrator 18.1.1, SVG Export Plug-In . SVG Version: 6.00 Build 0)  -->
<svg version="1.1" id="Calque_1" xmlns="http://www.w3.org/2000/svg" xmlns:xlink="http://www.w3.org/1999/xlink" x="0px" y="0px"
	 viewBox="820 0 400.8 600" enable-background="new 820 0 400.8 600" xml:space="preserve">
<polygon fill="#FFFFFF" points="1173.5,474.6 1173.5,470.5 1173.5,443.3 1137.3,393.9 1073.2,367.4 1066.4,364.6 1067,357.2 
	1069.2,333.1 1054.7,313.4 1050.9,308.1 1054.2,302.5 1070.4,274.2 1061.8,231.9 1061.3,229.7 1061.9,227.5 1080.6,153.9 
	1082.5,146.6 1090,146.4 1112.4,145.5 1120.4,130.3 1050,91.5 1045.9,89.3 1045,84.7 1039.3,55.7 1038.9,54 1039.2,52.2 
	1044.2,19.7 1040.4,15.6 1021.1,32.7 1015.5,49.7 1014.1,53.9 1009.9,55.7 984.5,66.6 980.5,68.3 976.6,66.5 956.6,57.7 950,61.7 
	950,106.7 950,110.4 947.5,113.2 921.7,143 921.7,176.9 921.7,183.5 915.7,186.1 867.4,207.2 869.8,230.3 870,231.9 869.6,233.5 
	860.3,275.5 860.1,276.1 859.9,276.6 841.3,329.9 853.5,358.6 856,364.4 851.8,369.2 831.6,391.7 843.5,420.8 862.8,435.7 
	866.7,438.8 866.7,443.6 866.7,458.5 886.2,465.9 890.2,467.4 891.9,471.3 906.7,506.1 963.7,512.1 1016.7,491.3 1020.4,489.8 
	1024.1,491.3 1037.6,496.8 1039.8,497.7 1041.4,499.5 1062.4,524.2 1063.3,525.2 1063.8,526.3 1076.6,552.8 1118.9,585.9 
	1148.8,564.8 1152.7,562.1 1157.3,563.4 1173,567.9 1181.1,538.9 1181.7,536.5 1183.3,534.8 1207,509.1 1176.4,477.5 "/>
<path fill="#FFFFFF" d="M1183.5,440l-39.9-54.3l-66.7-27.6l2.5-27.8l-16.6-22.8l18.1-31.6l-9.4-46l18.8-73.6l28.3-1.1l15.2-29
	l-79-43.5l-5.8-29l5.8-37.3l-13.8-14.8L1012.5,27l-6.5,19.5l-25.4,10.9L956,46.5L940,56v50.7l-28.3,32.6v37.6l-55,24l3.2,30.4
	l-9.4,42l-19.9,56.9l13.8,32.2L820,389.7l15.2,37.3l21.4,16.6v21.8l26,9.8l17.1,40.2l65.3,6.9l55.3-21.8l13.4,5.4l21,24.6l13.8,28.6
	l50,39.1l35.9-25.4l25.4,7.3l10.8-38.7l30.1-32.6l-37.2-38.4V440z M1207,509.1l-23.7,25.7l-1.6,1.8l-0.6,2.3l-8.1,29l-15.7-4.5
	l-4.6-1.3l-3.9,2.8l-29.9,21.1l-42.3-33.1l-12.7-26.5l-0.6-1.2l-0.8-1l-21-24.6l-1.6-1.9l-2.3-0.9l-13.4-5.4l-3.7-1.5l-3.7,1.5
	l-53.1,20.9l-57-6.1l-14.8-34.8l-1.7-3.9l-4-1.5l-19.5-7.4v-14.8v-4.9l-3.9-3l-19.3-15l-11.9-29.1l20.1-22.5l4.2-4.7l-2.5-5.9
	l-12.2-28.6l18.7-53.3l0.2-0.6l0.1-0.6l9.4-42l0.4-1.6l-0.2-1.6l-2.4-23.1l48.3-21.1l6-2.6v-6.5V143l25.8-29.8l2.4-2.8v-3.7v-45
	l6.7-4l19.9,8.8l4,1.8l4-1.7l25.4-10.9l4.1-1.8l1.4-4.3l5.7-17l19.3-17.1l3.8,4.1l-5,32.5l-0.3,1.7l0.3,1.7l5.8,29l0.9,4.6l4.1,2.2
	l70.4,38.8l-8,15.2l-22.5,0.8l-7.5,0.3l-1.8,7.2l-18.8,73.6l-0.6,2.2l0.5,2.2l8.6,42.3l-16.2,28.3l-3.2,5.6l3.8,5.2l14.4,19.8
	l-2.1,24.1l-0.6,7.3l6.8,2.8l64.1,26.6l36.3,49.4v27.2v4.1l2.8,2.9L1207,509.1z"/>
</svg>
