<?xml version="1.0" encoding="utf-8"?>
<!-- Generator: Adobe Illustrator 18.1.1, SVG Export Plug-In . SVG Version: 6.00 Build 0)  -->
<svg version="1.1" id="Calque_1" xmlns="http://www.w3.org/2000/svg" xmlns:xlink="http://www.w3.org/1999/xlink" x="0px" y="0px"
	 viewBox="820 0 524.6 600" enable-background="new 820 0 524.6 600" xml:space="preserve">
<polygon fill="#FFFFFF" points="1310.3,191 1312,185.5 1315.8,173.5 1276.6,144.8 1268.3,143.6 1247.2,157.5 1241.7,161.1 
	1236.2,157.5 1224.3,149.7 1207.6,145.9 1198.7,143.9 1199.9,134.9 1201.6,121.6 1194.6,110 1194.4,109.6 1194.2,109.2 1181.6,83.7 
	1180.1,80.7 1180.7,77.5 1182.2,69.2 1158.7,33 1141.7,28.5 1125.8,39.3 1116.7,45.5 1111.4,35.8 1099.7,14.2 1072.7,31.2 
	1066.8,34.9 1065.3,33.7 1050.5,72 1056.9,91.1 1057.1,91.7 1057.2,92.2 1073.2,170.3 1086.3,180.7 1091.3,184.7 1089.7,190.9 
	1087.8,198.9 1108.3,210.4 1121.4,217.6 1109.7,226.9 1074.5,254.9 1071,257.7 1066.6,256.9 1056.2,255.2 1049.5,279.2 
	1048.3,283.3 1044.5,285.3 1012.1,302.1 1009.9,303.3 1007.3,303.2 985.8,302.7 989.5,327.2 990,330.7 988.2,333.8 982.7,343 
	979.8,348 974.1,348 906.6,348 906.3,348 906,347.9 855.8,344.6 848.9,357.1 848.3,358.2 847.4,359.1 834.8,372.3 831.1,396.2 
	869.1,413.9 874.4,416.4 874.8,422.3 877.8,464.2 878.2,470.6 872.6,473.7 858.7,481.2 864,492.5 890,500.5 916.9,508.7 
	890.8,519.3 830,544 830,555.6 864.5,563.1 868.2,563.9 870.4,566.9 879.1,578.7 917.4,566.3 922.3,564.7 926.4,567.7 953.9,588 
	987.1,588 987.1,577.9 987.1,569.2 995.7,568 1038.4,561.8 1039.2,561.7 1039.9,561.7 1058.6,561.7 1042.5,534.9 1040.8,532 
	1041.2,528.6 1047.8,472.4 1045.8,454.7 1045.6,452.8 1046.1,450.9 1052.3,428.3 1052.7,426.9 1053.5,425.6 1071.6,396.8 
	1072.6,395.1 1074.1,394 1100.9,374.3 1103.5,372.4 1106.8,372.4 1126.8,372.4 1138.8,357.7 1139.7,356.5 1141,355.7 1168.2,337.4 
	1188.4,321 1190.3,319.5 1192.6,319 1214.8,313.9 1224.1,311.9 1226.6,321 1229.6,331.8 1238.3,331.8 1276.5,302.8 1282.1,288.7 
	1284.1,283.7 1289.3,282.6 1304.9,279.1 1308.7,242.8 1309.2,237.9 1313.4,235.3 1329.1,225.7 1333,215.8 1314.2,195.3 "/>
<path fill="#FFFFFF" d="M1327.5,169.7l-46.9-34.4l-14.6-2.1l-24.3,15.9l-13.4-8.8l-18.5-4.1l2.2-16.8l-8.8-14.6l-12.6-25.6l2.2-12.2
	L1165,24.4l-25.1-6.7L1120.2,31l-16.8-30.9l-36,22.6l-6.6-5.1l-20.9,54.1l7.5,22.5l16.8,81.6l15.9,12.6l-3.8,15.5l27.2,15.1
	l-35.2,28l-19.3-3.3l-9.1,32.7l-32.3,16.8l-33.4-0.9l5.4,36.4l-5.4,9.3h-67.5l-56.5-3.8l-10,18.1l-14.7,15.5l-5.4,34.4l44.8,20.9
	l2.9,41.9L845.6,477l11.3,23.8l30.2,9.3L820,537.3v26.3l42.3,9.3l13,17.6l45.2-14.7l30.2,22.2h46.5v-20.1l42.8-6.2h20.9h15.5
	l-25.1-41.9l6.7-57.4l-2.1-18.8l6.2-22.6l18.1-28.8l26.8-19.7h24.7l15-18.4l27.6-18.5l20.6-16.8l22.2-5l5,18.1h19.7l43.1-32.7
	l6.6-16.8l22.6-5l4.6-43.5l18.5-11.3l7.5-18.8l-23.1-25.1L1327.5,169.7z M1333,215.8l-4,9.9l-15.7,9.6l-4.2,2.6l-0.5,4.9l-3.8,36.4
	l-15.6,3.5l-5.2,1.1l-2,4.9l-5.6,14.2l-38.2,28.9h-8.7l-3-10.7l-2.5-9.2l-9.3,2.1l-22.2,5l-2.3,0.5l-1.8,1.5l-20.2,16.5l-27.3,18.2
	l-1.2,0.8l-0.9,1.2l-12,14.7h-20h-3.3l-2.6,1.9l-26.8,19.7l-1.5,1.1l-1,1.6l-18.1,28.8l-0.8,1.2l-0.4,1.4l-6.2,22.6l-0.5,1.8
	l0.2,1.9l1.9,17.7l-6.6,56.2l-0.4,3.4l1.8,2.9l16.1,26.8h-18.7h-0.7l-0.7,0.1l-42.8,6.2l-8.6,1.2v8.7V588h-33.2l-27.5-20.3l-4.1-3
	l-4.9,1.6l-38.3,12.5l-8.7-11.8l-2.2-3l-3.7-0.8l-34.5-7.5V544l60.8-24.7l26.1-10.6l-26.9-8.3l-25.9-8l-5.4-11.3l13.9-7.6l5.6-3.1
	l-0.4-6.4l-2.9-41.9l-0.4-5.9l-5.3-2.5l-38-17.7l3.8-23.9l12.6-13.2l0.9-0.9l0.6-1.1l6.9-12.5l50.2,3.4l0.3,0h0.3h67.5h5.7l2.9-4.9
	l5.4-9.3l1.8-3.1l-0.5-3.5l-3.7-24.6l21.5,0.6l2.6,0.1l2.3-1.2l32.3-16.8l3.9-2l1.2-4.2l6.7-24l10.4,1.8l4.4,0.7l3.5-2.8l35.2-28
	l11.7-9.3l-13.1-7.3l-20.5-11.4l2-8l1.5-6.2l-5-4l-13-10.4l-16-78.1l-0.1-0.6l-0.2-0.6l-6.4-19.1l14.8-38.3l1.6,1.2l5.9-3.7l27-17
	l11.7,21.5l5.3,9.7l9.1-6.2l15.9-10.8l17,4.6l23.4,36.1l-1.5,8.3l-0.6,3.2l1.5,2.9l12.6,25.6l0.2,0.4l0.2,0.4l7,11.6l-1.7,13.3
	l-1.2,9.1l8.9,2l16.7,3.7l11.9,7.8l5.5,3.6l5.5-3.6l21.1-13.8l8.4,1.2l39.1,28.7l-3.7,12l-1.7,5.5l3.9,4.2L1333,215.8z"/>
</svg>
