<?xml version="1.0" encoding="utf-8"?>
<!-- Generator: Adobe Illustrator 18.1.1, SVG Export Plug-In . SVG Version: 6.00 Build 0)  -->
<svg version="1.1" id="Calque_1" xmlns="http://www.w3.org/2000/svg" xmlns:xlink="http://www.w3.org/1999/xlink" x="0px" y="0px"
	 viewBox="820 0 486.6 600" enable-background="new 820 0 486.6 600" xml:space="preserve">
<polygon fill="#FFFFFF" points="1296,134.1 1282.6,109.7 1281.9,108.4 1281.6,107 1273.5,70.6 1261.5,66.5 1259.8,65.9 1258.5,64.8 
	1215.3,29.9 1211.6,26.9 1211.6,22.2 1211.6,12.7 1189.3,12.7 1111.7,73.2 1107.2,76.8 1101.9,74.6 1079.9,65.8 1035.3,91.2 
	1033,92.5 1030.3,92.5 974,92.5 909.3,137.2 907.8,138.2 906.1,138.7 870.1,148.1 830.8,228.4 836.2,243.2 886,260.7 892.5,263 
	892.6,269.9 894,322.8 902.7,350.5 912.6,371.2 913.6,373.3 913.6,375.7 912.7,424.7 923.6,441.6 926.5,446 924.4,450.9 
	909.5,486.2 919.7,495.6 961.8,502.1 970.2,503.4 970.2,512 970.2,524.9 1008.1,547.6 1017.3,553.1 1011.2,561.8 1003,573.7 
	1009,589.5 1046.7,578.6 1117.9,552.7 1119.3,552.2 1120.8,552.1 1185.1,549 1185.1,530.6 1185.1,527.6 1186.8,525.1 1219.3,475.4 
	1211.9,444.7 1209.8,436.2 1218,433 1252.3,419.8 1274,362.2 1276.4,355.8 1283.4,355.8 1294.4,355.8 1281.5,292.5 1281,289.9 
	1281.8,287.4 1295.5,244.6 1290.8,238.6 1289.6,237 1289.1,235 1280.6,202.4 1280,200 1280.6,197.6 "/>
<path fill="#FFFFFF" d="M1291.3,104.9L1282,63l-17.3-6l-43.2-34.9V2.7h-35.8l-80.3,62.7l-26.5-10.6l-48.8,27.8h-59.4L903.6,129
	l-40.4,10.6L820,227.8l8.4,23.2l54.2,19l1.4,54.3l9.3,29.7l10.2,21.4l-0.9,52l12.5,19.5l-17.6,41.7l17.6,16.3l45.1,7v18.6l42.7,25.6
	l-11.2,16.2l11.2,29.3l46.8-13.5l71.5-26l73.8-3.7v-27.9l34.9-53.4l-8.4-34.9l38.5-14.8l23.2-61.8h23.2l-15.3-75.3l15.3-47.8
	l-7.9-10.2l-8.4-32.5l16.3-67.3L1291.3,104.9z M1280.6,202.4l8.4,32.5l0.5,2l1.3,1.6l4.7,6l-13.7,42.8l-0.8,2.5l0.5,2.6l12.8,63.3
	h-11h-6.9l-2.4,6.5l-21.7,57.6L1218,433l-8.2,3.2l2.1,8.5l7.4,30.7l-32.5,49.7l-1.6,2.5v3V549l-64.3,3.2l-1.5,0.1l-1.4,0.5
	l-71.2,25.9l-37.7,10.9l-6-15.8l8.2-11.8l6.1-8.8l-9.2-5.5l-37.9-22.7V512v-8.6l-8.5-1.3l-42-6.5l-10.2-9.4l14.9-35.3l2-4.9
	l-2.8-4.4l-10.9-16.9l0.8-49l0-2.4l-1-2.1l-9.9-20.7l-8.7-27.7l-1.4-53l-0.2-6.9l-6.5-2.3l-49.8-17.5l-5.4-14.8l39.3-80.3l36-9.5
	l1.7-0.4l1.4-1L974,92.5h56.3h2.6l2.3-1.3l44.6-25.4l22,8.8l5.3,2.1l4.5-3.5l77.5-60.5h22.3v9.5v4.8l3.7,3l43.2,34.9l1.4,1.1
	l1.7,0.6l12,4.2l8.1,36.4l0.3,1.4l0.7,1.3l13.4,24.4l-15.4,63.5l-0.6,2.4L1280.6,202.4z"/>
</svg>
