<?xml version="1.0" encoding="utf-8"?>
<!-- Generator: Adobe Illustrator 18.1.1, SVG Export Plug-In . SVG Version: 6.00 Build 0)  -->
<svg version="1.1" id="Calque_1" xmlns="http://www.w3.org/2000/svg" xmlns:xlink="http://www.w3.org/1999/xlink" x="0px" y="0px"
	 viewBox="820 0 617.3 600" enable-background="new 820 0 617.3 600" xml:space="preserve">
<polygon fill="#FFFFFF" points="1411,160 1410.2,158.6 1403.6,146.7 1375.6,138.4 1366.5,151.9 1363.2,156.8 1357.3,156.2 
	1310.3,151.6 1304.2,151 1302,145.2 1298.4,135.9 1261.1,131.3 1254.2,143.3 1245.9,157.8 1237,143.6 1213.2,105.4 1204.8,98.5 
	1203.4,97.4 1202.5,95.9 1191.6,77.5 1190.2,75.2 1190.2,72.4 1190.2,66.8 1165.2,57.8 1151.6,57.8 1148,57.8 1145.2,55.5 
	1134.4,46.7 1102.9,39.4 1088.5,55.1 1084.2,59.9 1078,57.9 1044.8,47 1042.5,46.2 1040.8,44.5 1027.6,31.3 971.7,43.8 966.1,45 
	962.2,40.8 937.9,14.8 927.4,25.6 923.6,29.4 918.3,28.4 884.1,21.8 868.5,48.7 876.5,65.1 878.7,69.5 876.5,74 862.3,102.4 
	865.6,112.8 867.1,117.2 864.6,121.1 842.3,157.5 857,179.1 858.5,181.3 858.7,183.9 861.5,219.9 861.8,224.4 858.8,227.6 
	839.4,248.1 831.3,278.1 861.1,304.9 864.4,307.8 864.4,312.3 864.4,346.1 884.7,352 886.5,352.5 887.9,353.6 949.2,400 953.2,403 
	953.2,408 953.2,435.2 975.8,435.2 979.9,435.2 982.9,438.2 1013.3,469.1 1017.4,473.3 1015.8,478.9 1006.4,512 1038.5,530.5 
	1044.1,533.7 1043.5,540.1 1041.7,559.4 1085.5,564.3 1089.9,549.9 1091.1,546 1094.7,544.1 1107.3,537.2 1113.1,534 1118.3,538.1 
	1141.5,556.4 1165,551.7 1169.9,550.7 1173.7,554 1196.1,574.1 1208.1,569.7 1219.6,561.4 1225.5,557.1 1231.4,561.4 1269.2,589.2 
	1294.4,585 1294.4,545.9 1294.4,542.8 1296.2,540.3 1330,490.7 1330,480.7 1330,479 1330.5,477.5 1348.3,424.8 1345.6,418 
	1338.8,418 1328.8,418 1328.8,408 1328.8,366.8 1328.8,360.3 1334.7,357.7 1351.6,349.9 1369.4,315.7 1362.4,306.4 1359.2,302.2 
	1360.8,297.2 1366.8,279.3 1337.8,253 1329.7,253 1327.5,253 1325.5,252.2 1300.3,240.7 1292.2,237.1 1294.9,228.6 1299.9,212.5 
	1303.2,195.9 1306.3,180.8 1318.8,189.7 1342.3,206.5 1360.4,216 1386.8,210.9 1389.3,210.4 1391.8,211.2 1405.4,215.8 
	1419.4,210.1 1426.4,174.4 1412.1,161 "/>
<path fill="#FFFFFF" d="M1410.3,138.3l-38.9-11.5l-13.2,19.5l-46.9-4.6l-5.7-14.9l-49.8-6.3l-10.2,17.8l-24.7-39.6l-9.7-8
	l-10.9-18.3V59.8l-33.2-12h-15.4l-12.6-10.4l-39.5-9.2l-18.3,20.1l-33.2-10.9l-17.2-17.2L969.5,34L938,0.2l-17.8,18.3l-41.2-8
	l-21.8,37.8l10.4,21.1l-16.1,32.1l4.6,14.2l-25.8,41.9l18.3,27l2.8,36L830.4,243L820,281.4l34.4,30.8v41.3l27.5,8l61.3,46.4v37.2
	h32.6l30.4,31l-11.5,40.7l38.9,22.3l-2.8,29.1l61.8,6.9l6.9-22.3l12.6-6.9l26.9,21.2l28-5.7l27,24.1l18.9-6.9l12.6-9.2l41.2,30.3
	l37.8-6.3v-47.6l35.6-52.1v-13.2l18.9-56.1l-6.4-16.6h-13.7v-41.2l20.1-9.2l22.3-42.9l-10.9-14.3l8-24.1l-36.7-33.2h-12l-25.2-11.4
	l5.2-16.6l3.5-17.2l24.1,17.2l21.8,11.4l29.8-5.7l17.2,5.7l22.3-9.2l9.2-46.4l-18.3-17.2L1410.3,138.3z M1419.4,210.1l-13.9,5.7
	l-13.6-4.5l-2.5-0.8l-2.6,0.5l-26.3,5.1l-18.1-9.5l-23.5-16.8l-12.6-9l-3,15.1l-3.3,16.6l-5,16.1l-2.6,8.4l8.1,3.6l25.2,11.4l2,0.9
	h2.2h8.1l29,26.3l-5.9,17.9l-1.7,5l3.2,4.2l7.1,9.3l-17.8,34.3l-16.9,7.7l-5.8,2.7v6.4V408v10h10h6.8l2.6,6.8l-17.7,52.7l-0.5,1.6
	v1.6v10.1l-33.9,49.5l-1.7,2.6v3.1V585l-25.2,4.2l-37.8-27.8l-5.9-4.3l-5.9,4.3l-11.5,8.3l-11.9,4.4l-22.5-20.1l-3.7-3.3l-4.9,1
	l-23.5,4.8l-23.2-18.4l-5.2-4.1l-5.8,3.2l-12.6,6.9l-3.6,1.9l-1.2,3.9l-4.5,14.4l-43.8-4.9l1.9-19.3l0.6-6.4l-5.6-3.2l-32.2-18.4
	l9.4-33.1l1.6-5.6l-4.1-4.1l-30.4-31l-2.9-3h-4.2h-22.6V408v-5l-4-3l-61.3-46.4l-1.5-1.1l-1.8-0.5l-20.3-5.9v-33.8v-4.5l-3.3-3
	l-29.8-26.7l8.1-30l19.4-20.5l3.1-3.2l-0.3-4.4l-2.8-36l-0.2-2.6l-1.5-2.2l-14.7-21.6l22.4-36.3l2.4-3.9l-1.4-4.4l-3.4-10.3
	L876.5,74l2.2-4.4l-2.2-4.4l-8-16.4l15.6-27l34.2,6.6l5.3,1l3.8-3.9l10.5-10.8l24.3,26.1l3.9,4.2l5.6-1.2l55.9-12.5l13.3,13.3
	l1.7,1.7l2.3,0.7l33.2,10.9l6.1,2l4.4-4.8l14.4-15.7l31.5,7.3l10.8,8.9l2.8,2.3h3.6h13.7l25,9v5.6v2.7l1.4,2.4l10.9,18.3l0.9,1.5
	l1.4,1.1l8.4,6.9l23.8,38.2l8.8,14.1l8.3-14.5l6.9-12l37.3,4.7l3.6,9.3l2.2,5.8l6.1,0.6l46.9,4.6l5.9,0.6l3.3-4.9l9.1-13.4l28,8.3
	l6.6,11.9l0.8,1.4l1.1,1.1l14.3,13.4L1419.4,210.1z"/>
</svg>
