<?xml version="1.0" encoding="utf-8"?>
<!-- Generator: Adobe Illustrator 18.1.1, SVG Export Plug-In . SVG Version: 6.00 Build 0)  -->
<svg version="1.1" id="Calque_1" xmlns="http://www.w3.org/2000/svg" xmlns:xlink="http://www.w3.org/1999/xlink" x="0px" y="0px"
	 viewBox="0 0 311.5 600" enable-background="new 0 0 311.5 600" xml:space="preserve">
<polygon fill="#FFFFFF" points="253.6,18.9 245.8,14.8 215.8,14.1 205.7,14.1 181,16.2 158.5,53.1 128.5,52.6 97.2,56.5 74.1,44.4 
	56.3,37.2 43.8,20.7 34.9,48.4 24.9,73 55.3,85.5 44.4,97.1 48.8,100.3 57.5,84.4 102.8,109.6 93.7,146.9 99.4,152.7 70.3,208.6 
	55.8,208.6 59.4,264.8 88.5,279.9 12.9,461.1 54.9,486.1 54.2,530.2 99.2,586.7 115.6,590.6 142.7,586.4 168.3,547.8 183,532.9 
	166.4,507.4 169.8,478.8 167.5,461.9 171.9,445.7 174.7,424.7 182.9,392.9 171.6,372.6 169.9,343 190.7,301.5 200.5,271.2 
	208.8,208.3 216.2,195.3 217.1,166 234.3,141.7 276.5,90.6 298.1,34.9 272.1,28.9 "/>
<path fill="#FFFFFF" d="M258.4,9.9l-10-5.2L215.9,4h-10.4l-30.6,2.5l-22.1,36.3l-24.9-0.5L99,45.9L78.6,35.1l-16-6.5L40.1-0.9
	L25.4,44.8L11.7,78.6l26.1,10.7l-8.6,9.2l22.9,17.1l9.4-17.2L91,114.8l-8.6,35.3l4.5,4.6l-22.8,43.9H44.9l4.6,72.6l25.8,13.5
	L0,465.4l44.4,26.5l-0.6,41.8l49.5,62.1l21.7,5.1l33.4-5.1l27.7-41.6l19.8-19.9L176.7,505l3.2-26.1l-2.2-16.1l3.9-14.6l2.8-20.9
	l9.2-35.4l-12.2-21.9l-1.3-24.5l19.8-39.8l10.5-31.9l8-61.8l7.6-13.4l0.9-28.8l15.1-21.4l42.7-51.7l0.5-0.6l26.3-68l-36-8.4
	L258.4,9.9z M276.5,90.6l-42.3,51.1L217,166l-0.9,29.4l-7.4,13l-8.2,62.8l-9.9,30.3l-20.6,41.5l1.5,29.6l11.4,20.4l-8.2,31.8
	l-2.8,20.9l-4.4,16.4l2.2,16.9l-3.4,28.6l16.7,25.5l-14.7,14.8l-25.6,38.7l-27,4.1L99.1,587l-45-56.4l0.6-44l-42-25.1l75.6-181.1
	l-29.1-15.2L55.6,209h14.4l29.1-55.9l-5.7-5.8l9.1-37.3L57.3,84.8l-8.7,16l-4.4-3.3L55,85.9L24.6,73.4l10-24.6l8.8-27.7l12.5,16.5
	l17.8,7.2l23.1,12.1l31.3-4l30,0.5l22.5-36.9l24.8-2.1h10l30.1,0.7l7.8,4.1l18.5,10l25.9,6L276.5,90.6z"/>
</svg>
