<?xml version="1.0" encoding="utf-8"?>
<!-- Generator: Adobe Illustrator 18.1.1, SVG Export Plug-In . SVG Version: 6.00 Build 0)  -->
<svg version="1.1" id="Calque_1" xmlns="http://www.w3.org/2000/svg" xmlns:xlink="http://www.w3.org/1999/xlink" x="0px" y="0px"
	 viewBox="650.9 0 630.9 600" enable-background="new 650.9 0 630.9 600" xml:space="preserve">
<polygon fill="#FFFFFF" points="1266.8,129.1 1175.1,80.5 1170.8,78.2 1170,73.3 1164.8,42.1 1153.4,42.1 1118,63.4 1111.9,67 
	1106.4,62.4 1088.3,47.2 1086.7,45.9 1085.8,44.1 1072.3,17.7 1062.4,29.1 1059.9,32 1056.1,32.5 982.4,42 979.6,42.4 977,41.2 
	947,27.6 936.5,31.3 938.2,33.7 940.4,36.6 940.1,40.3 938,68.3 937.9,70.7 936.6,72.7 926,90.2 937.8,141.3 939.4,148 933.7,151.9 
	918.8,162 897.8,201.4 893.2,209.9 884.5,205.6 862.7,194.7 833.2,204.4 830.7,214.7 829,221.6 821.9,222.3 753.6,228.5 751.2,252 
	750.6,258.1 744.9,260.3 663.4,291.8 667.6,311.8 703.6,327.1 716.8,322.3 728.7,317.9 730.1,330.6 731.4,342.5 731.9,346.5 
	729.4,349.7 724.3,356.4 751.6,372.5 759.8,377.3 755.5,385.7 744.3,407.4 743.3,409.3 741.7,410.6 726.1,423.1 729.1,441.6 
	743.3,446 747.1,447.1 749,450.5 776.1,497 777,498.4 777.3,500 782.2,523.4 828.7,548.4 831.2,549.8 832.7,552.4 839.7,565.1 
	847.2,563.4 852.1,562.3 856,565.6 879.8,586.3 890.1,577.2 891.2,576.4 892.4,575.8 916.3,564.2 922.7,561.1 927.7,566.1 
	937.6,576 940.7,574.3 944.3,574.9 971.7,580.1 996.5,568.9 985.2,554.8 983.9,553.2 983.3,551.1 978.5,532.5 977.8,529.9 
	978.5,527.3 985.8,500.6 950.9,417 945.6,404.2 959.5,403.2 1001,400.4 1000.4,399 994,384.1 1010.1,385 1087.9,389.6 1093.3,377.1 
	1094.9,373.5 1098.5,371.9 1112.2,365.9 1112.2,342.4 1112.2,337.6 1116,334.6 1134.3,320.1 1136.6,265.8 1137.3,248.7 
	1151.8,257.8 1169.7,268.9 1208.9,245.8 1207.9,238.9 1207,233.4 1211.3,229.8 1240.6,204.9 1240.6,196.6 1240.6,193.5 
	1242.4,190.9 1252.2,177.1 1247.2,157.7 1245.8,152.5 1249.4,148.5 "/>
<path fill="#FFFFFF" d="M1179.8,71.6l-6.6-39.5h-22.6l-37.8,22.7l-18.2-15.2L1074.5,0l-19.7,22.6l-73.7,9.5l-33.7-15.2l-26.8,9.5
	l9.5,13.2l-2.1,28l-12.7,21l12.7,55.1l-17,11.6L889,196.6l-25.5-12.7l-38.7,12.7l-3.8,15.7l-76.5,7l-3.2,31.7l-89.4,34.6l7,33.4
	l44.4,18.9l16.9-6.2l1.3,11.9l-12,15.7l37.1,21.8l-11.1,21.7l-20.1,16.1l4.9,30.5l20.2,6.2l27.1,46.5l5.8,28l50.6,27.2l10.7,19.3
	l14.8-3.3l30.5,26.4l16.9-14.8l23.9-11.6l15.2,15.2l6.6-3.7l30.5,5.7l39.4-17.7L993,548.6l-4.9-18.6l8.2-30l-36.2-86.8l55.5-3.8
	l-6.2-14.4l84.7,5l8.2-18.9l19.8-8.6v-30l21.8-17.3l2.5-58.9l23,14.4l50.2-29.6l-2.1-13.6l32.8-27.9v-12.9L1263,179l-6.2-23.9
	l25.9-28.8L1179.8,71.6z M1247.2,157.7l5,19.4l-9.8,13.8l-1.8,2.6v3.2v8.2l-29.3,24.9l-4.2,3.6l0.8,5.5l1,6.9l-39.2,23.1l-17.9-11.2
	l-14.6-9.1l-0.7,17.2l-2.3,54.3l-18.2,14.4l-3.8,3v4.8v23.5l-13.8,6l-3.6,1.6l-1.6,3.6l-5.4,12.5l-77.7-4.6l-16.1-0.9l6.4,14.9
	l0.6,1.4l-41.5,2.8l-13.9,0.9l5.4,12.9l34.9,83.6l-7.3,26.7l-0.7,2.6l0.7,2.6l4.9,18.6l0.5,2.1l1.3,1.7l11.3,14.1l-24.8,11.1
	l-27.4-5.1l-3.6-0.7l-3.2,1.8l-9.9-9.9l-5-5l-6.4,3.1l-23.9,11.6l-1.2,0.6l-1,0.9l-10.3,9.1L856,565.6l-3.8-3.3l-4.9,1.1l-7.5,1.7
	l-7.1-12.8l-1.4-2.6l-2.6-1.4l-46.5-25l-4.9-23.4l-0.3-1.6l-0.8-1.4L749,450.5l-2-3.4l-3.7-1.1l-14.2-4.3l-3-18.6l15.6-12.5l1.7-1.3
	l1-1.9l11.1-21.7l4.3-8.4l-8.1-4.8l-27.3-16.1l5.1-6.7l2.4-3.2l-0.4-4l-1.3-11.9l-1.4-12.7l-12,4.4l-13.1,4.8l-36-15.3l-4.2-20
	l81.4-31.5l5.7-2.2l0.6-6.1l2.4-23.5l68.3-6.3l7.1-0.7l1.7-7l2.5-10.3l29.5-9.7l21.8,10.9l8.7,4.4l4.6-8.6l21-39.3l14.9-10.2
	l5.7-3.9l-1.5-6.7L926,90.2l10.6-17.5l1.3-2.1l0.2-2.4l2.1-28l0.3-3.6l-2.1-3l-1.7-2.4l10.4-3.7l30,13.6l2.6,1.2l2.8-0.4l73.7-9.5
	l3.8-0.5l2.5-2.9l9.9-11.4l13.5,26.4l0.9,1.8l1.6,1.3l18.2,15.2l5.5,4.6l6.1-3.7l35.4-21.3h11.3l5.2,31.2l0.8,4.9l4.4,2.3l91.7,48.7
	l-17.4,19.3l-3.6,4L1247.2,157.7z"/>
</svg>
