<?xml version="1.0" encoding="utf-8"?>
<!-- Generator: Adobe Illustrator 18.1.1, SVG Export Plug-In . SVG Version: 6.00 Build 0)  -->
<svg version="1.1" id="Calque_1" xmlns="http://www.w3.org/2000/svg" xmlns:xlink="http://www.w3.org/1999/xlink" x="0px" y="0px"
	 viewBox="820 0 539.5 600" enable-background="new 820 0 539.5 600" xml:space="preserve">
<polygon fill="#FFFFFF" points="1348.9,193.4 1335.7,119.2 1304.4,68.3 1283.6,58.7 1280.6,57.3 1279,54.4 1265.8,29.9 1212.3,20.4 
	1138.3,9.7 1119.4,23.7 1116.2,26.2 1112.1,25.6 1067.9,19.6 1047.7,35.4 1042.9,39.1 1037.5,36.7 1013.6,26.2 938.4,42.6 
	934.6,54.2 933,59 928.2,60.6 907.9,67.1 879,92.1 889.8,104.3 893.3,108.3 891.9,113.5 880.9,153.7 900.3,169 904.1,172 
	904.1,176.8 904.1,190.1 904.1,198 896.4,199.8 879.7,203.8 874.7,236.3 873.5,244.5 865.2,244.8 848.2,245.4 833.2,285.5 
	853.3,291.1 860.6,293.2 860.6,300.8 860.6,317.9 878.3,331.2 889.1,325 891.4,323.7 894.1,323.7 923.7,323.7 927.5,323.7 
	930.3,326.2 955.3,348.4 958.6,351.4 958.6,355.9 958.6,369.5 991.4,378.8 997.1,380.4 998.4,386.2 1003.7,409.7 1004.8,414.6 
	1001.5,418.4 984.7,437.9 991.8,455.8 993.7,460.4 991.1,464.6 985.2,474.6 989.5,475.8 999.3,478.5 996.4,488.3 994.6,494.2 
	1019,506 1022.3,507.6 1023.7,511 1039.7,547.1 1054.4,541.6 1056.1,540.9 1057.9,540.9 1085.3,540.9 1089.1,540.9 1091.9,543.5 
	1115.4,564.6 1116.7,565.7 1117.6,567.3 1129.1,588.5 1161,576.9 1161.3,576.8 1161.5,576.7 1186.5,569.1 1187.1,568.9 
	1187.8,568.8 1221.3,563.5 1221.3,540.1 1221.3,533.5 1227.3,530.9 1243.5,524 1243.5,515 1243.5,479.7 1243.5,476.4 1245.5,473.7 
	1270.5,440.8 1272.3,438.3 1275.3,437.3 1287.2,433.4 1287.2,427 1287.2,417 1297.2,417 1321.1,417 1321.1,398.8 1321.1,398 
	1321.2,397.3 1327.9,351.6 1322,337.6 1320.1,333.4 1322.2,329.2 1328.3,317.2 1328.3,291.5 1310.7,259.4 1307.7,254 1311.2,249 "/>
<path fill="#FFFFFF" d="M1345.3,115.6l-33.9-55.1l-23.5-10.8l-15.5-28.8l-58.4-10.3l-78.2-11.4l-22.2,16.5L1065,9.2l-23.5,18.4
	l-26.9-11.8l-83.9,18.4l-5.6,17l-22.2,7.1l-38.1,32.9l17.4,19.8l-12.7,46.6l24.5,19.4v13.2l-23.2,5.6l-6,39.2l-23.6,0.9L820,292.2
	l30.6,8.5v22.1l26.9,20.2l16.5-9.4h29.6l24.9,22.2V377l40,11.4l5.3,23.5L973.1,436l9.4,23.5l-12.7,21.2l17,4.7l-4.3,14.1l32,15.5
	l19.8,44.7l23.5-8.9h27.3l23.5,21.1l15.6,28.8l40-14.5l24.9-7.5l41.9-6.7v-31.9l22.2-9.5V515v-35.3l24.9-32.9l18.8-6.1V427h33.9
	v-28.2l7.1-48.6l-7.1-16.5l7.1-14.1V289l-18.8-34.3l40-59L1345.3,115.6z M1310.7,259.4l17.6,32.1v25.7l-6,12l-2.1,4.2l1.8,4.3
	l6,13.9l-6.7,45.8l-0.1,0.7v0.7V417h-23.9h-10v10v6.4l-11.9,3.9l-3,1l-1.9,2.5l-24.9,32.9l-2,2.7v3.4V515v8.9l-16.1,6.9l-6.1,2.6
	v6.6v23.4l-33.5,5.3l-0.7,0.1l-0.7,0.2l-24.9,7.5l-0.3,0.1l-0.3,0.1l-31.9,11.6l-11.5-21.2l-0.8-1.5l-1.3-1.2l-23.5-21.1l-2.9-2.6
	h-3.8h-27.3h-1.8l-1.7,0.6l-14.7,5.5l-16-36.1l-1.5-3.4l-3.3-1.6l-24.4-11.8l1.8-5.9l3-9.8l-9.9-2.7l-4.3-1.2l6-10l2.5-4.2l-1.8-4.6
	l-7.1-17.9l16.8-19.5l3.3-3.8l-1.1-4.9l-5.3-23.5l-1.3-5.8l-5.7-1.6l-32.8-9.3v-13.6v-4.5l-3.4-3l-24.9-22.2l-2.8-2.5h-3.8h-29.6
	h-2.6l-2.3,1.3l-10.8,6.2l-17.7-13.3v-17.1v-7.6l-7.3-2l-20.1-5.6l15-40.1l17-0.6l8.3-0.3l1.3-8.2l5-32.5l16.7-4l7.7-1.8v-7.9v-13.2
	V172l-3.8-3l-19.3-15.3l11-40.2l1.4-5.2l-3.5-4L879,92.1l28.9-25l20.3-6.5L933,59l1.6-4.8l3.8-11.5l75.1-16.5l23.9,10.5l5.5,2.4
	l4.7-3.7l20.2-15.8l44.3,6l4,0.5l3.3-2.4l18.9-14l74,10.8l53.5,9.4l13.2,24.5l1.6,2.9l3,1.4l20.8,9.6l31.3,50.9l13.2,74.2
	l-37.8,55.6l-3.4,5.1L1310.7,259.4z"/>
</svg>
