<?xml version="1.0" encoding="utf-8"?>
<!-- Generator: Adobe Illustrator 18.1.1, SVG Export Plug-In . SVG Version: 6.00 Build 0)  -->
<svg version="1.1" id="Calque_1" xmlns="http://www.w3.org/2000/svg" xmlns:xlink="http://www.w3.org/1999/xlink" x="0px" y="0px"
	 viewBox="820 0 800 468.1" enable-background="new 820 0 800 468.1" xml:space="preserve">
<polygon fill="#FFFFFF" points="1609.1,207.8 1597.1,148 1562.4,135.2 1541.9,154.1 1532.7,162.7 1526.3,151.7 1505.2,115.4 
	1501,108.2 1449.9,109.5 1440.4,109.7 1439.6,100.3 1438.3,85.9 1381.4,103.4 1376.8,104.9 1372.8,102.2 1346.1,84.2 1272,121.7 
	1263.2,126.1 1258.5,117.4 1208.8,24.9 1191.3,13.7 1166.9,13.7 1106.5,19.5 1088.4,36.2 1087.3,48.8 1086.4,59.5 1075.9,58 
	1002.2,47.8 933.6,57.8 841,97.4 844.4,138.8 900.1,138.3 901.8,138.3 903.4,138.9 933.6,148.8 1007.1,172.9 929.9,168.5 
	890.2,166.3 874.2,171.4 881.3,190.8 895.5,188.1 898.4,187.5 901.1,188.6 923.8,197.6 932.2,200.9 929.9,209.6 926.9,220.5 
	924.8,228.5 916.5,228 902.8,227.1 843.2,239.9 872.2,249.4 875.7,250.6 877.6,253.7 897.9,286.7 899.4,289.2 899.4,292.1 
	899.4,317 938.7,319.8 949.1,307.3 952.8,302.8 958.5,303.8 989.6,308.9 996.1,310 997.8,316.3 1001.2,329.3 1029.8,334 
	1030.7,334.1 1031.5,334.4 1064.6,346.2 1066.6,346.9 1068.2,348.5 1082.3,362.1 1104.6,367.6 1106.6,368.1 1108.3,369.4 
	1129.6,385.4 1129.9,385.7 1130.2,385.9 1156.8,409.5 1193.7,416 1196.6,416.6 1198.8,418.6 1221.5,439.6 1270.8,435.4 1279,434.6 
	1281.4,442.6 1285.7,457.1 1336.2,451.4 1336.7,451.3 1337.3,451.3 1356.9,451.3 1381.4,409.2 1383.6,405.5 1387.7,404.4 
	1468.1,384 1509.2,362.3 1512.7,360.5 1516.5,361.5 1560.2,373 1585.9,317.1 1587.5,313.6 1590.9,312.1 1605.8,305.3 1609.5,294.6 
	1596,228.9 1594.9,224 1598.3,220.2 "/>
<path fill="#FFFFFF" d="M1605.9,140.5l-45.8-16.9l-25,23.1l-21.2-36.4l-7.1-12.3l-57.1,1.4l-2.4-26.9l-68.9,21.3l-31.6-21.3
	l-79.3,40.2l-51-94.9l-22.2-14.1h-27.9l-64.2,6.2l-23.5,21.7l-1.4,16.5l-75.1-10.4L930.9,48l-100.5,43L835,149l65.2-0.5l30.2,9.9
	l-41.6-2.4l-27.9,9l13.7,37.4l22.7-4.3l22.7,9l-2.9,10.9l-15.1-1l-64.1,13.7L820,242.9l49,16.1l20.3,33v34.4l53.9,3.8l13.7-16.5
	l31.1,5.2l5.2,19.3l35,5.7l33,11.8l16.1,15.5l24.9,6.2l21.3,16.1l28.8,25.5l39.6,7l26,24.1l53.8-4.6l6.7,22.7l58.9-6.7h25.5
	l27.4-47.2l81.6-20.7l42.1-22.2l51.9,13.7l29.3-63.7l18.9-8.5l6-17.5l-14.1-68.4l14.1-16.1L1605.9,140.5z M1596,228.9l13.6,65.7
	l-3.7,10.7l-14.9,6.7l-3.5,1.6l-1.6,3.4l-25.7,55.9l-43.7-11.5l-3.8-1l-3.5,1.8l-41,21.7l-80.4,20.4l-4.1,1l-2.1,3.7l-24.5,42.1
	h-19.6h-0.6l-0.6,0.1l-50.5,5.7l-4.3-14.5l-2.3-7.9l-8.2,0.7l-49.3,4.3l-22.7-21l-2.2-2l-2.9-0.5l-36.8-6.5l-26.7-23.6l-0.3-0.3
	l-0.3-0.2l-21.3-16.1l-1.7-1.3l-2-0.5l-22.3-5.5l-14.1-13.6l-1.6-1.5l-2.1-0.7l-33-11.8l-0.9-0.3l-0.9-0.1l-28.5-4.7l-3.5-13
	l-1.7-6.3l-6.4-1.1l-31.1-5.2l-5.7-1l-3.7,4.5l-10.4,12.5l-39.3-2.8v-25v-2.9l-1.5-2.4l-20.3-33l-1.9-3.2l-3.5-1.2l-29-9.5
	l59.6-12.7l13.7,0.9l8.3,0.5l2.1-8l2.9-10.9l2.3-8.7l-8.4-3.3l-22.7-9l-2.7-1.1l-2.9,0.5l-14.2,2.7l-7.1-19.4l16-5.2l39.7,2.3
	l77.3,4.4l-73.5-24.2l-30.2-9.9l-1.6-0.5l-1.7,0l-55.8,0.5L841,97.4l92.6-39.6l68.5-10l73.7,10.2l10.6,1.5l0.9-10.6l1.1-12.6
	l18.1-16.7l60.4-5.8h24.4l17.5,11.1l49.7,92.6l4.7,8.7l8.8-4.5l74-37.5l26.7,18l4,2.7l4.6-1.4l56.9-17.6l1.3,14.4l0.8,9.5l9.5-0.2
	l51.1-1.3l4.1,7.1l21.2,36.4l6.3,10.9l9.3-8.6l20.5-18.9l34.6,12.8l12,59.8l-10.8,12.3l-3.3,3.8L1596,228.9z"/>
</svg>
