<?xml version="1.0" encoding="utf-8"?>
<!-- Generator: Adobe Illustrator 18.1.1, SVG Export Plug-In . SVG Version: 6.00 Build 0)  -->
<svg version="1.1" id="Calque_1" xmlns="http://www.w3.org/2000/svg" xmlns:xlink="http://www.w3.org/1999/xlink" x="0px" y="0px"
	 viewBox="713.2 0 693.2 600" enable-background="new 713.2 0 693.2 600" xml:space="preserve">
<polygon fill="#FFFFFF" points="1391.9,482.2 1381.9,464 1363.4,456.7 1358.7,424.7 1350.5,419.9 1345.2,405.9 1337,380.6 
	1318.1,368.3 1314,352.5 1307.1,346.3 1303.9,348.8 1266.3,340.8 1256.5,313.4 1266.2,309.4 1268.7,297.4 1253.1,281.6 
	1258.4,267.7 1270.2,247.6 1265.6,223.6 1248,212.6 1257.1,199 1246.9,198.3 1243.3,147.3 1229.8,145 1204.7,152.8 1185,174.8 
	1133.4,193.2 1080.5,174 1056.9,167.3 972.1,162.3 942.3,145.4 917.6,147.8 910.2,163 891.2,143.5 892.6,137.8 862.7,84.6 
	866.7,66.7 877.3,57.6 875,33 852.9,26.8 819.6,40.4 788.1,39.1 743.6,18.9 726.6,14.4 728.7,25.2 729.3,24 748,33.4 746.7,65.8 
	736.4,77.4 747.5,109.9 747.6,126.1 761.5,126.1 761.5,141.6 773.3,160.5 787.7,192.5 794.5,229.4 792.7,265.5 802.9,301.8 
	790.9,337.7 797.2,371.6 823.8,396.4 857.2,419 825.7,419 810.2,424.9 795.7,420.9 800.9,449.8 830,468.5 865.5,437.5 923.2,462.5 
	929.1,454.4 955.1,462.6 970.7,479.7 981.5,485.5 981.5,471.1 1006,476.5 1009.4,477.7 1030.1,471.6 1035.4,463.4 1074.6,472.1 
	1098.7,460.8 1109.3,444.5 1134.4,463 1129.8,471.8 1133.1,489.1 1152.7,489.1 1154.7,511.3 1169.8,515.2 1216.3,477.5 
	1242.5,484.6 1259,499.2 1261.7,526 1264,539.3 1288,555.4 1307,566 1331.8,569.3 1343.7,591.5 1350.7,591.5 1350.7,586.1 
	1346.7,552.9 1351.7,537.9 1384.8,524.2 1394.4,508.8 1390.1,501.1 "/>
<path fill="#FFFFFF" d="M1402.6,480l-13.4-24.3l-16.4-6.4l-4.6-30.9l-9.3-5.5l-3.9-10.2l-9.4-28.7l-18.5-12l-3.9-15l-15.7-14
	l-6.2,4.8l-27.2-5.8l-4.5-12.7l5.7-2.4l4.8-22.7l-14.9-15.1l2.6-6.9l13.3-22.7l-6.2-32.3l-12.3-7.7l13.1-19.6l-19.1-1.4l-3.5-50.1
	l-24-4.1l-30.2,9.4l-19.9,22.2l-45.6,16.3l-49.6-18l-25.2-7.1l-83.5-4.9l-30.6-17.3l-33.7,3.2l-3.5,7.2l-4.7-4.8l1-4.1l-30-53.3
	l2.4-10.7l12-10.4l-3.5-37l-32.3-9l-34.5,14l-27.2-1.2L747.1,9.1l-33.9-9l5.3,27.2l10-2l-3.9,7.9l12.8,6.4l-0.9,22l-11.9,13.4
	l12.5,36.6l0.3,24.7h13.8v8.1l12.8,20.5l13.7,30.6l6.4,34.5l-1.9,36.6l9.9,34.9L780.2,337l7.4,39.8l29.7,27.7l6.2,4.3l-13.8,5.2
	l-27.2-7.6l8.9,49.7l39.5,25.3l36.4-31.9l59.3,25.7l6.4-8.8l16.3,5.1l14.9,16.3l27.6,15.1v-19l10.9,2.4l6.3,2.2l27.6-8.2l3.4-5.3
	l35.7,7.9l29.9-14.2l6.2-9.5l9.1,6.7l-2.2,4.2l5.7,29.2h18.6l1.8,20.1l27.3,6.9l46.4-37.6l18.7,5.1l11.7,10.3l2.3,22.9l3.1,18.2
	l27.9,18.8l21.3,11.8l21.5,2.9l12.4,23h23.5v-16.4l-3.7-31.5l2.7-8.3l31.8-13.2l14.5-23.4l-5.7-10.2L1402.6,480z M1384.8,524.2
	l-33.1,13.8l-4.9,15l3.9,33.2v5.4h-7l-11.9-22.2L1307,566l-19-10.5l-24-16.2l-2.3-13.3l-2.7-26.7l-16.5-14.6l-26.1-7.1l-46.5,37.7
	l-15.1-3.8l-2-22.2h-19.6l-3.4-17.3l4.6-8.9l-25.1-18.4l-10.6,16.2l-24.1,11.4l-39.3-8.7l-5.3,8.2l-20.7,6.1l-3.4-1.2l-24.5-5.4
	v14.4l-10.8-5.9l-15.6-17.1l-26.1-8.2l-5.9,8.1l-57.7-25l-35.4,31l-29.2-18.7l-5.2-29l14.5,4.1l15.5-5.9h31.4l-33.4-22.6l-26.6-24.8
	l-6.3-33.8l12-35.9l-10.3-36.3l1.9-36.1l-6.9-36.9l-14.4-32l-11.8-18.9v-15.5h-13.9l-0.2-16.1l-11.1-32.5l10.3-11.7l1.4-32.4
	L729.3,24l-0.6,1.2l-2.1-10.8l17,4.5l44.5,20.2l31.5,1.3l33.3-13.6l22,6.1l2.3,24.6l-10.6,9.1l-4,17.9l29.9,53.2l-1.4,5.7l19,19.5
	l7.5-15.2l24.6-2.4l29.8,16.9l84.8,5l23.6,6.6l52.9,19.3l51.6-18.4l19.7-22l25-7.8l13.5,2.3l3.6,51l10.2,0.7l-9.1,13.6l17.6,11
	l4.6,24l-11.8,20.1l-5.3,13.9l15.6,15.9l-2.5,11.9l-9.7,4.1l9.8,27.4l37.6,7.9l3.2-2.5l6.9,6.2l4.2,15.9l18.8,12.2l8.3,25.3l5.3,14
	l8.2,4.9l4.7,32l18.5,7.3l10,18.2l-1.9,18.9l4.3,7.7L1384.8,524.2z"/>
</svg>
