<?xml version="1.0" encoding="utf-8"?>
<!-- Generator: Adobe Illustrator 18.1.1, SVG Export Plug-In . SVG Version: 6.00 Build 0)  -->
<svg version="1.1" id="Calque_1" xmlns="http://www.w3.org/2000/svg" xmlns:xlink="http://www.w3.org/1999/xlink" x="0px" y="0px"
	 viewBox="525.4 0 505.4 600" enable-background="new 525.4 0 505.4 600" xml:space="preserve">
<polygon fill="#FFFFFF" points="958.2,174.1 954.2,170.3 955.2,164.9 960,139.5 900.6,56.6 891.1,69.9 888.5,73.6 883.9,74 
	853.2,77 842.3,78 842.3,67 842.3,46.5 790.8,13.9 769.7,31 766.9,33.3 763.4,33.3 685.2,33.3 675.5,51.5 672.6,56.8 666.6,56.8 
	617.9,56.8 617.9,63.9 644.5,101.7 645.5,103.1 645.9,104.7 665.5,171.2 665.9,172.5 665.9,174 665.9,228.2 665.9,239.2 
	654.9,238.1 589.3,231.6 543.1,282.3 552.2,285.4 557.2,287 558.6,292 565.9,316.7 566.3,318.1 566.3,319.5 566.3,345.3 
	566.3,349.2 563.6,352.1 535.4,382.7 535.4,408.8 587.1,444.9 589,446.2 590.1,448.3 627.1,515.1 677.8,530.3 682.4,531.7 
	684.2,536.2 696.9,568.6 744.3,589.2 757.8,583.6 764,563.1 765.8,557 772.2,556.1 799.4,552.2 821.4,526.4 818.6,514.2 
	817.6,509.5 820.5,505.7 931.7,365.3 933.1,363.7 934.9,362.7 956.3,351.4 936.1,320.4 933.9,317 934.6,313.1 940.5,281.1 
	941.2,276.9 944.7,274.6 1014.8,226.9 "/>
<path fill="#FFFFFF" d="M1030.7,228.2l-65.6-61.4l5.5-29.6l-70-97.7L883,64.1l-30.7,3V41L790,1.6l-26.7,21.7h-84.2l-12.5,23.6h-58.7
	V67l28.5,40.5l19.5,66.5v54.2l-70.6-7L525.4,287l23.7,7.9l7.2,24.6v25.8l-30.9,33.5V414l56,39.1l39,70.4l54.6,16.4l14.2,36.2
	l55,23.9l21.9-8.9l7.5-25.1l31-4.5l27.7-32.5l-3.9-17.1l111.2-140.4l31-16.4l-26.1-40.3l5.8-32.1L1030.7,228.2z M941.2,276.9
	l-0.8,4.1l-5.8,32.1l-0.7,3.9l2.2,3.3l20.2,31.1l-21.3,11.2l-1.9,1l-1.3,1.7L820.5,505.7l-3,3.8l1.1,4.7l2.8,12.2l-22,25.8
	l-27.3,3.9l-6.3,0.9l-1.8,6.1l-6.2,20.5l-13.6,5.5l-47.4-20.6l-12.7-32.4l-1.8-4.5l-4.7-1.4l-50.7-15.2l-37-66.9l-1.1-2l-1.9-1.3
	l-51.7-36.1v-26.1l28.3-30.6l2.7-2.9v-3.9v-25.8v-1.4l-0.4-1.4l-7.2-24.6l-1.5-5l-5-1.7l-9.1-3l46.2-50.8l65.6,6.5l11,1.1v-11V174
	v-1.4l-0.4-1.4l-19.5-66.5l-0.5-1.6l-0.9-1.3l-26.6-37.9v-7h48.7h6l2.8-5.3l9.7-18.3h78.2h3.6l2.8-2.2l21.1-17.1l51.5,32.6V67v11
	l11-1.1l30.7-3l4.5-0.4l2.6-3.7l9.5-13.3l59.4,82.9l-4.7,25.4l-1,5.4l4,3.7l56.5,52.9l-70.1,47.7L941.2,276.9z"/>
</svg>
