<?xml version="1.0" encoding="utf-8"?>
<!-- Generator: Adobe Illustrator 18.1.1, SVG Export Plug-In . SVG Version: 6.00 Build 0)  -->
<svg version="1.1" id="Calque_1" xmlns="http://www.w3.org/2000/svg" xmlns:xlink="http://www.w3.org/1999/xlink" x="0px" y="0px"
	 viewBox="513.1 0 493.1 600" enable-background="new 513.1 0 493.1 600" xml:space="preserve">
<polygon fill="#FFFFFF" points="998.1,292.6 997.5,268.3 993.5,266.3 989.3,264.3 988.2,259.8 986.5,253 981.7,244.6 980.4,242.3 
	980.4,239.7 980.4,230.2 980.4,221.2 989.3,220.3 990.2,220.2 994.7,211.9 992.8,208.2 988.6,210.2 987.2,210.8 985.7,211 
	966.7,213.7 964.7,214 962.8,213.5 957.4,212.1 955.3,211.5 953.5,210 937.6,196.4 928.6,196.9 924,197.1 920.8,193.7 915.3,187.9 
	904.8,192.1 889.2,198.3 891.1,181.6 892.9,166.2 891.3,157.7 890.2,152.4 894,148.7 895.5,147.2 889.3,130.6 877.3,133 853,137.8 
	867.1,117.5 867.2,117.4 856.1,115.9 859.6,106.6 836.9,102.6 834.5,108.7 832.2,114.4 826,114.9 791.4,117.8 787.1,125.4 
	780.9,136.6 771.5,127.7 762.1,118.7 711.7,123.7 702.4,124.6 700.8,115.5 698.4,101.6 682.1,74.1 665.9,66.6 665.4,66.4 
	664.9,66.1 648,55.9 643.2,53 643.2,47.3 643.2,33.2 634.4,13.1 563.2,10.3 558,37.7 557.7,39.7 556.5,41.4 550.1,51 554.8,56.1 
	555.7,57 556.3,58.1 573.9,89.9 575.4,92.6 575.1,95.6 573.7,111.9 573.4,115.5 570.8,118.1 557.2,131.7 558.8,150.8 559.5,158 
	552.7,160.9 525,172.5 525,224.5 534.7,252.7 535.5,255.1 535.1,257.6 531.6,278.3 543.8,298.1 544.6,299.4 545,300.8 550.4,321.1 
	550.5,321.6 550.6,322.1 554.7,348.3 564.1,397.7 564.5,399.6 564.1,401.5 558.4,430 579.1,450.3 599.1,449.1 600.8,449 
	602.4,449.5 633.1,458.2 644.5,448.2 645,447.9 645.4,447.5 656.3,440 664.4,434.4 670.1,442.5 681.6,458.7 713.5,501.6 
	731.9,512.1 737,514.9 737,520.8 737,535.6 737,553.2 737,558.7 732.4,561.6 721.7,568.5 720.5,581.8 734.3,590.1 750.8,586.8 
	753.9,586.2 756.9,587.5 762.9,590.3 772.8,588.7 776.2,588.2 779.2,589.8 782.9,591.9 797.4,587.2 807.2,563.6 810.5,555.6 
	818.9,557.8 837.4,562.5 853.2,558.5 858.8,557.1 862.8,561.1 877,575.4 879.2,577.5 901,509 901.6,506.9 903,505.3 909.1,498.5 
	913.6,493.4 920,495.8 932,500.1 945.4,496.8 946.1,496.7 946.9,496.6 954.4,495.9 959.4,495.5 962.8,499.3 969.9,507.5 
	975.4,509.6 992.1,505.1 987.1,498.2 983.5,493.3 986.2,487.8 997.2,466.1 981.1,425.6 979.5,421.4 981.5,417.4 984.2,412 
	986.5,407.3 991.8,406.6 997.2,405.8 968.8,379.8 964.5,375.8 965.8,370.1 971.2,347.1 972.4,341.9 977.4,340.1 984.9,337.2 "/>
<path fill="#FFFFFF" d="M993.1,344.7l15-50.8l-0.8-31.9l-9.4-4.7l-2.1-8.1l-5.4-9.6v-9.4l6.1-0.7l9.6-17.6l-8.8-16.9l-12.9,6.1
	l-19,2.7l-5.3-1.4l-19-16.2l-12.9,0.7L918,176.1l-16.9,6.7l2-16.9l-2-10.1l6.1-6.1l-11.5-30.5l-20.3,4l9.4-13.6l-14.9-2l3.4-8.8
	l-42.7-7.5l-5.4,13.6l-39.9,3.4l-6.8,12.2l-12.8-12.2l-54.9,5.4L708,98.1l-18.9-31.8l-19-8.8l-16.9-10.2V31.2L641,3.4L554.9,0
	l-6.7,35.8l-10.9,16.3L547.6,63l17.6,31.8l-1.4,16.3L546.8,128l2.1,23.7L515,165.8v60.3l10.2,29.7l-4.1,24.4l14.2,23l5.4,20.3
	l4.1,26.4l9.4,49.5l-6.7,33.9l27.7,27.1l24.4-1.4l35.9,10.2l15.5-13.6l10.9-7.5l11.5,16.3l33.2,44.7l20.3,11.5v14.9v17.6l-14.9,9.6
	l-2.1,24.3l22.4,13.6l20.3-4l8.8,4l12.9-2.1l7.5,4.1l23-7.5l11.5-27.8l20.9,5.4l18.3-4.7l14.2,14.2l1.3,12.8l11.5,4.1l27.8-87.4
	l6.1-6.8l14.9,5.4l16.3-4l7.5-0.7L964,516l10.9,4.1l27.8-7.5l1.3-8.1l-8.8-12.2l12.9-25.7l-17.7-44.7l2.7-5.4l15-2.1v-12.2
	l-32.6-29.8l5.4-23L993.1,344.7z M972.4,341.9l-1.2,5.1l-5.4,23l-1.3,5.7l4.3,4l28.4,26l-5.4,0.7l-5.2,0.7l-2.4,4.7l-2.7,5.4l-2,4
	l1.6,4.2l16,40.6l-10.9,21.7l-2.7,5.4l3.6,4.9l5,6.9l-16.7,4.5l-5.5-2.1l-7.1-8.2l-3.3-3.8l-5.1,0.4l-7.5,0.7l-0.8,0.1l-0.8,0.2
	l-13.3,3.3l-12-4.4l-6.4-2.3l-4.5,5.1l-6.1,6.8l-1.4,1.6l-0.6,2l-21.8,68.6l-2.2-2.2l-14.2-14.2l-4-4l-5.5,1.4l-15.9,4l-18.5-4.8
	l-8.4-2.2l-3.3,8l-9.7,23.5l-14.5,4.7l-3.7-2l-3-1.7l-3.4,0.5l-9.9,1.6l-6-2.8l-2.9-1.3l-3.2,0.6l-16.5,3.3l-13.7-8.3l1.1-13.2
	l10.7-6.9l4.6-3v-5.5v-17.6v-14.9v-5.8l-5.1-2.9l-18.5-10.5l-31.9-42.9l-11.4-16.2l-5.7-8.1l-8.1,5.6l-10.9,7.5l-0.5,0.3l-0.4,0.4
	l-11.4,10l-30.7-8.7l-1.6-0.5l-1.7,0.1l-20,1.2L558.4,430l5.7-28.6l0.4-1.9l-0.4-1.9l-9.4-49.3l-4.1-26.2l-0.1-0.5l-0.1-0.5
	l-5.4-20.3l-0.4-1.4l-0.8-1.3l-12.2-19.8l3.5-20.7l0.4-2.5l-0.8-2.4l-9.7-28.2v-52l27.7-11.6l6.7-2.8l-0.6-7.3l-1.7-19l13.6-13.6
	l2.6-2.6l0.3-3.6l1.4-16.3l0.3-3l-1.5-2.7l-17.6-31.8l-0.6-1.1l-0.9-0.9l-4.8-5.1l6.4-9.7l1.1-1.7l0.4-2l5.1-27.3l71.2,2.8l8.8,20.1
	v14.1V53l4.8,2.9l16.9,10.2l0.5,0.3l0.5,0.2l16.2,7.5l16.4,27.6l2.4,13.8l1.6,9.2l9.2-0.9l50.4-5l9.5,9l9.3,8.8l6.3-11.2l4.2-7.5
	l34.7-2.9l6.2-0.5l2.3-5.7l2.4-6l22.7,4l-3.6,9.3l11.1,1.5l-0.1,0.1L853,137.8l24.3-4.8l12-2.4l6.2,16.5l-1.5,1.5l-3.8,3.8l1,5.2
	l1.7,8.6l-1.8,15.4l-1.9,16.6l15.5-6.2l10.6-4.2l5.4,5.8l3.2,3.4l4.7-0.2l9-0.5l16,13.6l1.7,1.5l2.2,0.6l5.3,1.4l2,0.5l2-0.3l19-2.7
	l1.5-0.2l1.4-0.6l4.2-2l1.9,3.7l-4.5,8.3l-0.9,0.1l-8.9,1v9v9.4v2.6l1.3,2.3l4.8,8.4l1.7,6.8l1.1,4.5l4.1,2l4,2l0.6,24.3l-13.1,44.6
	l-7.5,2.9L972.4,341.9z"/>
</svg>
