<?xml version="1.0" encoding="utf-8"?>
<!-- Generator: Adobe Illustrator 18.1.1, SVG Export Plug-In . SVG Version: 6.00 Build 0)  -->
<svg version="1.1" id="Calque_1" xmlns="http://www.w3.org/2000/svg" xmlns:xlink="http://www.w3.org/1999/xlink" x="0px" y="0px"
	 viewBox="769.6 0 749.6 600" enable-background="new 769.6 0 749.6 600" xml:space="preserve">
<polygon fill="#FFFFFF" points="1476.6,333.1 1474.8,327.5 1453.6,259.5 1452.3,255.1 1454.7,251.2 1478.8,212.5 1369.1,127.1 
	1365.3,124.1 1365.3,119.2 1365.3,82.4 1343.7,78.4 1210.5,94.3 1208.1,94.6 1205.9,93.8 1070.4,45.1 1049,52.7 1044.9,54.1 
	1041.1,52.1 998.3,30.2 947.6,43.3 945.8,43.8 944,43.6 874.5,36.1 869.2,35.6 866.7,30.8 863.7,25 842.2,85 840.4,90 835.2,91.3 
	782.4,104.3 822.8,231 823.1,232.1 823.2,233.2 828,287.8 864.4,346 890.3,366.4 892.7,368.3 893.6,371.1 905.2,405.7 935.4,411.3 
	940.1,412.2 942.4,416.4 960.1,449.3 961.4,451.8 961.2,454.5 959.2,498.3 1009.6,498.8 1029.4,478.5 1037.5,470.3 1044.5,479.4 
	1054.4,492.2 1075.6,483.1 1078.5,481.9 1081.5,482.5 1106.3,487.6 1110.8,488.6 1113,492.6 1131.1,525.8 1148.6,537.1 
	1153.7,540.3 1153.2,546.2 1150.3,583.9 1150,588.2 1148.8,589.1 1211.6,587.7 1239.5,571.5 1247.4,567 1252.7,574.4 1258.9,583.2 
	1324.5,530.7 1329.4,475.2 1330.2,466.8 1338.5,466.1 1442.8,457.4 1458,380.3 1458.6,377.3 1460.9,375.1 1498.9,337.8 
	1482.3,334.3 "/>
<path fill="#FFFFFF" d="M1463.2,256.5l28.9-46.3l-116.8-91V74.1l-31.2-5.9l-134.8,16.1l-138.8-49.9l-24.8,8.7l-46.1-23.7l-54.4,14.1
	l-69.5-7.5L862,0.2l-29.2,81.4l-63.2,15.6l43.7,136.9l5,57l38.6,61.7l27.3,21.5l13.4,40.2l36,6.7l17.7,32.9l-2.6,54.1l65.1,0.6
	l22.8-23.3l14.7,19l28.2-12.1l24.7,5.1l19.3,35.4l19.7,12.7l-2.9,37.7l-20,16.6l94.1-2.1l30.2-17.5l12.4,17.5l77.1-61.8l5.3-59.8
	l111.8-9.4l16.7-84.5l51.4-50.3l-34.8-7.5L1463.2,256.5z M1460.9,375.1l-2.2,2.2l-0.6,3l-15.3,77.1l-104.2,8.7l-8.4,0.7l-0.7,8.4
	l-4.9,55.5l-65.5,52.5l-6.2-8.8l-5.3-7.5l-7.9,4.6l-27.9,16.2l-62.8,1.4l1.2-1l0.3-4.2l2.9-37.7l0.5-5.9l-5-3.2l-17.6-11.3
	l-18.1-33.1l-2.2-4.1l-4.5-0.9l-24.7-5.1l-3.1-0.6l-2.9,1.2l-21.1,9.1l-10-12.8l-7-9.1l-8,8.2l-19.8,20.3l-50.4-0.5l2.1-43.8
	l0.1-2.8l-1.3-2.4l-17.7-32.9l-2.3-4.2l-4.7-0.9l-30.2-5.6l-11.6-34.6l-0.9-2.8l-2.3-1.8L864.4,346L828,287.8l-4.8-54.6l-0.1-1.1
	l-0.3-1.1l-40.4-126.7l52.8-13l5.2-1.3l1.8-5.1l21.5-60l3.1,5.8l2.5,4.7l5.3,0.6l69.5,7.5l1.8,0.2l1.8-0.5l50.8-13.1l42.7,21.9
	l3.8,2l4.1-1.4l21.5-7.6l135.5,48.7l2.2,0.8l2.3-0.3l133.2-15.9l21.6,4v36.8v4.9l3.9,3l109.7,85.4l-24.1,38.7l-2.4,3.9l1.4,4.4
	l21.2,68l1.7,5.6l5.7,1.2l16.6,3.6L1460.9,375.1z"/>
</svg>
