<?xml version="1.0" encoding="utf-8"?>
<!-- Generator: Adobe Illustrator 18.1.1, SVG Export Plug-In . SVG Version: 6.00 Build 0)  -->
<svg version="1.1" id="Calque_1" xmlns="http://www.w3.org/2000/svg" xmlns:xlink="http://www.w3.org/1999/xlink" x="0px" y="0px"
	 viewBox="738.3 0 718.3 600" enable-background="new 738.3 0 718.3 600" xml:space="preserve">
<path fill="#FFFFFF" d="M1369.6,276.5l-1.9,0l-1.8-0.7l-62.3-23.9l-3.4-1.3l-1.8-3.2l-14.9-27l-1.3-2.3v-2.6v-25V174v-1l0.2-1
	l7.8-36.8l1.6-7.6l7.8-0.3l17.8-0.7l1.6-3.5l-13.5-12.8l-2.1-2l-0.7-2.8l-4.7-18.7l-41.1-11l-5.9-1.6l-1.3-6l-6.5-29.8l-29.1-23.1
	l-29,4.5l-4.7,0.7l-3.5-3.2l-8-7.3l-19.3,2.5v30c6.6,2.8,14.2,6.1,16.7,7.7c7.1,4.7,6,14,5.6,17.1c-0.5,3.7-1.3,7-1.4,7.3l-2,7.4
	h-7.7h-26.2l-51.5,19.8l-7.7,16.1l-1.9,4l-4.3,1.3l-36.6,10.7l-8.3,46.8l-1.5,8.3h-8.4h-21.4l-3.3,22.8l14.4,20.4h13.5h7.6l2.1,7.3
	l6.2,21.8l2.4,8.6l-8.3,3.4l-25.9,10.6l-8.1,3.3l-4.4-7.5l-15.8-27.3h-22.3h-6.9l-2.4-6.5l-4.4-11.5L866.6,246l-7.9,1.3l-3-7.5
	l-6-15l-23.2,14l8,7.6l2.3,2.2l0.6,3.1l7,35.3l15.2,35.2l2.6,6.2l-4.7,4.8l-12.1,12.4l-20.1,48.1l-2.1,5.1l-5.4,0.9l-35.1,6.1
	l-6.8,27.7l-1,4.2l-3.8,2.1l-22.9,12.8v10l64.7,6.7l5.1,0.5l2.5,4.5l15.5,27.2l21.7,5.8l6.8-24.7l2.3-8.3l8.5,1l9.4,1.1l4.9,0.6
	l2.5,4.2l12.8,21.4l50.7,2.8l5.6,0.3l2.7,4.9l12.2,22.7l52.2,8.6l2.8,0.5l2.1,1.9l40.8,35.6l11.5-8.1l5-3.5l5.4,2.8l35.8,18.5
	l108.7-52.9l-1.4-16l-0.3-2.8l1.3-2.5l15.6-31.2l2.8-5.5h6.2h21l15.4-34.5l2.6-5.9h6.5h26.9l12.9-27.4l1.6-3.3l3.3-1.5l25.2-11.5
	l28.3-19.7l6.3-24.5l0.3-1.3l0.6-1.1l29.4-52.2l-11-20L1369.6,276.5z"/>
<path fill="#FFFFFF" d="M1369.4,266.5l-62.3-23.9l-14.9-27v-25V174l7.8-36.8l23.9-1l7.3-15.5l-18.7-17.8l-6.2-24.4L1259.6,66
	l-7.3-33.3L1217,4.7l-33.3,5.1l-11.4-10.3l-32.6,4.2v45.6c0,0,18.1,7.4,21.2,9.4c3.1,2,0,13.4,0,13.4h-28.1l-57,21.9l-9.4,19.7
	l-42.6,12.5l-9.4,52.9h-30.1l-5.1,35.3l19.6,28h18.7l6.2,21.8l-25.9,10.6l-18.7-32.3h-28.1l-7.3-19.2l-78.9,13l-10.3-25.9L810,237.1
	l17.6,16.6l7.3,36.4l15.6,36.2L837,340l-20.8,49.8l-41.5,7.3l-8.3,34l-28.1,15.7v24.9l73.7,7.6l17.6,30.8l35.3,9.4l9.4-34.2l9.4,1.1
	l15.6,25.9l56,3.1l14.5,27l57.1,9.4l46.7,40.8l17.9-12.7l40.2,20.8l119.4-58.1l-2-22.8l15.6-31.2h27.5l18-40.4h33.3l15.6-33.2
	l26-11.8l32.1-22.3l7.3-28.1l32.1-57.1l-16.6-30.1L1369.4,266.5z M1415.8,347.7l-0.6,1.1l-0.3,1.3l-6.3,24.5l-28.3,19.7l-25.2,11.5
	l-3.3,1.5l-1.6,3.3l-12.9,27.4h-26.9h-6.5l-2.6,5.9l-15.4,34.5h-21h-6.2l-2.8,5.5l-15.6,31.2l-1.3,2.5l0.3,2.8l1.4,16l-108.7,52.9
	l-35.8-18.5l-5.4-2.8l-5,3.5l-11.5,8.1l-40.8-35.6l-2.1-1.9l-2.8-0.5l-52.2-8.6l-12.2-22.7l-2.7-4.9l-5.6-0.3l-50.7-2.8l-12.8-21.4
	l-2.5-4.2l-4.9-0.6l-9.4-1.1l-8.5-1l-2.3,8.3l-6.8,24.7l-21.7-5.8l-15.5-27.2l-2.5-4.5l-5.1-0.5l-64.7-6.7v-10l22.9-12.8l3.8-2.1
	l1-4.2l6.8-27.7l35.1-6.1l5.4-0.9l2.1-5.1l20.1-48.1l12.1-12.4l4.7-4.8l-2.6-6.2l-15.2-35.2l-7-35.3l-0.6-3.1l-2.3-2.2l-8-7.6
	l23.2-14l6,15l3,7.5l7.9-1.3l70.9-11.7l4.4,11.5l2.4,6.5h6.9h22.3l15.8,27.3l4.4,7.5l8.1-3.3l25.9-10.6l8.3-3.4l-2.4-8.6l-6.2-21.8
	l-2.1-7.3h-7.6h-13.5l-14.4-20.4l3.3-22.8h21.4h8.4l1.5-8.3l8.3-46.8l36.6-10.7l4.3-1.3l1.9-4l7.7-16.1l51.5-19.8h26.2h7.7l2-7.4
	c0.1-0.4,1-3.6,1.4-7.3c0.4-3.1,1.5-12.4-5.6-17.1c-2.5-1.7-10.1-5-16.7-7.7v-30L1169,10l8,7.3l3.5,3.2l4.7-0.7l29-4.5l29.1,23.1
	l6.5,29.8l1.3,6l5.9,1.6l41.1,11l4.7,18.7l0.7,2.8l2.1,2L1319,123l-1.6,3.5l-17.8,0.7l-7.8,0.3l-1.6,7.6l-7.8,36.8l-0.2,1v1v16.6v25
	v2.6l1.3,2.3l14.9,27l1.8,3.2l3.4,1.3l62.3,23.9l1.8,0.7l1.9,0l64.5-1l11,20L1415.8,347.7z"/>
</svg>
