<?xml version="1.0" encoding="utf-8"?>
<!-- Generator: Adobe Illustrator 18.1.1, SVG Export Plug-In . SVG Version: 6.00 Build 0)  -->
<svg version="1.1" id="Calque_1" xmlns="http://www.w3.org/2000/svg" xmlns:xlink="http://www.w3.org/1999/xlink" x="0px" y="0px"
	 viewBox="642.6 0 622.6 600" enable-background="new 642.6 0 622.6 600" xml:space="preserve">
<polygon fill="#FFFFFF" points="1218.7,240.2 1218.7,234.9 1218.7,202.2 1190.2,181.2 1178.3,172.4 1190.9,164.6 1213,151.1 
	1217.9,131.2 1182.1,83 1178.6,78.2 1181,72.9 1190.3,52.6 1174.5,43.9 1168.1,40.5 1169.4,33.4 1171.5,21.8 1109.3,36.9 1090.7,46 
	1093.1,70 1093.6,75 1089.9,78.4 1077.5,89.6 1075.2,91.7 1072,92.1 1054,94.3 1042.8,95.7 1042.8,84.4 1042.8,77 1042.8,69.8 
	1049.6,67.5 1060.8,63.8 1060.8,54.2 1060.8,53.1 1061.1,51.9 1064.5,37.9 1056.4,33.4 1030.1,61.1 1027.1,64.2 1022.8,64.2 
	1003.1,64.2 1000.5,64.2 998.2,63 983.9,55 968.5,68.6 960.2,76 953.7,66.9 931,34.8 917.7,17.5 888.2,10.9 871.8,10.9 849.6,74.3 
	843.6,91.5 832.3,77.2 816.6,57.4 779,58.1 771.5,80.2 768.6,88.8 759.8,86.8 692.5,71.1 674.7,71.8 680.9,130.7 681.7,138.8 
	674,141.3 658.4,146.3 665.6,157.9 668.7,162.7 666,167.8 655.1,188.4 705.2,247.8 709.2,252.6 706.6,258.4 695.5,282.9 
	719.9,290.6 747.3,281.6 754.5,279.3 758.7,285.5 783.7,322.5 787.2,327.6 784.1,333 750.2,393.4 749,395.6 747,396.9 689.1,434.9 
	722.9,539.7 763.2,554.1 839,545.6 843.3,545.1 846.6,547.9 860.4,559.5 901.9,551.4 905.4,550.7 908.6,552.4 974.5,588.3 
	1013.6,560.9 997.6,533.3 975.1,527.6 965.4,525.1 967.8,515.4 972.9,495.3 975.6,484.4 986.2,488.4 993.7,491.3 994.2,477.5 
	994.2,476.7 994.4,475.9 996.5,465.7 997.2,462.3 999.9,460 1028.2,436.3 1029.2,435.5 1030.5,434.9 1113.6,396.6 1111.1,372.1 
	1098,369.1 1089.1,367 1090.3,358 1091.8,347.3 1093.4,335.7 1104.6,339.1 1136.6,348.9 1208.8,327.8 1249.5,295.7 1254.8,265 
	1223,243.2 "/>
<path fill="#FFFFFF" d="M1228.7,197.2l-32.6-24l25.6-15.7l7-28.5l-38.6-52l13.1-28.8l-23.9-13.1l4.8-26.7l-78.2,19l-25.8,12.7
	l3.1,30.9l-12.3,11.2l-18,2.2V77l18-6V54.2l5.2-21.4l-21.5-12l-31.6,33.4h-19.7l-20.6-11.5l-20.7,18.3L939,28.8L923.4,8.5l-34.2-7.6
	h-24.6L840.1,71l-18.8-23.7l-49.5,0.9L762,77l-68.5-15.9l-29.8,1.1l7.3,69.6l-27.8,9l14,22.5l-14,26.6l54.4,64.5L681.7,289
	l38.3,12.1l30.5-10l25,37l-33.9,60.4l-64.2,42.2l37.6,116.8l47.1,16.8l78.1-8.7l17.5,14.8l46.2-9.1l71.4,38.8l51.7-36.2l-22.7-39.2
	l-26.7-6.7l5.1-20.1l20.6,7.9l1.1-27.7l2.1-10.2l28.4-23.7l89.6-41.3l-3.9-38.7l-20.1-4.6l1.5-10.6l34.9,10.6l76.8-22.5l45.2-35.7
	l7.1-40.7l-37-25.5V197.2z M1254.8,265l-5.3,30.6l-40.7,32.2l-72.1,21.1l-32-9.8l-11.2-3.4l-1.6,11.6l-1.5,10.6l-1.3,9.1l8.9,2.1
	l13.1,3l2.5,24.5l-83.1,38.3l-1.2,0.6l-1,0.9L999.9,460l-2.7,2.2l-0.7,3.4l-2.1,10.2l-0.2,0.8l0,0.8l-0.5,13.8l-7.5-2.9l-10.5-4.1
	l-2.8,10.9l-5.1,20.1l-2.4,9.7l9.7,2.4l22.6,5.7l16,27.6l-39.1,27.4l-65.9-35.8l-3.2-1.7l-3.5,0.7l-41.5,8.1l-13.8-11.7l-3.3-2.8
	l-4.3,0.5l-75.8,8.5l-40.3-14.3l-33.8-104.9l57.8-38l2-1.3l1.2-2.1l33.9-60.4l3-5.4l-3.5-5.1l-25-37l-4.2-6.3l-7.2,2.4l-27.4,9
	l-24.4-7.7l11.1-24.5l2.6-5.8l-4.1-4.8l-50.1-59.4l10.9-20.6l2.7-5.1l-3-4.9l-7.2-11.6l15.6-5l7.7-2.5l-0.8-8.1l-6.2-58.9l17.8-0.6
	l67.2,15.6l8.8,2l2.9-8.6l7.5-22.1l37.6-0.7l15.7,19.8l11.3,14.2l6-17.1l22.2-63.4h16.4l29.5,6.6L931,34.8l22.8,32.1l6.5,9.1
	l8.3-7.4L983.9,55l14.4,8l2.3,1.3h2.6h19.7h4.3l3-3.1l26.3-27.8l8.1,4.5l-3.4,14l-0.3,1.2v1.2v9.6l-11.2,3.7l-6.8,2.3V77v7.4v11.3
	l11.2-1.4l18-2.2l3.1-0.4l2.3-2.1l12.3-11.2l3.7-3.4l-0.5-5l-2.4-24l18.6-9.1l62.2-15.1l-2.1,11.5l-1.3,7.1l6.3,3.5l15.8,8.6
	l-9.2,20.3l-2.4,5.4l3.5,4.7l35.8,48.2l-4.9,19.9l-22.1,13.6l-12.7,7.8l11.9,8.8l28.5,21v32.7v5.3l4.3,3L1254.8,265z"/>
</svg>
