<?xml version="1.0" encoding="utf-8"?>
<!-- Generator: Adobe Illustrator 17.1.0, SVG Export Plug-In . SVG Version: 6.00 Build 0)  -->
<!DOCTYPE svg PUBLIC "-//W3C//DTD SVG 1.1//EN" "http://www.w3.org/Graphics/SVG/1.1/DTD/svg11.dtd">
<svg version="1.1" xmlns="http://www.w3.org/2000/svg" xmlns:xlink="http://www.w3.org/1999/xlink" x="0px" y="0px"
	 viewBox="0 0 148.965 77.022" enable-background="new 0 0 148.965 77.022" xml:space="preserve">
<g id="_x34_">
	<path fill="#F0DDBF" d="M26.565,42.316c0.856,1.458,2.368,2.408,4.053,2.545l91.093,7.436c0,0,26.086,0.482,19.505-8.771
		c-8.864-12.463-22.959-12.556-22.959-12.556l-82.304-6.762L25.701,12.993c-0.969-1.372-2.496-2.244-4.169-2.38L10.329,9.698
		c-2.14-0.175-3.59,2.134-2.503,3.986L26.565,42.316z"/>
	<path fill="#E67B59" d="M95.173,43.296L64.928,60.659c-1.397,0.802-3.024,1.105-4.616,0.859l-20.021-1.616
		c-2.093-0.323-2.728-3.03-0.997-4.25l24.669-15.515L95.173,43.296z"/>
</g>
<g id="nuages2">
</g>
<g id="nuages1">
</g>
<g id="_x33_">
</g>
<g id="_x32_">
</g>
<g id="_x31_">
</g>
</svg>
