<?xml version="1.0" encoding="utf-8"?>
<!-- Generator: Adobe Illustrator 17.1.0, SVG Export Plug-In . SVG Version: 6.00 Build 0)  -->
<!DOCTYPE svg PUBLIC "-//W3C//DTD SVG 1.1//EN" "http://www.w3.org/Graphics/SVG/1.1/DTD/svg11.dtd">
<svg version="1.1" xmlns="http://www.w3.org/2000/svg" xmlns:xlink="http://www.w3.org/1999/xlink" x="0px" y="0px"
	 viewBox="0 0 62.706 105.964" enable-background="new 0 0 62.706 105.964" xml:space="preserve">
<g id="_x34_">
</g>
<g id="nuages2">
</g>
<g id="nuages1">
</g>
<g id="_x33_">
	<g>
		<path fill="#F18443" d="M57.332,38.612h-0.006c0.903-2.736,1.399-5.657,1.399-8.696C58.725,14.605,46.312,2.192,31,2.192
			S3.276,14.605,3.276,29.916c0,3.039,0.496,5.96,1.399,8.696H4.669l0.039,0.095c0.381,1.14,0.829,2.249,1.348,3.318l12.767,31.417
			h24.321l12.785-31.384c0.527-1.079,0.98-2.199,1.365-3.352L57.332,38.612z"/>
		<path fill="#364351" d="M35.016,101.657h-8.067c-2.628,0-4.758-2.13-4.758-4.758V83.971h17.582V96.9
			C39.774,99.527,37.643,101.657,35.016,101.657z"/>
		<g>
			
				<rect x="40.748" y="72.254" transform="matrix(0.9524 0.3048 -0.3048 0.9524 25.9043 -8.8092)" fill="#364351" width="0.841" height="12.628"/>
		</g>
		<g>
			<polygon fill="#364351" points="22.327,84.858 18.472,72.683 19.274,72.427 23.129,84.601 			"/>
		</g>
	</g>
</g>
<g id="_x32_">
</g>
<g id="_x31_">
</g>
</svg>
