<?xml version="1.0" encoding="utf-8"?>
<!-- Generator: Adobe Illustrator 17.1.0, SVG Export Plug-In . SVG Version: 6.00 Build 0)  -->
<!DOCTYPE svg PUBLIC "-//W3C//DTD SVG 1.1//EN" "http://www.w3.org/Graphics/SVG/1.1/DTD/svg11.dtd">
<svg version="1.1" xmlns="http://www.w3.org/2000/svg" xmlns:xlink="http://www.w3.org/1999/xlink" x="0px" y="0px"
	 viewBox="0 0 148.965 77.022" enable-background="new 0 0 148.965 77.022" xml:space="preserve">
<g id="_x34_">
</g>
<g id="nuages2">
</g>
<g id="nuages1">
	<path fill="#B4E0F3" d="M120.802,67.284c-15.311,0-30.622,0-45.933,0c-11.855,0-23.71,0-35.565,0c-7.335,0-17.472,1.851-24.601,0
		c-2.883-0.749-1.85,0.363-3.696-1.803C7.642,61.531,8.1,51.932,9.647,47.373c2.067-6.09,7.008-11.134,13.053-13.327
		c6.713-2.434,14.194-1.411,21.149-3.03c11.665-2.717,14.726-12.436,23.4-18.752c7.583-5.521,18.397-6.814,26.762-2.56
		c10.837,5.51,19.362,28.599,32.531,27.473C140.978,35.942,153.558,67.284,120.802,67.284z"/>
</g>
<g id="_x33_">
</g>
<g id="_x32_">
</g>
<g id="_x31_">
</g>
</svg>
