<?xml version="1.0" encoding="utf-8"?>
<!-- Generator: Adobe Illustrator 17.1.0, SVG Export Plug-In . SVG Version: 6.00 Build 0)  -->
<!DOCTYPE svg PUBLIC "-//W3C//DTD SVG 1.1//EN" "http://www.w3.org/Graphics/SVG/1.1/DTD/svg11.dtd">
<svg version="1.1" xmlns="http://www.w3.org/2000/svg" xmlns:xlink="http://www.w3.org/1999/xlink" x="0px" y="0px"
	 viewBox="0 0 220 220" enable-background="new 0 0 220 220" xml:space="preserve">
<g id="_x34_">
	<g>
		<path fill="#48B27B" d="M114.559,104.022l20.486,11.53l22.513-10.767c2.662-1.273,3.787-4.462,2.514-7.124
			c-1.272-2.661-4.459-3.788-7.124-2.514l-17.503,8.371L64.035,63.5c-2.572-1.447-5.828-0.535-7.275,2.035
			c-1.447,2.571-0.535,5.829,2.036,7.276l36.154,20.175 M89.286,182.15"/>
		<g>
			<path fill="#48B27B" d="M81.476,117.377c0,0-15.752,9.293-18.744,11.262c-2.993,1.969-3.544,5.749-3.544,5.749l-5.198,26.541
				c0,0-0.473,6.064,5.119,7.403s7.876-4.253,7.876-4.253l5.277-25.518l13.94-8.27c0,0-4.017,12.601-3.938,14.57
				s1.654,3.387,1.654,3.387l17.403,20.635c0,0,3.468,2.757,8.036-0.394c4.568-3.15,1.26-8.742,1.26-8.742l-14.491-17.248
				c0,0,7.324-21.816,8.112-24.494l7.181-24.032l-19.671-8.884L81.476,117.377z"/>
		</g>
		<circle fill="#48B27B" cx="110.767" cy="70.045" r="11.371"/>
		<circle fill="#48B27B" cx="75.865" cy="53.621" r="4.422"/>
		
			<ellipse transform="matrix(0.9231 0.3845 -0.3845 0.9231 38.8247 -59.957)" fill="#48B27B" cx="169.364" cy="67.121" rx="9.665" ry="14.055"/>
		<g>
			
				<rect x="159.129" y="76.221" transform="matrix(0.9151 0.4033 -0.4033 0.9151 48.7701 -57.2065)" fill="#48B27B" width="2.137" height="21.92"/>
		</g>
	</g>
</g>
<g id="nuages2">
</g>
<g id="nuages1">
</g>
<g id="_x33_">
</g>
<g id="_x32_">
</g>
<g id="_x31_">
</g>
</svg>
