<?xml version="1.0" encoding="utf-8"?>
<!-- Generator: Adobe Illustrator 17.1.0, SVG Export Plug-In . SVG Version: 6.00 Build 0)  -->
<!DOCTYPE svg PUBLIC "-//W3C//DTD SVG 1.1//EN" "http://www.w3.org/Graphics/SVG/1.1/DTD/svg11.dtd">
<svg version="1.1" xmlns="http://www.w3.org/2000/svg" xmlns:xlink="http://www.w3.org/1999/xlink" x="0px" y="0px"
	 viewBox="0 0 220 220" enable-background="new 0 0 220 220" xml:space="preserve">
<g id="_x34_">
	<g>
		<path fill="#48B27B" d="M162.716,69.838c-0.184-14.618-5.368-28.83-14.666-40.097l-2.021-2.448l-36.967,38.95H66.927
			c-3.103,0-5.617,2.515-5.617,5.617s2.514,5.617,5.617,5.617H83.9v49.871h0.361l-11.804,51.724
			c-0.922,4.033,1.602,8.049,5.636,8.969c0.56,0.128,1.121,0.189,1.673,0.189c3.416,0,6.502-2.353,7.294-5.825l12.565-55.058h3.4
			l11.517,54.928c0.741,3.53,3.855,5.955,7.324,5.955c0.508,0,1.026-0.052,1.545-0.161c4.049-0.849,6.641-4.819,5.793-8.868
			l-11.473-54.721V86.805l26.85,28.721l2.046-2.314c9.621-10.883,15.227-24.655,16.005-39.101L162.716,69.838z M145.677,35.827
			c6.528,8.859,10.434,19.437,11.263,30.416h-40.132L145.677,35.827z M144.408,107.117L117.73,78.58v-1.102h38.939
			C155.403,88.29,151.203,98.558,144.408,107.117z"/>
		<circle fill="#48B27B" cx="98.433" cy="50.703" r="12.938"/>
	</g>
</g>
<g id="nuages2">
</g>
<g id="nuages1">
</g>
<g id="_x33_">
</g>
<g id="_x32_">
</g>
<g id="_x31_">
</g>
</svg>
