<?xml version="1.0" encoding="utf-8"?>
<!-- Generator: Adobe Illustrator 17.1.0, SVG Export Plug-In . SVG Version: 6.00 Build 0)  -->
<!DOCTYPE svg PUBLIC "-//W3C//DTD SVG 1.1//EN" "http://www.w3.org/Graphics/SVG/1.1/DTD/svg11.dtd">
<svg version="1.1" xmlns="http://www.w3.org/2000/svg" xmlns:xlink="http://www.w3.org/1999/xlink" x="0px" y="0px"
	 viewBox="0 0 220 220" enable-background="new 0 0 220 220" xml:space="preserve">
<g id="_x34_">
	<g>
		<path fill="#48B27B" d="M94.124,70.866c-2.863-0.848-5.903,0.614-7.028,3.38l-14.112,34.689c0,0-1.337,2.985-0.4,6.171
			s9.653,29.147,9.653,29.147l-17.244,20.524c0,0-3.936,6.654,1.499,10.403c5.436,3.749,9.562,0.469,9.562,0.469l20.709-24.554
			c0,0,1.874-1.687,1.968-4.03s-4.686-17.338-4.686-17.338l16.588,9.84l6.279,30.365c0,0,2.718,6.654,9.372,5.061
			c6.654-1.593,6.092-8.81,6.092-8.81l-6.185-31.583c0,0-0.656-4.499-4.217-6.841c-3.561-2.343-22.305-13.402-22.305-13.402
			l12.183-24.742l19.265,18.424c1.31,1.253,3.278,1.521,4.875,0.665l22.157-11.873c0,0,3.468-2.812,0.469-6.935
			c-2.999-4.124-7.029-1.218-7.029-1.218l-16.495,8.154c0,0-16.495-16.307-18.556-18.181s-10.684-4.311-10.684-4.311L94.124,70.866z
			"/>
		<circle fill="#48B27B" cx="162.581" cy="75.694" r="11.899"/>
		<path fill="#48B27B" d="M155.2,91.509c0,0,3.208-3.69-1.258-7.644l10.596,3.728c0,0-4.368,1.054-6.025,3.916H155.2z"/>
		<circle fill="#48B27B" cx="111.727" cy="54.909" r="14.463"/>
		<circle fill="#48B27B" cx="150.682" cy="52.694" r="3.042"/>
	</g>
</g>
<g id="nuages2">
</g>
<g id="nuages1">
</g>
<g id="_x33_">
</g>
<g id="_x32_">
</g>
<g id="_x31_">
</g>
</svg>
