<?xml version="1.0" encoding="utf-8"?>
<!-- Generator: Adobe Illustrator 17.1.0, SVG Export Plug-In . SVG Version: 6.00 Build 0)  -->
<!DOCTYPE svg PUBLIC "-//W3C//DTD SVG 1.1//EN" "http://www.w3.org/Graphics/SVG/1.1/DTD/svg11.dtd">
<svg version="1.1" xmlns="http://www.w3.org/2000/svg" xmlns:xlink="http://www.w3.org/1999/xlink" x="0px" y="0px"
	 viewBox="0 0 220 220" enable-background="new 0 0 220 220" xml:space="preserve">
<g id="_x34_">
	<g>
		<circle fill="#48B27B" cx="109.483" cy="53.998" r="8.949"/>
		<path fill="#48B27B" d="M174.443,77.329l-19.975-13.264c0,0,2.717-2.157,0.4-4.474c-2.317-2.317-5.114,0.959-5.114,0.959
			l-31.002,32.52h-15.421l3.15-9.787l12.031,3.794c0,0,3.914,1.414,5.392-1.891c1.236-2.763-2.356-4.581-2.356-4.581l-13.024-5.593
			c0,0-0.719-10.227-4.954-11.266c-4.235-1.039-7.431,2.317-9.348,5.593S87.191,93.07,87.191,93.07H62.175l-0.026,0.015
			c-11.46-0.121-15.778,7.666-16.451,11.857l-0.049,16.666c0,2.115,1.714,3.829,3.829,3.829c2.115,0,3.829-1.714,3.829-3.829V105.93
			c0.222-0.892,1.361-4.05,5.93-4.952l0.229,24.373l-5.035,7.591l0.001,34.917c0,0-0.24,4.89,5.833,4.89
			c6.072,0,6.232-5.05,6.232-5.05v-30.682l5.913-7.91l0.08,9.508l12.613,29.38c0,0,2.963,6.905,8.986,4.132
			c5.132-2.363,2.851-8.263,2.851-8.263l-11.985-27.486l5.913-9.268l30.602,0.16c0,0,0.08,37.553,0,39.471s0.87,6.125,5.913,5.993
			c6.051-0.159,5.901-5.739,5.901-5.739l-0.068-12.318l6.712,11.426c0,0,3.356,5.761,9.029,2.477c4.206-2.435,1.119-8.15,1.119-8.15
			l-15.9-34.437l13.698-27.474l0.48-0.004c0.105,0.012,1.005,0.106,2.329,0.106c2.623,0,6.909-0.375,9.954-2.518
			c3.157-2.221,4.764-6.114,5.48-8.437c1.961,0.496,6.585,1.341,9.288-2.263C178.518,81.245,174.443,77.329,174.443,77.329z
			 M159.493,94.478c-3.439,2.419-9.077,2.199-10.555,2.093l5.928-11.811c0,0,6.453,1.655,9.319,2.397
			C163.536,89.227,162.128,92.624,159.493,94.478z"/>
	</g>
</g>
<g id="nuages2">
</g>
<g id="nuages1">
</g>
<g id="_x33_">
</g>
<g id="_x32_">
</g>
<g id="_x31_">
</g>
</svg>
