<?xml version="1.0" encoding="utf-8"?>
<!-- Generator: Adobe Illustrator 17.1.0, SVG Export Plug-In . SVG Version: 6.00 Build 0)  -->
<!DOCTYPE svg PUBLIC "-//W3C//DTD SVG 1.1//EN" "http://www.w3.org/Graphics/SVG/1.1/DTD/svg11.dtd">
<svg version="1.1" xmlns="http://www.w3.org/2000/svg" xmlns:xlink="http://www.w3.org/1999/xlink" x="0px" y="0px"
	 viewBox="0 0 220 220" enable-background="new 0 0 220 220" xml:space="preserve">
<g id="_x34_">
	<path fill="#48B27B" d="M175.032,55.117c-2.619-2.199-6.877-1.591-9.516,1.315l-9.111,10.026l-7.778-7.832l-10.043,9.497V56.354
		l-9.295-0.072V45.538c0-3.584-2.823-6.729-6.485-6.838c-3.789-0.113-6.895,2.156-6.895,4.88l0,28.056
		c-1.232-1.056-3.513-2.594-6.54-2.783c-2.825-0.177-16.576-0.139-26.957-0.082c-6.663,0.037-12.041,5.449-12.041,12.112v33.021
		c0,4.691,3.224,10.723,7.575,11.82l-6.706,6.455c-1.22,1.175-1.91,2.796-1.91,4.49v33.952c0,3.663,2.823,6.858,6.485,6.967
		c3.789,0.113,6.895-2.924,6.895-6.687v-11.538h9.779V139.28l14.842-14.26l32.257,32.431l5.557-5.97l16.108,15.493
		c1.297,1.248,2.968,1.869,4.637,1.869c1.679,0,3.357-0.628,4.648-1.878c2.742-2.652,2.528-7.193-0.222-9.838l-44.75-44.279
		l49.432-49.28C177.709,61.315,177.742,57.393,175.032,55.117z"/>
	<circle fill="#48B27B" cx="52.274" cy="82" r="13.042"/>
	<circle fill="#48B27B" cx="52.274" cy="125.083" r="13.042"/>
	<polygon fill="#FFFFFF" points="88.436,115.178 88.436,103.675 100.164,91.946 102.23,89.616 108.491,95.876 	"/>
	<polygon fill="#FFFFFF" points="122.365,109.387 115.583,102.605 115.583,91.656 127.858,103.768 	"/>
</g>
<g id="nuages2">
</g>
<g id="nuages1">
</g>
<g id="_x33_">
</g>
<g id="_x32_">
</g>
<g id="_x31_">
</g>
</svg>
