<?xml version="1.0" encoding="utf-8"?>
<!-- Generator: Adobe Illustrator 17.1.0, SVG Export Plug-In . SVG Version: 6.00 Build 0)  -->
<!DOCTYPE svg PUBLIC "-//W3C//DTD SVG 1.1//EN" "http://www.w3.org/Graphics/SVG/1.1/DTD/svg11.dtd">
<svg version="1.1" xmlns="http://www.w3.org/2000/svg" xmlns:xlink="http://www.w3.org/1999/xlink" x="0px" y="0px"
	 viewBox="0 0 220 220" enable-background="new 0 0 220 220" xml:space="preserve">
<g id="_x34_">
	<g>
		<path fill="#48B27B" d="M94.88,70.084c-2.917-0.864-6.014,0.626-7.16,3.444l-14.377,35.341c0,0-1.363,3.041-0.408,6.287
			c0.955,3.246,9.835,29.694,9.835,29.694l-17.568,20.91c0,0-4.01,6.779,1.528,10.598s9.742,0.477,9.742,0.477l21.098-25.016
			c0,0,1.91-1.719,2.005-4.106c0.095-2.387-4.774-17.664-4.774-17.664l16.9,10.025l6.397,30.936c0,0,2.769,6.779,9.548,5.156
			s6.206-8.975,6.206-8.975l-6.302-32.177c0,0-0.668-4.583-4.297-6.97c-3.628-2.387-22.724-13.654-22.724-13.654l12.412-25.207
			l19.627,18.77c1.335,1.277,3.339,1.55,4.967,0.678l22.573-12.096c0,0,3.533-2.864,0.477-7.066
			c-3.055-4.201-7.161-1.241-7.161-1.241l-16.805,8.307c0,0-16.805-16.614-18.905-18.523s-10.885-4.392-10.885-4.392L94.88,70.084z"
			/>
		<circle fill="#48B27B" cx="158.843" cy="124.015" r="12.123"/>
		<circle fill="#48B27B" cx="112.814" cy="53.827" r="14.735"/>
	</g>
</g>
<g id="nuages2">
</g>
<g id="nuages1">
</g>
<g id="_x33_">
</g>
<g id="_x32_">
</g>
<g id="_x31_">
</g>
</svg>
