<?xml version="1.0" encoding="utf-8"?>
<!-- Generator: Adobe Illustrator 18.1.1, SVG Export Plug-In . SVG Version: 6.00 Build 0)  -->
<svg version="1.1" id="Calque_1" xmlns="http://www.w3.org/2000/svg" xmlns:xlink="http://www.w3.org/1999/xlink" x="0px" y="0px"
	 viewBox="0 0 529.8 513" enable-background="new 0 0 529.8 513" xml:space="preserve">
<path fill="none" stroke="#232835" stroke-miterlimit="10" d="M528.2,106.2l1.6-6.9l-7.9-13.8l0,0l-11.8-2.6l-11.5-13.2L488,73.7
	l-27-18.4L455.5,24l-10.2-5.6l-40.8,21.7l-11.2-0.3L377.5,50l1,25.7l-16.4,14.5l4.6,10.9l-18.4,16.8l5.3,12.8l-20.4,28.6l5.6,20.4
	h0.3l2,9.9l24.7-0.3l0.7,12.8l7.6,7.2l11.5-4.6l19.1,12.2h27.3l22.7,9.5l-2-11.8l10.5,1l28.3-16.4v-0.3l2.3-12.8l11.8-3.9l23-39.1
	l-1.3-20.4l-6.2-8.6L528.2,106.2z"/>
<path fill="none" stroke="#232835" stroke-miterlimit="10" d="M93.7,183.8l-19.4,12.5L73,218.7l-56.6,16.8L0,251.3l8.5,23l22.4,3.6
	l7.6,7.6L56.9,272l26.6-2.3l-25,9.5l-2.3,24.3l-11.2,4.9l21.7,7.9l17.8,18.4l22.4,23l43.1,18.4l1-35.2l12.5-1v11.8l8.6,6.2l8.9-7.9
	l-1.6-10.9l11.5-3l5.6-8.9l17.8,12.8l-1.3-10.9l-10.2-5.3l10.2-16.4l-3-10.2l-13.2-17.4l-11.2-3L196,269l52.9-7.9l-1-21.7
	l-31.6-12.2l6.9-8.9l10.5,1.3l-27.3-49.3l-25-12.8L148.3,172l-5.9,10.2L93.7,183.8z"/>
<path fill="none" stroke="#232835" stroke-miterlimit="10" d="M374.3,1l-9.9-1l-2.6,10.2h-33.5l-25,11.8l-9.2-6.2l-8.9,5.9L273,8.2
	h-0.3l-31.6-3.3L240.7,50l-5.9,8.5l7.2,64.1l-20.4,8.2l-13.2,31.9l38.5,12.8l7.9-7.2l32.2,13.5l11.2,1.6L320,173l18.7,6.6l-5.6-20.4
	l20.4-28.6l-5.3-12.8l18.4-16.8l-4.6-10.9l16.4-14.5l-1-25.7l15.8-10.2l0.3-0.3V28.6L381.5,23L374.3,1z"/>
<path fill="none" stroke="#232835" stroke-miterlimit="10" d="M247,175.6l-38.5-12.8l-2,7.6l27.3,49.3l-10.5-1.3l-6.9,8.9l31.6,12.2
	l1,21.7L196,269l-10.5,8.2l11.2,3l13.2,17.4l3,10.2l-10.2,16.4l10.2,5.3l1.3,10.9l39.5,14.1l45.4-3l13.5-17.4l20.7-3l35.8-1l8.2,8.9
	l24.7-22.4h-0.3l21.4-56.6l6.2-34.2l2.6-9.2h-27.3l-19.1-12.2l-11.5,4.6l-7.6-7.2l-0.7-12.8l-24.7,0.3l-2-9.9h-0.3L320,173
	l-21.7,10.5l-11.2-1.6l-32.2-13.5L247,175.6z"/>
<path fill="none" stroke="#232835" stroke-miterlimit="10" d="M151,341l-1,35.2l-43.1-18.4l-22.4-23l-28.6,30.6l1.3,16.4l38.5,45.1
	l7.9,26l29.9,24.7l17.8,4.3l5.9,12.8l21.7,4.3l17.4,14.1l2.6-10.2l10.5,1.6L242,492l-4.9,10.9l23.7-1l8.9,6.2l33.5-16.4l-9.2-7.2
	l1-27.3l-17.8-66.4l-15.5-15.1l-8.2-21l-39.5-14.1l-17.8-12.8l-5.6,8.9l-11.5,3l1.6,10.9l-8.9,7.9l-8.6-6.2v-11.8L151,341z"/>
</svg>
