<svg xmlns="http://www.w3.org/2000/svg" xmlns:xlink="http://www.w3.org/1999/xlink" version="1.1" x="0px" y="0px" width="28px" height="65px" viewBox="45 0 10 100" enable-background="new 0 0 100 100" xml:space="preserve">
<g id="guide">
</g>
<g fill="#FF0B7F">
	<path d="M40.749,17.564c0,2.45,1.131,4.879,3.182,6.846c-3.321,0.215-5.898,1.219-7.649,2.986   c-2.229,2.253-3.356,5.596-3.356,9.952V52.53c0,1.493,0.613,2.99,1.735,4.204l-1.979,6.615c-0.035,0.149-0.14,0.857-0.14,0.857   c-0.026,0.153-0.012,0.316,0.039,0.46l0.499,1.505c0.807,1.176,1.866,1.701,2.97,1.701h2.437v18.095   c0,3.848,3.141,6.986,6.987,6.986c1.669,0,3.337-0.715,4.707-2.001c1.368,1.293,3.037,2.001,4.704,2.001   c3.858,0,6.989-3.138,6.989-6.986V67.873h2.436c2.272-0.151,3.689-1.518,3.509-3.666l-0.106-0.721c0,0-1.977-6.673-1.982-6.68   c-0.064-0.203,0.687-0.715,0.814-0.913c0.29-0.458,0.567-0.926,0.705-1.451c0.141-0.525,0.117-1.353,0.188-1.892V37.326   c0-4.34-1.131-7.684-3.357-9.93c-1.647-1.662-3.992-2.621-7.173-2.916c2.096-1.969,3.249-4.425,3.249-6.916   c0-5.346-4.35-9.699-9.704-9.699C45.099,7.865,40.749,12.218,40.749,17.564z M44.637,17.564c0-3.198,2.609-5.805,5.814-5.805   s5.813,2.607,5.813,5.805c0,3.205-2.608,5.813-5.813,5.813S44.637,20.77,44.637,17.564z M36.813,37.569c0-0.058,0-0.119,0-0.176   c0-3.325,0.746-5.767,2.232-7.258c1.311-1.334,3.322-2.004,5.963-2.004h10.349c2.642,0,4.645,0.669,5.965,2.004   c1.506,1.523,2.258,4.012,2.233,7.414v14.339l-3.187-10.634c-0.155-0.539-0.722-0.839-1.254-0.683l-1.149,0.348   c-0.256,0.072-0.474,0.25-0.598,0.485c-0.132,0.236-0.157,0.514-0.08,0.769l6.522,21.812h-4.813c-0.56,0-1.012,0.454-1.012,1.003   v20.979c0,1.708-1.396,3.091-3.102,3.091c-1.707,0-3.099-1.383-3.099-3.091v-25.34c0-0.559-0.448-1.01-1.006-1.01h-1.193   c-0.56,0-1.015,0.451-1.015,1.01v25.34c0,1.708-1.393,3.091-3.099,3.091c-1.707,0-3.099-1.383-3.099-3.091V64.989   c0-0.55-0.448-1.003-1.004-1.003h-4.821l6.527-21.812c0.078-0.255,0.045-0.532-0.079-0.769c-0.132-0.235-0.342-0.413-0.598-0.485   l-1.149-0.348c-0.538-0.156-1.097,0.144-1.255,0.683c0,0-3.113,10.385-3.166,10.548c-0.005,0-0.005-0.005-0.017-0.005   C36.813,51.617,36.813,37.569,36.813,37.569z"/>
</g>
</svg>