<svg xmlns="http://www.w3.org/2000/svg" xmlns:xlink="http://www.w3.org/1999/xlink" version="1.1" x="0px" y="0px" width="100px" height="100px" viewBox="5.0 -10.0 100.0 135.0" enable-background="new 0 0 100 100" xml:space="preserve">
<g id="guide">
</g>
<g id="web_2">
	<path d="M41.506,16.855c0,3.032,1.671,5.349,3.069,6.751h-1.272c-3.759,0-6.729,1.076-8.83,3.197   c-2.254,2.281-3.398,5.672-3.398,10.079v15.367c0,3.511,2.854,6.369,6.365,6.375c0.336-0.05,1.773-0.405,1.773-0.405V85.9   c0,3.895,3.172,7.069,7.073,7.069c1.685,0,3.379-0.72,4.762-2.023c1.386,1.303,3.077,2.023,4.767,2.023   c3.9,0,7.075-3.174,7.075-7.069V58.234l1.728,0.399c3.568-0.009,6.378-2.94,6.378-6.384V37.097   c0.045-4.506-1.101-7.973-3.399-10.293c-2.098-2.122-5.07-3.197-8.829-3.197h-0.691c1.402-1.402,3.072-3.719,3.072-6.751   c0-5.418-4.404-9.825-9.821-9.825C45.911,7.03,41.506,11.437,41.506,16.855z M45.442,16.855c0-3.243,2.64-5.882,5.884-5.882   c3.245,0,5.887,2.639,5.887,5.882c0,3.246-2.642,5.887-5.887,5.887C48.082,22.742,45.442,20.101,45.442,16.855z M35.01,52.249   V37.097c-0.03-3.452,0.729-5.978,2.26-7.521c1.333-1.342,3.363-2.026,6.033-2.026h15.464c2.672,0,4.703,0.684,6.033,2.026   c1.533,1.543,2.29,4.069,2.261,7.507v15.167c0,1.349-1.093,2.448-2.443,2.448c-1.268,0-2.325-1.014-2.41-2.296v-5.99l-0.029-10.771   c0-0.567-0.457-1.019-1.02-1.019H59.94c-0.565,0-1.02,0.459-1.02,1.019v16.608L58.952,85.9c0,1.728-1.41,3.13-3.138,3.13   c-1.729,0-3.137-1.402-3.137-3.13V59.432c0-0.565-0.46-1.026-1.021-1.026h-1.214c-0.563,0-1.02,0.461-1.02,1.026V85.9   c0,1.728-1.411,3.13-3.137,3.13c-1.731,0-3.137-1.402-3.137-3.13V35.641c0-0.56-0.459-1.019-1.022-1.019h-1.211   c-0.566,0-1.021,0.459-1.021,1.019v16.608c0,1.349-1.094,2.448-2.441,2.448C36.104,54.697,35.01,53.598,35.01,52.249z"/>
</g>
<text x="0.0" y="117.5" font-size="5.0" font-weight="bold" font-family="Helvetica Neue, Helvetica, Arial-Unicode, Arial, Sans-serif" fill="#000000">Created by M</text><text x="0.0" y="122.5" font-size="5.0" font-weight="bold" font-family="Helvetica Neue, Helvetica, Arial-Unicode, Arial, Sans-serif" fill="#000000">from the Noun Project</text></svg>