<?xml version="1.0" encoding="utf-8"?>
<!-- Generator: Adobe Illustrator 18.1.1, SVG Export Plug-In . SVG Version: 6.00 Build 0)  -->
<svg version="1.1" id="Calque_1" xmlns="http://www.w3.org/2000/svg" xmlns:xlink="http://www.w3.org/1999/xlink" x="0px" y="0px"
	 viewBox="0 0 1280 800" enable-background="new 0 0 1280 800" xml:space="preserve">
<g>
	<path fill="#DB543A" stroke="#DB543A" stroke-width="2" stroke-miterlimit="10" d="M709.1,731.1c-0.5,0-1.5,0-2.4-0.5l-61.1-32.5
		c-1.9-1-6.3-1-8.2,0l-61.6,32c-1.9,1-3.4,1-4.4-0.5c-0.5-0.5-1-1.5-0.5-3.4l12.1-68.4c0.5-2.4-0.5-6.3-2.4-7.8l-49.5-49
		c-1.5-1.5-1.5-2.9-1.5-3.9c0-0.5,1-1.9,3.4-1.9l68.9-9.7c2.4-0.5,5.8-2.4,6.8-4.9l31-62.1c1-1.9,2.4-2.4,2.9-2.4
		c0.5,0,1.9,0.5,2.9,2.4l30.6,62.6c1,2.4,4.4,4.4,6.8,4.9l68.9,10.2c2.4,0.5,2.9,1.5,3.4,2.4c0,0.5,0.5,1.9-1.5,3.9l-50,48
		c-1.9,1.9-2.9,5.3-2.4,7.8l11.2,68.4c0.5,1.9,0,2.9-0.5,3.4C710.6,731.1,710.1,731.1,709.1,731.1z M641.2,695.2
		c1.9,0,3.9,0.5,4.9,1l61.1,32.5c1,0.5,1.9,0.5,2.4,0c0.5-0.5,0.5-1,0.5-1.9l-11.2-68.4c-0.5-2.9,1-7.3,2.9-9.7l50-48
		c0.5-0.5,1-1.5,1-1.9c0-0.5-1-1-1.9-1L682,587.5c-2.9-0.5-6.8-2.9-8.2-5.8l-29.6-62.6c-0.5-1-1-1.5-1.5-1.5s-1,0.5-1.5,1.5
		l-31,62.1c-1.5,2.9-4.9,5.3-8.2,5.8l-68.9,9.7c-1,0-1.5,0.5-1.9,1c-0.5,0.5,0,1,1,1.9l49.5,49c2.4,2.4,3.4,6.3,2.9,9.7l-12.1,68.4
		c0,1,0,1.5,0,1.9c0.5,0.5,1.5,0.5,2.4,0l61.6-32C637.8,695.7,639.8,695.2,641.2,695.2z"/>
	<g>
		<g>
			<g>
				
					<path fill="none" stroke="#DB543A" stroke-width="4" stroke-linecap="round" stroke-linejoin="round" stroke-miterlimit="10" d="
					M641.2,451.7c-0.5,0-0.5,0-1,0c-0.5,0-0.5,0-1,0l1,1.9L641.2,451.7z"/>
				
					<path fill="none" stroke="#DB543A" stroke-width="4" stroke-linecap="round" stroke-linejoin="round" stroke-miterlimit="10" d="
					M788.2,534.1c-30.6-49-84.9-82-147-82.5l-1,1.9l-1-1.9c-62.1,0.5-116.4,33.5-147,82.5c-16.5,26.7-26.2,58.2-26.2,91.7
					c0,96.1,78.1,174.2,174.2,174.2s174.2-78.1,174.2-174.2C814.4,592.4,804.7,560.8,788.2,534.1z"/>
			</g>
			<g>
				
					<path fill="none" stroke="#DB543A" stroke-width="4" stroke-linecap="round" stroke-linejoin="round" stroke-miterlimit="10" d="
					M849.8,100.4l50.9-88.3c1.9-2.9-0.5-6.8-3.9-6.8H383.6c-3.4,0-5.8,3.9-3.9,6.8l50.9,88.3c1,1.5,2.4,2.4,3.9,2.4h411.4
					C847.4,102.9,848.9,101.9,849.8,100.4z"/>
				
					<path fill="none" stroke="#DB543A" stroke-width="4" stroke-linecap="round" stroke-linejoin="round" stroke-miterlimit="10" d="
					M357.9,13.6c-1.5-2.4-4.4-2.9-6.3-1.5L306,40.3l-48.5,30.6c-1.9,1.5-2.9,3.9-1.5,6.3l236.7,410.9
					c28.1-30.1,64.5-50.5,105.3-59.2l-180-311L357.9,13.6z"/>
				
					<path fill="none" stroke="#DB543A" stroke-width="4" stroke-linecap="round" stroke-linejoin="round" stroke-miterlimit="10" d="
					M974.5,40.3l-45.6-28.1c-2.4-1.5-5.3-0.5-6.3,1.5L862,117.9l-179.5,311c40.3,8.7,77.1,29.1,105.3,59.2l236.7-410.9
					c1.5-1.9,0.5-4.9-1.5-6.3L974.5,40.3z"/>
			</g>
		</g>
	</g>
</g>
</svg>
