<?xml version="1.0" encoding="utf-8"?>
<!-- Generator: Adobe Illustrator 18.1.1, SVG Export Plug-In . SVG Version: 6.00 Build 0)  -->
<svg version="1.1" id="Calque_1" xmlns="http://www.w3.org/2000/svg" xmlns:xlink="http://www.w3.org/1999/xlink" x="0px" y="0px"
	 viewBox="0 0 158.7 164.9" enable-background="new 0 0 158.7 164.9" xml:space="preserve">
<g>
	<path fill="#DB543A" d="M93.6,150.7c-0.1,0-0.3,0-0.5-0.1l-12.6-6.7c-0.4-0.2-1.3-0.2-1.7,0l-12.7,6.6c-0.4,0.2-0.7,0.2-0.9-0.1
		c-0.1-0.1-0.2-0.3-0.1-0.7l2.5-14.1c0.1-0.5-0.1-1.3-0.5-1.6l-10.2-10.1c-0.3-0.3-0.3-0.6-0.3-0.8c0-0.1,0.2-0.4,0.7-0.4l14.2-2
		c0.5-0.1,1.2-0.5,1.4-1l6.4-12.8c0.2-0.4,0.5-0.5,0.6-0.5c0.1,0,0.4,0.1,0.6,0.5l6.3,12.9c0.2,0.5,0.9,0.9,1.4,1l14.2,2.1
		c0.5,0.1,0.6,0.3,0.7,0.5c0,0.1,0.1,0.4-0.3,0.8l-10.3,9.9c-0.4,0.4-0.6,1.1-0.5,1.6l2.3,14.1c0.1,0.4,0,0.6-0.1,0.7
		C93.9,150.7,93.8,150.7,93.6,150.7z M79.6,143.3c0.4,0,0.8,0.1,1,0.2l12.6,6.7c0.2,0.1,0.4,0.1,0.5,0c0.1-0.1,0.1-0.2,0.1-0.4
		l-2.3-14.1c-0.1-0.6,0.2-1.5,0.6-2l10.3-9.9c0.1-0.1,0.2-0.3,0.2-0.4c0-0.1-0.2-0.2-0.4-0.2l-14.2-2.1c-0.6-0.1-1.4-0.6-1.7-1.2
		L80.2,107c-0.1-0.2-0.2-0.3-0.3-0.3c-0.1,0-0.2,0.1-0.3,0.3l-6.4,12.8c-0.3,0.6-1,1.1-1.7,1.2l-14.2,2c-0.2,0-0.3,0.1-0.4,0.2
		s0,0.2,0.2,0.4l10.2,10.1c0.5,0.5,0.7,1.3,0.6,2l-2.5,14.1c0,0.2,0,0.3,0,0.4c0.1,0.1,0.3,0.1,0.5,0l12.7-6.6
		C78.9,143.4,79.3,143.3,79.6,143.3z"/>
	<g>
		<g>
			<g>
				
					<path fill="none" stroke="#DB543A" stroke-width="0.5" stroke-linecap="round" stroke-linejoin="round" stroke-miterlimit="10" d="
					M79.6,93.1c-0.1,0-0.1,0-0.2,0s-0.1,0-0.2,0l0.2,0.4L79.6,93.1z"/>
				
					<path fill="none" stroke="#DB543A" stroke-width="0.5" stroke-linecap="round" stroke-linejoin="round" stroke-miterlimit="10" d="
					M109.9,110.1c-6.3-10.1-17.5-16.9-30.3-17l-0.2,0.4l-0.2-0.4c-12.8,0.1-24,6.9-30.3,17c-3.4,5.5-5.4,12-5.4,18.9
					c0,19.8,16.1,35.9,35.9,35.9c19.8,0,35.9-16.1,35.9-35.9C115.3,122.1,113.3,115.6,109.9,110.1z"/>
			</g>
			<g>
				
					<path fill="none" stroke="#DB543A" stroke-width="0.5" stroke-linecap="round" stroke-linejoin="round" stroke-miterlimit="10" d="
					M122.6,20.7l10.5-18.2c0.4-0.6-0.1-1.4-0.8-1.4H26.5c-0.7,0-1.2,0.8-0.8,1.4l10.5,18.2c0.2,0.3,0.5,0.5,0.8,0.5h84.8
					C122.1,21.2,122.4,21,122.6,20.7z"/>
				
					<path fill="none" stroke="#DB543A" stroke-width="0.5" stroke-linecap="round" stroke-linejoin="round" stroke-miterlimit="10" d="
					M21.2,2.8c-0.3-0.5-0.9-0.6-1.3-0.3l-9.4,5.8l-10,6.3c-0.4,0.3-0.6,0.8-0.3,1.3l48.8,84.7c5.8-6.2,13.3-10.4,21.7-12.2
					L33.6,24.3L21.2,2.8z"/>
				
					<path fill="none" stroke="#DB543A" stroke-width="0.5" stroke-linecap="round" stroke-linejoin="round" stroke-miterlimit="10" d="
					M148.3,8.3l-9.4-5.8c-0.5-0.3-1.1-0.1-1.3,0.3l-12.5,21.5L88.1,88.4c8.3,1.8,15.9,6,21.7,12.2l48.8-84.7c0.3-0.4,0.1-1-0.3-1.3
					L148.3,8.3z"/>
			</g>
		</g>
	</g>
</g>
</svg>
