<?xml version="1.0" encoding="utf-8"?>
<!-- Generator: Adobe Illustrator 18.1.1, SVG Export Plug-In . SVG Version: 6.00 Build 0)  -->
<svg version="1.1" id="Calque_1" xmlns="http://www.w3.org/2000/svg" xmlns:xlink="http://www.w3.org/1999/xlink" x="0px" y="0px"
	 viewBox="0 0 329 235" enable-background="new 0 0 329 235" xml:space="preserve">
<g>
	<g>
		<path fill="#232835" d="M329,235h-1v-30.3c0-5.4-4-9.7-9.1-9.7h-89c-5.9,0-10.9-4.7-10.9-10.3v-60c0-5.4-4-9.7-9.1-9.7h-90
			c-5.3,0-9.9,4.5-9.9,9.7v18c0,5.9-4.3,10.3-10.1,10.3h-89c-5.3,0-9.9,4.5-9.9,9.7V235H0v-72.3C0,157,5.1,152,10.9,152h89
			c5.2,0,9.1-4,9.1-9.3v-18c0-5.7,5.1-10.7,10.9-10.7h90c5.6,0,10.1,4.7,10.1,10.7v60c0,5,4.6,9.3,9.9,9.3h89
			c5.6,0,10.1,4.7,10.1,10.7V235z"/>
		<g>
			<path fill="#232835" d="M152.1,145.2v-13h23v70h-14v-57H152.1z"/>
		</g>
		<g>
			<path fill="#232835" d="M56.4,173.4c7.4,0,13.6,5.8,13.6,12.7c0,3.8-1.4,6-3.7,9.1l-9.8,13.1h13.3v7.7H40.9l12.4-17.6
				c-5.9-1.4-10.4-5.7-10.4-12.4C42.9,179.2,49,173.4,56.4,173.4z M56.3,191c2.8,0,5-2.2,5-4.9c0-2.7-2.2-4.9-5-4.9
				c-2.7,0-4.9,2.2-4.9,4.9C51.4,188.8,53.6,191,56.3,191z"/>
		</g>
		<g>
			<path fill="#232835" d="M274.4,211.8h-6.6v-4.4h14.4l-5.3,10.1c3.1,0.7,4.9,3.3,4.9,6.4c0,4.2-2.8,7.7-8,7.7
				c-4.4,0-7.5-3.1-7.5-7.8h4.8c0,2,1.3,3.3,2.9,3.3s2.9-1.3,2.9-2.9c0-1.5-1.1-2.9-3.3-2.9h-4.2L274.4,211.8z"/>
		</g>
	</g>
	<g>
		<g>
			<g>
				<line fill="#232835" x1="188.7" y1="4.4" x2="156.8" y2="69.3"/>
				
					<rect x="136.6" y="36.1" transform="matrix(-0.4407 0.8976 -0.8976 -0.4407 281.9683 -101.9654)" fill="#232835" width="72.3" height="1.6"/>
			</g>
			<polygon fill="#232835" points="154.9,65.1 185.5,4.7 150.9,39.6 			"/>
			<g>
				<g>
					
						<rect x="131" y="74.4" transform="matrix(1 -2.499992e-03 2.499992e-03 1 -0.1874 0.4126)" fill="#232835" width="67.9" height="1.6"/>
				</g>
				<g>
					<rect x="131.5" y="77.9" fill="#232835" width="66.8" height="1.6"/>
				</g>
			</g>
			<g>
				<polygon fill="#232835" points="147.1,70.6 167.9,76 172.7,75 173.3,72.7 148.2,66.2 				"/>
			</g>
			<path fill="#232835" d="M184.2,46.3c0,1.5-1.2,2.8-2.8,2.8s-2.8-1.2-2.8-2.8c0-1.5,1.2-2.8,2.8-2.8S184.2,44.7,184.2,46.3z"/>
			<g>
				<path fill="#232835" d="M169.4,57.9l-4.3,4.8l-0.2,0.2l-0.1,0.3l-1.9,7.8l2.3,0.6l1.8-7.5l-0.2,0.2l0.3-0.5l-0.1,0.3l4-4.4
					c-0.4-0.3-0.8-0.5-0.8-0.5C169.8,58.8,169.5,58.4,169.4,57.9z"/>
				<polygon fill="#232835" points="166.9,64.3 167.1,64 167.1,63.8 				"/>
				<path fill="#232835" d="M175.1,48.1l-4,0.9l0.2,0.1l-0.5,0l0.2-0.1l-4-1l-0.5,1.9l4.2,1.1l0.2,0.1l0.2-0.1l2-0.5
					c0.9-1.3,1.6-2.3,1.6-2.3C175.1,48.1,175.1,48.1,175.1,48.1z"/>
				<polygon fill="#232835" points="171.4,49 171.2,49 170.9,49 				"/>
				<path fill="#232835" d="M170.9,58.1l2.3,1.7c0.3,0.2,0.6,0.3,1,0.2c0.3-0.1,0.6-0.2,0.8-0.5l5.3-7.4c0.2-0.3,0.3-0.6,0.2-1
					c-0.1-0.3-0.2-0.6-0.5-0.8l-2.3-1.7c-0.3-0.2-0.6-0.3-1-0.2c-0.3,0.1-0.6,0.2-0.8,0.5l-5.3,7.4
					C170.2,56.9,170.4,57.7,170.9,58.1z"/>
				<path fill="#232835" d="M176.8,48.4c0.3-0.1,0.7,0,1,0.2l2.3,1.7c0.3,0.2,0.5,0.5,0.5,0.8c0.1,0.3,0,0.7-0.2,1
					c0,0-5.3,7.4-5.3,7.4c-0.2,0.3-0.5,0.5-0.8,0.5c-0.3,0.1-0.7,0-1-0.2l-2.3-1.7c-0.6-0.4-0.7-1.2-0.3-1.8l5.3-7.4
					C176.2,48.6,176.5,48.4,176.8,48.4z"/>
			</g>
			<g>
				<polygon fill="#232835" points="178.3,49.9 170.5,51.9 171,51.9 165.5,50.3 164.9,52.2 170.4,53.8 170.7,53.9 171,53.8 
					178.7,51.8 				"/>
			</g>
			<g>
				<polygon fill="#232835" points="173,57.9 168.4,63.6 168.3,63.8 168.2,64.1 166.4,71.2 168.7,71.8 170.5,64.7 170.3,65.1 
					174.9,59.3 				"/>
			</g>
		</g>
	</g>
	<g>
		<g>
			<path fill="#232835" d="M77,54.9c3.6,0,6.6-3,6.6-6.6c0-3.6-2.9-6.6-6.6-6.6c-3.6,0-6.6,3-6.6,6.6C70.4,51.9,73.4,54.9,77,54.9z"
				/>
			<path fill="#232835" d="M92.1,68.6L89,65.8l-8.4-8.4c-0.8-0.8-1.8-1.2-3-1.2l-12.5,0L42,55.8c-0.9-0.1-1.9,0.1-2.6,0.8
				c-1.4,1.2-1.6,3.3-0.4,4.7c0.7,0.8,1.6,1.2,2.6,1.2l15.7,0.1l8.4,0L53.2,77.4l0,0l-6.8,8c-0.2,0.3-0.4,0.6-0.6,0.9
				c-1.1,2.1-0.7,4.7,1.3,5.8c1.8,1,4.5,0.4,5.7-1.1l8.5-10.2l0.5-0.7l1,0.7l-0.3,0.4L39,109.6c-0.3,0.2-0.5,0.5-0.6,0.9
				c-1.2,2.1-0.4,4.7,1.6,5.8c1.8,1,4,0.6,5.3-0.9l27-31.8l0,0l11.2-13.8l1.9,1.5l-7.6,9.5c-0.5,0.6-0.7,1.4-0.7,2.2
				c0.1,1.9,1.7,3.4,3.6,3.3c0.8,0,1.6-0.4,2.1-0.9l9.1-11.4C94.8,70.9,92.1,68.6,92.1,68.6z"/>
			<circle fill="#232835" cx="26.2" cy="111.3" r="5.1"/>
		</g>
	</g>
	<g>
		<path fill="#232835" d="M28.3,128.8h6.3v0.5h-5.8v5h4.9v0.5h-4.9v5.9h-0.6V128.8z"/>
		<path fill="#232835" d="M35.8,136.4c0-0.7,0.1-1.4,0.3-1.9c0.2-0.6,0.5-1,0.8-1.4c0.3-0.4,0.8-0.7,1.2-0.9s1-0.3,1.5-0.3
			c0.5,0,1,0.1,1.5,0.3s0.9,0.5,1.2,0.9c0.3,0.4,0.6,0.9,0.8,1.4c0.2,0.6,0.3,1.2,0.3,1.9c0,0.7-0.1,1.3-0.3,1.9
			c-0.2,0.6-0.5,1-0.8,1.4c-0.3,0.4-0.8,0.7-1.2,0.9s-1,0.3-1.5,0.3c-0.5,0-1-0.1-1.5-0.3s-0.9-0.5-1.2-0.9
			c-0.3-0.4-0.6-0.9-0.8-1.4C35.9,137.8,35.8,137.1,35.8,136.4z M36.4,136.4c0,0.6,0.1,1.1,0.3,1.6c0.2,0.5,0.4,0.9,0.7,1.3
			c0.3,0.4,0.6,0.6,1,0.8c0.4,0.2,0.8,0.3,1.3,0.3s0.9-0.1,1.3-0.3c0.4-0.2,0.7-0.5,1-0.8c0.3-0.4,0.5-0.8,0.7-1.3
			c0.2-0.5,0.3-1,0.3-1.6c0-0.6-0.1-1.1-0.3-1.6c-0.2-0.5-0.4-0.9-0.7-1.3c-0.3-0.4-0.6-0.6-1-0.8c-0.4-0.2-0.8-0.3-1.3-0.3
			s-0.9,0.1-1.3,0.3c-0.4,0.2-0.7,0.5-1,0.8c-0.3,0.4-0.5,0.8-0.7,1.3S36.4,135.8,36.4,136.4z"/>
		<path fill="#232835" d="M45.4,136.4c0-0.7,0.1-1.4,0.3-1.9c0.2-0.6,0.5-1,0.8-1.4c0.3-0.4,0.8-0.7,1.2-0.9s1-0.3,1.5-0.3
			c0.5,0,1,0.1,1.5,0.3s0.9,0.5,1.2,0.9c0.3,0.4,0.6,0.9,0.8,1.4c0.2,0.6,0.3,1.2,0.3,1.9c0,0.7-0.1,1.3-0.3,1.9
			c-0.2,0.6-0.5,1-0.8,1.4c-0.3,0.4-0.8,0.7-1.2,0.9s-1,0.3-1.5,0.3c-0.5,0-1-0.1-1.5-0.3s-0.9-0.5-1.2-0.9
			c-0.3-0.4-0.6-0.9-0.8-1.4C45.5,137.8,45.4,137.1,45.4,136.4z M45.9,136.4c0,0.6,0.1,1.1,0.3,1.6c0.2,0.5,0.4,0.9,0.7,1.3
			c0.3,0.4,0.6,0.6,1,0.8c0.4,0.2,0.8,0.3,1.3,0.3s0.9-0.1,1.3-0.3c0.4-0.2,0.7-0.5,1-0.8c0.3-0.4,0.5-0.8,0.7-1.3
			c0.2-0.5,0.3-1,0.3-1.6c0-0.6-0.1-1.1-0.3-1.6c-0.2-0.5-0.4-0.9-0.7-1.3c-0.3-0.4-0.6-0.6-1-0.8c-0.4-0.2-0.8-0.3-1.3-0.3
			s-0.9,0.1-1.3,0.3c-0.4,0.2-0.7,0.5-1,0.8c-0.3,0.4-0.5,0.8-0.7,1.3S45.9,135.8,45.9,136.4z"/>
		<path fill="#232835" d="M55.9,132.6h-1.4v-0.4l1.4-0.1l0.1-2.5h0.5v2.5H59v0.5h-2.6v5.9c0,0.3,0,0.5,0.1,0.8
			c0,0.2,0.1,0.4,0.2,0.6c0.1,0.2,0.3,0.3,0.5,0.4c0.2,0.1,0.5,0.1,0.8,0.1c0.2,0,0.4,0,0.6-0.1c0.2-0.1,0.4-0.1,0.6-0.2l0.2,0.5
			c-0.3,0.1-0.5,0.2-0.7,0.2c-0.2,0.1-0.4,0.1-0.6,0.1c-0.4,0-0.7-0.1-1-0.2c-0.3-0.1-0.5-0.3-0.6-0.5c-0.2-0.2-0.3-0.5-0.3-0.8
			c-0.1-0.3-0.1-0.6-0.1-1V132.6z"/>
		<path fill="#232835" d="M61.1,127.7h0.5v3.9l0,1.7c0.5-0.4,0.9-0.7,1.5-1c0.5-0.3,1.1-0.4,1.6-0.4c1.2,0,2,0.4,2.6,1.2
			c0.6,0.8,0.9,1.9,0.9,3.2c0,0.7-0.1,1.4-0.3,2c-0.2,0.6-0.5,1.1-0.8,1.5c-0.3,0.4-0.8,0.7-1.2,0.9c-0.5,0.2-1,0.3-1.5,0.3
			c-0.4,0-0.9-0.1-1.3-0.3c-0.5-0.2-0.9-0.4-1.3-0.7h0l-0.1,0.8h-0.5V127.7z M61.7,139.2c0.5,0.4,1,0.7,1.5,0.9
			c0.5,0.2,0.9,0.3,1.2,0.3c0.5,0,0.9-0.1,1.3-0.3s0.7-0.5,1-0.9c0.3-0.4,0.5-0.8,0.7-1.3c0.2-0.5,0.2-1.1,0.2-1.7
			c0-0.6-0.1-1.1-0.2-1.5c-0.1-0.5-0.3-0.9-0.5-1.2c-0.2-0.3-0.5-0.6-0.9-0.8c-0.4-0.2-0.8-0.3-1.4-0.3c-0.5,0-0.9,0.1-1.4,0.4
			s-1,0.6-1.6,1.1V139.2z"/>
		<path fill="#232835" d="M70.1,138.6c0-1,0.5-1.7,1.4-2.2s2.3-0.9,4.3-1.1c0-0.3,0-0.7-0.1-1.1c-0.1-0.4-0.2-0.7-0.3-1
			c-0.2-0.3-0.4-0.5-0.7-0.7s-0.6-0.3-1.1-0.3c-0.3,0-0.6,0-0.9,0.1c-0.3,0.1-0.5,0.2-0.8,0.3s-0.5,0.2-0.7,0.3
			c-0.2,0.1-0.4,0.2-0.5,0.3l-0.3-0.4c0.1-0.1,0.3-0.2,0.5-0.3s0.5-0.3,0.7-0.4c0.3-0.1,0.6-0.2,0.9-0.3c0.3-0.1,0.7-0.1,1-0.1
			c0.5,0,0.9,0.1,1.3,0.3s0.6,0.4,0.8,0.7c0.2,0.3,0.3,0.6,0.4,1c0.1,0.4,0.1,0.8,0.1,1.2v5.6h-0.5l-0.1-1.2h0
			c-0.5,0.4-0.9,0.7-1.5,1c-0.5,0.3-1.1,0.4-1.7,0.4c-0.3,0-0.7,0-1-0.1s-0.6-0.2-0.8-0.4c-0.2-0.2-0.4-0.4-0.5-0.7
			S70.1,139,70.1,138.6z M70.6,138.6c0,0.3,0.1,0.6,0.2,0.9c0.1,0.2,0.2,0.4,0.4,0.6c0.2,0.1,0.4,0.2,0.6,0.3
			c0.2,0.1,0.5,0.1,0.7,0.1c0.5,0,1-0.1,1.5-0.4c0.5-0.2,1-0.6,1.6-1.1v-3.1c-0.9,0.1-1.7,0.2-2.4,0.4c-0.6,0.2-1.2,0.4-1.6,0.6
			c-0.4,0.2-0.7,0.5-0.9,0.8S70.6,138.2,70.6,138.6z"/>
		<path fill="#232835" d="M79.5,127.7H80v12.2c0,0.4,0.1,0.5,0.4,0.5c0,0,0.1,0,0.1,0s0.1,0,0.2,0l0.1,0.5c-0.1,0-0.1,0-0.2,0.1
			c-0.1,0-0.2,0-0.3,0c-0.3,0-0.5-0.1-0.6-0.3c-0.2-0.2-0.2-0.5-0.2-0.9V127.7z"/>
		<path fill="#232835" d="M83.6,127.7h0.5v12.2c0,0.4,0.1,0.5,0.4,0.5c0,0,0.1,0,0.1,0s0.1,0,0.2,0l0.1,0.5c-0.1,0-0.1,0-0.2,0.1
			c-0.1,0-0.2,0-0.3,0c-0.3,0-0.5-0.1-0.6-0.3c-0.2-0.2-0.2-0.5-0.2-0.9V127.7z"/>
	</g>
	<g>
		<path fill="#232835" d="M148.2,90.3h0.6l2.3,7.1c0.1,0.4,0.2,0.7,0.3,1c0.1,0.3,0.2,0.6,0.3,1c0.1,0.3,0.2,0.6,0.3,1
			c0.1,0.3,0.2,0.7,0.4,1h0.1c0.1-0.4,0.2-0.7,0.3-1c0.1-0.3,0.2-0.7,0.3-1c0.1-0.3,0.2-0.6,0.3-1c0.1-0.3,0.2-0.7,0.3-1l2.3-7.1
			h0.6l-3.9,11.9h-0.6L148.2,90.3z"/>
		<path fill="#232835" d="M157.5,97.9c0-0.7,0.1-1.4,0.3-1.9c0.2-0.6,0.5-1,0.8-1.4c0.3-0.4,0.8-0.7,1.2-0.9s1-0.3,1.5-0.3
			c0.5,0,1,0.1,1.5,0.3s0.9,0.5,1.2,0.9c0.3,0.4,0.6,0.9,0.8,1.4c0.2,0.6,0.3,1.2,0.3,1.9c0,0.7-0.1,1.3-0.3,1.9
			c-0.2,0.6-0.5,1-0.8,1.4c-0.3,0.4-0.8,0.7-1.2,0.9s-1,0.3-1.5,0.3c-0.5,0-1-0.1-1.5-0.3s-0.9-0.5-1.2-0.9
			c-0.3-0.4-0.6-0.9-0.8-1.4C157.6,99.3,157.5,98.6,157.5,97.9z M158.1,97.9c0,0.6,0.1,1.1,0.3,1.6c0.2,0.5,0.4,0.9,0.7,1.3
			c0.3,0.4,0.6,0.6,1,0.8c0.4,0.2,0.8,0.3,1.3,0.3s0.9-0.1,1.3-0.3c0.4-0.2,0.7-0.5,1-0.8c0.3-0.4,0.5-0.8,0.7-1.3
			c0.2-0.5,0.3-1,0.3-1.6c0-0.6-0.1-1.1-0.3-1.6c-0.2-0.5-0.4-0.9-0.7-1.3c-0.3-0.4-0.6-0.6-1-0.8c-0.4-0.2-0.8-0.3-1.3-0.3
			s-0.9,0.1-1.3,0.3c-0.4,0.2-0.7,0.5-1,0.8c-0.3,0.4-0.5,0.8-0.7,1.3S158.1,97.3,158.1,97.9z"/>
		<path fill="#232835" d="M168.1,91.4c-0.2,0-0.3-0.1-0.4-0.2s-0.2-0.3-0.2-0.4c0-0.2,0.1-0.4,0.2-0.5c0.1-0.1,0.3-0.2,0.4-0.2
			s0.3,0.1,0.4,0.2c0.1,0.1,0.2,0.3,0.2,0.5c0,0.2-0.1,0.3-0.2,0.4C168.4,91.4,168.3,91.4,168.1,91.4z M167.8,93.6h0.5v8.6h-0.5
			V93.6z"/>
		<path fill="#232835" d="M171.8,89.2h0.5v12.2c0,0.4,0.1,0.5,0.4,0.5c0,0,0.1,0,0.1,0s0.1,0,0.2,0l0.1,0.5c-0.1,0-0.1,0-0.2,0.1
			c-0.1,0-0.2,0-0.3,0c-0.3,0-0.5-0.1-0.6-0.3c-0.2-0.2-0.2-0.5-0.2-0.9V89.2z"/>
		<path fill="#232835" d="M175.2,97.9c0-0.7,0.1-1.3,0.3-1.9s0.5-1,0.8-1.4c0.3-0.4,0.7-0.7,1.2-0.9s0.9-0.3,1.4-0.3
			c1,0,1.8,0.3,2.4,1s0.9,1.7,0.9,2.9c0,0.1,0,0.2,0,0.3s0,0.2,0,0.3h-6.3c0,0.6,0.1,1.1,0.2,1.6c0.2,0.5,0.4,0.9,0.7,1.3
			s0.6,0.6,1.1,0.8s0.9,0.3,1.4,0.3c0.5,0,0.9-0.1,1.3-0.2c0.4-0.1,0.7-0.3,1.1-0.6l0.3,0.5c-0.3,0.2-0.7,0.4-1.1,0.6
			s-0.9,0.3-1.6,0.3c-0.5,0-1-0.1-1.5-0.3c-0.5-0.2-0.9-0.5-1.3-0.9c-0.4-0.4-0.6-0.9-0.8-1.4C175.3,99.3,175.2,98.6,175.2,97.9z
			 M181.6,97.5c0-1.2-0.2-2.1-0.7-2.7s-1.1-0.9-2-0.9c-0.4,0-0.8,0.1-1.1,0.3c-0.4,0.2-0.7,0.4-1,0.7c-0.3,0.3-0.5,0.7-0.7,1.1
			c-0.2,0.4-0.3,0.9-0.4,1.5H181.6z"/>
	</g>
	<g>
		<path fill="#232835" d="M243.2,180.7h-4.8l-1.5,4.2h-0.6l4.2-11.9h0.5l4.2,11.9h-0.6L243.2,180.7z M243,180.2l-0.8-2.4
			c-0.3-0.7-0.5-1.4-0.7-2.1c-0.2-0.6-0.4-1.3-0.7-2.1h-0.1c-0.2,0.7-0.4,1.4-0.7,2.1c-0.2,0.6-0.5,1.3-0.7,2.1l-0.8,2.4H243z"/>
		<path fill="#232835" d="M247.2,176.8h-1.4v-0.4l1.4-0.1l0.1-2.5h0.5v2.5h2.6v0.5h-2.6v5.9c0,0.3,0,0.5,0.1,0.8
			c0,0.2,0.1,0.4,0.2,0.6c0.1,0.2,0.3,0.3,0.5,0.4c0.2,0.1,0.5,0.1,0.8,0.1c0.2,0,0.4,0,0.6-0.1s0.4-0.1,0.6-0.2l0.2,0.5
			c-0.3,0.1-0.5,0.2-0.7,0.2c-0.2,0.1-0.4,0.1-0.6,0.1c-0.4,0-0.7-0.1-1-0.2c-0.3-0.1-0.5-0.3-0.6-0.5c-0.2-0.2-0.3-0.5-0.3-0.8
			c-0.1-0.3-0.1-0.6-0.1-1V176.8z"/>
		<path fill="#232835" d="M252.5,171.9h0.5v3.9v1.9c0.5-0.5,0.9-0.9,1.4-1.2c0.5-0.3,1-0.5,1.6-0.5c0.9,0,1.5,0.3,2,0.8
			s0.6,1.4,0.6,2.5v5.5h-0.5v-5.5c0-1-0.2-1.7-0.5-2.1c-0.3-0.5-0.9-0.7-1.6-0.7c-0.5,0-1,0.1-1.5,0.4c-0.5,0.3-1,0.7-1.5,1.3v6.6
			h-0.5V171.9z"/>
		<path fill="#232835" d="M261.8,171.9h0.5v12.2c0,0.4,0.1,0.5,0.4,0.5c0,0,0.1,0,0.1,0s0.1,0,0.2,0l0.1,0.5c-0.1,0-0.1,0-0.2,0.1
			c-0.1,0-0.2,0-0.3,0c-0.3,0-0.5-0.1-0.6-0.3c-0.2-0.2-0.2-0.5-0.2-0.9V171.9z"/>
		<path fill="#232835" d="M265.2,180.6c0-0.7,0.1-1.3,0.3-1.9s0.5-1,0.8-1.4c0.3-0.4,0.7-0.7,1.2-0.9c0.4-0.2,0.9-0.3,1.4-0.3
			c1,0,1.8,0.3,2.4,1s0.9,1.7,0.9,2.9c0,0.1,0,0.2,0,0.3s0,0.2,0,0.3h-6.3c0,0.6,0.1,1.1,0.2,1.6c0.2,0.5,0.4,0.9,0.7,1.3
			c0.3,0.4,0.6,0.6,1.1,0.8c0.4,0.2,0.9,0.3,1.4,0.3c0.5,0,0.9-0.1,1.3-0.2c0.4-0.1,0.7-0.3,1.1-0.6l0.3,0.5
			c-0.3,0.2-0.7,0.4-1.1,0.6s-0.9,0.3-1.6,0.3c-0.5,0-1-0.1-1.5-0.3c-0.5-0.2-0.9-0.5-1.3-0.9s-0.6-0.9-0.8-1.4
			C265.3,182,265.2,181.4,265.2,180.6z M271.6,180.2c0-1.2-0.2-2.1-0.7-2.7s-1.1-0.9-2-0.9c-0.4,0-0.8,0.1-1.1,0.3
			c-0.4,0.2-0.7,0.4-1,0.7c-0.3,0.3-0.5,0.7-0.7,1.1c-0.2,0.4-0.3,0.9-0.4,1.5H271.6z M268.5,174.6H268l1.7-2.4h0.7L268.5,174.6z"/>
		<path fill="#232835" d="M274.6,176.8h-1.4v-0.4l1.4-0.1l0.1-2.5h0.5v2.5h2.6v0.5h-2.6v5.9c0,0.3,0,0.5,0.1,0.8
			c0,0.2,0.1,0.4,0.2,0.6c0.1,0.2,0.3,0.3,0.5,0.4c0.2,0.1,0.5,0.1,0.8,0.1c0.2,0,0.4,0,0.6-0.1s0.4-0.1,0.6-0.2l0.2,0.5
			c-0.3,0.1-0.5,0.2-0.7,0.2c-0.2,0.1-0.4,0.1-0.6,0.1c-0.4,0-0.7-0.1-1-0.2c-0.3-0.1-0.5-0.3-0.6-0.5c-0.2-0.2-0.3-0.5-0.3-0.8
			c-0.1-0.3-0.1-0.6-0.1-1V176.8z"/>
		<path fill="#232835" d="M280.1,174.1c-0.2,0-0.3-0.1-0.4-0.2c-0.1-0.1-0.2-0.3-0.2-0.4c0-0.2,0.1-0.4,0.2-0.5
			c0.1-0.1,0.3-0.2,0.4-0.2s0.3,0.1,0.4,0.2c0.1,0.1,0.2,0.3,0.2,0.5c0,0.2-0.1,0.3-0.2,0.4C280.4,174.1,280.3,174.1,280.1,174.1z
			 M279.8,176.3h0.5v8.6h-0.5V176.3z"/>
		<path fill="#232835" d="M283.1,183.5c0.4,0.3,0.8,0.6,1.2,0.8c0.4,0.2,1,0.3,1.6,0.3c0.4,0,0.7-0.1,1-0.2c0.3-0.1,0.5-0.2,0.7-0.4
			s0.3-0.4,0.4-0.6c0.1-0.2,0.1-0.5,0.1-0.7c0-0.3-0.1-0.5-0.2-0.7c-0.1-0.2-0.3-0.4-0.5-0.6c-0.2-0.2-0.4-0.3-0.7-0.4
			c-0.3-0.1-0.5-0.2-0.8-0.3c-0.3-0.1-0.7-0.2-1-0.4c-0.3-0.1-0.6-0.3-0.9-0.5c-0.3-0.2-0.5-0.4-0.7-0.7s-0.3-0.6-0.3-0.9
			c0-0.3,0.1-0.6,0.2-0.9c0.1-0.3,0.3-0.5,0.5-0.7c0.2-0.2,0.5-0.4,0.8-0.5c0.3-0.1,0.7-0.2,1.2-0.2c0.4,0,0.9,0.1,1.3,0.2
			c0.4,0.2,0.8,0.4,1.1,0.6l-0.3,0.4c-0.3-0.2-0.6-0.4-0.9-0.6s-0.7-0.2-1.2-0.2c-0.4,0-0.7,0-0.9,0.1c-0.3,0.1-0.5,0.2-0.6,0.4
			s-0.3,0.3-0.4,0.5c-0.1,0.2-0.1,0.4-0.1,0.6c0,0.3,0.1,0.5,0.2,0.7c0.1,0.2,0.3,0.3,0.5,0.5c0.2,0.1,0.4,0.3,0.7,0.4
			c0.2,0.1,0.5,0.2,0.8,0.3c0.3,0.1,0.7,0.3,1,0.4c0.3,0.1,0.7,0.3,0.9,0.5s0.5,0.4,0.7,0.7c0.2,0.3,0.3,0.6,0.3,1.1
			c0,0.3-0.1,0.6-0.2,0.9c-0.1,0.3-0.3,0.5-0.5,0.8c-0.2,0.2-0.5,0.4-0.9,0.5c-0.4,0.1-0.8,0.2-1.2,0.2c-0.6,0-1.2-0.1-1.8-0.4
			c-0.5-0.2-1-0.5-1.4-0.8L283.1,183.5z"/>
		<path fill="#232835" d="M291,176.3h0.5l0.1,1.4h0c0.4-0.5,0.8-0.8,1.3-1.1c0.5-0.3,1-0.5,1.4-0.5c0.7,0,1.2,0.2,1.6,0.5
			c0.4,0.3,0.6,0.8,0.8,1.3c0.5-0.6,1-1,1.5-1.3c0.5-0.3,1-0.5,1.5-0.5c0.9,0,1.5,0.3,1.9,0.8s0.6,1.4,0.6,2.5v5.5h-0.5v-5.5
			c0-1-0.2-1.7-0.5-2.1c-0.3-0.5-0.8-0.7-1.6-0.7c-0.4,0-0.9,0.1-1.3,0.4c-0.4,0.3-0.9,0.7-1.4,1.3v6.6h-0.5v-5.5
			c0-1-0.2-1.7-0.5-2.1c-0.3-0.5-0.8-0.7-1.6-0.7c-0.8,0-1.7,0.6-2.7,1.7v6.6H291V176.3z"/>
		<path fill="#232835" d="M304.8,180.6c0-0.7,0.1-1.3,0.3-1.9s0.5-1,0.8-1.4c0.3-0.4,0.7-0.7,1.2-0.9c0.4-0.2,0.9-0.3,1.4-0.3
			c1,0,1.8,0.3,2.4,1s0.9,1.7,0.9,2.9c0,0.1,0,0.2,0,0.3s0,0.2,0,0.3h-6.3c0,0.6,0.1,1.1,0.2,1.6c0.2,0.5,0.4,0.9,0.7,1.3
			c0.3,0.4,0.6,0.6,1.1,0.8c0.4,0.2,0.9,0.3,1.4,0.3c0.5,0,0.9-0.1,1.3-0.2c0.4-0.1,0.7-0.3,1.1-0.6l0.3,0.5
			c-0.3,0.2-0.7,0.4-1.1,0.6s-0.9,0.3-1.6,0.3c-0.5,0-1-0.1-1.5-0.3c-0.5-0.2-0.9-0.5-1.3-0.9s-0.6-0.9-0.8-1.4
			C304.9,182,304.8,181.4,304.8,180.6z M311.2,180.2c0-1.2-0.2-2.1-0.7-2.7s-1.1-0.9-2-0.9c-0.4,0-0.8,0.1-1.1,0.3
			c-0.4,0.2-0.7,0.4-1,0.7c-0.3,0.3-0.5,0.7-0.7,1.1c-0.2,0.4-0.3,0.9-0.4,1.5H311.2z"/>
	</g>
	<g>
		<path fill="#232835" d="M262.1,95.5c0.3-4.8-3.4-8.9-8.2-9.2c-4.8-0.3-8.9,3.4-9.2,8.2c-0.3,4.8,3.4,8.9,8.2,9.2
			C257.7,104,261.9,100.3,262.1,95.5z"/>
		<path fill="#232835" d="M239,118.6l18.5,8.4c0.5,0.2,1,0.3,1.5,0.3c0.6,0,1.2-0.1,1.7-0.4c1-0.5,1.7-1.5,1.9-2.6l1-6.5l8.9,11.3
			l-11,8.1c-1,0.8-1.6,2-1.5,3.3c0.1,1.3,0.9,2.4,2.1,2.9l22.3,10.5c0.5,0.2,1,0.3,1.5,0.3c1.4,0,2.7-0.8,3.3-2.1
			c0.8-1.8,0.1-4-1.7-4.8l-16.8-7.9l11.1-8.1l23.6,27.2c0.7,0.8,1.7,1.2,2.7,1.2c0.8,0,1.7-0.3,2.4-0.9c1.5-1.3,1.7-3.6,0.4-5.1
			L283,121.8c-0.2-0.2-0.4-0.4-0.6-0.5l-12-15.3l5.5-2.6l3.8,10.8c0.5,1.5,1.9,2.4,3.4,2.4c0.4,0,0.8-0.1,1.2-0.2
			c1.9-0.7,2.9-2.7,2.2-4.6l-5.2-14.6c-0.3-1-1.1-1.7-2-2.1c-0.9-0.4-2-0.4-2.9,0.1l-15.6,7.3c-0.8,0.4-1.4,1-1.8,1.8
			c-0.6,0.5-1,1.3-1.1,2.1l-1.9,12.2l-14.1-6.5c-1.8-0.8-4,0-4.8,1.8C236.3,115.7,237.1,117.8,239,118.6z"/>
	</g>
</g>
</svg>
