<?xml version="1.0" encoding="utf-8"?>
<!-- Generator: Adobe Illustrator 18.1.1, SVG Export Plug-In . SVG Version: 6.00 Build 0)  -->
<svg version="1.1" id="Calque_1" xmlns="http://www.w3.org/2000/svg" xmlns:xlink="http://www.w3.org/1999/xlink" x="0px" y="0px"
	 viewBox="0 0 1280 800" enable-background="new 0 0 1280 800" xml:space="preserve">
<g>
	<path fill="#DB543A" stroke="#DB543A" stroke-width="2" stroke-miterlimit="10" d="M413.4,191.1L413.4,191.1c-1.9,0-3.9,0-5.8,0
		c-52.7-2.9-92.9-48.4-89.5-100.6C321.5,37.7,366.5-2.9,419.2,0s92.9,48.4,89.5,100.6C505.8,151.4,464.2,191.1,413.4,191.1z
		 M413.4,2.4c-49.3,0-90,38.7-92.9,87.5c-2.9,51.3,36.3,95.3,87.5,98.2c51.8,2.9,95.3-36.3,98.2-87.5c2.9-51.3-36.3-95.3-87.5-98.2
		C417.3,2.4,415.3,2.4,413.4,2.4z"/>
	<path fill="#DB543A" stroke="#DB543A" stroke-width="2" stroke-miterlimit="10" d="M1005.9,798.5c-11.6,0-22.7-5.3-30.5-14
		L720,490.4l-118,86.1l180.4,84.2c20.3,9.7,29,33.4,19.3,53.7c-6.8,14-21.3,23.2-36.8,23.2c-5.8,0-11.6-1.5-16.9-3.9L505.8,620.6
		c-13.1-5.8-21.8-18.4-23.2-32.9c-1.5-14,4.8-28.1,16.4-36.8l118.5-86.6l-93.8-118.5L512.6,414c-1.9,12.6-9.7,23.2-20.8,29.5
		c-11.1,5.8-24.7,6.3-35.8,1l-200.2-91.9c-9.7-4.4-17.4-12.6-21.3-22.7c-3.9-10.2-3.4-21.3,1-31c6.8-14.5,21.3-23.7,36.8-23.7
		c5.8,0,11.6,1.5,16.9,3.9L441,348.2l20.8-130.6c1.5-8.7,5.8-16.9,12.1-23.2c3.9-8.7,11.1-15.5,19.3-19.8l169.3-79.3
		c10.2-4.8,22.2-5.3,32.9-1s18.9,13.1,22.7,23.7l55.6,158.6c3.9,10.2,2.9,21.3-1.5,31c-4.8,9.7-13.1,16.9-23.2,20.8
		c-4.4,1.5-9.2,2.4-13.5,2.4c-16.9,0-32.4-10.6-38.2-27.1l-41.1-115.6l-57.1,27.1l129.1,164.4c2.4,1.9,4.4,3.9,6.3,5.8l301.3,346.3
		c14.5,16.9,13.1,42.6-3.9,57.1C1024.8,794.7,1015.6,798.5,1005.9,798.5z M719.6,487.5c0.5,0,0.5,0,1,0.5l256.3,294.6
		c7.3,8.2,17.9,13.1,28.5,13.1c9.2,0,17.9-3.4,25.2-9.2c16-14,17.4-37.7,3.9-53.7L733.1,386.5c-1.9-1.9-3.9-3.9-6.3-5.8l0,0
		L596.2,214.8c0-0.5-0.5-0.5,0-1c0.5-0.5,0.5-0.5,0.5-1l60-28.1c0.5,0,0.5,0,1,0s0.5,0.5,0.5,0.5l41.6,117
		c5.3,15,19.8,25.2,35.8,25.2c4.4,0,8.7-1,12.6-2.4c9.7-3.4,17.4-10.2,21.8-19.3s4.8-19.3,1.5-29l-55.6-157.2
		c-3.4-10.2-11.1-18.4-21.3-22.2c-9.7-3.9-21.3-3.9-31,0.5L494.7,177c-8.2,3.9-14.5,10.6-18.4,18.9c0,0,0,0.5-0.5,0.5
		c-6.3,5.8-10.2,13.5-11.6,21.8l-20.8,132.5c0,0.5-0.5,0.5-0.5,1c-0.5,0-1,0-1,0l-153.3-70.1c-4.8-2.4-10.2-3.4-16-3.4
		c-15,0-28.5,8.7-34.8,22.2c-4.4,9.2-4.8,19.8-1,29c3.4,9.7,10.6,16.9,19.8,21.3l200.2,91.4c10.6,4.8,23.7,4.4,33.9-1
		c10.6-5.8,17.9-16,19.8-27.6l11.1-70.6c0-0.5,0.5-1,1-1c0.5,0,1,0,1.5,0.5l95.8,121.9c0,0.5,0.5,0.5,0.5,1s0,0.5-0.5,1l-119.5,87.5
		c-10.6,7.7-16.9,21.3-15.5,34.3c1.5,13.5,9.7,25.2,21.8,31l242.3,113.2c5.3,2.4,10.6,3.4,16,3.4c14.5,0,28.1-8.7,34.3-21.8
		c8.7-18.9,0.5-41.6-18.4-50.8L598.6,578c-0.5,0-0.5-0.5-0.5-1s0-1,0.5-1l120.4-88C719.1,487.5,719.6,487.5,719.6,487.5z"/>
</g>
</svg>
