<?xml version="1.0" encoding="utf-8"?>
<!-- Generator: Adobe Illustrator 18.1.1, SVG Export Plug-In . SVG Version: 6.00 Build 0)  -->
<svg version="1.1" id="Calque_1" xmlns="http://www.w3.org/2000/svg" xmlns:xlink="http://www.w3.org/1999/xlink" x="0px" y="0px"
	 viewBox="0 0 168.7 165.4" enable-background="new 0 0 168.7 165.4" xml:space="preserve">
<g>
	<path fill="#DB543A" d="M37.5,39.5C37.5,39.5,37.5,39.5,37.5,39.5c-0.4,0-0.8,0-1.2,0c-10.9-0.6-19.2-10-18.5-20.8
		C18.5,7.8,27.8-0.6,38.7,0c10.9,0.6,19.2,10,18.5,20.8C56.6,31.3,48,39.5,37.5,39.5z M37.5,0.5c-10.2,0-18.6,8-19.2,18.1
		c-0.6,10.6,7.5,19.7,18.1,20.3c10.7,0.6,19.7-7.5,20.3-18.1c0.6-10.6-7.5-19.7-18.1-20.3C38.3,0.5,37.9,0.5,37.5,0.5z"/>
	<path fill="#DB543A" d="M160,165.1c-2.4,0-4.7-1.1-6.3-2.9l-52.8-60.8l-24.4,17.8l37.3,17.4c4.2,2,6,6.9,4,11.1
		c-1.4,2.9-4.4,4.8-7.6,4.8c-1.2,0-2.4-0.3-3.5-0.8l-50.1-23.4c-2.7-1.2-4.5-3.8-4.8-6.8c-0.3-2.9,1-5.8,3.4-7.6l24.5-17.9
		L60.3,71.5L58,85.6c-0.4,2.6-2,4.8-4.3,6.1c-2.3,1.2-5.1,1.3-7.4,0.2L4.9,72.9c-2-0.9-3.6-2.6-4.4-4.7c-0.8-2.1-0.7-4.4,0.2-6.4
		c1.4-3,4.4-4.9,7.6-4.9c1.2,0,2.4,0.3,3.5,0.8L43.2,72l4.3-27c0.3-1.8,1.2-3.5,2.5-4.8c0.8-1.8,2.3-3.2,4-4.1L89,19.7
		c2.1-1,4.6-1.1,6.8-0.2c2.2,0.9,3.9,2.7,4.7,4.9L112,57.2c0.8,2.1,0.6,4.4-0.3,6.4c-1,2-2.7,3.5-4.8,4.3c-0.9,0.3-1.9,0.5-2.8,0.5
		c-3.5,0-6.7-2.2-7.9-5.6l-8.5-23.9l-11.8,5.6l26.7,34c0.5,0.4,0.9,0.8,1.3,1.2l62.3,71.6c3,3.5,2.7,8.8-0.8,11.8
		C163.9,164.3,162,165.1,160,165.1z M100.8,100.8c0.1,0,0.1,0,0.2,0.1l53,60.9c1.5,1.7,3.7,2.7,5.9,2.7c1.9,0,3.7-0.7,5.2-1.9
		c3.3-2.9,3.6-7.8,0.8-11.1l-62.3-71.6c-0.4-0.4-0.8-0.8-1.3-1.2c0,0,0,0,0,0l-27-34.3c0-0.1-0.1-0.1,0-0.2s0.1-0.1,0.1-0.2
		l12.4-5.8c0.1,0,0.1,0,0.2,0c0.1,0,0.1,0.1,0.1,0.1l8.6,24.2c1.1,3.1,4.1,5.2,7.4,5.2c0.9,0,1.8-0.2,2.6-0.5c2-0.7,3.6-2.1,4.5-4
		c0.9-1.9,1-4,0.3-6L100,24.7c-0.7-2.1-2.3-3.8-4.4-4.6c-2-0.8-4.4-0.8-6.4,0.1L54.3,36.6c-1.7,0.8-3,2.2-3.8,3.9c0,0,0,0.1-0.1,0.1
		c-1.3,1.2-2.1,2.8-2.4,4.5l-4.3,27.4c0,0.1-0.1,0.1-0.1,0.2c-0.1,0-0.2,0-0.2,0L11.7,58.2c-1-0.5-2.1-0.7-3.3-0.7
		c-3.1,0-5.9,1.8-7.2,4.6c-0.9,1.9-1,4.1-0.2,6c0.7,2,2.2,3.5,4.1,4.4l41.4,18.9c2.2,1,4.9,0.9,7-0.2c2.2-1.2,3.7-3.3,4.1-5.7
		l2.3-14.6c0-0.1,0.1-0.2,0.2-0.2c0.1,0,0.2,0,0.3,0.1L80.2,96c0,0.1,0.1,0.1,0.1,0.2s0,0.1-0.1,0.2l-24.7,18.1
		c-2.2,1.6-3.5,4.4-3.2,7.1c0.3,2.8,2,5.2,4.5,6.4l50.1,23.4c1.1,0.5,2.2,0.7,3.3,0.7c3,0,5.8-1.8,7.1-4.5c1.8-3.9,0.1-8.6-3.8-10.5
		l-37.7-17.6c-0.1,0-0.1-0.1-0.1-0.2c0-0.1,0-0.2,0.1-0.2l24.9-18.2C100.7,100.8,100.8,100.8,100.8,100.8z"/>
</g>
</svg>
