<?xml version="1.0" encoding="utf-8"?>
<!-- Generator: Adobe Illustrator 18.1.1, SVG Export Plug-In . SVG Version: 6.00 Build 0)  -->
<svg version="1.1" id="Calque_1" xmlns="http://www.w3.org/2000/svg" xmlns:xlink="http://www.w3.org/1999/xlink" x="0px" y="0px"
	 viewBox="0 0 53.3 51.9" enable-background="new 0 0 53.3 51.9" xml:space="preserve">
<polygon fill="#EFEFED" points="52.4,11.7 53.2,11 53.3,10.3 52.5,8.9 51.3,8.6 50.2,7.3 49.1,7.7 46.4,5.8 45.8,2.7 44.8,2.1 
	40.7,4.3 39.6,4.3 39.7,4.3 39.7,3.2 38.4,2.6 37.7,0.4 36.7,0 36.4,0.7 33,0.7 30.5,2.2 29.6,1.7 28.7,2.2 27.5,0.7 27.4,0.7 
	24.3,0.6 24.2,5.2 23.6,6.1 24.4,12.6 22.3,13.4 21,16.7 20.8,17.4 18.3,16.1 14.9,17.6 14.3,18.6 9.4,18.8 7.5,20 7.3,22.3 1.7,24 
	0,25.6 0.9,27.9 3.1,28.3 3.9,29 5.7,27.7 8.4,27.4 5.9,28.4 5.7,30.8 4.5,31.3 6.7,32.1 8.5,34 5.6,37.1 5.8,38.7 9.6,43.2 
	10.4,45.9 13.4,48.3 15.2,48.8 15.8,50.1 18,50.5 19.8,51.9 20,50.9 21.1,51.1 24.4,49.8 23.9,50.9 26.3,50.8 27.1,51.4 30.5,49.8 
	29.6,49 29.7,46.3 27.9,39.6 26.3,38.1 25.5,36 30.1,35.7 31.4,33.9 33.5,33.6 37.1,33.5 38,34.2 40.5,31.7 40.4,31.7 42.6,26.3 
	43.2,22.9 43.5,22 45.7,23 45.5,21.9 46.7,22 49.7,20.3 49.7,20.3 49.8,19 50.9,18.6 53.2,14.6 53.1,12.6 "/>
</svg>
