<?xml version="1.0" encoding="utf-8"?>
<!-- Generator: Adobe Illustrator 18.1.1, SVG Export Plug-In . SVG Version: 6.00 Build 0)  -->
<svg version="1.1" id="Calque_1" xmlns="http://www.w3.org/2000/svg" xmlns:xlink="http://www.w3.org/1999/xlink" x="0px" y="0px"
	 viewBox="0 0 501.6 600" enable-background="new 0 0 501.6 600" xml:space="preserve">
<path fill="#FFFFFF" d="M501.6,176.7l-7.1-47.6L475,114.4l6.9-40.2l-22.8-31.8l-22.5-22.3l-26.9,5.2l-4-4.7L405,4.5l-30.4,0.8
	l-14.5,16l-4,12.7l-32.7,26.4l-2.5,23.5l-18.1,12.8l-8.8-2.2l-15.4,21.8l-14.7,4.6l-23.3-14.3l-12.2-24l-21.4-11l-17.1-0.4
	l-7.2,13.1l-4.2-13.2L145,35.2l-7.2-23.5l-19.6,30.9l-22,171l19.9-18.8l7.2,8.5l-12.9-2.2l-17.3,43L55.5,412.6l-9.1,16.6l-19.9,26.7
	L0,466.9l30.9,30.9l26.7,4.3L44.4,535l111.7,32l32.1,33l36.3-8.9l52.9-102l-4.2-35.9l-10.8-21.3h-24.1l16.9-62.2l19.1-0.2l6.6,5.8
	l12.3,4.7l1.6-20.2l29.6-0.4L370,349l5.3,6.3l32-23.2l16-28l-6.5-16.6l3.1-3.8h30.8l-17.8-31.2l12.8-13.7L501.6,176.7z M420.5,251
	l12.8,22.5h-18.1l-9.9,12.1l6.9,17.6l-12.5,21.9l-22.6,16.3l-3.2-3.8l-50.6,11.6l-37.8,0.6l-1.2,14.9l-6.1-5.4l-30.8,0.4L225,442.1
	h31.1l7.1,14.1l3.6,31l-49.2,95.1l-26.2,6.4l-30-30.8L58,528.3L71.7,494l-36-5.8l-17.8-17.8l15-6.3l21.8-29.2l0.2-0.3L65,416.1
	l37.7-169l13.9-34.6l32.3,5.5l-32.1-38.1l-7,6.6L128,46.1l6.5-10.2l1.4,4.6l33.5,36l4.2,13.3l10.6,12.9l11.6-21.1l8.6,0.2l16.4,8.4
	l12,23.6l29.7,18.3l22.4-7l13.2-18.8l6.5,1.6l25.7-18.2l2.6-23.9l31.8-25.7l4.3-13.5l10.2-11.3l16-0.4l0.4,9.8l10.2,11.8l27.4-5.3
	l18,17.9L471,76.8l-7.2,42.1l21.1,15.9l5.8,38.8L438.3,232L420.5,251z"/>
</svg>
