<?xml version="1.0" encoding="utf-8"?>
<!-- Generator: Adobe Illustrator 18.1.1, SVG Export Plug-In . SVG Version: 6.00 Build 0)  -->
<svg version="1.1" id="Calque_1" xmlns="http://www.w3.org/2000/svg" xmlns:xlink="http://www.w3.org/1999/xlink" x="0px" y="0px"
	 viewBox="0 0 749.6 600" enable-background="new 0 0 749.6 600" xml:space="preserve">
<g id="ile_de_france">
	<path fill="#FFFFFF" d="M94.1,24.8l3.1,5.8l2.5,4.7l5.3,0.6l69.5,7.5l1.8,0.2l1.8-0.5L228.7,30l42.7,21.9l3.8,2l4.1-1.4l21.5-7.6
		l135.5,48.7l2.2,0.8l2.3-0.3l133.2-15.9l21.6,4V119v4.9l3.9,3l109.7,85.4L685.1,251l-2.4,3.9l1.4,4.4l21.2,68l1.7,5.6l5.7,1.2
		l16.6,3.6l-38,37.3l-2.2,2.2l-0.6,3l-15.3,77.1l-104.2,8.7l-8.4,0.7l-0.7,8.4l-4.9,55.5L489.3,583l-6.2-8.8l-5.3-7.5l-7.9,4.6
		L442,587.5l-62.8,1.4l1.2-1l0.3-4.2l2.9-37.7l0.5-5.9l-5-3.2l-17.6-11.3l-18.1-33.1l-2.2-4.1l-4.5-0.9l-24.7-5.1l-3.1-0.6l-2.9,1.2
		l-21.1,9.1l-10-12.8l-7-9.1l-8,8.2L240,498.6l-50.4-0.5l2.1-43.8l0.1-2.8l-1.3-2.4l-17.7-32.9l-2.3-4.2l-4.7-0.9l-30.2-5.6
		L124,370.9l-0.9-2.8l-2.3-1.8l-25.9-20.4l-36.4-58.2L53.6,233l-0.1-1.1l-0.3-1.1L12.8,104.1l52.8-13l5.2-1.3l1.8-5.1L94.1,24.8
		 M92.4,0L63.2,81.4L0,96.9l43.7,136.9l5,57l38.6,61.7l27.3,21.5l13.4,40.2l36,6.7l17.7,32.9l-2.6,54.1l65.1,0.6l22.8-23.3l14.7,19
		l28.2-12.1l24.7,5.1l19.3,35.4l19.7,12.7l-2.9,37.7l-20,16.6l94.1-2.1l30.2-17.5l12.4,17.5l77.1-61.8l5.3-59.8l111.8-9.4l16.7-84.5
		l51.4-50.3l-34.8-7.5l-21.2-68l28.9-46.3l-116.8-91V73.9l-31.2-5.9L439.7,84.2L300.9,34.3L276,43l-46.1-23.7l-54.4,14.1L106,26
		L92.4,0L92.4,0z"/>
</g>
</svg>
