<?xml version="1.0" encoding="utf-8"?>
<!-- Generator: Adobe Illustrator 18.1.1, SVG Export Plug-In . SVG Version: 6.00 Build 0)  -->
<svg version="1.1" id="Calque_1" xmlns="http://www.w3.org/2000/svg" xmlns:xlink="http://www.w3.org/1999/xlink" x="0px" y="0px"
	 viewBox="0 0 666.1 600" enable-background="new 0 0 666.1 600" xml:space="preserve">
<path fill="#FFFFFF" d="M653.2,206.7l-22.6-3.5l-16-15.1l-5.8-40.8l-8.9-27l-59-93.1L516,31.6l-24.9,65.2H445l5.4-35.9l-16.8-40.3
	h-53.2l-29.3-20l-52.8,10.6l3.1,33.3L230,120.3l4.8,24.9l-27.5,8.9l6.6,42.6l-22.4,30.1H149l-20.4,15.1l-25.3-8.9l-26.6,15.1H33.3
	L7.1,331.5l39,31l0.4,39.5L0,481.8V512l27.5,28.9l22.6,25.7l45.3-9.8l12,9.8l83.9,3.5v-37.2l48.8,15.6l12.9,21.2l32-7.9l24.9,37.6
	l19.1-18.2l28,13.7l32.8-3.5l55.5-23.5l-16.8-34.6h-30.1l14.6-14.6l-7.5-60.7l-34.1-11.6l-9.3-23.9l18.7-12.4l2.3-10.6l62.5,6.7
	l7.5-12.9l28,7.9l47.4-10.2v-36.4l51.1-16.4l24.3-10.6c0,0-10.9-22.5-9.4-22.5c0.1,0,0.3,0.1,0.5,0.3c3.5,3.5,25.3,7.1,25.3,7.1
	l9.8-25.3L647,280l19.1-34.6l-26.2-12.4L653.2,206.7z M652.2,249.8l-12.3,22.3l-14,5.7l-4,1.6l-1.6,4l-6.8,17.6
	c-5.7-1.2-10.8-2.5-12.6-3.4c-2.5-2.2-5.1-2.6-6.9-2.6c-3.5,0-6.7,1.8-8.6,4.7c-3.3,5.3-1.1,10.3,3.8,21.1c0.2,0.5,0.5,1.1,0.7,1.6
	l-14.5,6.3L525.1,345l-6.9,2.2v7.3v28.3l-37.1,8l-25.6-7.3l-7.5-2.1l-3.9,6.7l-4.2,7.3l-56.1-6l-9-1l-1.9,8.8l-1.4,6.6l-15.3,10.2
	l-6.7,4.5l2.9,7.5l9.3,23.9l1.7,4.3l4.4,1.5l28.2,9.6l6.1,49.6l-11.1,11.1L374,543.2h24.1H422l9.5,19.5l-44.4,18.8l-28.5,3.1
	l-25.4-12.5l-6.3-3.1l-5,4.8l-10.4,10l-18.3-27.7l-3.9-5.9l-6.9,1.7l-24.8,6.2l-9.1-14.9l-1.9-3.2l-3.6-1.1l-48.8-15.6l-13-4.2v13.7
	v26.8l-70.1-3l-9.4-7.7l-3.7-3l-4.7,1l-39.5,8.5L35,534.2l-0.1-0.1l-0.1-0.1L10,508v-23.5L55.2,407l1.4-2.4l0-2.8l-0.4-39.5
	l-0.1-4.8l-3.7-3l-33.7-26.7l21.9-69.8h36.1h2.6l2.3-1.3l22.6-12.9l21,7.4l5,1.8l4.3-3.2l17.7-13.2h39.3h5l3-4l22.4-30.1l2.5-3.4
	l-0.6-4.1l-5.3-34.2l19.3-6.3l8.4-2.7l-1.7-8.7l-3.9-19.9l67.9-72.1l3.1-3.3l-0.4-4.5l-2.3-24.3l39.8-8l25.8,17.6l2.5,1.7h3.1h46.5
	l13.2,31.6l-5,33.2l-1.7,11.5H445h46.1h6.9l2.5-6.4l22.9-59.9l12.7-2.2l54.7,86.4l8.2,25l5.7,39.9l0.5,3.5l2.5,2.4l16,15.1l2.3,2.1
	l3.1,0.5l9,1.4l-7.1,13.9l-4.7,9.2l9.3,4.4L652.2,249.8z"/>
</svg>
