<?xml version="1.0" encoding="utf-8"?>
<!-- Generator: Adobe Illustrator 18.1.1, SVG Export Plug-In . SVG Version: 6.00 Build 0)  -->
<svg version="1.1" id="Calque_1" xmlns="http://www.w3.org/2000/svg" xmlns:xlink="http://www.w3.org/1999/xlink" x="0px" y="0px"
	 viewBox="0 0 630.9 600" enable-background="new 0 0 630.9 600" xml:space="preserve">
<path fill="#FFFFFF" d="M527.9,71.6l-6.6-39.5h-22.6l-37.8,22.7l-18.2-15.2L422.6,0l-19.7,22.6l-73.7,9.5l-33.7-15.2l-26.8,9.5
	l9.5,13.2l-2.1,28l-12.7,21l12.7,55.1l-17,11.6l-22.2,41.5l-25.5-12.7l-38.7,12.7l-3.8,15.7l-76.5,7L89.4,251L0,285.6L7,319
	l44.4,18.9l16.9-6.2l1.3,11.9l-12,15.7l37.1,21.8l-11.1,21.7l-20.1,16.1l4.9,30.5l20.2,6.2l27.1,46.5l5.8,28l50.6,27.2l10.7,19.3
	l14.8-3.3l30.5,26.4l16.9-14.8l23.9-11.6l15.2,15.2l6.6-3.7l30.5,5.7l39.4-17.7l-19.3-24.2l-4.9-18.6l8.2-30l-36.2-86.8l55.5-3.8
	l-6.2-14.4l84.7,5l8.2-18.9l19.8-8.6v-30l21.8-17.3l2.5-58.9l23,14.4l50.2-29.6l-2.1-13.6l32.8-27.9v-12.9l12.4-17.6l-6.2-23.9
	l25.9-28.8L527.9,71.6z M595.3,157.7l5,19.4l-9.8,13.8l-1.8,2.6v3.2v8.2l-29.3,24.9l-4.2,3.6l0.8,5.5l1,6.9l-39.2,23.1l-17.9-11.2
	l-14.6-9.1l-0.7,17.2l-2.3,54.3l-18.2,14.4l-3.8,3v4.8v23.5l-13.8,6l-3.6,1.6l-1.6,3.6l-5.4,12.5l-77.7-4.6l-16.1-0.9l6.4,14.9
	l0.6,1.4l-41.5,2.8l-13.9,0.9L299,417l34.9,83.6l-7.3,26.7l-0.7,2.6l0.7,2.6l4.9,18.6l0.5,2.1l1.3,1.7l11.3,14.1l-24.8,11.1
	l-27.4-5.1l-3.6-0.7l-3.2,1.8l-9.9-9.9l-5-5l-6.4,3.1l-23.9,11.6l-1.2,0.6l-1,0.9l-10.3,9.1l-23.9-20.7l-3.8-3.3l-4.9,1.1l-7.5,1.7
	l-7.1-12.8l-1.4-2.6l-2.6-1.4l-46.5-25l-4.9-23.4l-0.3-1.6l-0.8-1.4l-27.1-46.5l-2-3.4l-3.7-1.1l-14.2-4.3l-3-18.6l15.6-12.5
	l1.7-1.3l1-1.9l11.1-21.7l4.3-8.4l-8.1-4.8l-27.3-16.1l5.1-6.7l2.4-3.2l-0.4-4l-1.3-11.9l-1.4-12.7l-12,4.4l-13.1,4.8l-36-15.3
	l-4.2-20L93,260.3l5.7-2.2l0.6-6.1l2.4-23.5l68.3-6.3l7.1-0.7l1.7-7l2.5-10.3l29.5-9.7l21.8,10.9l8.7,4.4l4.6-8.6l21-39.3l14.9-10.2
	l5.7-3.9l-1.5-6.7l-11.8-51.1l10.6-17.5l1.3-2.1l0.2-2.4l2.1-28l0.3-3.6l-2.1-3l-1.7-2.4l10.4-3.7l30,13.6l2.6,1.2l2.8-0.4l73.7-9.5
	L408,32l2.5-2.9l9.9-11.4l13.5,26.4l0.9,1.8l1.6,1.3l18.2,15.2L460,67l6.1-3.7l35.4-21.3h11.3l5.2,31.2l0.8,4.9l4.4,2.3l91.7,48.7
	l-17.4,19.3l-3.6,4L595.3,157.7z"/>
</svg>
