<?xml version="1.0" encoding="utf-8"?>
<!-- Generator: Adobe Illustrator 18.1.1, SVG Export Plug-In . SVG Version: 6.00 Build 0)  -->
<svg version="1.1" id="Calque_1" xmlns="http://www.w3.org/2000/svg" xmlns:xlink="http://www.w3.org/1999/xlink" x="0px" y="0px"
	 viewBox="0 0 310.1 600" enable-background="new 0 0 310.1 600" xml:space="preserve">
<path fill="#FFFFFF" d="M257,10.9l-9.9-5.3L214.7,5h-10.3l-30.5,2.5l-22,36.1l-24.8-0.5l-28.7,3.5L78.1,36.1l-15.9-6.5L39.8,0
	L25.2,45.5L11.5,79.1l26,10.6l-8.6,9.1l22.8,17L61,98.8l29.4,16.4l-8.6,35.1l4.5,4.6l-22.7,43.7H44.7l4.6,72.2L75,284.2L0,464
	l44.2,26.4L43.6,532l49.3,61.8l21.6,5.1l33.2-5.1l27.5-41.4l19.7-19.8l-19-29.2l3.1-26l-2.2-16l3.8-14.6l2.8-20.8l9.1-35.2
	L180.4,369l-1.1-24.6l19.7-39.6l10.4-31.8l8-61.5l7.6-13.4l0.9-28.6l15-21.2l42.5-51.4l0.5-0.6l26.2-67.7l-35.8-8.4L257,10.9z
	 M275,91.1L232.9,142l-17.1,24.2l-0.9,29.2l-7.4,13l-8.2,62.5l-9.8,30.2L169,342.3l1.5,29.4l11.3,20.3l-8.2,31.7l-2.8,20.8
	l-4.4,16.3l2.2,16.8l-3.3,28.4l16.6,25.4l-14.7,14.8l-25.4,38.2l-26.9,4l-16.3-3.8l-44.8-56.2l0.6-43.8l-41.7-25l75.2-180.2
	L59,264.5l-3.5-55.9h14.4L98.8,153l-5.7-5.8l9-37.1L57.1,85l-8.7,15.9L44,97.6l10.8-11.5L24.6,73.7l9.9-24.5l8.8-27.5L55.8,38
	l17.7,7.2l23,12l31.2-3.9l29.8,0.5l22.4-36.7l24.7-2.1h9.9l30,0.7l7.8,4l18.4,9.9l25.8,6L275,91.1z"/>
</svg>
