<?xml version="1.0" encoding="utf-8"?>
<!-- Generator: Adobe Illustrator 18.1.1, SVG Export Plug-In . SVG Version: 6.00 Build 0)  -->
<svg version="1.1" id="Calque_1" xmlns="http://www.w3.org/2000/svg" xmlns:xlink="http://www.w3.org/1999/xlink" x="0px" y="0px"
	 viewBox="0 0 487.9 600" enable-background="new 0 0 487.9 600" xml:space="preserve">
<path fill="#FFFFFF" d="M472.6,104.9L463.3,63L446,57l-43.2-34.9V2.7h-35.8l-80.3,62.7l-26.5-10.6l-48.8,27.8h-59.4L84.8,129
	l-40.4,10.6L1.3,227.8l8.4,23.2l54.2,19l1.4,54.3l9.3,29.7l10.2,21.4l-0.9,52L96.5,447l-17.6,41.7L96.5,505l45.1,7v18.6l42.7,25.6
	l-11.2,16.2l11.2,29.3l46.8-13.5l71.5-26l73.8-3.7v-27.9l34.9-53.4l-8.4-34.9l38.5-14.8l23.2-61.8h23.2l-15.3-75.3l15.3-47.8
	l-7.9-10.2l-8.4-32.5l16.3-67.3L472.6,104.9z M461.9,202.4l8.4,32.5l0.5,2l1.3,1.6l4.7,6l-13.7,42.8l-0.8,2.5l0.5,2.6l12.8,63.3h-11
	h-6.9l-2.4,6.5l-21.7,57.6L399.3,433l-8.2,3.2l2.1,8.5l7.4,30.7L368,525.1l-1.6,2.5v3V549l-64.3,3.2l-1.5,0.1l-1.4,0.5L228,578.6
	l-37.7,10.9l-6-15.8l8.2-11.8l6.1-8.8l-9.2-5.5l-37.9-22.7V512v-8.6l-8.5-1.3l-42-6.5l-10.2-9.4l14.9-35.3l2-4.9l-2.8-4.4L94,424.7
	l0.8-49l0-2.4l-1-2.1L84,350.5l-8.7-27.7l-1.4-53l-0.2-6.9l-6.5-2.3l-49.8-17.5l-5.4-14.8l39.3-80.3l36-9.5l1.7-0.4l1.4-1l64.7-44.7
	h56.3h2.6l2.3-1.3l44.6-25.4l22,8.8l5.3,2.1l4.5-3.5l77.5-60.5h22.3v9.5v4.8l3.7,3l43.2,34.9l1.4,1.1l1.7,0.6l12,4.2l8.1,36.4
	l0.3,1.4l0.7,1.3l13.4,24.4l-15.4,63.5l-0.6,2.4L461.9,202.4z"/>
</svg>
