<?xml version="1.0" encoding="utf-8"?>
<!-- Generator: Adobe Illustrator 18.1.1, SVG Export Plug-In . SVG Version: 6.00 Build 0)  -->
<svg version="1.1" id="Calque_1" xmlns="http://www.w3.org/2000/svg" xmlns:xlink="http://www.w3.org/1999/xlink" x="0px" y="0px"
	 viewBox="0 0 800 465.6" enable-background="new 0 0 800 465.6" xml:space="preserve">
<path fill="#FFFFFF" d="M785,136.7l-45.7-16.9l-25,23.1l-21.1-36.3L686,94.2l-57,1.4l-2.4-26.8L557.8,90l-31.6-21.2l-79.3,40.1
	L396,14.1L373.8,0H346l-64.2,6.1l-23.5,21.7l-1.4,16.5l-75-10.4l-71.2,10.4L10.4,87.2l4.6,58l65.1-0.5l30.2,9.9l-41.5-2.4L41,161.2
	l13.7,37.3l22.6-4.3l22.6,8.9L97,214l-15.1-1l-64,13.7L0,239l49,16.1l20.3,33v34.4l53.8,3.8l13.7-16.5l31.1,5.2l5.2,19.3l34.9,5.7
	l33,11.8l16.1,15.5l24.9,6.1l21.2,16.1l28.8,25.4l39.6,7l26,24l53.7-4.6l6.7,22.6l58.9-6.7h25.4l27.4-47.1l81.5-20.7l42.1-22.2
	l51.9,13.7l29.2-63.6l18.9-8.5l6-17.5L785,223l14.1-16.1L785,136.7z M775,225l13.6,65.6l-3.7,10.7l-14.9,6.7l-3.5,1.6l-1.6,3.4
	L739.3,369l-43.6-11.5l-3.8-1l-3.5,1.8l-41,21.6L567,400.4l-4.1,1l-2.1,3.7l-24.5,42.1h-19.6h-0.6l-0.6,0.1l-50.4,5.7l-4.3-14.5
	l-2.3-7.9l-8.2,0.7l-49.2,4.3l-22.7-21l-2.2-2l-2.9-0.5l-36.8-6.5l-26.7-23.6l-0.3-0.3l-0.3-0.2L288,365.3l-1.7-1.3l-2-0.5
	l-22.3-5.5l-14.1-13.6l-1.6-1.5l-2.1-0.7l-33-11.8l-0.9-0.3l-0.9-0.1l-28.5-4.7l-3.5-13l-1.7-6.3l-6.4-1.1l-31.1-5.2l-5.7-1
	l-3.7,4.5l-10.4,12.5l-39.2-2.8v-25v-2.9l-1.5-2.4l-20.3-33l-1.9-3.2l-3.5-1.2l-29-9.5l59.6-12.7l13.7,0.9l8.3,0.5l2.1-8l2.9-10.9
	l2.3-8.7l-8.4-3.3L81,184.8l-2.7-1.1l-2.9,0.5L61.2,187l-7.1-19.4l16-5.1l39.6,2.3l77.2,4.4L113.5,145l-30.2-9.9l-1.6-0.5l-1.7,0
	L24.3,135L21,93.7l92.5-39.5l68.4-10l73.6,10.2l10.6,1.5l0.9-10.6l1.1-12.6l18.1-16.7l60.3-5.8h24.4l17.5,11.1l49.6,92.4l4.7,8.7
	l8.8-4.5l74-37.4l26.7,17.9l4,2.7l4.6-1.4l56.8-17.5l1.3,14.4l0.8,9.5l9.5-0.2l51-1.3l4.1,7.1l21.1,36.3l6.3,10.9l9.3-8.6l20.5-18.9
	l34.6,12.8l12,59.7l-10.8,12.3l-3.3,3.8L775,225z"/>
</svg>
