<?xml version="1.0" encoding="utf-8"?>
<!-- Generator: Adobe Illustrator 18.1.1, SVG Export Plug-In . SVG Version: 6.00 Build 0)  -->
<svg version="1.1" id="Calque_1" xmlns="http://www.w3.org/2000/svg" xmlns:xlink="http://www.w3.org/1999/xlink" x="0px" y="0px"
	 viewBox="0 0 539.5 600" enable-background="new 0 0 539.5 600" xml:space="preserve">
<path fill="#FFFFFF" d="M525.3,115.6l-33.9-55.1l-23.5-10.8l-15.5-28.8l-58.4-10.3L315.7-0.8l-22.2,16.5L245,9.2l-23.5,18.4
	l-26.9-11.8l-83.9,18.4l-5.6,17l-22.2,7.1L44.8,91.1l17.4,19.8l-12.7,46.6l24.5,19.4v13.2l-23.2,5.6l-6,39.2l-23.6,0.9L0,292.2
	l30.6,8.5v22.1l26.9,20.2l16.5-9.4h29.6l24.9,22.2V377l40,11.4l5.3,23.5L153.1,436l9.4,23.5l-12.7,21.2l17,4.7l-4.3,14.1l32,15.5
	l19.8,44.7l23.5-8.9h27.3l23.5,21.1l15.6,28.8l40-14.5l24.9-7.5l41.9-6.7v-31.9l22.2-9.5V515v-35.3l24.9-32.9l18.8-6.1V427h33.9
	v-28.2l7.1-48.6l-7.1-16.5l7.1-14.1V289l-18.8-34.3l40-59L525.3,115.6z M490.7,259.4l17.6,32.1v25.7l-6,12l-2.1,4.2l1.8,4.3l6,13.9
	l-6.7,45.8l-0.1,0.7v0.7V417h-23.9h-10v10v6.4l-11.9,3.9l-3,1l-1.9,2.5l-24.9,32.9l-2,2.7v3.4V515v8.9l-16.1,6.9l-6.1,2.6v6.6v23.4
	l-33.5,5.3l-0.7,0.1l-0.7,0.2l-24.9,7.5l-0.3,0.1l-0.3,0.1l-31.9,11.6l-11.5-21.2l-0.8-1.5l-1.3-1.2l-23.5-21.1l-2.9-2.6h-3.8h-27.3
	h-1.8l-1.7,0.6l-14.7,5.5l-16-36.1l-1.5-3.4L199,506l-24.4-11.8l1.8-5.9l3-9.8l-9.9-2.7l-4.3-1.2l6-10l2.5-4.2l-1.8-4.6l-7.1-17.9
	l16.8-19.5l3.3-3.8l-1.1-4.9l-5.3-23.5l-1.3-5.8l-5.7-1.6l-32.8-9.3v-13.6v-4.5l-3.4-3l-24.9-22.2l-2.8-2.5h-3.8H74.1h-2.6l-2.3,1.3
	l-10.8,6.2l-17.7-13.3v-17.1v-7.6l-7.3-2l-20.1-5.6l15-40.1l17-0.6l8.3-0.3l1.3-8.2l5-32.5l16.7-4l7.7-1.8v-7.9v-13.2V172l-3.8-3
	l-19.3-15.3l11-40.2l1.4-5.2l-3.5-4L59,92.1l28.9-25l20.3-6.5L113,59l1.6-4.8l3.8-11.5l75.1-16.5l23.9,10.5l5.5,2.4l4.7-3.7
	l20.2-15.8l44.3,6l4,0.5l3.3-2.4l18.9-14l74,10.8l53.5,9.4L459,54.4l1.6,2.9l3,1.4l20.8,9.6l31.3,50.9l13.2,74.2L491.2,249l-3.4,5.1
	L490.7,259.4z"/>
</svg>
