<?xml version="1.0" encoding="utf-8"?>
<!-- Generator: Adobe Illustrator 18.1.1, SVG Export Plug-In . SVG Version: 6.00 Build 0)  -->
<svg version="1.1" id="Calque_1" xmlns="http://www.w3.org/2000/svg" xmlns:xlink="http://www.w3.org/1999/xlink" x="0px" y="0px"
	 viewBox="0 0 800 517.3" enable-background="new 0 0 800 517.3" xml:space="preserve">
<path fill="#FFFFFF" d="M729.1,329.2h-91l-24.9-60.4l-46-13.6l-24.6,9.1l-16.2-9.1l-37.7-117.4l-41.2-8.3l-52.5,37.4l-34.7-37.4
	l-16.6-3.8l-9.8-33.2l9.8-15.5L296.3,0l-23.7,16.3l-37.7-8l-59,27.9l-114,17L46,85H6.4l9.5,62.3L0,175.6l15.9,79.7L0,329.2
	l33.2,35.9l45-13.3l33.5,20.8l36.7,21.5l4.9,16.3l25.7,22.3l31.8-13.3l34.7-14l-5,57.8l35.9,13.3l4.5-26.1l55.1,21.9l10.2,22.3
	l90.6-5.7l51.8,17l141.6-17.8l151.4,29.1l16.6-48.7l-16.6-103.1L729.1,329.2z M774.9,505.8l-142.9-27.5l-1.6-0.3l-1.6,0.2
	l-139.4,17.5L440,479.4l-1.8-0.6l-1.9,0.1l-83.7,5.3l-7.4-16.1l-1.7-3.6l-3.7-1.5l-55.1-21.9l-11.4-4.5l-2.1,12.1l-2.5,14.3
	l-17.5-6.5l4.3-50.2l1.4-16.2l-15.1,6.1l-34.7,14l-0.1,0l-0.1,0l-26.1,10.9L162,404.8l-4-13.5l-1.1-3.8l-3.4-2l-36.6-21.4
	l-33.4-20.7l-3.8-2.4l-4.3,1.3l-39,11.5l-25.5-27.5l14.8-68.9l0.4-2l-0.4-2l-15.1-76.1l14-25l1.7-3l-0.5-3.4L18,95h28h6.2l2.8-5.5
	l13.5-27.1l108.8-16.3l1.5-0.2l1.3-0.6l55.9-26.5l34.4,7.3l4.2,0.9l3.5-2.4l15-10.3l38.5,62.7l-6.5,10.3l-2.4,3.8l1.3,4.3l9.8,33.2
	l1.7,5.6l5.7,1.3l13.6,3.1l32.6,35.2l6,6.4l7.2-5.1l49-34.9l31.2,6.3l35.9,111.8l1.2,3.7l3.4,1.9l16.2,9.1l4,2.3l4.3-1.6l21.5-7.9
	l38.3,11.3l23.1,56l2.6,6.2h6.7H726l46.4,32l15.5,96.4L774.9,505.8z"/>
</svg>
