<?xml version="1.0" encoding="utf-8"?>
<!-- Generator: Adobe Illustrator 18.1.1, SVG Export Plug-In . SVG Version: 6.00 Build 0)  -->
<svg version="1.1" id="Calque_1" xmlns="http://www.w3.org/2000/svg" xmlns:xlink="http://www.w3.org/1999/xlink" x="0px" y="0px"
	 viewBox="0 0 622.6 600" enable-background="new 0 0 622.6 600" xml:space="preserve">
<path fill="#FFFFFF" d="M585.6,196.3l-32.6-24l25.6-15.7l7-28.5l-38.6-52l13.1-28.8l-23.9-13.1L541,7.6l-78.2,19L437,39.2l3.1,30.9
	l-12.3,11.2l-18,2.2v-7.4l18-6V53.3l5.2-21.4l-21.5-12l-31.6,33.4H360l-20.6-11.5l-20.7,18.3l-22.9-32.3L280.3,7.6L246.2,0h-24.6
	L197,70.1l-18.8-23.7l-49.5,0.9l-9.8,28.8L50.4,60.2l-29.8,1.1l7.3,69.6l-27.8,9l14,22.5L0,188.8l54.4,64.5l-15.8,34.8l38.3,12.1
	l30.5-10l25,37l-33.9,60.4l-64.2,42.2l37.6,116.8l47.1,16.8l78.1-8.7l17.5,14.8l46.2-9.1l71.4,38.8l51.7-36.2l-22.7-39.2l-26.7-6.7
	l5.1-20.1l20.6,7.9l1.1-27.7l2.1-10.2l28.4-23.7l89.6-41.3l-3.9-38.7l-20.1-4.6l1.5-10.6l34.9,10.6l76.8-22.5l45.2-35.7l7.1-40.7
	l-37-25.5V196.3z M611.7,264.1l-5.3,30.6l-40.7,32.2L493.5,348l-32-9.8l-11.2-3.4l-1.6,11.6l-1.5,10.6l-1.3,9.1l8.9,2.1l13.1,3
	l2.5,24.5L387.3,434l-1.2,0.6l-1,0.9l-28.4,23.7l-2.7,2.2l-0.7,3.4l-2.1,10.2l-0.2,0.8l0,0.8l-0.5,13.8l-7.5-2.9l-10.5-4.1
	l-2.8,10.9l-5.1,20.1l-2.4,9.7l9.7,2.4l22.6,5.7l16,27.6l-39.1,27.4l-65.9-35.8l-3.2-1.7l-3.5,0.7l-41.5,8.1L203.5,547l-3.3-2.8
	l-4.3,0.5l-75.8,8.5l-40.3-14.3L46,434l57.8-38l2-1.3l1.2-2.1l33.9-60.4l3-5.4l-3.5-5.1l-25-37l-4.2-6.3l-7.2,2.4l-27.4,9L52.4,282
	l11.1-24.5l2.6-5.8l-4.1-4.8L12,187.5l10.9-20.6l2.7-5.1l-3-4.9l-7.2-11.6l15.6-5l7.7-2.5l-0.8-8.1l-6.2-58.9l17.8-0.6l67.2,15.6
	l8.8,2l2.9-8.6l7.5-22.1l37.6-0.7l15.7,19.8l11.3,14.2l6-17.1L228.7,10h16.4l29.5,6.6l13.3,17.3L310.6,66l6.5,9.1l8.3-7.4L340.8,54
	l14.4,8l2.3,1.3h2.6h19.7h4.3l3-3.1l26.3-27.8l8.1,4.5L418,51l-0.3,1.2v1.2v9.6l-11.2,3.7l-6.8,2.3v7.2v7.4v11.3l11.2-1.4l18-2.2
	l3.1-0.4l2.3-2.1l12.3-11.2l3.7-3.4l-0.5-5l-2.4-24l18.6-9.1l62.2-15.1l-2.1,11.5l-1.3,7.1l6.3,3.5l15.8,8.6L537.9,72l-2.4,5.4
	l3.5,4.7l35.8,48.2l-4.9,19.9l-22.1,13.6l-12.7,7.8l11.9,8.8l28.5,21V234v5.3l4.3,3L611.7,264.1z"/>
</svg>
