<?xml version="1.0" encoding="utf-8"?>
<!-- Generator: Adobe Illustrator 18.1.1, SVG Export Plug-In . SVG Version: 6.00 Build 0)  -->
<svg version="1.1" id="Calque_1" xmlns="http://www.w3.org/2000/svg" xmlns:xlink="http://www.w3.org/1999/xlink" x="0px" y="0px"
	 viewBox="0 0 693.2 600" enable-background="new 0 0 693.2 600" xml:space="preserve">
<path fill="#FFFFFF" d="M689.4,478.1L676,453.7l-16.4-6.4l-4.6-30.9l-9.3-5.5l-3.9-10.2l-9.4-28.7l-18.5-12l-3.9-15l-15.7-14
	l-6.2,4.8l-27.2-5.8l-4.5-12.7l5.7-2.4l4.8-22.7L552,277.1l2.6-6.9l13.3-22.7l-6.2-32.3l-12.3-7.7l13.1-19.6l-19.1-1.4l-3.5-50.1
	l-24-4.1l-30.2,9.4L465.8,164l-45.6,16.3l-49.6-18l-25.2-7.1l-83.5-4.9l-30.6-17.3l-33.7,3.2l-3.5,7.2l-4.7-4.8l1-4.1l-30-53.3
	l2.4-10.7l12-10.4l-3.5-37l-32.3-9l-34.5,14l-27.2-1.2L33.9,7.1L0-1.8l5.3,27.2l10-2l-3.9,7.9l12.8,6.4l-0.9,22L11.4,73.1l12.5,36.6
	l0.3,24.7h13.8v8.1l12.8,20.5l13.7,30.6l6.4,34.5L69,264.7l9.9,34.9L67,335l7.4,39.8l29.7,27.7l6.2,4.3l-13.8,5.2l-27.2-7.6
	l8.9,49.7l39.5,25.3l36.4-31.9l59.3,25.7l6.4-8.8l16.3,5.1l14.9,16.3l27.6,15.1v-19l10.9,2.4l6.3,2.2l27.6-8.2l3.4-5.3l35.7,7.9
	l29.9-14.2l6.2-9.5l9.1,6.7l-2.2,4.2l5.7,29.2H430l1.8,20.1l27.3,6.9l46.4-37.6l18.7,5.1l11.7,10.3l2.3,22.9l3.1,18.2l27.9,18.8
	l21.3,11.8l21.5,2.9l12.4,23h23.5v-16.4l-3.7-31.5l2.7-8.3l31.8-13.2l14.5-23.4l-5.7-10.2L689.4,478.1z M671.6,522.2L638.5,536
	l-4.9,15l3.9,33.2v5.4h-7l-11.9-22.2l-24.8-3.3l-19-10.5l-24-16.2l-2.3-13.3l-2.7-26.7l-16.5-14.6l-26.1-7.1l-46.5,37.7l-15.1-3.8
	l-2-22.2H420l-3.4-17.3l4.6-8.9l-25.1-18.4l-10.6,16.2l-24.1,11.4l-39.3-8.7l-5.3,8.2l-20.7,6.1l-3.4-1.2l-24.5-5.4v14.4l-10.8-5.9
	l-15.6-17.1l-26.1-8.2l-5.9,8.1l-57.7-25l-35.4,31l-29.2-18.7l-5.2-29L97,423l15.5-5.9H144l-33.4-22.6L84,369.6l-6.3-33.8l12-35.9
	l-10.3-36.3l1.9-36.1l-6.9-36.9l-14.4-32l-11.8-18.9v-15.5H34.4L34.3,108L23.2,75.5l10.3-11.7l1.4-32.4L16.1,22l-0.6,1.2l-2.1-10.8
	l17,4.5l44.5,20.2l31.5,1.3l33.3-13.6l22,6.1l2.3,24.6l-10.6,9.1l-4,17.9l29.9,53.2l-1.4,5.7l19,19.5l7.5-15.2l24.6-2.4l29.8,16.9
	l84.8,5l23.6,6.6l52.9,19.3l51.6-18.4l19.7-22l25-7.8l13.5,2.3l3.6,51l10.2,0.7l-9.1,13.6l17.6,11l4.6,24l-11.8,20.1l-5.3,13.9
	l15.6,15.9l-2.5,11.9l-9.7,4.1l9.8,27.4l37.6,7.9l3.2-2.5l6.9,6.2l4.2,15.9l18.8,12.2L632,404l5.3,14l8.2,4.9l4.7,32l18.5,7.3
	l10,18.2l-1.9,18.9l4.3,7.7L671.6,522.2z"/>
</svg>
