<?xml version="1.0" encoding="utf-8"?>
<!-- Generator: Adobe Illustrator 18.1.1, SVG Export Plug-In . SVG Version: 6.00 Build 0)  -->
<svg version="1.1" id="Calque_1" xmlns="http://www.w3.org/2000/svg" xmlns:xlink="http://www.w3.org/1999/xlink" x="0px" y="0px"
	 viewBox="0 0 400.8 600" enable-background="new 0 0 400.8 600" xml:space="preserve">
<path fill="#FFFFFF" d="M363.5,438.4l-39.9-54.3L257,356.5l2.5-27.8l-16.6-22.8l18.1-31.6l-9.4-46l18.8-73.6l28.3-1.1l15.2-29
	l-79-43.5l-5.8-29l5.8-37.3L221.1,0l-28.6,25.4L186,44.9l-25.4,10.9L136,44.9l-16,9.5V105l-28.3,32.6v37.6l-55,24l3.2,30.4l-9.4,42
	l-19.9,56.9l13.8,32.2L0,388.1l15.2,37.3L36.7,442v21.8l26,9.8l17.1,40.2l65.3,6.9l55.3-21.8l13.4,5.4l21,24.6l13.8,28.6l50,39.1
	l35.9-25.4l25.4,7.3l10.8-38.7l30.1-32.6l-37.2-38.4V438.4z M387,507.5l-23.7,25.7l-1.6,1.8l-0.6,2.3l-8.1,29l-15.7-4.5l-4.6-1.3
	l-3.9,2.8l-29.9,21.1l-42.3-33.1l-12.7-26.5l-0.6-1.2l-0.8-1l-21-24.6l-1.6-1.9l-2.3-0.9l-13.4-5.4l-3.7-1.5l-3.7,1.5l-53.1,20.9
	l-57-6.1l-14.8-34.8l-1.7-3.9l-4-1.5l-19.5-7.4V442v-4.9l-3.9-3l-19.3-15l-11.9-29.1l20.1-22.5l4.2-4.7l-2.5-5.9l-12.2-28.6
	L39.9,275l0.2-0.6l0.1-0.6l9.4-42l0.4-1.6l-0.2-1.6l-2.4-23.1l48.3-21.1l6-2.6v-6.5v-33.9l25.8-29.8l2.4-2.8V105v-45l6.7-4l19.9,8.8
	l4,1.8l4-1.7l25.4-10.9l4.1-1.8l1.4-4.3l5.7-17L220.4,14l3.8,4.1l-5,32.5l-0.3,1.7l0.3,1.7l5.8,29l0.9,4.6l4.1,2.2l70.4,38.8
	l-8,15.2l-22.5,0.8l-7.5,0.3l-1.8,7.2l-18.8,73.6l-0.6,2.2l0.5,2.2l8.6,42.3l-16.2,28.3l-3.2,5.6l3.8,5.2l14.4,19.8l-2.1,24.1
	l-0.6,7.3l6.8,2.8l64.1,26.6l36.3,49.4v27.2v4.1l2.8,2.9L387,507.5z"/>
</svg>
