<?xml version="1.0" encoding="utf-8"?>
<!-- Generator: Adobe Illustrator 18.1.1, SVG Export Plug-In . SVG Version: 6.00 Build 0)  -->
<svg version="1.1" id="Calque_1" xmlns="http://www.w3.org/2000/svg" xmlns:xlink="http://www.w3.org/1999/xlink" x="0px" y="0px"
	 viewBox="0 0 726.8 600" enable-background="new 0 0 726.8 600" xml:space="preserve">
<path fill="#FFFFFF" d="M580.4,112.3l-129.8,15.6L346.1,98.8l-17.3,2.5l-48.5-11.4l24-19l-37.1-19.8l-72.9,12.6l-4.6-28.2L36.7,1.4
	L43,51.1L0,120.7l21.5,21.5L75,186l13.5,45.5l-14.3,50.2L86.8,342L75,370.7l16.9,38.8l-21.5,23.6l16.4,32l75.9,2.5l13.9-7.2
	l44.7,20.7l22.3-8l102.5,42.2l89.8-14.8l6.3,21.1l29.9,36.7l60.3,41.7l48.1-72.1l-5.9-24.9v-22.7l29.9-7.2L586.8,444l-6.3-25.3
	l54.4-28.2l40.5,6.7l6.7-97l44.7-52.3l-6.3-81.8L580.4,112.3z M674.4,293.8l-2.1,2.5l-0.2,3.3l-6,86l-29.6-4.9l-3.3-0.5l-3,1.5
	l-54.4,28.2l-7,3.6l1.9,7.7l6.3,25.3l0.4,1.5l0.8,1.3l10.6,17.4l-16.6,4l-7.7,1.8v7.9v22.8v1.2l0.3,1.1l4.9,20.6l-40,60L478.9,551
	l-27.8-34l-5.8-19.2l-2.5-8.4l-8.7,1.4l-87,14.3L247.3,464l-3.6-1.5l-3.6,1.3l-18.3,6.5l-41-18.9l-4.4-2l-4.3,2.2l-11.6,6l-67.4-2.2
	l-10.6-20.6l16.8-18.5l4.4-4.8l-2.6-5.9l-15.2-34.9l10.2-24.8l1.2-2.8l-0.6-3l-12.1-57.9l13.7-47.8l0.8-2.8l-0.8-2.8l-13.5-45.5
	l-0.9-2.9l-2.4-1.9L28.3,135l-15.6-15.6l38.8-62.8l1.9-3L53,50.1l-4.6-35.8l132.5,29.6l3.5,21.6l1.6,10l9.9-1.7l69.5-12.1l20.6,11
	l-12,9.5l-16.2,12.7l20.2,4.7l48.5,11.4l1.9,0.4l1.9-0.3l15.2-2.2L448,137.4l1.9,0.5l2-0.2l127.4-15.3l131.6,50.9l5.5,71.4
	L674.4,293.8z"/>
</svg>
