<?xml version="1.0" encoding="utf-8"?>
<!-- Generator: Adobe Illustrator 18.1.1, SVG Export Plug-In . SVG Version: 6.00 Build 0)  -->
<svg version="1.1" id="Calque_1" xmlns="http://www.w3.org/2000/svg" xmlns:xlink="http://www.w3.org/1999/xlink" x="0px" y="0px"
	 viewBox="0 0 493.1 600" enable-background="new 0 0 493.1 600" xml:space="preserve">
<path fill="#FFFFFF" d="M478.1,344.7l15-50.8l-0.8-31.9l-9.4-4.7l-2.1-8.1l-5.4-9.6v-9.4l6.1-0.7L491,212l-8.8-16.9l-12.9,6.1
	l-19,2.7l-5.3-1.4l-19-16.2l-12.9,0.7L403,176.1l-16.9,6.7l2-16.9l-2-10.1l6.1-6.1l-11.5-30.5l-20.3,4l9.4-13.6l-14.9-2l3.4-8.8
	l-42.7-7.5l-5.4,13.6l-39.9,3.4l-6.8,12.2l-12.8-12.2l-54.9,5.4L193,98.1l-18.9-31.8l-19-8.8l-16.9-10.2V31.2L126,3.4L39.9,0
	l-6.7,35.8L22.4,52.1L32.6,63l17.6,31.8L48.7,111L31.8,128l2.1,23.7L0,165.8v60.3l10.2,29.7l-4.1,24.4l14.2,23l5.4,20.3l4.1,26.4
	l9.4,49.5l-6.7,33.9l27.7,27.1l24.4-1.4l35.9,10.2l15.5-13.6l10.9-7.5l11.5,16.3l33.2,44.7l20.3,11.5v14.9v17.6l-14.9,9.6l-2.1,24.3
	l22.4,13.6l20.3-4l8.8,4l12.9-2.1l7.5,4.1l23-7.5l11.5-27.8l20.9,5.4l18.3-4.7l14.2,14.2l1.3,12.8l11.5,4.1l27.8-87.4l6.1-6.8
	l14.9,5.4l16.3-4l7.5-0.7L449,516l10.9,4.1l27.8-7.5l1.3-8.1l-8.8-12.2l12.9-25.7l-17.7-44.7l2.7-5.4l15-2.1v-12.2l-32.6-29.8
	l5.4-23L478.1,344.7z M457.4,341.9l-1.2,5.1l-5.4,23l-1.3,5.7l4.3,4l28.4,26l-5.4,0.7l-5.2,0.7l-2.4,4.7l-2.7,5.4l-2,4l1.6,4.2
	l16,40.6l-10.9,21.7l-2.7,5.4l3.6,4.9l5,6.9l-16.7,4.5l-5.5-2.1l-7.1-8.2l-3.3-3.8l-5.1,0.4l-7.5,0.7l-0.8,0.1l-0.8,0.2l-13.3,3.3
	l-12-4.4l-6.4-2.3l-4.5,5.1l-6.1,6.8l-1.4,1.6l-0.6,2l-21.8,68.6l-2.2-2.2l-14.2-14.2l-4-4l-5.5,1.4l-15.9,4l-18.5-4.8l-8.4-2.2
	l-3.3,8l-9.7,23.5l-14.5,4.7l-3.7-2l-3-1.7l-3.4,0.5l-9.9,1.6l-6-2.8l-2.9-1.3l-3.2,0.6l-16.5,3.3l-13.7-8.3l1.1-13.2l10.7-6.9
	l4.6-3v-5.5v-17.6v-14.9v-5.8l-5.1-2.9l-18.5-10.5l-31.9-42.9l-11.4-16.2l-5.7-8.1l-8.1,5.6l-10.9,7.5l-0.5,0.3l-0.4,0.4l-11.4,10
	l-30.7-8.7l-1.6-0.5l-1.7,0.1l-20,1.2L43.4,430l5.7-28.6l0.4-1.9l-0.4-1.9l-9.4-49.3l-4.1-26.2l-0.1-0.5l-0.1-0.5L30,300.8l-0.4-1.4
	l-0.8-1.3l-12.2-19.8l3.5-20.7l0.4-2.5l-0.8-2.4L10,224.5v-52l27.7-11.6l6.7-2.8l-0.6-7.3l-1.7-19l13.6-13.6l2.6-2.6l0.3-3.6
	l1.4-16.3l0.3-3l-1.5-2.7L41.3,58.1L40.7,57l-0.9-0.9L35.1,51l6.4-9.7l1.1-1.7l0.4-2l5.1-27.3l71.2,2.8l8.8,20.1v14.1V53l4.8,2.9
	l16.9,10.2l0.5,0.3l0.5,0.2l16.2,7.5l16.4,27.6l2.4,13.8l1.6,9.2l9.2-0.9l50.4-5l9.5,9l9.3,8.8l6.3-11.2l4.2-7.5l34.7-2.9l6.2-0.5
	l2.3-5.7l2.4-6l22.7,4l-3.6,9.3l11.1,1.5l-0.1,0.1L338,137.8l24.3-4.8l12-2.4l6.2,16.5l-1.5,1.5l-3.8,3.8l1,5.2l1.7,8.6l-1.8,15.4
	l-1.9,16.6l15.5-6.2l10.6-4.2l5.4,5.8l3.2,3.4l4.7-0.2l9-0.5l16,13.6l1.7,1.5l2.2,0.6l5.3,1.4l2,0.5l2-0.3l19-2.7l1.5-0.2l1.4-0.6
	l4.2-2l1.9,3.7l-4.5,8.3l-0.9,0.1l-8.9,1v9v9.4v2.6l1.3,2.3l4.8,8.4l1.7,6.8l1.1,4.5l4.1,2l4,2l0.6,24.3l-13.1,44.6l-7.5,2.9
	L457.4,341.9z"/>
</svg>
