<?xml version="1.0" encoding="utf-8"?>
<!-- Generator: Adobe Illustrator 18.1.1, SVG Export Plug-In . SVG Version: 6.00 Build 0)  -->
<svg version="1.1" id="Calque_1" xmlns="http://www.w3.org/2000/svg" xmlns:xlink="http://www.w3.org/1999/xlink" x="0px" y="0px"
	 viewBox="0 0 524.6 600" enable-background="new 0 0 524.6 600" xml:space="preserve">
<path fill="#FFFFFF" d="M507.5,170.6l-46.9-34.4l-14.6-2.1l-24.3,15.9l-13.4-8.8l-18.5-4.1l2.2-16.8l-8.8-14.6l-12.6-25.6l2.2-12.2
	L345,25.3l-25.1-6.7L300.2,32L283.4,1l-36,22.6l-6.6-5.1l-20.9,54.1l7.5,22.5l16.8,81.6l15.9,12.6l-3.8,15.5l27.2,15.1l-35.2,28
	l-19.3-3.3l-9.1,32.7l-32.3,16.8l-33.4-0.9l5.4,36.4l-5.4,9.3H86.6l-56.5-3.8l-10,18.1L5.4,368.6L0,403l44.8,20.9l2.9,41.9
	l-22.2,12.1l11.3,23.8l30.2,9.3L0,538.2v26.3l42.3,9.3l13,17.6l45.2-14.7l30.2,22.2h46.5v-20.1l42.8-6.2h20.9h15.5l-25.1-41.9
	l6.7-57.4l-2.1-18.8l6.2-22.6L260,403l26.8-19.7h24.7l15-18.4l27.6-18.5l20.6-16.8l22.2-5l5,18.1h19.7l43.1-32.7l6.6-16.8l22.6-5
	l4.6-43.5l18.5-11.3l7.5-18.8l-23.1-25.1L507.5,170.6z M513,216.7l-4,9.9l-15.7,9.6l-4.2,2.6l-0.5,4.9l-3.8,36.4l-15.6,3.5l-5.2,1.1
	l-2,4.9l-5.6,14.2l-38.2,28.9h-8.7l-3-10.7l-2.5-9.2l-9.3,2.1l-22.2,5l-2.3,0.5l-1.8,1.5l-20.2,16.5L321,356.6l-1.2,0.8l-0.9,1.2
	l-12,14.7h-20h-3.3l-2.6,1.9L254.1,395l-1.5,1.1l-1,1.6l-18.1,28.8l-0.8,1.2l-0.4,1.4l-6.2,22.6l-0.5,1.8l0.2,1.9l1.9,17.7
	l-6.6,56.2l-0.4,3.4l1.8,2.9l16.1,26.8h-18.7h-0.7l-0.7,0.1l-42.8,6.2l-8.6,1.2v8.7V589h-33.2l-27.5-20.3l-4.1-3l-4.9,1.6
	l-38.3,12.5l-8.7-11.8l-2.2-3l-3.7-0.8L10,556.5v-11.6l60.8-24.7l26.1-10.6L70,501.4l-25.9-8l-5.4-11.3l13.9-7.6l5.6-3.1l-0.4-6.4
	l-2.9-41.9l-0.4-5.9l-5.3-2.5l-38-17.7l3.8-23.9l12.6-13.2l0.9-0.9l0.6-1.1l6.9-12.5l50.2,3.4l0.3,0h0.3h67.5h5.7l2.9-4.9l5.4-9.3
	l1.8-3.1l-0.5-3.5l-3.7-24.6l21.5,0.6l2.6,0.1l2.3-1.2l32.3-16.8l3.9-2l1.2-4.2l6.7-24l10.4,1.8l4.4,0.7l3.5-2.8l35.2-28l11.7-9.3
	l-13.1-7.3l-20.5-11.4l2-8l1.5-6.2l-5-4l-13-10.4l-16-78.1l-0.1-0.6l-0.2-0.6l-6.4-19.1l14.8-38.3l1.6,1.2l5.9-3.7l27-17l11.7,21.5
	l5.3,9.7l9.1-6.2l15.9-10.8l17,4.6l23.4,36.1l-1.5,8.3l-0.6,3.2l1.5,2.9l12.6,25.6l0.2,0.4l0.2,0.4l7,11.6l-1.7,13.3l-1.2,9.1l8.9,2
	l16.7,3.7l11.9,7.8l5.5,3.6l5.5-3.6l21.1-13.8l8.4,1.2l39.1,28.7l-3.7,12l-1.7,5.5l3.9,4.2L513,216.7z"/>
</svg>
