<?xml version="1.0" encoding="utf-8"?>
<!-- Generator: Adobe Illustrator 18.1.1, SVG Export Plug-In . SVG Version: 6.00 Build 0)  -->
<svg version="1.1" id="Calque_1" xmlns="http://www.w3.org/2000/svg" xmlns:xlink="http://www.w3.org/1999/xlink" x="0px" y="0px"
	 viewBox="0 0 617.3 600" enable-background="new 0 0 617.3 600" xml:space="preserve">
<path fill="#FFFFFF" d="M590.3,140.3l-38.9-11.5l-13.2,19.5l-46.9-4.6l-5.7-14.9l-49.8-6.3l-10.2,17.8l-24.7-39.6l-9.7-8l-10.9-18.3
	V61.8l-33.2-12h-15.4l-12.6-10.4l-39.5-9.2l-18.3,20.1l-33.2-10.9l-17.2-17.2L149.5,36L118,2.2l-17.8,18.3l-41.2-8L37.2,50.3
	l10.4,21.1l-16.1,32.1l4.6,14.2l-25.8,41.9l18.3,27l2.8,36L10.4,245L0,283.4l34.4,30.8v41.3l27.5,8l61.3,46.4v37.2h32.6l30.4,31
	l-11.5,40.7l38.9,22.3l-2.8,29.1l61.8,6.9l6.9-22.3l12.6-6.9l26.9,21.2l28-5.7l27,24.1l18.9-6.9l12.6-9.2l41.2,30.3l37.8-6.3v-47.6
	l35.6-52.1v-13.2l18.9-56.1l-6.4-16.6h-13.7v-41.2l20.1-9.2l22.3-42.9l-10.9-14.3l8-24.1L521.6,245h-12l-25.2-11.4l5.2-16.6
	l3.5-17.2l24.1,17.2l21.8,11.4l29.8-5.7l17.2,5.7l22.3-9.2l9.2-46.4L599,155.7L590.3,140.3z M599.4,212l-13.9,5.7l-13.6-4.5
	l-2.5-0.8l-2.6,0.5l-26.3,5.1l-18.1-9.5l-23.5-16.8l-12.6-9l-3,15.1l-3.3,16.6l-5,16.1l-2.6,8.4l8.1,3.6l25.2,11.4l2,0.9h2.2h8.1
	l29,26.3l-5.9,17.9l-1.7,5l3.2,4.2l7.1,9.3l-17.8,34.3l-16.9,7.7l-5.8,2.7v6.4v41.2v10h10h6.8l2.6,6.8l-17.7,52.7L510,481v1.6v10.1
	l-33.9,49.5l-1.7,2.6v3.1V587l-25.2,4.2l-37.8-27.8l-5.9-4.3l-5.9,4.3l-11.5,8.3l-11.9,4.4L353.7,556l-3.7-3.3l-4.9,1l-23.5,4.8
	l-23.2-18.4l-5.2-4.1l-5.8,3.2l-12.6,6.9l-3.6,1.9l-1.2,3.9l-4.5,14.4l-43.8-4.9l1.9-19.3l0.6-6.4l-5.6-3.2L186.4,514l9.4-33.1
	l1.6-5.6l-4.1-4.1l-30.4-31l-2.9-3h-4.2h-22.6v-27.2v-5l-4-3l-61.3-46.4l-1.5-1.1l-1.8-0.5l-20.3-5.9v-33.8v-4.5l-3.3-3l-29.8-26.7
	l8.1-30l19.4-20.5l3.1-3.2l-0.3-4.4l-2.8-36l-0.2-2.6L37,181l-14.7-21.6l22.4-36.3l2.4-3.9l-1.4-4.4l-3.4-10.3l14.2-28.5l2.2-4.4
	l-2.2-4.4l-8-16.4l15.6-27l34.2,6.6l5.3,1l3.8-3.9l10.5-10.8l24.3,26.1l3.9,4.2l5.6-1.2l55.9-12.5l13.3,13.3l1.7,1.7l2.3,0.7
	L258,59.8l6.1,2l4.4-4.8l14.4-15.7l31.5,7.3l10.8,8.9l2.8,2.3h3.6h13.7l25,9v5.6v2.7l1.4,2.4l10.9,18.3l0.9,1.5l1.4,1.1l8.4,6.9
	l23.8,38.2l8.8,14.1l8.3-14.5l6.9-12l37.3,4.7l3.6,9.3l2.2,5.8l6.1,0.6l46.9,4.6l5.9,0.6l3.3-4.9l9.1-13.4l28,8.3l6.6,11.9l0.8,1.4
	l1.1,1.1l14.3,13.4L599.4,212z"/>
</svg>
