<?xml version="1.0" encoding="utf-8"?>
<!-- Generator: Adobe Illustrator 18.1.1, SVG Export Plug-In . SVG Version: 6.00 Build 0)  -->
<svg version="1.1" id="Calque_1" xmlns="http://www.w3.org/2000/svg" xmlns:xlink="http://www.w3.org/1999/xlink" x="0px" y="0px"
	 viewBox="0 0 800 600" enable-background="new 0 0 800 600" xml:space="preserve">
<polygon fill="#FFFFFF" points="222.3,128.2 222.3,138.3 222.6,138 234.6,127.6 "/>
<path fill="#FFFFFF" d="M584.4,84.1l-61.9-31.9L478,12.8l-26,20.3l-17.3-20.3l-36.8,9.1L374.2,3.3l-26,9.5l-79.6,58.3l3,44.6
	l-59.3,3v41.5l16.9-14.7l-0.9,25.1l-22.9,23.8l30.3,48l-23.4,70.9l-19.8,13l-8.7,40.2l34.5,23.4l-17.3,19.9l28.6,43.7l-28.6,84.7
	l45.9,56.3l43.3-12.1l8.7,18.2l43.3-7.8l69.6-96.5l-6.9-18.6l73.1-60.9v-51.5l106.5-116.7l8.5-36.4l-22.8-6.9l14.3-21.6l27.6-7.4
	v-18.6l-27.6-33.3V84.1z M222.6,138l-0.3,0.3v-10.1l12.3-0.6L222.6,138z M602,161.3v7.3l-20.2,5.4l-3.7,1l-2.1,3.2l-14.3,21.6
	l-7.4,11.2l12.8,3.9l13.8,4.2l-5.8,24.7L470.6,358.6l-2.6,2.9v3.9v46.8L398.4,470l-5.4,4.5l2.5,6.6l5.1,13.6l-64.1,88.9l-31.8,5.7
	l-5.4-11.3l-3.6-7.6l-8.1,2.3l-37,10.4l-38.2-46.9l26.8-79.5l1.6-4.6l-2.7-4.1l-24.4-37.4l12.4-14.2l7.4-8.5l-9.3-6.3l-28.9-19.6
	l6.4-29.6l16.4-10.7l2.9-1.9l1.1-3.3l23.4-70.9l1.5-4.5l-2.5-4L218,195.7l17.5-18.2l2.7-2.8l0.1-3.8l0.9-25.1l0.6-18.6l32.3-1.6
	l10.2-0.5l-0.7-10.1l-2.7-39.1L353,21.7l19.4-7.1l19.3,15.2l3.8,3l4.7-1.2l30.8-7.6l13.3,15.6l6.2,7.3l7.6-5.9l19.4-15.2l38.3,33.9
	l0.9,0.8l1.1,0.6l56.5,29.1v34.2v3.6l2.3,2.8L602,161.3z"/>
</svg>
