<?xml version="1.0" encoding="utf-8"?>
<!-- Generator: Adobe Illustrator 18.1.1, SVG Export Plug-In . SVG Version: 6.00 Build 0)  -->
<svg version="1.1" id="Calque_1" xmlns="http://www.w3.org/2000/svg" xmlns:xlink="http://www.w3.org/1999/xlink" x="0px" y="0px"
	 viewBox="0 0 473.5 600" enable-background="new 0 0 473.5 600" xml:space="preserve">
<path fill="#FFFFFF" d="M445.4,398.9l-30-3.4l-27.6,8.3l-12.2-2.3h-16l3.6-16.9l11.3-10.7l-6.9-31l-29-22.4l-13.7-35.1l3.7-36
	l-8.9-8.7l2.2-8.6l22.6-8.2l-10.4-65.8l35.5-23l3.1-13v-8.3l3.1-20.8l-10.2-7.6l-20.1-7.1l-18.2-7.5l-0.4-8L298.6,15l-14.9,17.4
	L271.6,39l-10.5-11L246,29.4l-13.3-3.7l-12,6.9l-22.3-16.3L183.1-0.5l-17.4,4.7l-9.3,14.4l-20.6,3.3l-8.9-3.3L103.3,41l1.1,16.1
	l2.8,10.6L96.5,78.3h-36c0,0-6.6,11.8-6.7,17c-0.1,4.8-8.4,6.6-8.4,6.6L56,122.5v5.6h7l20.1,17.2L92,169l7,2.7L97.7,202l6.8,10.9
	l4.5,22.9l-18.6,20.4l-22.7,19.2l22.7,24.9l-2.8,24.4l-5.1,18.6l7.7,6.8l-1.6,19.3l-2.2,18.7l2.5,8.1l-2.5,3.1l-28.5-7.1l1.4,16.2
	l-33.6,33.9l3.5,22.2l-6.4,3.2l3.4,11.6L6,484.7l7.8,19.4L0,513.5l3.7,10.1l-0.5,9.9l16.1,26.8l-5.1,27l4,1.9l10.4,11.2l9.3-6.7
	l12.2,4.2l29,1.4l17.6-32.5l3.5-10.4l3.3-15.4l15.1-7.7l10.7-16.9l10.9,12.9v8h16.3l6.6,24.3l6.8,4.3l-0.5,15.4l12.1,18l14.2-42.9
	l15.2-25.2l11.4,8.4l18-17.5l20.7-7.5l5.4,13.3l16.3,23.2l22.3-14.2l11.9,4.1l2.1,8.6l10.7-5l10.4,14.8l17.2,12.9l16.7-21.4l9.8-1.5
	l5.9-12.5l25-1.2l12.7-24.8h12.7l2.2-13l15.2-8.7l-0.5-17.4l0.6-9.1l15.9-10.9v-20.7l-21.7-7.6L445.4,398.9z M463.5,446.2l-11.6,7.9
	l-4,2.7l-0.3,4.8l-0.6,9.1v0.5v0.5l0.3,11.4l-10,5.7l-4.1,2.3l-0.8,4.6l-0.8,4.7h-4.3h-6.1l-2.8,5.4l-10.1,19.6l-19.2,0.9l-6,0.3
	l-2.6,5.4l-3.7,7.7l-4.5,0.7l-3.9,0.6l-2.3,3.5l-10.7,13.7l-8.1-6.1l-9.5-13.5l-4.8-6.9l-7.3,3.4l-0.5-2.1l-5.1-1.8l-11.9-4.1
	l-4.6-1.6l-4.1,2.6l-14.2,9.1l-10.2-14.5l-5-12.2l-3.6-8.9l-9,3.3l-20.7,7.5l-2,0.7l-1.5,1.5l-12,11.6l-4.6-3.4l-8.8-6.5l-5.6,9.4
	L187.1,551l-0.6,1l-0.3,1.1l-6.5,19.6l0.2-6.6l0.2-5.7l-4.8-3.1l-3.5-2.3l-5.6-20.6l-2-7.4h-7.7h-6.3v-1.6l-2.4-2.8l-10.9-12.9
	l-8.8-10.4l-7.3,11.5l-9.3,14.6l-12.6,6.5l-4.2,2.2l-1,4.6l-3.2,14.8l-3,9l-14.2,26.3l-21.3-1L41.2,584l-4.9-1.7l-4.2,3l-2.2,1.5
	l-4.4-4.8l-0.2-0.2l3.8-20.1l0.7-3.7l-2-3.3l-14.5-24.2l0.4-6.8l0.1-2.1l-0.7-1.9l-1-2.8l7.4-5.1l6.6-4.6l-3-7.4l-3.6-8.9l9.2-2.4
	l10-2.6l-2.9-9.9l-1-3.5l5.4-2.7l-1.1-7.2l-2.7-17.2l30-30.3l3.3-3.3l-0.4-4.6l-0.2-2.3l15,3.7l6.1,1.5l4-4.8l2.5-3.1l3.5-4.2
	l-1.6-5.2l-1.9-6l2-16.5v-0.2v-0.2l1.6-19.3l0.4-5l-3.8-3.3l-3-2.7l3.4-12.5l0.2-0.7l0.1-0.8l2.8-24.4l0.5-4.5l-3.1-3.4l-15.7-17.2
	l14.8-12.5l0.5-0.4l0.4-0.5l18.6-20.4l3.4-3.7l-1-4.9l-4.5-22.9l-0.4-1.8l-1-1.6l-5.2-8.3l1.1-27.2l0.3-7.2l-6.8-2.6l-2.8-1
	l-7.3-19.5l-0.9-2.4l-2-1.7l-20-17l-2.8-2.4h-1.7l-0.1-0.2L58.6,106c2.8-2.6,4.8-6,5-10.4c0.2-1.2,1.3-4.1,2.8-7.3h29.9h4.1l2.9-2.9
	l10.8-10.6l4.1-4.1l-1.4-5.6l-2.5-9.7L113.6,45l15.7-14.9l3.1,1.1l2.5,0.9l2.6-0.4l20.6-3.3l4.4-0.7l2.4-3.7l7.2-11.2l7.9-2.1
	l11.1,12.2l0.6,0.7l0.8,0.6l22.3,16.3l5.3,3.9l5.6-3.2l8.3-4.8l9.2,2.6l1.8,0.5l1.8-0.2l10.2-0.9l7.2,7.5l5.3,5.6l6.7-3.7l12.1-6.6
	l1.6-0.9l1.2-1.4L297,32l20,33.7l0.3,5.5l0.3,6.3l5.8,2.4l18.2,7.5l0.2,0.1l0.2,0.1l18.7,6.6l4.2,3.1l-2.2,14.9l-0.1,0.7v0.7v7.1
	l-1.9,8l-32.1,20.8l-5.5,3.5l1,6.4l9.1,57.7l-14.8,5.4l-5,1.8l-1.3,5.1l-2.2,8.6l-1.5,5.6l4.2,4.1l5.4,5.3l-3.2,31.2l-0.2,2.4
	l0.9,2.3l13.7,35.1l1,2.6l2.2,1.7l26.3,20.3l4.9,21.9l-7.2,6.8l-2.3,2.1l-0.7,3l-3.6,16.9l-2.6,12.1h12.4h15.1l11.3,2.2l2.4,0.5
	l2.3-0.7l25.6-7.7l21.2,2.4l4.6,17.6l1.3,5.1l5,1.8l15,5.3v8.2H463.5z"/>
</svg>
