<?xml version="1.0" encoding="utf-8"?>
<!-- Generator: Adobe Illustrator 18.1.1, SVG Export Plug-In . SVG Version: 6.00 Build 0)  -->
<svg version="1.1" id="Calque_1" xmlns="http://www.w3.org/2000/svg" xmlns:xlink="http://www.w3.org/1999/xlink" x="0px" y="0px"
	 viewBox="0 0 718.3 600" enable-background="new 0 0 718.3 600" xml:space="preserve">
<g id="Provence-Alpes-Côte-d_x2019_Azure">
	<path fill="#FFFFFF" d="M430.7,10.5l8,7.3l3.5,3.2l4.7-0.7l29-4.5L505,38.9l6.5,29.8l1.3,6l5.9,1.6l41.1,11l4.7,18.7l0.7,2.8l2.1,2
		l13.5,12.8l-1.6,3.5l-17.8,0.7l-7.8,0.3l-1.6,7.6l-7.8,36.8l-0.2,1v1v16.6v25v2.6l1.3,2.3l14.9,27l1.8,3.2l3.4,1.3l62.3,23.9
		l1.8,0.7l1.9,0l64.5-1l11,20l-29.4,52.2l-0.6,1.1l-0.3,1.3l-6.3,24.5l-28.3,19.7l-25.2,11.5l-3.3,1.5l-1.6,3.3l-12.9,27.4h-26.9
		h-6.5l-2.6,5.9l-15.4,34.5h-21h-6.2l-2.8,5.5l-15.6,31.2l-1.3,2.5l0.3,2.8l1.4,16l-108.7,52.9l-35.8-18.5l-5.4-2.8l-5,3.5
		l-11.5,8.1l-40.8-35.6l-2.1-1.9l-2.8-0.5l-52.2-8.6l-12.2-22.7l-2.7-4.9l-5.6-0.3l-50.7-2.8L154,481.6l-2.5-4.2l-4.9-0.6l-9.4-1.1
		l-8.5-1l-2.3,8.3l-6.8,24.7L97.9,502l-15.5-27.2l-2.5-4.5l-5.1-0.5L10,463.2v-10l22.9-12.8l3.8-2.1l1-4.2l6.8-27.7l35.1-6.1
		l5.4-0.9l2.1-5.1l20.1-48.1l12.1-12.4l4.7-4.8l-2.6-6.2l-15.2-35.2l-7-35.3l-0.6-3.1l-2.3-2.2l-8-7.6l23.2-14l6,15l3,7.5l7.9-1.3
		l70.9-11.7l4.4,11.5l2.4,6.5h6.9h22.3l15.8,27.3l4.4,7.5l8.1-3.3l25.9-10.6l8.3-3.4l-2.4-8.6l-6.2-21.8l-2.1-7.3h-7.6h-13.5
		l-14.4-20.4l3.3-22.8h21.4h8.4l1.5-8.3l8.3-46.8l36.6-10.7l4.3-1.3l1.9-4l7.7-16.1l51.5-19.8h26.2h7.7l2-7.4c0.1-0.4,1-3.6,1.4-7.3
		c0.4-3.1,1.5-12.4-5.6-17.1c-2.5-1.7-10.1-5-16.7-7.7V13L430.7,10.5 M434,0l-32.6,4.2v45.6c0,0,18.1,7.4,21.2,9.4
		c3.1,2,0,13.4,0,13.4h-28.1l-57,21.9l-9.4,19.7l-42.6,12.5l-9.4,52.9h-30.1l-5.1,35.3l19.6,28h18.7l6.2,21.8l-25.9,10.6l-18.7-32.3
		h-28.1l-7.3-19.2l-78.9,13l-10.3-25.9l-44.6,26.9l17.6,16.6l7.3,36.4l15.6,36.2l-13.4,13.8l-20.8,49.8l-41.5,7.3l-8.3,34L0,447.3
		v24.9l73.7,7.6l17.6,30.8l35.3,9.4l9.4-34.2l9.4,1.1l15.6,25.9l56,3.1l14.5,27l57.1,9.4l46.7,40.8l17.9-12.7l40.2,20.8l119.4-58.1
		l-2-22.8l15.6-31.2h27.5l18-40.4h33.3l15.6-33.2l26-11.8l32.1-22.3l7.3-28.1l32.1-57.1L701.7,266l-70.5,1.1l-62.3-23.9l-14.9-27
		v-25v-16.6l7.8-36.8l23.9-1l7.3-15.5l-18.7-17.8L568,79.1l-46.7-12.5L514,33.3L478.7,5.2l-33.3,5.1L434,0L434,0z"/>
</g>
</svg>
