<?xml version="1.0" encoding="utf-8"?>
<!-- Generator: Adobe Illustrator 18.1.1, SVG Export Plug-In . SVG Version: 6.00 Build 0)  -->
<svg version="1.1" id="Calque_1" xmlns="http://www.w3.org/2000/svg" xmlns:xlink="http://www.w3.org/1999/xlink" x="0px" y="0px"
	 viewBox="0 0 505.4 600" enable-background="new 0 0 505.4 600" xml:space="preserve">
<g id="Poitou-Charentes">
	<path fill="#FFFFFF" d="M265.4,12.3l51.5,32.6v20.5v11l11-1.1l30.7-3l4.5-0.4l2.6-3.7l9.5-13.3l59.4,82.9l-4.7,25.4l-1,5.4l4,3.7
		l56.5,52.9L419.3,273l-3.5,2.4l-0.8,4.1l-5.8,32.1l-0.7,3.9l2.2,3.3l20.2,31.1l-21.3,11.2l-1.9,1l-1.3,1.7L295.2,504.1l-3,3.8
		l1.1,4.7l2.8,12.2l-22,25.8l-27.3,3.9l-6.3,0.9l-1.8,6.1l-6.2,20.5l-13.6,5.5L171.6,567l-12.7-32.4l-1.8-4.5l-4.7-1.4l-50.7-15.2
		l-37-66.9l-1.1-2l-1.9-1.3L10,407.2v-26.1l28.3-30.6l2.7-2.9v-3.9v-25.8v-1.4l-0.4-1.4l-7.2-24.6l-1.5-5l-5-1.7l-9.1-3L63.9,230
		l65.6,6.5l11,1.1v-11v-54.2v-1.4l-0.4-1.4l-19.5-66.5l-0.5-1.6l-0.9-1.3L92.5,62.3v-7h48.7h6l2.8-5.3l9.7-18.3H238h3.6l2.8-2.2
		L265.4,12.3 M264.7,0L238,21.7h-84.2l-12.5,23.6H82.5v20.2l28.5,40.5l19.5,66.5v54.2l-70.6-7L0,285.4l23.7,7.9l7.2,24.6v25.8
		L0,377.2v35.3l56,39.1l39,70.4l54.6,16.4l14.2,36.2l55,23.9l21.9-8.9l7.5-25.1l31-4.5l27.7-32.5l-3.9-17.1l111.2-140.4l31-16.4
		l-26.1-40.3l5.8-32.1l80.4-54.7l-65.6-61.4l5.5-29.6l-70-97.7l-17.6,24.6l-30.7,3v-26L264.7,0L264.7,0z"/>
</g>
</svg>
