<?xml version="1.0" encoding="utf-8"?>
<!-- Generator: Adobe Illustrator 15.0.0, SVG Export Plug-In . SVG Version: 6.00 Build 0)  -->
<!DOCTYPE svg PUBLIC "-//W3C//DTD SVG 1.1//EN" "http://www.w3.org/Graphics/SVG/1.1/DTD/svg11.dtd">
<svg version="1.1" id="Calque_1" xmlns="http://www.w3.org/2000/svg" xmlns:xlink="http://www.w3.org/1999/xlink" x="0px" y="0px"
	 width="376.479px" height="640.551px" viewBox="0 0 376.479 640.551" enable-background="new 0 0 376.479 640.551"
	 xml:space="preserve">
<g>
	<path fill="#EEEEEE" d="M165.864,148.368c-7.978,8.939-19.622,14.606-30.679,20.795c9.79,5.543,23.538,6.987,39.536,6.097
		C172.392,165.649,174.809,151.126,165.864,148.368z"/>
	<path fill="#EEEEEE" d="M-27.162-13.647v673.198h424.803V-13.647H-27.162z M358.31,419.508
		c-5.768,6.521-15.575,11.938-22.884,18.996c-7.447,7.201-13.521,14.252-21.257,20.447c-19.004,15.223-36.422,30.318-48.457,50.191
		c2.994,15.84-4.189,32.438,0.222,48.385c2.479,8.963,14.821,16.07,7.229,25.441c-20.688,0.115-35.646-15.461-45.479-39.148
		c-2.475-5.953-5.051-13.248-8.578-19.342c-8.255-14.254-15.234-13.848-0.95-25.676c4.531-3.754,9.212-11.529,20.075-9.816
		c13.394-10.146,23.271-22.568,33.261-36.014c10.442-14.061,14.758-29.227,21.933-44.676c3.841-8.268,18.077-15.547,24.286-23.584
		c-25.157-13.146-56.938-12.854-83.011-25.057c-23.19,20.67-41.127,43.479-66.881,61.854c-0.436,4.986-3.562,16.039-16.607,24.59
		c-18.467,23.451-48.256,48.707-69.054,74.375c-10.624,13.111-23.415,23.729-28.379,40.373c-1.405,4.711-1.774,8.65-2.691,12.195
		c2.75,5.516,8.521-3.318-7.182,18.414c-6.974,19.289,14.625,41.066-1.352,48.445c-18.677-0.521-39.013-69.367-42.669-90.674
		c10.047-7.465,21.785-7.172,30.958-13.242c10.655-7.053,19.307-25,26.864-38.805c16.667-30.439,25.562-62.855,55.189-80.689
		c17.934-26.826,54.544-99.27,59.007-105.023c-5.362-26.805,1.771-41.98,13.632-56.463c-4.324-3.355-10.5-4.807-14.467-8.537
		c0.543-17.037,5.781-29.885,6.116-47.109c-27.304-3.952-62.759,0.271-88.215-4.292c-11.723-18.696,6.834-31.411,20.417-43.103
		c4.688-4.039,10.231-7.46,15.312-11.154c5.151-3.748,12.052-6.721,15.367-9.643c5.38-4.743,12.287-19.407,18.003-23.353
		c4.875-3.362,11.857-3.758,17.05-6.681c10.906-6.14,20.325-10.737,34.816-15.137c5.93-23.914-28.29-40.031-11.198-68.917
		c7.789-13.166,26.786-19.456,43.405-16.731c14.377,2.357,25.713,14.944,29.271,26.139c-3.446,11.515,4.607,16.032,8.746,23.874
		c0.256,5.476-8.05,5.16-1.23,9.121c-0.266,2.487-0.235,21.954-5.442,22.887c-9.089,2.595-19.312,4.177-21.536,12.897
		c5.021,1.946,12.51,4.243,17.665,9.931c8.759,10.025,8.646,16.218,11.941,25.267c3.459,9.493,0.996,18.632,2.425,28.67
		c0.645,4.533,5.83,10.532,2.338,15.012c8.312-5.616,14.928-14.661,17.782-29.392c3.039-15.682-3.094-33.286,14.413-35.318
		c10.047-1.238,25.271,31.276,6.223,40.603c-1.236,7.52-6.829,13.232-10.265,20.04c-6.863,13.614-12.292,26.963-20.528,40.08
		c-4.914,7.828-12.4,14.891-14.809,24.747c-2.479,10.18,2.916,20.326-2.745,31.971c-2.209,2.605-3.525,4.779-8.527,3.23
		c0.259,7.049,0.521,14.096,0.78,21.145c15.451,13.457,35.79,18.012,53.051,31.309c10.238,7.887,18.475,18.768,29.385,29.158
		c9.545,9.088,24.102,21.008,24.783,32.354C376.473,394.125,365.866,410.971,358.31,419.508z"/>
</g>
</svg>
