<?xml version="1.0" encoding="utf-8"?>
<!-- Generator: Adobe Illustrator 15.0.0, SVG Export Plug-In . SVG Version: 6.00 Build 0)  -->
<!DOCTYPE svg PUBLIC "-//W3C//DTD SVG 1.1//EN" "http://www.w3.org/Graphics/SVG/1.1/DTD/svg11.dtd">
<svg version="1.1" id="Calque_1" xmlns="http://www.w3.org/2000/svg" xmlns:xlink="http://www.w3.org/1999/xlink" x="0px" y="0px"
	 width="1417.32px" height="841.89px" viewBox="0 0 1417.32 841.89" enable-background="new 0 0 1417.32 841.89"
	 xml:space="preserve">
<linearGradient id="SVGID_1_" gradientUnits="userSpaceOnUse" x1="-288.6479" y1="550.9795" x2="1128.6055" y2="550.9795" gradientTransform="matrix(1 0 0 -1 287.6602 965.5547)">
	<stop  offset="0" style="stop-color:#FFFFFF"/>
	<stop  offset="1" style="stop-color:#333333"/>
</linearGradient>
<rect x="-0.988" y="-11.718" fill="url(#SVGID_1_)" enable-background="new    " width="1417.253" height="852.586"/>
<path fill="#DBDBDB" d="M1452.322,428.989c0.001-21.636,0.001-40.032,0.001-47.952c0-19.582,12.52-96.704-11.819-106.367
	c-31.472-12.494-146.837-2.476-173.776-1.651c-22.293,0.683-44.223,2.938-66.354,5.069
	c-110.483,10.641-222.352,10.59-333.489,12.475c-87.525,1.484-174.985,8.555-262.463,8.273
	c-52.23-0.168-104.467,0.006-156.699,0.006c-79.479,0-158.974-0.336-238.453-0.006c-15.22,0.062-115.678-3.98-151.354-4.652
	c-18.884-0.357-37.834-0.961-56.703-0.658c-5.716,13.285-2.172,31.707-2.172,46.094c0,14.684,0,29.365,0,44.049
	c0,7.41,0,24.741,0,45.321h-144.123v510.053h1793.911V428.989H1452.322z"/>
<path opacity="0.72" fill="#1E1F1D" enable-background="new    " d="M127.918,441.802c2.035-6.125,18.349,5.289,33.315,1.801
	c2.68,1.07-1.926,8.227-3.805,12.293c-2.393,5.178-1.526,5.334-3.169,11.719c-5.177,20.105-12.397,22.172-21.308,30.186
	c-9.408,8.461-15.985,25.092-21.625,44.441c-7.884,27.059-9.552,50.793-5.305,72.854c1.611,8.375,3.13,8.879,7.576,11.109
	c14.984,7.52,30.402,13.67,45.138,22.193c13.98,8.086,26.836,23.357,36.792,43.588c7.115,14.463,9.776,32.641,13.45,52.912
	c3.505,19.346,3.277,36.344,3.459,58.715c0.033,4.086,0.685,9.072,0.481,13.18c-0.289,5.799-1.601,17.576-3.064,23.033
	c-3.229,12.057-0.919,8.357-7.837,12.73c-16.14,10.207-31.42,18.969-47.143,21.49c-26.142,4.193-50.763-4.502-75.467-9.072
	c-27.364-5.061-54.994-8.953-82.144-15.146c-5.429-1.238-12.211-7.729-18.693,1.115c-8.847,12.078-6.464,18-15.022,12.523
	c-15.952-10.207-32.11-23.191-46.841-37.838c-5.124-5.1-7.021-11.941-5.818-27.232c0.942-11.961,5.037-24.904,8.955-35.01
	c9.491-24.465,20.074-48.334,29.959-72.242c4.712-11.398,10.599-22.297,15.743-33.99c23.87-54.25,51.832-99.613,81.522-126.6
	c13.336-12.123,26.486-25.439,39.817-35.75c11.312-8.756,22.285-8.629,33.336-16.225c3.257-2.242,10.161-7.271,11.583-16.389
	C132.625,456.919,128.642,446.667,127.918,441.802"/>
<path opacity="0.72" fill="#1E1F1D" enable-background="new    " d="M1535.39,453.622c-34.335-0.104-69.343-7.02-103.271-11.52
	c-28.8-3.822-57.028-7.391-85.288-11.85c-44.029-6.945-84.266-21.81-128.544-23.366c-5.491-0.193-13.945-1.039-18.502,0.834
	c7.543,3.475,65.996,1.568,64.247,16.565c-6.944,0.389-19.904-2.9-24.84,2.422c10.049,4.215,23.985,9.227,29.701,18.814
	c-33.318,6.408-71.158,0.912-103.67-7.566c-16.875-4.404-34.767-4.789-51.096-11.41c-8.799-3.57-17.918-7.097-26.683-10.665
	c-4.938-2.012-13.271-3.482-16.165-8.16c3.144-2.32,7.741-2.297,11.757-3.521c-16.048-8.287-43.111-4.84-61.124-4.822
	c-9.341,0.008-40.666-6.637-46.422,2.338c10.034,0.656,50.689-0.361,44.395,16.27c-0.552,1.457-4.885,2.47-5.481,4.532
	c-1.589,5.486,4.263,7.867,8.548,10.426c7.467,4.463,15.842,5.711,24.216,7.73c23.767,5.721,45.351,12.965,67.982,22.359
	c43.391,18.02,88.619,31.27,131.002,51.559c35.185,16.844,70.622,30.879,107.086,44.691c26.261,9.949,50.616,24.877,76.609,36.043
	c21.996,9.447,43.432,19.131,66.357,26.064c16.646,5.037,34.234,13.754,52.071,12.514c4.174-0.289,5.826,0.686,8.813-1.715
	c6.86-5.5,6.064-32.633,6.689-40.039c2.269-26.928,7.265-54.631,6.737-81.703c-0.215-11.127-1.786-55.846-14.27-60.158
	c-5.928-2.049-19.324,3.24-25.867,4.168"/>
<g>
	<path fill="#FFFFFF" d="M125.063,365.246c-1.858,0.645-4.662,3.652-5.752,5.307c-1.379,2.096-2.38,5.32-2.689,7.803
		c-0.69,5.529,0.845,10.449,5.048,14.078c3.379,2.914,9.609,5.678,9.022,11.033c-0.165,1.516-0.939,2.805-1.3,4.27
		c-0.375,1.535-0.269,3.07-0.269,4.664c0,4.213,0.916,6.998,3.865,10.118c4.398,4.652,11.083,6.334,17.352,6.441
		c4.323,0.074,10.531,0.344,12.625-4.293c0.54-1.193,0.651-2.514,0.669-3.826c0.061-4.341-2.436-6.882-5.797-9.683
		c-5.333-4.443-10.374-8.195-13.859-14.447c-2.854-5.119-5.197-10.771-8.643-15.539c-1.812-2.508-3.865-4.531-4.157-7.75
		c-0.318-3.482,0.194-4.68-2.303-7.445c-0.537-0.598-1.057-1.059-1.343-1.799C126.688,364.096,125.673,364.77,125.063,365.246"/>
	<path fill="#C0BFBF" d="M254.989,119.916c-1.334,4.733-4.863,9.423-7.112,13.81c-3.261,6.357-6.542,12.703-9.738,19.111
		c-4.976,9.975-10.848,19.799-14.998,30.137c-3.509,8.741-6.678,17.832-10.004,26.735c-2.071,5.547-5.402,10.332-6.878,16.083
		c-3.246,12.648-1.067,26.355-1.85,39.338c-0.501,8.327-1.319,16.998-3.53,25.022c-1.268,4.601-3.25,9.029-3.974,13.744
		c-2.512,16.352-11.04,31.893-16.264,47.461c-2.587,7.705-5.017,15.404-7.639,23.025c-1.874,5.447-4.098,11.084-5.502,16.582
		c-6.955,0.465-14.481-6-20.207-9.652c-4.797-3.059-10.352-7.135-4.755-12.232c8.381-7.637,12.505-13.393,12.508-24.926
		c0.002-11.52,0.011-22.984-0.632-34.432c-0.337-5.99-0.345-12.012-0.305-18.031c0.047-6.964,3.082-14.47,6.175-20.634
		c3.877-7.725,5.608-17.037,5.691-25.558c0.145-14.646,0.672-28.485,2.876-43.04c0.88-5.812,2.732-11.246,3.98-16.918
		c1.866-8.492,0.169-18.643,0.427-27.258c0.443-14.896,2.593-30.928,11.742-43.309c4.235-5.73,11.01-8.524,16.609-12.625
		c4.581-3.354,6.597-5.623,12.729-6.117c5.33-0.428,11.308-0.479,16.567,0.352c3.397,0.536,9.068,1.096,11.873,3.42
		c2.145,1.78,3.117,3.15,5.723,4.547c5.559,2.979,10.234,5.797,11.257,12.576c0.52,3.432-1.572,8.926-5.082,5.6"/>
	<path opacity="0.09" fill="#1E1F1D" enable-background="new    " d="M259.758,117.128c-1.023-6.779-5.698-9.598-11.257-12.576
		c-2.606-1.396-3.578-2.767-5.723-4.547c-0.298-0.246-0.643-0.464-1-0.674c-2.695,9.339-7.701,18.777-10.941,27.464
		c-4.48,12.011-9.38,23.763-14.063,35.71c-8.292,21.159-13.173,43.99-24.376,63.482c-3.231,5.623-6.438,9.404-11.033,13.537
		c-3.672,3.303-4.101,5.383-1.146,8.94c10.402,12.524,11.722,33.989,8.671,49.768c-2.566,13.273-6.643,25.916-10.014,38.973
		c-2.539,9.84-5.141,19.707-9.986,28.684c-4.013,7.436-10.144,13.852-16.863,18.633c4.826,3.309,10.306,6.789,15.473,6.443
		c1.404-5.498,3.628-11.135,5.502-16.582c2.623-7.621,5.052-15.32,7.639-23.025c5.224-15.57,13.752-31.111,16.264-47.461
		c0.725-4.715,2.706-9.144,3.974-13.744c2.211-8.024,3.028-16.695,3.53-25.022c0.783-12.982-1.396-26.689,1.85-39.338
		c1.476-5.752,4.807-10.537,6.878-16.083c3.326-8.903,6.495-17.995,10.004-26.735c4.15-10.338,10.022-20.162,14.998-30.137
		c3.196-6.408,6.477-12.754,9.738-19.111c2.25-4.387,5.778-9.076,7.112-13.81l-0.313,2.812
		C258.186,126.054,260.277,120.562,259.758,117.128z"/>
	<path fill="#EAEAEA" d="M255.926,134.283c-9.286,0-18.571,0-27.858,0c-4.223,0-18.197-1.843-20.957,1.2
		c-0.316-0.15-0.664-0.439-1.083-0.44c-0.509-5.396,1.956-10.431,2.831-15.661c1.224-7.312,0.571-15.539,0.844-22.972
		c0.134-3.71,1.134-9.999,0.076-13.47c-2.677-8.777-14.497-12.685-22.008-15.277c-11.176-3.857-22.002-6.834-33.682-8.658
		c-6.155-0.962-12.589-1.886-18.538,0.229c-11.901,4.231-8.827,16.873-7.895,27.088c1.494,16.363,2.184,32.982,4.894,49.32
		c2.717,16.369,3.268,32.807,7.611,49.35c2.384,9.082,6.044,23.131,12.898,29.758c7.16,6.92,18.813,6.432,27.1,1.986
		c6.817-3.656,12.354-8.23,19.458-11.243c5.243-2.222,9.833-5.185,14.669-8.144c3.521-2.152,7.261-4.488,10.933-6.367
		c1.588-0.812,4.5-1.199,5.84-2.119c2.204-1.512,2.96-2.941,4.736-5.321c7.663-10.269,18.139-18.552,20.152-31.776
		c0.851-5.578-1.271-11.382-1.271-17.064"/>
	<path opacity="0.09" fill="#1E1F1D" enable-background="new    " d="M185.465,92.759c1.024,8.084,1.334,16.312,1.334,24.461
		c0,5.197,2.269,17.032-2.533,20.303c-3.084,2.102-10.314,3.08-14.134,4.347c-5.041,1.672-9.996,3.519-14.98,5.229
		c-3.177,1.09-9.931,2.235-11.19,5.435c14.678,0.84,29.763,0.075,44.47,0.073c15.148-0.002,29.863-1.279,44.779-2.519
		c6.886-0.571,15.487-1.646,22.916-0.31c0.193-4.961-1.449-10.066-1.449-15.08l1.25-0.415c-9.286,0-18.571,0-27.858,0
		c-4.223,0-18.197-1.843-20.957,1.2c-0.316-0.15-0.664-0.439-1.083-0.44c-0.509-5.396,1.956-10.431,2.831-15.661
		c1.224-7.312,0.571-15.539,0.844-22.972c0.134-3.71,1.134-9.999,0.076-13.47c-2.677-8.777-14.497-12.685-22.008-15.277
		c-3.073-1.061-6.12-2.047-9.166-2.971C180.465,74.001,184.278,83.399,185.465,92.759z"/>
	<path opacity="0.09" fill="#1E1F1D" enable-background="new    " d="M238.149,179.655c-12.772,3.24-24.878,6.277-36.72,12.125
		c-10.296,5.084-25.841,15.914-37.565,9.283c-3.608-2.039-5.701-6.141-8.657-8.787c-3.487-3.125-7.73-5.246-11.689-7.687
		c-1.308-0.807-2.699-1.825-4.153-2.802c0.25,1.066,0.514,2.135,0.795,3.201c2.384,9.082,6.044,23.132,12.898,29.759
		c7.16,6.92,18.813,6.431,27.1,1.985c6.817-3.655,12.354-8.229,19.458-11.242c5.243-2.223,9.833-5.186,14.669-8.143
		c3.521-2.154,7.261-4.49,10.933-6.367c1.588-0.813,4.5-1.201,5.84-2.121c2.204-1.512,2.96-2.94,4.736-5.32
		c1.039-1.391,2.13-2.745,3.244-4.08C238.726,179.521,238.428,179.585,238.149,179.655z"/>
	<path fill="#FFFFFF" d="M264.462,221.317c-3.257,1.06-5.202,5.231-7.631,7.49c-2.839,2.643-5.604,5.422-8.791,7.656
		c-3.444,2.417-7.323,4.493-10.886,6.708c-2.062,1.282-4.639,1.578-7.067,1.677c-5.897,0.239-14.304-3.143-18.484-7.188
		c-9.041-8.748-4.773-25.508-3.911-36.352c1.27-15.943,4.184-31.629,11.146-46.104c2.583-5.368,6.15-9.973,10.464-13.748
		c3.45-3.02,6.371-6.018,10.828-7.398c4.522-1.401,12.896-2.871,16.351-6.268c3.196-3.143,5.24-6.18,7.636-10.064
		c5.195-8.426,8.467-15.832,16.561-22.088c6.056-4.683,10.43-9.226,18.663-9.144c3.837,0.039,5.496,1.583,8.502,3.054
		c3.271,1.602,5.841,3.646,8.995,5.691c7.409,4.806,13.742,12.376,15.624,21.238c1.875,8.814-2.582,16.225-7.035,23.494
		c-5.034,8.217-13.401,14.146-21.401,19.371c-5.806,3.793-10.923,9.014-13.44,15.541c-3.418,8.86-4.202,18.571-7.558,27.518
		c-2.927,7.801-7.429,9.677-16.132,7.478c-17.039-4.303-21.568-20.457-28.901-33.909c-3.682-6.758-6.666-11.578-8.06-18.906
		c-0.439-2.31-1.102-4.465-1.804-6.543"/>
	<path opacity="0.31" fill="#1E1F1D" enable-background="new    " d="M272.166,110.962c-0.561,3.087-2.685,6.018-3.545,9.104
		c-1.201,4.31-0.888,9.563-0.259,13.914c0.66,4.568,1.069,9.418-0.614,13.789c-0.868,2.252-1.889,3.957-2.285,6.265
		c-0.8,4.653-0.118,7.223,4.184,9.851c2.457,1.5,4.171,2.883,6.049,4.918c1.455,1.574,3.14,4.159,5.024,5.172
		c-0.042-1.549,0.162-3.219-0.168-4.705c-0.42-1.883-1.922-4.002-1.034-6.049c1.695-3.898,8.647-3.166,11.851-3.32
		c3.113-0.151,6.663-0.965,9.491-2.297c2.262-1.063,5.366-3.393,6.821-5.408c0.761-1.053,1.857-3.227,1.986-4.412
		c0.315-2.896-4.382-8.377-5.68-10.625c-2.437-4.221-4.363-8.854-7.685-12.483c-1.239-1.354-2.756-3.149-4.438-3.985
		c-0.874-0.435-1.981-0.221-2.72-0.621c-3.575-1.937-5.17-6.746-8.934-8.504c-2.43-1.137-5.575-1.172-8.192-1.235
		c0.185,0.241,0.327,0.146,0.566,0.219"/>
	<path fill="#E63956" d="M329.218,112.629c-2.417-6.565-8.307-13.106-14.158-16.448c-7.408-4.231-16.046-10.517-24.571-6.047
		c-8.902,4.666-18.271,14.217-19.988,24.16c-1.183,6.855,1.513,14.618,2.395,21.352c0.437,3.33,3.089,16.16-0.335,18.127
		c-3.724,2.137-4.686-5.235-6.004-7.727c-2.776-5.249-6.895-9.572-13.027-10.107c-8.902-0.773-19.188,5.086-24.588,12.481
		c-5.596,7.665-7.966,19.058-10.909,27.817c-3.767,11.215-5.691,22.892-6.27,34.668c-0.442,9.002-2.103,23.269,5.852,29.255
		c8.01,6.026,19.052,6.976,28.736,5.332c11.121-1.888,22.425-10.774,29.911-18.459c9.164-9.406,12.471-18.371,12.563-31.556
		c0.037-5.283,0.678-10.43,0.416-15.801c-0.284-5.812-2.936-7.93-6.704-12.08c-2.115-2.328-5.398-5.588-4.539-9.138
		c1.125-4.644,9.039-4.306,13.222-4.696c5.8-0.543,12.092,0.596,17.592-1.48c5.54-2.092,8.986-5.547,12.818-10.077
		c4.438-5.247,12.161-18.074,10.097-25.423c-0.433-1.541-1.596-2.143-2.092-3.738"/>
	<path opacity="0.2" fill="#1E1F1D" enable-background="new    " d="M331.727,116.783c-0.433-1.541-1.596-2.144-2.092-3.738
		l-0.417-0.417c-1.657-4.499-4.943-8.984-8.729-12.439c0.874,4.314,0.788,8.896,0.017,12.555
		c-1.622,7.695-7.456,14.888-12.621,20.615c-8.915,9.882-20.468,14.199-31.45,20.498c-5.464,3.133-8.179,8.525-7.202,14.99
		c1.229,8.123,3.677,15.428,2.569,24.153c-0.78,6.14-4.407,13.108-7.911,18.165c-3.52,5.08-8.345,13.322-13.332,17.083
		c-8.648,6.522-21.455,10.183-33.334,11.567c0.134,0.111,0.25,0.238,0.39,0.344c8.01,6.027,19.052,6.977,28.736,5.332
		c11.121-1.889,22.425-10.775,29.911-18.459c9.164-9.406,12.471-18.371,12.563-31.557c0.037-5.283,0.678-10.429,0.416-15.799
		c-0.284-5.812-2.937-7.931-6.704-12.08c-2.115-2.33-5.398-5.588-4.539-9.139c1.125-4.643,9.039-4.305,13.222-4.697
		c5.8-0.543,12.092,0.596,17.592-1.48c5.54-2.092,8.986-5.547,12.818-10.076C326.068,136.959,333.791,124.132,331.727,116.783z"/>
	<path fill="#1E1F1D" d="M123.917-4.806c-0.026,14.441-2.914,28.418-2.915,42.882c-0.001,9.729-2.16,19.387-1.27,29.108
		c0.991,10.818,4.451,21.058,7.505,31.17c3.545-6.914,3.438-12.689,12.056-16c12.94-4.969,31.326-7.039,44.663-2.613
		c6.801,2.257,18.674,4.891,24.102,9.969c2.657,2.488,1.524,6.913,1.699,10.777c4.347,0.105,8.364,0.887,12.646,1.742
		c6.599,1.316,10.477,5.104,16.061,8.66c5.711,3.637,10.405,9.793,16.222,13.002c3.732,2.059,4.75-0.045,7.083-3.854
		c5.188-8.467,7.225-18.657,9.648-28.18c3.548-13.945,8.304-27.028,8.672-41.549c0.372-14.666-3.866-25.929-9.183-39.271
		c-1.676-4.204-3.113-8.748-4.538-12.897c-2.326-6.774-4.5-5.238-12.083-5.436c-35.829-0.934-71.13-5.982-106.779-0.826
		c-5.959,0.862-11.503,1.547-17.282,3.021c-1.977,0.504-4.258,1.093-6.308,1.125"/>
	<path opacity="0.2" fill="#1E1F1D" enable-background="new    " d="M270.907,11.04c-1.676-4.204-3.113-8.748-4.538-12.898
		c-2.326-6.773-4.5-5.236-12.083-5.435c-35.829-0.933-71.13-5.983-106.779-0.826c-5.959,0.862-11.503,1.546-17.282,3.021
		c-1.977,0.506-4.258,1.094-6.308,1.125v-0.832c-0.012,6.582-0.623,13.07-1.279,19.55c22.735-0.384,45.767-0.851,68.064,2.071
		c9.165,1.201,18.409,3.185,27.435,5.187c5.712,1.267,14.953,1.876,19.714,5.435c8.267,6.182,1.706,8.984-4.429,12.039
		c-6.687,3.328-10.276,6.496-13.57,13.006c-5.169,10.224-3.876,20.613-7.181,31.064c-0.999,3.16-2.014,6.471-2.929,9.874
		c0.277,2.192-0.09,4.731,0.015,7.067c4.347,0.104,8.364,0.886,12.646,1.74c6.599,1.317,10.477,5.105,16.061,8.662
		c5.711,3.637,10.405,9.793,16.222,13.002c3.732,2.058,4.75-0.045,7.083-3.854c5.188-8.466,7.225-18.657,9.648-28.179
		c3.548-13.946,8.304-27.029,8.672-41.551C280.462,35.644,276.224,24.382,270.907,11.04z"/>
	<path fill="#FFFFFF" d="M160.772,392.678c-4.289-1.057-9.648-4.773-13.127-7.543c-2.956-2.352-6.115-4.557-8.371-7.604
		c-1.222-1.65-3.165-3.717-1.827-5.645c0.85-1.227,3.536-2.484,4.741-3.615c3.38-3.172,3.332-8.021,10.671-3.125
		c3.921,2.619,7.912,5.578,11.816,8.203c1.132,0.762,2.147,1.012,3.487,1.422c0.79,0.244,1.958,1.109,2.811,1.25
		c2.369,0.385,1.749,1.633,1.197,3.746c-0.616,2.359-1.595,4.621-2.035,7.074c-0.229,1.275-0.014,6.221-1.079,7.045
		c-1.643,1.266-10.391-1.062-11.202-2.457"/>
	<path opacity="0.16" fill="#1E1F1D" enable-background="new    " d="M170.975,376.02c-0.854-0.139-2.021-1.006-2.811-1.248
		c-0.692-0.213-1.296-0.385-1.875-0.604c0,0,0,0,0,0.002c0.367,1.885,1.082,3.445,1.095,5.436c0.014,2.754-0.031,5.498-0.152,8.248
		c-0.098,2.252-0.239,4.236-1.049,6.33c1.312,0.127,2.398,0.07,2.876-0.299c1.064-0.822,0.85-5.77,1.079-7.043
		c0.439-2.455,1.419-4.717,2.035-7.074C172.724,377.654,173.344,376.404,170.975,376.02z"/>
	<path fill="#E63956" d="M169.733,392.148c0.161-1.023,1.25-2.607,0.247-2.814c-1.504-0.314-5.39-1.078-6.646-1.494
		c-3.277-1.08-6.765-2.209-9.787-3.715c-5.363-2.676-13.418-8.693-11.084-15.691c0.479-1.436,3.113-3.846,2.76-5.193
		c-1.56-0.346-3.085,1.566-3.901,2.625c-0.992,1.281-1.963,2.605-2.397,4.133c-0.926,3.252-1.116,8.203-0.592,11.527
		c0.531,3.375,3.197,6.197,6.391,6.816c4.07,0.789,7.925,2.531,12.071,3.02c4.216,0.498,8.663,0.02,12.783,0.787"/>
	<path fill="#828282" d="M165.04,417.559c0-5.191,0.266-9.455,1.562-14.365c0.968-3.66,3.917-7.596,3.228-11.441
		c-9.598-4.057-22.508-5.262-28.136-15.809c-2.379-4.457,0.727-8.271,4.061-11.408c1.201-1.131,5.026-3.623,1.483-4.131
		c-2.426-0.348-4.301,3.002-6.307,4.295c-4.818,3.104-6.394-3.818-11.877-1.865c-4.874,1.736-9.161,8.732-9.941,13.936
		c-1.405,9.381,6.435,10.449,12.22,14.855c5.56,4.23,4.347,13.422,7.777,18.994c4.849,7.879,15.902,8.941,24.314,8.449
		c1.197-2.271,0.418-5.061,1.304-7.129"/>
	<path fill="#DBDBDB" d="M129.852,406.395c0.105-0.291,0.347-0.484,0.53-0.721c0.203-0.264,0.379-0.547,0.58-0.814
		c0.208-0.27,0.426-0.525,0.619-0.807c0.079-0.111,0.191-0.211,0.263-0.318c0.062-0.094,0.067-0.178,0.125-0.289
		c0.611-1.146,1.327-2.18,1.794-3.404c0.074-0.197,0.21-0.352,0.281-0.531c0.057-0.148,0.087-0.355,0.13-0.514
		c0.061-0.23,0.127-0.486,0.156-0.725c0.075-0.639,0.075-1.438-0.166-2.027c-0.104-0.26-0.161-0.426-0.38-0.594
		c-0.399-0.299-0.917-0.506-1.408-0.58c-0.564-0.084-1.124-0.072-1.685-0.186c-0.817-0.164-1.625-0.375-2.451-0.49
		c-0.533-0.072-1.055-0.027-1.586-0.074c-0.464-0.039-0.915-0.154-1.382-0.158c-0.287,0-0.574,0-0.858,0
		c-0.135,0-0.329-0.041-0.42,0.053c1.14,0.979,2.523,1.82,3.638,2.889c0.71,0.68,1.345,1.35,1.931,2.135
		c0.626,0.834,0.955,1.697,1.045,2.748c0.071,0.816,0.174,1.76-0.046,2.561c-0.201,0.727-0.647,1.42-0.762,2.162"/>
	<path fill="#595857" d="M149.229,362.121c0.096-1.447-0.956-1.795-2.184-1.795c-0.97,0-1.55,0.387-2.306,0.953
		c-1.583,1.189-3.396,3.73-6.323,4.23c0,0,1.641,0.627,2.252,0.744c0.337,0.062,0.705,0.068,1.027,0.121
		c0.407,0.068,0.768,0.252,1.17,0.316c1.032,0.17,1.604-0.895,2.275-1.557c0.518-0.508,0.849-0.689,1.492-1.062
		c0.432-0.248,1.078-0.443,1.473-0.654c0.243-0.129,0.537-0.055,0.729-0.244c0.204-0.201,0.27-0.615,0.357-0.934
		c-0.001-0.014-0.001-0.027-0.002-0.041"/>
	<path fill="#A5A3A2" d="M138.494,409.596c2.026-1.412,3.985-2.934,6.193-4.055c1.245-0.629,2.309-1.619,3.5-2.363
		c1.668-1.037,3.365-2.018,5.15-2.842c1.689-0.777,3.44-1.371,5.074-2.242c0.767-0.412,1.624-0.697,2.468-0.902
		c0.672-0.162,1.396-0.08,2.094-0.143c1.009-0.09,2.006-0.426,3.018-0.508c0.574-0.047,2.994-0.297,2.838,0.668
		c-0.048,0.309-0.422,0.57-0.498,0.895c-0.092,0.389-0.13,0.705-0.272,1.068c-0.108,0.281-0.199,0.799-0.401,1.059
		c-0.385,0.486-1.322,0.432-1.94,0.557c-1.229,0.246-2.529,0.418-3.711,0.844c-1.056,0.379-2.116,0.699-3.183,1.045
		c-0.998,0.322-1.812,0.83-2.735,1.244c-0.887,0.396-1.749,0.742-2.615,1.197c-0.726,0.381-1.445,0.75-2.149,1.182
		c-2.032,1.24-3.988,2.705-6.065,3.865c-1.163,0.648-2.346,1.207-3.383,2.088c-0.335,0.281-0.633,0.582-0.979,0.863
		c-0.988-1.045-1.935-2.164-2.353-3.57"/>
	<g opacity="0.2">
		<path fill="#1E1F1D" d="M143.518,365.549c0.107,0.586,0.111,0.961,0.047,1.252c0.676-0.791,1.425-1.545,2.19-2.266
			c1.201-1.131,5.026-3.623,1.483-4.131c-1.707-0.244-3.141,1.34-4.541,2.752C143.083,363.916,143.375,364.771,143.518,365.549z"/>
		<path fill="#1E1F1D" d="M141.612,369.688c0.095-0.199,0.197-0.395,0.306-0.59C141.809,369.283,141.71,369.484,141.612,369.688z"/>
		<path fill="#1E1F1D" d="M169.831,391.75c-9.598-4.057-22.508-5.262-28.136-15.807c-1.182-2.217-1.009-4.271-0.128-6.164
			c-0.997,2.113-1.471,5.062-1.207,7.033c0.565,4.205,4.78,7.273,8.093,9.363c4.199,2.65,12.345,2.773,13.16,8.865
			c0.409,3.055-0.481,7-2.009,9.574c-1.708,2.879-5.375,3.389-8.621,3.262c-6.678-0.264-11.532-7.5-14.758-12.682
			c-1.416-2.27-2.412-4.34-4.56-6.059c-1.972-1.578-4.233-2.35-6.48-3.322c-1.793-0.777-3.431-1.752-4.953-2.998
			c-0.211-0.172-0.435-0.328-0.649-0.494c1.843,4.539,7.38,5.971,11.751,9.299c5.56,4.232,4.347,13.424,7.777,18.996
			c4.849,7.877,15.902,8.939,24.314,8.449c1.197-2.273,0.418-5.062,1.304-7.129l0.312,5.619c0-5.191,0.266-9.455,1.562-14.365
			C167.57,399.531,170.52,395.598,169.831,391.75z"/>
	</g>
	<path fill="#1E1F1D" d="M137.296,365.4c-0.71-0.023-1.484,0.127-1.989,0.643c-0.492,0.496-0.549,1.25-0.652,1.947
		c-0.534,3.535-1.623,7.32-4.292,9.875c-1.318,1.262-2.886,2.18-4.555,2.906c-1.103,0.48-2.337,1.104-3.532,1.303
		c-0.55,0.092-1.131,0.092-1.689,0.088c-0.38-0.004-0.675,0.18-1.033,0.1c-0.026-0.455-0.471-0.922-0.592-1.4
		c-0.167-0.65-0.164-1.305-0.195-1.988c-0.044-0.949,0.117-1.764,0.271-2.686c0.104-0.625,0.181-1.332,0.362-1.945
		c0.204-0.688,0.502-1.412,0.768-2.086c0.407-1.027,0.872-2.014,1.537-2.902c1.252-1.676,2.362-3.496,3.994-4.824
		c0.489-0.396,0.97-0.879,1.505-1.215c0.515-0.324,1.144-0.389,1.708-0.555c1.173-0.342,2.415-0.629,3.607-0.135
		c1.035,0.43,1.995,0.969,2.904,1.562c0.664,0.434,1.542,0.785,2.141,1.262C137.49,365.422,137.413,365.4,137.296,365.4"/>
	<g>
		<path fill="#E63956" d="M158.013,425.212c-2.338,0.262-4.719,0.125-7.418,0c-2.618-0.121-4.634-0.391-7.367-1.223
			c-0.935-0.285-2.212-0.725-3.179-1.066c-1.245-0.443-3.093-1.381-4.368-2.24c-3.755-2.53-5.936-4.579-6.09-9.085
			c-0.064-1.852-0.053-1.982,0.078-3.824c0.083-1.191,0.461-1.996,0.455-2.182c-0.262,0.705-0.549,1.402-0.732,2.143
			c-0.375,1.535-0.269,3.072-0.269,4.666c0,4.213,0.916,6.998,3.865,10.116c4.398,4.652,11.083,6.334,17.352,6.441
			c4.323,0.076,10.531,0.344,12.625-4.293c0.143-0.314,0.252-0.641,0.341-0.969C162.242,424.581,161.231,424.853,158.013,425.212z"
			/>
		<path fill="#E63956" d="M122.039,391.012c-1.289-1.477-2.552-2.646-3.378-4.445c-0.833-1.814-1.424-3.865-1.562-5.865
			c-0.074-1.068-0.207-2.139-0.343-3.213c-0.052,0.297-0.099,0.588-0.134,0.867c-0.69,5.529,0.845,10.449,5.048,14.078
			c1.128,0.971,2.571,1.93,3.974,2.971C124.496,393.895,123.298,392.453,122.039,391.012z"/>
	</g>
</g>
<g>
	<path fill="#1E1F1D" d="M566.582,487.646c-10.547-10.619-19.763-17.781-30.642-25.965c-9.768-7.344-17.146-6.5-28.826-6.5
		c-20.071,0-36.605,6.088-55.854,8.168c-22.724,2.451-20.57,10.002-4.414,34.625c11.478,17.492,25.061,26.373,18.387,52.021
		c-7.531,28.945-26.689,53.145-39.817,76.99c-4.101,7.447-7.75,15.666-11.521,23.716c-5.085,6.934-18.192,31.201-20.741,35.313
		c-9,14.518-17.855,29.129-27.125,43.477c-14.138,21.881-28.206,43.818-43.088,65.193c-11.606,16.672-22.071,34.395-31.729,52.273
		c-3.963,7.336-11.069,16.254-12.501,24.701c-4.101,24.188,32.287,32.012,48.751,35.781c18.748,4.293,37.89,4.643,56.962,6.23
		c22.792,1.896,45.215,5.52,67.741,9.375c18.567,3.18,36.737,9.941,55.585,9.301c23.337-0.797,8.673-3.826,28.846-17.369
		c6.74-4.525,5.002-4.842,5.447-13.094c1.384-25.678,19.501-36.082,22.208-61.018c2.024-18.648,9.325-49.77,12.667-76.557
		c2.554-20.477,15.506-87.469,16.006-121.662c0.635-15.387,0.074-31.56,0.658-47.004c1.194-31.557,0.521-64.773-16.479-91.439
		L566.582,487.646z"/>
	<path fill="#1E1F1D" d="M1209.707,851.646c-20.897-24.791-171.092-183.346-194.542-205.055
		c-47.61-44.068-97.245-88.219-156.176-108.465c-31.113-10.689-61.855-17.59-93.996-21.232c-10.499-1.189-27.648-4.636-38.901,0.486
		c-7.162,1.71-17.174,7.95-20.307,14.377c-8.478,17.381,10.985,23.771,20.565,30.801c68.399,50.17,69.872,71.467,105.232,121.457
		c14.826,20.961,87.046,202.775,85.334,231.299c40.082,3.566,114.869-19.346,154.333-25.002
		c36.035-5.166,72.017-10.682,108.095-15.283C1196.275,872.868,1223.852,868.425,1209.707,851.646z"/>
</g>
<g>
	<path fill="#EAEAEA" d="M565.367-17.735c-0.374,18.096,2.495,36.709,5.819,54.455c1.837,9.793,0.951,20.282,4,29.812
		c2.862,8.955,11.457,18.439,19.196,23.527c3.621,2.381,8.943,2.658,12.715,4.978c5.258,3.235,9.153,9.415,13.203,14.163
		c18.396,21.568,39.233,41,54.722,65.049c6.005,9.327,12.039,20.852,15.835,31.162c2.009,5.458,1.325,12.355,4,17.516
		c9.229-0.89,19.421-11.236,27.513-16.174c4.726-2.884,9.424-5.816,13.327-9.82c5.556-5.703,6.349-9.492,6.331-17.438
		c-0.047-20.459-3.416-40.11-7.668-59.897c-7.94-36.947-25.081-71.545-56.911-93.022c-6.712-4.529-13.319-6.038-17.225-14.024
		c-5.586-11.424-3.87-26.892-3.267-39.873c-10.234,2.395-21.41-2.527-31.75-3.095c-10.691-0.587-22.701-1.188-32.838,2.481
		c-5.641,2.043-24.475,7.383-27.003,10.908"/>
	<path opacity="0.09" fill="#1E1F1D" enable-background="new    " d="M734.359,119.595c-7.94-36.947-25.081-71.545-56.911-93.023
		c-6.712-4.528-13.319-6.037-17.225-14.024c-5.586-11.423-3.871-26.892-3.267-39.872c-10.234,2.395-21.41-2.527-31.75-3.095
		c-2.92-0.161-5.938-0.319-8.991-0.396c3.611,12.43,12.222,23.356,13.741,36.801c2.079,18.365-24.396,17.887-37.121,24.154
		c-2.125,1.049-10.338,3.998-9.954,7.707c0.476,4.604,12.956,4.86,16.374,4.948c9.951,0.247,19.793-0.651,29.49,2.237
		c8.8,2.619,16.197,8.613,23.622,13.287c12.32,7.762,21.603,21.656,31.175,32.492c9.954,11.266,18.392,27.145,24.781,40.766
		c1.367,2.91,1.852,5.374,2.671,8.218c2.751,9.54,5.844,18.073,9.789,27.38c4.409,10.395,7.771,22.922,8.508,35.121
		c2.271-1.604,4.438-3.347,6.404-5.363c5.556-5.703,6.349-9.492,6.331-17.439C741.979,159.033,738.612,139.381,734.359,119.595z"/>
	<path fill="#FFFFFF" d="M759.976,178.104c-2.865,0.213-6.623-4.584-9.271-5.986c-2.762-1.463-6.437-2.29-9.491-1.227
		c-9.663,3.363-17.559,10.791-24.477,18.17c-2.313,2.467-4.393,4.586-6.381,7.348c-2.107,2.922-5.142,5.898-7.824,8.281
		c-1.614,1.433-3.367,2.64-4.636,4.1c-2.417,2.786-4.983,5.508-7.251,8.352c-3.192,4.006-3.908,8.951-4.535,13.951
		c-0.68,5.406-0.993,13.254,0.138,18.475c0.905,4.182,3.815,10.599,8.05,12.438c2.972,1.294,5.997,0.708,8.768-0.799
		c15.552-8.461,23.647-25.493,33.11-39.586c2.585-3.847,6.248-7.106,8.641-10.978c3.456-5.599,5.935-11.379,10.872-16.012
		c2.3-2.16,4.416-3.677,5.119-6.791c0.695-3.07,0.4-6.428-0.51-9.352c-0.218-0.043-0.447-0.055-0.673-0.032"/>
	<path opacity="0.31" fill="#1E1F1D" enable-background="new    " d="M760.297,178.487c-0.218-0.043-0.448-0.053-0.673-0.031
		l0.352-0.354c-2.865,0.215-6.623-4.584-9.271-5.985c-2.762-1.464-6.437-2.29-9.491-1.226c-5.958,2.072-11.241,5.692-16.041,9.892
		c1.785,2.052,3.479,4.159,4.864,6.37c1.632,2.607,3.59,5.449,4.95,8.205c2.808,5.688,3.592,12.791,4.562,18.957
		c0.125,0.797,0.265,1.658,0.396,2.545c1.745-2.021,3.512-4.021,4.868-6.217c3.457-5.6,5.936-11.379,10.873-16.013
		c2.3-2.159,4.416-3.677,5.118-6.792C761.501,184.769,761.207,181.412,760.297,178.487z"/>
	<path fill="#E63956" d="M766.133,177.577c-1.968,0.124-3.921-0.887-5.81-1.24c-1.885-0.352-3.921-0.166-5.842-0.167
		c-5.674-0.005-9.482,1.871-14.22,4.751c-4.122,2.508-6.998,5.66-10.213,9.167c-3.845,4.194-7.217,9.058-9.413,14.367
		c-4.29,10.362-7.952,20.892-12.792,31.021c-2.375,4.969-5.177,10.018-8.932,14.213c-3.647,4.076-7.744,7.547-11.651,11.332
		c-7.51,7.272-13.237,17.002-10.917,27.896c0.27,1.26,1.078,3.214,2.517,3.531c2.084,0.457,5.712-4.527,6.837-5.757
		c4.849-5.299,9.329-10.937,14.378-16.049c5.147-5.211,10.46-10.658,14.456-16.814c7.122-10.973,14.143-22.076,22.458-32.189
		c3.333-4.058,6.923-7.892,10.354-11.869c1.874-2.17,4.062-3.699,6.05-5.648c2.689-2.639,5.143-5.691,7.884-8.35
		c1.962-1.901,4.215-3.854,5.574-6.248c1.34-2.353,2.732-6.901,1.623-9.56c-0.421-1.005-1.496-1.916-2.516-2.032"/>
	<path fill="#828282" d="M792.47,191.067c-6.476,2.441,6.836-4.604,1.043-5.943c-9.313-2.15-29.197-12.357-44.316-5.812
		c-16.405,7.103-24.564,22.748-29.104,38.031c-5.156,17.344-12.447,33.368-25.668,45.739c-5.947,5.565-14.062,10.29-16.575,18.416
		c-2.413,7.797-0.071,15.075,2.477,22.65c11.274,33.537,18.671,67.713,21.56,103.193c1.275,15.655-4.434,34.288,7.273,59.265
		c1.284,2.738,0.028-5.092,2.238-3.041c4.666,4.34,5.853-1.111,9.395-5.629c13.967-17.812,27.289-35.736,34.713-57.433
		c11.132-32.529,6.492-65.725,11.5-99.021c1.936-12.879,5.588-26.163,14.686-35.833c5.875-6.243,11.562-13.354,15.517-21.01
		c5.026-9.725,5.769-22.984,2.187-32.918c-1.334-3.699-1.848-8.32-3.731-11.752c-1.677-3.052-6.071-5.064-4.156-8.822
		c-0.448-0.155-0.907-0.183-1.382-0.08"/>
	<path fill="#828282" d="M792.47,191.067c-6.476,2.441,6.836-4.604,1.043-5.943c-9.313-2.15-29.197-12.357-44.316-5.812
		c-16.405,7.103-24.564,22.748-29.104,38.031c-5.156,17.344-12.447,33.368-25.668,45.739c-5.947,5.565-14.062,10.29-16.575,18.416
		c-2.413,7.797-0.071,15.075,2.477,22.65c11.274,33.537,18.671,67.713,21.56,103.193c1.275,15.655-4.434,34.288,7.273,59.265
		c1.284,2.738,0.028-5.092,2.238-3.041c4.666,4.34,5.853-1.111,9.395-5.629c13.967-17.812,27.289-35.736,34.713-57.433
		c11.132-32.529,6.492-65.725,11.5-99.021c1.936-12.879,5.588-26.163,14.686-35.833c5.875-6.243,11.562-13.354,15.517-21.01
		c5.026-9.725,5.769-22.984,2.187-32.918c-1.334-3.699-1.848-8.32-3.731-11.752c-1.677-3.052-6.071-5.064-4.156-8.822
		c-0.448-0.155-0.907-0.183-1.382-0.08"/>
	<g opacity="0.2">
		<path fill="#1E1F1D" d="M791.38,191.444c0.275-0.082,0.627-0.203,1.09-0.377h-1.369c0.134,0.022,0.271,0.035,0.404,0.082
			C791.454,191.25,791.424,191.345,791.38,191.444z"/>
		<path fill="#1E1F1D" d="M799.394,211.724c-1.336-3.699-1.849-8.322-3.732-11.752c-1.631-2.971-5.817-4.961-4.281-8.525
			c-0.908,0.275-0.875,0.084-0.398-0.377h0.119c-0.033-0.008-0.065-0.016-0.097-0.021c1.427-1.371,6.5-5.001,2.51-5.923
			c-9.313-2.149-29.197-12.356-44.316-5.812c-8.6,3.722-14.913,9.801-19.649,16.935c4.389,10.129,4.329,21.03,1.666,32.614
			c-2.49,10.844-4.051,21.584-6.815,32.447c-3.623,14.233-6.101,29.386-7.716,43.974c-2.233,20.172-5.057,39.83-10.638,59.303
			c-2.178,7.596-4.248,15.236-6.26,22.895c0.857,6.578,1.559,13.195,2.102,19.861c1.275,15.655-4.434,34.288,7.273,59.267
			c1.284,2.736,0.028-5.094,2.238-3.041c4.666,4.338,5.853-1.113,9.395-5.631c13.967-17.812,27.289-35.734,34.713-57.433
			c11.132-32.529,6.492-65.723,11.5-99.021c1.936-12.879,5.588-26.163,14.686-35.831c5.875-6.244,11.562-13.355,15.517-21.012
			C802.233,234.916,802.976,221.655,799.394,211.724z"/>
	</g>
	<path fill="#595857" d="M721.088,416.352c-4.84,0.117-8.908-2.402-13.491-3.168c-1.829-0.305-3.838-0.406-5.573-0.844
		c-0.059-0.072-0.055-0.08,0.015-0.025c0.279,1.496-0.156,3.725-0.297,5.287c-0.173,1.939-0.534,3.968-0.716,5.95
		c-0.373,4.057-0.176,8.283,0.007,12.318c0.225,4.926-0.224,9.604,0.867,14.451c0.684,3.055,1.338,6.549,2.468,9.465
		c1.008,2.604,3.754,8.525,7.016,8.799c0.252-7.275,2.694-14.199,4.37-21.24c1.203-5.059,1.854-10.461,3.561-15.381
		c0.44-1.275,1.382-2.312,1.83-3.51c0.428-1.139,0.336-2.381,0.462-3.607c0.19-1.834,1.35-4.923,0.677-6.813
		c-0.327-0.92-0.975-1.045-1.371-1.857"/>
	<path fill="#A5A3A2" d="M737.453,276.465c0.667-6.274-3.451-14.149-4.84-20.286c-1.4-6.189-2.757-12.141-3.538-18.441
		c-1.175-9.49-1.124-18.883-1.124-28.426c0-4.863,0.167-10.043,2.549-14.313c1.712-3.067,4.521-6.938,7.654-8.974
		c1.214,18.875-0.796,38.554,1.321,57.453c0.838,7.474,2.036,16.709,0.799,24.199c-0.396,2.399-1.812,4.725-2.121,7.03"/>
	<path fill="#EAEAEA" d="M435.392-6.476c0,19.185-1.241,37.533-2.345,56.322c-0.698,11.896-2.929,23.709-4.223,35.508
		c-1.35,12.271-1.408,24.791-1.408,37.205c0,20.943,1.338,40.586,6.101,60.623c4.754,20.006,10.706,39.639,15.471,59.521
		c2.137,8.928,5.335,17.755,8.575,26.24c3.31,8.662,4.178,17.344,7.016,26.313c4.878,15.424,9.776,30.979,10.555,47.133
		c0.396,8.268,1.223,14.623,7.546,20.055c3.865,3.324,7.055,6.33,12.647,5.436c4.252-0.686,10.971-4.191,14.317-6.828
		c6.313-4.975,10.567-11.945,17.715-14.205c2.537-0.803,2.246,1.66,3.74-1.436c1.002-2.068-0.064-2.926-0.795-4.793
		c-1.038-2.658-3.026-5.01-4.013-7.824c-2.897-8.275-4.561-14.691-4.561-23.955c0-8.785,1.405-16.988,1.405-25.809
		c0-18.125-0.408-36.009-1.302-53.96c-0.849-17.061,3.277-33.916,1.666-50.676c-1.683-17.524-1.839-35.183-5.03-52.107
		c-7.928-42.039,5.744-85.82,3.728-128.41c-0.293-6.221-0.208-12.582-0.538-18.831c-15.425-4.932-36.893,3.179-52.117,6.159
		c-7.612,1.491-14.855,3.059-22.429,4.562c-3.297,0.653-11.447,1.592-12.714,4.703c0.198,0.873,0.543,0.092,0.994,0.459"/>
	<path opacity="0.09" fill="#1E1F1D" enable-background="new    " d="M503.468,45.444c-1.563,8.892-3.09,17.604-4.272,26.578
		c-0.989,7.517-0.068,17.236-5.015,23.43c-4.016,5.027-9.208,6.261-15.138,7.872c-8.566,2.327-16.558,4.778-24.443,9.042
		c-5.939,3.209-13.124,7.095-6.033,12.947c9.282,7.662,22.476,8.545,31.729,16.535c4.922,4.25,6.16,6.312,8.501,12.194
		c4.956,12.452,10.473,23.972,13.263,37.065c3.37,15.83,2.312,33.18,2.312,49.305c0,16.55,2.588,32.947,3.292,49.42
		c0.349,8.103-4.88,15.665-6.123,23.751c-0.529,3.434-1.59,6.332-0.029,9.574c2.502,5.199,8.331,9.867,11.949,14.363
		c3.692,4.588,4.051,6.912,5.352,12.113c0.155,0.619,0.342,1.371,0.557,2.197c2.393-2.176,4.925-4.014,7.99-4.982
		c2.537-0.803,2.246,1.66,3.74-1.434c1.002-2.07-0.064-2.928-0.795-4.795c-1.038-2.658-3.026-5.01-4.013-7.824
		c-2.897-8.275-4.561-14.691-4.561-23.955c0-8.785,1.405-16.988,1.405-25.809c0-18.125-0.408-36.009-1.302-53.96
		c-0.849-17.061,3.277-33.915,1.666-50.676c-1.683-17.524-1.839-35.182-5.03-52.107c-7.928-42.039,5.744-85.82,3.728-128.41
		c-0.293-6.221-0.208-12.582-0.538-18.83c-4.029-1.289-8.471-1.674-13.106-1.507C508.374,0.382,507.447,22.808,503.468,45.444z"/>
	<path fill="#FFFFFF" d="M475.132,342.391c-1.105,0.785-1.51,0.324-2.626,1.334c-0.724,0.654-1.312,2.146-1.496,3.078
		c-0.616,3.137-0.561,6.693-0.836,9.941c-0.29,3.428-0.528,6.865-0.528,10.355c0,4.584,0.18,9.01,0.348,13.576
		c0.183,4.916,1.564,10.229,6.059,12.875c7.948,4.693,16.428-0.332,23.784-3.51c1.694-0.73,3.343-1.75,5.131-2.227
		c1.902-0.508,3.819-0.387,5.668-1.154c3.595-1.494,6.753-2.223,10.572-3.076c1.988-0.445,3.984-0.467,5.928-0.869
		c2.492-0.52,4.787-2.932,6.839-4.297c2.553-1.695,6.011-3.785,6.542-7.025c0.57-3.467,0.585-7.492,0.393-11.035
		c-0.243-4.398-2.907-9.133-4.615-13.197c-0.94-2.244-2.097-4.426-2.907-6.645c-0.978-2.674-1.952-3.172-4.768-3.168
		c0.9,1.588,1.513,6.404-0.066,7.701c-2.042,1.676-6.015,1.535-8.584,1.404c-8.747-0.436-17.331,3.318-26.076,3.727
		c-3.953,0.186-10.574,1.672-14.168-0.387C476.732,348.078,475.614,345.473,475.132,342.391c-0.322,0.037-0.037,0.312-0.207,0.586"
		/>
	<path opacity="0.31" fill="#1E1F1D" enable-background="new    " d="M540.909,360.357c-0.243-4.398-2.907-9.131-4.615-13.197
		c-0.941-2.242-2.097-4.426-2.907-6.643c-0.978-2.676-1.952-3.172-4.768-3.17c0.899,1.59,1.513,6.406-0.066,7.701
		c-2.042,1.678-6.015,1.537-8.584,1.406c-1.584-0.078-3.163-0.018-4.738,0.135c0.826,8.391,2.5,20.312,5.619,26.123
		c3.438,6.4-24.661,15.994-43.369,21.574c7.527,3.359,15.437-1.26,22.355-4.244c1.694-0.73,3.343-1.75,5.131-2.227
		c1.902-0.51,3.819-0.387,5.668-1.156c3.595-1.494,6.753-2.221,10.572-3.076c1.988-0.445,3.984-0.465,5.928-0.869
		c2.492-0.518,4.787-2.932,6.839-4.297c2.553-1.695,6.011-3.783,6.542-7.025C541.087,367.928,541.103,363.9,540.909,360.357z"/>
	<path fill="#E63956" d="M469.062,362.801c0.274-0.357,1.014-1.246,1.758-1.408c1.312-0.285,1.372,0.668,1.642,1.76
		c0.507,2.059,0.407,4.271,0.708,6.361c0.457,3.152,0.847,6.17,1.959,9.211c0.818,2.23,1.291,5.557,3.667,6.744
		c2.539,1.27,4.187-1.762,5.719-3.695c2.647-3.34,5.016-8.701,7.302-12.318c3.455-5.455,7.665-8.375,14.341-9.764
		c4.062-0.844,8.578-0.111,12.69-0.535c3.898-0.398,7.778-2.104,11.679-2.104c2.045,0,4.319,0.891,5.721,2.5
		c1.05,1.203-0.503,2.35-1.756,2.781c-2.954,1.012-6.051,1.654-9.125,2.193c-9.891,1.729-20.508,7.135-26.869,15.043
		c-3.213,3.996-6.313,8.123-10.2,11.504c-3.603,3.135-7.996,6.266-12.936,6.33c-7.929,0.104-7.514-8.617-7.942-14.324
		c-0.256-3.418-0.119-6.896-0.119-10.334c0-2.41-0.565-5.646,0.146-7.988c0.293-0.971,0.846-1.379,1.632-1.98
		c0.08,0.096,0.034,0.184-0.137,0.254"/>
	<path fill="#828282" d="M523.625,361.76c1.672-0.475,3.184-1.16,4.795-1.717c3.201-1.102,6.053-2.58,8.609,0.217
		c4.545,4.973,9.314,9.543,11.759,15.963c1.372,3.607,1.973,7.918,2.679,11.66c0.36,1.914,0.604,3.865,0.704,5.805
		c0.084,1.668-0.509,3.443-0.186,5.062c0.858,4.275,3.312,8.428,4.373,12.672c0.794,3.172,0.771,6.633,0.914,9.854
		c0.156,3.588-1.436,2.287-4.223,2.287c-1.471,0-2.862,0.105-4.23,0.344c-3.431,0.596-7.076,1.893-10.686,2.119
		c-6.671,0.422-13.594,1.693-19.923,3.338c-5.788,1.508-11.551,3.113-16.889,6.031c-5.029,2.75-12.157,7.617-17.959,4.527
		c-3.286-1.748-5.904-2.459-9.688-2.459c-3.329,0-6.51,0.223-9.708,0.832c-3.639,0.693-7.043,2.135-10.684,2.869
		c-2.955,0.598-6.111,0.553-9.149,0.705c-1.793,0.092-7.273,0.6-8.495-0.664c-0.573-0.592-0.916-2.881-1.184-3.742
		c-0.407-1.307-0.456-2.82-0.527-4.225c-0.169-3.314,0.215-5.768,1.72-8.641c1.64-3.129,4.821-5.187,7.254-7.741
		c5.139-5.396,10.282-10.672,12.277-17.967c1.625-5.949,3.162-12.004,4.795-18.09c0.954-3.561,2.578-6.979,3.157-10.551
		c0.461-2.84,3.833-9.217,7.367-8.773c0.091,1.43-0.312,2.625-0.324,4.109c-0.014,1.492,0.756,4.123,0.753,5.707
		c-0.002,2.842,0.807,4.561,1.573,7.225c0.756,2.633,1.861,5.707,3.432,7.959c2.076,2.975,4.711,2.654,7.225,0.449
		c2.616-2.297,4.424-5.238,6.065-8.223c1.502-2.732,3.436-5.004,5.015-7.574c1.965-3.201,3.892-5.855,7.213-7.605
		c2.989-1.574,5.997-1.719,9.37-1.719c1.543,0,2.97,0.072,4.395,0.355C518.267,362.771,520.558,362.633,523.625,361.76z"/>
	<path fill="#A5A3A2" d="M551.994,393.65c-0.729,0.027-0.446-0.855-0.832-1.588c-0.546-1.033-1.326-1.5-2.379-1.979
		c-2.129-0.971-4.467-1.533-6.745-1.883c-6.477-0.994-11.904,1.25-17.314,4.699c-6.994,4.463-14.241,9.264-20.427,14.871
		c-3.95,3.582-7.218,7.879-11.078,11.549c-4.566,4.347-9.133,8.69-13.571,13.155c-2.82,2.836-5.041,5.92-6.648,9.531
		c2.019,0.508,5.248,2.895,7.245,2.674c1.33-0.145,2.687-2.197,3.521-3.207c1.679-2.031,3.116-4.273,4.837-6.252
		c6.335-7.289,13.31-14.168,20.111-20.978c6.274-6.283,14.323-12.07,22.302-16.021c4.638-2.293,12.217-4.318,17.109-2.105
		c1.328,0.6,2.835,1.15,3.488,2.447c-0.34-1.264,0.953-4.299-0.321-4.736"/>
	<path fill="#595857" d="M451.935,441.981c-0.767,0.225-2.166-1.629-2.606-2.258c-1.083-1.551-1.771-3.229-2.667-4.898
		c-1.77-3.291-2.639-6.373-2.965-10.088c-0.19-2.174-0.333-4.217,0.146-6.339c0.309-1.365,1.066-2.691,1.269-3.965
		c-1.298,0.773-2.412,2.688-3.626,3.826c-1.191,1.113-2.655,2.284-3.787,3.528c-1.333,1.469-2.205,2.994-2.939,4.801
		c-0.611,1.508-1.182,2.871-1.142,5.688c0.039,2.564,0.638,6.879,2.508,8.797c0.932,0.955,2.865,1.352,4.139,1.496
		c2.156,0.248,4.783,1.223,6.918,0.799c0.917-0.178,1.794-0.66,2.665-0.906c0.502-0.145,1.691-0.566,1.617-0.596"/>
	<path opacity="0.2" fill="#1E1F1D" enable-background="new    " d="M557.272,421.276c-0.144-3.222-0.121-6.683-0.915-9.853
		c-1.061-4.244-3.515-8.396-4.373-12.672c-0.323-1.619,0.27-3.396,0.186-5.064c-0.1-1.938-0.344-3.889-0.704-5.803
		c-0.706-3.744-1.307-8.053-2.679-11.66c-2.444-6.42-7.214-10.99-11.759-15.963c-2.557-2.797-5.408-1.318-8.609-0.217
		c-1.611,0.555-3.123,1.242-4.795,1.715c-3.067,0.873-5.357,1.014-8.411,0.4c-1.425-0.283-2.852-0.355-4.395-0.355
		c-1.41,0-2.754,0.031-4.062,0.178c2.089,16.221,7.961,40.031,15.91,46.803c19.528,16.632-19.473,8.094-59.475,31.907
		c0.072,0.707-24.717,3.363-24.517,4.006c0.27,0.863-3.613-4.082-3.039-3.488c1.221,1.264,6.701,0.754,8.495,0.664
		c3.039-0.152,6.194-0.107,9.149-0.705c3.641-0.734,7.045-2.176,10.684-2.869c3.198-0.611,6.379-0.834,9.708-0.834
		c3.784,0,6.402,0.711,9.688,2.459c5.802,3.09,12.93-1.775,17.959-4.525c5.338-2.92,11.102-4.523,16.889-6.031
		c6.329-1.646,13.251-2.918,19.923-3.338c3.609-0.229,7.255-1.523,10.685-2.121c1.37-0.236,2.761-0.344,4.231-0.344
		C555.836,423.563,557.429,424.866,557.272,421.276z"/>
	<path fill="#FFFFFF" d="M570.469,458.052c0.041-2.932,0.978-5.67,0.703-8.797c-0.25-2.863-1.706-5.479-2.82-8.094
		c-1.091-2.561-2.31-5.266-2.951-7.963c-0.705-2.965-1.43-5.826-3.95-7.654c-4.547-3.299-11.379-2.385-16.487-1.627
		c-2.987,0.441-6.036,1.52-9.149,1.76c-3.152,0.24-6.067,1.258-9.158,1.406c-3.335,0.16-6.021,0.395-9.149,1.229
		c-3.294,0.877-6.159,2.352-9.322,3.523c-3.18,1.174-5.888,2.621-8.798,4.217c-2.635,1.445-5.226,3.359-8.272,3.35
		c-2.117-0.01-4.156-0.248-6.159-0.75c-1.744-0.434-4.358-1.996-5.944-1.734c-0.475-0.443-3.321-0.281-4.312-0.33
		c-1.673-0.082-3.371,0.002-5.049,0c-3.819-0.006-7.406,1.385-11.09,1.938c-6.026,0.908-11.654,2.518-17.945,1.934
		c-1.378-0.127-3.472,0.203-4.762-0.35c-1.365-0.588-0.15-1.764-1.962-1.531c-3.661,0.473-2.561,7.529-2.429,9.977
		c0.146,2.705,0.116,7.832,2.278,9.855c2.052,1.922,5.513,3.717,8.103,4.396c3.498,0.914,7.271,0.342,10.896,0.875
		c4.395,0.645,8.453-0.562,12.696-1.186c3.96-0.578,7.136-0.812,8.651,3.301c1.065,2.883,2.737,4.877,5.55,6.205
		c2.734,1.297,5.702,1.043,8.797,1.182c3.827,0.174,7.22-0.021,10.954-1.1c4.058-1.174,8.233-2.244,12.22-3.295
		c4.049-1.062,8.526-1.537,12.391-3.029c3.1-1.193,6.469-1.434,9.699-1.898c3.614-0.52,7.289-1.471,10.904-2.072
		c7.216-1.197,14.698-1.631,21.811-2.686c1.268-0.188,2.815-0.041,3.704-0.873"/>
	<path fill="#DBDBDB" d="M472.99,461.923c-0.972-2.633,0.141-6.32-0.176-9.148c-0.146-1.275-0.744-2.895-2.288-2.99
		c-1.286-0.08-2.932,1.898-3.881,2.77c-3.78,3.465-7.918,6.848-12.834,8.318c-1.537,0.463-6.51,1.496-3.559,3.734
		c2.09,1.584,7.032,0.357,9.367,0.125c2.729-0.273,5.851-0.438,8.619-0.168c0.885,0.084,2.566,1.139,3.306,0.844
		C472.632,464.978,473.34,464.681,472.99,461.923"/>
	<path fill="#E63956" d="M432.578,456.409c-2.38,5.482,15.04,9.746,18.493,9.906c4.35,0.201,8.996,0.182,13.466,0.182
		c1.971,0,4.668-0.537,6.517-0.23c2.056,0.338,3.103,2.158,4.274,3.693c5.02,6.572,13.155,8.404,20.829,8.033
		c7.271-0.352,7.774-0.377,12.785-1.525c3.235-0.742,7.999-1.672,11.261-2.109c5.631-0.758,11.651-2.342,16.658-3.17
		c8.176-1.35,15.151-3.582,23.226-5.729c3.807-1.012,9.291-1.482,10.381-7.406c-2.698-2.57-7.395-0.895-10.728-0.467
		c-5.774,0.74-11.511,2.301-17.298,3.461c-6.691,1.338-13.391,1.986-19.893,3.809c-5.855,1.641-11.851,3.055-17.771,4.693
		c-7.799,2.162-15.443,3.879-23.169,0.658c-3.627-1.514-5.78-4.861-9.164-6.473c-3.325-1.578-6.65-0.928-10.073-0.756
		c-5.753,0.287-12.233,0.262-17.831-0.354c-5.144-0.562-8.462-2.348-12.266-5.703c-0.301,0.045-0.229,0.262-0.404,0.428"/>
	<path fill="#FFFFFF" d="M781.647,186.052c-15.354,3.989-26.713,12.617-34.341,26.952c-8.528,16.034-6.729,33.329-9.279,50.815
		c-2.524,17.322-5.031,34.208-4.212,52.507c0.582,13.031,1.772,24.979,0.002,38.014c-1.604,11.791-6.527,22.34-9.371,33.732
		c-4.52,18.08-13.24,36.356-14.925,54.601c-0.654,7.082-2.618,16.402-0.574,23.342c0.808,2.744,3.088,4.676,6.333,5.996
		c3.182,1.293,8.079,1.309,10.91,1.166c3.872-0.199,10.638-0.197,13.607-1.52c9.953-1.291,8.031-3.42,14.152-5.602
		c11.849-4.223,12.555-3.043,20.683-7.037c16.396-8.053,34.363-20.289,44.579-35.512c12.003-17.89,18.757-36.688,17.597-58.597
		c-0.903-17.047-15.89-36.029-10.452-53.256c3.068-9.715,12.211-10.967,16.611-25.923c3.932-13.369,6.559-21.346,7.214-35.369
		c0.345-7.391,0.38-15.113-0.88-21.291c-0.741-3.639-2.287-8.621-5.806-14.43c-2.179-3.594-3.829-4.639-8.61-10.303
		c-2.609-3.091-10.302-7.265-13.736-8.875c-7.767-3.64-14.427-5.82-22.591-8.509c-3.712-1.22-6.845-2.929-10.782-2.929
		C784.904,184.026,784.595,185.157,781.647,186.052"/>
	<path fill="#E63956" d="M835.748,356.605c1.112,6.07,1.144,8.721,0.944,12.764c-1.099,22.461-3.295,40.564-19.209,56.601
		c-7.187,7.24-14.486,16.135-22.849,21.979c-9.616,6.721-22.46,13.277-33.424,17.709c-9.835,3.98-30.319,10.41-41.006,7.41
		c-8.566-2.402-2.622-17.109-0.569-23.229c4.327-12.902,7.354-19.547,11.365-29.322c4.575-11.146,10.082-17.741,16.061-26.749
		c12.362-18.629,26.522-33.965,44.998-46.475c7.078-4.791,16.106-8.604,24.81-8.424c8.074,0.17,16.86,7.84,18.388,16.01"/>
	<path fill="#E63956" d="M775.106,215.466c7.506-13.303,26.127-14.225,39.987-15.473c9.646-0.868,21.29,3.999,26.92,11.982
		c6.268,8.891,10.696,21.104,1.257,24.301c-3.513,1.189-11.885,1.006-11.309,6.793c3.608,2.486,7.717-0.68,11.65,0.525
		c4.235,1.297,4.506,5.053,4.692,8.951c0.384,8.053-1.314,15.484-2.792,23.006c-3.119,15.886-10.105,28.427-26.324,34.124
		c-2.263,0.793-8.632,3.109-10.205,1.053c-1.781-2.336,2.17-10.539,2.838-12.701c2.893-9.381,3.087-19.158,4.562-28.847
		c1.34-8.793,3.411-16.549-1.044-24.623c-3.319-6.018-11.169-8.045-16.879-11.131C790.61,229.181,778.286,223.297,775.106,215.466"
		/>
	<path fill="#E63956" d="M796.222,245.966c-2.13-2.039-4.101-3.123-6.465-5.732c-2.095-2.313-6.039-5.096-8.548-6.844
		c-2.951-2.055-5.842-4.236-9.387-4.291c-4.537-0.07-4.557,1.738-6.453,5.606c-7.644,15.585-6.685,36.183-6.685,53.606
		c0,9.735-0.782,18.985,5.276,26.499c4.66,5.777,11.594,7.66,19.111,5.408c8.425-2.525,8.761-10.463,7.987-18.414
		c-0.796-8.15-1.877-16.247-1.877-24.87c0-4.758,2.511-10.927,4.223-21.205"/>
	<path opacity="0.2" fill="#1E1F1D" enable-background="new    " d="M843.613,243.595c-3.935-1.205-8.042,1.959-11.65-0.525
		c-0.576-5.787,7.796-5.604,11.308-6.793c9.44-3.197,5.012-15.41-1.256-24.301c-5.63-7.983-17.273-12.851-26.92-11.982
		c-2.564,0.23-5.299,0.451-8.091,0.74c1.447,0.543,2.836,1.033,4.095,1.338c5.431,1.306,10.689,2.814,15.855,4.967
		c5.434,2.264,6.852,4.158,9.396,8.977c1.547,2.928,3.373,6.141,2.027,9.488c-2.55,6.335-10.51,7.236-14.385,11.619
		c-1.754,1.982-1.764,6.195-1.385,8.656c0.593,3.867,3.049,4.904,5.339,7.822c6.886,8.772,10,20.558,5.834,30.938
		c-3.023,7.534-5.891,15.363-9.327,22.771c-0.021,0.043-0.043,0.088-0.063,0.133c12.552-6.393,18.36-17.826,21.122-31.892
		c1.478-7.521,3.176-14.953,2.792-23.006C848.119,248.647,847.849,244.892,843.613,243.595z"/>
	<path opacity="0.2" fill="#1E1F1D" enable-background="new    " d="M796.222,245.966c-2.13-2.039-4.101-3.123-6.465-5.732
		c-2.095-2.313-6.039-5.096-8.548-6.844c-2.951-2.055-5.842-4.236-9.387-4.291c-3.306-0.051-4.212,0.896-5.194,2.908
		c2.779,2.766,6.073,5.372,8.514,7.533c6.438,5.706,7.356,9.762,7.356,18.096c0,13.518-0.469,26.954,0.019,40.46
		c0.254,7.084,1.256,15.908-1.253,22.43c-0.019,0.055-0.047,0.109-0.067,0.162c0.621-0.129,1.246-0.279,1.877-0.469
		c8.425-2.525,8.761-10.463,7.986-18.414c-0.795-8.15-1.875-16.247-1.875-24.87c0-4.758,2.51-10.927,4.222-21.205L796.222,245.966z"
		/>
	<path opacity="0.2" fill="#1E1F1D" enable-background="new    " d="M835.748,356.605l-0.493-1.727
		c-1.527-8.17-10.313-15.84-18.388-16.01c-2.818-0.059-5.669,0.307-8.479,0.982c7.106,14.391,9.045,27.709,2.078,43.422
		c-7.767,17.525-19.783,39.149-32.648,52.53c-9.019,9.375-23.338,16.994-34.42,23.639c-6.447,3.861-13.424,9.455-20.805,14.109
		c11.121,1.615,29.471-4.193,38.617-7.896c10.964-4.432,23.809-10.988,33.424-17.709c8.362-5.844,15.662-14.738,22.849-21.979
		c15.915-16.036,18.111-34.14,19.209-56.601C836.892,365.326,836.86,362.676,835.748,356.605z"/>
</g>
<g>
	<path fill="#D8DAD9" d="M939.503-3.315c-9.348,8.774-16.439,18.81-25.375,27.092c-5.302,4.914-14.055,7.42-21.187,7.395
		c-14.07-0.054-22.359-12.031-32.18-20.32c-7.463-6.304-15.321-12.254-21.851-18.613c22.103-1.897,46.098-1.439,68.241,0.746
		c8.811,0.869,24.06,0.439,30.486,6.498"/>
	<g opacity="0.09">
		<path fill="#1E1F1D" d="M894.315,25.438c-2.8,1.967-5.782,3.377-8.918,4.479c2.336,0.785,4.832,1.241,7.544,1.252
			c7.132,0.026,15.884-2.479,21.187-7.396c8.155-7.557,14.779-16.573,22.979-24.76c-4.122-3.426-11.26-4.601-18.142-5.193
			C913.625,5.968,904.457,18.31,894.315,25.438z"/>
		<path fill="#1E1F1D" d="M939.503-3.315c-0.816,0.768-1.611,1.547-2.396,2.332c0.183,0.15,0.362,0.303,0.533,0.465L939.503-3.315z"
			/>
	</g>
	<path fill="#EAEAEA" d="M936.826,119.09c-1.366,14.122,1.54-6.079-0.294,3.087c-2.444,11.086-6.497,51.785-8.047,62.943
		c-0.445,3.203-1.574,6.938-0.746,10.38c0.949,3.944,4.373,7.579,5.891,11.406c2.882,7.267,5.812,14.806,9.045,21.794
		c5.808,12.549,12.746,25.236,20.389,37.128c8.481,13.194,18.387,27.977,22.8,43.127c5.668-0.4,10.415-7.207,14.532-10.379
		c2.392-1.842,5.434-2.266,5.244-5.332c-0.137-2.234-3.142-5.677-3.953-7.658c-1.25-3.052-2.209-6.276-3.7-9.302
		c-3.85-7.809-6.163-16.514-6.589-25.43c-0.215-4.543,0.481-9.26-0.36-13.687c-0.972-5.097-4.174-9.993-5.896-14.597
		c-3.682-9.844-9.345-17.055-14.705-25.85c-4.32-7.1-1.902-13.05,1.717-20.076c1.828-3.547,4.473-6.951,6.403-10.289
		c2.29-3.961,4.731-7.74,7.125-11.5c3.749-5.892,6.714-12.235,10.658-18.246c2.815-4.289,5.483-8.711,8.396-12.936
		c2.075-3.011,4.096-8.523,6.818-10.654c-4.282-1.146-7.98-3.924-12.266-5.229c-6.618-2.018-14.312-2.812-21.215-2.234
		c-10.085,0.842-17.544,7.844-25.841,12.924c-3.895,2.383-8.006,3.701-12.461,3.693"/>
	<g opacity="0.09">
		<path fill="#1E1F1D" d="M939.772,122.177c0.273,0.002,0.543-0.019,0.813-0.029c-0.003-0.258,0.001-0.517-0.007-0.777
			L939.772,122.177z"/>
		<path fill="#1E1F1D" d="M978.557,166.358c2.29-3.961,4.731-7.74,7.125-11.5c3.749-5.891,6.714-12.235,10.658-18.246
			c2.815-4.288,5.483-8.711,8.396-12.936c2.075-3.011,4.096-8.523,6.818-10.654c-4.282-1.146-7.98-3.924-12.266-5.229
			c-6.618-2.018-14.312-2.812-21.215-2.234c-10.085,0.842-17.544,7.844-25.841,12.924c-3.654,2.236-7.504,3.52-11.646,3.664
			c0.016,1.047,0.002,2.088-0.056,3.123c2.143-0.998,4.265-2.008,6.422-3.053c0.079,0.254,0.073,0.48,0.069,0.713
			c8.709,0.187,22.029,7.728,24.534,15.689c2.749,8.73,0.473,19.393-2.122,27.74c-2.085,6.714-5.148,14.445-10.692,18.459
			c-4.374,3.168-10.069,4.664-15.024,6.757c-2.625,1.11-8.058,2.226-9.14,4.763c10.407,3.18,20.149,5.127,28.994,12.1
			c5.977,4.713,10.938,10.052,14.038,17.121c3.627,8.271,3.311,15.699,4.496,24.424c2.373,17.465,10.767,32.949,17.28,48.622
			c0.082,0.195,0.159,0.402,0.24,0.602c0.259-0.223,0.514-0.432,0.769-0.627c2.392-1.842,5.434-2.268,5.244-5.333
			c-0.137-2.235-3.142-5.676-3.953-7.658c-1.25-3.052-2.209-6.277-3.7-9.302c-3.85-7.81-6.163-16.513-6.589-25.429
			c-0.215-4.543,0.481-9.26-0.36-13.688c-0.972-5.097-4.174-9.992-5.896-14.596c-3.682-9.846-9.345-17.055-14.705-25.852
			c-4.32-7.099-1.902-13.049,1.717-20.076C973.979,173.103,976.626,169.696,978.557,166.358z"/>
	</g>
	<path fill="#FFFFFF" d="M1009.575,295.121c-1.415-0.865-2.21-3.264-3.779-3.902c-1.644-0.672-4.163,1.157-5.562,1.815
		c-1.554,0.729-2.857,1.772-4.458,2.354c-1.449,0.524-2.603,1.28-3.862,2.15c-2.609,1.801-5.243,3.514-7.31,5.945
		c-1.336,1.576-2.302,3.92-2.42,6.012c-0.364,6.371,2.995,10.164,9.293,10.139c8.789-0.035,12.646-8.346,16.738-14.688
		c1.535-2.381,3.012-5.727,1.846-8.355c-0.201-0.455-0.553-0.849-0.791-1.32"/>
	<path opacity="0.09" fill="#1E1F1D" enable-background="new    " d="M1005.586,309.16c0.898-1.428,1.76-2.863,2.63-4.213
		c1.535-2.381,3.012-5.727,1.846-8.355c-0.201-0.455-0.553-0.849-0.791-1.32l0.304-0.15c-1.415-0.865-2.21-3.264-3.779-3.902
		c-1.644-0.672-4.163,1.157-5.562,1.815c-1.463,0.688-2.711,1.64-4.188,2.235C998.578,300.193,1002.621,304.422,1005.586,309.16z"/>
	<path fill="#E63956" d="M981.937,307.125c0.543,0,1.086-0.082,1.552,0.258c1.224,0.902,1.741,2.742,3.032,3.467
		c2.014,1.131,4.028,0.816,6.108,0.021c3.071-1.172,5.091-3.49,7.189-5.904c1.176-1.354,2.054-3.004,3.096-4.469
		c0.63-0.885,1.384-1.734,2.08-2.564c0.633-0.754,1.084-1.582,1.643-2.363c0.296-0.412,0.608-0.811,0.97-1.168
		c0.225-0.223,0.681-0.672,1.063-0.5c0.554,0.25,0.418,2.818,0.44,3.244c0.199,3.633-0.928,6.973-2.486,10.213
		c-0.269,0.559-0.436,0.852-0.836,1.299c-1.829,2.055-3.753,4.016-5.741,5.918c-1.341,1.283-2.749,2.529-4.43,3.357
		c-2.042,1.006-4.302,1.141-6.538,1.152c-1.003,0.006-2.115,0.156-3.036-0.301c-0.548-0.27-1.188-0.809-1.66-1.189
		c-1.651-1.336-3.261-2.721-3.667-4.902c-0.341-1.832,0.453-3.848,1.127-5.512c0.104-0.041,0.138,0.016,0.193,0.041"/>
	<path fill="#FFFFFF" d="M1028.753,311.158c1.246,0.201,3.305,1.834,4.225,2.596c1.077,0.893,2.2,1.906,3.047,2.977
		c1.508,1.904,0.399,5.732-0.722,7.664c-0.943,1.625-2.463,3.506-3.825,4.775c-1.559,1.449-3.44,3.186-5.332,4.236
		c-4.174,2.316-7.67,5.617-12.013,7.639c-2.768,1.291-6.577,2.059-7.886,5.146c-0.463,1.096-0.693,2.324-1.129,3.459
		c-0.54,1.396-1.567,2.646-2.307,3.93c-1.103,1.924-2.765,3.637-4.414,5.121c-3.867,3.492-7.653,6.75-12.752,8.188
		c-1.968,0.555-3.892,1.395-5.902,1.842c-1.86,0.412-3.771,0.717-5.646,1.076c-2.538,0.488-7.308,0.748-9.538-0.773
		c-0.646-0.439-1.052-0.92-1.483-1.539c-0.423-0.605-1.267-1.895-1.112-2.617c0.174-0.812,1.46-0.506,2.218-0.605
		c1.048-0.135,1.929-0.457,2.923-0.83c2.454-0.928,5.03-1.459,7.472-2.371c2.225-0.834,4.47-1.924,6.629-2.953
		c3.091-1.473,6.028-3.209,7.782-6.326c1.591-2.826,2.735-6.047,4.041-9.016c1.043-2.377,2-4.793,3.047-7.166
		c0.767-1.738,1.928-3.172,2.74-4.854c2.144-4.445,4.192-9.838,7.849-13.32c1.619-1.543,3.638-2.477,5.637-3.398
		c4.393-2.023,9.621-2.396,14.341-3.021c0.763-0.102,3.07-0.773,3.109,0.498"/>
	<path fill="#C0BFBF" d="M1054.615-54.048c-2.126,25.512,25.332,45.754,29.396,69.863c1.907,11.314-2.337,24.277-10.129,32.35
		c-22.2,22.995-47.217-35.408-50.897-50.128c-3.829-15.324-8.064-42.972,10.385-50.647c4.055-1.688,15.811-6.636,17.576-0.703"/>
	<path fill="#1E1F1D" d="M1003.068,124.044c0.459,2.63,10.124-5.559,13.87,0.807c8.85,0.478,3.737,23.535,12.406,24.764
		c-1.203-4.531,0.979,0.994-0.827-3.584c-1.74-4.414-3.986-8.613-5.545-13.09c-1.528-4.389-2.79-9.098-4.557-13.164
		c7.387-3.857,18.436-2.934,26.483-2.369c8.033,0.562,17.302,2.509,24.41,6.461c4.471,2.488,10.661,11.193,15.665,12.014
		c1.062-8.863-4.946-16.271-5.192-23.306c-0.181-5.156,2.261-9.479,2.813-14.628c0.394-3.66,1.15-7.568,0.816-11.286
		c-0.469-5.24-3.493-7.685-6.87-11.692c-4.198-4.984-8.284-10.059-12.833-14.525c-3.658-3.594-13.305-6.756-18.691-4.745
		c-4.019,1.5-8.394,8.122-11.095,11.297c-4.961,5.828-9.229,12.142-12.935,18.833c-4.697,8.48-8.38,17.07-10.123,26.619
		c-0.643,3.52-2.239,11.851-6.739,11.695"/>
	<path fill="#828282" d="M1010.382,293.254c-2.113,0.008-2.447-0.148-3.234,1.908c-1.033,2.703-1.629,5.611-2.823,8.229
		c-1.958,4.291-3.959,6.771-8.272,8.779c-2.499,1.16-6.686,1.832-9.479,1.26c-2.803-0.574-3.208-4.26-4.46-6.42
		c-1.914-0.107-3.552-0.197-4.974,1.018c-1.572,1.346-1.835,3.955-1.461,5.957c1.082,5.799,6.059,10.193,3.342,16.592
		c-2.409,5.676-4.815,11.066-7.423,16.664c-1.57,3.373-3.719,6.365-5.811,9.467c-1.011,1.5-2.767,3.176-3.375,4.783
		c-2.022,5.35,3.744,3.826,6.771,2.729c3.834-1.391,7.454-2.893,11.136-4.832c2.686-1.416,5.864-2.867,8.03-5.049
		c7.524-7.578,12.774-16.799,18.457-25.791c4.609-7.295,14.002-10.436,21.319-14.266c4.374-2.289,2.119-2.971,0.219-5.285
		c-2.001-2.438-4.156-4.67-6.573-6.875c-1.965-1.793-4.243-2.783-6.35-4.283c-1.312-0.934-2.685-4.396-4.433-3.979"/>
	<path fill="#E63956" d="M1035.035,315.629c-1.921,0.883-2.545,2.357-3.851,3.963c-1.647,2.021-3.532,3.883-5.241,5.861
		c-2.141,2.482-4.83,4.4-7.286,6.555c-1.584,1.389-2.751,3.02-4.17,4.533c-1.132,1.203-2.129,2.213-3.02,3.625
		c-0.552,0.871-1.078,1.674-1.426,2.592c1.36-0.641,2.83-1.125,4.09-1.713c4.344-2.023,7.84-5.322,12.013-7.641
		c1.891-1.049,3.773-2.787,5.332-4.236c1.362-1.27,2.882-3.148,3.825-4.775c1.121-1.93,2.229-5.758,0.722-7.662
		C1035.726,316.354,1035.387,315.988,1035.035,315.629z"/>
	<path fill="#E63956" d="M1002.41,350.371c-1.676,1.633-3.526,3.078-5.22,4.734c-3.236,3.16-6.386,6.027-10.435,8.252
		c-4.204,2.311-8.246,4.076-12.961,5.244c-2.702,0.672-5.702,0.756-8.631,0.742c2.397,1.146,6.599,0.91,8.935,0.461
		c1.873-0.359,3.784-0.664,5.645-1.076c2.011-0.447,3.935-1.287,5.903-1.842c5.099-1.438,8.885-4.695,12.752-8.188
		c1.647-1.484,3.311-3.197,4.414-5.121c0.737-1.283,1.766-2.531,2.306-3.93c0.146-0.383,0.27-0.779,0.387-1.176
		C1004.295,348.686,1003.237,349.566,1002.41,350.371z"/>
	<path opacity="0.09" fill="#1E1F1D" enable-background="new    " d="M1010.029,342.781c-0.661-0.258-1.259-1.148-1.802-1.625
		c-0.682-0.592-1.352-1.227-1.981-1.848c-0.514-0.51-1.812-1.998-2.615-1.812c-0.174,0.207-0.426,0.334-0.55,0.605
		c-0.238,0.518-0.318,1.318-0.417,1.879c-0.335,1.906,0.026,3.879-0.161,5.799c-0.266,2.752-0.7,5.496-1.152,8.215
		c-0.134,0.803-0.3,1.553-0.545,2.287c0.76-0.344,1.345-1.686,1.756-2.35c0.544-0.881,1.05-1.727,1.654-2.525
		c1.236-1.637,1.512-3.736,2.245-5.586c0.312-0.785,0.837-1.303,1.511-1.773c0.356-0.252,2.043-0.725,2.006-1.162"/>
	<path fill="#1E1F1D" d="M979.862,351.355c-1.376-0.215-3.372-0.672-4.469-1.635c-0.867-0.762-1.164-2.121-1.697-3.105
		c-0.303-0.559-0.698-1.066-1.086-1.572c-0.336,0.73-0.668,1.459-1.013,2.195c-1.57,3.375-3.719,6.365-5.811,9.469
		c-1.011,1.5-2.767,3.174-3.375,4.781c-2.022,5.35,3.744,3.826,6.771,2.73c3.834-1.391,7.454-2.895,11.136-4.834
		c2.686-1.414,5.863-2.867,8.029-5.047c1.064-1.072,2.073-2.186,3.055-3.316c-0.261,0.064-0.519,0.139-0.782,0.193
		C987.196,351.91,983.313,351.896,979.862,351.355z"/>
	<path fill="#A5A3A2" d="M1009.892,324.816c0.038-8.795,1.109-17.717,6.062-25.184c0.725-1.096,0.836-0.883,1.973-0.301
		c0.771,0.396,1.521,0.822,2.261,1.363c-0.254,0.898-0.864,1.803-1.25,2.668c-0.642,1.443-0.916,2.965-1.189,4.529
		c-0.824,4.717-1.303,7.301-0.943,12.023c0,0-1.314,0.67-3.028,1.797C1012.497,322.553,1011.392,323.453,1009.892,324.816
		C1009.742,324.479,1009.854,325.195,1009.892,324.816"/>
	<path opacity="0.09" fill="#1E1F1D" enable-background="new    " d="M1028.343,308.996c-2.001-2.438-4.156-4.67-6.574-6.875
		c-1.964-1.793-4.242-2.783-6.349-4.283c-1.312-0.934-2.685-4.396-4.433-3.979l-0.606-0.605c-2.114,0.008-2.446-0.148-3.233,1.908
		c-1.034,2.703-1.629,5.611-2.824,8.229c-1.958,4.291-3.959,6.771-8.272,8.779c-2.499,1.162-6.686,1.832-9.479,1.26
		c-2.804-0.574-3.208-4.26-4.46-6.42c-1.562-0.088-2.938-0.15-4.166,0.486c0.149,0.271,0.296,0.539,0.453,0.77
		c0.508,0.742,0.914,1.559,1.485,2.262c0.616,0.758,0.997,1.564,1.641,2.299c1.938,2.209,4.458,3.146,7.372,3.178
		c2.899,0.029,6.017-1.604,8.664-2.707c2.354-0.98,4.289-2.686,6.19-4.48c1.507-1.42,3.499-2.98,5.649-2.021
		c1.145,0.51,2.314,1.539,3.392,2.232c1.188,0.766,2.469,1.33,3.287,2.531c1.59,2.334-2.125,4.365-3.571,5.52
		c-4.807,3.838-10.094,7.494-13.214,13.004c-1.164,2.057-2.523,3.906-3.704,5.957c-1.01,1.754-1.96,3.551-3.018,5.275
		c-1.871,3.049-3.678,6.256-6.146,8.871c-2.402,2.547-5.078,4.75-7.697,7.051c-1.211,1.062-2.729,1.412-4.113,2.191
		c-1.216,0.682-2.451,1.402-3.699,2.029c-1.01,0.506-2.106,0.84-3.124,1.307c-0.778,0.357-1.661,0.764-2.494,0.977
		c-0.643,0.162-1.262,0.186-1.935,0.152c-0.465-0.021-0.902-0.213-1.35-0.283c0.234,2.723,4.645,1.525,7.166,0.611
		c3.834-1.389,7.454-2.893,11.136-4.832c2.686-1.416,5.864-2.867,8.03-5.049c7.524-7.578,12.774-16.799,18.457-25.791
		c4.609-7.295,14.002-10.436,21.319-14.266C1032.498,311.992,1030.243,311.311,1028.343,308.996z"/>
	<path opacity="0.25" fill="#1E1F1D" enable-background="new    " d="M975.228,311.613c-0.217,1.326,1.965,3.619,2.842,4.473
		c1.369,1.328,2.857,2.604,4.537,3.508c1.377,0.744,3.041,1.598,4.563,1.934c0.474,7.545-2.516,14.395-6.088,20.914
		c-0.972,1.771-1.745,3.684-2.758,5.43c-0.467,0.809-0.836,1.285-1.734,1.416c-0.649,0.096-1.347-0.008-1.968,0.229
		c-1.588,0.605-2.782,2.541-4.462,2.805c-2.333,0.365-0.466-1.57-0.021-2.502c1.525-3.178,3.061-6.379,4.619-9.529
		c0.626-1.268,1.034-2.859,1.545-4.223c0.592-1.576,1.284-3.141,1.933-4.709c0.64-1.545,1.152-2.744,1.152-4.461
		c0-1.5-0.171-2.486-0.735-3.859c-0.528-1.283-0.792-2.658-1.383-3.934c-0.546-1.178-1.314-2.5-1.591-3.84
		c-0.167-0.812-0.233-1.943-0.225-2.74"/>
	<path fill="#828282" d="M942.597,75.373c-4.018,16.577-7.466,32.538-8.11,49.56c10.407,0.614,20.438,2.086,30.958,2.086
		c7.771,0,15.474-0.422,23.24-0.402c4.848,0.012,9.697-0.645,14.436-0.807c3.896-0.131,3.359,0.082,6.145-2.738
		c4.515-4.567,7.66-10.088,11.709-15.055c4.218-5.176,9.041-9.707,13.307-14.847c5.796-6.987,19.281-19.931,17.643-30.218
		c-21.191-3.062-41.219-11.74-63.144-8.215c-8.585,1.382-17.905,8.004-25.218,12.576c-5.248,3.283-13.302,9.656-19.754,6.851"/>
	<path opacity="0.2" fill="#1E1F1D" enable-background="new    " d="M1051.922,62.951c-21.19-3.062-41.219-11.74-63.144-8.214
		c-8.585,1.381-17.905,8.003-25.217,12.576c-1.312,0.82-2.801,1.832-4.393,2.849c6.069,0.165,11.7,1.159,17.725,2.114
		c7.522,1.191,15.146,1.451,22.64,2.988c9.237,1.895,14.888,9.819,10.37,19.258c-1.905,3.98-5.551,7.812-8.513,11.049
		c-3.063,3.349-4.062,6.568-6.511,10.267c-2.29,3.458-4.062,7.13-5.896,10.771c4.747-0.014,9.495-0.641,14.135-0.799
		c3.896-0.131,3.358,0.082,6.145-2.738c4.515-4.567,7.66-10.088,11.708-15.055c4.219-5.176,9.042-9.707,13.308-14.847
		C1040.075,86.183,1053.56,73.237,1051.922,62.951z"/>
	<path fill="#E63956" d="M941.992-23.079c-0.354,10.364,5.933,19.788,8.222,29.732c1.807,7.853,3.432,16.553,2.089,24.859
		c-1.498,9.256-5.456,18.719-7.757,27.868c-1.31,5.208-0.613,11.011-1.763,16.104c7.76,1.129,18.765-4.072,26.44-5.493
		c14.562-2.694,29.344-2.41,44.321-2.286c22.458,0.186,45.285,8.791,66.707,12.027c2.426-15.162-12.899-31.959-18.397-45.615
		c-9.139-22.691-12.73-47.42-13.006-71.496c-25.839-3.359-50.711,0.732-75.188,7.656c-9.397,2.658-20.918,6.373-30.981,5.432"/>
	<path fill="#D8DAD9" d="M1011.555,120.487c6.24-1.881,15.061-4.782,22.24-5.483c7.794-0.761,15.699-0.017,23.009,2.421
		c11.43,3.809,26.938,8.264,28.941,21.588c1.819,12.092,2.258,27.004,8.161,37.725c6.207,11.277,16.922,15.707,25.733,24.502
		c9.381,9.363,17.438,18.521,24.713,29.492c3.559,5.369,7.083,11.047,10.903,16.242c2.921,3.971,3.269,8.029,5.63,12.398
		c2.875,5.32,5.715,10.825,9.277,15.725c2.234,3.07,4.755,9.108,8.23,10.157c-9.333,9.141-14.905,21.113-21.445,31.766
		c-2.16-6.197-6.107-12.342-9.38-18.217c-4.944-8.873-9.189-18.138-15.915-25.633c-6.01-6.698-12.38-13.278-18.37-20.187
		c-5.444-6.278-11.368-12.549-17.863-17.428c-6.03-4.529-12.732-10.502-19.652-14.123c-7.767-4.063-14.978-7.892-20.496-14.605
		c-2.572-3.129-3.947-8.241-5.669-11.934c-2.641-5.664-4.917-11.742-8.169-17.269c-5.707-9.694-12.604-16.521-18.24-26.248
		c-4.885-8.429-12.218-15.207-16.938-25.806"/>
	<path opacity="0.2" fill="#1E1F1D" enable-background="new    " d="M1044.72,115.3c4.665,2.629,9.587,7.725,13.184,11.719
		c7.025,7.807,10.861,19.276,14.223,29.084c1.925,5.621,5.146,13.525,4.023,19.746c-0.925,5.119-6.893,9.491-10.976,12.412
		c-4.129,2.952-10.228,6.852-1.041,8.067c3.927,0.521,7.65-1.267,11.339-2.239c5.411-1.427,11.739-1.354,17.342-0.902
		c10.045,0.81,16.337,10.314,22.545,17.444c9.18,10.543,18.578,21.955,25.812,33.833c6.074,9.973,11.192,21.301,16.494,31.864
		c3.29,6.558,8.811,12.255,12.598,18.689c2.418-3.459,5.069-6.764,8.13-9.763c-3.475-1.049-5.996-7.087-8.229-10.156
		c-3.562-4.899-6.401-10.404-9.277-15.726c-2.362-4.37-2.708-8.429-5.63-12.397c-3.821-5.195-7.345-10.875-10.904-16.242
		c-7.273-10.973-15.332-20.129-24.713-29.492c-8.812-8.795-19.525-13.227-25.732-24.502c-5.903-10.723-6.343-25.633-8.161-37.727
		c-2.004-13.322-17.513-17.779-28.941-21.586c-4.118-1.373-8.428-2.191-12.799-2.523
		C1044.258,115.042,1044.499,115.177,1044.72,115.3z"/>
	<path fill="#FFFFFF" d="M1173.243,278.423c-1.404-2.514-3.168-4.913-4.861-7.304c-1.223-1.353-2.992,2.44-3.639,3.595
		c-1.541,2.75-2.956,5.581-4.593,8.213c-2.843,4.571-6.614,7.931-10.074,11.988c-2.422,2.842-3.454,5.158-1.37,8.511
		c1.064,1.711,2.072,3.289,2.861,5.215c1.113,2.717,2.377,5.43,3.485,8.109c3.687,0.167,9.432-0.821,11.374-4.25
		c1.325-2.34,1.483-4.89,1.887-7.498c0.594-3.835,1.564-7.447,2.688-11.153c0.655-2.159,1.955-4.69,2.36-6.865
		c0.268-1.438,0.048-3.092,0.048-4.551c0-1.477,0.058-2.977-0.025-4.447c-0.192-0.124-0.274-0.01-0.475-0.062"/>
	<path opacity="0.09" fill="#1E1F1D" enable-background="new    " d="M1161.731,281.515c1.425,0.248,2.482,1.546,3.453,2.512
		c2.058,2.046,3.873,4.381,5.174,6.987c0.328,0.657,0.604,1.406,0.861,2.175c0.692-2.003,1.777-4.247,2.143-6.205
		c0.268-1.438,0.048-3.092,0.048-4.551c0-1.477,0.058-2.977-0.025-4.447c-0.179-0.115-0.266-0.029-0.438-0.059
		c-1.354-2.332-2.984-4.576-4.565-6.808c-1.223-1.353-2.992,2.44-3.639,3.595c-1.255,2.238-2.432,4.525-3.707,6.721
		C1161.276,281.452,1161.511,281.476,1161.731,281.515z"/>
	<g>
		<path fill="#E63956" d="M1176.315,278.854c-1.529-0.412-2.811-1.174-4.457-0.983c-1.739,0.2-2.971,1.646-3.715,3.128
			c-0.757,1.512-1.041,3.376-1.528,4.977c-0.504,1.653-0.884,3.316-0.968,4.62c-0.125,1.953-0.556,3.965-1.337,5.938
			c-0.663,1.678-1.711,3.42-2.622,4.992c-0.782,1.355-2.32,3.078-3.229,4.338c-1.072,1.49-1.833,2.795-2.975,4.238
			c-0.766,0.965-1.768,1.369-2.776,2.105c-1.173,0.85-2.502,0.67-3.841,0.975c-0.295,0.068-0.854,0.141-1.062,0.396
			c-0.215,0.266-0.16,0.797-0.17,1.105c-0.08,2.412,2.84,2.791,4.712,2.902c2.948,0.172,6.312-0.367,9.13-1.316
			c2.834-0.955,4.506-3.592,5.75-6.156c1.978-4.076,3.057-8.576,4.616-12.814c1.174-3.189,2.574-6.309,3.935-9.427
			c0.688-1.576,1.729-3.225,1.958-4.958c0.125-0.933-0.48-4.438-2.028-4.36"/>
		<path fill="#595857" d="M1160.579,311.766c-4.84,4.27-13.845-0.758-15,1.354c-1.826,6.859,6.256,13.156,9.643,17.832
			c2.034,2.809,4.767,4.846,7.431,6.686c1.182-7.568-0.323-14.238-0.935-21.631c-0.167-2.033,0.229-7.869-1.406-8.92
			c-0.096,1.152-0.411,2.189-0.438,3.352"/>
		<path fill="#828282" d="M1203.513,288.652c-2.957-1.009-8.644-3.63-11.623-4.729c-3.166-1.169-6.186-2.062-9.486-2.615
			c-2.563-0.432-7.31-3.98-9.968-2.578c-3.754,1.981-4.446,9.404-4.751,11.888c-0.462,3.777-1.083,7.408-3.321,10.502
			c-2.358,3.26-4.524,6.525-6.912,9.74c-1.256,1.693-2.402,2.906-2.622,4.99c-0.422,3.996,0.323,7.766,1.56,11.488
			c1.093,3.291,2.63,6.381,3.682,9.727c1.23,3.918,2.1,7.629,3.087,11.617c2.374,9.592,2.163,19.59,2.163,29.467
			c0,4.795,1.478,7.314,4.64,10.662c1.128-2.57,3.46-4.646,5.192-6.883c4.14-5.346,6.462-11.717,10.308-17.244
			c6.719-9.66,10.545-21.078,10.524-32.961c-0.006-3.545,0.132-7.1-0.198-10.629c-0.246-2.641-1.016-4.832-1.011-7.467
			c0.012-5.445-0.042-10.719,2.067-15.789c0.612-1.472,6.361-6.607,4.021-7.938"/>
		<path fill="#A5A3A2" d="M1177.223,279.537c-2.217,3.341-3.643,6.176-3.631,10.238c0.015,5.06,1.599,9.643,4.953,13.51
			c3.28,3.781,6.409,6.594,10.705,9.121c2.18,1.283,4.38,2.518,6.593,3.693c0.445-1.367,1.538-2.67,1.693-4.148
			c0.219-2.086-2.336-2.064-4.092-2.908c-4.603-2.215-8.037-6.539-10.812-10.639c-2.008-2.969-3.139-5.629-3.139-9.248
			c0-3.158,0.107-5.618,1.196-8.38c-1.084-0.307-2.552-1.1-3.314-1.239"/>
		<g opacity="0.09">
			<path fill="#1E1F1D" d="M1155.37,313.93c0.029-0.021,0.056-0.051,0.083-0.076c-0.017,0.004-0.037,0.008-0.054,0.01
				C1155.388,313.885,1155.38,313.908,1155.37,313.93z"/>
			<path fill="#1E1F1D" d="M1201.621,289.9l1.665-1.399c-2.957-1.01-8.417-3.479-11.396-4.578c-3.166-1.169-6.186-2.062-9.486-2.615
				c-2.563-0.432-7.31-3.98-9.968-2.578c-3.754,1.981-4.446,9.404-4.751,11.888c-0.462,3.777-1.083,7.408-3.321,10.502
				c-2.358,3.26-4.524,6.525-6.912,9.74c-0.789,1.062-1.532,1.938-2.034,2.955l0.168-0.084c-0.043,0.049-0.089,0.084-0.134,0.123
				c3.726-0.527,7.708-4.801,9.832-7.539c2.97-3.832,4.002-8.951,7.208-12.566c3.637-4.104,12.598-3.719,14.592,1.873
				c1.177,3.299,0.823,6.73,0.158,10.07c-1.333,6.711-2.105,13.557-2.487,20.424c-0.233,4.221-0.127,8.494-0.118,12.732
				c0.014,7.098-1.643,13.967-2.108,20.967c-0.284,4.275-1.027,8.666-1.804,12.982c1.473-2.764,2.938-5.529,4.734-8.111
				c6.719-9.66,10.545-21.08,10.523-32.963c-0.006-3.543,0.133-7.1-0.197-10.627c-0.246-2.643-1.017-4.834-1.012-7.467
				c0.013-5.445-0.042-10.719,2.068-15.791C1197.455,296.366,1203.962,291.23,1201.621,289.9z"/>
		</g>
		<path fill="#1E1F1D" d="M1180.187,357.211c-4.147-1.143-8.017-3.02-12.241-3.969c-1.306-0.293-2.634-0.492-3.968-0.654
			c1.494,8.383,1.344,17.018,1.344,25.561c0,4.795,1.478,7.316,4.64,10.662c1.128-2.568,3.46-4.645,5.192-6.881
			c4.14-5.346,6.462-11.717,10.308-17.244c1.985-2.857,3.712-5.869,5.168-8.998C1187.42,357.354,1184.162,358.305,1180.187,357.211z
			"/>
		<path opacity="0.25" fill="#1E1F1D" enable-background="new    " d="M1163.158,348.684c2.221,8.975,2.179,18.305,2.166,27.557
			c1.629-2.365,3.13-4.854,3.442-7.77c0.295-2.756-0.383-5.406,1.262-7.766c1.675-2.402,3.788-2.471,2.974-6.121
			c-0.783-3.512-3.018-7.479-4.327-10.895c-2.562-6.688-2.286-12.543-2.691-19.598c-4.357-0.078-7.562-1.537-11.101-3.266
			c0.259,2.209,0.797,4.369,1.509,6.512c1.093,3.291,2.631,6.381,3.682,9.727C1161.302,340.982,1162.17,344.693,1163.158,348.684z"
			/>
		<path fill="#FFFFFF" d="M1213.739,290.732c-2.069-1.613-2.957-1.437-4.994-2.168c-1.804-0.646-3.741-0.247-5.641-0.251
			c-3.549-0.01-6.847,2.652-8.783,5.405c-1.441,2.047-1.65,3.877-2.462,6.098c-1.619,4.434-1.625,8.303-1.625,13.053
			c0,6.477,1.142,12.52,1.702,18.871c0.298,3.389-0.104,7.305-2.308,9.992c-0.973,1.189-2.255,2.236-3.238,3.465
			c-2.493,3.119-4.392,6.693-5.761,10.482c-1.553,4.291-3.377,8.182-5.299,12.33c-2.023,4.371-3.543,9.422-4.729,14.115
			c-0.368,1.457-0.724,2.91-0.795,4.385c-0.076,1.59-0.169,2.393,1.396,3.064c2.751,1.186,6.024,0.006,8.712-0.943
			c3.134-1.111,6.657-2.982,9.51-4.652c6.022-3.533,11.36-9.172,15.45-14.727c3.396-4.613,6.422-10.1,7.192-15.885
			c0.646-4.857-1.319-8.254-3.08-12.559c-1.255-3.07-2.691-6.572-2.096-10.012c0.788-4.551,5.875-7.025,7.709-11.045
			c1.854-4.057,2.262-7.992,2.446-12.346c0.159-3.715,0.53-7.826-0.153-11.471c-0.257-1.36-0.916-2.049-1.268-3.218
			C1214.993,292.496,1214.415,290.803,1213.739,290.732"/>
		<path opacity="0.2" fill="#1E1F1D" enable-background="new    " d="M1201.332,305.158c1.858,0,3.332-0.178,4.182,1.803
			c0.829,1.934,0.389,4.734,0.135,6.76c-0.339,2.684-1.27,5.045-1.291,7.795c-0.015,1.906,0.405,4.41-0.303,6.213
			c-0.81,2.062-3.314,2.457-4.214,4.381c-1.953,4.178,6.051,5.73,5.525,10.176c-0.262,2.211-2.706,3.225-4.544,3.932
			c-1.924,0.742-3.822,1.4-5.619,2.236c-0.821,0.383-1.5,1.018-2.342,1.367c-0.867,0.361-1.817,0.252-2.623,0.646
			c-1.33,0.646-1.256,2.908-0.735,4.104c0.731,1.676,3.128,1.971,4.766,2.057c2.927,0.156,5.983,0.33,8.765-0.736
			c1.368-0.523,2.749-1.318,4.056-2.018c0.743-0.396,1.471-0.926,1.985-1.633c1.25-1.719-0.295-4.518-0.681-6.537
			c-0.552-2.887-1.724-5.551-2.246-8.471c-0.479-2.656-0.581-5.645-0.479-8.354c0.07-1.832,1.737-3.52,3.214-4.557
			c0.001-1.674,0.886-3.684,1.348-5.281c0.946-3.285,1.45-6.461,1.698-9.881c0.131-1.791,0.804-5.434-0.404-6.953
			c-0.643-0.811-2.343-1.619-3.209-2.176c-0.853-0.543-1.571-0.936-2.572-1.031c-3.25-0.314-4.393,3.854-4.411,6.461"/>
		<path fill="#E63956" d="M1196.59,324.625c0.027-0.762-1.113-2.027-1.435-2.738c-0.899-1.99-1.232-4.146-1.575-6.287
			c-0.468-2.93-0.579-6.428-0.246-9.398c0.723-6.477,3.589-13.434,10.567-15.174c2.698-0.674,7.672,0.929,9.341,3.356
			c3.203,4.661,2.917,9.774,2.917,15.216c0,2.162,0.077,4.393-0.729,6.434c-0.638,1.615-2.037,3.012-2.998,4.457
			c-0.872,1.311-2.073,2.91-3.438,3.74c-0.922,0.562-2.038,0.428-3.108,0.385c-0.111-2.447,0.439-4.387,1.3-6.648
			c1.066-2.801,1.673-5.52,1.71-8.539c0.024-1.941-0.233-4.602-2.562-4.877c-2.526-0.301-5.018,1.084-5.284,3.709
			c-0.289,2.838-0.09,5.961,0.181,8.768c0.204,2.111,0.701,5.434-0.907,7.094c-0.821,0.848-2.903,1.189-3.833,0.201"/>
		<path fill="#E63956" d="M1209.706,351.559c-2.178-2.801-7.468-1.326-9.845,0.246c-2.761,1.828-4.058,3.609-7.511,1.963
			c-1.552-0.738-2.137-2-4.034-2.006c-2.076-0.008-2.621,1.148-3.621,2.828c-3.001,5.039-4.748,10.191-7.122,15.475
			c-1.768,3.928-5.673,11.037-3.629,15.588c2.909,6.486,19.322-7.266,21.847-10.035
			C1201.962,368.852,1209.706,361.1,1209.706,351.559"/>
		<path opacity="0.2" fill="#1E1F1D" enable-background="new    " d="M1213.243,294.385c-1.669-2.429-6.643-4.029-9.341-3.355
			c-1.401,0.35-2.628,0.916-3.713,1.641c2.965,0.084,5.87,0.549,7.897,2.993c1.6,1.925,3.074,5.741,3.487,8.235
			c0.977,5.908,1.242,12.299-3.269,16.627c-0.764,0.732-1.559,1.412-2.346,2.092c-0.069,0.641-0.105,1.295-0.072,2
			c1.069,0.041,2.186,0.178,3.107-0.387c1.365-0.83,2.566-2.43,3.438-3.74c0.961-1.443,2.359-2.84,2.998-4.455
			c0.807-2.043,0.729-4.271,0.729-6.434C1216.16,304.158,1216.446,299.045,1213.243,294.385z"/>
		<path opacity="0.2" fill="#1E1F1D" enable-background="new    " d="M1199.861,351.805c-2.456,1.627-3.755,3.209-6.441,2.381
			c0.66,1.408,2.353,1.926,4.176,2.014c3.462,0.168,7.35-2.156,6.665,3.062c-0.494,3.783-5.048,8.166-7.25,11.121
			c-2.158,2.895-5.149,5.645-7.845,8.037c-3.082,2.73-6.518,6.322-10.37,8.648c5.99-1.631,15.16-9.438,16.996-11.451
			c6.171-6.766,13.915-14.518,13.915-24.059C1207.528,348.758,1202.238,350.232,1199.861,351.805z"/>
	</g>
</g>
</svg>
