<?xml version="1.0" encoding="utf-8"?>
<!-- Generator: Adobe Illustrator 15.0.0, SVG Export Plug-In . SVG Version: 6.00 Build 0)  -->
<!DOCTYPE svg PUBLIC "-//W3C//DTD SVG 1.1//EN" "http://www.w3.org/Graphics/SVG/1.1/DTD/svg11.dtd">
<svg version="1.1" id="Calque_1" xmlns="http://www.w3.org/2000/svg" xmlns:xlink="http://www.w3.org/1999/xlink" x="0px" y="0px"
	 width="1417.32px" height="841.89px" viewBox="0 0 1417.32 841.89" enable-background="new 0 0 1417.32 841.89"
	 xml:space="preserve">
<linearGradient id="SVGID_1_" gradientUnits="userSpaceOnUse" x1="-24.7437" y1="25.8008" x2="1444.1062" y2="908.3749">
	<stop  offset="0" style="stop-color:#FFFFFF"/>
	<stop  offset="1" style="stop-color:#C9C9C9"/>
</linearGradient>
<rect x="-4.93" y="-7.177" fill="url(#SVGID_1_)" width="1429.22" height="948.529"/>
<polygon fill="#E63956" points="-63.123,-50.05 -116.313,-50.05 1788.718,908.188 1788.718,832.569 "/>
<path opacity="0.15" fill="#010202" d="M551.58,342.919c0,0,865.808-26.71,916.244-39.316c50.438-12.604,19.59,31.096,19.59,31.096
	l-156.803,8.221l18.651-13.362l107.306-7.438c0,0-975.521,37.688-993.514,34.13C445.061,352.691,398.58,347.849,551.58,342.919z"/>
<path opacity="0.15" fill="#010202" d="M308.739,264.136c0,0,382.345-10.436,386.788-12.563
	c4.443-2.129,483.42-18.526,483.42-18.526l272.477-12.474v19.118l-681.192,33.744l311.035-26.432l-784.871,26.432
	C296.396,273.435,258.533,271.978,308.739,264.136z"/>
<path fill="#979797" d="M1423.15,217.738c5.242,2.412,5.912,11.226,7.211,16.666c2.612,10.949,5.318,22.829,7.189,33.778
	c1.353,7.935,0.857,20.017-4.067,26.936c-5.437,7.639-19.86,10.474-28.326,13.234c-30.035,9.795-57.119,26.835-72.729,55.151
	c-4.644,1.014-11.979-1.426-15.84-3.904c-4.097-2.628-6.421-10.663-11.462-9.647c-3.283-9.685-10.206-27.326-4.717-37.104
	c2.629-4.682,10.348-9.507,14.811-12.085c12.475-7.207,23.128-17.273,35.312-26.114c12.366-8.973,25.211-16.85,37.146-26.72
	c11.157-9.228,23.488-26.098,36.757-31.477"/>
<path opacity="0.2" fill="#1E1F1D" enable-background="new    " d="M1434.292,251.572c-3.771,2.703-7.542,5.186-10.501,7.312
	c-10.663,7.667-20.597,15.318-30.216,24.403c-11.543,10.897-21.353,24.031-34.833,32.629c-14.62,9.325-28.813,16.015-46.135,18.639
	c-3.654,0.553-7.716,1.995-11.637,2.754c1.364,4.744,2.989,9.2,4.156,12.644c5.041-1.016,7.365,7.02,11.462,9.647
	c3.861,2.479,11.196,4.918,15.84,3.904c15.609-28.316,42.693-45.356,72.729-55.151c8.466-2.761,22.89-5.596,28.326-13.234
	c4.925-6.919,5.42-19.001,4.067-26.936C1436.631,262.798,1435.507,257.188,1434.292,251.572z"/>
<path fill="#FFFFFF" d="M1300.983,305.2c7.778-3.88,8.918-4.273,14.928-6.811c5.634-2.383,5.182-1.711,9.128,3.344
	c4.396,5.63,8.414,12.142,11.913,18.393c3.839,6.857,11.754,15.116,11.212,23.16c-0.266,3.983-4.111,10.174-6.188,13.595
	c-3.518,5.799-7.672,15.667-12.65,20.251c-4.563,4.199-11.851,2.478-16.698-1.203c-10.214-7.762-23.1-20.651-24.375-34.014
	C1287.628,335.393,1284.698,313.413,1300.983,305.2C1300.787,306.062,1301.588,304.467,1300.983,305.2"/>
<path opacity="0.09" fill="#1E1F1D" enable-background="new    " d="M1340.497,325.647c-0.467,1.386-1.204,2.705-1.701,4.143
	c-2.896,8.392-7.903,15.737-13.843,22.372c-5.04,5.633-12.183,13.593-20.311,17.012c2.679,2.526,5.417,4.803,7.985,6.755
	c4.848,3.681,12.135,5.402,16.698,1.203c4.979-4.584,9.133-14.452,12.65-20.251c2.076-3.421,5.922-9.611,6.188-13.595
	C1348.565,337.304,1344.293,331.206,1340.497,325.647z"/>
<path opacity="0.15" fill="#010202" d="M1484.844,401.531l-227.088,11.567c0,0-152.543,7.712,0,14.139
	c152.543,6.426,183.018,0,183.018,0s-80.955,29.915-773.682,61.051c0,0-164.836,9.674-1.74,9.64
	c155.892-0.034,732.179-43.205,810.495-45.219"/>
<path fill="#828282" d="M1298.051,296.568c10.996-0.36,13.104,3.872,11.504,14.233c-0.898,5.804-3.325,10.453-3.363,16.516
	c-0.04,7.218,0.57,12.384,3.399,19.016c2.871,6.74,8.849,20.079,18.116,19.231c4.872-0.444,10.825-4.878,11.583,2.337
	c1.757,16.714-14.671,43.794,5.889,53.337c4.047,1.879,13.559,6.17,11.565,12.436c-2.39,7.511-23.301,7.29-29.88,7.272
	c-15.936-0.037-40.436-1.408-49.001-17.598c-4.496-8.5-5.104-18.109-6.289-27.449c-1.337-10.541-8.59-19.72-14.82-28.189
	c-9.007-12.245-19.013-19.645-19.124-36.215c-0.064-9.729,4.713-17.59,11.102-24.79c5.384-6.067,13.103-14.84,20.878-17.777
	c6.459-2.44,24.874-3.688,31.502,0.356c3.318,2.028-8.877,3.176-7.022,6.321"/>
<path fill="#515151" d="M878.199-17.037c12.574,12.02,27.281,21.209,40.333,32.538c8.294,7.205,15.279,16.381,22.838,24.247
	c27.428,28.555-9.37,77.805-23.108,105.028c-8.021,15.888-22.046,28.667-29.889,44.515c-4.111,8.305,1.923,15.582,10.199,18.443
	c7.071,2.448,8.46-3.013,14.088-9.062c5.467-5.873,11.5-10.61,17.612-16.06c26.356-23.502,61.748-37.107,90.995-58.036
	c9.889-7.077,39.799-24.407,39.452-37.936c-0.16-6.374-7.784-11.575-11.368-16.372c-4.692-6.278-7.494-14.085-11.528-20.758
	c-5.39-8.912-12.88-16.53-19.301-24.696C1006.27,9.238,993.663-6.062,983.44-22.921c-5.475-9.033-8.625-22.259-15.372-30.182
	c-4.793-5.626-6.856-4.942-14.172-1.755c-19.876,8.661-37.461,23.748-57.439,32.7c-5.368,2.403-15.358,2.013-18.258,7.69"/>
<path fill="#515151" d="M903.688,183.679c3.251,2.246,5.892,5.104,8.773,7.717c0.939,0.851,4.213,2.146,4.52,3.411
	c0.37,1.538-2.381,3.916-3.271,4.895c-1.911,2.1-3.868,4.373-5.907,6.329c-1.662,1.592-4.725,4.523-7.063,5.126
	c-4.881,1.255-8.982-4.942-11.947-7.839c-1.96-1.913-3.642-3.57-4.287-6.319c-0.753-3.2,0.55-4.009,3.09-6.032
	c3.849-3.067,8.917-7.242,13.907-8.419c1.504-0.357,3.387-0.244,2.402,1.774"/>
<path fill="#515151" d="M886.453,191.172c6.112,1.646,16.593,9.361,19.19,15.707c2.253,5.49,2.253,12.94,4.087,18.832
	c5.289,16.964,19.711,29.928,23.467,47.281c0.979,4.531,6.484,10.117,5.726,14.721c-1.147,6.964-9.664,6.752-14.906,6.752
	c-10.979,0-17.943-4.684-27.868-8.645c-10.961-4.371-20.131-7.301-25.232-18.674c-6.707-14.962-31.752-30.549-25.45-49.646
	c3.868-11.723,11.787-25.193,25.039-27.159c5.215-0.772,10.192,0.318,15.235,0.831"/>
<path opacity="0.15" fill="#010202" d="M1440.773,586.61c0,0-392.173,21.85-419.538,23.135
	c-27.364,1.285-107.488,12.905,42.89,12.831c120.805-0.059,442.568-23.113,442.568-23.113L1440.773,586.61z"/>
<path opacity="0.15" fill="#010202" d="M1451.427,758.837c-21.174-2.915-43.279,6.539-64.229,7.741
	c-24.575,1.408-48.446,3.759-73.271,5.116c-51.882,2.837-103.328,3.693-154.033,13.066c-22.771,23.301,56.697,12.827,62.408,12.277
	c78.501-7.565,158.901-4.816,236.638-13.975c-0.874-7.813-2.831-16.518-7.514-22.941"/>
<path fill="#D8DAD9" d="M471.409-20.68c-1.054,7.629-5.169,15.306-6.427,23.246c-1.656,10.465-3.6,21.576-5.608,32.166
	c-1.594,8.407-1.707,18.463-7.89,24.774c-4.094,4.18-12.91,10.714-18.119,13.063c-12.961,5.841-28.346,6.341-40.855,14.264
	c-9.981,6.321-20.974,12.183-28.421,21.784c-11.47,14.785-22.096,30.159-34.027,44.214c-3.71,4.37-7.303,9.115-11.728,12.853
	c-2.847,2.403-9.16,4.737-9.584,8.955c-0.414,4.111,12.788,17.343,15.508,21.342c1.398,2.053,3.904,5.236,5.756,7.054
	c7.601-8.168,12.112-19.967,19.939-28.223c10.596-11.181,29.029-21.934,43.744-27.636c18.499-7.17,35.81-18.211,53.836-26.443
	c13.282-6.065,29.719-16.329,40.586-25.739c13.207-11.435,23.599-28.56,33.412-43.231c6.376-9.534,12.463-20.245,16.726-31.141
	c2.562-6.544,5.058-13.56,7.054-20.287c2.57-8.669,2.521-20.251,6.269-28.126c-20.466,0.417-38.973,7.185-59.012,10.324
	c-5.445,0.854-17.75,4.087-21.802-1.285"/>
<path fill="#D8DAD9" d="M656.271-14.467c5.52,4.574,11.508,8.551,17.135,12.99C676.695,1.12,683.91,4.08,684.57,9.074
	c0.396,3.003-2.105,5.247-3.764,7.392c-3.652,4.725-6.975,9.8-10.324,14.825c-5.816,8.724-9.84,18.346-13.461,28.027
	c-2.783,7.446-4.217,15.189-6.737,22.586c-3.03,8.886-7.364,17.315-10.508,26.172c-5.096,14.352-10.774,28.67-14.873,43.162
	c-1.753,6.188-1.24,7.754,5.567,9.413c6.467,1.574,13.521,2.116,20.168,1.757c0.879-3.539,5.842,2.833,8.206,0.105
	c2.736-3.147,3.093-11.477,4.822-15.164c1.604-3.416,6.03-14.186,8.005-17.751c1.386-2.497,3.193-4.629,4.732-6.961
	c3.562-5.395,6.65-11.349,10.359-16.623c6.248-8.879,12.113-18.102,18.309-27.043c4.761-6.873,9.976-13.227,13.35-20.552
	c3.509-7.613,7.877-15.12,12.291-22.214c8.894-14.304,16.773-32.408,15.568-49.613c-0.356-5.076-3.49-15.317-7.33-19.101
	c-3.781-3.721-11.081-3.382-16.46-3.379c-13.872,0.008-22.362,4.104-33.922,11.487c-5.501,3.512-11.399,7.367-17.721,9.085
	c-4.677,1.272-8.903,1.704-13.721,1.704"/>
<path opacity="0.2" fill="#1E1F1D" enable-background="new    " d="M530.288-25.368c-4.742,16.16-11.015,32.329-16.656,47.728
	c-6.587,17.992-12.708,41.244-27.91,54.173c-9.497,8.078-22.362,6.479-34.235,6.895c-8.4,0.295-6.934,2.609-11.585,8.388
	c-3.898,4.845-10.819,8.67-16.191,12.18c-19.731,12.886-42.469,23.918-60.089,39.813c-12.767,11.517-22.593,25.273-32.468,39.278
	c-2.667,3.783-5.488,7.526-7.988,11.462c0.442,0.546,0.829,1.044,1.092,1.434c1.398,2.053,3.904,5.236,5.756,7.054
	c7.601-8.168,12.112-19.967,19.939-28.223c10.596-11.181,29.029-21.934,43.744-27.636c18.499-7.17,35.81-18.211,53.836-26.443
	c13.282-6.065,29.719-16.329,40.586-25.739c13.207-11.435,23.599-28.56,33.412-43.231c6.376-9.534,12.463-20.245,16.726-31.141
	c2.562-6.544,5.058-13.56,7.054-20.287c2.57-8.669,2.521-20.251,6.269-28.126C544.285-27.641,537.244-26.68,530.288-25.368z"/>
<path opacity="0.2" fill="#1E1F1D" enable-background="new    " d="M746.281-13.407c-0.356-5.076-3.49-15.317-7.33-19.101
	c-3.781-3.721-11.081-3.382-16.46-3.379c-7.448,0.005-13.335,1.222-18.988,3.459c11.435,6.64,24.187,19.393,19.043,27.282
	c-4.771,7.32-28.429,5.872-26.117,15.842c15.512,4.951,18.378,24.007,10.874,37.363c-7.063,12.574-16.524,24.72-25.109,36.367
	c-13.37,18.137-21.709,37.737-28.309,59.238c-1.496,4.872-3.57,9.049-6.107,13.313c-1.024,1.723-2.066,3.583-3.123,5.48
	c2.013,0.055,4.016,0.055,5.984-0.051c0.879-3.539,5.842,2.833,8.206,0.105c2.736-3.147,3.093-11.477,4.822-15.164
	c1.604-3.416,6.03-14.186,8.005-17.751c1.386-2.497,3.193-4.629,4.732-6.961c3.562-5.395,6.65-11.349,10.359-16.623
	c6.248-8.879,12.113-18.102,18.309-27.043c4.761-6.873,9.976-13.227,13.35-20.552c3.509-7.613,7.877-15.12,12.291-22.214
	C739.606,21.902,747.486,3.798,746.281-13.407z"/>
<path fill="#979797" d="M754.811-27.105c-5.49,0.612-8.783,6.509-12.353,10.281c-6.56,6.932-14.068,13.031-21.066,19.765
	c-11.083,10.664-22.791,22.449-34.846,31.486c-21.521,16.136-48.171,27.049-70.868,43.396c-8.402,6.052-17.092,11.095-29.559,22.956
	c-6.748,8.653-14.558,20.115-19.41,25.849c-11.141,13.162-20.9,28.186-30.876,42.643c-3.851,5.58-8.134,11.615-12.354,16.852
	c-4.177,5.181-11.068,8.037-14.976,13.104c-6.188,8.016,2.746,24.097,5.49,33.387c1.431,4.841,2.066,9.499,4.328,13.511
	c4.885-12.908,16.402-22.352,26.993-32.239c10.385-9.698,19.61-20.306,30.347-29.562c28.7-24.747,58.954-45.808,91.794-64.764
	c30.206-17.434,60.436-33.331,89.494-53.306c19.681-13.527,36.766-29.854,56.5-43.074c9.44-6.326,16.053-15.529,24.558-23.087
	c6.763-6.007,21.939-16.294,23.438-25.769c-9.959-5.247-30.056-1.736-40.925-1.461c-16.224,0.417-32.228,3.312-48.414,4.031
	c-6.919,0.307-15.355,2.408-19.866-2.713"/>
<path opacity="0.2" fill="#1E1F1D" enable-background="new    " d="M822.963-27.244c-3.055,3.673-5.968,7.458-8.171,9.497
	c-4.772,4.41-7.94,9.735-12.649,14.186c-7.272,6.868-16.405,11.582-24.023,17.943c-21.277,17.768-44.114,43.464-70.459,52.34
	c-19.598,6.602-42.748-1.646-61.693,5.123c-23.223,8.302-25.778,41.694-36.756,60.893c-12.023,21.03-25.865,35.476-46.162,50.085
	c-8.033,5.779-32.299,28.681-52.977,39.036c1.473,3.96,3.024,7.722,3.921,10.753c1.431,4.841,2.066,9.499,4.328,13.511
	c4.885-12.908,16.402-22.352,26.993-32.239c10.385-9.698,19.61-20.306,30.347-29.562c28.7-24.747,58.954-45.808,91.794-64.764
	c30.206-17.434,60.436-33.331,89.494-53.306c19.681-13.527,36.766-29.854,56.5-43.074c9.44-6.326,16.053-15.529,24.558-23.087
	c6.763-6.007,21.939-16.294,23.438-25.769C852.19-30.553,834.187-27.869,822.963-27.244z"/>
<path fill="#BFBEBE" d="M1127.539-20.68c4.77,2.581,7.947,10.586,11.064,14.673c5.549,7.275,11.284,15.865,17.227,23.288
	c10.014,12.511,19.505,26.21,29.561,39.296c9.539,12.411,21.825,24.194,29.547,37.774c6.427,11.302,8.184,24.098,7.712,37.115
	c-0.904,24.832-42.099,35.476-61.051,42.75c-10.49,4.027-21.573,6.06-31.489,10.265c-10.904,4.624-22.439,10.371-33.417,15.908
	c-24.142,12.18-54.815,19.452-74.046,39.15c-4.649,4.762-8.177,12.398-11.407,18.481c-4.987,9.383-5.59,22.612-17.339,23.338
	c-15.227,0.94-27.562-7.669-36.002-19.746c-4.652-6.655-9.806-18.348-1.297-23.329c9.746-5.703,22.029-9.615,32.113-16.672
	c13.973-9.78,28.311-22.814,40.582-34.065c16.879-15.478,35.184-31.037,53.461-44.497c9.396-6.919,17.673-15.901,28.07-21.579
	c4.827-2.636,13.105-3.652,8.871-9.625c-3.868-5.457-18.9-8.775-24.968-11.228c-11.598-4.687-23.383-8.631-35.139-12.979
	c-9.499-3.515-27.485-6.926-30.374-16.359c-3.452-11.271,1.499-22.85,8.482-31.103c14.95-17.665,33.906-33.041,52.939-46.114
	c9.787-6.723,19.11-13.269,29.679-18.692c3.223-1.65,6.603-4.45,10.333-3.664c0.323,2.425-0.814,4.912-1.828,6.971"/>
<path fill="#D8DAD9" d="M984.447-20.466c-3.567,3.572-5.604,8.972-9.238,12.632c-2.986,3.007-7.601,5.513-11.323,8.601
	c-9.574,7.939-15.421,18.885-23.974,27.276c-16.276,15.966-33.195,32.217-45.434,51.697c-5.821,9.266-13.571,16.601-19.731,25.085
	c-5.136,7.071-9.649,16.586-14.901,22.776c-4.954,5.843-11.797,10.031-16.758,16.428c-7.549,9.733-15.765,16.478-25.078,24.675
	c-17.738,15.614-39.409,22.468-54.677,41.323c-10.364,12.802-18.433,26.396-26.303,40.648
	c-6.645,12.039-17.632,21.357-25.678,32.864c-7.099,10.152-15.85,19.455-23.381,29.498c-7.621,10.17-23.689,19.533-27.237,31.543
	c-4.184,14.171,10.83,25.118,17.674,35.148c1.928,2.827,3.614,6.045,5.286,8.668c4.544-7.299,9.317-12.072,15.397-17.499
	c5.957-5.313,5.502-7.922,9.198-14.937c2.987-5.665,8.879-8.8,13.771-12.22c21.287-14.878,38.479-34.723,57.599-52.289
	c18.026-16.568,34.692-33.35,52.527-49.685c7.306-6.692,15.165-10.056,23.713-15.463c9.278-5.873,17.118-14.183,25.583-21.443
	c49.364-42.354,101.351-80.324,152.683-120.146c9.05-7.024,17.759-14.682,26.496-22.044c8.721-7.347,10.784-9.049,4.135-18.812
	c-13.353-19.605-39.595-25.944-59.01-38.471c-8.499-5.485-21.436-11.652-25.625-21.57"/>
<path opacity="0.2" fill="#1E1F1D" enable-background="new    " d="M1064.797,43.86c-13.353-19.605-39.595-25.944-59.01-38.471
	c-3.627-2.339-8.061-4.81-12.277-7.637c2.892,14.982,16.633,26.368,14.949,42.809c-1.891,18.423-24.694,39.937-36.778,53.369
	c-17.764,19.749-37.108,40.812-59.208,55.511c-6.573,4.372-14,7.956-21.428,10.698c-8.914,3.29-19.546,2.965-28.136,6.853
	c-8.927,4.042-8.089,9.147-11.273,17.329c-4.56,11.711-15.454,23.443-23.369,33.696c-26.272,34.033-55.427,69.67-92.112,92.95
	c-24.682,15.662-41.987,44.559-70.803,52.613c4.094,5.812,9.609,11.099,13.057,16.148c1.928,2.827,3.614,6.045,5.286,8.668
	c4.544-7.299,9.317-12.072,15.397-17.499c5.957-5.313,5.502-7.922,9.198-14.937c2.987-5.665,8.879-8.8,13.771-12.22
	c21.287-14.878,38.479-34.723,57.599-52.289c18.026-16.568,34.692-33.35,52.527-49.685c7.306-6.692,15.165-10.056,23.713-15.463
	c9.278-5.873,17.118-14.183,25.583-21.443c49.364-42.354,101.351-80.324,152.683-120.146c9.05-7.024,17.759-14.682,26.496-22.044
	C1069.383,55.325,1071.446,53.623,1064.797,43.86z"/>
<path opacity="0.2" fill="#1E1F1D" enable-background="new    " d="M1214.938,94.352c-7.722-13.58-20.008-25.363-29.547-37.774
	c-10.056-13.086-19.547-26.785-29.561-39.296c-5.942-7.423-11.678-16.013-17.227-23.288c-3.117-4.087-6.295-12.092-11.064-14.673
	l1.285-0.643c1.014-2.059,2.151-4.546,1.828-6.971c-3.73-0.786-7.11,2.014-10.333,3.664c-10.568,5.424-19.892,11.97-29.679,18.692
	c-4.908,3.369-9.804,6.897-14.633,10.576c18.74,11.115,35.43,26.853,51.552,41.091c11.472,10.129,32.578,32.963,27.442,51.014
	c-1.815,6.374-10.94,11.473-6.042,18.172c4.194,5.741,16.123,5.932,20.606,12.854c9.64,14.894-31.301,6.098-38.601,5.997
	c-7.39-0.101-11.593,2.342-17.098,6.966c-12.883,10.821-25.404,23.346-36.861,36.043c-25.08,27.791-54.762,50.394-79.702,78.193
	c-6.228,6.943-10.462,16.818-16.329,24.799c4.028,1.28,8.345,1.875,12.925,1.592c11.749-0.726,12.352-13.955,17.339-23.338
	c3.23-6.083,6.758-13.72,11.407-18.481c19.23-19.698,49.904-26.971,74.046-39.15c10.978-5.537,22.513-11.284,33.417-15.908
	c9.916-4.205,20.999-6.237,31.489-10.265c18.952-7.274,60.146-17.918,61.051-42.75
	C1223.121,118.449,1221.364,105.653,1214.938,94.352z"/>
<path fill="#010202" d="M981.448-47.027c-9.421,17.077-23.219,31.954-33.86,48.401c-6.483,10.021-10.807,21.476-15.409,32.141
	c-0.473,1.093-1.994,2.822-1.803,3.841c0.192,1.056,5.09,5.146,6.095,6.161c2.061,2.078,4.355,3.778,6.823,5.329
	c15.322,9.624,30.379,18.453,46.711,26.418c10.471,5.106,20.273,9.032,31.721,10.103c2.925,0.273,7.832,1.431,10.726,0.875
	c3.489-0.665,8.146-4.588,11.209-6.441c5.568-3.374,10.88-7.151,15.95-11.241c15.86-12.79,74.25-47.082,88.382-61.698
	c0,0-7.941-10.944-14.006-19.524c-5.074-7.177,7.417-15.328,11.125-23.058c-9.175-3.959-17.487-9.824-26.915-13.522
	c-18.431-7.227-37.914-9.29-57.557-9.379c-18.511-0.085-35.375,0.613-53.505,3.881c-9.059,1.635-20.393,3.836-26.973,10.285"/>
<path fill="#BFBEBE" d="M1270.846,103.349c1.063,7.772-8.441,15.341-12.528,21.242c-5.374,7.76-10.596,17.631-13.831,26.685
	c-8.578,24.003-15.235,50.46-22.751,75.414c-6.477,21.496-12.855,43.301-26.577,61.094c-6.111,7.928-11.735,14.956-20.581,19.938
	c-9.266,5.22-19.759,7.005-28.932,12.195c-18.644,10.551-35.741,23.06-53.275,35.348c-16.694,11.701-27.284,30.618-43.679,42.555
	c-17.331,12.617-32.009,29.77-48.234,43.57c-7.414,6.309-14.862,10.009-19.891,18.523c-4.584,7.763-6.079,10.3-2.146,19.109
	c2.709,6.064,7.111,16.361,11.723,21.033c6.229,6.313,16.125,3.904,22.362-0.986c8.652-6.785,16.497-11.518,26.818-16.58
	c22.072-10.827,39.546-28.553,63.023-38.367c29.854-12.482,60.387-28.475,87.43-46.349c11.299-7.463,21.403-17.165,33.033-24.518
	c12.996-8.216,24.859-16.611,34.446-28.694c9.953-12.547,21.471-25.415,32.852-36.568c7.848-7.691,20.078-19.804,27.004-27.92
	c8.105-11.996,12.496-16.561,17.855-22.694c4.677-5.362,9.443-10.534,14.166-15.906c5.312-6.045,10.132-12.132,14.881-18.596
	c12.009-16.343,22.208-35.154,26.507-55.153c1.984-9.251,4.593-18.298-4.075-24.531c-18.277-13.146-45.411-10.332-66.19-16.5
	c-12.683-3.76-22.646-11.296-34.176-16.915c-5.118-2.494-9.378-5.103-15.233-4.501"/>
<path opacity="0.2" fill="#1E1F1D" enable-background="new    " d="M1386.445,143.192c-18.277-13.146-45.411-10.332-66.19-16.5
	c-9.695-2.875-17.804-7.952-26.232-12.694c4.065,4.854,9.245,9.496,12.684,13.709c4.509,5.518,10.245,9.785,16.206,13.59
	c6.894,4.397,16.074,8.169,19.939,15.999c6.937,14.045-1.131,32.802-7.673,45.157c-7.082,13.375-14.746,25.444-23.319,37.911
	c-11.67,16.966-24.246,33.024-35.871,50.004c-7.356,10.745-16.634,23.238-29.512,26.855c-11.944,3.352-24.159,3.336-36.569,3.336
	c-5.267,0-15.599-1.891-15.531,5.781c0.024,2.887,4.009,6.424,5.587,9.002c2.543,4.152,4.018,7.581,4.192,12.708
	c0.43,12.565-16.852,26.357-26.634,33.718c-15.488,11.652-35.087,17.908-53.034,24.904c-5.888,2.297-17.184,4.591-30.044,9.801
	c-10.925,5.622-21.787,12.814-31.253,17.931c-11.169,6.029-23.451,10.684-34.058,17.603c-12.805,8.354-25.633,16.798-38.49,25.229
	c-2.546,1.669-5.964,4.43-9.758,7.269c2.578,5.611,5.857,12.104,9.258,15.552c6.229,6.313,16.125,3.904,22.362-0.986
	c8.652-6.785,16.497-11.518,26.818-16.58c22.072-10.827,39.546-28.553,63.023-38.367c29.854-12.482,60.387-28.475,87.43-46.349
	c11.299-7.463,21.403-17.165,33.033-24.518c12.996-8.216,24.859-16.611,34.446-28.694c9.953-12.547,21.471-25.415,32.852-36.568
	c7.848-7.691,19.292-17.85,25.829-26.563c8.071-11.59,13.671-17.917,19.03-24.051c4.677-5.362,9.443-10.534,14.166-15.906
	c5.312-6.045,10.132-12.132,14.881-18.596c12.009-16.343,22.208-35.154,26.507-55.153
	C1392.505,158.473,1395.113,149.426,1386.445,143.192z"/>
<path fill="#010202" d="M1425.721,184.321c0.041-7.751,2.009-15.431,3.621-22.957c3.745-17.497,6.037-35.134,7.714-52.949
	c3.62-38.496,6.038-81.347,0.23-119.684c-2.086-13.767-3.426-40.381-13.723-51.616c-12.339-13.466-43.911-9.549-58.832-5.92
	c-18.684,4.549-36.479,12.662-53.256,21.865c-3.202,1.758-9.396,3.555-11.098,6.948c-0.751,1.497,0.379,4.464,0.04,6.12
	c-3.657,17.903-18.559,28.903-25.605,44.824c-6.656,15.041-9.731,31.539-10.425,47.959c-0.855,20.276,3.888,41.866-6.632,66.505
	c11.884,13.27,33.226,24.777,48.936,33.266c19.587,10.585,39.555,18.268,61.226,21.801
	C1387.681,183.701,1405.715,177.716,1425.721,184.321"/>
<path fill="#D8DAD9" d="M1425.721,292.284c-13.646,19.105-25.137,38.852-36.843,59.079c-13.505,23.331-21.151,48.178-40.509,67.69
	c-16.662,16.796-39.647,22.203-59.333,35.237c-16.847,11.155-34.055,20.925-47.349,36.977
	c-16.805,20.285-33.754,40.054-48.171,62.358c-11.413,17.659-20.996,37.076-34.063,53.574
	c-9.457,11.937-21.217,19.648-17.367,35.556c2.204,9.104,9.232,18.503,14.307,26.311c3.467,5.335,9.98,19.419,17.293,19.847
	c0.049-8.156,6.751-17.951,9.763-25.615c3.587-9.123,7.631-18.461,11.994-27.224c11.134-22.359,28.854-39.126,48.388-54.216
	c20.318-15.696,44.618-27.043,66.22-41.068c18.223-11.831,34.966-23.386,50.552-37.719c11.444-10.526,26.894-17.105,40.705-23.999
	c13.602-6.782,27.073-14.243,40.305-21.589c8.293-4.599,16.35-11.772,26.021-12.955c1.075-11.409-2.603-22.014-5.926-32.787
	c-3.997-12.948-6.304-26.37-10.471-39.221c-5.212-16.071-11.999-31.201-16.108-47.716c-2.784-11.186-3.193-23.44-11.121-31.665"/>
<path opacity="0.2" fill="#1E1F1D" enable-background="new    " d="M1461.707,411.741c-3.997-12.948-6.304-26.37-10.471-39.221
	c-1.526-4.71-3.193-9.334-4.883-13.939c-5.222,12.132-11.831,23.757-17.7,32.887c-11.763,18.287-22.86,37.258-41.299,49.76
	c-9.364,6.348-19.484,4.412-29.966,3.383c-10.063-0.983-13.334-0.542-12.875,10.282c0.684,16.066,0.999,27.584-10.473,41.883
	c-10.516,13.106-24.381,22.707-38.498,32.001c-22.297,14.678-38.193,33.512-63.32,43.789c-10.113,4.137-19.745,5.294-28.469,11.904
	c-7.408,5.612-15.938,11.721-22.473,18.96c-11.629,12.883-16.831,29.062-35.749,33.137c-1.113,0.239-2.552,0.512-4.179,0.771
	c0.042,1.701,0.269,3.499,0.732,5.419c2.204,9.104,9.232,18.503,14.307,26.311c3.467,5.335,9.98,19.419,17.293,19.847
	c0.049-8.156,6.751-17.951,9.763-25.615c3.587-9.123,7.631-18.461,11.994-27.224c11.134-22.359,28.854-39.126,48.388-54.216
	c20.318-15.696,44.618-27.043,66.22-41.068c18.223-11.831,34.966-23.386,50.552-37.719c11.444-10.526,26.894-17.105,40.705-23.999
	c13.602-6.782,27.073-14.243,40.305-21.589c8.293-4.599,16.35-11.772,26.021-12.955
	C1468.708,433.119,1465.03,422.515,1461.707,411.741z"/>
<path fill="#FFFFFF" d="M308.179,170.504c4.157-0.266,7.945-5.128,11.181-7.478c2.827-2.054,3.138-1.25,5.44,1.355
	c3.156,3.567,5.357,7.551,8.442,11.201c3.09,3.652,8.567,9.702,7.646,14.851c-0.422,2.36-2.774,5.714-3.864,8.019
	c-1.077,2.281-2.773,7.153-4.684,8.424c-3.67,2.435-12.735-11.989-15.077-15.152c-3.221-4.352-12.976-14.192-9.728-20.255"/>
<path opacity="0.09" fill="#1E1F1D" enable-background="new    " d="M335.612,178.402c-0.07,0.018-0.141,0.027-0.213,0.037
	c-1.069,8.233-6.233,16.829-10.41,23.768c2.806,3.307,5.656,5.794,7.353,4.669c1.911-1.271,3.607-6.143,4.684-8.424
	c1.09-2.305,3.441-5.658,3.864-8.019C341.601,186.452,338.489,181.937,335.612,178.402z"/>
<path fill="#FFFFFF" d="M665.352,161.864c-0.208-6.58,0.697-10.869,0.301-16.892c-7.588-0.187-15.248-0.924-23.017-0.924
	c-5.553,0-12.577-2.182-17.606,2.227c0.024,3.786-1.248,6.072-1.771,9.792c-0.868,6.195,3.652,6.909,9.557,8.65
	C640.743,167.059,658.616,167.096,665.352,161.864"/>
<path opacity="0.09" fill="#1E1F1D" enable-background="new    " d="M665.652,144.973c-3.996-0.099-8.016-0.347-12.057-0.56
	c-0.205,3.379,2.207,6.75,2.415,10.184c0.195,3.278,0.537,7.536-0.099,10.802c3.844-0.688,7.237-1.825,9.439-3.534
	C665.144,155.284,666.049,150.995,665.652,144.973z"/>
<path fill="#FFFFFF" d="M505.468,199.531c3.557-0.301,6.281-5.26,9.414-6.603c3.213,7.333,6.276,14.61,9.881,21.805
	c1.222,2.444,2.085,5.089,3.203,7.554c0.8,1.77,2.101,3.291,2.789,5.094c1.305,3.423-2.553,8.623-4.335,11.73
	c-2.169,3.782-4.002,8.045-7.08,11.193c-1.049,1.069-1.948,2.206-3.183,1.712c-1.095-0.435-2.924-4.298-3.434-5.191
	c-2.079-3.655-3.59-7.637-4.694-11.683c-1.83-6.71-4.174-13.229-4.705-20.213c-0.286-3.745-2.364-14.385,3.216-15.615"/>
<path opacity="0.09" fill="#1E1F1D" enable-background="new    " d="M530.754,227.381c-0.688-1.803-1.988-3.324-2.789-5.094
	c-1.118-2.465-1.981-5.109-3.203-7.554c-0.131-0.257-0.246-0.518-0.377-0.778c-0.429,2.912-1.734,6.125-2.681,8.565
	c-2.593,6.673-5.477,14.732-10.674,19.868c-0.118,0.118-0.226,0.194-0.344,0.303c0.615,1.407,1.278,2.798,2.036,4.134
	c0.51,0.894,2.339,4.757,3.434,5.191c1.235,0.494,2.134-0.643,3.183-1.712c3.078-3.148,4.911-7.411,7.08-11.193
	C528.201,236.004,532.06,230.804,530.754,227.381z"/>
<path fill="#FFFFFF" d="M659.701,337.589c1.83-2.221,4.925-3.752,7.054-5.775c1.966-1.867,3.878-3.64,5.813-5.397
	c2.887-2.618,5.852-5.236,8.375-8.093c8.658,5.468,13.407,18.26,19.665,26.084c2.521,3.151,5.663,8.47,8.841,10.589
	c0.899,5.869-4.338,12.691-7.882,16.956c-3.267,3.932-6.603,7.934-9.69,11.973c-2.107,2.759-5.002,9.734-9.041,10.225
	c-5.242,0.632-11.681-9.61-14.705-12.77c-6.312-6.599-11.322-15.406-12.542-24.519c-0.72-5.378-2.167-16.578,3.79-19.593"/>
<path opacity="0.09" fill="#1E1F1D" enable-background="new    " d="M709.449,354.996c-3.178-2.119-6.32-7.438-8.841-10.589
	c-0.382-0.479-0.759-0.976-1.13-1.488c-0.7,9.107-7.074,19.912-12.202,26.529c-4.255,5.49-9.29,12.139-15.469,16.398
	c3.241,4.015,7.418,8.739,11.028,8.303c4.039-0.49,6.934-7.466,9.041-10.225c3.088-4.039,6.424-8.041,9.69-11.973
	C705.111,367.688,710.349,360.865,709.449,354.996z"/>
<path fill="#FFFFFF" d="M954.028,238.624c5.058-2.196,10.534-5.558,15.415-8.442c4.822-2.852,10.764-8.231,16.139-9.479
	c4.218-0.979,6.283,3.738,9.221,6.05c5.417,4.265,10.906,9.197,16.731,12.755c4.819,2.944,12.447,7.066,8.7,13.593
	c-3.612,6.288-8.671,11.909-12.295,18.29c-2.341,4.117-4.082,9.223-7.087,12.858c-4.318,5.221-12.606,4.578-18.943,3.84
	c-10.089-1.183-20.915-9.21-27.011-16.984c-3.81-4.864-4.189-10.857-5.048-16.799c-0.52-3.614-2.942-16.548,4.498-15.039"/>
<g opacity="0.09" enable-background="new    ">
	<path fill="#1E1F1D" d="M1011.544,239.587h0.123c-0.044-0.027-0.091-0.052-0.133-0.079c-0.008-0.003-0.013-0.008-0.021-0.013
		C1011.521,239.525,1011.536,239.555,1011.544,239.587z"/>
	<path fill="#1E1F1D" d="M1011.837,239.69c-2.065,9.645-7.731,15.968-13.581,23.617c-6.438,8.414-14.135,16.942-23.175,23.02
		c2.272,0.874,4.566,1.495,6.828,1.762c6.337,0.738,14.625,1.381,18.943-3.84c3.005-3.636,4.746-8.741,7.087-12.858
		c3.624-6.381,8.683-12.002,12.295-18.29C1023.904,246.707,1016.664,242.623,1011.837,239.69z"/>
</g>
<path fill="#FFFFFF" d="M978.646,449.087c5.01-0.439,8.271-2.241,11.585-5.57c3.143-3.158,10.478-9.881,15.046-7.298
	c1.486,0.842,3.596,5.679,4.662,7.197c3.205,4.571,6.103,9.178,8.979,14.027c4.508,7.597,12.36,15.859,14.971,24.241
	c2.102,6.743-2.104,7.846-7.244,10.959c-8.919,5.396-18.795,19.273-29.175,21.393c-13.613,2.773-20.881-24.194-22.736-34.745
	c-1.616-9.19-0.785-18.947-0.785-28.276"/>
<path opacity="0.09" fill="#1E1F1D" enable-background="new    " d="M1033.89,481.685c-2.558-8.21-10.126-16.303-14.673-23.773
	c-8.136,13.354-18.337,24.942-31.898,33.296c-3.145,1.938-6.042,2.872-8.672,3.024c3.735,10.714,9.923,21.616,18.824,19.805
	c10.38-2.119,20.256-15.996,29.175-21.393C1031.786,489.53,1035.991,488.428,1033.89,481.685z"/>
<path fill="#FFFFFF" d="M1142.109,624.312c2.74-5.417,9.054-12.007,13.387-15.734c4.115-3.542,5.274,0.372,8.463,4.072
	c5.203,6.035,10.688,12.085,15.96,18.194c4.458,5.168,13.086,11.919,10.709,19.279c-2.659,8.229-4.971,17.356-8.236,25.62
	c-3.085,7.812-6.751,16.166-8.665,24.365c-6.854,0.36-12.244-13.832-14.591-18.417c-4.355-8.51-11.695-16.628-14.692-25.635
	c-3.25-9.772-5.899-20.042-5.259-30.387c1.471-0.352,1.701-1.207,2.495-2.216"/>
<path opacity="0.09" fill="#1E1F1D" enable-background="new    " d="M1179.919,630.845c-3.444-3.994-6.958-7.958-10.448-11.908
	c-0.278,13.705-2.239,25.76-6.351,39.123c-1.507,4.887-4.303,11.277-8.229,16.489c1.541,2.369,3.015,4.74,4.244,7.144
	c2.347,4.585,7.737,18.777,14.591,18.417c1.914-8.199,5.58-16.554,8.665-24.365c3.266-8.264,5.577-17.392,8.236-25.62
	C1193.005,642.764,1184.377,636.013,1179.919,630.845z"/>
<path fill="#828282" d="M308.822,168.255c1.705-0.002,3.21-0.419,4.639-0.186c-0.381,10.099,6.288,21.75,12.391,29.467
	c1.506,1.901,4.122,4.373,6.748,4.134c2.249-0.201,2.096-3.173,4.277-2.893c1.125,8.987-2.957,16.337-6.123,24.687
	c-2.793,7.37-4.114,16.729-3.044,24.782c0.577,4.36,6.615,14.042,0,16.01c-5.417,1.612-13.214-6.234-16.977-9.573
	c-6.313-5.606-12.087-12.462-15.96-19.89c-6.161-11.818-5.53-24.945-3.567-37.659c0.999-6.484-4.94-18.348,1.533-23.022
	c4.052-2.926,8.733-4.531,13.915-5.575C307.283,168.408,308.179,168.255,308.822,168.255"/>
<path opacity="0.2" fill="#1E1F1D" enable-background="new    " d="M330.754,223.464c3.166-8.35,7.248-15.699,6.123-24.687
	c-2.181-0.28-2.028,2.691-4.277,2.893c-2.626,0.239-5.242-2.232-6.748-4.134c-6.103-7.717-12.772-19.368-12.391-29.467
	c-1.386-0.233-2.935,0.184-4.639,0.186l0,0c-0.643,0-1.36,0.188-2.168,0.281c-1.263,0.144-2.28,0.5-3.5,0.746
	c2.907,3.69,4.568,7.892,5.861,13.033c1.722,6.854,2.397,14.329,6.58,20.333c2.558,3.678,5.668,5.97,6.331,10.664
	c0.783,5.558-2.088,9.82-4.024,14.811c-1.225,3.158-2.237,6.724-3.055,10.252c-1.208,5.222-2.214,10.684-2.812,15.985
	c-0.05,0.438-0.09,0.909-0.133,1.376c4.044,3.686,10.897,9.981,15.808,8.52c6.615-1.968,0.577-11.649,0-16.01
	C326.64,240.192,327.96,230.834,330.754,223.464z"/>
<path fill="#FFFFFF" d="M292.975,173.825c-2.36-0.19-6.826,0.094-8.277,2.145c-1.531,2.161-0.971,4.895-0.238,7.259
	c1.978,6.374,1.23,13.776,1.23,20.435c0,4.328-0.321,8.551-0.56,12.862c-0.156,2.864-0.312,5.914,0.155,8.751
	c0.555,3.366,1.589,6.793,2.736,10.001c3.264,9.105,9.263,17.647,16.741,23.737c2.016,1.642,4.29,2.676,6.685,3.625
	c2.264,0.899,3.916,1.808,6.324,2.204c3.06,0.502,6.353,0.813,9.26-0.083c0.834-0.256,1.806-0.424,0.97-1.263
	c-0.824-0.823-3-0.969-4.049-1.34c-4.293-1.517-7.822-4.891-11.188-7.817c-2.606-2.264-5.121-4.479-7.122-7.44
	c-2.598-3.847-5.086-7.827-7.526-11.703c-1.58-2.505-2.606-5.769-3.517-8.569c-1.1-3.38-1.825-7.243-2.054-10.787
	c-0.311-4.787-0.638-9.733-0.301-14.553c0.289-4.119,1.114-8.57,0.392-12.697c-0.661-3.75-1.097-8.005-0.387-11.745
	c0.113-0.593,1.8-3.128,0.726-3.235"/>
<g>
	<path fill="#E63956" d="M285.689,203.663c0,4.328-0.321,8.551-0.56,12.862c-0.103,1.905-0.191,3.891-0.111,5.845
		c0.221-0.522,0.447-1.039,0.668-1.541c2.521-5.736,3.374-10.868,3.374-17.061c0-5.478-0.397-10.84-0.929-16.236
		c-0.282-2.839-0.196-5.734-0.196-8.605c0-1.598,0.303-3.238,0.442-4.841c-1.546,0.31-2.973,0.884-3.681,1.884
		c-1.531,2.161-0.971,4.895-0.238,7.259C286.438,189.603,285.689,197.005,285.689,203.663z"/>
	<path fill="#E63956" d="M313.315,258.839c-2.252-1.795-4.079-3.82-6.466-5.435c-1.949-1.317-3.56-2.821-5.412-4.338
		c-3.6-2.939-7.097-5.59-10.905-7.99c3.439,6.876,8.37,13.164,14.231,17.938c2.016,1.642,4.29,2.676,6.685,3.625
		c2.264,0.899,3.916,1.808,6.324,2.204c1.506,0.246,3.067,0.444,4.613,0.478C319.287,263.398,316.129,261.079,313.315,258.839z"/>
</g>
<path fill="#828282" d="M511.47,194.176c-4.543-5.796-14.605-7.181-20.896-4.364c-5.992,2.681-4.25,7.977-2.671,13.27
	c3.08,10.302,4.154,21.789,4.622,32.586c0.469,10.877-1.338,18.021-8.884,26.325c-5.334,5.874-8.159,6.943-8.159,14.922
	c0,17.021,0.429,34.237,1.348,51.289c0.256,0.126,0.524,0.169,0.808,0.131c5.528-8.567,8.53-17.768,12.316-27.837
	c4.789-12.725,13.793-23.94,20.72-35.608c1.897-3.198,3.524-8.027,5.603-10.733c1.647-2.145,6.524-3.018,6.331-6.854
	c-0.216-4.232-4.699-2.148-7.712-3.835c-4.709-2.637-5.261-8.892-6.311-13.626c-1.656-7.486-2.615-16.704-0.647-24.199
	c0.753-2.872,6.326-9.226,2.676-11.466"/>
<g opacity="0.2" enable-background="new    ">
	<path fill="#1E1F1D" d="M514.896,243.467c-4.709-2.637-5.261-8.892-6.311-13.626c-1.656-7.486-2.615-16.704-0.647-24.199
		c0.75-2.857,6.273-9.168,2.716-11.432c-1.684,3.81-4.624,7.475-6.457,11.2c-2.839,5.774-2.588,12.672-2.164,19.184
		c0.889,13.597,5.493,24.29,0.02,37.392c-3.349,8.02-7.987,15.407-12.228,23.057c-3.125,5.638-7.468,13.061-14.07,14.678
		c0.221,9.506,0.565,19.021,1.075,28.483c0.256,0.126,0.524,0.169,0.808,0.131c5.528-8.567,8.53-17.768,12.316-27.837
		c4.789-12.725,13.793-23.94,20.72-35.608c1.897-3.198,3.524-8.027,5.603-10.733c1.647-2.145,6.524-3.018,6.331-6.854
		C522.393,243.069,517.909,245.153,514.896,243.467z"/>
	<path fill="#1E1F1D" d="M511.041,193.742c-0.04-0.045-0.085-0.086-0.125-0.131c-0.079,0.19-0.166,0.377-0.246,0.564h0.8
		c-0.123-0.157-0.293-0.278-0.426-0.431c0,0.002-0.003,0.002-0.003,0.002V193.742z"/>
</g>
<path fill="#FFFFFF" d="M488.336,191.177c-4.551,0-9.326-0.959-12.745,2.229c-2.832,2.637-4.574,7.576-5.262,11.282
	c-1.97,10.631-0.977,22.337-3.632,32.759c-1.537,6.027-5.284,13.476-9.115,18.423c-6.825,8.819-16.068,23.218-13.251,34.951
	c2.272,9.448,5.357,19.369,10.282,27.503c7.586,12.519,14.738,12.96,20.871,10.805c6.198-2.179,5.523-21.758,5.57-27.097
	c0.115-13.327-0.273-26.017,5.57-37.905c10.679-21.725,10.932-50.297,2.066-72.444C488.152,191.573,488.895,191.151,488.336,191.177
	"/>
<path fill="#474747" d="M473.336,196.534c2.061-0.532,3.6-2.556,5.998-1.928c1.649,0.431,3.069,2.364,3.908,3.838
	c1.837,3.23,2.056,8.396,2.575,12.036c0.628,4.378,0.638,8.822,0.806,13.22c0.153,3.991,0.587,8.593-0.638,12.41
	c-0.75,2.343-2.917,6.439-5.372,7.507c-6.958,3.017-4.712-7.517-4.234-10.991c0.562-4.126,0.763-8.291,0.6-12.511
	c-0.063-1.664-1.162-10.378-4.029-8.603c-1.134,0.703-1.172,5.161-1.275,6.178c-0.363,3.6-0.582,7.197-0.969,10.807
	c-0.216,2.028-0.801,12.461-4.619,11.917c-0.412-8.153,1.599-15.956,1.679-24.18c0.038-3.791-0.399-8.607,1.009-11.988
	c0.826-1.986,3.085-7.301,5.417-7.712"/>
<path fill="#474747" d="M470.585,327.415c4.034,0.108,4.064-2.605,4.654-5.794c1.109-5.999,0.861-12.139,0.861-18.239
	c0-10.234,3.178-27.573-11.063-30.435c-7.821-1.573-15.451-0.898-19.427,5.954c-3.525,6.069-2.694,15.677-1.202,22.209
	c0.969,4.255,1.335,8.446,3.437,12.408c2.472,4.663,5.666,7.982,9.878,11.146c4.052,3.039,8.339,4.563,13.325,2.751"/>
<path fill="#828282" d="M623.294,154.974c1.679-0.025,3.683,1.202,5.123,1.96c3.713,1.956,7.353,3.662,11.562,4.258
	c5.749,0.811,12.218,0.881,18.004,0.256c2.188-0.236,2.425-0.332,3.63-1.881c0.473-0.606,1.28-2.429,1.905-2.68
	c2.368-0.944,3.657,2.183,4.405,3.699c2.627,5.338,5.995,9.926,9.379,14.788c2.864,4.119,6.518,6.975,9.921,10.459
	c3.264,3.344,6.926,5.804,10.935,8.231c3.107,1.877,5.912,3.947,9.117,5.678c2.298,1.239,4.808,2.113,7.034,3.429
	c3.768,2.229,3.166,7.185,0.522,10.247c-3.539,4.097-9.894,5.967-14.977,7.047c-7.164,1.519-13.31,0.725-19.555-3.203
	c-5.693-3.583-11.493-6.761-17.422-9.858c-2.4-1.256-4.76-2.613-7.227-3.751c-3.743-1.727-7.737-1.955-11.714-2.836
	c-7.712-1.712-15.448-2.239-23.198-3.435c-5.349-0.825-5.986-1.571-9.021-6.341c-2.47-3.881-4.504-7.393-4.498-12.074
	c0.01-7.325,1.597-11.024,6.213-15.754c2.264-2.32,5.729-7.429,8.59-8.239"/>
<path opacity="0.2" fill="#1E1F1D" enable-background="new    " d="M714.31,203.171c-2.227-1.315-4.736-2.189-7.034-3.429
	c-3.205-1.73-6.01-3.801-9.117-5.678c-4.009-2.428-7.671-4.888-10.935-8.231c-3.403-3.484-7.057-6.34-9.921-10.459
	c-3.384-4.862-6.752-9.45-9.379-14.788c-0.748-1.517-2.037-4.644-4.405-3.699c-0.625,0.251-1.433,2.073-1.905,2.68
	c-1.205,1.549-1.441,1.645-3.63,1.881c-5.786,0.625-12.255,0.555-18.004-0.256c-4.21-0.596-7.85-2.302-11.562-4.258
	c-1.44-0.758-3.444-1.985-5.123-1.96h-1.271c-1.75,0.496-3.725,2.601-5.516,4.691c2.99,1.272,6.264,3.665,8.682,4.671
	c5.607,2.331,11.539,3.917,17.572,4.572c5.16,0.56,11.627-0.764,16.451,1.062c3.028,1.145,4.898,3.254,7.28,5.347
	c4.702,4.127,8.897,8.767,13.528,12.954c3.515,3.175,6.929,6.456,10.405,9.659c1.974,1.815,4.744,3.424,6.288,5.658
	c1.645,2.374,0.562,4.099-0.675,6.692c-2.34,4.896-5.593,7.282-10.931,8.116c-0.783,0.123-1.594,0.17-2.398,0.223
	c5.434,2.731,10.901,3.168,17.145,1.846c5.083-1.08,11.438-2.95,14.977-7.047C717.476,210.355,718.077,205.4,714.31,203.171z"/>
<path fill="#FFFFFF" d="M606.786,180.252c-0.283,4.357-8.854,11.364-4.296,15.86c2.029,2,5.712,3.037,8.335,3.861
	c5.704,1.791,11.683,2.475,17.414,4.543c9.888,3.57,21.014,4.774,30.292,9.79c3.472,1.878,6.692,4.137,10.264,5.839
	c3.482,1.662,7.637,2.228,11.425,2.957c4.589,0.889,9.564,1.28,14.238,1.275c3.766-0.003,7.923,0.465,11.478-1.06
	c2.565-1.1,4.802-3.13,6.891-4.938c2.904-2.513,2.367-4.712,3.361-7.94c-3.609-0.17-7.059,3.259-10.434,4.245
	c-4.056,1.188-8.178,2.533-12.396,1.928c-3.919-0.564-7.554-0.79-11.005-2.489c-2.773-1.369-6.26-2.611-9.077-3.937
	c-4.097-1.928-5.738-3.011-9.56-4.338c-3.732-1.298-12.367-5.893-16.227-6.828c-9.055-2.196-13.826-3.861-22.537-7.413
	c-4.557-1.857-8.839-3.434-12.606-6.481c-1.958-1.586-3.753-3.398-5.518-5.065c-0.058,0.281-0.038,0.542-0.043,0.833"/>
<g>
	<path fill="#E63956" d="M641.865,202.963c-3.141-1.9-6.801-2.578-10.234-3.86c-5.277-1.969-10.152-4.547-15.715-5.953
		c-2.952-0.747-5.816-1.35-8.631-2.56c-1.332-0.573-3.002-1.878-4.559-2.282c-1.546,2.799-2.467,5.604-0.236,7.805
		c2.029,2,5.712,3.037,8.335,3.861c5.704,1.791,11.683,2.475,17.414,4.543c7.046,2.546,14.715,3.905,21.902,6.286
		C647.674,207.91,645.225,204.999,641.865,202.963z"/>
	<path fill="#E63956" d="M710.592,218.097c-2.41,0.495-4.697,0.975-7.156,1.085c-4.883,0.21-9.738,0.323-14.641,0.323
		c-5.156,0-10.051,0.352-15.146,0.944c-1.112,0.129-2.287,0.203-3.479,0.233c3.175,1.226,6.739,1.782,10.051,2.42
		c4.589,0.889,9.564,1.28,14.238,1.275c3.766-0.003,7.923,0.465,11.478-1.06c2.565-1.1,4.802-3.13,6.891-4.938
		c0.341-0.297,0.63-0.588,0.884-0.876C712.688,217.69,711.651,217.877,710.592,218.097z"/>
</g>
<path fill="#828282" d="M664.199,333.413c-8.57-0.013-18.26-3.366-26.771-1.615c-6.636,1.366-6.003,8.736-6.003,14.155
	c-0.003,12.54,2.967,24.182,4.112,36.581c0.948,10.259-1.429,20.974-2.988,31.047c-1.832,11.816-3.223,25.407-1.468,37.325
	c1.792,12.161,10.751,24.701,20.722,31.746c4.15,2.932,10.14,5.904,14.34,1.447c3.077-3.265,5.233-9.499,3.541-13.879
	c-1.594-4.129-5.291-6.589-5.806-11.165c-0.454-4.047,0.766-6.462,2.866-9.73c6.901-10.719,14.691-20.833,21.875-31.389
	c3.441-5.056,8.495-10.457,9.735-16.635c0.582-2.915,1.948-11.26,0.569-13.84c-2.182-4.092-11.756-1.552-14.881-0.374
	c-4.659-1.961-10.345-10.504-12.694-14.858c-3.313-6.136-6.195-12.517-6.763-19.626c-0.264-3.301,2.199-17.331-1.039-19.575
	c-0.307,0.111-0.41,0.347-0.312,0.705"/>
<path opacity="0.2" fill="#1E1F1D" enable-background="new    " d="M698.924,387.462c-2.182-4.092-11.756-1.552-14.881-0.374
	c-4.659-1.961-10.345-10.504-12.694-14.858c-3.313-6.136-6.195-12.517-6.763-19.626c-0.251-3.133,1.943-15.9-0.592-19.124
	l0.205-0.066c-0.096,0-0.193-0.013-0.286-0.013c-0.118-0.136-0.231-0.278-0.366-0.372c-0.182,0.065-0.269,0.188-0.309,0.342
	c-0.65-0.021-1.303-0.038-1.969-0.088c-0.374,15.149-4.488,30.839-1.26,45.795c1.142,5.297,3.429,9.894,7.393,13.535
	c2.302,2.113,5.314,2.978,7.42,5.016c4.205,4.07,3.08,9.841,0.65,14.695c-5.359,10.705-13.962,19.38-17.795,31.107
	c-1.617,4.941-3.118,10.098-3.761,15.256c-0.646,5.208-0.429,10.418-5.101,13.872c-1.537,1.134-3.479,1.895-5.586,2.372
	c2.653,2.967,5.565,5.598,8.572,7.722c4.15,2.932,10.14,5.904,14.34,1.447c3.077-3.265,5.233-9.499,3.541-13.879
	c-1.594-4.129-5.291-6.589-5.806-11.165c-0.454-4.047,0.766-6.462,2.866-9.73c6.901-10.719,14.691-20.833,21.875-31.389
	c3.441-5.056,8.495-10.457,9.735-16.635C698.937,398.387,700.303,390.042,698.924,387.462z"/>
<path fill="#FFFFFF" d="M641.707,331.484c-4.262,0-8.61-0.766-12.854-0.321c-4.182,0.438-5.381,2.899-6.827,6.675
	c-2.172,5.678-1.539,10.715-1.833,16.719c-0.529,10.935,0.086,20.298,2.947,30.859c0.975,3.592,2.338,6.635,2.741,10.321
	c0.435,3.939,0.401,7.833,0.401,11.804c0,8.021-3.143,14.688-4.257,22.548c-2.104,14.839-4.591,34.615,7.526,45.58
	c2.889,2.615,5.708,5.889,9.111,7.727c3.107,1.677,6.521,1.93,9.871,2.713c4.061,0.951,8.399,1.411,12.717,1.157
	c1.685-2.844-5.818-4.998-7.688-6.369c-3.472-2.542-6.534-6.68-8.658-10.344c-5.262-9.083-8.771-19.92-10.026-30.466
	c-1.772-14.908,2.917-29.013,3.607-43.527c0.562-11.809,3.444-23.929,0.008-35.516c-1.77-5.966-2.25-11.608-2.25-17.816
	c0-2.588-0.457-5.671,0.073-8.206c0.256-1.225,1.315-2.485,1.534-3.537"/>
<g>
	<path fill="#010202" d="M625.882,395.737c0.106,0.962,0.184,1.923,0.241,2.883c1.983-3.895,3.934-7.785,4.993-12.133
		c1.37-5.617,1.14-11.643,0.951-17.437c-0.251-7.591-2.265-15.021-2.249-22.547c0.01-4.012,0.264-7.355,0.908-11.146
		c0.231-1.352,0.57-2.842,0.856-4.313c-0.911,0.005-1.825,0.025-2.729,0.118c-4.182,0.438-5.381,2.899-6.827,6.675
		c-2.172,5.678-1.539,10.715-1.833,16.719c-0.529,10.935,0.086,20.298,2.947,30.859
		C624.115,389.008,625.479,392.051,625.882,395.737z"/>
	<path fill="#010202" d="M635.273,466.566c-3.236-6.364-5.041-13.461-7.81-20.058c-1.876-4.474-4.125-9.042-5.817-13.707
		c-1.97,14.46-3.486,32.56,7.906,42.867c2.889,2.615,5.708,5.889,9.111,7.727c2.388,1.287,4.955,1.739,7.536,2.233
		C641.689,479.744,638.215,472.348,635.273,466.566z"/>
</g>
<path fill="#828282" d="M962.703,232.365c-4.501-1.787-8.798-2.615-13.801,1.825c-4.956,4.401-8.583,9.499-12.924,14.324
	c-4.044,4.496-8.083,6.692-8.941,13.021c-0.829,6.115-0.093,13.021,3.898,17.929c6.825,8.387,14.753,16.457,23.79,22.457
	c5.286,3.512,12.2,4.843,16.733,8.981c4.095,3.741,6.495,8.736,9.647,13.263c5.673,8.141,12.709,13.741,20.067,20.155
	c7.638,6.656,26.396,15.694,33.585,3.896c5.778-9.479-8.369-17.125-12.451-24.701c-7.391-13.717-2.812-30.49-4.017-45.406
	c-0.326-4.036-1.938-8.775-6.419-9.609c-3.933-0.73-5.417,2.644-8.683,3.564c-10.418,2.942-22.824-10.698-29.232-16.889
	c-3.946-3.813-7.95-8.039-10.862-12.678C961.842,240.499,965.362,232.509,962.703,232.365"/>
<path fill="#828282" d="M962.703,232.365c-4.501-1.787-8.798-2.615-13.801,1.825"/>
<path opacity="0.2" fill="#1E1F1D" enable-background="new    " d="M1022.308,323.515c-7.391-13.717-2.812-30.49-4.017-45.406
	c-0.326-4.036-1.938-8.775-6.419-9.609c-3.933-0.73-5.417,2.644-8.683,3.564c-10.418,2.942-22.824-10.698-29.232-16.889
	c-3.946-3.813-7.95-8.039-10.862-12.678c-1.253-1.998,2.268-9.988-0.392-10.132c-1.285-0.51-2.553-0.921-3.826-1.175
	c-0.21,4.336-1.021,8.653-0.996,13.028c0.03,5.554,3.569,10.98,7.25,14.957c6.271,6.77,14.611,10.975,22.072,16.196
	c3.892,2.722,6.037,6.361,8.639,10.271c3.74,5.623,6.91,11.599,9.411,17.914c1.9,4.807,4.693,10.244,5.555,15.298
	c0.374,2.206,0.224,3.344-0.886,5.262c-1.443,2.502-3.302,6.21-5.588,8.005c-2.279,1.79-5.551,1.79-8.271,2.096
	c-1.934,0.219-3.852,0.397-5.77,0.463c3.452,3.298,7.123,6.365,10.881,9.64c7.638,6.656,26.396,15.694,33.585,3.896
	C1040.537,338.736,1026.39,331.091,1022.308,323.515z"/>
<path fill="#FFFFFF" d="M930.253,254.155c-4.142-0.655-7.94,4.614-10.305,7.282c-3.103,3.502-3.395,7.975-2.687,12.602
	c0.658,4.306,5.329,9.888,8.284,12.877c2.395,2.423,5.432,4.723,8.133,6.801c6.818,5.242,13.576,10.885,20.183,16.578
	c6.467,5.567,13.931,10.212,18.938,17.248c1.989,2.795,3.231,5.405,5.689,7.859c4.295,4.289,8.072,8.359,13.221,11.693
	c3.527,2.282,8.009,5.397,12.198,6.271c3.095,0.643,6.562,0.396,9.725,0.396c2.123,0,4.26,0,6.382,0.005
	c-0.874-2.135-4.072-3.851-5.791-5.412c-2.172-1.971-4.582-3.219-6.938-4.907c-3.995-2.864-9.065-6.567-12.141-10.481
	c-7.872-10.013-14.532-21.97-25.298-29.439c-6.073-4.216-13.097-7.04-19.132-11.26c-6.936-4.848-15.413-11.446-17.854-20.168
	c-1.274-4.551-1.381-9.217-1.538-13.89c-0.066-1.952-0.171-2.711-1.499-4.056"/>
<g>
	<path fill="#010202" d="M950.902,302.571c-2.057-2.377-3.758-5.043-5.909-7.343c-2.062-2.204-4.428-4.092-6.509-6.276
		c-2.242-2.352-4.432-4.562-6.582-7.049c-2.742-3.162-5.418-6.183-7.568-9.795c-1.055-1.771-1.863-3.694-2.725-5.572
		c-0.597-1.308-1.642-2.962-2.081-4.549c-2.679,3.414-2.938,7.658-2.267,12.052c0.658,4.306,5.329,9.888,8.284,12.877
		c2.395,2.423,5.432,4.723,8.133,6.801c6.818,5.242,13.576,10.885,20.183,16.578c0.412,0.354,0.839,0.698,1.258,1.044
		C954.219,308.191,953.185,305.207,950.902,302.571z"/>
	<path fill="#010202" d="M1004.35,349.225c-2.265-2.214-4.306-4.685-6.62-6.84c-2.578-2.4-5.568-4.406-8.252-6.7
		c-4.739-4.052-10.126-6.344-15.354-9.535c-1.549-0.943-3.144-1.829-4.75-2.695c1.223,1.285,2.387,2.626,3.426,4.089
		c1.989,2.795,3.231,5.405,5.689,7.859c4.295,4.289,8.072,8.359,13.221,11.693c3.527,2.282,8.009,5.397,12.198,6.271
		c1.93,0.401,4.001,0.446,6.057,0.431C1007.972,352.388,1006.054,350.887,1004.35,349.225z"/>
</g>
<path fill="#828282" d="M990.442,444.802c-1.233-7.777-9.941-7.511-14.696-4.27c-7.676,5.233-14.77,9.531-23.35,12.578
	c-11.895,4.228-19.644,17.969-13.825,30.25c7.152,15.102,17.937,28.979,26.914,43.078c4.701,7.386,7.66,12.843,9.97,21.175
	c2.29,8.251,3.399,16.533,5.289,24.817c3.716,16.271,11.332,35.043,30.081,35.934c5.428,0.259,24.076,2.95,26.667-3.853
	c1.405-3.695-4.305-6.988-6.309-9.409c-7.388-8.921-6.519-20.095-7.746-31.081c-1.286-11.528-4.669-22.869-5.92-34.367
	c-0.456-4.201-0.74-10.026,0.312-14.098c1.123-4.343,3.768-8.038,4.321-12.511c0.984-7.903-3.323-6.198-9.659-6.401
	c-9.25-0.302-13.382-6.392-16.054-14.997c-3.785-12.2-2.51-26.586-6.855-38.131"/>
<path opacity="0.2" fill="#1E1F1D" enable-background="new    " d="M1031.184,595.103c-7.388-8.921-6.519-20.095-7.746-31.081
	c-1.286-11.528-4.669-22.869-5.92-34.367c-0.456-4.201-0.74-10.026,0.312-14.098c1.123-4.343,3.768-8.038,4.321-12.511
	c0.984-7.903-3.323-6.198-9.659-6.401c-9.25-0.302-13.382-6.392-16.054-14.997c-3.785-12.2-2.51-26.586-6.855-38.131l0.859,1.285
	c-1.233-7.777-9.941-7.511-14.696-4.27c-0.758,0.517-1.493,0.98-2.241,1.479c0.876,6.002,4.835,11.853,6.267,17.728
	c2.046,8.395,2.61,17.188,6.023,25.213c5.175,12.162,14.743,21.014,18.552,33.719c2.882,9.624,3.329,19.09,3.755,29.116
	c0.269,6.283,1.83,12.64,1.087,18.936c-1.697,14.42-10.071,22.861-20.858,26.544c4.793,8.31,11.844,14.595,22.495,15.099
	c5.428,0.259,24.076,2.95,26.667-3.853C1038.897,600.816,1033.188,597.523,1031.184,595.103z"/>
<path fill="#FFFFFF" d="M955.255,452.029c-8.972-0.978-20.993,11.058-25.637,17.517c-3.188,4.436-3.884,9.528-3.869,14.846
	c0.018,6.826,0.111,12.165,2.167,18.687c2.113,6.7,5.658,11.435,8.876,17.576c3.083,5.885,7.25,10.905,11.126,16.268
	c4.129,5.711,8.056,11.425,12.094,17.374c3.922,5.773,6.1,11.226,8.687,17.78c1.154,2.925,2.515,5.811,3.732,8.716
	c1.84,4.391,4.586,6.725,7.268,10.359c4.658,6.319,8.459,12.751,15.874,16.474c4.88,2.452,11.252,3.595,16.752,3.855
	c6.9,0.326,11.695-0.575,17.83-3.043c-13.525,1.143-28.381-4.93-34.998-16.59c-3.817-6.728-5.909-13.843-7.188-21.464
	c-1.443-8.588-4.227-16.906-6.963-25.243c-4.581-13.955-13.357-27.33-22.362-38.977c-8.226-10.64-17.517-23.894-14.363-38.234
	c0.655-2.985,4.458-12.806,4.807-13.06"/>
<g>
	<path fill="#E63956" d="M956.93,529.477c-1-3.297-3.033-5.31-5.036-8.182c-4.704-6.747-8.58-13.773-12.134-21.161
		c-5.443-11.319-7.233-21.973-7.783-33.516c-0.918,1.047-1.722,2.041-2.358,2.928c-3.188,4.436-3.884,9.528-3.869,14.846
		c0.018,6.826,0.111,12.165,2.167,18.687c2.113,6.7,5.658,11.435,8.876,17.576c3.083,5.885,7.25,10.905,11.126,16.268
		c3.09,4.275,6.071,8.583,9.067,12.956C957.232,543.11,958.87,535.888,956.93,529.477z"/>
	<path fill="#E63956" d="M983.408,588.744c-4.157-5.251-8.45-11.027-12.974-15.945c-0.753-0.817-1.551-1.583-2.371-2.326
		c0.21,0.531,0.419,1.059,0.635,1.604c1.154,2.925,2.515,5.811,3.732,8.716c1.84,4.391,4.586,6.725,7.268,10.359
		c4.658,6.319,8.459,12.751,15.874,16.474c1.67,0.838,3.54,1.476,5.466,2.022C994.197,604.021,989.121,595.962,983.408,588.744z"/>
</g>
<path fill="#828282" d="M1150.247,613.602c-7.653,0.002-15.936-2.312-22.492,2.455c-7.019,5.104-21.727,10.696-28.703,15.752
	c-6.143,4.453-20.392,12.827-7.896,22.336c7.693,5.857,14.304,10.635,20.554,18.157c5.638,6.79,7.905,14.657,10.619,23.056
	c2.061,6.375,2.196,13.118,3.702,19.642c2.141,9.275,5.495,17.088,10.423,25.219c8.703,14.369,14.843,29.185,29.323,39.221
	c6.498,4.509,14.386,7.06,22.163,7.246c3.928,0.094,6.526,1.096,7.722-2.215c1.021-2.837-0.861-5.031-2.132-7.189
	c-1.443-2.45-2.962-3.587-4.714-5.554c-4.624-5.183-6.155-10.898-7.91-17.509c-3.743-14.095-7.183-29.498-3.12-43.887
	c2.535-8.982,5.924-17.809,5.387-27.26c-4.397-0.641-9.172,3.309-13.325,1.489c-2.763-1.214-7.396-6.562-9.348-8.935
	c-3.602-4.376-6.536-9.874-8.967-14.899c-5.327-11.015-6.911-21.156-3.082-33.007c0.913-2.824,3.186-12.208,0.512-14.118"/>
<path opacity="0.2" fill="#1E1F1D" enable-background="new    " d="M1193.529,777.28c-1.443-2.45-2.962-3.587-4.714-5.554
	c-4.624-5.183-6.155-10.898-7.91-17.509c-3.743-14.095-7.183-29.498-3.12-43.887c2.535-8.982,5.924-17.809,5.387-27.26
	c-4.397-0.641-9.172,3.309-13.325,1.489c-2.763-1.214-7.396-6.562-9.348-8.935c-3.602-4.376-6.536-9.874-8.967-14.899
	c-5.327-11.015-6.911-21.156-3.082-33.007c0.913-2.824,3.186-12.208,0.512-14.118h1.285c-1.719,0-3.472-0.118-5.227-0.244
	c-2.924-0.069-4.724,0.591-6.087,5.271c-1.643,5.642-1.748,11.656-2.319,17.463c-0.85,8.615-1.441,18.014,1.279,26.284
	c2.674,8.131,6.625,16.829,11.691,23.718c3.94,5.359,9.081,9.763,12.164,15.77c2.137,4.157,2.506,9.062,2.656,13.694
	c0.261,8.047,0.64,15.549,2.124,23.503c1.438,7.722,2.57,14.583,2.57,22.42c0.002,7.53,1.291,13.641-3.462,17.858
	c0.048,0.032,0.09,0.07,0.139,0.1c6.498,4.509,14.386,7.06,22.163,7.246c3.928,0.094,6.526,1.096,7.722-2.215
	C1196.683,781.633,1194.8,779.438,1193.529,777.28z"/>
<path fill="#FFFFFF" d="M1099.695,631.595c-1.931,1.283,1.396-1.213-3.533,1.456c-6.461,3.497-10.422,7.87-11.888,15.128
	c-2.014,9.953-1.82,22.037,2.759,31.188c2.973,5.929,7.195,10.234,10.091,15.712c4.875,9.213,8.086,18.443,10.719,28.552
	c2.324,8.927,3.521,18.707,7.445,27.068c2.235,4.763,5.571,9.692,8.824,13.709c3.382,4.173,7.614,7.455,11.475,11.181
	c6.193,5.982,14.231,10.031,22.364,12.476c7.608,2.29,14.732,3.312,22.631,3.334c1.874,0.005,14.515-3.321,14.311-5.592
	c-0.105-1.175-6.143,1.468-11.773,0.461c-3.346-0.597-5.352-1.006-8.369-2.269c-4.64-1.938-8.532-4.991-12.602-8.118
	c-7.117-5.476-12.117-13.064-17.02-20.882c-6.268-9.99-11.598-22.336-13.397-33.883c-3.032-19.47-3.925-39.261-8.583-58.571
	C1120.016,649.557,1115.726,631.041,1099.695,631.595"/>
<path fill="#E63956" d="M1083.519,651.195c-0.085-5.767,6.497-10.359,11.497-10.604c8.605-0.419,15.228,9.603,17.74,16.685
	c3.966,11.182,9.333,24.227,5.535,36.268c-1.067,3.379-4.254,6.635-7.154,2.289c-2.265-3.386-1.551-10.422-2.146-14.346
	c-0.785-5.196-1.498-11.312-4.338-15.845c-4.167-6.66-10.175-3.289-9.242,3.94c0.459,3.575,1.137,2.31,3.933,3.141
	c2.814,0.836,3.866,1.77,4.441,5.211c0.574,3.433-1.036,6.503-0.986,9.884c0.096,6.389,4.998,12.255,9.71,16.166
	c2.49,2.068,5.65,2.37,7.271,5.442c1.203,2.279-5.299,9.015-7.021,10.852c-7.225,7.72-9.589-13.522-12.039-17.737
	c-4.845-8.339-11.395-13.899-15.835-22.61c-2.233-4.377-3.384-10.639-3.373-15.642c0.008-3.205,0.783-12.042,2.008-15.021
	c0.449-1.097-0.647,1.077,0,0"/>
<path fill="#E63956" d="M1171.218,790.688c-3.667-2.271-6.731-5.201-10.487-7.342c-6.954-3.962-12.256-9.273-18.441-14.246
	c-4.604-3.703-9.082-7.88-13.821-11.316c-3.477-2.523-8.728-6.269-13.664-8.231c0.167,0.381,0.31,0.772,0.484,1.146
	c2.235,4.763,5.571,9.692,8.824,13.709c3.382,4.173,7.614,7.455,11.475,11.181c6.193,5.982,14.231,10.031,22.364,12.476
	c4.586,1.382,9.015,2.25,13.523,2.768C1171.391,790.78,1171.302,790.74,1171.218,790.688z"/>
</svg>
