<?xml version="1.0" encoding="utf-8"?>
<!-- Generator: Adobe Illustrator 15.0.0, SVG Export Plug-In . SVG Version: 6.00 Build 0)  -->
<!DOCTYPE svg PUBLIC "-//W3C//DTD SVG 1.1//EN" "http://www.w3.org/Graphics/SVG/1.1/DTD/svg11.dtd">
<svg version="1.1" id="Calque_1" xmlns="http://www.w3.org/2000/svg" xmlns:xlink="http://www.w3.org/1999/xlink" x="0px" y="0px"
	 width="50px" height="17.3px" viewBox="0 0 50 17.3" enable-background="new 0 0 50 17.3" xml:space="preserve">
<g>
	<path fill="#FFFFFF" d="M45.016,2.668v4.718h-5.457V6.674h4.746V2.43c-0.623-0.173-1.279-0.266-1.957-0.266
		c-4.031,0-7.3,3.268-7.3,7.298c0,3.043,1.863,5.649,4.511,6.746v-4.67h5.457v0.713h-4.744v4.209
		c0.658,0.195,1.354,0.301,2.076,0.301c4.028,0,7.297-3.268,7.297-7.299C49.645,6.374,47.727,3.733,45.016,2.668z"/>
	<path fill="#FFFFFF" d="M7.97,2.35c2.215,0,3.237,1.532,3.237,3.405c0,1.883-1.091,3.465-3.237,3.465
		c-2.443,0-3.297-1.7-3.297-3.465C4.673,3.615,5.893,2.35,7.97,2.35z M7.97,8.104c1.392,0,1.847-1.544,1.847-2.349
		c0-0.666-0.386-2.289-1.847-2.289c-1.383,0-1.966,1.159-1.966,2.289C6.004,6.579,6.37,8.104,7.97,8.104z"/>
	<path fill="#FFFFFF" d="M16.132,9.106V8.228l-0.026-0.024c-0.468,0.713-1.148,1.029-1.975,1.029c-1.373,0-2.443-0.713-2.443-2.414
		V2.535h1.469v4.281c0,1.081,0.646,1.359,1.346,1.359c1.538,0,1.563-1.446,1.563-2.087V2.535h1.409v6.571H16.132z"/>
	<path fill="#FFFFFF" d="M24.199,6.608c-0.176,1.355-1.044,2.505-3.013,2.505c-1.959,0-3.118-1.369-3.118-3.232
		c0-1.89,0.96-3.531,3.107-3.531c2.012,0,3.117,1.421,3.117,3.704h-4.853c0,0.93,0.393,2.003,1.788,2.003
		c1.493,0,1.669-1.313,1.68-1.448L24.199,6.608L24.199,6.608z M22.842,5.131c-0.059-0.881-0.617-1.747-1.649-1.747
		c-1.237,0-1.754,1.024-1.754,1.747H22.842z"/>
	<path fill="#FFFFFF" d="M33.512,14.349c-0.177,1.355-1.046,2.506-3.013,2.506c-1.959,0-3.119-1.369-3.119-3.232
		c0-1.891,0.961-3.531,3.106-3.531c2.013,0,3.117,1.423,3.117,3.703H28.75c0,0.931,0.395,2.004,1.789,2.004
		c1.492,0,1.669-1.312,1.68-1.448L33.512,14.349L33.512,14.349z M32.154,12.873c-0.059-0.881-0.616-1.746-1.649-1.746
		c-1.235,0-1.754,1.022-1.754,1.746H32.154z"/>
	<path fill="#FFFFFF" d="M28.46,4.195c-0.01-0.288-0.326-0.848-1.297-0.848c-0.379,0-1.326-0.018-1.326,0.735
		c0,0.707,0.722,0.765,1.845,0.976c1.35,0.254,2.434,0.549,2.434,1.98c0,1.333-1.244,2.075-2.816,2.075
		c-3.024,0-2.84-1.737-2.879-2.495h1.311c0.041,0.506-0.097,1.438,1.556,1.438c0.84,0,1.422-0.189,1.422-0.905
		c0-0.714-0.604-0.85-1.737-1.011c-1.656-0.237-2.443-0.769-2.443-2.027c0-1.419,1.385-1.823,2.756-1.823
		c2.442,0,2.606,1.802,2.606,1.905H28.46z"/>
	<path fill="#FFFFFF" d="M32.307,3.495v3.958c0,0.505,0.348,0.505,0.588,0.505h0.649v1.013c0,0-1.295,0-1.651,0
		c-0.355,0-0.938-0.442-0.938-1.22V3.495h-1.064v-0.96h1.063V0.438h1.353v2.098h1.237v0.96L32.307,3.495L32.307,3.495z"/>
	<path fill="#FFFFFF" d="M2.785,11.414v5.362H1.434v-5.362H0.356v-1.093h1.078V9.285c0-0.976,0.824-1.407,1.456-1.407
		c0.173,0,1.245,0,1.245,0V9.03c0,0-0.571,0-0.717,0c-0.447,0-0.633,0.163-0.633,0.68v0.61h1.351v1.093H2.785z"/>
	<path fill="#FFFFFF" d="M6.093,16.776H4.836v-6.455h1.257v1.146l0,0c0.367-0.729,1.074-1.27,1.953-1.27c0.146,0,0.603,0,0.603,0
		v1.23H8.091c-1.498,0-1.998,1.254-1.998,1.787V16.776z"/>
	<path fill="#FFFFFF" d="M8.536,12.296c0.053-1.541,1.218-2.205,2.937-2.205c0.876,0,2.583,0.236,2.583,1.92v4.766h-1.259
		c0,0,0-0.107,0-0.674c-0.432,0.488-1.298,0.871-2.244,0.871c-1.635,0-2.245-0.941-2.245-1.924c0-0.543,0.055-1.74,2-1.963
		l1.813-0.281c0.35-0.031,0.616-0.275,0.616-0.705c0-0.6-0.388-0.812-1.346-0.812c-1.018,0-1.42,0.354-1.42,1.008H8.536
		L8.536,12.296z M12.796,13.554c-0.187,0.135-0.45,0.234-1.902,0.406c-0.573,0.074-1.137,0.176-1.137,0.99
		c0,0.653,0.485,0.885,1.147,0.885c0.865,0,1.892-0.457,1.892-1.221V13.554z"/>
	<path fill="#FFFFFF" d="M20.412,16.776h-1.41v-3.901c0-1.183-0.425-1.689-1.373-1.689c-0.676,0-1.577,0.463-1.577,1.91v3.682
		h-1.375v-6.455h1.375v0.867l0,0c0.376-0.514,1.055-1.156,1.981-1.156c0.604,0,2.379,0.338,2.379,2.422V16.776z"/>
	<path fill="#FFFFFF" d="M25.667,12.388c-0.126-0.744-0.706-1.203-1.474-1.203c-1.453,0-1.859,1.164-1.859,2.312
		c0,0.989,0.273,2.301,1.846,2.301c0.843,0,1.319-0.641,1.487-1.471h1.429c-0.119,1.022-0.857,2.586-2.896,2.586
		c-2.107,0-3.178-1.359-3.178-3.41c0-2.385,1.494-3.473,3.227-3.473c1.564,0,2.738,1.036,2.848,2.356L25.667,12.388L25.667,12.388z"
		/>
</g>
</svg>
