<?xml version="1.0" encoding="utf-8"?>
<!-- Generator: Adobe Illustrator 17.1.0, SVG Export Plug-In . SVG Version: 6.00 Build 0)  -->
<!DOCTYPE svg PUBLIC "-//W3C//DTD SVG 1.1//EN" "http://www.w3.org/Graphics/SVG/1.1/DTD/svg11.dtd">
<svg version="1.1" id="Calque_1" xmlns="http://www.w3.org/2000/svg" xmlns:xlink="http://www.w3.org/1999/xlink" x="0px" y="0px"
	 viewBox="0 0 25 25" enable-background="new 0 0 25 25" xml:space="preserve">
<g id="Your_Icon">
	<path fill="#EFEFED" d="M14.5,22.3c0,0.5-0.4,0.9-0.9,0.9l0,0c-0.5,0-0.9-0.4-0.9-0.9v-4.6c0-0.5,0.4-0.9,0.9-0.9l0,0
		c0.5,0,0.9,0.4,0.9,0.9V22.3z"/>
	<path fill="#EFEFED" d="M14.2,16c-0.4,0.3-0.9,0.3-1.3,0l0,0c-0.3-0.4-0.3-0.9,0-1.3l6.2-6c0.4-0.3,0.9-0.3,1.3,0l0,0
		c0.3,0.4,0.3,0.9,0,1.3L14.2,16z"/>
	<path fill="#EFEFED" d="M12.6,11.1c-0.4,0.3-0.9,0.3-1.3,0l0,0c-0.3-0.4-0.3-0.9,0-1.3l7.7-7.5c0.4-0.3,0.9-0.3,1.3,0l0,0
		c0.3,0.4,0.3,0.9,0,1.3L12.6,11.1z"/>
	<path fill="#EFEFED" d="M2.6,11.3c-0.5,0-0.9-0.4-0.9-0.9l0,0c0-0.5,0.4-0.9,0.9-0.9l8.6,0c0.5,0,0.9,0.4,0.9,0.9l0,0
		c0,0.5-0.4,0.9-0.9,0.9L2.6,11.3z"/>
	<path fill="#EFEFED" d="M12.7,17.7l1.8,0.2l0.1-4.3l0.3-0.6c-0.6,0.1-0.6-0.3-0.6-0.3s-0.8-2.1-0.4-2.8l-3,1.6c0,0-0.3,3.5,0.1,4.1
		c0.4,0.6,1.4,0.9,1.5,1.2C12.7,17.1,12.7,17.7,12.7,17.7z"/>
	<line fill="#EFEFED" x1="2.2" y1="23.5" x2="23.4" y2="23.5"/>
	<path fill="#EFEFED" d="M17.9,16.7c0,0.8-0.7,1.5-1.5,1.5s-1.5-0.7-1.5-1.5c0-0.8,0.7-1.5,1.5-1.5C17.2,15.2,17.9,15.9,17.9,16.7z"
		/>
</g>
</svg>
