<?xml version="1.0" encoding="utf-8"?>
<!-- Generator: Adobe Illustrator 18.1.1, SVG Export Plug-In . SVG Version: 6.00 Build 0)  -->
<svg version="1.1" id="Livello_1" xmlns="http://www.w3.org/2000/svg" xmlns:xlink="http://www.w3.org/1999/xlink" x="0px" y="0px"
	 viewBox="-574.7 348.4 74.1 74.1" enable-background="new -574.7 348.4 74.1 74.1" xml:space="preserve">
<path fill="#232835" d="M-502.9,384.9h2.2c0-2-0.2-3.9-0.5-5.7l-2.2,0.4l-0.2-1l2.2-0.4c-0.4-2.1-1-4.1-1.7-6l-2.1,0.8l-0.4-0.9l2.1-0.8
	c-0.8-2-1.8-3.9-3-5.7l-1.9,1.2l-0.6-0.9l1.9-1.2c-1.2-1.8-2.6-3.5-4.1-5l-1.6,1.6l-0.7-0.7l1.6-1.6c-1.4-1.3-2.9-2.6-4.4-3.7
	l-1.3,1.8l-0.8-0.6l1.3-1.8c-1.7-1.2-3.6-2.2-5.5-3l-0.9,2.1l-0.9-0.4l0.9-2.1c-2-0.8-4-1.5-6.1-1.9l-0.5,2.2l-1-0.2l0.5-2.2
	c-2.1-0.4-4.2-0.6-6.4-0.6v2.2h-1v-2.2c-2,0-3.9,0.2-5.7,0.5l0.4,2.2l-1,0.2l-0.4-2.2c-2.1,0.4-4.1,1-6,1.7l0.8,2.1l-1,0.4l-0.8-2.1
	c-2,0.8-3.9,1.8-5.7,3l1.2,1.9l-0.9,0.6l-1.2-1.9c-1.8,1.2-3.5,2.6-5,4.1l1.6,1.6l-0.7,0.7l-1.6-1.6c-1.3,1.4-2.6,2.9-3.7,4.4
	l1.9,1.3l-0.6,0.8l-1.9-1.3c-1.2,1.7-2.2,3.6-3,5.5l2.1,0.9l-0.4,0.9l-2.1-0.9c-0.8,2-1.5,4-1.9,6.2l2.2,0.5l-0.2,1l-2.2-0.5
	c-0.4,2.1-0.6,4.2-0.7,6.4h2.3v1h-2.3c0,2,0.2,3.9,0.5,5.8l2.2-0.4l0.2,1l-2.2,0.4c0.4,2.1,1,4.1,1.8,6l2.1-0.8l0.4,0.9l-2.1,0.8
	c0.8,2,1.8,3.9,3,5.7l1.9-1.3l0.6,0.9l-1.9,1.2c1.2,1.8,2.6,3.5,4.1,5l1.6-1.6l0.7,0.7l-1.6,1.6c1.4,1.3,2.9,2.6,4.4,3.7l1.3-1.9
	l0.8,0.6l-1.3,1.9c1.7,1.2,3.6,2.2,5.5,3l0.9-2.1l0.9,0.4l-0.9,2.1c2,0.8,4,1.5,6.1,1.9l0.5-2.2l1,0.2l-0.5,2.2
	c2.1,0.4,4.2,0.6,6.4,0.6v-2.2h1v2.2c2,0,3.9-0.2,5.7-0.5l-0.4-2.2l1-0.2l0.4,2.2c2.1-0.4,4.1-1,6-1.8l-0.8-2.1l1-0.4l0.8,2.1
	c2-0.8,3.9-1.8,5.7-3l-1.2-1.9l0.9-0.6l1.2,1.9c1.8-1.2,3.5-2.6,5-4.1l-1.6-1.6l0.7-0.7l1.6,1.6c1.3-1.4,2.6-2.9,3.7-4.4l-1.9-1.3
	l0.6-0.8l1.8,1.3c1.2-1.7,2.2-3.6,3-5.5l-2.1-0.9l0.4-0.9l2.1,0.9c0.8-2,1.5-4,1.9-6.1l-2.2-0.4l0.2-1l2.2,0.5
	c0.4-2.1,0.6-4.2,0.6-6.4h-2.2L-502.9,384.9L-502.9,384.9z M-537.7,413.5c-15.5,0-28.1-12.6-28.1-28.1c0-15.5,12.6-28.1,28.1-28.1
	s28.1,12.6,28.1,28.1C-509.6,401-522.2,413.5-537.7,413.5z"/>
<path fill="#232835" d="M-537.7,360.4c-13.8,0-25.1,11.2-25.1,25.1c0,13.8,11.2,25.1,25.1,25.1c13.8,0,25.1-11.2,25.1-25.1
	C-512.6,371.6-523.9,360.4-537.7,360.4z M-534,365.4c0.4-0.7,1.3-1.2,3.6-0.4c2.3,0.8,3.9,1.8,5.2,2.6c1.3,0.9,4.1,3.3,5,4.8
	c0.8,1.5,1,2.2,0.6,2.7c-0.8,0.9-8.1,3.1-8.9,3.2c-0.9,0.1-2.3,0.4-3.6-0.5c-0.7-0.5-1.5-1.4-1.7-3.5
	C-534,372.2-534.4,366-534,365.4z M-530.8,385.4c-1,0.3-2-0.3-2.3-1.3c-0.3-1,0.3-2,1.3-2.3c1-0.3,2,0.3,2.3,1.3
	C-529.3,384-529.9,385.1-530.8,385.4z M-535,389.4c0.8-0.6,2-0.4,2.6,0.5c0.6,0.8,0.4,2-0.5,2.6c-0.8,0.6-2,0.4-2.6-0.5
	C-536.1,391.1-535.9,389.9-535,389.4z M-537.7,377c1,0,1.9,0.8,1.9,1.9s-0.8,1.9-1.9,1.9c-1,0-1.9-0.8-1.9-1.9S-538.7,377-537.7,377
	z M-540.2,391.8c-0.6,0.8-1.8,1-2.6,0.4c-0.8-0.6-1-1.8-0.4-2.6c0.6-0.8,1.8-1,2.6-0.4C-539.8,389.8-539.6,391-540.2,391.8z
	 M-544.6,385.2c-1-0.3-1.5-1.3-1.2-2.3c0.3-1,1.3-1.5,2.3-1.2c1,0.3,1.5,1.3,1.2,2.3C-542.5,385-543.6,385.5-544.6,385.2z
	 M-555,372.3c1.4-1.9,2.9-3.2,4.1-4.1c1.2-0.9,4.4-2.9,6.1-3.2c1.7-0.3,2.5-0.3,2.8,0.2c0.6,1,0.5,8.6,0.3,9.5
	c-0.2,0.8-0.3,2.3-1.6,3.2c-0.6,0.5-1.8,1-3.9,0.5c-2.1-0.5-8.1-2-8.6-2.6C-556.2,375.2-556.4,374.2-555,372.3z M-552.2,399.9
	c-0.7,0.3-1.7,0.3-3.2-1.7c-1.4-1.9-2.2-3.7-2.7-5.1c-0.5-1.4-1.5-5.1-1.3-6.8c0.2-1.7,0.4-2.4,1-2.6c1.2-0.3,8.4,2,9.2,2.4
	c0.8,0.4,2.1,1,2.7,2.4c0.3,0.8,0.4,2-0.6,3.8C-548.3,394.3-551.4,399.6-552.2,399.9z M-532,406.4c-2.3,0.6-4.2,0.8-5.7,0.8
	c-1.5,0-5.3-0.4-6.8-1.1c-1.5-0.8-2.1-1.3-2-1.9c0.2-1.2,4.8-7.2,5.5-7.7s1.7-1.6,3.2-1.6c0.8,0,2,0.3,3.4,2
	c1.3,1.7,5.2,6.5,5.2,7.3C-529.2,404.8-529.6,405.8-532,406.4z M-520.3,398.4c-1.2,1.2-1.9,1.6-2.4,1.4c-1.1-0.5-5.3-6.8-5.6-7.6
	c-0.3-0.8-1-2.1-0.5-3.6c0.3-0.8,0.9-1.8,2.9-2.6s7.8-2.9,8.5-2.7c0.8,0.2,1.5,0.9,1.4,3.3c-0.1,2.4-0.6,4.2-1.1,5.7
	C-517.5,393.7-519.1,397.2-520.3,398.4z"/>
</svg>
