<?xml version="1.0" encoding="utf-8"?>
<!-- Generator: Adobe Illustrator 17.1.0, SVG Export Plug-In . SVG Version: 6.00 Build 0)  -->
<!DOCTYPE svg PUBLIC "-//W3C//DTD SVG 1.1//EN" "http://www.w3.org/Graphics/SVG/1.1/DTD/svg11.dtd">
<svg version="1.1" id="Calque_1" xmlns="http://www.w3.org/2000/svg" xmlns:xlink="http://www.w3.org/1999/xlink" x="0px" y="0px"
	 viewBox="0 0 25 25" enable-background="new 0 0 25 25" xml:space="preserve">
<path fill="#EFEFED" d="M15.6,8.3c0-0.3-0.1-0.6-0.4-0.8c-0.2-0.2-0.5-0.3-0.8-0.3c-0.3,0-0.6,0.1-0.9,0.3c-0.2,0.2-0.3,0.5-0.3,0.8
	s0.1,0.6,0.3,0.8c0.2,0.2,0.5,0.4,0.9,0.4c0.3,0,0.6-0.1,0.8-0.4C15.5,8.9,15.6,8.6,15.6,8.3L15.6,8.3z"/>
<path fill="#EFEFED" d="M11.4,3c-0.2-0.2-0.5-0.4-0.9-0.4S9.8,2.7,9.6,3C9.3,3.2,9.2,3.5,9.2,3.9s0.1,0.6,0.4,0.9
	c0.3,0.2,0.6,0.4,0.9,0.4c0.2,0,0.3,0,0.4-0.1c0,0,0,0,0,0c0.1-0.1,0.3-0.2,0.4-0.3c0.3-0.2,0.4-0.5,0.4-0.9S11.6,3.2,11.4,3L11.4,3
	z"/>
<path fill="#EFEFED" d="M17.3,13.5c0-0.1-0.1-0.1-0.1-0.1l-2.6-3.4c-0.1-0.1-0.2-0.2-0.3-0.2l-1.3-0.1V4.6c0-0.1-0.1-0.3-0.1-0.4
	C12.7,4.1,12.6,4,12.4,4c-0.1,0-0.3,0.1-0.4,0.2c-0.1,0.1-0.2,0.2-0.2,0.4v13.3h2.5v-6.6l2,2.6l0.9,2.7c0,0.1,0.1,0.2,0.3,0.3
	c0.1,0.1,0.3,0.1,0.4,0c0.1-0.1,0.2-0.1,0.3-0.3c0.1-0.1,0.1-0.3,0-0.4L17.3,13.5L17.3,13.5z"/>
<path fill="#EFEFED" d="M18.2,21.9c0.1-0.1,0.1-0.3,0-0.4c-0.1-0.1-0.1-0.2-0.3-0.3l-3.3-1.6l-0.1-0.9l-1-0.1c0,0,0,0.1,0,0.1
	l0.2,1.3c0,0.1,0,0.2,0.1,0.2c0.1,0.1,0.1,0.1,0.2,0.2l3.6,1.7c0.1,0.1,0.3,0.1,0.4,0C18,22.1,18.1,22,18.2,21.9L18.2,21.9z"/>
<path fill="#EFEFED" d="M11.9,18.6C11.9,18.7,11.9,18.7,11.9,18.6l0.4,2.3c0,0.1,0,0.2,0.1,0.2c0.1,0.1,0.1,0.1,0.2,0.2l3.7,1.8
	c0.1,0.1,0.3,0.1,0.4,0c0.1,0,0.2-0.1,0.3-0.3c0.1-0.1,0.1-0.3,0-0.4c0-0.1-0.1-0.2-0.3-0.3l-3.4-1.7L13,18.6L11.9,18.6L11.9,18.6z"
	/>
<polygon fill="#EFEFED" points="8.9,2 8.3,2 8.3,6.2 8.9,6.2 8.9,5.7 11.5,5.7 11.5,5.4 8.9,5.4 "/>
</svg>
