<?xml version="1.0" encoding="utf-8"?>
<!-- Generator: Adobe Illustrator 17.1.0, SVG Export Plug-In . SVG Version: 6.00 Build 0)  -->
<!DOCTYPE svg PUBLIC "-//W3C//DTD SVG 1.1//EN" "http://www.w3.org/Graphics/SVG/1.1/DTD/svg11.dtd">
<svg version="1.1" id="Calque_1" xmlns="http://www.w3.org/2000/svg" xmlns:xlink="http://www.w3.org/1999/xlink" x="0px" y="0px"
	 viewBox="0 0 25 25" enable-background="new 0 0 25 25" xml:space="preserve">
<g>
	<path fill="#EFEFED" d="M12.5,5.8c0.9,0,1.7-0.8,1.7-1.7c0-0.9-0.8-1.7-1.7-1.7c-0.9,0-1.7,0.8-1.7,1.7C10.8,5,11.6,5.8,12.5,5.8z"
		/>
	<path fill="#EFEFED" d="M2.5,10.4H1.8c-0.2,0-0.4,0.2-0.4,0.4v4.6c0,0.2,0.2,0.4,0.4,0.4h0.6c0.2,0,0.4-0.2,0.4-0.4v-4.6
		C2.8,10.5,2.7,10.4,2.5,10.4z"/>
	<path fill="#EFEFED" d="M23.2,10.4h-0.6c-0.2,0-0.4,0.2-0.4,0.4v4.6c0,0.2,0.2,0.4,0.4,0.4h0.6c0.2,0,0.4-0.2,0.4-0.4v-4.6
		C23.5,10.5,23.4,10.4,23.2,10.4z"/>
	<path fill="#EFEFED" d="M21.1,9.5h-0.8c-0.3,0-0.5,0.2-0.5,0.5v2.5H17l0-4.7c0-0.9-0.7-1.6-1.6-1.6H9.6C8.7,6.2,8,6.9,8,7.8l0,4.7
		H5.2V10c0-0.3-0.2-0.5-0.5-0.5H3.9c-0.3,0-0.5,0.2-0.5,0.5v6.1c0,0.3,0.2,0.5,0.5,0.5h0.8c0.3,0,0.5-0.2,0.5-0.5v-2.5h2.8
		c0.1,0.3,0.4,0.6,0.8,0.6c0.4,0,0.7-0.2,0.8-0.6h0.5c-0.1,2.7-0.4,7.9-0.4,7.9c0,0.6,0.4,1.1,1,1.2c0.6,0,1.1-0.4,1.2-1l0.4-7.3
		c0.1,0,0.4,0,0.4,0l0.5,7.3c0,0.6,0.6,1.1,1.2,1c0.6,0,1.1-0.6,1-1.2c0,0-0.3-5.2-0.5-7.9h0.4c0.1,0.3,0.4,0.6,0.8,0.6
		c0.4,0,0.7-0.2,0.8-0.6h2.8v2.5c0,0.3,0.2,0.5,0.5,0.5h0.8c0.3,0,0.5-0.2,0.5-0.5V10C21.6,9.7,21.3,9.5,21.1,9.5z M9.7,12.5V9
		c0-0.1,0.1-0.2,0.2-0.2c0.1,0,0.2,0.1,0.2,0.2v2.9c0,0,0,0.2,0,0.6L9.7,12.5L9.7,12.5z M14.8,11.9V9c0-0.1,0.1-0.2,0.2-0.2
		c0.1,0,0.2,0.1,0.2,0.2v3.5h-0.4C14.9,12.2,14.8,11.9,14.8,11.9z"/>
</g>
</svg>
