<?xml version="1.0" encoding="utf-8"?>
<!-- Generator: Adobe Illustrator 18.1.1, SVG Export Plug-In . SVG Version: 6.00 Build 0)  -->
<svg version="1.1" id="Layer_1" xmlns="http://www.w3.org/2000/svg" xmlns:xlink="http://www.w3.org/1999/xlink" x="0px" y="0px"
	 viewBox="-563.1 371.9 74.1 43.1" enable-background="new -563.1 371.9 74.1 43.1" xml:space="preserve">
<g>
	<path fill="#232835" d="M-553.9,381.6c-5.5,4-9.1,8.5-9.1,11.8c0,3.3,3.6,7.8,9.1,11.8V381.6z"/>
	<path fill="#232835" d="M-498.1,381.6v23.7c5.5-4,9.1-8.5,9.1-11.8C-489,390.1-492.6,385.6-498.1,381.6z"/>
	<path fill="#232835" d="M-526,371.9c-7.8,0-15.9,2.6-22.5,6.3v30.5c6.6,3.6,14.6,6.3,22.5,6.3s15.9-2.6,22.5-6.3v-30.5
		C-510.2,374.5-518.2,371.9-526,371.9z M-513.7,397.3h-2.3v-2.8h-3.6v2.8h-2.3v-2.8h-3.6v2.8h-2.3v-2.8h-3.6v2.8h-2.3v-2.8h-3.6v2.8
		h-2.3v-7.8h2.3v2.8h3.6v-2.8h2.3v2.8h3.6v-2.8h2.3v2.8h3.6v-2.8h2.3v2.8h3.6v-2.8h2.3L-513.7,397.3L-513.7,397.3z"/>
</g>
</svg>
