<?xml version="1.0" encoding="utf-8"?>
<!-- Generator: Adobe Illustrator 18.1.1, SVG Export Plug-In . SVG Version: 6.00 Build 0)  -->
<svg version="1.1" id="Calque_1" xmlns="http://www.w3.org/2000/svg" xmlns:xlink="http://www.w3.org/1999/xlink" x="0px" y="0px"
	 viewBox="0 0 44.3 27" enable-background="new 0 0 44.3 27" xml:space="preserve">
<g>
	<path fill="#EF4878" d="M30,16.2c-0.5,0-0.9,0.1-1.4,0.3c-0.4,0.2-0.8,0.3-1.3,0.3c-0.5,0-0.9-0.1-1.3-0.3
		c-0.4-0.2-0.9-0.3-1.4-0.3c-0.5,0-0.9,0.1-1.4,0.3c-0.4,0.2-0.8,0.3-1.3,0.3c-0.5,0-0.9-0.1-1.3-0.3c-0.4-0.2-0.9-0.3-1.4-0.3
		s-0.9,0.1-1.4,0.3c-0.4,0.2-0.8,0.3-1.3,0.3c-0.5,0-0.9-0.1-1.3-0.3c-0.4-0.2-0.9-0.3-1.3-0.3s-0.9,0.1-1.4,0.3
		c-0.4,0.2-0.9,0.3-1.3,0.3v2c0.5,0,0.9-0.1,1.3-0.3c0.4-0.2,0.9-0.3,1.4-0.3s0.9,0.1,1.3,0.3c0.3,0.1,0.7,0.2,1.1,0.3l-1.6,1.6
		c-0.5-0.3-1.2-0.3-1.7,0.2l-1.9,1.9c-0.5,0.5-0.5,1.4,0,1.9c0.5,0.5,1.4,0.5,1.9,0l1.9-1.9c0.4-0.4,0.5-1.1,0.2-1.6l2.3-2.3
		c0.2,0,0.3-0.1,0.4-0.1c0.4-0.2,0.9-0.3,1.4-0.3s0.9,0.1,1.4,0.3c0.4,0.2,0.8,0.3,1.3,0.3c0.5,0,0.9-0.1,1.3-0.3
		c0.4-0.2,0.9-0.3,1.4-0.3c0.5,0,0.9,0.1,1.4,0.3c0.4,0.2,0.9,0.3,1.3,0.3c0.5,0,0.9-0.1,1.3-0.3c0.4-0.2,0.9-0.3,1.4-0.3
		c0.5,0,0.9,0.1,1.4,0.3c0.4,0.2,0.9,0.3,1.3,0.3v-2c-0.5,0-0.9-0.1-1.3-0.3C30.9,16.4,30.5,16.2,30,16.2z"/>
	<path fill="#EF4878" d="M30.9,6.6l1.9-1.9c0.5-0.5,0.5-1.4,0-1.9c-0.5-0.5-1.4-0.5-1.9,0L29,4.7c-0.5,0.5-0.5,1.1-0.2,1.7l-2.3,2.3
		L21.8,7c-0.1-0.1-0.2-0.1-0.4-0.2c-1-0.3-2.1,0.3-2.4,1.3l-1.4,4.8c0,0.1,0,0.1,0,0.2h-6.3v2.6c0.3,0,0.7-0.1,1-0.2
		c0.5-0.2,1.1-0.4,1.7-0.4s1.1,0.1,1.6,0.4c0.3,0.1,0.7,0.2,1,0.2c0.4,0,0.7-0.1,1-0.2c0.5-0.2,1.1-0.4,1.7-0.4
		c0.6,0,1.1,0.1,1.6,0.4c0.3,0.1,0.7,0.2,1,0.2s0.7-0.1,1-0.2c0.5-0.2,1.1-0.4,1.6-0.4c0.6,0,1.1,0.1,1.6,0.4c0.3,0.1,0.7,0.2,1,0.2
		c0.4,0,0.7-0.1,1-0.2c0.5-0.2,1.1-0.4,1.7-0.4c0.1,0,0.5,0,0.9-0.2c0.7-0.3,0.9-0.5,1.5-0.8c0.5-0.3,0.9-1-0.2-0.9
		c-0.3,0-9.1,0-9.1,0l2.7-2.7l0.4,0.1c0.5,0.2,1-0.1,1.1-0.5c0.1-0.3,0-0.7-0.2-0.9l2.2-2.2C29.8,7.1,30.5,7,30.9,6.6z M22.2,13
		h-0.6l1.1-3.8l2.4,0.9L22.2,13z"/>
	<path fill="#EF4878" d="M22.1,4.5L21.9,5c-0.2,0.3-0.5,0.5-0.9,0.5h-0.6c0.3,0.5,0.9,0.8,1.5,0.8c1,0,1.8-0.8,1.8-1.8V4.4L22.1,4.5
		C22.2,4.4,22.2,4.4,22.1,4.5z"/>
	<path fill="#EF4878" d="M21,5.1c0.2,0,0.4-0.1,0.5-0.3l0.2-0.5C21.8,4.1,22,4,22.2,4h1.9c-0.2-1-1.1-1.7-2.2-1.7
		c-1.2,0-2.2,1-2.2,2.2c0,0.2,0,0.4,0.1,0.6H21z"/>
</g>
</svg>
