<?xml version="1.0" encoding="utf-8"?>
<!-- Generator: Adobe Illustrator 17.1.0, SVG Export Plug-In . SVG Version: 6.00 Build 0)  -->
<!DOCTYPE svg PUBLIC "-//W3C//DTD SVG 1.1//EN" "http://www.w3.org/Graphics/SVG/1.1/DTD/svg11.dtd">
<svg version="1.1" id="Calque_1" xmlns="http://www.w3.org/2000/svg" xmlns:xlink="http://www.w3.org/1999/xlink" x="0px" y="0px"
	 viewBox="0 0 25 25" enable-background="new 0 0 25 25" xml:space="preserve">
<g>
	<g>
		<circle fill="#232835" cx="8.1" cy="5.1" r="1.9"/>
	</g>
	<g>
		<circle fill="#232835" cx="16.5" cy="5.1" r="1.9"/>
	</g>
	<g>
		<polygon fill="#232835" points="17.1,9.8 14.9,15.3 10.6,13.6 12.5,9 13.3,8.1 16.2,8.8 		"/>
	</g>
	<g>
		<path fill="#232835" d="M18,14.7l-1.5-0.5l0.6-1.5c0.3-0.9-0.2-2-1.1-2.4l-2.4-1c-0.3-0.1-0.5-0.1-0.7-0.1l0,0L10.7,9
			C9.9,8.9,9.1,8.5,8.6,8L6.7,6.1L7.8,5l1.9,1.9c0.3,0.3,0.8,0.5,1.2,0.6L13,7.6c0.4,0,0.9,0.1,1.2,0.2l0.1,0l2.4,1
			c1.7,0.7,2.5,2.6,1.9,4.3L18,14.7z"/>
	</g>
	<g>
		
			<rect x="12.3" y="12.7" transform="matrix(0.9334 0.3589 -0.3589 0.9334 7.0585 -3.5886)" fill="#232835" width="1.8" height="9.1"/>
	</g>
	<g>
		
			<rect x="10.4" y="11.3" transform="matrix(0.9098 0.4149 -0.4149 0.9098 6.9368 -3.4392)" fill="#232835" width="2" height="5.8"/>
	</g>
</g>
</svg>
