<?xml version="1.0" encoding="utf-8"?>
<!-- Generator: Adobe Illustrator 17.1.0, SVG Export Plug-In . SVG Version: 6.00 Build 0)  -->
<!DOCTYPE svg PUBLIC "-//W3C//DTD SVG 1.1//EN" "http://www.w3.org/Graphics/SVG/1.1/DTD/svg11.dtd">
<svg version="1.1" id="Calque_1" xmlns="http://www.w3.org/2000/svg" xmlns:xlink="http://www.w3.org/1999/xlink" x="0px" y="0px"
	 viewBox="0 0 25 25" enable-background="new 0 0 25 25" xml:space="preserve">
<g>
	<path fill="#EFEFED" d="M13.3,9.9c0,1-0.8,1.9-1.9,1.9c-1,0-1.9-0.8-1.9-1.9c0-1,0.8-1.9,1.9-1.9C12.5,8,13.3,8.8,13.3,9.9z"/>
	<path fill="#EFEFED" d="M15.8,19.6c0-0.6-0.5-1.1-1-1.1H8.5c-0.6,0-1,0.5-1,1.1l0,0c0,0.6,0.5,1.1,1,1.1h6.2
		C15.3,20.8,15.8,20.3,15.8,19.6L15.8,19.6z"/>
	<path fill="#EFEFED" d="M4.2,21.2c0,0,3-2.4,6.9-0.9c0,0,2.7-1.3,6.3-0.2c0,0,1.3,0.6,2.6-0.8c0,0,0,2.2-6.3,1.6
		c0,0-2.6,0.1-2.9,0.9C10.8,21.8,7.7,20.1,4.2,21.2z"/>
	<path fill="#EFEFED" d="M13.1,17.4c0,0.5-0.5,0.9-1.2,0.9l-0.8,0c-0.7,0-1.2-0.4-1.2-0.9l-0.5-4.3c0-0.5,0.5-0.9,1.2-0.9l1.8,0
		c0.7,0,1.2,0.4,1.2,0.9L13.1,17.4z"/>
	
		<rect x="-1.5" y="12.7" transform="matrix(-0.801 0.5986 -0.5986 -0.801 28.9558 16.2171)" fill="#EFEFED" width="26.5" height="0.5"/>
	<path fill="#EFEFED" d="M19.9,6.6c0,0,1.8-5.7,4.5-2.8c0,0,1.5,2.4-2.9,3.2L19.8,7L19.9,6.6z"/>
	<path fill="#EFEFED" d="M1.8,20c0,0-1.4,0.1-1.8,0.6c0,0,1.4,0.3,1.6,0.9c0,0,0.6,0.4,0.7-0.1c0.1-0.5-0.2-1-0.2-1L1.9,20"/>
	<g>
		<polygon fill="#EFEFED" points="10.5,12.3 6.9,13.4 6.6,13.5 6.5,13.7 6.2,17.2 7.2,16.6 7.5,14 7.2,14.4 10.8,13.2 		"/>
	</g>
	<g>
		<polygon fill="#EFEFED" points="12.5,13.2 17,14.4 17.7,14.6 17.6,13.8 17,9.3 16,9.9 16.6,14 17.3,13.4 12.8,12.2 		"/>
	</g>
</g>
</svg>
