<?xml version="1.0" encoding="utf-8"?>
<!-- Generator: Adobe Illustrator 17.1.0, SVG Export Plug-In . SVG Version: 6.00 Build 0)  -->
<!DOCTYPE svg PUBLIC "-//W3C//DTD SVG 1.1//EN" "http://www.w3.org/Graphics/SVG/1.1/DTD/svg11.dtd">
<svg version="1.1" id="Calque_1" xmlns="http://www.w3.org/2000/svg" xmlns:xlink="http://www.w3.org/1999/xlink" x="0px" y="0px"
	 viewBox="0 0 25 25" enable-background="new 0 0 25 25" xml:space="preserve">
<g>
	<circle fill="#232835" cx="17.2" cy="16.5" r="0.9"/>
	<path fill="#232835" d="M21.5,19.6l-0.4,0.9c0,0-1.9-0.6-3-1.7c-0.5-0.5-1.5-2-1.5-2l0.6-0.5c0,0,1,1.4,1.5,1.9
		C19.8,19.4,21.5,19.6,21.5,19.6z"/>
	<g>
		<path fill="#232835" d="M22.3,16.2l-0.1,1c0,0-1.3,1.1-3,0.7c-1.3-0.3-2.2-1.2-2.2-1.2l0.4-0.7c0,0,0.7,0.8,2,1.1
			C20.7,17.4,22.3,16.2,22.3,16.2z"/>
		<g>
			<polygon fill="#232835" points="11.7,12.6 8.6,4.6 6.7,5.2 8.5,16.1 8.5,16.1 10.4,16.1 			"/>
			<polygon fill="#232835" points="11.7,16.1 16.1,16.1 17.8,5.4 17.8,5.3 15.8,4.6 			"/>
			<path fill="#232835" d="M12.3,10.8l2.3-6.6l-0.1,0c0,0-0.4,0.6-2.4,0.6S9.9,4.2,9.9,4.2L9.7,4.2L12.3,10.8z"/>
			<path fill="#232835" d="M10,17.3l-1.6,0l-0.9,3.1c0,0,0.3,0.2,0.7,0.2c0.3,0,0.7-0.2,0.7-0.2L10,17.3z"/>
			<polygon fill="#232835" points="18.4,7.3 17.4,13.4 18.1,15.2 18.9,15.2 19.6,11.2 			"/>
			<path fill="#232835" d="M6.1,6.8L2.5,20.4c0,0,0.3,0.4,1.3,0.4s1.4-0.4,1.4-0.4l2-6.9L6.1,6.8z"/>
			<path fill="#232835" d="M11.3,17.3l-1.1,3.1c0,0,0.6,0.4,3.3,0.4s3.7-0.4,3.7-0.4l-0.9-3.1L11.3,17.3z"/>
		</g>
		<path fill="#232835" d="M19.5,15.2L21,7.3c0,0,0.5-0.2,0.9-0.2s0.6,0.2,0.6,0.2l-1.4,7.9H19.5z"/>
	</g>
</g>
</svg>
