<?xml version="1.0" encoding="utf-8"?>
<!-- Generator: Adobe Illustrator 17.1.0, SVG Export Plug-In . SVG Version: 6.00 Build 0)  -->
<!DOCTYPE svg PUBLIC "-//W3C//DTD SVG 1.1//EN" "http://www.w3.org/Graphics/SVG/1.1/DTD/svg11.dtd">
<svg version="1.1" id="Calque_1" xmlns="http://www.w3.org/2000/svg" xmlns:xlink="http://www.w3.org/1999/xlink" x="0px" y="0px"
	 viewBox="0 0 25 25" enable-background="new 0 0 25 25" xml:space="preserve">
<path fill="#EFEFED" d="M20.6,14.9c-0.5,0-0.9,0.1-1.4,0.3c-0.4,0.2-0.8,0.3-1.3,0.3c-0.5,0-0.9-0.1-1.3-0.3
	c-0.4-0.2-0.9-0.3-1.4-0.3c-0.5,0-0.9,0.1-1.4,0.3c-0.4,0.2-0.8,0.3-1.3,0.3c-0.5,0-0.9-0.1-1.3-0.3c-0.4-0.2-0.9-0.3-1.4-0.3
	S9,15,8.6,15.2c-0.4,0.2-0.8,0.3-1.3,0.3c-0.5,0-0.9-0.1-1.3-0.3c-0.4-0.2-0.9-0.3-1.3-0.3S3.7,15,3.3,15.2
	c-0.4,0.2-0.9,0.3-1.3,0.3v2c0.5,0,0.9-0.1,1.3-0.3c0.4-0.2,0.9-0.3,1.4-0.3S5.6,17,6,17.2c0.3,0.1,0.7,0.2,1.1,0.3l-1.6,1.6
	c-0.5-0.3-1.2-0.3-1.7,0.2l-1.9,1.9c-0.5,0.5-0.5,1.4,0,1.9c0.5,0.5,1.4,0.5,1.9,0l1.9-1.9c0.4-0.4,0.5-1.1,0.2-1.6l2.3-2.3
	c0.2,0,0.3-0.1,0.4-0.1C9,17,9.5,16.9,10,16.9s0.9,0.1,1.4,0.3c0.4,0.2,0.8,0.3,1.3,0.3c0.5,0,0.9-0.1,1.3-0.3
	c0.4-0.2,0.9-0.3,1.4-0.3c0.5,0,0.9,0.1,1.4,0.3c0.4,0.2,0.9,0.3,1.3,0.3c0.5,0,0.9-0.1,1.3-0.3c0.4-0.2,0.9-0.3,1.4-0.3
	c0.5,0,0.9,0.1,1.4,0.3c0.4,0.2,0.9,0.3,1.3,0.3v-2c-0.5,0-0.9-0.1-1.3-0.3C21.6,15,21.1,14.9,20.6,14.9z"/>
<path fill="#EFEFED" d="M21.5,5.3l1.9-1.9c0.5-0.5,0.5-1.4,0-1.9c-0.5-0.5-1.4-0.5-1.9,0l-1.9,1.9c-0.5,0.5-0.5,1.1-0.2,1.7
	l-2.3,2.3l-4.6-1.7c-0.1-0.1-0.2-0.1-0.4-0.2c-1-0.3-2.1,0.3-2.4,1.3l-1.4,4.8c0,0.1,0,0.1,0,0.2H1.9v2.6c0.3,0,0.7-0.1,1-0.2
	c0.5-0.2,1.1-0.4,1.7-0.4s1.1,0.1,1.6,0.4c0.3,0.1,0.7,0.2,1,0.2c0.4,0,0.7-0.1,1-0.2c0.5-0.2,1.1-0.4,1.7-0.4
	c0.6,0,1.1,0.1,1.6,0.4c0.3,0.1,0.7,0.2,1,0.2c0.4,0,0.7-0.1,1-0.2c0.5-0.2,1.1-0.4,1.6-0.4c0.6,0,1.1,0.1,1.6,0.4
	c0.3,0.1,0.7,0.2,1,0.2c0.4,0,0.7-0.1,1-0.2c0.5-0.2,1.1-0.4,1.7-0.4c0.1,0,0.5,0,0.9-0.2c0.7-0.3,0.9-0.5,1.5-0.8
	c0.5-0.3,0.9-1-0.2-0.9c-0.3,0-9.1,0-9.1,0L16.5,9l0.4,0.1c0.5,0.2,1-0.1,1.1-0.5c0.1-0.3,0-0.7-0.2-0.9L20,5.5
	C20.5,5.8,21.1,5.7,21.5,5.3z M12.8,11.7h-0.6l1.1-3.8l2.4,0.9L12.8,11.7z"/>
<path fill="#EFEFED" d="M12.8,3.2l-0.2,0.5c-0.2,0.3-0.5,0.5-0.9,0.5h-0.6C11.5,4.7,12,5,12.6,5c1,0,1.8-0.8,1.8-1.8V3.1L12.8,3.2
	C12.9,3.1,12.8,3.1,12.8,3.2z"/>
<path fill="#EFEFED" d="M11.7,3.8c0.2,0,0.4-0.1,0.5-0.3L12.4,3c0.1-0.2,0.3-0.3,0.5-0.3h1.9c-0.2-1-1.1-1.7-2.2-1.7
	c-1.2,0-2.2,1-2.2,2.2c0,0.2,0,0.4,0.1,0.6H11.7z"/>
</svg>
