<?xml version="1.0" encoding="utf-8"?>
<!-- Generator: Adobe Illustrator 17.1.0, SVG Export Plug-In . SVG Version: 6.00 Build 0)  -->
<!DOCTYPE svg PUBLIC "-//W3C//DTD SVG 1.1//EN" "http://www.w3.org/Graphics/SVG/1.1/DTD/svg11.dtd">
<svg version="1.1" id="Calque_1" xmlns="http://www.w3.org/2000/svg" xmlns:xlink="http://www.w3.org/1999/xlink" x="0px" y="0px"
	 viewBox="0 0 25 25" enable-background="new 0 0 25 25" xml:space="preserve">
<g>
	<path fill="#EFEFED" d="M17.8,6c1,0,1.8-0.8,1.8-1.8s-0.8-1.8-1.8-1.8c-1,0-1.8,0.8-1.8,1.8C16,5.2,16.8,6,17.8,6z"/>
	<path fill="#EFEFED" d="M21.8,9.6L21,8.9l-2.2-2.2c-0.2-0.2-0.5-0.3-0.8-0.3l-3.4,0L8.4,6.2c-0.2,0-0.5,0-0.7,0.2
		C7.4,6.7,7.3,7.3,7.6,7.7C7.8,7.9,8.1,8,8.3,8l4.2,0l2.3,0l-3.3,4l0,0l-1.8,2.1c-0.1,0.1-0.1,0.1-0.2,0.2c-0.3,0.6-0.2,1.3,0.4,1.5
		c0.5,0.3,1.2,0.1,1.5-0.3l2.3-2.7l0.1-0.2l0.3,0.2L13.9,13l-6.3,7.6c-0.1,0.1-0.1,0.1-0.2,0.2c-0.3,0.5-0.1,1.2,0.4,1.6
		c0.5,0.3,1.1,0.2,1.4-0.2l7.2-8.5l0,0l3-3.7l0.5,0.4l-2,2.6c-0.1,0.2-0.2,0.4-0.2,0.6c0,0.5,0.5,0.9,1,0.9c0.2,0,0.4-0.1,0.6-0.2
		l2.4-3C22.6,10.3,21.8,9.6,21.8,9.6z"/>
	<circle fill="#EFEFED" cx="4.2" cy="21.1" r="1.4"/>
</g>
</svg>
