<?xml version="1.0" encoding="utf-8"?>
<!-- Generator: Adobe Illustrator 18.1.1, SVG Export Plug-In . SVG Version: 6.00 Build 0)  -->
<svg version="1.1" id="Calque_1" xmlns="http://www.w3.org/2000/svg" xmlns:xlink="http://www.w3.org/1999/xlink" x="0px" y="0px"
	 viewBox="0 0 50.5 31.5" enable-background="new 0 0 50.5 31.5" xml:space="preserve">
<g>
	<path fill="#EF4878" d="M25.3,13.2c0,1-0.8,1.9-1.9,1.9c-1,0-1.9-0.8-1.9-1.9c0-1,0.8-1.9,1.9-1.9C24.4,11.3,25.3,12.1,25.3,13.2z"
		/>
	<path fill="#EF4878" d="M27.7,22.9c0-0.6-0.5-1.1-1-1.1h-6.2c-0.6,0-1,0.5-1,1.1l0,0c0,0.6,0.5,1.1,1,1.1h6.2
		C27.3,24.1,27.7,23.6,27.7,22.9L27.7,22.9z"/>
	<path fill="#EF4878" d="M16.2,24.5c0,0,3-2.4,6.9-0.9c0,0,2.7-1.3,6.3-0.2c0,0,1.3,0.6,2.6-0.8c0,0,0,2.2-6.3,1.6
		c0,0-2.6,0.1-2.9,0.9C22.8,25.1,19.6,23.4,16.2,24.5z"/>
	<path fill="#EF4878" d="M25,20.7c0,0.5-0.5,0.9-1.2,0.9l-0.8,0c-0.7,0-1.2-0.4-1.2-0.9l-0.5-4.3c0-0.5,0.5-0.9,1.2-0.9l1.8,0
		c0.7,0,1.2,0.4,1.2,0.9L25,20.7z"/>
	
		<rect x="10.5" y="16" transform="matrix(-0.801 0.5986 -0.5986 -0.801 52.4646 15.0011)" fill="#EF4878" width="26.5" height="0.5"/>
	<path fill="#EF4878" d="M31.8,9.9c0,0,1.8-5.7,4.5-2.8c0,0,1.5,2.4-2.9,3.2l-1.7-0.1L31.8,9.9z"/>
	<path fill="#EF4878" d="M13.7,23.3c0,0-1.4,0.1-1.8,0.6c0,0,1.4,0.3,1.6,0.9c0,0,0.6,0.4,0.7-0.1c0.1-0.5-0.2-1-0.2-1l-0.3-0.3"/>
	<g>
		<polygon fill="#EF4878" points="22.4,15.6 18.8,16.7 18.6,16.8 18.5,17 18.1,20.5 19.1,19.9 19.4,17.3 19.1,17.7 22.7,16.5 		"/>
	</g>
	<g>
		<polygon fill="#EF4878" points="24.5,16.5 29,17.7 29.7,17.9 29.6,17.1 28.9,12.6 27.9,13.2 28.6,17.3 29.2,16.7 24.8,15.5 		"/>
	</g>
</g>
</svg>
