<?xml version="1.0" encoding="utf-8"?>
<!-- Generator: Adobe Illustrator 17.1.0, SVG Export Plug-In . SVG Version: 6.00 Build 0)  -->
<!DOCTYPE svg PUBLIC "-//W3C//DTD SVG 1.1//EN" "http://www.w3.org/Graphics/SVG/1.1/DTD/svg11.dtd">
<svg version="1.1" id="Calque_1" xmlns="http://www.w3.org/2000/svg" xmlns:xlink="http://www.w3.org/1999/xlink" x="0px" y="0px"
	 viewBox="0 0 25 25" enable-background="new 0 0 25 25" xml:space="preserve">
<path fill="#EFEFED" d="M19.4,17.4c-0.3-0.4-0.6-0.8-1.3-0.8c-0.7,0-1.1,0.4-1.4,0.8c-0.3,0.4-0.5,0.7-1.1,0.7
	c-0.5,0-0.8-0.3-1.1-0.7c-0.3-0.4-0.7-0.8-1.5-0.8c-0.7,0-1.1,0.4-1.4,0.8C11.3,17.7,11,18,10.5,18c-0.5,0-0.8-0.3-1.1-0.7
	C9.1,17,8.8,16.5,8,16.5v1c0.5,0,0.8,0.3,1.1,0.7c0.3,0.4,0.7,0.8,1.4,0.8c0.7,0,1.1-0.4,1.4-0.8c0.3-0.4,0.6-0.7,1.1-0.7
	c0.5,0,0.8,0.3,1.1,0.7c0.3,0.4,0.7,0.8,1.5,0.8c0.7,0,1.1-0.4,1.4-0.8c0.3-0.4,0.5-0.7,1.1-0.7c0.5,0,0.7,0.3,1,0.7
	c0.3,0.4,0.6,0.8,1.3,0.8v-1C19.9,18,19.6,17.7,19.4,17.4z M10.3,10c0-1.3-1-2.3-2.3-2.3s-2.3,1-2.3,2.3c0,1.3,1,2.3,2.3,2.3
	S10.3,11.3,10.3,10z M15.2,11.1c-0.3-0.3-0.4-0.8-0.1-1.1l0.1-0.1c0.3-0.4,0.8-0.4,1.1-0.1l3,2.3l1.2-1.6l-5-3.9
	c-0.3-0.3-0.9-0.2-1.1,0.1l-6.2,7.9C8,14.7,8,15,8,15.2v0c1.2,0,1.2,1.5,2.5,1.5c1.2,0,1.2-1.5,2.5-1.5c1.3,0,1.3,1.5,2.6,1.5
	c1.2,0,1.2-1.5,2.5-1.5c1.1,0,1.2,1.3,2.2,1.5c0.1,0,0.1,0,0.2,0l0-1.6L15.2,11.1z"/>
</svg>
