<?xml version="1.0" encoding="utf-8"?>
<!-- Generator: Adobe Illustrator 17.1.0, SVG Export Plug-In . SVG Version: 6.00 Build 0)  -->
<!DOCTYPE svg PUBLIC "-//W3C//DTD SVG 1.1//EN" "http://www.w3.org/Graphics/SVG/1.1/DTD/svg11.dtd">
<svg version="1.1" id="Calque_1" xmlns="http://www.w3.org/2000/svg" xmlns:xlink="http://www.w3.org/1999/xlink" x="0px" y="0px"
	 viewBox="0 0 25 25" enable-background="new 0 0 25 25" xml:space="preserve">
<g id="Captions">
</g>
<g id="Your_Icon_2_">
	<path id="CAVA" fill="#EFEFED" d="M3.6,12.4v3.2h1.4v-3.2l0.7-1.1v3.9l-0.7,1.1l0,4.9c0,0.5,0.4,0.9,0.9,0.9s0.9-0.4,0.9-0.9V17
		l0.9-1.4v1.5l1.9,4.6c0.2,0.4,0.8,0.6,1.2,0.3c0.4-0.2,0.6-0.8,0.3-1.2l-1.7-4l0.8-1.4h4.4l0,5.8c0,0.5,0.4,0.9,0.9,0.9
		s0.9-0.4,0.9-0.9l0-5.6l2-4.1c0.2,0.1,0.4,0.1,0.6,0.1c1.1,0,2-0.8,2.3-1.8l0.2,0c0.4,0.1,0.8-0.1,1-0.5c0.3-0.4,0.1-1-0.4-1.3
		l-2.7-1.8l0.2-1.5l-5.4,5.6h-2l0-1.1L14,9.7c0.3,0.1,0.7-0.1,0.8-0.5c0.1-0.3-0.1-0.7-0.5-0.8l-2-0.5l0-0.5c0-0.7-0.6-1.3-1.3-1.3
		S9.6,6.7,9.6,7.5l0,3l-4.1,0C4.4,10.4,3.6,11.3,3.6,12.4z M20.8,9.6C20.6,10.4,19.9,11,19,11c-0.1,0-0.3,0-0.4,0l0.8-1.6L20.8,9.6z
		 M11,5.8c0.7,0,1.3-0.6,1.3-1.3c0-0.7-0.6-1.3-1.3-1.3c-0.7,0-1.3,0.6-1.3,1.3C9.7,5.2,10.2,5.8,11,5.8z"/>
</g>
</svg>
