<?xml version="1.0" encoding="utf-8"?>
<!-- Generator: Adobe Illustrator 17.1.0, SVG Export Plug-In . SVG Version: 6.00 Build 0)  -->
<!DOCTYPE svg PUBLIC "-//W3C//DTD SVG 1.1//EN" "http://www.w3.org/Graphics/SVG/1.1/DTD/svg11.dtd">
<svg version="1.1" id="Calque_1" xmlns="http://www.w3.org/2000/svg" xmlns:xlink="http://www.w3.org/1999/xlink" x="0px" y="0px"
	 viewBox="0 0 25 25" enable-background="new 0 0 25 25" xml:space="preserve">
<g>
	<path fill="#EFEFED" d="M19.9,10c0,0-4.9-3.8-7.4-5.8c-1.1-0.8-2.5,0.7-1,1.8c0.9,0.7,1.7,1.4,2.6,2c-1,1.2-2.9,3.6-2.9,3.6
		C9.6,10.5,8,9.3,6.4,8.1C5.3,7.3,3.9,8.9,5.3,9.9c2,1.5,3.9,2.9,5.9,4.4c0,2.1,0,4.1,0,6.2c0,1.3,2.1,1.3,2.1,0c0-2.1,0-4.2,0-6.2
		c0.1-0.1,0.2-0.2,0.3-0.3c1-1.3,2.1-2.5,3.1-3.8c0.4,0.3,0.8,0.6,1.2,0.9c-0.2,0.2-0.3,0.4-0.5,0.6c-0.4,0.4-0.4,1,0,1.5
		c0.4,0.4,1,0.5,1.5,0c0.5-0.5,0.9-0.9,1.3-1.5C20.8,10.8,19.9,10,19.9,10z"/>
	<path fill="#EFEFED" d="M17.3,7.4c0.8,0.4,1.9,0.1,2.3-0.8c0.4-0.8,0.1-1.9-0.8-2.3c-0.8-0.4-1.9-0.1-2.3,0.8
		C16.1,6,16.5,7,17.3,7.4z"/>
</g>
</svg>
