<?xml version="1.0" encoding="utf-8"?>
<!-- Generator: Adobe Illustrator 17.1.0, SVG Export Plug-In . SVG Version: 6.00 Build 0)  -->
<!DOCTYPE svg PUBLIC "-//W3C//DTD SVG 1.1//EN" "http://www.w3.org/Graphics/SVG/1.1/DTD/svg11.dtd">
<svg version="1.1" id="Calque_1" xmlns="http://www.w3.org/2000/svg" xmlns:xlink="http://www.w3.org/1999/xlink" x="0px" y="0px"
	 viewBox="0 0 25 25" enable-background="new 0 0 25 25" xml:space="preserve">
<path fill="#EFEFED" d="M3.7,21.8c-0.2,0-0.4-0.2-0.4-0.4V8.9c0-0.2,0.2-0.4,0.4-0.4s0.4,0.2,0.4,0.4v12.5
	C4.1,21.6,3.9,21.8,3.7,21.8z"/>
<path fill="#EFEFED" d="M21.7,21.8c-0.2,0-0.4-0.2-0.4-0.4V8.9c0-0.2,0.2-0.4,0.4-0.4s0.4,0.2,0.4,0.4v12.5
	C22.1,21.6,21.9,21.8,21.7,21.8z"/>
<path fill="#EFEFED" d="M21.7,16.3c-0.2,0-0.4-0.2-0.4-0.4V9.7H4.1v6.3c0,0.2-0.2,0.4-0.4,0.4s-0.4-0.2-0.4-0.4V9.3
	c0-0.2,0.2-0.4,0.4-0.4h18c0.2,0,0.4,0.2,0.4,0.4v6.7C22.1,16.1,21.9,16.3,21.7,16.3z"/>
<path fill="#EFEFED" d="M17.6,7.7c-1.1,0-2-0.9-2-2s0.9-2,2-2c1.1,0,2,0.9,2,2S18.7,7.7,17.6,7.7z M17.6,4.6c-0.6,0-1.2,0.5-1.2,1.2
	s0.5,1.2,1.2,1.2s1.2-0.5,1.2-1.2S18.2,4.6,17.6,4.6z"/>
<path fill="#EFEFED" d="M21.3,12H4.1c-0.2,0-0.4-0.2-0.4-0.4s0.2-0.4,0.4-0.4h17.2c0.2,0,0.4,0.2,0.4,0.4S21.5,12,21.3,12z"/>
<path fill="#EFEFED" d="M21.3,14.4H4.1c-0.2,0-0.4-0.2-0.4-0.4s0.2-0.4,0.4-0.4h17.2c0.2,0,0.4,0.2,0.4,0.4S21.5,14.4,21.3,14.4z"/>
</svg>
