<?xml version="1.0" encoding="utf-8"?>
<!-- Generator: Adobe Illustrator 17.1.0, SVG Export Plug-In . SVG Version: 6.00 Build 0)  -->
<!DOCTYPE svg PUBLIC "-//W3C//DTD SVG 1.1//EN" "http://www.w3.org/Graphics/SVG/1.1/DTD/svg11.dtd">
<svg version="1.1" id="Calque_1" xmlns="http://www.w3.org/2000/svg" xmlns:xlink="http://www.w3.org/1999/xlink" x="0px" y="0px"
	 viewBox="0 0 25 25" enable-background="new 0 0 25 25" xml:space="preserve">
<g>
	<g>
		<line fill="#232835" x1="19.2" y1="1.9" x2="10.2" y2="20.3"/>
		
			<rect x="4.5" y="10.9" transform="matrix(-0.4407 0.8976 -0.8976 -0.4407 31.1584 2.7969)" fill="#232835" width="20.4" height="0.4"/>
	</g>
	<polygon fill="#232835" points="9.7,19.1 18.3,2 8.5,11.9 	"/>
	<g>
		<g>
			
				<rect x="2.9" y="21.7" transform="matrix(1 -2.499992e-03 2.499992e-03 1 -5.478094e-02 3.131843e-02)" fill="#232835" width="19.2" height="0.4"/>
		</g>
		<g>
			<rect x="3.1" y="22.7" fill="#232835" width="18.9" height="0.4"/>
		</g>
	</g>
	<g>
		<polygon fill="#232835" points="7.5,20.6 13.3,22.2 14.7,21.9 14.9,21.2 7.8,19.4 		"/>
	</g>
	<path fill="#232835" d="M17.9,13.8c0,0.4-0.4,0.8-0.8,0.8s-0.8-0.4-0.8-0.8c0-0.4,0.4-0.8,0.8-0.8S17.9,13.3,17.9,13.8z"/>
	<g>
		<path fill="#232835" d="M13.8,17.1l-1.2,1.3l-0.1,0.1l0,0.1l-0.5,2.2l0.7,0.2l0.5-2.1L13,18.9l0.1-0.1l0,0.1l1.1-1.2
			c-0.1-0.1-0.2-0.2-0.2-0.2C13.9,17.3,13.8,17.2,13.8,17.1z"/>
		<polygon fill="#232835" points="13,18.9 13.1,18.8 13.1,18.7 		"/>
		<path fill="#232835" d="M15.4,14.3l-1.1,0.3l0.1,0l-0.1,0l0.1,0l-1.1-0.3L13,14.8l1.2,0.3l0.1,0l0.1,0l0.6-0.1
			C15.1,14.6,15.3,14.3,15.4,14.3C15.4,14.3,15.4,14.3,15.4,14.3z"/>
		<polygon fill="#232835" points="14.3,14.5 14.3,14.5 14.2,14.5 		"/>
		<path fill="#232835" d="M14.2,17.1l0.7,0.5c0.1,0.1,0.2,0.1,0.3,0.1c0.1,0,0.2-0.1,0.2-0.1c0,0,1.5-2.1,1.5-2.1
			c0.1-0.1,0.1-0.2,0.1-0.3c0-0.1-0.1-0.2-0.1-0.2l-0.7-0.5c-0.1-0.1-0.2-0.1-0.3-0.1c-0.1,0-0.2,0.1-0.2,0.1l-1.5,2.1
			C14,16.8,14,17,14.2,17.1z"/>
		<path fill="#232835" d="M15.9,14.4c0.1,0,0.2,0,0.3,0.1l0.7,0.5c0.1,0.1,0.1,0.1,0.1,0.2c0,0.1,0,0.2-0.1,0.3c0,0-1.5,2.1-1.5,2.1
			c-0.1,0.1-0.1,0.1-0.2,0.1c-0.1,0-0.2,0-0.3-0.1l-0.7-0.5C14,17,14,16.8,14.1,16.6l1.5-2.1C15.7,14.4,15.8,14.4,15.9,14.4z"/>
	</g>
	<g>
		<polygon fill="#232835" points="16.3,14.8 14.1,15.4 14.2,15.4 12.7,14.9 12.5,15.4 14.1,15.9 14.1,15.9 14.2,15.9 16.4,15.3 		
			"/>
	</g>
	<g>
		<polygon fill="#232835" points="14.8,17 13.5,18.7 13.4,18.7 13.4,18.8 12.9,20.8 13.6,21 14.1,19 14,19.1 15.3,17.5 		"/>
	</g>
</g>
</svg>
