<?xml version="1.0" encoding="utf-8"?>
<!-- Generator: Adobe Illustrator 17.1.0, SVG Export Plug-In . SVG Version: 6.00 Build 0)  -->
<!DOCTYPE svg PUBLIC "-//W3C//DTD SVG 1.1//EN" "http://www.w3.org/Graphics/SVG/1.1/DTD/svg11.dtd">
<svg version="1.1" id="Calque_1" xmlns="http://www.w3.org/2000/svg" xmlns:xlink="http://www.w3.org/1999/xlink" x="0px" y="0px"
	 viewBox="0 0 25 25" enable-background="new 0 0 25 25" xml:space="preserve">
<path fill="#EFEFED" d="M19.5,16.5c0-0.1-0.1-0.3-0.2-0.3l-1-0.9h1c0,0,0.9-0.2,1-1.7c0,0,0.1-0.3-0.7-0.6c0,0-2.8-1.1-5-2.3
	l-1.3,1.6c-0.3,0.4-0.8,0.5-1.1,0.2c-0.3-0.3-0.3-0.8,0-1.2l1.1-1.4c-0.6-0.3-1.1-0.7-1.2-0.9l0.1-0.7l-3-0.1
	c-0.5,0-0.9-0.4-0.9-0.8c0-0.4,0.4-0.7,0.9-0.7l3.1,0.1l0.1-1.3c0,0,0,0,0,0c0-0.5-0.1-1-0.6-1.1c-1.5-0.3-2.4,0.6-2.7,0.9
	C8.3,5.3,7.4,5.2,6.2,5.1l-0.5,8.7c0,0,0.1,1.2,1.6,1.4l-0.6,1c-0.1,0.1-0.1,0.2-0.2,0.3c-1,0.1-1.9,0.9-1.9,2c0,1.1,0.9,2,2,2
	s2-0.9,2-2c0,0,0,0,0,0h0.2c0,0,0,0,0,0c0,1.1,0.9,2,2,2c1.1,0,2-0.9,2-2c0,0,0,0,0,0H13c0,0,0,0,0,0c0,1.1,0.9,2,2,2
	c1.1,0,2-0.9,2-2c0,0,0,0,0,0h0.2c0,0,0,0,0,0c0,1.1,0.9,2,2,2s2-0.9,2-2C21.1,17.5,20.4,16.7,19.5,16.5z M6.7,19.5
	c-0.5,0-1-0.4-1-1c0-0.5,0.4-0.9,0.8-1v0.4c0,0.3,0.3,0.6,0.6,0.6h0.5c0,0,0,0,0,0C7.7,19,7.2,19.5,6.7,19.5z M8.5,13
	c-0.6,0-1.1-0.5-1.1-1.1c0-0.6,0.5-1.1,1.1-1.1c0.6,0,1.1,0.5,1.1,1.1C9.7,12.5,9.2,13,8.5,13z M10.8,19.5c-0.5,0-1-0.4-1-1
	c0,0,0,0,0,0h2c0,0,0,0,0,0C11.8,19,11.4,19.5,10.8,19.5z M10.8,16.3l-0.6-1H15l-0.4,1H10.8z M15,19.5c-0.5,0-1-0.4-1-1c0,0,0,0,0,0
	h2c0,0,0,0,0,0C16,19,15.5,19.5,15,19.5z M19.2,19.5c-0.5,0-1-0.4-1-1c0,0,0,0,0,0h0.7c0.3,0,0.6-0.3,0.6-0.6v-0.3
	c0.4,0.1,0.7,0.5,0.7,0.9C20.1,19,19.7,19.5,19.2,19.5z"/>
</svg>
