<?xml version="1.0" encoding="utf-8"?>
<!-- Generator: Adobe Illustrator 18.1.1, SVG Export Plug-In . SVG Version: 6.00 Build 0)  -->
<svg version="1.1" id="Calque_1" xmlns="http://www.w3.org/2000/svg" xmlns:xlink="http://www.w3.org/1999/xlink" x="0px" y="0px"
	 viewBox="0 0 46.2 31.7" enable-background="new 0 0 46.2 31.7" xml:space="preserve">
<g id="Your_Icon_1_">
	<circle fill="#EF4878" cx="26.1" cy="10.3" r="1.7"/>
	<path fill="#EF4878" d="M31.2,18c-0.7,0-1.4,0.2-2.1,0.5l-0.7-1V16c0.4,0,0.7-0.3,0.7-0.7c0-0.4-0.3-0.7-0.7-0.7h-2.2l-1.3-2.7
		c0-0.1-0.1-0.2-0.2-0.3c0,0-0.1-0.1-0.1-0.1c-0.5-0.5-1.4-0.4-1.8,0.1L19,15.8c-0.4,0.5-0.4,1.2,0,1.7c0,0.1,0.1,0.1,0.2,0.2
		l-0.6,0.8C18,18.2,17.2,18,16.5,18c-2.5,0-4.5,2-4.5,4.5c0,2.5,2,4.5,4.5,4.5c2.3,0,4.2-1.8,4.5-4l2.3,0v1c0,0.5,0.4,1,1,1
		s1-0.4,1-1v-1.6l2.6-4.1l0.5,0.8c-1,0.8-1.6,2.1-1.6,3.5c0,2.5,2,4.5,4.5,4.5s4.5-2,4.5-4.5C35.7,20,33.7,18,31.2,18z M24.2,13.9
		l0.8,1.7c0.1,0.3,0.4,0.4,0.7,0.4h1.8v1.1h-4.4l-1.3-0.5L24.2,13.9z M16.5,26.1c-2,0-3.5-1.6-3.5-3.5c0-2,1.6-3.5,3.5-3.5
		c0.6,0,1.1,0.1,1.6,0.4l-2,2.9c-0.1,0.1-0.1,0.3,0,0.5c0.1,0.2,0.2,0.3,0.4,0.3h0l3.5,0C19.7,24.7,18.2,26.1,16.5,26.1z M20,22
		l-2.6,0l1.5-2.1C19.4,20.5,19.8,21.2,20,22z M20.9,22c-0.1-1.2-0.7-2.2-1.5-2.9l0.7-1h0l3.2,1.2V22L20.9,22z M25.2,20.5v-1.9
		c0-0.2,0-0.3-0.1-0.5h1.7L25.2,20.5z M31.2,26.1c-2,0-3.5-1.6-3.5-3.5c0-1.1,0.5-2,1.2-2.7l1.9,2.9c0.1,0.1,0.2,0.2,0.4,0.2
		c0.1,0,0.2,0,0.3-0.1c0.2-0.1,0.3-0.4,0.1-0.7l-1.9-2.9c0.5-0.2,1-0.3,1.5-0.3c2,0,3.5,1.6,3.5,3.5C34.7,24.5,33.1,26.1,31.2,26.1z
		"/>
</g>
</svg>
