<?xml version="1.0" encoding="utf-8"?>
<!-- Generator: Adobe Illustrator 18.1.1, SVG Export Plug-In . SVG Version: 6.00 Build 0)  -->
<svg version="1.1" id="Calque_1" xmlns="http://www.w3.org/2000/svg" xmlns:xlink="http://www.w3.org/1999/xlink" x="0px" y="0px"
	 viewBox="296 306 456 438" enable-background="new 296 306 456 438" xml:space="preserve">
<g>
	<path fill="#232835" d="M456.4,369.7c1.5-25.4-17.9-47.3-43.3-48.8c-25.5-1.5-47.3,17.9-48.8,43.4c-1.5,25.4,17.9,47.3,43.4,48.8
		C433.1,414.6,454.9,395.2,456.4,369.7z"/>
	<path fill="#232835" d="M333.3,492.5l98,44.8c2.5,1.2,5.3,1.7,8,1.7c3.1,0,6.3-0.8,9.1-2.3c5.3-2.8,9-8,9.9-14l5.5-34.7l47.2,60
		L452.5,591c-5.5,4-8.5,10.6-7.8,17.4c0.7,6.8,4.8,12.7,11,15.6l118.7,55.5c2.6,1.2,5.4,1.8,8.1,1.8c7.2,0,14.2-4.1,17.4-11.1
		c4.5-9.6,0.3-21.1-9.3-25.6l-89.3-41.7l58.9-43.1l125.5,144.4c3.8,4.4,9.2,6.6,14.5,6.6c4.5,0,9-1.6,12.6-4.7
		c8-7,8.9-19.1,1.9-27.1L567.4,509.2c-0.9-1.1-2-2-3.1-2.9l-63.9-81.1l29.3-13.8l20.3,57.4c2.8,7.9,10.2,12.8,18.1,12.8
		c2.1,0,4.3-0.4,6.4-1.1c10-3.5,15.3-14.6,11.7-24.6l-27.4-77.4c-1.8-5.1-5.7-9.2-10.7-11.3c-5-2.1-10.7-2-15.6,0.3l-82.8,39
		c-4.3,2-7.5,5.4-9.3,9.5c-3,2.8-5.2,6.6-5.9,11.1l-10.3,64.8l-75-34.3c-9.7-4.4-21.1-0.2-25.5,9.5
		C319.4,476.7,323.6,488.1,333.3,492.5z"/>
</g>
</svg>
