<?xml version="1.0" encoding="utf-8"?>
<!-- Generator: Adobe Illustrator 17.1.0, SVG Export Plug-In . SVG Version: 6.00 Build 0)  -->
<!DOCTYPE svg PUBLIC "-//W3C//DTD SVG 1.1//EN" "http://www.w3.org/Graphics/SVG/1.1/DTD/svg11.dtd">
<svg version="1.1" id="Calque_1" xmlns="http://www.w3.org/2000/svg" xmlns:xlink="http://www.w3.org/1999/xlink" x="0px" y="0px"
	 viewBox="0 0 25 25" enable-background="new 0 0 25 25" xml:space="preserve">
<g id="Your_Icon_1_">
	<circle fill="#EFEFED" cx="14.9" cy="4.6" r="1.7"/>
	<path fill="#EFEFED" d="M19.9,12.3c-0.7,0-1.4,0.2-2.1,0.5l-0.7-1v-1.5c0.4,0,0.7-0.3,0.7-0.7c0-0.4-0.3-0.7-0.7-0.7h-2.2l-1.3-2.7
		c0-0.1-0.1-0.2-0.2-0.3c0,0-0.1-0.1-0.1-0.1c-0.5-0.5-1.4-0.4-1.8,0.1l-3.7,4.2c-0.4,0.5-0.4,1.2,0,1.7c0,0.1,0.1,0.1,0.2,0.2
		l-0.6,0.8c-0.6-0.4-1.4-0.6-2.2-0.6c-2.5,0-4.5,2-4.5,4.5c0,2.5,2,4.5,4.5,4.5c2.3,0,4.2-1.8,4.5-4l2.3,0v1c0,0.5,0.4,1,1,1
		c0.5,0,1-0.4,1-1v-1.6l2.6-4.1l0.5,0.8c-1,0.8-1.6,2.1-1.6,3.5c0,2.5,2,4.5,4.5,4.5s4.5-2,4.5-4.5C24.5,14.4,22.4,12.3,19.9,12.3z
		 M13,8.2l0.8,1.7c0.1,0.3,0.4,0.4,0.7,0.4h1.8v1.1h-4.4L10.5,11L13,8.2z M5.2,20.4c-2,0-3.5-1.6-3.5-3.5c0-2,1.6-3.5,3.5-3.5
		c0.6,0,1.1,0.1,1.6,0.4l-2,2.9c-0.1,0.1-0.1,0.3,0,0.5c0.1,0.2,0.2,0.3,0.4,0.3h0l3.5,0C8.5,19.1,7,20.4,5.2,20.4z M8.7,16.4
		l-2.6,0l1.5-2.1C8.2,14.8,8.6,15.5,8.7,16.4z M9.7,16.4c-0.1-1.2-0.7-2.2-1.5-2.9l0.7-1h0l3.2,1.2v2.7L9.7,16.4z M14,14.9v-1.9
		c0-0.2,0-0.3-0.1-0.5h1.7L14,14.9z M19.9,20.4c-2,0-3.5-1.6-3.5-3.5c0-1.1,0.5-2,1.2-2.7l1.9,2.9c0.1,0.1,0.2,0.2,0.4,0.2
		c0.1,0,0.2,0,0.3-0.1c0.2-0.1,0.3-0.4,0.1-0.7l-1.9-2.9c0.5-0.2,1-0.3,1.5-0.3c2,0,3.5,1.6,3.5,3.5C23.5,18.8,21.9,20.4,19.9,20.4z
		"/>
</g>
</svg>
