<?xml version="1.0" encoding="utf-8"?>
<!-- Generator: Adobe Illustrator 17.1.0, SVG Export Plug-In . SVG Version: 6.00 Build 0)  -->
<!DOCTYPE svg PUBLIC "-//W3C//DTD SVG 1.1//EN" "http://www.w3.org/Graphics/SVG/1.1/DTD/svg11.dtd">
<svg version="1.1" id="Calque_1" xmlns="http://www.w3.org/2000/svg" xmlns:xlink="http://www.w3.org/1999/xlink" x="0px" y="0px"
	 viewBox="0 0 25 25" enable-background="new 0 0 25 25" xml:space="preserve">
<g>
	<g>
		<path fill="#EFEFED" d="M19.1,11.1c-0.9,0-1.8,0.1-2.7,0.2c-0.4,0-0.8,0-1.2,0.1c0.1-0.1,0.1-0.2,0.2-0.2c0.6-0.7,1.3-1.5,1.9-2.2
			c0.6-0.7,0.4-1.7-0.4-2.2c-1.7-0.9-3.3-1.9-5-2.9c-0.5-0.3-1.1-0.3-1.5,0.1c-0.1,0.1-0.2,0.2-0.3,0.3c-0.7,0.7-1.5,1.3-2.2,2
			C7.4,6.7,7.4,7.4,7.7,7.9c0.4,0.5,1,0.6,1.5,0.2C9.4,8,9.5,7.9,9.7,7.7c0.5-0.4,1-0.9,1.5-1.4c0.1-0.1,0.2-0.1,0.2-0.1
			c0.5,0.3,1,0.5,1.5,0.8c0,0.1-0.1,0.1-0.1,0.1c-0.9,1-1.7,2-2.6,3c0,0-0.1,0.1-0.2,0.1c-1.2,0.2-2.2,0.7-3,1.5l1.5,1.5
			c0.7-0.6,1.6-1,2.5-1c2.1,0,3.7,1.7,3.7,3.7c0,1-0.4,1.9-1,2.6l1.5,1.5c1-1.1,1.6-2.5,1.6-4.1c0-0.9-0.2-1.8-0.6-2.5l0,0
			c0.5,0,1-0.1,1.5-0.1c-0.1,0.8-0.1,1.5-0.2,2.2c-0.1,0.8-0.1,1.6-0.2,2.4c0,0.5,0.4,1,0.9,1.1c0.4,0.1,1-0.1,1.2-0.6
			c0.1-0.3,0.2-0.7,0.2-1c0.1-1,0.1-2,0.2-3c0.1-0.8,0.2-1.6,0.2-2.4C20.3,11.6,19.8,11,19.1,11.1z"/>
		<path fill="#EFEFED" d="M17.8,6.6c1.1,0,2-0.8,2-1.9c0-1.1-0.8-2-1.9-2c-1,0-2,0.9-2,1.9C15.9,5.7,16.7,6.5,17.8,6.6z"/>
		<path fill="#EFEFED" d="M11.1,19.9c-2.1,0-3.7-1.7-3.7-3.7c0-0.8,0.3-1.6,0.7-2.2l-1.5-1.5c-0.8,1-1.3,2.3-1.3,3.7
			c0,3.2,2.6,5.9,5.9,5.9c1.4,0,2.7-0.5,3.7-1.3l-1.5-1.5C12.6,19.6,11.9,19.9,11.1,19.9z"/>
	</g>
</g>
</svg>
