<?xml version="1.0" encoding="utf-8"?>
<!-- Generator: Adobe Illustrator 16.0.0, SVG Export Plug-In . SVG Version: 6.00 Build 0)  -->
<!DOCTYPE svg PUBLIC "-//W3C//DTD SVG 1.1//EN" "http://www.w3.org/Graphics/SVG/1.1/DTD/svg11.dtd">
<svg version="1.1" id="Calque_1" xmlns="http://www.w3.org/2000/svg" xmlns:xlink="http://www.w3.org/1999/xlink" x="0px" y="0px"
	 width="1279.141px" height="799.756px" viewBox="0 0 1279.141 799.756" enable-background="new 0 0 1279.141 799.756"
	 xml:space="preserve">
<polygon display="none" fill="#CA4A3F" points="866.178,4047.915 865.46,4047.021 354.947,3962.938 49.805,3772.411 
	182.261,3221.753 1135.441,3185.839 1138.117,3185.737 1196.816,2412.104 1197.041,2409.15 220.024,2322.105 118.758,1576.011 
	1210.703,1436.899 1215.243,1436.321 901.594,909.448 1028.944,655.89 1029.262,655.89 1028.947,655.884 1029.626,654.532 
	953.75,654.532 409.417,644.747 -1.598,501.913 -1.598,525.542 -1.598,531.829 408.465,660.396 408.904,660.532 1019.898,660.532 
	895.495,908.224 894.757,909.692 1205.405,1431.526 115,1570.442 112,1570.823 214.401,2325.284 214.723,2327.657 1190.61,2414.604 
	1132.539,3179.944 179.763,3215.843 177.491,3215.929 42.96,3775.212 352.278,3968.347 352.788,3968.665 862.224,4052.571 
	1276.066,4566.271 1280.738,4562.509 "/>
<polygon fill="#B8DEDB" points="1031.262,-138.241 1031.047,-138.241 1030.947,-138.068 "/>
<g>
	<g>
		
			<line fill="none" stroke="#575756" stroke-linecap="round" stroke-miterlimit="10" x1="815.291" y1="496.423" x2="815.291" y2="495.923"/>
		
			<line fill="none" stroke="#575756" stroke-linecap="round" stroke-miterlimit="10" stroke-dasharray="1.0044,5.0221" x1="815.291" y1="490.9" x2="815.291" y2="192.086"/>
		
			<line fill="none" stroke="#575756" stroke-linecap="round" stroke-miterlimit="10" x1="815.291" y1="189.575" x2="815.291" y2="189.075"/>
	</g>
</g>
<g>
	<polygon fill="none" points="811.414,224.075 734.424,224.075 734.424,176.006 811.414,176.006 811.414,207.614 	"/>
	<path fill="#575756" d="M758.816,195.427v-5.577h-1.289v-1.429h3.067v7.006H758.816z"/>
	<path fill="#575756" d="M762.017,194.917l0.681-1.239c0.399,0.29,0.93,0.45,1.47,0.45c1.119,0,1.659-0.71,1.639-1.859
		c-0.33,0.47-0.89,0.75-1.669,0.75c-1.379,0-2.259-0.9-2.259-2.259c0-1.479,1.039-2.419,2.618-2.419c1.88,0,3.019,1.329,3.019,3.478
		c0,2.229-1.27,3.679-3.237,3.679C763.496,195.497,762.606,195.276,762.017,194.917z M765.615,190.739
		c0-0.521-0.33-0.979-1.05-0.979c-0.641,0-1.039,0.36-1.039,1.01c0,0.6,0.368,0.949,1.009,0.949
		C765.226,191.719,765.615,191.309,765.615,190.739z"/>
	<path fill="#575756" d="M767.538,196.536l3.228-9.215h1.449l-3.228,9.215H767.538z"/>
	<path fill="#575756" d="M778.034,191.919c0,2.288-1.109,3.558-3.089,3.558c-1.998,0-3.107-1.27-3.107-3.558
		c0-2.279,1.109-3.548,3.107-3.548C776.925,188.371,778.034,189.64,778.034,191.919z M773.666,191.919
		c0,1.599,0.38,2.259,1.279,2.259c0.88,0,1.27-0.66,1.27-2.259c0-1.6-0.39-2.249-1.27-2.249
		C774.046,189.67,773.666,190.319,773.666,191.919z"/>
	<path fill="#575756" d="M782.046,192.538v-1.499h1.649v1.499h0.948v1.35h-0.948v1.539h-1.649v-1.539h-3.317v-1.189l2.209-4.268
		h1.709l-2.079,4.107H782.046z"/>
	<path fill="#575756" d="M784.429,196.536l3.229-9.215h1.449l-3.229,9.215H784.429z"/>
	<path fill="#575756" d="M793.766,190.18c0,0.76-0.56,1.549-1.318,2.329l-1.419,1.509h2.947v1.409h-5.236v-1.149l2.498-2.648
		c0.391-0.41,0.67-0.88,0.67-1.199c0-0.4-0.29-0.64-0.789-0.64c-0.57,0-1.271,0.34-1.909,0.89l-0.67-1.279
		c0.88-0.66,1.839-1.05,2.839-1.05C792.766,188.351,793.766,189.07,793.766,190.18z"/>
	<path fill="#575756" d="M800.925,191.919c0,2.288-1.108,3.558-3.089,3.558c-1.998,0-3.107-1.27-3.107-3.558
		c0-2.279,1.109-3.548,3.107-3.548C799.815,188.371,800.925,189.64,800.925,191.919z M796.557,191.919
		c0,1.599,0.381,2.259,1.279,2.259c0.88,0,1.271-0.66,1.271-2.259c0-1.6-0.391-2.249-1.271-2.249
		C796.938,189.67,796.557,190.319,796.557,191.919z"/>
	<path fill="#575756" d="M802.708,195.427v-5.577h-1.289v-1.429h3.068v7.006H802.708z"/>
	<path fill="#575756" d="M807.817,189.84v1.129h0.63c1.599,0,2.647,0.86,2.647,2.109c0,1.469-1.1,2.419-2.788,2.419
		c-0.92,0-1.97-0.351-2.698-0.87l0.71-1.349c0.52,0.56,1.148,0.859,1.778,0.859c0.689,0,1.089-0.34,1.089-0.939
		c0-0.55-0.398-0.87-1.089-0.87c-0.359,0-1.47,0.021-1.898,0.051v-3.948h4.588v1.409H807.817z"/>
	<path fill="#575756" d="M765.294,204.708v1.68h-1.089v-1.68h-1.669v-1.089h1.669v-1.68h1.089v1.68h1.68v1.089H765.294z"/>
	<path fill="#575756" d="M770.504,207.427h-1.879l2.499-5.587h-1.93v0.979h-1.56v-2.389h5.446v1.209L770.504,207.427z"/>
	<path fill="#575756" d="M778.953,202.229c0,0.609-0.33,1.149-0.88,1.449c0.77,0.32,1.249,0.989,1.249,1.77
		c0,1.259-1.119,2.059-2.868,2.059s-2.868-0.79-2.868-2.029c0-0.799,0.521-1.479,1.329-1.799c-0.59-0.33-0.97-0.89-0.97-1.499
		c0-1.119,0.979-1.829,2.499-1.829C777.983,200.351,778.953,201.08,778.953,202.229z M775.265,205.298c0,0.59,0.42,0.92,1.189,0.92
		c0.769,0,1.199-0.32,1.199-0.92c0-0.58-0.431-0.909-1.199-0.909S775.265,204.718,775.265,205.298z M775.445,202.329
		c0,0.5,0.358,0.78,1.009,0.78c0.649,0,1.01-0.28,1.01-0.78c0-0.52-0.36-0.81-1.01-0.81
		C775.804,201.519,775.445,201.81,775.445,202.329z"/>
	<path fill="#575756" d="M787.434,205.938v1.489h-4.748v-6.996h1.779v5.507H787.434z"/>
	<path fill="#575756" d="M788.285,207.427v-6.996h1.779v6.996H788.285z"/>
	<path fill="#575756" d="M794.174,204.679l-0.93,1.029v1.719h-1.779v-6.996h1.779v3.028l2.679-3.028h2.06l-2.6,2.898l2.77,4.098
		h-2.129L794.174,204.679z"/>
	<path fill="#575756" d="M800.714,201.83v1.389h3.338v1.399h-3.338v1.409h3.808v1.399h-5.587v-6.996h5.479v1.399L800.714,201.83
		L800.714,201.83z"/>
	<path fill="#575756" d="M811.122,201.13l-0.67,1.39c-0.739-0.43-1.669-0.729-2.238-0.729c-0.46,0-0.77,0.17-0.77,0.51
		c0,1.209,3.697,0.52,3.697,3.048c0,1.399-1.238,2.139-2.799,2.139c-1.169,0-2.369-0.439-3.198-1.119l0.689-1.369
		c0.72,0.63,1.799,1.05,2.528,1.05c0.561,0,0.91-0.21,0.91-0.61c0-1.239-3.698-0.499-3.698-2.978c0-1.29,1.108-2.109,2.788-2.109
		C809.373,200.351,810.402,200.66,811.122,201.13z"/>
	<path fill="#575756" d="M737.026,219.427v-5.577h-1.289v-1.429h3.067v7.006H737.026z"/>
	<path fill="#575756" d="M745.855,212.431c1.788,0,2.817,0.88,2.817,2.438c0,1.64-1.029,2.589-2.817,2.589h-1.271v1.969h-1.779
		v-6.996H745.855z M744.586,216.059h1.18c0.779,0,1.229-0.39,1.229-1.129c0-0.73-0.45-1.1-1.229-1.1h-1.18V216.059z"/>
	<path fill="#575756" d="M755.903,216.488c0,1.849-1.229,3.019-3.188,3.019c-1.969,0-3.228-1.17-3.228-3.019v-4.058h1.777v4.058
		c0,0.949,0.61,1.529,1.46,1.529c0.84,0,1.409-0.58,1.409-1.529v-4.058h1.77V216.488z"/>
	<path fill="#575756" d="M760.495,212.431c1.569,0,2.567,0.68,2.567,1.749c0,0.739-0.46,1.329-1.198,1.539
		c0.88,0.17,1.438,0.859,1.438,1.771c0,1.188-1.04,1.938-2.688,1.938h-3.43v-6.996H760.495z M758.956,215.229h1.438
		c0.521,0,0.851-0.28,0.851-0.73c0-0.449-0.33-0.709-0.851-0.709h-1.438V215.229z M758.956,218.058h1.438
		c0.659,0,1.069-0.29,1.069-0.79c0-0.47-0.41-0.759-1.069-0.759h-1.438V218.058z"/>
	<path fill="#575756" d="M769.085,217.938v1.489h-4.748v-6.996h1.779v5.507H769.085z"/>
	<path fill="#575756" d="M769.938,219.427v-6.996h1.778v6.996H769.938z"/>
	<path fill="#575756" d="M779.213,213.55l-1.029,1.22c-0.46-0.56-1.139-0.91-1.759-0.91c-1.108,0-1.948,0.88-1.948,2.029
		c0,1.169,0.84,2.059,1.948,2.059c0.59,0,1.271-0.319,1.759-0.819l1.04,1.1c-0.75,0.77-1.858,1.279-2.889,1.279
		c-2.109,0-3.678-1.549-3.678-3.598c0-2.02,1.607-3.538,3.737-3.538C777.435,212.371,778.514,212.83,779.213,213.55z"/>
	<path fill="#575756" d="M781.556,218.138l-0.51,1.289h-1.829l3.02-6.996h1.829l2.947,6.996h-1.898l-0.5-1.289H781.556z
		 M783.095,214.199l-1.02,2.589h2.019L783.095,214.199z"/>
	<path fill="#575756" d="M790.154,213.859v5.567h-1.778v-5.567h-2.089v-1.438h5.977v1.438H790.154z"/>
	<path fill="#575756" d="M793.026,219.427v-6.996h1.778v6.996H793.026z"/>
	<path fill="#575756" d="M803.312,215.919c0,2.039-1.619,3.588-3.788,3.588c-2.158,0-3.777-1.539-3.777-3.588
		c0-2.039,1.619-3.548,3.777-3.548C801.693,212.371,803.312,213.89,803.312,215.919z M797.565,215.929
		c0,1.18,0.909,2.089,1.979,2.089c1.079,0,1.938-0.909,1.938-2.089c0-1.18-0.859-2.069-1.938-2.069
		C798.465,213.859,797.565,214.749,797.565,215.929z"/>
	<path fill="#575756" d="M809.144,219.427l-3.218-4.308v4.308h-1.67v-6.996h1.569l3.229,4.317v-4.317h1.659v6.996H809.144z"/>
</g>
</svg>
