<?xml version="1.0" encoding="utf-8"?>
<!-- Generator: Adobe Illustrator 16.0.0, SVG Export Plug-In . SVG Version: 6.00 Build 0)  -->
<!DOCTYPE svg PUBLIC "-//W3C//DTD SVG 1.1//EN" "http://www.w3.org/Graphics/SVG/1.1/DTD/svg11.dtd">
<svg version="1.1" id="Calque_1" xmlns="http://www.w3.org/2000/svg" xmlns:xlink="http://www.w3.org/1999/xlink" x="0px" y="0px"
	 width="1279.141px" height="799.756px" viewBox="0 0 1279.141 799.756" enable-background="new 0 0 1279.141 799.756"
	 xml:space="preserve">
<path fill="#575756" d="M421.072,293.297v3.303c-0.897,0.715-2.158,1.195-3.38,1.195c-2.639,0-4.745-2.041-4.745-4.602
	c0-2.562,2.119-4.576,4.797-4.576c1.261,0,2.483,0.48,3.354,1.248l-0.598,0.779c-0.741-0.663-1.742-1.053-2.756-1.053
	c-2.08,0-3.744,1.6-3.744,3.602c0,2.015,1.677,3.613,3.757,3.613c0.819,0,1.69-0.285,2.392-0.767v-2.743L421.072,293.297
	L421.072,293.297z"/>
<path fill="#575756" d="M423.516,297.743v-9.646h1.015v9.646H423.516z"/>
<path fill="#575756" d="M433.317,294.311c0,2.055-1.443,3.472-3.472,3.472c-2.027,0-3.471-1.417-3.471-3.472
	c0-2.041,1.443-3.444,3.471-3.444C431.875,290.866,433.317,292.27,433.317,294.311z M427.389,294.324
	c0,1.508,1.027,2.548,2.457,2.548c1.431,0,2.457-1.04,2.457-2.548c0-1.495-1.026-2.535-2.457-2.535
	C428.416,291.789,427.389,292.829,427.389,294.324z"/>
<path fill="#575756" d="M442.105,294.337c0,2.028-1.326,3.445-3.264,3.445c-1.222,0-2.158-0.56-2.665-1.508v1.469h-1.014v-9.646
	h1.014v4.277c0.507-0.962,1.443-1.521,2.64-1.521C440.753,290.853,442.105,292.283,442.105,294.337z M441.079,294.311
	c0-1.469-1.014-2.548-2.444-2.548c-1.442,0-2.457,1.066-2.457,2.548c0,1.495,1.015,2.549,2.457,2.549
	C440.064,296.859,441.079,295.793,441.079,294.311z"/>
<path fill="#575756" d="M448.138,296.69c-0.546,0.741-1.417,1.104-2.509,1.104c-1.417,0-2.327-0.91-2.327-2.093
	c0-1.196,0.949-1.95,2.562-1.963h2.249v-0.403c0-1.001-0.624-1.599-1.833-1.599c-0.754,0-1.456,0.286-2.171,0.779l-0.43-0.74
	c0.884-0.585,1.625-0.924,2.795-0.924c1.69,0,2.626,0.897,2.64,2.366l0.013,4.524h-0.988V296.69L448.138,296.69z M448.125,295.377
	v-0.819h-2.132c-1.145,0-1.742,0.352-1.742,1.105s0.611,1.248,1.573,1.248C446.98,296.911,447.865,296.326,448.125,295.377z"/>
<path fill="#575756" d="M451.452,297.743v-9.646h1.014v9.646H451.452z"/>
<path fill="#575756" d="M460.903,294.714h-5.591c0.183,1.339,1.157,2.185,2.483,2.185c0.845,0,1.586-0.299,2.119-0.858l0.559,0.598
	c-0.649,0.729-1.611,1.145-2.756,1.145c-2.015,0-3.405-1.417-3.405-3.458s1.403-3.458,3.393-3.458
	C459.916,290.853,461.007,292.387,460.903,294.714z M459.993,293.882c-0.065-1.312-0.949-2.145-2.288-2.145
	c-1.3,0-2.236,0.845-2.393,2.145H459.993z"/>
<path fill="#575756" d="M473.969,293.518v4.226h-1.014v-3.952c0-1.222-0.715-1.938-1.898-1.938
	c-1.417,0.039-2.235,1.054-2.235,2.522v3.367h-1.027v-3.952c0-1.222-0.702-1.938-1.897-1.938c-1.404,0.039-2.25,1.054-2.25,2.522
	v3.367h-1v-6.852h1v1.548c0.455-1.066,1.379-1.573,2.613-1.587c1.287,0,2.171,0.663,2.457,1.794c0.43-1.209,1.392-1.78,2.704-1.794
	C473.02,290.853,473.969,291.867,473.969,293.518z"/>
<path fill="#575756" d="M482.119,294.714h-5.59c0.182,1.339,1.156,2.185,2.482,2.185c0.846,0,1.586-0.299,2.119-0.858l0.559,0.598
	c-0.649,0.729-1.611,1.145-2.756,1.145c-2.015,0-3.405-1.417-3.405-3.458s1.403-3.458,3.393-3.458
	C481.131,290.853,482.223,292.387,482.119,294.714z M481.209,293.882c-0.064-1.312-0.949-2.145-2.288-2.145
	c-1.3,0-2.235,0.845-2.392,2.145H481.209z"/>
<path fill="#575756" d="M490.127,293.518v4.226h-1.014v-3.952c0-1.209-0.729-1.924-1.938-1.924
	c-1.352,0.013-2.184,0.896-2.301,2.197v3.679h-1.014v-6.852h1.014v1.509c0.48-1.04,1.404-1.534,2.652-1.548
	C489.165,290.853,490.127,291.867,490.127,293.518z"/>
<path fill="#575756" d="M495.925,297.275c-0.48,0.325-1.001,0.507-1.547,0.52c-1.001,0-1.742-0.598-1.742-1.95v-3.913h-0.987v-0.818
	h0.987v-1.808h1.001v1.808l2.171-0.014v0.832h-2.171v3.731c0,0.832,0.325,1.144,0.91,1.144c0.352,0,0.715-0.116,1.092-0.351
	L495.925,297.275z"/>
<path fill="#575756" d="M501.086,297.743v-9.646h1.014v9.646H501.086z"/>
<path fill="#575756" d="M508.886,296.69c-0.546,0.741-1.417,1.104-2.509,1.104c-1.417,0-2.327-0.91-2.327-2.093
	c0-1.196,0.949-1.95,2.562-1.963h2.249v-0.403c0-1.001-0.624-1.599-1.833-1.599c-0.754,0-1.456,0.286-2.172,0.779l-0.429-0.74
	c0.884-0.585,1.625-0.924,2.795-0.924c1.69,0,2.626,0.897,2.64,2.366l0.013,4.524h-0.988V296.69z M508.873,295.377v-0.819h-2.132
	c-1.145,0-1.742,0.352-1.742,1.105s0.611,1.248,1.573,1.248C507.729,296.911,508.613,296.326,508.873,295.377z"/>
<path fill="#575756" d="M519.233,297.275c-0.481,0.325-1.001,0.507-1.548,0.52c-1.001,0-1.741-0.598-1.741-1.95v-3.913h-0.988
	v-0.818h0.988v-1.808h1.001v1.808l2.171-0.014v0.832h-2.171v3.731c0,0.832,0.324,1.144,0.909,1.144c0.352,0,0.716-0.116,1.093-0.351
	L519.233,297.275z"/>
<path fill="#575756" d="M521.781,292.413c0.455-1.001,1.3-1.547,2.457-1.561v1.027c-1.443-0.026-2.34,0.871-2.457,2.224v3.64h-1.015
	v-6.852h1.015V292.413z"/>
<path fill="#575756" d="M529.53,296.69c-0.546,0.741-1.417,1.104-2.509,1.104c-1.417,0-2.327-0.91-2.327-2.093
	c0-1.196,0.948-1.95,2.561-1.963h2.25v-0.403c0-1.001-0.624-1.599-1.833-1.599c-0.754,0-1.456,0.286-2.171,0.779l-0.429-0.74
	c0.884-0.585,1.625-0.924,2.795-0.924c1.689,0,2.626,0.897,2.639,2.366l0.013,4.524h-0.987L529.53,296.69L529.53,296.69z
	 M529.517,295.377v-0.819h-2.132c-1.144,0-1.742,0.352-1.742,1.105s0.611,1.248,1.573,1.248
	C528.373,296.911,529.257,296.326,529.517,295.377z"/>
<path fill="#575756" d="M539.046,293.518v4.226h-1.014v-3.952c0-1.209-0.729-1.924-1.938-1.924
	c-1.352,0.013-2.184,0.896-2.301,2.197v3.679h-1.014v-6.852h1.014v1.509c0.481-1.04,1.404-1.534,2.652-1.548
	C538.083,290.853,539.046,291.867,539.046,293.518z"/>
<path fill="#575756" d="M546.65,291.88l-0.56,0.715c-0.52-0.494-1.209-0.793-2.041-0.793c-1.417,0-2.431,1.027-2.431,2.522
	c0,1.495,1.014,2.535,2.431,2.535c0.897,0,1.638-0.312,2.119-0.885l0.585,0.625c-0.611,0.74-1.56,1.183-2.743,1.183
	c-1.988,0-3.393-1.417-3.393-3.458s1.417-3.458,3.393-3.458C545.116,290.853,546.026,291.229,546.65,291.88z"/>
<path fill="#575756" d="M554.944,293.518v4.226h-1.015v-3.952c0-1.209-0.728-1.924-1.938-1.924c-1.456,0.013-2.314,1.04-2.314,2.509
	v3.367h-1.014v-9.646h1.014v4.329c0.469-1.065,1.404-1.56,2.665-1.573C553.982,290.853,554.944,291.867,554.944,293.518z"/>
<path fill="#575756" d="M563.108,294.714h-5.591c0.183,1.339,1.157,2.185,2.483,2.185c0.845,0,1.586-0.299,2.119-0.858l0.559,0.598
	c-0.649,0.729-1.611,1.145-2.756,1.145c-2.015,0-3.406-1.417-3.406-3.458s1.404-3.458,3.394-3.458
	C562.121,290.853,563.212,292.387,563.108,294.714z M562.198,293.882c-0.065-1.312-0.949-2.145-2.288-2.145
	c-1.3,0-2.236,0.845-2.393,2.145H562.198z"/>
<path fill="#575756" d="M574.705,297.743h-1.014v-1.469c-0.508,0.962-1.443,1.521-2.665,1.521c-1.95,0-3.303-1.442-3.303-3.484
	c0-2.054,1.353-3.471,3.289-3.471c1.223,0,2.171,0.559,2.679,1.534v-4.277h1.014V297.743z M573.69,294.337
	c0-1.495-1.027-2.574-2.471-2.574c-1.456,0-2.482,1.079-2.482,2.574c0,1.482,1.026,2.548,2.482,2.548
	C572.664,296.885,573.69,295.819,573.69,294.337z"/>
<path fill="#575756" d="M577.928,289.306c0,0.208-0.078,0.377-0.194,0.56l-0.611,0.936h-0.572l0.429-0.949
	c-0.194-0.117-0.285-0.324-0.285-0.546c0-0.39,0.26-0.663,0.61-0.663C577.642,288.643,577.928,288.902,577.928,289.306z"/>
<path fill="#575756" d="M584.051,296.69c-0.546,0.741-1.417,1.104-2.509,1.104c-1.417,0-2.327-0.91-2.327-2.093
	c0-1.196,0.949-1.95,2.562-1.963h2.25v-0.403c0-1.001-0.624-1.599-1.833-1.599c-0.754,0-1.456,0.286-2.172,0.779l-0.429-0.74
	c0.884-0.585,1.625-0.924,2.795-0.924c1.69,0,2.626,0.897,2.64,2.366l0.013,4.524h-0.988L584.051,296.69L584.051,296.69z
	 M584.038,295.377v-0.819h-2.132c-1.145,0-1.742,0.352-1.742,1.105s0.611,1.248,1.573,1.248
	C582.894,296.911,583.778,296.326,584.038,295.377z M580.438,289.734l1.325-1.689h0.988l1.326,1.689h-0.884l-0.938-1.17l-0.936,1.17
	H580.438z"/>
<path fill="#575756" d="M593.268,297.028c0,2.002-1.364,3.263-3.444,3.263c-1.079-0.013-1.977-0.363-2.809-0.988l0.469-0.778
	c0.676,0.559,1.391,0.856,2.301,0.87c1.495,0,2.47-0.909,2.47-2.34v-1.04c-0.48,0.91-1.365,1.431-2.521,1.431
	c-1.847,0-3.12-1.365-3.12-3.315c0-1.911,1.261-3.263,3.094-3.276c1.17,0,2.054,0.521,2.548,1.431v-1.392h1.014V297.028z
	 M592.254,294.168c0-1.43-0.975-2.431-2.34-2.431c-1.378,0-2.34,1.014-2.354,2.431c0.014,1.404,0.976,2.418,2.354,2.418
	C591.279,296.586,592.254,295.572,592.254,294.168z"/>
<path fill="#575756" d="M601.471,294.714h-5.59c0.182,1.339,1.157,2.185,2.483,2.185c0.845,0,1.586-0.299,2.119-0.858l0.559,0.598
	c-0.65,0.729-1.612,1.145-2.756,1.145c-2.015,0-3.406-1.417-3.406-3.458s1.404-3.458,3.394-3.458
	C600.483,290.853,601.575,292.387,601.471,294.714z M600.561,293.882c-0.064-1.312-0.948-2.145-2.287-2.145
	c-1.301,0-2.236,0.845-2.393,2.145H600.561z"/>
<path fill="#575756" d="M606.84,297.743v-9.646h1.014v9.646H606.84z"/>
<path fill="#575756" d="M614.64,296.69c-0.546,0.741-1.417,1.104-2.509,1.104c-1.417,0-2.327-0.91-2.327-2.093
	c0-1.196,0.949-1.95,2.562-1.963h2.249v-0.403c0-1.001-0.624-1.599-1.833-1.599c-0.754,0-1.456,0.286-2.171,0.779l-0.43-0.74
	c0.884-0.585,1.625-0.924,2.795-0.924c1.69,0,2.626,0.897,2.64,2.366l0.013,4.524h-0.988V296.69L614.64,296.69z M614.626,295.377
	v-0.819h-2.132c-1.145,0-1.742,0.352-1.742,1.105s0.611,1.248,1.573,1.248C613.482,296.911,614.367,296.326,614.626,295.377z"/>
<path fill="#575756" d="M628.458,294.337c0,2.028-1.326,3.445-3.263,3.445c-1.223,0-2.158-0.56-2.665-1.508v3.991h-1.015v-9.374
	h1.015v1.482c0.507-0.962,1.442-1.521,2.639-1.521C627.106,290.853,628.458,292.283,628.458,294.337z M627.432,294.311
	c0-1.469-1.014-2.548-2.443-2.548c-1.443,0-2.457,1.066-2.457,2.548c0,1.495,1.014,2.549,2.457,2.549
	C626.417,296.859,627.432,295.793,627.432,294.311z"/>
<path fill="#575756" d="M630.305,297.743v-9.646h1.015v9.646H630.305z"/>
<path fill="#575756" d="M639.794,297.743h-1.014v-1.547c-0.455,1.065-1.365,1.573-2.601,1.586c-1.599,0-2.561-1.014-2.561-2.665
	v-4.226h1.014v3.952c0,1.209,0.715,1.925,1.898,1.925c1.417-0.026,2.249-1.054,2.249-2.51v-3.367h1.014V297.743L639.794,297.743z"/>
<path fill="#575756" d="M646.268,291.477l-0.39,0.807c-0.533-0.338-1.222-0.56-1.858-0.56c-0.768,0-1.353,0.273-1.353,0.91
	c0,1.521,3.822,0.741,3.822,3.198c0,1.353-1.196,1.95-2.509,1.95c-0.977,0-1.978-0.338-2.627-0.962l0.391-0.768
	c0.585,0.547,1.469,0.871,2.275,0.871c0.806,0,1.454-0.299,1.469-0.975c0.039-1.651-3.797-0.807-3.783-3.237
	c0-1.313,1.131-1.859,2.379-1.859C644.902,290.853,645.695,291.087,646.268,291.477z"/>
<path fill="#575756" d="M652.729,292.413c0.455-1.001,1.302-1.547,2.457-1.561v1.027c-1.442-0.026-2.34,0.871-2.457,2.224v3.64
	h-1.014v-6.852h1.014V292.413z"/>
<path fill="#575756" d="M662.453,294.714h-5.591c0.183,1.339,1.156,2.185,2.482,2.185c0.845,0,1.586-0.299,2.119-0.858l0.56,0.598
	c-0.65,0.729-1.611,1.145-2.757,1.145c-2.016,0-3.405-1.417-3.405-3.458s1.403-3.458,3.393-3.458
	C661.465,290.853,662.557,292.387,662.453,294.714z M661.543,293.882c-0.064-1.312-0.949-2.145-2.289-2.145
	c-1.299,0-2.234,0.845-2.392,2.145H661.543z"/>
<path fill="#575756" d="M671.201,294.337c0,2.028-1.325,3.445-3.264,3.445c-1.222,0-2.156-0.56-2.664-1.508v3.991h-1.015v-9.374
	h1.015v1.482c0.508-0.962,1.442-1.521,2.639-1.521C669.85,290.853,671.201,292.283,671.201,294.337z M670.175,294.311
	c0-1.469-1.015-2.548-2.443-2.548c-1.443,0-2.457,1.066-2.457,2.548c0,1.495,1.014,2.549,2.457,2.549
	C669.16,296.859,670.175,295.793,670.175,294.311z"/>
<path fill="#575756" d="M673.996,292.413c0.455-1.001,1.301-1.547,2.457-1.561v1.027c-1.442-0.026-2.34,0.871-2.457,2.224v3.64
	h-1.014v-6.852h1.014V292.413z"/>
<path fill="#575756" d="M683.721,294.714h-5.59c0.182,1.339,1.156,2.185,2.482,2.185c0.846,0,1.586-0.299,2.119-0.858l0.56,0.598
	c-0.65,0.729-1.612,1.145-2.757,1.145c-2.016,0-3.406-1.417-3.406-3.458s1.404-3.458,3.395-3.458
	C682.732,290.853,683.824,292.387,683.721,294.714z M682.811,293.882c-0.063-1.312-0.948-2.145-2.287-2.145
	c-1.301,0-2.235,0.845-2.393,2.145H682.811z M679.756,289.761l1.561-1.768l1.026,0.493l-1.612,1.274L679.756,289.761
	L679.756,289.761z"/>
<path fill="#575756" d="M689.467,291.477l-0.391,0.807c-0.532-0.338-1.223-0.56-1.858-0.56c-0.767,0-1.353,0.273-1.353,0.91
	c0,1.521,3.822,0.741,3.822,3.198c0,1.353-1.195,1.95-2.51,1.95c-0.976,0-1.976-0.338-2.626-0.962l0.391-0.768
	c0.585,0.547,1.47,0.871,2.274,0.871c0.806,0,1.456-0.299,1.47-0.975c0.038-1.651-3.797-0.807-3.783-3.237
	c0-1.313,1.132-1.859,2.38-1.859C688.102,290.853,688.895,291.087,689.467,291.477z"/>
<path fill="#575756" d="M697.254,294.714h-5.591c0.183,1.339,1.157,2.185,2.483,2.185c0.845,0,1.586-0.299,2.118-0.858l0.56,0.598
	c-0.65,0.729-1.611,1.145-2.756,1.145c-2.017,0-3.406-1.417-3.406-3.458s1.404-3.458,3.393-3.458
	C696.266,290.853,697.357,292.387,697.254,294.714z M696.344,293.882c-0.064-1.312-0.949-2.145-2.289-2.145
	c-1.299,0-2.234,0.845-2.392,2.145H696.344z"/>
<path fill="#575756" d="M705.262,293.518v4.226h-1.014v-3.952c0-1.209-0.729-1.924-1.938-1.924
	c-1.353,0.013-2.185,0.896-2.302,2.197v3.679h-1.015v-6.852h1.015v1.509c0.48-1.04,1.404-1.534,2.652-1.548
	C704.299,290.853,705.262,291.867,705.262,293.518z"/>
<path fill="#575756" d="M711.059,297.275c-0.479,0.325-1,0.507-1.547,0.52c-1,0-1.742-0.598-1.742-1.95v-3.913h-0.986v-0.818h0.986
	v-1.808h1.003v1.808l2.171-0.014v0.832h-2.171v3.731c0,0.832,0.323,1.144,0.909,1.144c0.352,0,0.716-0.116,1.093-0.351
	L711.059,297.275z"/>
<path fill="#575756" d="M718.391,294.714h-5.59c0.183,1.339,1.157,2.185,2.483,2.185c0.845,0,1.586-0.299,2.119-0.858l0.559,0.598
	c-0.649,0.729-1.612,1.145-2.756,1.145c-2.015,0-3.406-1.417-3.406-3.458s1.404-3.458,3.395-3.458
	C717.403,290.853,718.495,292.387,718.391,294.714z M717.48,293.882c-0.064-1.312-0.948-2.145-2.287-2.145
	c-1.302,0-2.236,0.845-2.394,2.145H717.48z M714.426,289.761l1.562-1.768l1.026,0.493l-1.612,1.274L714.426,289.761L714.426,289.761
	z"/>
<path fill="#575756" d="M729.598,294.714h-5.591c0.184,1.339,1.157,2.185,2.483,2.185c0.845,0,1.586-0.299,2.119-0.858l0.559,0.598
	c-0.65,0.729-1.611,1.145-2.756,1.145c-2.016,0-3.406-1.417-3.406-3.458s1.404-3.458,3.394-3.458
	C728.609,290.853,729.701,292.387,729.598,294.714z M728.688,293.882c-0.064-1.312-0.948-2.145-2.288-2.145
	c-1.3,0-2.235,0.845-2.393,2.145H728.688z"/>
<path fill="#575756" d="M735.344,291.477l-0.391,0.807c-0.533-0.338-1.223-0.56-1.859-0.56c-0.767,0-1.352,0.273-1.352,0.91
	c0,1.521,3.822,0.741,3.822,3.198c0,1.353-1.196,1.95-2.511,1.95c-0.975,0-1.976-0.338-2.625-0.962l0.39-0.768
	c0.586,0.547,1.47,0.871,2.274,0.871c0.808,0,1.457-0.299,1.47-0.975c0.038-1.651-3.796-0.807-3.782-3.237
	c0-1.313,1.131-1.859,2.379-1.859C733.979,290.853,734.771,291.087,735.344,291.477z"/>
<path fill="#575756" d="M740.764,297.275c-0.479,0.325-1.001,0.507-1.547,0.52c-1.001,0-1.742-0.598-1.742-1.95v-3.913h-0.987
	v-0.818h0.987v-1.808h1.001v1.808l2.171-0.014v0.832h-2.171v3.731c0,0.832,0.325,1.144,0.91,1.144c0.352,0,0.715-0.116,1.093-0.351
	L740.764,297.275z"/>
<path fill="#575756" d="M751.203,291.88l-0.561,0.715c-0.521-0.494-1.209-0.793-2.041-0.793c-1.417,0-2.431,1.027-2.431,2.522
	c0,1.495,1.014,2.535,2.431,2.535c0.897,0,1.639-0.312,2.119-0.885l0.585,0.625c-0.61,0.74-1.561,1.183-2.742,1.183
	c-1.989,0-3.395-1.417-3.395-3.458s1.418-3.458,3.395-3.458C749.669,290.853,750.578,291.229,751.203,291.88z"/>
<path fill="#575756" d="M758.729,294.714h-5.591c0.184,1.339,1.158,2.185,2.484,2.185c0.844,0,1.586-0.299,2.119-0.858l0.559,0.598
	c-0.649,0.729-1.611,1.145-2.756,1.145c-2.016,0-3.406-1.417-3.406-3.458s1.404-3.458,3.394-3.458
	C757.742,290.853,758.834,292.387,758.729,294.714z M757.819,293.882c-0.065-1.312-0.948-2.145-2.288-2.145
	c-1.301,0-2.236,0.845-2.394,2.145H757.819z"/>
<path fill="#575756" d="M760.536,297.743v-9.646h1.015v9.646H760.536z"/>
<path fill="#575756" d="M764.15,297.743v-9.646h1.014v9.646H764.15z"/>
<path fill="#575756" d="M773.602,294.714h-5.591c0.184,1.339,1.157,2.185,2.483,2.185c0.845,0,1.586-0.299,2.119-0.858l0.559,0.598
	c-0.65,0.729-1.611,1.145-2.756,1.145c-2.016,0-3.406-1.417-3.406-3.458s1.404-3.458,3.394-3.458
	C772.613,290.853,773.705,292.387,773.602,294.714z M772.691,293.882c-0.065-1.312-0.949-2.145-2.289-2.145
	c-1.3,0-2.235,0.845-2.393,2.145H772.691z"/>
<path fill="#575756" d="M785.197,297.743h-1.015v-1.469c-0.508,0.962-1.442,1.521-2.666,1.521c-1.948,0-3.302-1.442-3.302-3.484
	c0-2.054,1.354-3.471,3.289-3.471c1.222,0,2.171,0.559,2.679,1.534v-4.277h1.015V297.743z M784.184,294.337
	c0-1.495-1.026-2.574-2.471-2.574c-1.456,0-2.481,1.079-2.481,2.574c0,1.482,1.025,2.548,2.481,2.548
	C783.156,296.885,784.184,295.819,784.184,294.337z"/>
<path fill="#575756" d="M793.634,294.714h-5.591c0.183,1.339,1.158,2.185,2.484,2.185c0.844,0,1.586-0.299,2.119-0.858l0.559,0.598
	c-0.65,0.729-1.612,1.145-2.756,1.145c-2.017,0-3.406-1.417-3.406-3.458s1.404-3.458,3.393-3.458
	C792.646,290.853,793.738,292.387,793.634,294.714z M792.724,293.882c-0.064-1.312-0.947-2.145-2.288-2.145
	c-1.3,0-2.235,0.845-2.393,2.145H792.724z"/>
<path fill="#575756" d="M799.38,291.477l-0.39,0.807c-0.533-0.338-1.224-0.56-1.859-0.56c-0.768,0-1.352,0.273-1.352,0.91
	c0,1.521,3.82,0.741,3.82,3.198c0,1.353-1.195,1.95-2.509,1.95c-0.975,0-1.977-0.338-2.626-0.962l0.391-0.768
	c0.585,0.547,1.469,0.871,2.274,0.871c0.807,0,1.456-0.299,1.469-0.975c0.039-1.651-3.796-0.807-3.782-3.237
	c0-1.313,1.131-1.859,2.379-1.859C798.015,290.853,798.808,291.087,799.38,291.477z"/>
<path fill="#575756" d="M807.01,292.53c1.64,0.078,2.744,0.962,2.744,2.418c0,1.677-1.234,2.847-3.186,2.847
	c-1.054,0-2.133-0.377-2.888-0.923l0.455-0.871c0.65,0.533,1.509,0.858,2.354,0.858c1.417,0,2.249-0.768,2.249-1.872
	c0-1.145-0.845-1.729-2.263-1.729h-1.117v-0.663l2.665-2.951h-3.938v-0.987h5.238v0.701l-2.82,3.134L807.01,292.53z"/>
<path fill="#575756" d="M812.483,289.644v2.562c0.468-0.078,1.117-0.13,1.533-0.13c1.911,0,3.134,1.131,3.134,2.69
	c0,1.82-1.262,3.003-3.211,3.003c-1.002,0-2.211-0.391-3.068-0.987l0.43-0.884c0.754,0.571,1.716,0.909,2.535,0.909
	c1.365,0,2.21-0.754,2.21-1.976c0-1.079-0.845-1.755-2.185-1.755c-0.599,0-1.689,0.091-2.341,0.221v-4.654h5.278v1.001H812.483z"/>
<path fill="#575756" d="M818.619,294.181v-0.754h3.055v0.754H818.619z"/>
<path fill="#575756" d="M827.277,294.35v-2.404h0.975v2.404h1.378v1.002h-1.378v2.392h-0.975v-2.392h-4.368v-0.858l3.263-5.851
	h1.027l-3.172,5.707H827.277z"/>
<path fill="#575756" d="M834.778,294.35v-2.404h0.975v2.404h1.378v1.002h-1.378v2.392h-0.975v-2.392h-4.368v-0.858l3.263-5.851
	h1.027l-3.172,5.707H834.778z"/>
<path fill="#575756" d="M846.556,296.69c-0.546,0.741-1.417,1.104-2.509,1.104c-1.417,0-2.327-0.91-2.327-2.093
	c0-1.196,0.948-1.95,2.562-1.963h2.249v-0.403c0-1.001-0.624-1.599-1.833-1.599c-0.754,0-1.456,0.286-2.171,0.779l-0.43-0.74
	c0.884-0.585,1.625-0.924,2.795-0.924c1.689,0,2.626,0.897,2.64,2.366l0.014,4.524h-0.988L846.556,296.69L846.556,296.69z
	 M846.543,295.377v-0.819h-2.133c-1.145,0-1.742,0.352-1.742,1.105s0.611,1.248,1.573,1.248
	C845.398,296.911,846.282,296.326,846.543,295.377z"/>
<path fill="#575756" d="M856.071,293.518v4.226h-1.015v-3.952c0-1.209-0.729-1.924-1.938-1.924
	c-1.353,0.013-2.185,0.896-2.301,2.197v3.679h-1.015v-6.852h1.015v1.509c0.48-1.04,1.403-1.534,2.651-1.548
	C855.109,290.853,856.071,291.867,856.071,293.518z"/>
<path fill="#575756" d="M862.338,291.477l-0.39,0.807c-0.533-0.338-1.224-0.56-1.859-0.56c-0.768,0-1.353,0.273-1.353,0.91
	c0,1.521,3.821,0.741,3.821,3.198c0,1.353-1.195,1.95-2.509,1.95c-0.975,0-1.977-0.338-2.626-0.962l0.391-0.768
	c0.585,0.547,1.469,0.871,2.274,0.871c0.807,0,1.456-0.299,1.469-0.975c0.039-1.651-3.796-0.807-3.782-3.237
	c0-1.313,1.131-1.859,2.379-1.859C860.973,290.853,861.766,291.087,862.338,291.477z"/>
<path fill="#575756" d="M864.911,297.171c0,0.391-0.272,0.677-0.624,0.677c-0.364,0-0.637-0.286-0.637-0.677
	c0-0.39,0.271-0.676,0.637-0.676C864.639,296.495,864.911,296.781,864.911,297.171z"/>
<path fill="#575756" d="M499.188,303.697c-0.948,1.469-1.508,3.458-1.508,5.629c0,2.172,0.56,4.174,1.508,5.63h-0.923
	c-1.001-1.456-1.547-3.458-1.547-5.63c0-2.171,0.546-4.16,1.547-5.629H499.188z"/>
<path fill="#575756" d="M502.944,308.131c1.638,0.078,2.743,0.962,2.743,2.418c0,1.677-1.235,2.848-3.186,2.848
	c-1.053,0-2.132-0.378-2.886-0.924l0.455-0.871c0.649,0.533,1.508,0.858,2.353,0.858c1.417,0,2.25-0.768,2.25-1.872
	c0-1.145-0.845-1.729-2.262-1.729h-1.118v-0.663l2.665-2.951h-3.939v-0.987h5.239v0.701l-2.821,3.134L502.944,308.131z"/>
<path fill="#575756" d="M513.384,304.854l-0.416,0.832c-0.598-0.351-1.391-0.56-2.093-0.56c-1.95,0-2.925,1.6-2.782,4.057
	c0.403-1.065,1.378-1.664,2.717-1.664c1.781,0,2.887,1.105,2.887,2.86c0,1.858-1.209,3.016-3.081,3.016
	c-2.21,0-3.549-1.599-3.549-4.406c0-2.887,1.43-4.784,3.743-4.784C511.642,304.204,512.643,304.465,513.384,304.854z
	 M508.339,310.444c-0.013,0.871,0.663,1.988,2.21,1.988c1.287,0,2.171-0.779,2.171-2.066c0-1.209-0.806-1.963-2.093-1.963
	C509.185,308.403,508.327,309.365,508.339,310.444z"/>
<path fill="#575756" d="M519.429,306.922c0,1.703-0.871,2.69-2.327,2.69s-2.313-0.987-2.313-2.69c0-1.689,0.857-2.69,2.313-2.69
	S519.429,305.231,519.429,306.922z M515.502,306.922c0,1.3,0.572,2.027,1.599,2.027c1.027,0,1.6-0.729,1.6-2.027
	c0-1.301-0.572-2.041-1.6-2.041C516.075,304.881,515.502,305.621,515.502,306.922z M523.173,304.243h1.001l-6.799,9.101h-1.014
	L523.173,304.243z M525.916,310.666c0,1.703-0.871,2.69-2.327,2.69s-2.313-0.987-2.313-2.69c0-1.69,0.857-2.679,2.313-2.679
	S525.916,308.976,525.916,310.666z M521.99,310.666c0,1.312,0.572,2.041,1.599,2.041c1.027,0,1.599-0.729,1.599-2.041
	c0-1.301-0.571-2.028-1.599-2.028C522.562,308.638,521.99,309.365,521.99,310.666z"/>
<path fill="#575756" d="M535.275,307.077l-0.391,0.807c-0.533-0.338-1.222-0.56-1.858-0.56c-0.768,0-1.353,0.272-1.353,0.91
	c0,1.521,3.822,0.74,3.822,3.197c0,1.354-1.196,1.95-2.509,1.95c-0.976,0-1.977-0.338-2.626-0.962l0.39-0.768
	c0.585,0.546,1.469,0.871,2.275,0.871c0.806,0,1.456-0.3,1.469-0.976c0.039-1.65-3.796-0.806-3.783-3.237
	c0-1.312,1.131-1.858,2.379-1.858C533.91,306.453,534.703,306.688,535.275,307.077z"/>
<path fill="#575756" d="M543.101,313.344h-1.014v-1.547c-0.455,1.065-1.365,1.573-2.6,1.586c-1.6,0-2.562-1.014-2.562-2.665v-4.226
	h1.015v3.952c0,1.209,0.715,1.925,1.897,1.925c1.417-0.026,2.249-1.054,2.249-2.51v-3.367h1.015L543.101,313.344L543.101,313.344z"
	/>
<path fill="#575756" d="M546.584,308.014c0.455-1.001,1.3-1.547,2.457-1.561v1.027c-1.443-0.026-2.34,0.87-2.457,2.223v3.641h-1.014
	v-6.852h1.014V308.014z"/>
<path fill="#575756" d="M555.151,305.244v3.198h4.251v1.001h-4.251v3.899h-1.04v-9.101h5.785v1.001L555.151,305.244L555.151,305.244
	z"/>
<path fill="#575756" d="M565.539,312.291c-0.546,0.74-1.417,1.104-2.509,1.104c-1.417,0-2.327-0.909-2.327-2.093
	c0-1.195,0.949-1.95,2.561-1.963h2.25v-0.403c0-1.001-0.624-1.599-1.833-1.599c-0.754,0-1.456,0.285-2.171,0.779l-0.429-0.74
	c0.884-0.586,1.625-0.924,2.795-0.924c1.69,0,2.626,0.896,2.639,2.366l0.014,4.523h-0.988L565.539,312.291L565.539,312.291z
	 M565.525,310.978v-0.818h-2.133c-1.144,0-1.741,0.352-1.741,1.104s0.61,1.248,1.572,1.248
	C564.381,312.512,565.266,311.927,565.525,310.978z"/>
<path fill="#575756" d="M574.131,307.48l-0.559,0.715c-0.521-0.494-1.209-0.793-2.041-0.793c-1.417,0-2.432,1.026-2.432,2.521
	s1.015,2.535,2.432,2.535c0.896,0,1.638-0.312,2.119-0.884l0.585,0.623c-0.611,0.741-1.561,1.184-2.743,1.184
	c-1.989,0-3.394-1.417-3.394-3.458s1.417-3.458,3.394-3.458C572.598,306.453,573.507,306.83,574.131,307.48z"/>
<path fill="#575756" d="M581.659,310.314h-5.59c0.182,1.339,1.156,2.185,2.482,2.185c0.845,0,1.586-0.3,2.119-0.858l0.56,0.599
	c-0.65,0.729-1.612,1.145-2.757,1.145c-2.015,0-3.405-1.417-3.405-3.458s1.403-3.458,3.393-3.458
	C580.671,306.453,581.763,307.987,581.659,310.314z M580.749,309.482c-0.065-1.312-0.949-2.146-2.288-2.146
	c-1.3,0-2.236,0.845-2.392,2.146H580.749z"/>
<path fill="#575756" d="M590.408,309.938c0,2.028-1.326,3.445-3.264,3.445c-1.222,0-2.157-0.559-2.664-1.508v1.469h-1.015v-9.646
	h1.015v4.276c0.507-0.962,1.442-1.521,2.639-1.521C589.056,306.453,590.408,307.884,590.408,309.938z M589.381,309.912
	c0-1.47-1.014-2.549-2.443-2.549c-1.443,0-2.457,1.065-2.457,2.549c0,1.494,1.014,2.548,2.457,2.548
	C588.367,312.46,589.381,311.394,589.381,309.912z"/>
<path fill="#575756" d="M598.442,309.912c0,2.054-1.443,3.471-3.472,3.471c-2.027,0-3.471-1.417-3.471-3.471
	c0-2.042,1.443-3.445,3.471-3.445C596.999,306.467,598.442,307.87,598.442,309.912z M592.514,309.925
	c0,1.508,1.027,2.548,2.457,2.548c1.431,0,2.457-1.04,2.457-2.548c0-1.495-1.026-2.535-2.457-2.535
	C593.541,307.39,592.514,308.43,592.514,309.925z"/>
<path fill="#575756" d="M606.476,309.912c0,2.054-1.442,3.471-3.471,3.471s-3.471-1.417-3.471-3.471
	c0-2.042,1.442-3.445,3.471-3.445S606.476,307.87,606.476,309.912z M600.548,309.925c0,1.508,1.027,2.548,2.457,2.548
	s2.457-1.04,2.457-2.548c0-1.495-1.027-2.535-2.457-2.535S600.548,308.43,600.548,309.925z"/>
<path fill="#575756" d="M609.336,311.381v1.963h-1.014v-9.646h1.014v6.306l3.523-3.511h1.195l-2.561,2.652l2.834,4.198h-1.209
	l-2.34-3.458L609.336,311.381z"/>
<path fill="#575756" d="M628.732,310.314h-5.591c0.183,1.339,1.157,2.185,2.483,2.185c0.845,0,1.586-0.3,2.119-0.858l0.559,0.599
	c-0.649,0.729-1.611,1.145-2.756,1.145c-2.015,0-3.406-1.417-3.406-3.458s1.404-3.458,3.394-3.458
	C627.745,306.453,628.836,307.987,628.732,310.314z M627.822,309.482c-0.065-1.312-0.949-2.146-2.288-2.146
	c-1.3,0-2.236,0.845-2.393,2.146H627.822z"/>
<path fill="#575756" d="M634.01,312.876c-0.48,0.325-1.001,0.507-1.547,0.521c-1.001,0-1.742-0.599-1.742-1.95v-3.913h-0.987v-0.818
	h0.987v-1.808h1.001v1.808l2.171-0.014v0.832h-2.171v3.73c0,0.832,0.325,1.146,0.91,1.146c0.352,0,0.715-0.117,1.092-0.353
	L634.01,312.876z"/>
<path fill="#575756" d="M642.643,309.95v-2.404h0.976v2.404h1.378v1.001h-1.378v2.393h-0.976v-2.393h-4.368v-0.857l3.263-5.851
	h1.027l-3.173,5.707H642.643z"/>
<path fill="#575756" d="M653.575,308.794c0,2.938-1.339,4.576-3.757,4.576s-3.759-1.639-3.759-4.576s1.341-4.576,3.759-4.576
	S653.575,305.855,653.575,308.794z M647.114,308.794c0,2.457,0.937,3.691,2.704,3.691c1.767,0,2.703-1.234,2.703-3.691
	c0-2.471-0.937-3.692-2.703-3.692C648.051,305.102,647.114,306.323,647.114,308.794z"/>
<path fill="#575756" d="M659.465,306.922c0,1.703-0.871,2.69-2.328,2.69c-1.455,0-2.312-0.987-2.312-2.69
	c0-1.689,0.857-2.69,2.312-2.69C658.594,304.23,659.465,305.231,659.465,306.922z M655.538,306.922c0,1.3,0.572,2.027,1.599,2.027
	c1.027,0,1.601-0.729,1.601-2.027c0-1.301-0.572-2.041-1.601-2.041C656.11,304.881,655.538,305.621,655.538,306.922z
	 M663.209,304.243h1l-6.799,9.101h-1.014L663.209,304.243z M665.951,310.666c0,1.703-0.871,2.69-2.326,2.69
	c-1.457,0-2.314-0.987-2.314-2.69c0-1.69,0.857-2.679,2.314-2.679C665.08,307.987,665.951,308.976,665.951,310.666z
	 M662.025,310.666c0,1.312,0.571,2.041,1.6,2.041c1.026,0,1.599-0.729,1.599-2.041c0-1.301-0.571-2.028-1.599-2.028
	S662.025,309.365,662.025,310.666z"/>
<path fill="#575756" d="M678.314,309.938c0,2.028-1.326,3.445-3.265,3.445c-1.222,0-2.158-0.559-2.665-1.508v3.991h-1.014v-9.374
	h1.014v1.481c0.508-0.962,1.443-1.521,2.641-1.521C676.962,306.453,678.314,307.884,678.314,309.938z M677.287,309.912
	c0-1.47-1.014-2.549-2.444-2.549c-1.441,0-2.457,1.065-2.457,2.549c0,1.494,1.016,2.548,2.457,2.548
	C676.273,312.46,677.287,311.394,677.287,309.912z"/>
<path fill="#575756" d="M686.348,309.912c0,2.054-1.441,3.471-3.471,3.471c-2.027,0-3.471-1.417-3.471-3.471
	c0-2.042,1.442-3.445,3.471-3.445S686.348,307.87,686.348,309.912z M680.42,309.925c0,1.508,1.027,2.548,2.457,2.548
	s2.457-1.04,2.457-2.548c0-1.495-1.027-2.535-2.457-2.535S680.42,308.43,680.42,309.925z"/>
<path fill="#575756" d="M694.07,313.344h-1.015v-1.547c-0.455,1.065-1.364,1.573-2.601,1.586c-1.599,0-2.562-1.014-2.562-2.665
	v-4.226h1.016v3.952c0,1.209,0.715,1.925,1.896,1.925c1.418-0.026,2.25-1.054,2.25-2.51v-3.367h1.015L694.07,313.344L694.07,313.344
	z"/>
<path fill="#575756" d="M697.554,308.014c0.455-1.001,1.3-1.547,2.457-1.561v1.027c-1.441-0.026-2.34,0.87-2.457,2.223v3.641h-1.015
	v-6.852h1.015V308.014z"/>
<path fill="#575756" d="M705.003,313.344v-9.646h1.014v9.646H705.003z"/>
<path fill="#575756" d="M714.453,310.314h-5.59c0.182,1.339,1.156,2.185,2.482,2.185c0.846,0,1.586-0.3,2.119-0.858l0.56,0.599
	c-0.649,0.729-1.612,1.145-2.757,1.145c-2.015,0-3.405-1.417-3.405-3.458s1.403-3.458,3.394-3.458
	C713.466,306.453,714.558,307.987,714.453,310.314z M713.543,309.482c-0.064-1.312-0.948-2.146-2.287-2.146
	c-1.301,0-2.236,0.845-2.393,2.146H713.543z"/>
<path fill="#575756" d="M731.081,309.118v4.226h-1.015v-3.952c0-1.222-0.716-1.938-1.897-1.938
	c-1.417,0.039-2.236,1.054-2.236,2.521v3.367h-1.025v-3.952c0-1.222-0.703-1.938-1.898-1.938c-1.403,0.039-2.249,1.054-2.249,2.521
	v3.367h-1.001v-6.852h1.001v1.547c0.454-1.065,1.378-1.572,2.612-1.586c1.287,0,2.172,0.663,2.457,1.795
	c0.43-1.21,1.392-1.781,2.705-1.795C730.132,306.453,731.081,307.468,731.081,309.118z"/>
<path fill="#575756" d="M737.58,312.291c-0.546,0.74-1.416,1.104-2.509,1.104c-1.417,0-2.327-0.909-2.327-2.093
	c0-1.195,0.949-1.95,2.561-1.963h2.25v-0.403c0-1.001-0.624-1.599-1.834-1.599c-0.754,0-1.455,0.285-2.17,0.779l-0.43-0.74
	c0.885-0.586,1.625-0.924,2.795-0.924c1.69,0,2.627,0.896,2.64,2.366l0.014,4.523h-0.988L737.58,312.291L737.58,312.291z
	 M737.567,310.978v-0.818h-2.133c-1.145,0-1.741,0.352-1.741,1.104s0.61,1.248,1.572,1.248
	C736.424,312.512,737.308,311.927,737.567,310.978z"/>
<path fill="#575756" d="M741.844,308.014c0.455-1.001,1.301-1.547,2.457-1.561v1.027c-1.441-0.026-2.34,0.87-2.457,2.223v3.641
	h-1.014v-6.852h1.014V308.014z"/>
<path fill="#575756" d="M749.592,312.291c-0.546,0.74-1.416,1.104-2.509,1.104c-1.417,0-2.327-0.909-2.327-2.093
	c0-1.195,0.949-1.95,2.562-1.963h2.25v-0.403c0-1.001-0.624-1.599-1.834-1.599c-0.755,0-1.455,0.285-2.171,0.779l-0.43-0.74
	c0.885-0.586,1.625-0.924,2.795-0.924c1.69,0,2.627,0.896,2.641,2.366l0.013,4.523h-0.988L749.592,312.291L749.592,312.291z
	 M749.579,310.978v-0.818h-2.132c-1.146,0-1.742,0.352-1.742,1.104s0.611,1.248,1.573,1.248
	C748.436,312.512,749.319,311.927,749.579,310.978z"/>
<path fill="#575756" d="M756.378,312.876c-0.481,0.325-1.001,0.507-1.547,0.521c-1.001,0-1.742-0.599-1.742-1.95v-3.913h-0.987
	v-0.818h0.987v-1.808h1.001v1.808l2.172-0.014v0.832h-2.172v3.73c0,0.832,0.325,1.146,0.91,1.146c0.352,0,0.715-0.117,1.092-0.353
	L756.378,312.876z"/>
<path fill="#575756" d="M764.256,309.118v4.226h-1.014v-3.952c0-1.209-0.729-1.924-1.938-1.924c-1.456,0.014-2.313,1.04-2.313,2.509
	v3.367h-1.015v-9.646h1.015v4.329c0.469-1.065,1.403-1.561,2.666-1.573C763.294,306.453,764.256,307.468,764.256,309.118z"/>
<path fill="#575756" d="M772.771,309.912c0,2.054-1.443,3.471-3.473,3.471s-3.472-1.417-3.472-3.471
	c0-2.042,1.442-3.445,3.472-3.445S772.771,307.87,772.771,309.912z M766.843,309.925c0,1.508,1.026,2.548,2.457,2.548
	s2.457-1.04,2.457-2.548c0-1.495-1.026-2.535-2.457-2.535S766.843,308.43,766.843,309.925z"/>
<path fill="#575756" d="M780.818,309.118v4.226h-1.015v-3.952c0-1.209-0.729-1.924-1.938-1.924
	c-1.353,0.014-2.185,0.896-2.301,2.197v3.679h-1.016v-6.852h1.016v1.509c0.479-1.04,1.403-1.534,2.651-1.548
	C779.855,306.453,780.818,307.468,780.818,309.118z"/>
<path fill="#575756" d="M783.912,303.697c1.001,1.469,1.547,3.458,1.547,5.629c0,2.172-0.546,4.174-1.547,5.63h-0.924
	c0.948-1.456,1.509-3.458,1.509-5.63c0-2.171-0.561-4.16-1.509-5.629H783.912z"/>
<g>
	<path fill="#575756" d="M352.519,246.945l-1.488,1.891c-1.675-1.705-4.031-2.729-6.418-2.729c-4.899,0-8.836,3.783-8.836,8.558
		c0,4.744,3.938,8.558,8.836,8.558c2.387,0,4.713-0.992,6.418-2.604l1.519,1.706c-2.139,2.015-5.054,3.349-8.062,3.349
		c-6.263,0-11.224-4.868-11.224-11.007c0-6.077,5.023-10.883,11.317-10.883C347.558,243.782,350.441,244.991,352.519,246.945z"/>
	<path fill="#575756" d="M377.165,254.696c0,6.108-5.023,10.976-11.349,10.976c-6.356,0-11.379-4.868-11.379-10.976
		c0-6.139,5.023-10.914,11.379-10.914C372.141,243.782,377.165,248.588,377.165,254.696z M356.949,254.696
		c0,4.775,4.03,8.589,8.867,8.589s8.806-3.814,8.806-8.589c0-4.775-3.969-8.558-8.806-8.558S356.949,249.921,356.949,254.696z"/>
	<path fill="#575756" d="M401.344,265.548l-0.031-17.89l-7.907,15.596h-1.488l-7.875-15.596v17.89h-2.356v-21.704h3.069
		l7.938,15.627l7.907-15.627h3.039v21.704H401.344z"/>
	<path fill="#575756" d="M418.391,243.844c5.364,0,8.464,2.667,8.464,7.287c0,4.806-3.102,7.565-8.464,7.565h-5.674v6.852h-2.48
		v-21.704H418.391z M412.717,256.309h5.581c3.907,0,6.17-1.736,6.17-5.116c0-3.286-2.263-4.961-6.17-4.961h-5.581V256.309z"/>
	<path fill="#575756" d="M431.659,260.061l-2.419,5.488h-2.635l9.734-21.704h2.573l9.705,21.704h-2.697l-2.419-5.488H431.659z
		 M437.549,246.666l-4.837,11.007h9.736L437.549,246.666z"/>
	<path fill="#575756" d="M461.73,258.634c-0.467,0.031-0.961,0.062-1.459,0.062h-5.768v6.852h-2.479v-21.704h8.248
		c5.426,0,8.558,2.667,8.558,7.287c0,3.597-1.736,6.015-4.868,7.038l5.085,7.379h-2.822L461.73,258.634z M460.271,256.309
		c3.938,0,6.171-1.736,6.171-5.116c0-3.286-2.232-4.961-6.171-4.961h-5.768v10.077H460.271z"/>
	<path fill="#575756" d="M476.329,260.061l-2.418,5.488h-2.636l9.734-21.704h2.574l9.705,21.704h-2.698l-2.418-5.488H476.329z
		 M482.22,246.666l-4.837,11.007h9.735L482.22,246.666z"/>
	<path fill="#575756" d="M496.695,265.548v-21.704h2.479v21.704H496.695z"/>
	<path fill="#575756" d="M519.08,245.767l-1.054,2.325c-1.954-1.302-4.248-1.829-5.984-1.829c-2.791,0-4.62,1.054-4.62,2.884
		c0,5.581,12.216,2.666,12.188,10.542c0,3.627-3.194,5.953-7.847,5.953c-3.163,0-6.263-1.364-8.31-3.318l1.116-2.232
		c2.016,1.954,4.773,3.07,7.225,3.07c3.131,0,5.085-1.271,5.085-3.349c0.03-5.705-12.186-2.667-12.186-10.449
		c0-3.411,3.008-5.612,7.503-5.612C514.708,243.751,517.282,244.558,519.08,245.767z"/>
	<path fill="#575756" d="M545.369,254.696c0,6.108-5.023,10.976-11.35,10.976c-6.354,0-11.38-4.868-11.38-10.976
		c0-6.139,5.023-10.914,11.38-10.914C540.345,243.782,545.369,248.588,545.369,254.696z M525.153,254.696
		c0,4.775,4.028,8.589,8.866,8.589s8.807-3.814,8.807-8.589c0-4.775-3.969-8.558-8.807-8.558
		C529.183,246.138,525.153,249.921,525.153,254.696z"/>
	<path fill="#575756" d="M565.393,265.548l-13.021-17.425v17.425h-2.48v-21.704h2.574l13.022,17.457v-17.457h2.447v21.704H565.393
		L565.393,265.548z"/>
	<path fill="#575756" d="M586.5,262.789h-2.109l-3.503-5.147l3.503-5.209h2.109l-3.318,5.209L586.5,262.789z M591.275,262.789
		h-2.108l-3.504-5.147l3.504-5.209h2.108l-3.317,5.209L591.275,262.789z"/>
	<path fill="#575756" d="M608.263,263.192v2.356h-11.999v-21.704h2.48v19.348H608.263z"/>
	<path fill="#575756" d="M612.292,265.548v-21.704h2.479v21.704H612.292z"/>
	<path fill="#575756" d="M628.04,255.254l-4.217,4.62v5.674h-2.48v-21.704h2.48v12.496l11.658-12.496h2.944l-8.589,9.426
		l9.24,12.278h-3.039L628.04,255.254z"/>
	<path fill="#575756" d="M645.492,246.231v7.132h10.945v2.387h-10.945v7.441h12.648v2.356H643.01v-21.704h14.729v2.387
		L645.492,246.231L645.492,246.231z"/>
	<path fill="#575756" d="M672.896,258.634c-0.467,0.031-0.963,0.062-1.457,0.062h-5.77v6.852h-2.479v-21.704h8.248
		c5.426,0,8.559,2.667,8.559,7.287c0,3.597-1.736,6.015-4.869,7.038l5.086,7.379h-2.822L672.896,258.634z M671.439,256.309
		c3.938,0,6.17-1.736,6.17-5.116c0-3.286-2.232-4.961-6.17-4.961h-5.77v10.077H671.439z"/>
	<path fill="#575756" d="M698.938,245.767l-1.055,2.325c-1.953-1.302-4.246-1.829-5.98-1.829c-2.791,0-4.621,1.054-4.621,2.884
		c0,5.581,12.217,2.666,12.186,10.542c0,3.627-3.191,5.953-7.844,5.953c-3.164,0-6.264-1.364-8.312-3.318l1.117-2.232
		c2.018,1.954,4.773,3.07,7.227,3.07c3.131,0,5.084-1.271,5.084-3.349c0.029-5.705-12.188-2.667-12.188-10.449
		c0-3.411,3.008-5.612,7.504-5.612C694.566,243.751,697.139,244.558,698.938,245.767z"/>
	<path fill="#575756" d="M703.615,252.433h2.107l3.505,5.147l-3.505,5.209h-2.107l3.316-5.209L703.615,252.433z M708.391,252.433
		h2.107l3.504,5.147l-3.504,5.209h-2.107l3.318-5.209L708.391,252.433z"/>
	<path fill="#575756" d="M728.973,246.231v7.132h10.945v2.387h-10.945v7.441h12.65v2.356h-15.131v-21.704h14.729v2.387
		L728.973,246.231L728.973,246.231z"/>
	<path fill="#575756" d="M753.277,246.231v19.317h-2.48v-19.317h-7.068v-2.387h16.65v2.387H753.277z"/>
	<path fill="#575756" d="M789.674,246.945l-1.488,1.891c-1.676-1.705-4.029-2.729-6.42-2.729c-4.896,0-8.836,3.783-8.836,8.558
		c0,4.744,3.938,8.558,8.836,8.558c2.391,0,4.715-0.992,6.42-2.604l1.52,1.706c-2.139,2.015-5.053,3.349-8.062,3.349
		c-6.264,0-11.225-4.868-11.225-11.007c0-6.077,5.023-10.883,11.318-10.883C784.713,243.782,787.596,244.991,789.674,246.945z"/>
	<path fill="#575756" d="M814.318,254.696c0,6.108-5.023,10.976-11.35,10.976c-6.355,0-11.379-4.868-11.379-10.976
		c0-6.139,5.021-10.914,11.379-10.914C809.295,243.782,814.318,248.588,814.318,254.696z M794.104,254.696
		c0,4.775,4.029,8.589,8.867,8.589c4.836,0,8.807-3.814,8.807-8.589c0-4.775-3.971-8.558-8.807-8.558
		C798.133,246.139,794.104,249.921,794.104,254.696z"/>
	<path fill="#575756" d="M836.576,256.619c0,5.643-3.41,9.054-9.084,9.054c-5.705,0-9.148-3.411-9.148-9.054v-12.774h2.48v12.774
		c0,4.217,2.543,6.667,6.668,6.667c4.123,0,6.604-2.45,6.604-6.667v-12.774h2.48V256.619z"/>
	<path fill="#575756" d="M852.354,258.634c-0.465,0.031-0.961,0.062-1.455,0.062h-5.77v6.852h-2.479v-21.704h8.248
		c5.426,0,8.557,2.667,8.557,7.287c0,3.597-1.736,6.015-4.867,7.038l5.084,7.379h-2.82L852.354,258.634z M850.896,256.309
		c3.938,0,6.17-1.736,6.17-5.116c0-3.286-2.232-4.961-6.17-4.961h-5.77v10.077H850.896z"/>
	<path fill="#575756" d="M867.541,246.231v7.132h10.945v2.387h-10.945v7.441h12.65v2.356h-15.131v-21.704h14.729v2.387
		L867.541,246.231L867.541,246.231z"/>
	<path fill="#575756" d="M902.977,256.619c0,5.643-3.408,9.054-9.084,9.054c-5.705,0-9.146-3.411-9.146-9.054v-12.774h2.479v12.774
		c0,4.217,2.544,6.667,6.666,6.667c4.123,0,6.604-2.45,6.604-6.667v-12.774h2.479v12.774H902.977z"/>
	<path fill="#575756" d="M918.754,258.634c-0.465,0.031-0.961,0.062-1.457,0.062h-5.768v6.852h-2.48v-21.704h8.248
		c5.426,0,8.561,2.667,8.561,7.287c0,3.597-1.736,6.015-4.869,7.038l5.086,7.379h-2.822L918.754,258.634z M917.297,256.309
		c3.938,0,6.17-1.736,6.17-5.116c0-3.286-2.23-4.961-6.17-4.961h-5.768v10.077H917.297z"/>
	<path fill="#575756" d="M944.795,245.767l-1.055,2.325c-1.953-1.302-4.246-1.829-5.982-1.829c-2.791,0-4.621,1.054-4.621,2.884
		c0,5.581,12.217,2.666,12.188,10.542c0,3.627-3.193,5.953-7.846,5.953c-3.163,0-6.264-1.364-8.311-3.318l1.117-2.232
		c2.016,1.954,4.773,3.07,7.225,3.07c3.131,0,5.084-1.271,5.084-3.349c0.031-5.705-12.186-2.667-12.186-10.449
		c0-3.411,3.008-5.612,7.504-5.612C940.424,243.751,942.996,244.558,944.795,245.767z"/>
</g>
<polygon display="none" fill="#CA4A3F" points="866.178,4047.915 865.46,4047.021 354.947,3962.938 49.805,3772.411 
	182.261,3221.753 1135.441,3185.839 1138.117,3185.737 1196.816,2412.104 1197.041,2409.15 220.024,2322.105 118.758,1576.011 
	1210.703,1436.899 1215.243,1436.321 901.594,909.448 1028.944,655.89 1029.262,655.89 1028.947,655.884 1029.626,654.532 
	953.75,654.532 409.417,644.747 -1.598,501.913 -1.598,525.542 -1.598,531.829 408.465,660.396 408.904,660.532 1019.898,660.532 
	895.495,908.224 894.757,909.692 1205.405,1431.526 115,1570.442 112,1570.823 214.401,2325.284 214.723,2327.657 1190.61,2414.604 
	1132.539,3179.944 179.763,3215.843 177.491,3215.929 42.96,3775.212 352.278,3968.347 352.788,3968.665 862.224,4052.571 
	1276.066,4566.271 1280.738,4562.509 "/>
<polygon fill="#B8DEDB" points="1029.262,-142.241 1029.047,-142.241 1028.947,-142.068 "/>
</svg>
