<?xml version="1.0" encoding="utf-8"?>
<!-- Generator: Adobe Illustrator 16.0.0, SVG Export Plug-In . SVG Version: 6.00 Build 0)  -->
<!DOCTYPE svg PUBLIC "-//W3C//DTD SVG 1.1//EN" "http://www.w3.org/Graphics/SVG/1.1/DTD/svg11.dtd">
<svg version="1.1" id="Calque_1" xmlns="http://www.w3.org/2000/svg" xmlns:xlink="http://www.w3.org/1999/xlink" x="0px" y="0px"
	 width="1279.141px" height="799.756px" viewBox="0 0 1279.141 799.756" enable-background="new 0 0 1279.141 799.756"
	 xml:space="preserve">
<polygon display="none" fill="#CA4A3F" points="866.178,4047.915 865.46,4047.021 354.947,3962.938 49.805,3772.411 
	182.261,3221.753 1135.441,3185.839 1138.117,3185.737 1196.816,2412.104 1197.041,2409.15 220.024,2322.105 118.758,1576.011 
	1210.703,1436.899 1215.243,1436.321 901.594,909.448 1028.944,655.89 1029.262,655.89 1028.947,655.884 1029.626,654.532 
	953.75,654.532 409.417,644.747 -1.598,501.913 -1.598,525.542 -1.598,531.829 408.465,660.396 408.904,660.532 1019.898,660.532 
	895.495,908.224 894.757,909.692 1205.405,1431.526 115,1570.442 112,1570.823 214.401,2325.284 214.723,2327.657 1190.61,2414.604 
	1132.539,3179.944 179.763,3215.843 177.491,3215.929 42.96,3775.212 352.278,3968.347 352.788,3968.665 862.224,4052.571 
	1276.066,4566.271 1280.738,4562.509 "/>
<polygon fill="#B8DEDB" points="1031.262,-138.241 1031.047,-138.241 1030.947,-138.068 "/>
<path fill="#575756" d="M618.35,109.775c3.267,0,5.764,2.417,5.764,5.602c0,3.186-2.515,5.603-5.812,5.603h-4.48v-11.204
	L618.35,109.775L618.35,109.775z M615.1,119.763h3.268c2.497,0,4.45-1.872,4.45-4.369c0-2.514-1.985-4.386-4.498-4.386h-3.22
	V119.763z"/>
<path fill="#575756" d="M627.146,118.146l-1.247,2.833h-1.361l5.026-11.204h1.327l5.012,11.204h-1.395l-1.249-2.833H627.146z
	 M630.189,111.231l-2.497,5.683h5.024L630.189,111.231z"/>
<path fill="#575756" d="M640.029,111.008v9.972h-1.28v-9.972H635.1v-1.232h8.597v1.232H640.029z"/>
<path fill="#575756" d="M645.483,118.146l-1.248,2.833h-1.361l5.026-11.204h1.327l5.012,11.204h-1.395l-1.248-2.833H645.483z
	 M648.524,111.231l-2.497,5.683h5.024L648.524,111.231z"/>
<path fill="#575756" d="M666.51,112.48c0,1.072-0.8,2.368-1.983,3.633l-3.441,3.649h6.066v1.217h-7.698v-1.057l4.191-4.562
	c0.944-0.944,1.536-1.985,1.536-2.705c0-1.089-0.832-1.745-2.238-1.745c-1.024,0-2.161,0.528-3.059,1.393l-0.561-1.024
	c1.088-0.977,2.449-1.553,3.775-1.553C665.165,109.727,666.51,110.8,666.51,112.48z"/>
<path fill="#575756" d="M672.188,122.933l4.993-15.078h1.104l-5.01,15.078H672.188z"/>
</svg>
