<?xml version="1.0" encoding="utf-8"?>
<!-- Generator: Adobe Illustrator 16.0.0, SVG Export Plug-In . SVG Version: 6.00 Build 0)  -->
<!DOCTYPE svg PUBLIC "-//W3C//DTD SVG 1.1//EN" "http://www.w3.org/Graphics/SVG/1.1/DTD/svg11.dtd">
<svg version="1.1" id="Calque_1" xmlns="http://www.w3.org/2000/svg" xmlns:xlink="http://www.w3.org/1999/xlink" x="0px" y="0px"
	 width="1279.141px" height="799.756px" viewBox="0 0 1279.141 799.756" enable-background="new 0 0 1279.141 799.756"
	 xml:space="preserve">
<polygon display="none" fill="#CA4A3F" points="866.178,4047.915 865.46,4047.021 354.947,3962.938 49.805,3772.411 
	182.261,3221.753 1135.441,3185.839 1138.117,3185.737 1196.816,2412.104 1197.041,2409.15 220.024,2322.105 118.758,1576.011 
	1210.703,1436.899 1215.243,1436.321 901.594,909.448 1028.944,655.89 1029.262,655.89 1028.947,655.884 1029.626,654.532 
	953.75,654.532 409.417,644.747 -1.598,501.913 -1.598,525.542 -1.598,531.829 408.465,660.396 408.904,660.532 1019.898,660.532 
	895.495,908.224 894.757,909.692 1205.405,1431.526 115,1570.442 112,1570.823 214.401,2325.284 214.723,2327.657 1190.61,2414.604 
	1132.539,3179.944 179.763,3215.843 177.491,3215.929 42.96,3775.212 352.278,3968.347 352.788,3968.665 862.224,4052.571 
	1276.066,4566.271 1280.738,4562.509 "/>
<polygon fill="#B8DEDB" points="1031.262,-138.241 1031.047,-138.241 1030.947,-138.068 "/>
<path fill="#575756" d="M685.423,110.014c3.521,0,5.954,2.272,5.954,5.602c0,3.313-2.465,5.603-6.066,5.603h-4.705v-11.204
	L685.423,110.014L685.423,110.014z M683.454,118.945h2.033c1.744,0,2.993-1.345,2.993-3.313c0-1.985-1.312-3.346-3.121-3.346h-1.905
	V118.945z"/>
<path fill="#575756" d="M695.118,119.153l-0.816,2.064h-2.93l4.834-11.204h2.93l4.723,11.204h-3.041l-0.802-2.064H695.118z
	 M697.583,112.847l-1.633,4.146h3.232L697.583,112.847z"/>
<path fill="#575756" d="M708.879,112.302v8.916h-2.849v-8.916h-3.347v-2.305h9.572v2.305H708.879z"/>
<path fill="#575756" d="M714.812,119.153l-0.815,2.064h-2.929l4.834-11.204h2.929l4.722,11.204h-3.041l-0.8-2.064H714.812z
	 M717.278,112.847l-1.632,4.146h3.231L717.278,112.847z"/>
<path fill="#575756" d="M732.83,114.639c1.633,0.257,2.785,1.329,2.785,3.058c0,2.145-1.682,3.649-4.29,3.649
	c-1.536,0-3.153-0.544-4.178-1.36l1.152-2.161c0.832,0.896,1.792,1.36,2.802,1.36c1.119,0,1.729-0.544,1.729-1.456
	c0-0.944-0.624-1.409-1.744-1.409h-1.793v-1.521l2.497-2.593h-4.082v-2.177h7.396v1.616l-2.803,2.914L732.83,114.639z"/>
</svg>
