<?xml version="1.0" encoding="utf-8"?>
<!-- Generator: Adobe Illustrator 16.0.0, SVG Export Plug-In . SVG Version: 6.00 Build 0)  -->
<!DOCTYPE svg PUBLIC "-//W3C//DTD SVG 1.1//EN" "http://www.w3.org/Graphics/SVG/1.1/DTD/svg11.dtd">
<svg version="1.1" id="Calque_1" xmlns="http://www.w3.org/2000/svg" xmlns:xlink="http://www.w3.org/1999/xlink" x="0px" y="0px"
	 width="1279.141px" height="799.756px" viewBox="0 0 1279.141 799.756" enable-background="new 0 0 1279.141 799.756"
	 xml:space="preserve">
<polygon display="none" fill="#CA4A3F" points="866.178,4047.915 865.46,4047.021 354.947,3962.938 49.805,3772.411 
	182.261,3221.753 1135.441,3185.839 1138.117,3185.737 1196.816,2412.104 1197.041,2409.15 220.024,2322.105 118.758,1576.011 
	1210.703,1436.899 1215.243,1436.321 901.594,909.448 1028.944,655.89 1029.262,655.89 1028.947,655.884 1029.626,654.532 
	953.75,654.532 409.417,644.747 -1.598,501.913 -1.598,525.542 -1.598,531.829 408.465,660.396 408.904,660.532 1019.898,660.532 
	895.495,908.224 894.757,909.692 1205.405,1431.526 115,1570.442 112,1570.823 214.401,2325.284 214.723,2327.657 1190.61,2414.604 
	1132.539,3179.944 179.763,3215.843 177.491,3215.929 42.96,3775.212 352.278,3968.347 352.788,3968.665 862.224,4052.571 
	1276.066,4566.271 1280.738,4562.509 "/>
<polygon fill="#B8DEDB" points="1031.262,-138.241 1031.047,-138.241 1030.947,-138.068 "/>
<line fill="none" stroke="#1D1D1B" stroke-width="0.5" stroke-miterlimit="10" x1="451.854" y1="327.87" x2="831.021" y2="327.87"/>
<line fill="none" stroke="#1D1D1B" stroke-width="0.5" stroke-miterlimit="10" x1="451.854" y1="246.823" x2="830.825" y2="246.823"/>
<line fill="none" stroke="#1D1D1B" stroke-width="0.5" stroke-miterlimit="10" x1="451.854" y1="408.917" x2="831.021" y2="408.917"/>
<line fill="none" stroke="#1D1D1B" stroke-width="0.5" stroke-miterlimit="10" x1="451.854" y1="164.201" x2="830.825" y2="164.201"/>
<g>
	<polygon fill="none" points="454.271,499.871 454.271,523.86 440.746,523.86 440.746,499.871 449.641,499.871 	"/>
	<path fill="#575756" d="M449.767,512.457c0.54,0,1.104,0.396,1.657,0.938l1.074,1.012v-2.1h1.002v3.728h-0.818l-1.884-1.777
		c-0.292-0.276-0.625-0.477-0.853-0.477c-0.285,0-0.455,0.206-0.455,0.562c0,0.405,0.242,0.903,0.633,1.358l-0.91,0.477
		c-0.469-0.626-0.747-1.309-0.747-2.02C448.466,513.168,448.979,512.457,449.767,512.457z"/>
	<path fill="#575756" d="M451.004,507.365c1.628,0,2.531,0.789,2.531,2.195c0,1.424-0.903,2.213-2.531,2.213
		c-1.622,0-2.523-0.789-2.523-2.213C448.48,508.154,449.383,507.365,451.004,507.365z M451.004,510.473
		c1.138,0,1.607-0.271,1.607-0.91c0-0.626-0.471-0.901-1.607-0.901s-1.6,0.275-1.6,0.901
		C449.404,510.202,449.867,510.473,451.004,510.473z"/>
	<path fill="#575756" d="M453.5,506.1h-3.968v0.917h-1.019v-2.183h4.984L453.5,506.1L453.5,506.1z"/>
	<path fill="#575756" d="M449.767,500.262c0.54,0,1.104,0.397,1.657,0.938l1.074,1.01v-2.098h1.002v3.726h-0.818l-1.884-1.777
		c-0.292-0.275-0.625-0.477-0.853-0.477c-0.285,0-0.455,0.206-0.455,0.562c0,0.403,0.242,0.901,0.633,1.356l-0.91,0.479
		c-0.469-0.626-0.747-1.311-0.747-2.021C448.466,500.973,448.979,500.262,449.767,500.262z"/>
</g>
<g>
	<polygon fill="none" points="520.943,499.871 520.943,523.86 507.418,523.86 507.418,499.871 516.312,499.871 	"/>
	<path fill="#575756" d="M516.438,512.159c0.541,0,1.104,0.396,1.657,0.938l1.073,1.012v-2.1h1.003v3.728h-0.817l-1.885-1.777
		c-0.291-0.277-0.626-0.477-0.854-0.477c-0.284,0-0.455,0.205-0.455,0.562c0,0.405,0.242,0.903,0.633,1.358l-0.91,0.477
		c-0.469-0.626-0.746-1.309-0.746-2.02C515.138,512.87,515.649,512.159,516.438,512.159z"/>
	<path fill="#575756" d="M517.676,507.067c1.629,0,2.531,0.789,2.531,2.195c0,1.422-0.902,2.211-2.531,2.211
		c-1.621,0-2.522-0.789-2.522-2.211C515.151,507.856,516.055,507.067,517.676,507.067z M517.676,510.175
		c1.14,0,1.607-0.271,1.607-0.91c0-0.626-0.47-0.901-1.607-0.901c-1.137,0-1.6,0.275-1.6,0.901
		C516.076,509.904,516.538,510.175,517.676,510.175z"/>
	<path fill="#575756" d="M520.172,505.802h-3.968v0.917h-1.019v-2.183h4.984L520.172,505.802L520.172,505.802z"/>
	<path fill="#575756" d="M517.249,501.329c0.114-0.728,0.591-1.237,1.358-1.237c0.951,0,1.619,0.746,1.619,1.905
		c0,0.683-0.239,1.401-0.604,1.854l-0.96-0.513c0.396-0.369,0.604-0.796,0.604-1.244c0-0.498-0.239-0.768-0.646-0.768
		c-0.42,0-0.626,0.277-0.626,0.772v0.799h-0.676l-1.151-1.109v1.812H515.2v-3.283h0.719l1.294,1.243L517.249,501.329z"/>
</g>
<g>
	<polygon fill="none" points="651.381,499.871 651.381,523.86 637.855,523.86 637.855,499.871 646.75,499.871 	"/>
	<path fill="#575756" d="M646.875,512.692c0.541,0,1.104,0.396,1.657,0.938l1.073,1.01v-2.098h1.003v3.726h-0.817l-1.885-1.775
		c-0.291-0.277-0.626-0.479-0.854-0.479c-0.284,0-0.455,0.206-0.455,0.562c0,0.405,0.242,0.902,0.632,1.356l-0.908,0.479
		c-0.471-0.626-0.746-1.311-0.746-2.021C645.575,513.403,646.086,512.692,646.875,512.692z"/>
	<path fill="#575756" d="M648.112,507.601c1.629,0,2.529,0.789,2.529,2.197c0,1.422-0.9,2.211-2.529,2.211
		c-1.621,0-2.524-0.789-2.524-2.211C645.588,508.39,646.492,507.601,648.112,507.601z M648.112,510.708
		c1.138,0,1.605-0.271,1.605-0.91c0-0.626-0.47-0.903-1.605-0.903c-1.139,0-1.601,0.277-1.601,0.903
		C646.513,510.438,646.975,510.708,648.112,510.708z"/>
	<path fill="#575756" d="M650.608,506.335h-3.97v0.917h-1.016v-2.183h4.984L650.608,506.335L650.608,506.335z"/>
	<path fill="#575756" d="M648.554,501.819h-1.064v-1.173h1.064v-0.678h0.96v0.678h1.097v1.173h-1.097v2.358h-0.847l-3.036-1.569
		v-1.218l2.922,1.479L648.554,501.819L648.554,501.819z"/>
</g>
<g>
	<polygon fill="none" points="781.818,499.871 781.818,523.86 768.293,523.86 768.293,499.871 777.188,499.871 	"/>
	<path fill="#575756" d="M777.312,512.422c0.541,0,1.104,0.397,1.656,0.938l1.073,1.01v-2.099h1.003v3.727h-0.817l-1.885-1.777
		c-0.291-0.275-0.626-0.477-0.854-0.477c-0.284,0-0.455,0.206-0.455,0.562c0,0.405,0.242,0.903,0.633,1.358l-0.91,0.477
		c-0.469-0.626-0.746-1.309-0.746-2.02C776.013,513.133,776.524,512.422,777.312,512.422z"/>
	<path fill="#575756" d="M778.551,507.33c1.629,0,2.531,0.789,2.531,2.197c0,1.422-0.902,2.211-2.531,2.211
		c-1.621,0-2.522-0.789-2.522-2.211C776.026,508.119,776.93,507.33,778.551,507.33z M778.551,510.438
		c1.14,0,1.607-0.271,1.607-0.908c0-0.626-0.47-0.903-1.607-0.903c-1.137,0-1.6,0.277-1.6,0.903
		C776.951,510.167,777.413,510.438,778.551,510.438z"/>
	<path fill="#575756" d="M781.047,506.064h-3.968v0.917h-1.019v-2.185h4.984L781.047,506.064L781.047,506.064z"/>
	<path fill="#575756" d="M777.072,502.431h0.804v-0.446c0-1.14,0.611-1.886,1.5-1.886c1.045,0,1.721,0.782,1.721,1.983
		c0,0.654-0.249,1.401-0.617,1.92l-0.959-0.505c0.396-0.37,0.609-0.817,0.609-1.266c0-0.49-0.242-0.775-0.669-0.775
		c-0.391,0-0.618,0.285-0.618,0.775c0,0.256,0.016,1.045,0.035,1.351h-2.809v-3.264h1.003V502.431z"/>
</g>
<g>
	<polygon fill="none" points="442.947,495.094 416.807,495.094 416.807,481.568 442.947,481.568 442.947,490.463 	"/>
	<path fill="#575756" d="M442.646,491.825c0,1.629-0.789,2.531-2.196,2.531c-1.422,0-2.212-0.902-2.212-2.531
		c0-1.621,0.79-2.524,2.212-2.524C441.857,489.301,442.646,490.204,442.646,491.825z M439.54,491.825c0,1.138,0.27,1.605,0.91,1.605
		c0.626,0,0.9-0.47,0.9-1.605s-0.274-1.602-0.9-1.602C439.81,490.226,439.54,490.688,439.54,491.825z"/>
</g>
<g>
	<polygon fill="none" points="442.947,419.442 416.807,419.442 416.807,405.917 442.947,405.917 442.947,414.812 	"/>
	<path fill="#575756" d="M424.338,418.67v-3.968h-0.918v-1.019h2.184v4.984L424.338,418.67L424.338,418.67z"/>
	<path fill="#575756" d="M432.65,416.174c0,1.629-0.79,2.531-2.197,2.531c-1.422,0-2.212-0.902-2.212-2.531
		c0-1.621,0.79-2.522,2.212-2.522C431.86,413.649,432.65,414.553,432.65,416.174z M429.543,416.174c0,1.14,0.27,1.607,0.91,1.607
		c0.626,0,0.902-0.472,0.902-1.607s-0.276-1.6-0.902-1.6C429.812,414.574,429.543,415.036,429.543,416.174z"/>
	<path fill="#575756" d="M437.649,416.174c0,1.629-0.79,2.531-2.197,2.531c-1.422,0-2.212-0.902-2.212-2.531
		c0-1.621,0.79-2.522,2.212-2.522C436.859,413.649,437.649,414.553,437.649,416.174z M434.542,416.174
		c0,1.14,0.271,1.607,0.91,1.607c0.626,0,0.901-0.472,0.901-1.607s-0.275-1.6-0.901-1.6
		C434.812,414.574,434.542,415.036,434.542,416.174z"/>
	<path fill="#575756" d="M442.648,416.174c0,1.629-0.79,2.531-2.197,2.531c-1.422,0-2.212-0.902-2.212-2.531
		c0-1.621,0.79-2.522,2.212-2.522C441.858,413.649,442.648,414.553,442.648,416.174z M439.541,416.174c0,1.14,0.27,1.607,0.91,1.607
		c0.626,0,0.902-0.472,0.902-1.607s-0.276-1.6-0.902-1.6C439.811,414.574,439.541,415.036,439.541,416.174z"/>
</g>
<g>
	<polygon fill="none" points="442.947,328.806 416.807,328.806 416.807,315.281 442.947,315.281 442.947,324.175 	"/>
	<path fill="#575756" d="M425.909,324.3c0,0.541-0.398,1.104-0.939,1.657l-1.01,1.073h2.098v1.003h-3.726v-0.817l1.777-1.885
		c0.275-0.291,0.477-0.626,0.477-0.854c0-0.282-0.206-0.453-0.562-0.453c-0.403,0-0.901,0.24-1.356,0.633l-0.478-0.91
		c0.625-0.469,1.31-0.746,2.021-0.746C425.197,323,425.909,323.511,425.909,324.3z"/>
	<path fill="#575756" d="M432.65,325.538c0,1.629-0.79,2.531-2.197,2.531c-1.422,0-2.212-0.902-2.212-2.531
		c0-1.621,0.79-2.524,2.212-2.524C431.86,323.013,432.65,323.917,432.65,325.538z M429.543,325.538c0,1.138,0.27,1.605,0.91,1.605
		c0.626,0,0.902-0.47,0.902-1.605s-0.276-1.602-0.902-1.602C429.812,323.938,429.543,324.4,429.543,325.538z"/>
	<path fill="#575756" d="M437.649,325.538c0,1.629-0.79,2.531-2.197,2.531c-1.422,0-2.212-0.902-2.212-2.531
		c0-1.621,0.79-2.524,2.212-2.524C436.859,323.013,437.649,323.917,437.649,325.538z M434.542,325.538
		c0,1.138,0.271,1.605,0.91,1.605c0.626,0,0.901-0.47,0.901-1.605s-0.275-1.602-0.901-1.602
		C434.812,323.938,434.542,324.4,434.542,325.538z"/>
	<path fill="#575756" d="M442.648,325.538c0,1.629-0.79,2.531-2.197,2.531c-1.422,0-2.212-0.902-2.212-2.531
		c0-1.621,0.79-2.524,2.212-2.524C441.858,323.013,442.648,323.917,442.648,325.538z M439.541,325.538
		c0,1.138,0.27,1.605,0.91,1.605c0.626,0,0.902-0.47,0.902-1.605s-0.276-1.602-0.902-1.602
		C439.811,323.938,439.541,324.4,439.541,325.538z"/>
</g>
<g>
	<polygon fill="none" points="442.947,249.755 416.807,249.755 416.807,236.229 442.947,236.229 442.947,245.124 	"/>
	<path fill="#575756" d="M424.842,246.059c0.728,0.114,1.237,0.591,1.237,1.358c0,0.953-0.747,1.621-1.905,1.621
		c-0.683,0-1.399-0.241-1.854-0.604l0.512-0.96c0.37,0.398,0.797,0.604,1.245,0.604c0.497,0,0.768-0.241,0.768-0.646
		c0-0.42-0.275-0.626-0.773-0.626h-0.796v-0.676l1.107-1.151h-1.812v-0.968h3.285v0.719l-1.244,1.294L424.842,246.059z"/>
	<path fill="#575756" d="M432.649,246.486c0,1.629-0.789,2.531-2.197,2.531c-1.422,0-2.211-0.902-2.211-2.531
		c0-1.621,0.789-2.524,2.211-2.524C431.86,243.961,432.649,244.865,432.649,246.486z M429.542,246.486
		c0,1.138,0.271,1.607,0.91,1.607c0.626,0,0.903-0.47,0.903-1.607c0-1.137-0.277-1.6-0.903-1.6
		C429.812,244.886,429.542,245.348,429.542,246.486z"/>
	<path fill="#575756" d="M437.648,246.486c0,1.629-0.789,2.531-2.197,2.531c-1.422,0-2.211-0.902-2.211-2.531
		c0-1.621,0.789-2.524,2.211-2.524C436.859,243.961,437.648,244.865,437.648,246.486z M434.541,246.486
		c0,1.138,0.271,1.607,0.91,1.607c0.626,0,0.902-0.47,0.902-1.607c0-1.137-0.276-1.6-0.902-1.6
		C434.812,244.886,434.541,245.348,434.541,246.486z"/>
	<path fill="#575756" d="M442.646,246.486c0,1.629-0.788,2.531-2.196,2.531c-1.422,0-2.211-0.902-2.211-2.531
		c0-1.621,0.789-2.524,2.211-2.524C441.858,243.961,442.646,244.865,442.646,246.486z M439.54,246.486
		c0,1.138,0.271,1.607,0.91,1.607c0.626,0,0.903-0.47,0.903-1.607c0-1.137-0.277-1.6-0.903-1.6
		C439.811,244.886,439.54,245.348,439.54,246.486z"/>
</g>
<g>
	<polygon fill="none" points="442.947,164.201 416.807,164.201 416.807,150.676 442.947,150.676 442.947,159.569 	"/>
	<path fill="#575756" d="M424.352,161.373v-1.066h1.175v1.066h0.676v0.96h-0.676v1.095h-1.175v-1.095h-2.359v-0.847l1.57-3.036
		h1.218l-1.479,2.923H424.352L424.352,161.373z"/>
	<path fill="#575756" d="M432.649,160.932c0,1.629-0.789,2.531-2.197,2.531c-1.422,0-2.211-0.902-2.211-2.531
		c0-1.621,0.789-2.524,2.211-2.524C431.86,158.407,432.649,159.311,432.649,160.932z M429.542,160.932
		c0,1.138,0.271,1.607,0.91,1.607c0.626,0,0.903-0.47,0.903-1.607c0-1.137-0.277-1.6-0.903-1.6
		C429.812,159.332,429.542,159.794,429.542,160.932z"/>
	<path fill="#575756" d="M437.648,160.932c0,1.629-0.789,2.531-2.197,2.531c-1.422,0-2.211-0.902-2.211-2.531
		c0-1.621,0.789-2.524,2.211-2.524C436.859,158.407,437.648,159.311,437.648,160.932z M434.541,160.932
		c0,1.138,0.271,1.607,0.91,1.607c0.626,0,0.902-0.47,0.902-1.607c0-1.137-0.276-1.6-0.902-1.6
		C434.812,159.332,434.541,159.794,434.541,160.932z"/>
	<path fill="#575756" d="M442.646,160.932c0,1.629-0.788,2.531-2.196,2.531c-1.422,0-2.211-0.902-2.211-2.531
		c0-1.621,0.789-2.524,2.211-2.524C441.858,158.407,442.646,159.311,442.646,160.932z M439.54,160.932
		c0,1.138,0.271,1.607,0.91,1.607c0.626,0,0.903-0.47,0.903-1.607c0-1.137-0.277-1.6-0.903-1.6
		C439.811,159.332,439.54,159.794,439.54,160.932z"/>
</g>
</svg>
