<?xml version="1.0" encoding="utf-8"?>
<!-- Generator: Adobe Illustrator 16.0.0, SVG Export Plug-In . SVG Version: 6.00 Build 0)  -->
<!DOCTYPE svg PUBLIC "-//W3C//DTD SVG 1.1//EN" "http://www.w3.org/Graphics/SVG/1.1/DTD/svg11.dtd">
<svg version="1.1" id="Calque_1" xmlns="http://www.w3.org/2000/svg" xmlns:xlink="http://www.w3.org/1999/xlink" x="0px" y="0px"
	 width="1279.141px" height="799.756px" viewBox="0 0 1279.141 799.756" enable-background="new 0 0 1279.141 799.756"
	 xml:space="preserve">
<polygon display="none" fill="#CA4A3F" points="866.178,4047.915 865.46,4047.021 354.947,3962.938 49.805,3772.411 
	182.261,3221.753 1135.441,3185.839 1138.117,3185.737 1196.816,2412.104 1197.041,2409.15 220.024,2322.105 118.758,1576.011 
	1210.703,1436.899 1215.243,1436.321 901.594,909.448 1028.944,655.89 1029.262,655.89 1028.947,655.884 1029.626,654.532 
	953.75,654.532 409.417,644.747 -1.598,501.913 -1.598,525.542 -1.598,531.829 408.465,660.396 408.904,660.532 1019.898,660.532 
	895.495,908.224 894.757,909.692 1205.405,1431.526 115,1570.442 112,1570.823 214.401,2325.284 214.723,2327.657 1190.61,2414.604 
	1132.539,3179.944 179.763,3215.843 177.491,3215.929 42.96,3775.212 352.278,3968.347 352.788,3968.665 862.224,4052.571 
	1276.066,4566.271 1280.738,4562.509 "/>
<polygon fill="#B8DEDB" points="1031.262,-138.241 1031.047,-138.241 1030.947,-138.068 "/>
<path fill="#575756" d="M616.442,110.002c3.521,0,5.954,2.272,5.954,5.602c0,3.313-2.466,5.603-6.066,5.603h-4.706v-11.204
	L616.442,110.002L616.442,110.002z M614.474,118.934h2.033c1.745,0,2.993-1.345,2.993-3.313c0-1.985-1.312-3.346-3.121-3.346h-1.905
	V118.934z"/>
<path fill="#575756" d="M626.137,119.142l-0.815,2.064h-2.93l4.834-11.204h2.93l4.722,11.204h-3.041l-0.8-2.064H626.137z
	 M628.602,112.835l-1.632,4.146h3.233L628.602,112.835z"/>
<path fill="#575756" d="M639.898,112.29v8.916h-2.85v-8.916h-3.346v-2.305h9.572v2.305H639.898z"/>
<path fill="#575756" d="M645.833,119.142l-0.816,2.064h-2.93l4.834-11.204h2.93l4.723,11.204h-3.041l-0.802-2.064H645.833z
	 M648.298,112.835l-1.633,4.146h3.233L648.298,112.835z"/>
<path fill="#575756" d="M666.923,112.803c0,1.217-0.896,2.48-2.113,3.729l-2.271,2.417h4.722v2.257h-8.388v-1.841l4.002-4.241
	c0.624-0.656,1.072-1.409,1.072-1.921c0-0.641-0.464-1.024-1.266-1.024c-0.911,0-2.031,0.544-3.057,1.424l-1.073-2.049
	c1.409-1.056,2.945-1.681,4.546-1.681C665.322,109.873,666.923,111.026,666.923,112.803z"/>
<path fill="#575756" d="M672.006,123.159L677,108.081h1.104l-5.01,15.078H672.006z"/>
</svg>
