<?xml version="1.0" encoding="utf-8"?>
<!-- Generator: Adobe Illustrator 16.0.0, SVG Export Plug-In . SVG Version: 6.00 Build 0)  -->
<!DOCTYPE svg PUBLIC "-//W3C//DTD SVG 1.1//EN" "http://www.w3.org/Graphics/SVG/1.1/DTD/svg11.dtd">
<svg version="1.1" id="Calque_1" xmlns="http://www.w3.org/2000/svg" xmlns:xlink="http://www.w3.org/1999/xlink" x="0px" y="0px"
	 width="1279.141px" height="799.756px" viewBox="0 0 1279.141 799.756" enable-background="new 0 0 1279.141 799.756"
	 xml:space="preserve">
<polygon display="none" fill="#CA4A3F" points="866.178,4047.915 865.46,4047.021 354.947,3962.938 49.805,3772.411 
	182.261,3221.753 1135.441,3185.839 1138.117,3185.737 1196.816,2412.104 1197.041,2409.15 220.024,2322.105 118.758,1576.011 
	1210.703,1436.899 1215.243,1436.321 901.594,909.448 1028.944,655.89 1029.262,655.89 1028.947,655.884 1029.626,654.532 
	953.75,654.532 409.417,644.747 -1.598,501.913 -1.598,525.542 -1.598,531.829 408.465,660.396 408.904,660.532 1019.898,660.532 
	895.495,908.224 894.757,909.692 1205.405,1431.526 115,1570.442 112,1570.823 214.401,2325.284 214.723,2327.657 1190.61,2414.604 
	1132.539,3179.944 179.763,3215.843 177.491,3215.929 42.96,3775.212 352.278,3968.347 352.788,3968.665 862.224,4052.571 
	1276.066,4566.271 1280.738,4562.509 "/>
<polygon fill="#B8DEDB" points="1031.262,-138.241 1031.047,-138.241 1030.947,-138.068 "/>
<path fill="none" stroke="#E63238" stroke-width="6" stroke-miterlimit="10" d="M630.403,957.927"/>
<g>
	<g>
		<path fill="#FAF4E2" d="M225.275,779.794c0,1.85-1.489,3.408-3.398,3.408c-1.899,0-3.368-1.539-3.368-3.388
			c0-1.85,1.479-3.408,3.388-3.408C223.796,776.406,225.275,777.936,225.275,779.794z M218.938,779.814
			c0,1.608,1.269,2.928,2.938,2.928c1.679,0,2.978-1.339,2.978-2.948s-1.289-2.928-2.958-2.928
			C220.218,776.866,218.938,778.205,218.938,779.814z M223.246,778.575l-0.27,0.319c-0.28-0.26-0.64-0.42-1.029-0.42
			c-0.77,0-1.389,0.59-1.389,1.319c0,0.75,0.62,1.35,1.389,1.35c0.37,0,0.75-0.16,1.029-0.41l0.27,0.29
			c-0.35,0.34-0.83,0.55-1.319,0.55c-1.009,0-1.809-0.779-1.809-1.77c0-0.979,0.81-1.749,1.829-1.749
			C222.426,778.055,222.906,778.255,223.246,778.575z"/>
		<path fill="#FAF4E2" d="M229.566,776.296c2.039,0,3.598,1.51,3.598,3.498c0,1.989-1.569,3.498-3.628,3.498h-2.798v-6.996H229.566z
			 M227.538,782.532h2.039c1.559,0,2.778-1.169,2.778-2.729c0-1.568-1.239-2.738-2.809-2.738h-2.009V782.532z"/>
		<path fill="#FAF4E2" d="M235.067,781.523l-0.779,1.769h-0.85l3.138-6.996h0.83l3.128,6.996h-0.87l-0.78-1.769H235.067z
			 M236.966,777.206l-1.559,3.548h3.138L236.966,777.206z"/>
		<path fill="#FAF4E2" d="M243.117,777.065v6.227h-0.8v-6.227h-2.279v-0.77h5.367v0.77H243.117z"/>
		<path fill="#FAF4E2" d="M246.528,781.523l-0.779,1.769h-0.85l3.138-6.996h0.83l3.128,6.996h-0.87l-0.78-1.769H246.528z
			 M248.427,777.206l-1.559,3.548h3.138L248.427,777.206z"/>
		<path fill="#FAF4E2" d="M257.315,776.916l-0.34,0.749c-0.629-0.42-1.369-0.59-1.929-0.59c-0.899,0-1.489,0.34-1.489,0.93
			c0,1.799,3.938,0.859,3.928,3.398c0,1.169-1.029,1.919-2.528,1.919c-1.02,0-2.019-0.439-2.679-1.069l0.36-0.72
			c0.649,0.63,1.539,0.989,2.329,0.989c1.009,0,1.639-0.409,1.639-1.079c0.01-1.839-3.928-0.859-3.928-3.368
			c0-1.1,0.969-1.81,2.418-1.81C255.906,776.266,256.736,776.526,257.315,776.916z"/>
		<path fill="#FAF4E2" d="M261.757,776.296c1.729,0,2.729,0.859,2.729,2.349c0,1.55-1,2.438-2.729,2.438h-1.829v2.209h-0.799v-6.996
			H261.757z M259.928,780.313h1.799c1.259,0,1.989-0.56,1.989-1.648c0-1.06-0.729-1.6-1.989-1.6h-1.799V780.313z"/>
		<path fill="#FAF4E2" d="M272.484,779.794c0,1.969-1.619,3.538-3.658,3.538c-2.049,0-3.668-1.569-3.668-3.538
			c0-1.979,1.619-3.518,3.668-3.518C270.865,776.276,272.484,777.825,272.484,779.794z M265.968,779.794
			c0,1.539,1.299,2.769,2.858,2.769s2.838-1.229,2.838-2.769s-1.279-2.758-2.838-2.758S265.968,778.255,265.968,779.794z"/>
		<path fill="#FAF4E2" d="M277.076,781.063c-0.15,0.01-0.31,0.02-0.47,0.02h-1.859v2.209h-0.799v-6.996h2.658
			c1.749,0,2.759,0.859,2.759,2.349c0,1.159-0.56,1.939-1.569,2.269l1.639,2.379h-0.91L277.076,781.063z M276.606,780.313
			c1.27,0,1.989-0.56,1.989-1.648c0-1.06-0.72-1.6-1.989-1.6h-1.859v3.248H276.606z"/>
		<path fill="#FAF4E2" d="M283.307,777.065v6.227h-0.8v-6.227h-2.279v-0.77h5.367v0.77H283.307z"/>
		<path fill="#FAF4E2" d="M293.325,777.985c0,0.669-0.5,1.479-1.239,2.269l-2.149,2.278h3.788v0.76h-4.808v-0.659l2.619-2.849
			c0.59-0.59,0.959-1.239,0.959-1.689c0-0.68-0.52-1.089-1.399-1.089c-0.64,0-1.35,0.33-1.909,0.869l-0.35-0.64
			c0.68-0.609,1.529-0.97,2.358-0.97C292.486,776.266,293.325,776.936,293.325,777.985z"/>
		<path fill="#FAF4E2" d="M300.555,779.794c0,2.259-1.03,3.518-2.889,3.518s-2.888-1.259-2.888-3.518s1.029-3.518,2.888-3.518
			S300.555,777.535,300.555,779.794z M295.587,779.794c0,1.89,0.72,2.839,2.079,2.839c1.359,0,2.079-0.949,2.079-2.839
			c0-1.898-0.72-2.838-2.079-2.838C296.307,776.956,295.587,777.896,295.587,779.794z"/>
		<path fill="#FAF4E2" d="M302.677,783.292v-6.236h-1.419v-0.76h2.209v6.996H302.677z"/>
		<path fill="#FAF4E2" d="M306.367,777.065v1.969c0.359-0.06,0.859-0.1,1.179-0.1c1.469,0,2.409,0.869,2.409,2.069
			c0,1.398-0.97,2.308-2.469,2.308c-0.77,0-1.699-0.299-2.359-0.759l0.33-0.68c0.58,0.439,1.319,0.699,1.949,0.699
			c1.05,0,1.699-0.579,1.699-1.519c0-0.83-0.649-1.35-1.679-1.35c-0.459,0-1.299,0.07-1.799,0.17v-3.578h4.058v0.77H306.367z"/>
		<path fill="#FAF4E2" d="M313.827,780.554v-0.58h2.349v0.58H313.827z"/>
		<path fill="#FAF4E2" d="M321.227,781.523l-0.779,1.769h-0.85l3.138-6.996h0.83l3.128,6.996h-0.87l-0.78-1.769H321.227z
			 M323.125,777.206l-1.559,3.548h3.138L323.125,777.206z"/>
		<path fill="#FAF4E2" d="M330.625,776.296c2.039,0,3.598,1.51,3.598,3.498c0,1.989-1.569,3.498-3.628,3.498h-2.798v-6.996H330.625z
			 M328.596,782.532h2.039c1.559,0,2.778-1.169,2.778-2.729c0-1.568-1.239-2.738-2.809-2.738h-2.009V782.532z"/>
		<path fill="#FAF4E2" d="M336.486,777.065v2.299h3.528v0.77h-3.528v2.398h4.078v0.76h-4.877v-6.996h4.747v0.77H336.486z"/>
		<path fill="#FAF4E2" d="M346.064,782.532v0.76h-3.868v-6.996h0.799v6.236H346.064z"/>
		<path fill="#FAF4E2" d="M347.367,783.292v-6.996h0.799v6.996H347.367z"/>
		<path fill="#FAF4E2" d="M355.284,783.292l-4.198-5.616v5.616h-0.799v-6.996h0.83l4.197,5.627v-5.627h0.79v6.996H355.284z"/>
		<path fill="#FAF4E2" d="M359.036,777.065v2.299h3.528v0.77h-3.528v2.398h4.078v0.76h-4.877v-6.996h4.747v0.77H359.036z"/>
		<path fill="#FAF4E2" d="M368.286,777.065v2.459h3.268v0.77h-3.268v2.998h-0.799v-6.996h4.447v0.77H368.286z"/>
		<path fill="#FAF4E2" d="M376.244,781.063c-0.15,0.01-0.31,0.02-0.47,0.02h-1.859v2.209h-0.799v-6.996h2.658
			c1.749,0,2.759,0.859,2.759,2.349c0,1.159-0.56,1.939-1.569,2.269l1.639,2.379h-0.91L376.244,781.063z M375.774,780.313
			c1.27,0,1.989-0.56,1.989-1.648c0-1.06-0.72-1.6-1.989-1.6h-1.859v3.248H375.774z"/>
		<path fill="#FAF4E2" d="M381.146,777.065v2.299h3.528v0.77h-3.528v2.398h4.078v0.76h-4.877v-6.996h4.747v0.77H381.146z"/>
		<path fill="#FAF4E2" d="M390.724,782.532v0.76h-3.868v-6.996h0.799v6.236H390.724z"/>
		<path fill="#FAF4E2" d="M398.692,779.794c0,1.969-1.619,3.538-3.658,3.538c-2.049,0-3.668-1.569-3.668-3.538
			c0-1.979,1.619-3.518,3.668-3.518C397.073,776.276,398.692,777.825,398.692,779.794z M392.176,779.794
			c0,1.539,1.299,2.769,2.858,2.769s2.838-1.229,2.838-2.769s-1.279-2.758-2.838-2.758S392.176,778.255,392.176,779.794z"/>
		<path fill="#FAF4E2" d="M405.153,783.292l-4.198-5.616v5.616h-0.799v-6.996h0.83l4.197,5.627v-5.627h0.79v6.996H405.153z"/>
		<path fill="#FAF4E2" d="M408.525,782.862c0,0.16-0.06,0.29-0.15,0.43l-0.47,0.72h-0.439l0.33-0.729
			c-0.15-0.09-0.22-0.25-0.22-0.43c0-0.29,0.2-0.5,0.47-0.5C408.305,782.353,408.525,782.543,408.525,782.862z"/>
		<path fill="#FAF4E2" d="M417.113,776.916l-0.34,0.749c-0.629-0.42-1.369-0.59-1.929-0.59c-0.899,0-1.489,0.34-1.489,0.93
			c0,1.799,3.938,0.859,3.928,3.398c0,1.169-1.029,1.919-2.528,1.919c-1.02,0-2.019-0.439-2.679-1.069l0.36-0.72
			c0.649,0.63,1.539,0.989,2.329,0.989c1.009,0,1.639-0.409,1.639-1.079c0.01-1.839-3.928-0.859-3.928-3.368
			c0-1.1,0.969-1.81,2.418-1.81C415.704,776.266,416.533,776.526,417.113,776.916z"/>
		<path fill="#FAF4E2" d="M421.054,777.065v6.227h-0.8v-6.227h-2.279v-0.77h5.367v0.77H421.054z"/>
		<path fill="#FAF4E2" d="M425.305,777.065v2.299h3.528v0.77h-3.528v2.398h4.078v0.76h-4.877v-6.996h4.747v0.77H425.305z
			 M427.134,775.427h-0.75l1.199-1.359l0.79,0.38L427.134,775.427z"/>
		<path fill="#FAF4E2" d="M433.644,776.296c1.729,0,2.729,0.859,2.729,2.349c0,1.55-1,2.438-2.729,2.438h-1.829v2.209h-0.799v-6.996
			H433.644z M431.814,780.313h1.799c1.259,0,1.989-0.56,1.989-1.648c0-1.06-0.729-1.6-1.989-1.6h-1.799V780.313z"/>
		<path fill="#FAF4E2" d="M442.722,783.292v-3.078h-4.218v3.078h-0.799v-6.996h0.799v3.158h4.218v-3.158h0.8v6.996H442.722z"/>
		<path fill="#FAF4E2" d="M446.254,781.523l-0.779,1.769h-0.85l3.138-6.996h0.83l3.128,6.996h-0.87l-0.78-1.769H446.254z
			 M448.153,777.206l-1.559,3.548h3.138L448.153,777.206z"/>
		<path fill="#FAF4E2" d="M457.822,783.292l-4.198-5.616v5.616h-0.799v-6.996h0.83l4.197,5.627v-5.627h0.79v6.996H457.822z"/>
		<path fill="#FAF4E2" d="M460.775,783.292v-6.996h0.799v6.996H460.775z"/>
		<path fill="#FAF4E2" d="M464.494,777.065v2.299h3.528v0.77h-3.528v2.398h4.078v0.76h-4.877v-6.996h4.747v0.77H464.494z"/>
		<path fill="#FAF4E2" d="M477.961,783.292v-3.078h-4.218v3.078h-0.799v-6.996h0.799v3.158h4.218v-3.158h0.8v6.996H477.961z"/>
		<path fill="#FAF4E2" d="M481.494,781.523l-0.779,1.769h-0.85l3.138-6.996h0.83l3.128,6.996h-0.87l-0.78-1.769H481.494z
			 M483.393,777.206l-1.559,3.548h3.138L483.393,777.206z"/>
		<path fill="#FAF4E2" d="M494.401,783.292l-0.01-5.767l-2.548,5.027h-0.48l-2.539-5.027v5.767h-0.759v-6.996h0.989l2.559,5.037
			l2.549-5.037h0.979v6.996H494.401z"/>
		<path fill="#FAF4E2" d="M498.074,777.065v2.299h3.528v0.77h-3.528v2.398h4.078v0.76h-4.877v-6.996h4.747v0.77H498.074z"/>
		<path fill="#FAF4E2" d="M507.652,782.532v0.76h-3.868v-6.996h0.799v6.236H507.652z"/>
		<path fill="#FAF4E2" d="M508.954,783.292v-6.996h0.799v6.996H508.954z"/>
		<path fill="#FAF4E2" d="M516.871,783.292l-4.198-5.616v5.616h-0.799v-6.996h0.83l4.197,5.627v-5.627h0.79v6.996H516.871z"/>
		<path fill="#FAF4E2" d="M520.243,782.862c0,0.16-0.06,0.29-0.15,0.43l-0.47,0.72h-0.439l0.33-0.729
			c-0.15-0.09-0.22-0.25-0.22-0.43c0-0.29,0.2-0.5,0.47-0.5C520.023,782.353,520.243,782.543,520.243,782.862z"/>
		<path fill="#FAF4E2" d="M525.143,781.523l-0.779,1.769h-0.85l3.138-6.996h0.83l3.128,6.996h-0.87l-0.78-1.769H525.143z
			 M527.042,777.206l-1.559,3.548h3.138L527.042,777.206z"/>
		<path fill="#FAF4E2" d="M536.71,783.292l-4.198-5.616v5.616h-0.799v-6.996h0.83l4.197,5.627v-5.627h0.79v6.996H536.71z"/>
		<path fill="#FAF4E2" d="M541.792,777.065v6.227h-0.8v-6.227h-2.279v-0.77h5.367v0.77H541.792z"/>
		<path fill="#FAF4E2" d="M551.459,779.794c0,1.969-1.619,3.538-3.658,3.538c-2.049,0-3.668-1.569-3.668-3.538
			c0-1.979,1.619-3.518,3.668-3.518C549.84,776.276,551.459,777.825,551.459,779.794z M544.943,779.794
			c0,1.539,1.299,2.769,2.858,2.769s2.838-1.229,2.838-2.769s-1.279-2.758-2.838-2.758S544.943,778.255,544.943,779.794z"/>
		<path fill="#FAF4E2" d="M552.923,783.292v-6.996h0.799v6.996H552.923z"/>
		<path fill="#FAF4E2" d="M560.84,783.292l-4.198-5.616v5.616h-0.799v-6.996h0.83l4.197,5.627v-5.627h0.79v6.996H560.84z"/>
		<path fill="#FAF4E2" d="M564.593,777.065v2.299h3.528v0.77h-3.528v2.398h4.078v0.76h-4.877v-6.996h4.747v0.77H564.593z"/>
		<path fill="#FAF4E2" d="M579.379,783.292l-0.01-5.767l-2.548,5.027h-0.48l-2.539-5.027v5.767h-0.759v-6.996h0.989l2.559,5.037
			l2.549-5.037h0.979v6.996H579.379z"/>
		<path fill="#FAF4E2" d="M588.919,779.794c0,1.969-1.619,3.538-3.658,3.538c-2.049,0-3.668-1.569-3.668-3.538
			c0-1.979,1.619-3.518,3.668-3.518C587.3,776.276,588.919,777.825,588.919,779.794z M582.403,779.794
			c0,1.539,1.299,2.769,2.858,2.769s2.838-1.229,2.838-2.769s-1.279-2.758-2.838-2.758S582.403,778.255,582.403,779.794z"/>
		<path fill="#FAF4E2" d="M593.511,781.063c-0.15,0.01-0.31,0.02-0.47,0.02h-1.859v2.209h-0.799v-6.996h2.658
			c1.749,0,2.759,0.859,2.759,2.349c0,1.159-0.56,1.939-1.569,2.269l1.639,2.379h-0.91L593.511,781.063z M593.041,780.313
			c1.27,0,1.989-0.56,1.989-1.648c0-1.06-0.72-1.6-1.989-1.6h-1.859v3.248H593.041z"/>
		<path fill="#FAF4E2" d="M598.412,777.065v2.299h3.528v0.77h-3.528v2.398h4.078v0.76h-4.877v-6.996h4.747v0.77H598.412z"/>
		<path fill="#FAF4E2" d="M607.99,782.532v0.76h-3.868v-6.996h0.799v6.236H607.99z"/>
		<path fill="#FAF4E2" d="M609.712,782.862c0,0.16-0.06,0.29-0.15,0.43l-0.47,0.72h-0.439l0.33-0.729
			c-0.15-0.09-0.22-0.25-0.22-0.43c0-0.29,0.2-0.5,0.47-0.5C609.492,782.353,609.712,782.543,609.712,782.862z"/>
		<path fill="#FAF4E2" d="M616.631,776.296c1.729,0,2.729,0.859,2.729,2.349c0,1.55-1,2.438-2.729,2.438h-1.829v2.209h-0.799v-6.996
			H616.631z M614.802,780.313h1.799c1.259,0,1.989-0.56,1.989-1.648c0-1.06-0.729-1.6-1.989-1.6h-1.799V780.313z"/>
		<path fill="#FAF4E2" d="M620.692,783.292v-6.996h0.799v6.996H620.692z"/>
		<path fill="#FAF4E2" d="M624.412,777.065v2.299h3.528v0.77h-3.528v2.398h4.078v0.76h-4.877v-6.996h4.747v0.77H624.412z"/>
		<path fill="#FAF4E2" d="M633.25,781.063c-0.15,0.01-0.31,0.02-0.47,0.02h-1.859v2.209h-0.799v-6.996h2.658
			c1.749,0,2.759,0.859,2.759,2.349c0,1.159-0.56,1.939-1.569,2.269l1.639,2.379h-0.91L633.25,781.063z M632.78,780.313
			c1.27,0,1.989-0.56,1.989-1.648c0-1.06-0.72-1.6-1.989-1.6h-1.859v3.248H632.78z"/>
		<path fill="#FAF4E2" d="M640.48,781.063c-0.149,0.01-0.31,0.02-0.47,0.02h-1.859v2.209h-0.799v-6.996h2.658
			c1.75,0,2.759,0.859,2.759,2.349c0,1.159-0.56,1.939-1.569,2.269l1.64,2.379h-0.91L640.48,781.063z M640.01,780.313
			c1.27,0,1.99-0.56,1.99-1.648c0-1.06-0.72-1.6-1.99-1.6h-1.859v3.248H640.01z"/>
		<path fill="#FAF4E2" d="M645.382,777.065v2.299h3.527v0.77h-3.527v2.398h4.077v0.76h-4.877v-6.996h4.747v0.77H645.382z"/>
		<path fill="#FAF4E2" d="M657.7,782.532v0.76h-3.868v-6.996h0.8v6.236H657.7z"/>
		<path fill="#FAF4E2" d="M659.691,781.523l-0.779,1.769h-0.85l3.139-6.996h0.829l3.128,6.996h-0.869l-0.779-1.769H659.691z
			 M661.591,777.206l-1.56,3.548h3.139L661.591,777.206z"/>
		<path fill="#FAF4E2" d="M667.741,777.065v6.227h-0.8v-6.227h-2.278v-0.77h5.366v0.77H667.741z"/>
		<path fill="#FAF4E2" d="M677.408,779.794c0,1.969-1.619,3.538-3.658,3.538c-2.049,0-3.668-1.569-3.668-3.538
			c0-1.979,1.619-3.518,3.668-3.518C675.789,776.276,677.408,777.825,677.408,779.794z M670.892,779.794
			c0,1.539,1.3,2.769,2.858,2.769c1.56,0,2.839-1.229,2.839-2.769s-1.279-2.758-2.839-2.758
			C672.191,777.036,670.892,778.255,670.892,779.794z"/>
		<path fill="#FAF4E2" d="M684.589,780.414c0,1.818-1.1,2.918-2.929,2.918c-1.839,0-2.948-1.1-2.948-2.918v-4.118h0.8v4.118
			c0,1.359,0.819,2.148,2.148,2.148s2.129-0.789,2.129-2.148v-4.118h0.8V780.414z"/>
		<path fill="#FAF4E2" d="M689.68,781.063c-0.149,0.01-0.31,0.02-0.47,0.02h-1.858v2.209h-0.8v-6.996h2.658
			c1.749,0,2.759,0.859,2.759,2.349c0,1.159-0.56,1.939-1.569,2.269l1.64,2.379h-0.91L689.68,781.063z M689.21,780.313
			c1.27,0,1.989-0.56,1.989-1.648c0-1.06-0.72-1.6-1.989-1.6h-1.858v3.248H689.21z"/>
		<path fill="#FAF4E2" d="M694.202,782.862c0,0.16-0.061,0.29-0.15,0.43l-0.47,0.72h-0.439l0.33-0.729
			c-0.15-0.09-0.221-0.25-0.221-0.43c0-0.29,0.2-0.5,0.47-0.5C693.982,782.353,694.202,782.543,694.202,782.862z"/>
		<path fill="#FAF4E2" d="M704.038,777.296l-0.479,0.609c-0.54-0.55-1.3-0.88-2.069-0.88c-1.579,0-2.849,1.22-2.849,2.759
			c0,1.529,1.27,2.759,2.849,2.759c0.77,0,1.52-0.32,2.069-0.84l0.489,0.55c-0.689,0.649-1.629,1.079-2.599,1.079
			c-2.019,0-3.618-1.569-3.618-3.548c0-1.959,1.619-3.508,3.648-3.508C702.438,776.276,703.368,776.666,704.038,777.296z"/>
		<path fill="#FAF4E2" d="M711.987,779.794c0,1.969-1.619,3.538-3.658,3.538c-2.049,0-3.668-1.569-3.668-3.538
			c0-1.979,1.619-3.518,3.668-3.518C710.368,776.276,711.987,777.825,711.987,779.794z M705.471,779.794
			c0,1.539,1.3,2.769,2.858,2.769c1.56,0,2.839-1.229,2.839-2.769s-1.279-2.758-2.839-2.758
			C706.771,777.036,705.471,778.255,705.471,779.794z"/>
		<path fill="#FAF4E2" d="M716.579,781.063c-0.149,0.01-0.31,0.02-0.47,0.02h-1.858v2.209h-0.8v-6.996h2.658
			c1.749,0,2.759,0.859,2.759,2.349c0,1.159-0.56,1.939-1.569,2.269l1.64,2.379h-0.91L716.579,781.063z M716.109,780.313
			c1.27,0,1.989-0.56,1.989-1.648c0-1.06-0.72-1.6-1.989-1.6h-1.858v3.248H716.109z"/>
		<path fill="#FAF4E2" d="M721.481,777.065v2.299h3.527v0.77h-3.527v2.398h4.077v0.76h-4.877v-6.996h4.747v0.77H721.481z"/>
		<path fill="#FAF4E2" d="M732.188,783.292l-4.197-5.616v5.616h-0.8v-6.996h0.829l4.198,5.627v-5.627h0.789v6.996H732.188z"/>
		<path fill="#FAF4E2" d="M737.271,777.065v6.227h-0.8v-6.227h-2.278v-0.77h5.366v0.77H737.271z"/>
		<path fill="#FAF4E2" d="M740.721,783.292v-6.996h0.8v6.996H740.721z"/>
		<path fill="#FAF4E2" d="M748.638,783.292l-4.197-5.616v5.616h-0.8v-6.996h0.829l4.198,5.627v-5.627h0.789v6.996H748.638z"/>
		<path fill="#FAF4E2" d="M757.279,776.296c1.409,0,2.259,0.649,2.259,1.749c0,0.819-0.47,1.409-1.289,1.579
			c1.009,0.15,1.599,0.81,1.599,1.77c0,1.189-0.939,1.898-2.519,1.898h-2.998v-6.996H757.279z M755.131,779.314h2.108
			c0.939,0,1.489-0.41,1.489-1.14c0-0.709-0.55-1.109-1.489-1.109h-2.108V779.314z M755.131,782.532h2.108
			c1.14,0,1.799-0.449,1.799-1.249c0-0.76-0.659-1.209-1.799-1.209h-2.108V782.532z"/>
		<path fill="#FAF4E2" d="M762.101,781.523l-0.779,1.769h-0.85l3.139-6.996h0.829l3.128,6.996h-0.869l-0.779-1.769H762.101z
			 M764,777.206l-1.56,3.548h3.139L764,777.206z"/>
		<path fill="#FAF4E2" d="M774.188,780.414c0,1.818-1.1,2.918-2.929,2.918c-1.839,0-2.948-1.1-2.948-2.918v-4.118h0.8v4.118
			c0,1.359,0.819,2.148,2.148,2.148s2.129-0.789,2.129-2.148v-4.118h0.8V780.414z"/>
		<path fill="#FAF4E2" d="M778.979,776.296c2.039,0,3.599,1.51,3.599,3.498c0,1.989-1.569,3.498-3.629,3.498h-2.798v-6.996H778.979z
			 M776.95,782.532h2.038c1.56,0,2.779-1.169,2.779-2.729c0-1.568-1.239-2.738-2.809-2.738h-2.009V782.532z"/>
		<path fill="#FAF4E2" d="M787.169,781.063c-0.149,0.01-0.31,0.02-0.47,0.02h-1.858v2.209h-0.8v-6.996h2.658
			c1.749,0,2.759,0.859,2.759,2.349c0,1.159-0.56,1.939-1.569,2.269l1.64,2.379h-0.91L787.169,781.063z M786.699,780.313
			c1.27,0,1.989-0.56,1.989-1.648c0-1.06-0.72-1.6-1.989-1.6h-1.858v3.248H786.699z"/>
		<path fill="#FAF4E2" d="M793.659,783.292h-0.79v-2.368l-2.708-4.628h0.829l2.27,3.648l2.238-3.648h0.819l-2.658,4.598V783.292z"/>
		<path fill="#FAF4E2" d="M797.851,782.862c0,0.16-0.061,0.29-0.15,0.43l-0.47,0.72h-0.439l0.33-0.729
			c-0.15-0.09-0.221-0.25-0.221-0.43c0-0.29,0.2-0.5,0.47-0.5C797.631,782.353,797.851,782.543,797.851,782.862z"/>
		<path fill="#FAF4E2" d="M802.75,781.523l-0.779,1.769h-0.85l3.139-6.996h0.829l3.128,6.996h-0.869l-0.779-1.769H802.75z
			 M804.649,777.206l-1.56,3.548h3.139L804.649,777.206z"/>
		<path fill="#FAF4E2" d="M812.448,781.063c-0.149,0.01-0.31,0.02-0.47,0.02h-1.858v2.209h-0.8v-6.996h2.658
			c1.749,0,2.759,0.859,2.759,2.349c0,1.159-0.56,1.939-1.569,2.269l1.64,2.379h-0.91L812.448,781.063z M811.979,780.313
			c1.27,0,1.989-0.56,1.989-1.648c0-1.06-0.72-1.6-1.989-1.6h-1.858v3.248H811.979z"/>
		<path fill="#FAF4E2" d="M818.679,777.065v6.227h-0.8v-6.227h-2.278v-0.77h5.366v0.77H818.679z"/>
		<path fill="#FAF4E2" d="M827.147,783.292v-3.078h-4.218v3.078h-0.8v-6.996h0.8v3.158h4.218v-3.158h0.799v6.996H827.147z"/>
		<path fill="#FAF4E2" d="M835.787,780.414c0,1.818-1.1,2.918-2.929,2.918c-1.839,0-2.948-1.1-2.948-2.918v-4.118h0.8v4.118
			c0,1.359,0.819,2.148,2.148,2.148s2.129-0.789,2.129-2.148v-4.118h0.8V780.414z"/>
		<path fill="#FAF4E2" d="M840.878,781.063c-0.149,0.01-0.31,0.02-0.47,0.02h-1.858v2.209h-0.8v-6.996h2.658
			c1.749,0,2.759,0.859,2.759,2.349c0,1.159-0.56,1.939-1.569,2.269l1.64,2.379h-0.91L840.878,781.063z M840.408,780.313
			c1.27,0,1.989-0.56,1.989-1.648c0-1.06-0.72-1.6-1.989-1.6h-1.858v3.248H840.408z"/>
		<path fill="#FAF4E2" d="M850.348,776.296c1.729,0,2.729,0.859,2.729,2.349c0,1.55-0.999,2.438-2.729,2.438h-1.828v2.209h-0.8
			v-6.996H850.348z M848.52,780.313h1.799c1.259,0,1.988-0.56,1.988-1.648c0-1.06-0.729-1.6-1.988-1.6h-1.799V780.313z"/>
		<path fill="#FAF4E2" d="M859.427,783.292v-3.078h-4.217v3.078h-0.8v-6.996h0.8v3.158h4.217v-3.158h0.8v6.996H859.427z"/>
		<path fill="#FAF4E2" d="M863.149,777.065v2.299h3.527v0.77h-3.527v2.398h4.077v0.76h-4.877v-6.996h4.747v0.77H863.149z"/>
		<path fill="#FAF4E2" d="M872.728,782.532v0.76h-3.868v-6.996h0.8v6.236H872.728z"/>
		<path fill="#FAF4E2" d="M874.029,783.292v-6.996h0.8v6.996H874.029z"/>
		<path fill="#FAF4E2" d="M879.577,776.296c1.729,0,2.729,0.859,2.729,2.349c0,1.55-0.999,2.438-2.729,2.438h-1.828v2.209h-0.8
			v-6.996H879.577z M877.749,780.313h1.799c1.259,0,1.988-0.56,1.988-1.648c0-1.06-0.729-1.6-1.988-1.6h-1.799V780.313z"/>
		<path fill="#FAF4E2" d="M886.268,776.296c1.729,0,2.729,0.859,2.729,2.349c0,1.55-0.999,2.438-2.729,2.438h-1.828v2.209h-0.8
			v-6.996H886.268z M884.439,780.313h1.799c1.259,0,1.988-0.56,1.988-1.648c0-1.06-0.729-1.6-1.988-1.6h-1.799V780.313z"/>
		<path fill="#FAF4E2" d="M891.129,777.065v2.299h3.527v0.77h-3.527v2.398h4.077v0.76h-4.877v-6.996h4.747v0.77H891.129z"/>
		<path fill="#FAF4E2" d="M897.448,781.523l-0.779,1.769h-0.85l3.139-6.996h0.829l3.128,6.996h-0.869l-0.779-1.769H897.448z
			 M899.348,777.206l-1.56,3.548h3.139L899.348,777.206z"/>
		<path fill="#FAF4E2" d="M909.536,780.414c0,1.818-1.1,2.918-2.929,2.918c-1.839,0-2.948-1.1-2.948-2.918v-4.118h0.8v4.118
			c0,1.359,0.819,2.148,2.148,2.148s2.129-0.789,2.129-2.148v-4.118h0.8V780.414z"/>
		<path fill="#FAF4E2" d="M911.919,782.862c0,0.16-0.061,0.29-0.15,0.43l-0.47,0.72h-0.439l0.33-0.729
			c-0.15-0.09-0.221-0.25-0.221-0.43c0-0.29,0.2-0.5,0.47-0.5C911.699,782.353,911.919,782.543,911.919,782.862z"/>
		<path fill="#FAF4E2" d="M921.506,783.292h-0.959l-2.129-2.928l-2.109,2.928h-0.939l2.568-3.598l-2.389-3.398h0.939l1.93,2.698
			l1.948-2.698h0.939l-2.378,3.358L921.506,783.292z"/>
		<path fill="#FAF4E2" d="M923.468,781.523l-0.779,1.769h-0.85l3.139-6.996h0.829l3.128,6.996h-0.869l-0.779-1.769H923.468z
			 M925.367,777.206l-1.56,3.548h3.139L925.367,777.206z"/>
		<path fill="#FAF4E2" d="M931.418,783.292l-2.839-6.996h0.86l2.408,6.066l2.419-6.066h0.839l-2.858,6.996H931.418z"/>
		<path fill="#FAF4E2" d="M936.229,783.292v-6.996h0.8v6.996H936.229z"/>
		<path fill="#FAF4E2" d="M939.948,777.065v2.299h3.527v0.77h-3.527v2.398h4.077v0.76h-4.877v-6.996h4.747v0.77H939.948z"/>
		<path fill="#FAF4E2" d="M948.786,781.063c-0.149,0.01-0.31,0.02-0.47,0.02h-1.858v2.209h-0.8v-6.996h2.658
			c1.749,0,2.759,0.859,2.759,2.349c0,1.159-0.56,1.939-1.569,2.269l1.64,2.379h-0.91L948.786,781.063z M948.316,780.313
			c1.27,0,1.989-0.56,1.989-1.648c0-1.06-0.72-1.6-1.989-1.6h-1.858v3.248H948.316z"/>
		<path fill="#FAF4E2" d="M958.256,776.296c1.729,0,2.729,0.859,2.729,2.349c0,1.55-0.999,2.438-2.729,2.438h-1.828v2.209h-0.8
			v-6.996H958.256z M956.428,780.313h1.799c1.259,0,1.988-0.56,1.988-1.648c0-1.06-0.729-1.6-1.988-1.6h-1.799V780.313z"/>
		<path fill="#FAF4E2" d="M968.984,779.794c0,1.969-1.619,3.538-3.658,3.538c-2.049,0-3.668-1.569-3.668-3.538
			c0-1.979,1.619-3.518,3.668-3.518C967.365,776.276,968.984,777.825,968.984,779.794z M962.468,779.794
			c0,1.539,1.3,2.769,2.858,2.769c1.56,0,2.839-1.229,2.839-2.769s-1.279-2.758-2.839-2.758
			C963.768,777.036,962.468,778.255,962.468,779.794z"/>
		<path fill="#FAF4E2" d="M970.868,782.532h4.688l-0.011,0.76h-5.727v-0.64l4.638-5.587h-4.508v-0.77h5.557v0.64L970.868,782.532z"
			/>
		<path fill="#FAF4E2" d="M977.468,782.532h4.688l-0.011,0.76h-5.727v-0.64l4.638-5.587h-4.508v-0.77h5.557v0.64L977.468,782.532z"
			/>
		<path fill="#FAF4E2" d="M990.313,779.794c0,1.969-1.619,3.538-3.658,3.538c-2.049,0-3.668-1.569-3.668-3.538
			c0-1.979,1.619-3.518,3.668-3.518C988.694,776.276,990.313,777.825,990.313,779.794z M983.797,779.794
			c0,1.539,1.3,2.769,2.858,2.769c1.56,0,2.839-1.229,2.839-2.769s-1.279-2.758-2.839-2.758
			C985.097,777.036,983.797,778.255,983.797,779.794z"/>
		<path fill="#FAF4E2" d="M992.197,782.862c0,0.16-0.061,0.29-0.15,0.43l-0.47,0.72h-0.439l0.33-0.729
			c-0.15-0.09-0.221-0.25-0.221-0.43c0-0.29,0.2-0.5,0.47-0.5C991.978,782.353,992.197,782.543,992.197,782.862z"/>
		<path fill="#FAF4E2" d="M1000.785,776.916l-0.34,0.749c-0.63-0.42-1.369-0.59-1.93-0.59c-0.899,0-1.489,0.34-1.489,0.93
			c0,1.799,3.938,0.859,3.929,3.398c0,1.169-1.03,1.919-2.529,1.919c-1.02,0-2.019-0.439-2.679-1.069l0.36-0.72
			c0.649,0.63,1.539,0.989,2.329,0.989c1.009,0,1.639-0.409,1.639-1.079c0.01-1.839-3.928-0.859-3.928-3.368
			c0-1.1,0.97-1.81,2.419-1.81C999.376,776.266,1000.205,776.526,1000.785,776.916z"/>
		<path fill="#FAF4E2" d="M1002.598,783.292v-6.996h0.8v6.996H1002.598z"/>
		<path fill="#FAF4E2" d="M1011.854,783.292l-0.01-5.767l-2.549,5.027h-0.479l-2.538-5.027v5.767h-0.76v-6.996h0.989l2.559,5.037
			l2.549-5.037h0.979v6.996H1011.854z"/>
		<path fill="#FAF4E2" d="M1021.394,779.794c0,1.969-1.619,3.538-3.658,3.538c-2.049,0-3.668-1.569-3.668-3.538
			c0-1.979,1.619-3.518,3.668-3.518C1019.774,776.276,1021.394,777.825,1021.394,779.794z M1014.877,779.794
			c0,1.539,1.3,2.769,2.858,2.769c1.56,0,2.839-1.229,2.839-2.769s-1.279-2.758-2.839-2.758
			C1016.177,777.036,1014.877,778.255,1014.877,779.794z"/>
		<path fill="#FAF4E2" d="M1027.854,783.292l-4.197-5.616v5.616h-0.8v-6.996h0.829l4.198,5.627v-5.627h0.789v6.996H1027.854z"/>
		<path fill="#FAF4E2" d="M1035.676,777.065v6.227h-0.8v-6.227h-2.278v-0.77h5.366v0.77H1035.676z"/>
		<path fill="#FAF4E2" d="M1039.086,781.523l-0.779,1.769h-0.85l3.139-6.996h0.829l3.128,6.996h-0.869l-0.779-1.769H1039.086z
			 M1040.985,777.206l-1.56,3.548h3.139L1040.985,777.206z"/>
		<path fill="#FAF4E2" d="M1050.675,783.292v-3.078h-4.218v3.078h-0.8v-6.996h0.8v3.158h4.218v-3.158h0.799v6.996H1050.675z"/>
		<path fill="#FAF4E2" d="M1056.075,783.292h-0.79v-2.368l-2.708-4.628h0.829l2.27,3.648l2.238-3.648h0.819l-2.658,4.598V783.292z"
			/>
		<path fill="#FAF4E2" d="M1060.187,782.853c0,0.3-0.21,0.52-0.48,0.52c-0.279,0-0.489-0.22-0.489-0.52s0.21-0.52,0.489-0.52
			C1059.977,782.333,1060.187,782.553,1060.187,782.853z"/>
	</g>
</g>
<polygon fill="#CA4A3F" points="1281.738,563.957 1279.402,561.058 1279.402,565.839 "/>
<polygon fill="#CA4A3F" points="1277.066,567.721 1279.402,565.839 1279.402,561.058 867.178,49.363 866.46,48.472 566.266,-0.972 
	529.345,-0.972 863.224,54.02 "/>
</svg>
