<?xml version="1.0" encoding="utf-8"?>
<!-- Generator: Adobe Illustrator 16.0.0, SVG Export Plug-In . SVG Version: 6.00 Build 0)  -->
<!DOCTYPE svg PUBLIC "-//W3C//DTD SVG 1.1//EN" "http://www.w3.org/Graphics/SVG/1.1/DTD/svg11.dtd">
<svg version="1.1" id="Calque_1" xmlns="http://www.w3.org/2000/svg" xmlns:xlink="http://www.w3.org/1999/xlink" x="0px" y="0px"
	 width="1279.141px" height="799.756px" viewBox="0 0 1279.141 799.756" enable-background="new 0 0 1279.141 799.756"
	 xml:space="preserve">
<polygon display="none" fill="#CA4A3F" points="866.178,4047.915 865.46,4047.021 354.947,3962.938 49.805,3772.411 
	182.261,3221.753 1135.441,3185.839 1138.117,3185.737 1196.816,2412.104 1197.041,2409.15 220.024,2322.105 118.758,1576.011 
	1210.703,1436.899 1215.243,1436.321 901.594,909.448 1028.944,655.89 1029.262,655.89 1028.947,655.884 1029.626,654.532 
	953.75,654.532 409.417,644.747 -1.598,501.913 -1.598,525.542 -1.598,531.829 408.465,660.396 408.904,660.532 1019.898,660.532 
	895.495,908.224 894.757,909.692 1205.405,1431.526 115,1570.442 112,1570.823 214.401,2325.284 214.723,2327.657 1190.61,2414.604 
	1132.539,3179.944 179.763,3215.843 177.491,3215.929 42.96,3775.212 352.278,3968.347 352.788,3968.665 862.224,4052.571 
	1276.066,4566.271 1280.738,4562.509 "/>
<polygon fill="#B8DEDB" points="1029.262,-142.241 1029.047,-142.241 1028.947,-142.068 "/>
<g>
	<rect x="366.52" y="253.749" fill="none" width="546.962" height="24.158"/>
	<path fill="#575756" d="M432.771,276.751l-0.03-17.89l-7.907,15.596h-1.488l-7.875-15.596v17.89h-2.356v-21.704h3.069l7.938,15.627
		l7.907-15.627h3.039v21.704H432.771L432.771,276.751z"/>
	<path fill="#575756" d="M443.557,271.263l-2.419,5.488h-2.635l9.736-21.704h2.573l9.703,21.704h-2.695l-2.419-5.488H443.557z
		 M449.448,257.869l-4.837,11.007h9.734L449.448,257.869z"/>
	<path fill="#575756" d="M473.628,269.836c-0.465,0.031-0.961,0.062-1.458,0.062h-5.767v6.852h-2.48v-21.704h8.248
		c5.426,0,8.558,2.667,8.558,7.287c0,3.597-1.734,6.015-4.866,7.038l5.085,7.379h-2.822L473.628,269.836z M472.171,267.511
		c3.938,0,6.17-1.736,6.17-5.116c0-3.286-2.23-4.961-6.17-4.961h-5.767v10.077H472.171z"/>
	<path fill="#575756" d="M488.227,271.263l-2.418,5.488h-2.636l9.736-21.704h2.574l9.704,21.704h-2.697l-2.418-5.488H488.227z
		 M494.119,257.869l-4.837,11.007h9.733L494.119,257.869z"/>
	<path fill="#575756" d="M513.183,257.434v19.317h-2.479v-19.317h-7.069v-2.387h16.65v2.387H513.183z"/>
	<path fill="#575756" d="M539.442,276.751v-9.55h-13.084v9.55h-2.48v-21.704h2.48v9.798h13.084v-9.798h2.479v21.704H539.442z"/>
	<path fill="#575756" d="M569.171,265.899c0,6.108-5.021,10.976-11.348,10.976c-6.356,0-11.379-4.868-11.379-10.976
		c0-6.139,5.021-10.914,11.379-10.914C564.149,254.985,569.171,259.791,569.171,265.899z M548.956,265.899
		c0,4.775,4.031,8.589,8.868,8.589s8.806-3.814,8.806-8.589s-3.969-8.558-8.806-8.558S548.956,261.124,548.956,265.899z"/>
	<path fill="#575756" d="M589.196,276.751l-13.022-17.425v17.425h-2.479v-21.704h2.572l13.022,17.457v-17.457h2.449v21.704H589.196
		L589.196,276.751z"/>
	<path fill="#575756" d="M611.671,256.969l-1.054,2.325c-1.953-1.302-4.248-1.829-5.984-1.829c-2.79,0-4.62,1.054-4.62,2.884
		c0,5.581,12.216,2.666,12.187,10.542c0,3.627-3.193,5.953-7.846,5.953c-3.161,0-6.263-1.364-8.31-3.318l1.116-2.232
		c2.015,1.954,4.775,3.07,7.224,3.07c3.132,0,5.085-1.271,5.085-3.349c0.031-5.705-12.185-2.667-12.185-10.449
		c0-3.411,3.007-5.612,7.503-5.612C607.299,254.954,609.873,255.76,611.671,256.969z"/>
	<path fill="#575756" d="M639.105,256.969l-1.056,2.325c-1.953-1.302-4.248-1.829-5.982-1.829c-2.79,0-4.62,1.054-4.62,2.884
		c0,5.581,12.216,2.666,12.185,10.542c0,3.627-3.191,5.953-7.844,5.953c-3.163,0-6.263-1.364-8.312-3.318l1.116-2.232
		c2.017,1.954,4.775,3.07,7.226,3.07c3.132,0,5.085-1.271,5.085-3.349c0.03-5.705-12.187-2.667-12.187-10.449
		c0-3.411,3.008-5.612,7.503-5.612C634.734,254.954,637.307,255.76,639.105,256.969z"/>
	<path fill="#575756" d="M662.449,267.821c0,5.643-3.411,9.054-9.085,9.054c-5.705,0-9.146-3.411-9.146-9.054v-12.774h2.48v12.774
		c0,4.217,2.542,6.667,6.666,6.667s6.604-2.45,6.604-6.667v-12.774h2.48L662.449,267.821L662.449,267.821z"/>
	<path fill="#575756" d="M678.226,269.836c-0.465,0.031-0.961,0.062-1.456,0.062h-5.768v6.852h-2.479v-21.704h8.246
		c5.427,0,8.559,2.667,8.559,7.287c0,3.597-1.736,6.015-4.868,7.038l5.085,7.379h-2.821L678.226,269.836z M676.769,267.511
		c3.938,0,6.172-1.736,6.172-5.116c0-3.286-2.232-4.961-6.172-4.961h-5.767v10.077H676.769z"/>
	<path fill="#575756" d="M701.908,257.434v7.628h10.139v2.387h-10.139v9.302h-2.48v-21.704h13.797v2.387H701.908z"/>
	<path fill="#575756" d="M717.996,271.263l-2.418,5.488h-2.636l9.734-21.704h2.573l9.705,21.704h-2.698l-2.418-5.488H717.996z
		 M723.888,257.869l-4.837,11.007h9.735L723.888,257.869z"/>
	<path fill="#575756" d="M755.044,258.147l-1.488,1.891c-1.674-1.705-4.028-2.729-6.418-2.729c-4.896,0-8.837,3.783-8.837,8.558
		c0,4.744,3.938,8.558,8.837,8.558c2.39,0,4.713-0.992,6.418-2.604l1.521,1.706c-2.142,2.015-5.054,3.349-8.062,3.349
		c-6.263,0-11.224-4.868-11.224-11.007c0-6.077,5.021-10.883,11.316-10.883C750.083,254.985,752.967,256.194,755.044,258.147z"/>
	<path fill="#575756" d="M762.016,257.434v7.132h10.945v2.387h-10.945v7.441h12.65v2.356h-15.131v-21.704h14.729v2.387
		L762.016,257.434L762.016,257.434z"/>
	<path fill="#575756" d="M788.863,255.047c4.371,0,7.007,2.015,7.007,5.426c0,2.542-1.457,4.372-3.999,4.898
		c3.131,0.465,4.961,2.512,4.961,5.488c0,3.689-2.915,5.891-7.814,5.891h-9.301v-21.704L788.863,255.047L788.863,255.047z
		 M782.197,264.411h6.542c2.914,0,4.62-1.271,4.62-3.535c0-2.202-1.706-3.442-4.62-3.442h-6.542V264.411z M782.197,274.395h6.542
		c3.534,0,5.581-1.395,5.581-3.875c0-2.356-2.047-3.752-5.581-3.752h-6.542V274.395z"/>
	<path fill="#575756" d="M822.593,265.899c0,6.108-5.021,10.976-11.349,10.976c-6.355,0-11.379-4.868-11.379-10.976
		c0-6.139,5.021-10.914,11.379-10.914C817.569,254.985,822.593,259.791,822.593,265.899z M802.377,265.899
		c0,4.775,4.03,8.589,8.867,8.589s8.806-3.814,8.806-8.589s-3.969-8.558-8.806-8.558S802.377,261.124,802.377,265.899z"/>
	<path fill="#575756" d="M847.269,265.899c0,6.108-5.021,10.976-11.349,10.976c-6.354,0-11.379-4.868-11.379-10.976
		c0-6.139,5.023-10.914,11.379-10.914C842.245,254.985,847.269,259.791,847.269,265.899z M827.053,265.899
		c0,4.775,4.03,8.589,8.867,8.589s8.806-3.814,8.806-8.589s-3.969-8.558-8.806-8.558S827.053,261.124,827.053,265.899z"/>
	<path fill="#575756" d="M858.488,266.457l-4.217,4.62v5.674h-2.48v-21.704h2.48v12.496l11.656-12.496h2.945l-8.589,9.426
		l9.239,12.278h-3.038L858.488,266.457z"/>
</g>
<g>
	<rect x="284.359" y="298.214" fill="none" width="711.281" height="42.856"/>
	<path fill="#575756" d="M319.457,300.06l-0.624,0.793c-0.702-0.716-1.69-1.145-2.691-1.145c-2.054,0-3.705,1.586-3.705,3.588
		c0,1.989,1.651,3.589,3.705,3.589c1.001,0,1.976-0.416,2.691-1.093l0.637,0.715c-0.897,0.847-2.119,1.404-3.38,1.404
		c-2.626,0-4.706-2.041-4.706-4.615c0-2.548,2.106-4.562,4.745-4.562C317.377,298.733,318.586,299.24,319.457,300.06z"/>
	<path fill="#575756" d="M326.88,304.83h-5.59c0.182,1.339,1.157,2.185,2.483,2.185c0.845,0,1.586-0.299,2.119-0.856l0.559,0.598
		c-0.65,0.729-1.612,1.146-2.756,1.146c-2.015,0-3.406-1.417-3.406-3.458s1.404-3.458,3.393-3.458
		C325.892,300.969,326.984,302.503,326.88,304.83z M325.97,303.998c-0.065-1.312-0.949-2.146-2.288-2.146
		c-1.3,0-2.236,0.847-2.392,2.146H325.97z"/>
	<path fill="#575756" d="M332.158,307.392c-0.481,0.325-1.001,0.509-1.547,0.521c-1.001,0-1.742-0.598-1.742-1.95v-3.913h-0.988
		v-0.816h0.988v-1.81h1.001v1.81l2.171-0.016v0.832h-2.171v3.731c0,0.832,0.325,1.144,0.91,1.144c0.351,0,0.715-0.116,1.092-0.351
		L332.158,307.392z"/>
	<path fill="#575756" d="M337.228,307.392c-0.481,0.325-1.001,0.509-1.547,0.521c-1.001,0-1.742-0.598-1.742-1.95v-3.913h-0.988
		v-0.816h0.988v-1.81h1.001v1.81l2.171-0.016v0.832h-2.171v3.731c0,0.832,0.325,1.144,0.91,1.144c0.351,0,0.715-0.116,1.092-0.351
		L337.228,307.392z"/>
	<path fill="#575756" d="M344.56,304.83h-5.59c0.182,1.339,1.157,2.185,2.483,2.185c0.845,0,1.586-0.299,2.119-0.856l0.559,0.598
		c-0.65,0.729-1.612,1.146-2.756,1.146c-2.015,0-3.406-1.417-3.406-3.458s1.404-3.458,3.393-3.458
		C343.572,300.969,344.664,302.503,344.56,304.83z M343.65,303.998c-0.065-1.312-0.949-2.146-2.288-2.146
		c-1.3,0-2.236,0.847-2.392,2.146H343.65z"/>
	<path fill="#575756" d="M356.156,307.859h-1.014v-1.471c-0.507,0.962-1.443,1.521-2.665,1.521c-1.95,0-3.302-1.442-3.302-3.484
		c0-2.054,1.352-3.471,3.289-3.471c1.222,0,2.171,0.559,2.678,1.534v-4.277h1.014V307.859z M355.142,304.453
		c0-1.495-1.027-2.574-2.47-2.574c-1.456,0-2.483,1.079-2.483,2.574c0,1.48,1.027,2.548,2.483,2.548
		C354.115,307.001,355.142,305.936,355.142,304.453z"/>
	<path fill="#575756" d="M362.942,306.807c-0.546,0.741-1.417,1.104-2.509,1.104c-1.417,0-2.327-0.91-2.327-2.093
		c0-1.196,0.949-1.95,2.561-1.963h2.25v-0.403c0-1.001-0.624-1.601-1.833-1.601c-0.754,0-1.456,0.286-2.171,0.779l-0.429-0.74
		c0.884-0.585,1.625-0.924,2.795-0.924c1.69,0,2.626,0.897,2.639,2.366l0.013,4.524h-0.988L362.942,306.807L362.942,306.807z
		 M362.929,305.493v-0.819h-2.132c-1.144,0-1.742,0.354-1.742,1.105s0.611,1.248,1.573,1.248
		C361.785,307.027,362.669,306.442,362.929,305.493z"/>
	<path fill="#575756" d="M369.728,307.392c-0.481,0.325-1.001,0.509-1.547,0.521c-1.001,0-1.742-0.598-1.742-1.95v-3.913h-0.988
		v-0.816h0.988v-1.81h1.001v1.81l2.171-0.016v0.832h-2.171v3.731c0,0.832,0.325,1.144,0.91,1.144c0.351,0,0.715-0.116,1.092-0.351
		L369.728,307.392z"/>
	<path fill="#575756" d="M375.513,306.807c-0.546,0.741-1.417,1.104-2.509,1.104c-1.417,0-2.327-0.91-2.327-2.093
		c0-1.196,0.949-1.95,2.561-1.963h2.249v-0.403c0-1.001-0.624-1.601-1.833-1.601c-0.754,0-1.456,0.286-2.171,0.779l-0.429-0.74
		c0.884-0.585,1.625-0.924,2.795-0.924c1.69,0,2.626,0.897,2.639,2.366l0.013,4.524h-0.988V306.807L375.513,306.807z M375.5,305.493
		v-0.819h-2.132c-1.144,0-1.742,0.354-1.742,1.105s0.611,1.248,1.573,1.248C374.355,307.027,375.24,306.442,375.5,305.493z"/>
	<path fill="#575756" d="M380.01,307.859l-2.717-6.854h1.079l2.184,5.799l2.171-5.799h1.027l-2.691,6.854H380.01z"/>
	<path fill="#575756" d="M386.107,299.045c0,0.403-0.286,0.702-0.663,0.702s-0.663-0.299-0.663-0.702s0.286-0.702,0.663-0.702
		S386.107,298.642,386.107,299.045z M384.95,307.859v-6.854h1.001v6.854H384.95z"/>
	<path fill="#575756" d="M389.084,306.976l4.395,0.015v0.884l-5.616-0.013v-0.769l4.29-5.188l-4.173-0.015v-0.885l5.395,0.016v0.767
		L389.084,306.976z"/>
	<path fill="#575756" d="M405.828,304.453c0,2.028-1.326,3.445-3.263,3.445c-1.222,0-2.158-0.562-2.665-1.51v3.991h-1.014v-9.374
		h1.014v1.482c0.507-0.962,1.443-1.521,2.639-1.521C404.476,300.969,405.828,302.399,405.828,304.453z M404.801,304.427
		c0-1.469-1.014-2.548-2.444-2.548c-1.443,0-2.457,1.066-2.457,2.548c0,1.495,1.014,2.549,2.457,2.549
		C403.787,306.976,404.801,305.909,404.801,304.427z"/>
	<path fill="#575756" d="M413.511,304.83h-5.59c0.182,1.339,1.157,2.185,2.483,2.185c0.845,0,1.586-0.299,2.119-0.856l0.559,0.598
		c-0.65,0.729-1.612,1.146-2.756,1.146c-2.015,0-3.406-1.417-3.406-3.458s1.404-3.458,3.393-3.458
		C412.523,300.969,413.615,302.503,413.511,304.83z M412.601,303.998c-0.065-1.312-0.949-2.146-2.288-2.146
		c-1.3,0-2.236,0.847-2.392,2.146H412.601z"/>
	<path fill="#575756" d="M416.267,302.529c0.455-1.001,1.3-1.547,2.457-1.562v1.027c-1.443-0.026-2.34,0.871-2.457,2.224v3.642
		h-1.014v-6.854h1.014V302.529z"/>
	<path fill="#575756" d="M431.413,303.634v4.228h-1.014v-3.952c0-1.224-0.717-1.938-1.898-1.938
		c-1.417,0.039-2.236,1.056-2.236,2.522v3.367h-1.025v-3.952c0-1.223-0.702-1.938-1.898-1.938c-1.403,0.039-2.25,1.056-2.25,2.522
		v3.367h-1.001v-6.854h1.001v1.548c0.455-1.064,1.378-1.571,2.613-1.587c1.287,0,2.171,0.663,2.457,1.794
		c0.429-1.209,1.391-1.778,2.704-1.794C430.463,300.969,431.413,301.983,431.413,303.634z"/>
	<path fill="#575756" d="M439.562,304.83h-5.591c0.184,1.339,1.157,2.185,2.483,2.185c0.845,0,1.586-0.299,2.119-0.856l0.559,0.598
		c-0.648,0.729-1.611,1.146-2.756,1.146c-2.015,0-3.406-1.417-3.406-3.458s1.404-3.458,3.395-3.458
		C438.575,300.969,439.667,302.503,439.562,304.83z M438.653,303.998c-0.065-1.312-0.949-2.146-2.288-2.146
		c-1.3,0-2.236,0.847-2.394,2.146H438.653z"/>
	<path fill="#575756" d="M444.841,307.392c-0.479,0.325-1.001,0.509-1.547,0.521c-1.001,0-1.742-0.598-1.742-1.95v-3.913h-0.986
		v-0.816h0.986v-1.81h1.001v1.81l2.171-0.016v0.832h-2.171v3.731c0,0.832,0.325,1.144,0.91,1.144c0.353,0,0.715-0.116,1.092-0.351
		L444.841,307.392z"/>
	<path fill="#575756" d="M456.229,307.859h-1.014v-1.471c-0.507,0.962-1.443,1.521-2.665,1.521c-1.95,0-3.302-1.442-3.302-3.484
		c0-2.054,1.352-3.471,3.289-3.471c1.222,0,2.171,0.559,2.678,1.534v-4.277h1.014V307.859z M455.215,304.453
		c0-1.495-1.027-2.574-2.47-2.574c-1.456,0-2.483,1.079-2.483,2.574c0,1.48,1.027,2.548,2.483,2.548
		C454.188,307.001,455.215,305.936,455.215,304.453z"/>
	<path fill="#575756" d="M464.666,304.83h-5.59c0.182,1.339,1.157,2.185,2.481,2.185c0.847,0,1.586-0.299,2.119-0.856l0.561,0.598
		c-0.65,0.729-1.612,1.146-2.757,1.146c-2.016,0-3.405-1.417-3.405-3.458s1.403-3.458,3.393-3.458
		C463.678,300.969,464.77,302.503,464.666,304.83z M463.755,303.998c-0.063-1.312-0.949-2.146-2.288-2.146
		c-1.3,0-2.234,0.847-2.392,2.146H463.755z"/>
	<path fill="#575756" d="M476.262,307.859h-1.014v-1.471c-0.507,0.962-1.443,1.521-2.665,1.521c-1.95,0-3.302-1.442-3.302-3.484
		c0-2.054,1.352-3.471,3.289-3.471c1.222,0,2.171,0.559,2.678,1.534v-4.277h1.014V307.859z M475.248,304.453
		c0-1.495-1.027-2.574-2.47-2.574c-1.456,0-2.483,1.079-2.483,2.574c0,1.48,1.027,2.548,2.483,2.548
		C474.221,307.001,475.248,305.936,475.248,304.453z"/>
	<path fill="#575756" d="M484.698,304.83h-5.59c0.182,1.339,1.155,2.185,2.481,2.185c0.845,0,1.586-0.299,2.119-0.856l0.559,0.598
		c-0.648,0.729-1.61,1.146-2.756,1.146c-2.015,0-3.404-1.417-3.404-3.458s1.402-3.458,3.393-3.458
		C483.71,300.969,484.802,302.503,484.698,304.83z M483.788,303.998c-0.065-1.312-0.949-2.146-2.288-2.146
		c-1.3,0-2.236,0.847-2.392,2.146H483.788z M480.733,299.877l1.56-1.768l1.027,0.491l-1.612,1.274L480.733,299.877L480.733,299.877z
		"/>
	<path fill="#575756" d="M497.764,303.634v4.228h-1.014v-3.952c0-1.224-0.715-1.938-1.898-1.938
		c-1.417,0.039-2.234,1.056-2.234,2.522v3.367h-1.027v-3.952c0-1.223-0.702-1.938-1.896-1.938c-1.404,0.039-2.249,1.056-2.249,2.522
		v3.367h-1.001v-6.854h1.001v1.548c0.454-1.064,1.378-1.571,2.611-1.587c1.287,0,2.171,0.663,2.457,1.794
		c0.431-1.209,1.393-1.778,2.704-1.794C496.814,300.969,497.764,301.983,497.764,303.634z"/>
	<path fill="#575756" d="M506.265,304.427c0,2.057-1.441,3.474-3.471,3.474s-3.471-1.417-3.471-3.474
		c0-2.041,1.441-3.442,3.471-3.442C504.822,300.982,506.265,302.386,506.265,304.427z M500.337,304.44
		c0,1.508,1.027,2.548,2.457,2.548s2.457-1.04,2.457-2.548c0-1.495-1.027-2.535-2.457-2.535S500.337,302.945,500.337,304.44z"/>
	<path fill="#575756" d="M514.312,303.634v4.228h-1.016v-3.952c0-1.209-0.728-1.924-1.937-1.924
		c-1.354,0.013-2.186,0.896-2.302,2.195v3.681h-1.015v-6.854h1.015v1.509c0.48-1.04,1.403-1.532,2.651-1.548
		C513.35,300.969,514.312,301.983,514.312,303.634z"/>
	<path fill="#575756" d="M520.11,307.392c-0.481,0.325-1.001,0.509-1.548,0.521c-1,0-1.741-0.598-1.741-1.95v-3.913h-0.988v-0.816
		h0.988v-1.81h1.001v1.81l2.171-0.016v0.832h-2.171v3.731c0,0.832,0.323,1.144,0.91,1.144c0.351,0,0.715-0.116,1.092-0.351
		L520.11,307.392z"/>
	<path fill="#575756" d="M522.658,302.529c0.455-1.001,1.3-1.547,2.457-1.562v1.027c-1.443-0.026-2.34,0.871-2.457,2.224v3.642
		h-1.014v-6.854h1.014V302.529z"/>
	<path fill="#575756" d="M532.382,304.83h-5.59c0.182,1.339,1.157,2.185,2.483,2.185c0.845,0,1.586-0.299,2.117-0.856l0.561,0.598
		c-0.65,0.729-1.612,1.146-2.756,1.146c-2.017,0-3.406-1.417-3.406-3.458s1.404-3.458,3.393-3.458
		C531.394,300.969,532.486,302.503,532.382,304.83z M531.472,303.998c-0.063-1.312-0.947-2.146-2.288-2.146
		c-1.3,0-2.234,0.847-2.392,2.146H531.472z"/>
	<path fill="#575756" d="M535.138,302.529c0.455-1.001,1.3-1.547,2.457-1.562v1.027c-1.441-0.026-2.34,0.871-2.457,2.224v3.642
		h-1.014v-6.854h1.014V302.529z"/>
	<path fill="#575756" d="M542.587,307.859v-9.646h1.014v9.646H542.587z"/>
	<path fill="#575756" d="M552.038,304.83h-5.59c0.182,1.339,1.157,2.185,2.481,2.185c0.847,0,1.586-0.299,2.119-0.856l0.561,0.598
		c-0.65,0.729-1.612,1.146-2.756,1.146c-2.017,0-3.406-1.417-3.406-3.458s1.402-3.458,3.393-3.458
		C551.05,300.969,552.142,302.503,552.038,304.83z M551.127,303.998c-0.064-1.312-0.949-2.146-2.288-2.146
		c-1.3,0-2.236,0.847-2.392,2.146H551.127z"/>
	<path fill="#575756" d="M562.685,301.996l-0.559,0.715c-0.521-0.494-1.209-0.793-2.041-0.793c-1.417,0-2.431,1.027-2.431,2.522
		c0,1.493,1.014,2.533,2.431,2.533c0.897,0,1.638-0.312,2.119-0.885l0.585,0.625c-0.611,0.74-1.561,1.185-2.743,1.185
		c-1.989,0-3.393-1.417-3.393-3.458s1.417-3.458,3.393-3.458C561.15,300.969,562.061,301.346,562.685,301.996z"/>
	<path fill="#575756" d="M570.562,304.427c0,2.057-1.442,3.474-3.472,3.474c-2.026,0-3.471-1.417-3.471-3.474
		c0-2.041,1.442-3.442,3.471-3.442C569.12,300.982,570.562,302.386,570.562,304.427z M564.635,304.44
		c0,1.508,1.027,2.548,2.457,2.548s2.457-1.04,2.457-2.548c0-1.495-1.027-2.535-2.457-2.535S564.635,302.945,564.635,304.44z"/>
	<path fill="#575756" d="M578.61,303.634v4.228h-1.016v-3.952c0-1.209-0.728-1.924-1.937-1.924
		c-1.354,0.013-2.186,0.896-2.301,2.195v3.681h-1.016v-6.854h1.016v1.509c0.479-1.04,1.402-1.532,2.65-1.548
		C577.648,300.969,578.61,301.983,578.61,303.634z"/>
	<path fill="#575756" d="M584.408,307.392c-0.481,0.325-1.001,0.509-1.547,0.521c-1.001,0-1.742-0.598-1.742-1.95v-3.913h-0.988
		v-0.816h0.988v-1.81h1.001v1.81l2.171-0.016v0.832h-2.171v3.731c0,0.832,0.325,1.144,0.91,1.144c0.351,0,0.715-0.116,1.092-0.351
		L584.408,307.392z"/>
	<path fill="#575756" d="M586.956,302.529c0.455-1.001,1.3-1.547,2.457-1.562v1.027c-1.443-0.026-2.34,0.871-2.457,2.224v3.642
		h-1.014v-6.854h1.014V302.529z"/>
	<path fill="#575756" d="M594.704,306.807c-0.546,0.741-1.417,1.104-2.509,1.104c-1.417,0-2.327-0.91-2.327-2.093
		c0-1.196,0.949-1.95,2.561-1.963h2.25v-0.403c0-1.001-0.624-1.601-1.833-1.601c-0.754,0-1.456,0.286-2.171,0.779l-0.429-0.74
		c0.884-0.585,1.625-0.924,2.795-0.924c1.688,0,2.626,0.897,2.639,2.366l0.014,4.524h-0.987L594.704,306.807L594.704,306.807z
		 M594.69,305.493v-0.819h-2.134c-1.144,0-1.74,0.354-1.74,1.105s0.609,1.248,1.571,1.248
		C593.546,307.027,594.431,306.442,594.69,305.493z"/>
	<path fill="#575756" d="M601.958,301.593l-0.39,0.809c-0.533-0.339-1.224-0.562-1.859-0.562c-0.767,0-1.352,0.273-1.352,0.91
		c0,1.521,3.82,0.741,3.82,3.198c0,1.353-1.194,1.95-2.509,1.95c-0.975,0-1.976-0.34-2.626-0.964l0.39-0.768
		c0.587,0.547,1.471,0.871,2.275,0.871c0.807,0,1.456-0.299,1.469-0.976c0.039-1.65-3.796-0.808-3.781-3.236
		c0-1.313,1.131-1.859,2.379-1.859C600.592,300.969,601.385,301.203,601.958,301.593z"/>
	<path fill="#575756" d="M607.378,307.392c-0.481,0.325-1.001,0.509-1.547,0.521c-1.001,0-1.742-0.598-1.742-1.95v-3.913h-0.988
		v-0.816h0.988v-1.81h1.001v1.81l2.171-0.016v0.832h-2.171v3.731c0,0.832,0.325,1.144,0.91,1.144c0.351,0,0.715-0.116,1.092-0.351
		L607.378,307.392z"/>
	<path fill="#575756" d="M614.71,304.83h-5.59c0.182,1.339,1.157,2.185,2.481,2.185c0.847,0,1.588-0.299,2.119-0.856l0.561,0.598
		c-0.65,0.729-1.612,1.146-2.756,1.146c-2.017,0-3.406-1.417-3.406-3.458s1.404-3.458,3.393-3.458
		C613.722,300.969,614.814,302.503,614.71,304.83z M613.8,303.998c-0.063-1.312-0.949-2.146-2.288-2.146
		c-1.3,0-2.234,0.847-2.392,2.146H613.8z"/>
	<path fill="#575756" d="M625.916,304.83h-5.59c0.182,1.339,1.157,2.185,2.481,2.185c0.847,0,1.586-0.299,2.119-0.856l0.561,0.598
		c-0.65,0.729-1.612,1.146-2.756,1.146c-2.017,0-3.406-1.417-3.406-3.458s1.403-3.458,3.393-3.458
		C624.928,300.969,626.02,302.503,625.916,304.83z M625.006,303.998c-0.063-1.312-0.949-2.146-2.288-2.146
		c-1.3,0-2.234,0.847-2.392,2.146H625.006z"/>
	<path fill="#575756" d="M631.312,301.008h1.116l-2.288,3.328l2.457,3.523h-1.183l-1.95-2.795l-2.015,2.795h-1.146l2.496-3.523
		l-2.327-3.328h1.17l1.82,2.603L631.312,301.008z"/>
	<path fill="#575756" d="M635.302,299.045c0,0.403-0.286,0.702-0.663,0.702s-0.663-0.299-0.663-0.702s0.286-0.702,0.663-0.702
		S635.302,298.642,635.302,299.045z M634.145,307.859v-6.854h1.003v6.854H634.145z"/>
	<path fill="#575756" d="M641.621,301.593l-0.391,0.809c-0.532-0.339-1.223-0.562-1.858-0.562c-0.769,0-1.354,0.273-1.354,0.91
		c0,1.521,3.822,0.741,3.822,3.198c0,1.353-1.194,1.95-2.509,1.95c-0.975,0-1.976-0.34-2.626-0.964l0.39-0.768
		c0.585,0.547,1.471,0.871,2.275,0.871s1.456-0.299,1.469-0.976c0.039-1.65-3.796-0.808-3.783-3.236
		c0-1.313,1.133-1.859,2.381-1.859C640.255,300.969,641.048,301.203,641.621,301.593z"/>
	<path fill="#575756" d="M647.041,307.392c-0.481,0.325-1.001,0.509-1.547,0.521c-1.001,0-1.742-0.598-1.742-1.95v-3.913h-0.988
		v-0.816h0.988v-1.81h1.001v1.81l2.171-0.016v0.832h-2.171v3.731c0,0.832,0.325,1.144,0.91,1.144c0.351,0,0.715-0.116,1.092-0.351
		L647.041,307.392z"/>
	<path fill="#575756" d="M652.826,306.807c-0.546,0.741-1.417,1.104-2.51,1.104c-1.417,0-2.327-0.91-2.327-2.093
		c0-1.196,0.947-1.95,2.562-1.963h2.249v-0.403c0-1.001-0.624-1.601-1.833-1.601c-0.754,0-1.456,0.286-2.171,0.779l-0.43-0.74
		c0.885-0.585,1.626-0.924,2.796-0.924c1.688,0,2.626,0.897,2.639,2.366l0.014,4.524h-0.986L652.826,306.807L652.826,306.807z
		 M652.812,305.493v-0.819h-2.134c-1.144,0-1.741,0.354-1.741,1.105s0.61,1.248,1.572,1.248
		C651.669,307.027,652.553,306.442,652.812,305.493z"/>
	<path fill="#575756" d="M662.342,303.634v4.228h-1.014v-3.952c0-1.209-0.729-1.924-1.938-1.924
		c-1.352,0.013-2.184,0.896-2.301,2.195v3.681h-1.015v-6.854h1.015v1.509c0.48-1.04,1.404-1.532,2.652-1.548
		C661.38,300.969,662.342,301.983,662.342,303.634z"/>
	<path fill="#575756" d="M668.14,307.392c-0.479,0.325-1.001,0.509-1.547,0.521c-1.001,0-1.742-0.598-1.742-1.95v-3.913h-0.986
		v-0.816h0.986v-1.81h1.001v1.81l2.173-0.016v0.832h-2.173v3.731c0,0.832,0.325,1.144,0.91,1.144c0.353,0,0.715-0.116,1.092-0.351
		L668.14,307.392z"/>
	<path fill="#575756" d="M679.138,304.83h-5.591c0.185,1.339,1.157,2.185,2.483,2.185c0.845,0,1.586-0.299,2.119-0.856l0.56,0.598
		c-0.65,0.729-1.612,1.146-2.757,1.146c-2.017,0-3.406-1.417-3.406-3.458s1.404-3.458,3.394-3.458
		C678.149,300.969,679.241,302.503,679.138,304.83z M678.229,303.998c-0.064-1.312-0.948-2.146-2.287-2.146
		c-1.302,0-2.236,0.847-2.395,2.146H678.229z"/>
	<path fill="#575756" d="M687.146,303.634v4.228h-1.016v-3.952c0-1.209-0.729-1.924-1.938-1.924
		c-1.354,0.013-2.186,0.896-2.303,2.195v3.681h-1.015v-6.854h1.015v1.509c0.48-1.04,1.404-1.532,2.652-1.548
		C686.184,300.969,687.146,301.983,687.146,303.634z"/>
	<path fill="#575756" d="M692.943,307.392c-0.481,0.325-1.001,0.509-1.547,0.521c-1.003,0-1.742-0.598-1.742-1.95v-3.913h-0.988
		v-0.816h0.988v-1.81h1.001v1.81l2.171-0.016v0.832h-2.171v3.731c0,0.832,0.325,1.144,0.909,1.144c0.352,0,0.716-0.116,1.093-0.351
		L692.943,307.392z"/>
	<path fill="#575756" d="M695.491,302.529c0.455-1.001,1.3-1.547,2.457-1.562v1.027c-1.443-0.026-2.34,0.871-2.457,2.224v3.642
		h-1.017v-6.854h1.017V302.529z"/>
	<path fill="#575756" d="M705.215,304.83h-5.59c0.182,1.339,1.157,2.185,2.483,2.185c0.845,0,1.586-0.299,2.117-0.856l0.561,0.598
		c-0.65,0.729-1.612,1.146-2.756,1.146c-2.018,0-3.406-1.417-3.406-3.458s1.404-3.458,3.393-3.458
		C704.229,300.969,705.319,302.503,705.215,304.83z M704.305,303.998c-0.062-1.312-0.946-2.146-2.288-2.146
		c-1.3,0-2.233,0.847-2.392,2.146H704.305z"/>
	<path fill="#575756" d="M710.584,307.859v-9.646h1.014v9.646H710.584z"/>
	<path fill="#575756" d="M720.035,304.83h-5.591c0.183,1.339,1.155,2.185,2.481,2.185c0.845,0,1.586-0.299,2.119-0.856l0.561,0.598
		c-0.649,0.729-1.611,1.146-2.758,1.146c-2.015,0-3.404-1.417-3.404-3.458s1.402-3.458,3.394-3.458
		C719.047,300.969,720.139,302.503,720.035,304.83z M719.125,303.998c-0.065-1.312-0.949-2.146-2.288-2.146
		c-1.3,0-2.236,0.847-2.393,2.146H719.125z"/>
	<path fill="#575756" d="M732.151,303.439v4.42h-2.236v-3.796c0-0.819-0.481-1.326-1.235-1.326c-0.816,0-1.339,0.585-1.43,1.417
		v3.705h-2.249v-7.009h2.249v1.146c0.494-0.819,1.3-1.235,2.34-1.248C731.137,300.748,732.151,301.801,732.151,303.439z"/>
	<path fill="#575756" d="M740.822,304.35c0,2.157-1.534,3.59-3.822,3.59c-2.301,0-3.835-1.433-3.835-3.59
		c0-2.156,1.534-3.573,3.835-3.573C739.288,300.774,740.822,302.191,740.822,304.35z M735.427,304.375
		c0,1.093,0.639,1.82,1.573,1.82c0.923,0,1.56-0.729,1.56-1.82c0-1.079-0.637-1.819-1.56-1.819
		C736.062,302.556,735.427,303.296,735.427,304.375z"/>
	<path fill="#575756" d="M753.913,303.439v4.42h-2.236v-3.796c0-0.832-0.468-1.341-1.209-1.341
		c-0.845,0.025-1.364,0.717-1.364,1.664v3.473h-2.25v-3.796c0-0.832-0.453-1.341-1.193-1.341c-0.858,0.025-1.394,0.717-1.394,1.664
		v3.473h-2.234v-7.008h2.234v1.155c0.481-0.832,1.287-1.248,2.314-1.261c1.144,0,1.989,0.598,2.34,1.586
		c0.455-1.04,1.313-1.573,2.47-1.586C752.925,300.748,753.913,301.801,753.913,303.439z"/>
	<path fill="#575756" d="M763.208,304.389c0,2.134-1.274,3.551-3.237,3.551c-0.91,0-1.649-0.364-2.146-1.017v0.938h-2.249v-9.646
		h2.249v3.562c0.494-0.64,1.21-1.001,2.094-1.001C761.895,300.774,763.208,302.217,763.208,304.389z M760.945,304.323
		c0-1.066-0.639-1.82-1.572-1.82c-0.91,0-1.548,0.754-1.548,1.82c0,1.092,0.638,1.833,1.548,1.833
		C760.309,306.156,760.945,305.402,760.945,304.323z"/>
	<path fill="#575756" d="M766.665,302.035c0.481-0.819,1.274-1.274,2.275-1.287v2.028c-1.302-0.117-2.158,0.493-2.275,1.479v3.604
		h-2.249v-7.009h2.249V302.035z"/>
	<path fill="#575756" d="M776.571,304.96h-4.929c0.223,0.832,0.818,1.301,1.65,1.301c0.611,0,1.209-0.247,1.678-0.716l1.185,1.157
		c-0.716,0.78-1.77,1.233-3.057,1.233c-2.288,0-3.719-1.431-3.719-3.562c0-2.171,1.482-3.601,3.653-3.601
		C775.505,300.774,776.729,302.399,776.571,304.96z M774.413,303.751c0-0.857-0.546-1.417-1.354-1.417
		c-0.778,0-1.312,0.572-1.454,1.417H774.413z"/>
	<path fill="#575756" d="M787.868,307.859h-2.249v-0.925c-0.494,0.649-1.209,1.016-2.106,1.016c-1.976,0-3.273-1.456-3.273-3.627
		c0-2.146,1.287-3.562,3.224-3.562c0.923,0,1.664,0.364,2.158,1.017v-3.562h2.249L787.868,307.859L787.868,307.859z
		 M785.619,304.375c0-1.079-0.624-1.819-1.562-1.819c-0.936,0-1.56,0.74-1.57,1.819c0.013,1.079,0.637,1.833,1.57,1.833
		C784.995,306.208,785.619,305.454,785.619,304.375z"/>
	<path fill="#575756" d="M796.331,304.96h-4.927c0.221,0.832,0.816,1.301,1.648,1.301c0.611,0,1.209-0.247,1.68-0.716l1.183,1.157
		c-0.715,0.78-1.769,1.233-3.055,1.233c-2.288,0-3.721-1.431-3.721-3.562c0-2.171,1.482-3.601,3.653-3.601
		C795.265,300.774,796.487,302.399,796.331,304.96z M794.173,303.751c0-0.857-0.546-1.417-1.352-1.417
		c-0.78,0-1.313,0.572-1.456,1.417H794.173z"/>
	<path fill="#575756" d="M808.265,304.389c0,2.134-1.271,3.551-3.234,3.551c-0.91,0-1.651-0.364-2.146-1.017v3.459h-2.249v-9.528
		h2.249v0.924c0.494-0.64,1.209-1.001,2.093-1.001C806.952,300.774,808.265,302.217,808.265,304.389z M806.003,304.323
		c0-1.066-0.637-1.82-1.573-1.82c-0.91,0-1.547,0.754-1.547,1.82c0,1.092,0.637,1.833,1.547,1.833
		C805.366,306.156,806.003,305.402,806.003,304.323z"/>
	<path fill="#575756" d="M815.675,303.283v4.576h-2.197v-0.808c-0.453,0.6-1.194,0.91-2.145,0.91c-1.495,0-2.405-0.91-2.405-2.197
		c0-1.324,0.949-2.104,2.69-2.118h1.847v-0.104c0-0.688-0.455-1.104-1.365-1.104c-0.585,0-1.353,0.207-2.093,0.585l-0.638-1.482
		c1.093-0.507,2.08-0.793,3.25-0.793C814.544,300.748,815.662,301.697,815.675,303.283z M813.465,305.48v-0.624h-1.417
		c-0.677,0-1.015,0.231-1.015,0.754c0,0.507,0.364,0.832,0.988,0.832C812.724,306.442,813.321,306.053,813.465,305.48z"/>
	<path fill="#575756" d="M819.521,302.035c0.48-0.819,1.273-1.274,2.274-1.287v2.028c-1.3-0.117-2.158,0.493-2.274,1.479v3.604
		h-2.248v-7.009h2.248V302.035z"/>
	<path fill="#575756" d="M827.349,307.482c-0.507,0.299-1.193,0.479-1.872,0.479c-1.352,0-2.325-0.768-2.325-2.224v-3.096h-0.977
		v-1.47h0.977v-1.949h2.234v1.938h1.833v1.48h-1.833v2.743c0,0.546,0.234,0.779,0.65,0.769c0.231,0,0.533-0.092,0.871-0.234
		L827.349,307.482z"/>
	<path fill="#575756" d="M830.794,298.837c0,0.702-0.494,1.196-1.183,1.196c-0.689,0-1.186-0.494-1.186-1.196
		c0-0.688,0.494-1.183,1.186-1.183C830.3,297.654,830.794,298.148,830.794,298.837z M828.48,307.859v-7.009h2.233v7.009H828.48z"/>
	<path fill="#575756" d="M838.698,302.347l-1.612,0.978c-0.325-0.455-0.806-0.729-1.417-0.729c-0.871,0-1.469,0.716-1.469,1.771
		c0,1.079,0.598,1.779,1.469,1.779c0.637,0,1.131-0.26,1.431-0.793l1.64,0.964c-0.572,1.024-1.703,1.625-3.188,1.625
		c-2.157,0-3.611-1.433-3.611-3.562c0-2.158,1.469-3.601,3.64-3.601C836.969,300.774,838.087,301.346,838.698,302.347z"/>
	<path fill="#575756" d="M842.143,298.837c0,0.702-0.492,1.196-1.183,1.196c-0.688,0-1.184-0.494-1.184-1.196
		c0-0.688,0.492-1.183,1.184-1.183C841.648,297.654,842.143,298.148,842.143,298.837z M839.829,307.859v-7.009h2.235v7.009H839.829z
		"/>
	<path fill="#575756" d="M851.568,304.389c0,2.134-1.274,3.551-3.237,3.551c-0.91,0-1.651-0.364-2.146-1.017v3.459h-2.249v-9.528
		h2.249v0.924c0.494-0.64,1.209-1.001,2.095-1.001C850.255,300.774,851.568,302.217,851.568,304.389z M849.306,304.323
		c0-1.066-0.637-1.82-1.571-1.82c-0.909,0-1.549,0.754-1.549,1.82c0,1.092,0.64,1.833,1.549,1.833
		C848.669,306.156,849.306,305.402,849.306,304.323z"/>
	<path fill="#575756" d="M858.979,303.283v4.576h-2.195v-0.808c-0.455,0.6-1.196,0.91-2.146,0.91c-1.495,0-2.404-0.91-2.404-2.197
		c0-1.324,0.948-2.104,2.69-2.118h1.847v-0.104c0-0.688-0.455-1.104-1.363-1.104c-0.585,0-1.354,0.207-2.096,0.585l-0.637-1.482
		c1.092-0.507,2.08-0.793,3.25-0.793C857.847,300.748,858.965,301.697,858.979,303.283z M856.769,305.48v-0.624h-1.418
		c-0.676,0-1.014,0.231-1.014,0.754c0,0.507,0.364,0.832,0.988,0.832C856.027,306.442,856.625,306.053,856.769,305.48z"/>
	<path fill="#575756" d="M867.727,303.439v4.42h-2.233v-3.796c0-0.819-0.481-1.326-1.235-1.326c-0.817,0-1.339,0.585-1.43,1.417
		v3.705h-2.249v-7.009h2.249v1.146c0.493-0.819,1.3-1.235,2.34-1.248C866.713,300.748,867.727,301.801,867.727,303.439z"/>
	<path fill="#575756" d="M873.85,307.482c-0.507,0.299-1.193,0.479-1.872,0.479c-1.352,0-2.325-0.768-2.325-2.224v-3.096h-0.977
		v-1.47h0.977v-1.949h2.234v1.938h1.833v1.48h-1.833v2.743c0,0.546,0.234,0.779,0.65,0.769c0.231,0,0.533-0.092,0.871-0.234
		L873.85,307.482z"/>
	<path fill="#575756" d="M880.376,301.541l-0.767,1.456c-0.847-0.455-1.625-0.702-2.211-0.702c-0.402,0-0.688,0.156-0.688,0.481
		c0,0.962,3.692,0.492,3.68,2.938c0,1.443-1.262,2.236-2.95,2.236c-1.171,0-2.303-0.338-3.146-0.988l0.715-1.43
		c0.793,0.559,1.703,0.871,2.483,0.871c0.44,0,0.767-0.156,0.767-0.481c0-1.026-3.627-0.493-3.614-2.95
		c0-1.441,1.225-2.224,2.85-2.224C878.504,300.748,879.519,301.034,880.376,301.541z"/>
	<path fill="#575756" d="M890.867,303.283v4.576h-2.197v-0.808c-0.455,0.6-1.196,0.91-2.146,0.91c-1.495,0-2.405-0.91-2.405-2.197
		c0-1.324,0.949-2.104,2.689-2.118h1.849v-0.104c0-0.688-0.455-1.104-1.365-1.104c-0.585,0-1.354,0.207-2.094,0.585l-0.639-1.482
		c1.094-0.507,2.08-0.793,3.25-0.793C889.735,300.748,890.854,301.697,890.867,303.283z M888.657,305.48v-0.624h-1.418
		c-0.678,0-1.016,0.231-1.016,0.754c0,0.507,0.364,0.832,0.988,0.832C887.916,306.442,888.514,306.053,888.657,305.48z"/>
	<path fill="#575756" d="M899.291,307.859h-2.249v-1.157c-0.481,0.832-1.262,1.248-2.275,1.248c-1.521,0-2.509-1.04-2.509-2.679
		v-4.421h2.249v3.783c0,0.832,0.455,1.339,1.17,1.339c0.857-0.014,1.365-0.716,1.365-1.664v-3.458h2.249V307.859z"/>
	<path fill="#575756" d="M915.982,303.439v4.42h-2.236v-3.796c0-0.832-0.468-1.341-1.209-1.341
		c-0.845,0.025-1.364,0.717-1.364,1.664v3.473h-2.25v-3.796c0-0.832-0.454-1.341-1.195-1.341c-0.856,0.025-1.392,0.717-1.392,1.664
		v3.473h-2.235v-7.008h2.235v1.155c0.481-0.832,1.287-1.248,2.314-1.261c1.144,0,1.987,0.598,2.34,1.586
		c0.455-1.04,1.312-1.573,2.471-1.586C914.994,300.748,915.982,301.801,915.982,303.439z"/>
	<path fill="#575756" d="M923.782,303.283v4.576h-2.197v-0.808c-0.455,0.6-1.196,0.91-2.146,0.91c-1.495,0-2.405-0.91-2.405-2.197
		c0-1.324,0.948-2.104,2.689-2.118h1.848v-0.104c0-0.688-0.454-1.104-1.364-1.104c-0.585,0-1.354,0.207-2.094,0.585l-0.639-1.482
		c1.094-0.507,2.08-0.793,3.25-0.793C922.65,300.748,923.769,301.697,923.782,303.283z M921.571,305.48v-0.624h-1.417
		c-0.678,0-1.016,0.231-1.016,0.754c0,0.507,0.364,0.832,0.988,0.832C920.831,306.442,921.429,306.053,921.571,305.48z"/>
	<path fill="#575756" d="M927.63,302.035c0.48-0.819,1.273-1.274,2.274-1.287v2.028c-1.302-0.117-2.158,0.493-2.274,1.479v3.604
		h-2.249v-7.009h2.249V302.035z"/>
	<path fill="#575756" d="M936.938,303.283v4.576h-2.195v-0.808c-0.455,0.6-1.196,0.91-2.146,0.91c-1.495,0-2.404-0.91-2.404-2.197
		c0-1.324,0.948-2.104,2.69-2.118h1.847v-0.104c0-0.688-0.453-1.104-1.363-1.104c-0.585,0-1.354,0.207-2.096,0.585l-0.637-1.482
		c1.092-0.507,2.08-0.793,3.25-0.793C935.806,300.748,936.924,301.697,936.938,303.283z M934.729,305.48v-0.624h-1.418
		c-0.677,0-1.015,0.231-1.015,0.754c0,0.507,0.364,0.832,0.988,0.832C933.986,306.442,934.584,306.053,934.729,305.48z"/>
	<path fill="#575756" d="M943.061,307.482c-0.508,0.299-1.194,0.479-1.873,0.479c-1.352,0-2.325-0.768-2.325-2.224v-3.096h-0.977
		v-1.47h0.977v-1.949h2.234v1.938h1.833v1.48h-1.833v2.743c0,0.546,0.234,0.779,0.65,0.769c0.233,0,0.533-0.092,0.871-0.234
		L943.061,307.482z"/>
	<path fill="#575756" d="M951.419,303.439v4.42h-2.249v-3.796c0-0.819-0.468-1.326-1.234-1.326c-0.885,0-1.431,0.702-1.431,1.664
		v3.458h-2.249v-9.646h2.249v3.796c0.494-0.832,1.313-1.248,2.354-1.261C950.405,300.748,951.419,301.801,951.419,303.439z"/>
	<path fill="#575756" d="M960.077,304.35c0,2.157-1.534,3.59-3.822,3.59c-2.302,0-3.836-1.433-3.836-3.59
		c0-2.156,1.534-3.573,3.836-3.573C958.543,300.774,960.077,302.191,960.077,304.35z M954.682,304.375
		c0,1.093,0.639,1.82,1.573,1.82c0.923,0,1.56-0.729,1.56-1.82c0-1.079-0.637-1.819-1.56-1.819
		C955.318,302.556,954.682,303.296,954.682,304.375z"/>
	<path fill="#575756" d="M968.436,303.439v4.42H966.2v-3.796c0-0.819-0.481-1.326-1.235-1.326c-0.818,0-1.339,0.585-1.43,1.417
		v3.705h-2.249v-7.009h2.249v1.146c0.493-0.819,1.3-1.235,2.34-1.248C967.422,300.748,968.436,301.801,968.436,303.439z"/>
	<path fill="#575756" d="M346.64,320.431h-5.59c0.182,1.339,1.157,2.187,2.483,2.187c0.845,0,1.586-0.3,2.119-0.858l0.559,0.6
		c-0.65,0.729-1.612,1.145-2.756,1.145c-2.015,0-3.406-1.417-3.406-3.458s1.404-3.458,3.393-3.458
		C345.652,316.569,346.744,318.104,346.64,320.431z M345.73,319.599c-0.065-1.312-0.949-2.145-2.288-2.145
		c-1.3,0-2.236,0.845-2.392,2.145H345.73z"/>
	<path fill="#575756" d="M351.918,322.992c-0.481,0.325-1.001,0.507-1.547,0.52c-1.001,0-1.742-0.598-1.742-1.95v-3.911h-0.988
		v-0.818h0.988v-1.808h1.001v1.808l2.171-0.014v0.832h-2.171v3.729c0,0.832,0.325,1.146,0.91,1.146c0.351,0,0.715-0.117,1.092-0.354
		L351.918,322.992z"/>
	<path fill="#575756" d="M357.079,323.46v-9.646h1.014v9.646H357.079z"/>
	<path fill="#575756" d="M366.53,320.431h-5.59c0.182,1.339,1.157,2.187,2.483,2.187c0.845,0,1.586-0.3,2.119-0.858l0.559,0.6
		c-0.65,0.729-1.612,1.145-2.756,1.145c-2.015,0-3.406-1.417-3.406-3.458s1.404-3.458,3.393-3.458
		C365.542,316.569,366.634,318.104,366.53,320.431z M365.62,319.599c-0.065-1.312-0.949-2.145-2.288-2.145
		c-1.3,0-2.236,0.845-2.392,2.145H365.62z"/>
	<path fill="#575756" d="M378.646,319.04v4.42h-2.236v-3.796c0-0.819-0.481-1.326-1.235-1.326c-0.819,0-1.339,0.585-1.43,1.417
		v3.705h-2.249v-7.007h2.249v1.144c0.494-0.817,1.3-1.233,2.34-1.248C377.632,316.349,378.646,317.401,378.646,319.04z"/>
	<path fill="#575756" d="M387.317,319.95c0,2.158-1.534,3.588-3.822,3.588c-2.301,0-3.835-1.43-3.835-3.588s1.534-3.575,3.835-3.575
		C385.783,316.375,387.317,317.792,387.317,319.95z M381.922,319.976c0,1.094,0.637,1.82,1.573,1.82c0.923,0,1.56-0.729,1.56-1.82
		c0-1.077-0.637-1.818-1.56-1.818C382.559,318.155,381.922,318.896,381.922,319.976z"/>
	<path fill="#575756" d="M400.408,319.04v4.42h-2.236v-3.796c0-0.832-0.468-1.339-1.209-1.339c-0.845,0.023-1.365,0.715-1.365,1.664
		v3.471h-2.249v-3.796c0-0.832-0.455-1.339-1.196-1.339c-0.858,0.023-1.391,0.715-1.391,1.664v3.471h-2.236v-7.007h2.236v1.156
		c0.481-0.832,1.287-1.248,2.314-1.263c1.144,0,1.989,0.6,2.34,1.588c0.455-1.04,1.313-1.573,2.47-1.588
		C399.42,316.349,400.408,317.401,400.408,319.04z"/>
	<path fill="#575756" d="M409.703,319.989c0,2.132-1.274,3.549-3.237,3.549c-0.91,0-1.651-0.364-2.146-1.014v0.936h-2.249v-9.646
		h2.249v3.562c0.494-0.638,1.209-1.001,2.093-1.001C408.39,316.375,409.703,317.817,409.703,319.989z M407.44,319.924
		c0-1.064-0.637-1.82-1.573-1.82c-0.91,0-1.547,0.756-1.547,1.82c0,1.092,0.637,1.833,1.547,1.833
		C406.804,321.757,407.44,321.003,407.44,319.924z"/>
	<path fill="#575756" d="M413.16,317.636c0.481-0.817,1.274-1.272,2.275-1.287v2.028c-1.3-0.117-2.158,0.494-2.275,1.481v3.602
		h-2.249v-7.007h2.249V317.636z"/>
	<path fill="#575756" d="M423.066,320.561h-4.927c0.221,0.832,0.819,1.303,1.651,1.303c0.611,0,1.209-0.247,1.677-0.716l1.185,1.155
		c-0.716,0.78-1.77,1.235-3.055,1.235c-2.288,0-3.718-1.43-3.718-3.562c0-2.171,1.482-3.601,3.653-3.601
		C422,316.375,423.222,318,423.066,320.561z M420.908,319.352c0-0.855-0.546-1.417-1.352-1.417c-0.78,0-1.313,0.572-1.456,1.417
		H420.908z"/>
	<path fill="#575756" d="M434.363,323.46h-2.25v-0.923c-0.494,0.647-1.209,1.014-2.106,1.014c-1.976,0-3.274-1.456-3.274-3.627
		c0-2.146,1.285-3.562,3.224-3.562c0.923,0,1.664,0.362,2.158,1.015v-3.562h2.25L434.363,323.46L434.363,323.46z M432.114,319.976
		c0-1.077-0.624-1.818-1.562-1.818c-0.936,0-1.56,0.741-1.571,1.818c0.013,1.079,0.637,1.833,1.571,1.833
		C431.49,321.809,432.114,321.055,432.114,319.976z"/>
	<path fill="#575756" d="M442.826,320.561h-4.927c0.221,0.832,0.817,1.303,1.649,1.303c0.611,0,1.209-0.247,1.677-0.716l1.185,1.155
		c-0.715,0.78-1.77,1.235-3.055,1.235c-2.288,0-3.72-1.43-3.72-3.562c0-2.171,1.482-3.601,3.653-3.601
		C441.76,316.375,442.982,318,442.826,320.561z M440.668,319.352c0-0.855-0.546-1.417-1.352-1.417c-0.78,0-1.313,0.572-1.456,1.417
		H440.668z"/>
	<path fill="#575756" d="M454.76,319.989c0,2.132-1.272,3.549-3.235,3.549c-0.91,0-1.651-0.364-2.146-1.014v3.458h-2.249v-9.529
		h2.249v0.923c0.494-0.638,1.209-1.001,2.093-1.001C453.447,316.375,454.76,317.817,454.76,319.989z M452.498,319.924
		c0-1.064-0.637-1.82-1.573-1.82c-0.91,0-1.547,0.756-1.547,1.82c0,1.092,0.637,1.833,1.547,1.833
		C451.861,321.757,452.498,321.003,452.498,319.924z"/>
	<path fill="#575756" d="M462.573,320.561h-4.927c0.221,0.832,0.817,1.303,1.649,1.303c0.611,0,1.209-0.247,1.677-0.716l1.185,1.155
		c-0.715,0.78-1.77,1.235-3.057,1.235c-2.286,0-3.718-1.43-3.718-3.562c0-2.171,1.482-3.601,3.653-3.601
		C461.506,316.375,462.729,318,462.573,320.561z M460.415,319.352c0-0.855-0.546-1.417-1.353-1.417
		c-0.779,0-1.312,0.572-1.455,1.417H460.415z"/>
	<path fill="#575756" d="M466.043,317.636c0.481-0.817,1.274-1.272,2.275-1.287v2.028c-1.302-0.117-2.158,0.494-2.275,1.481v3.602
		h-2.249v-7.007h2.249V317.636z"/>
	<path fill="#575756" d="M474.74,317.142l-0.769,1.456c-0.845-0.455-1.625-0.7-2.21-0.7c-0.401,0-0.688,0.154-0.688,0.479
		c0,0.962,3.69,0.494,3.679,2.938c0,1.441-1.261,2.234-2.951,2.234c-1.17,0-2.301-0.338-3.146-0.988l0.715-1.43
		c0.793,0.562,1.703,0.871,2.482,0.871c0.441,0,0.768-0.156,0.768-0.479c0-1.026-3.627-0.493-3.614-2.951
		c0-1.442,1.222-2.225,2.847-2.225C472.868,316.349,473.882,316.635,474.74,317.142z"/>
	<path fill="#575756" d="M483.086,319.95c0,2.158-1.534,3.588-3.822,3.588c-2.301,0-3.835-1.43-3.835-3.588s1.534-3.575,3.835-3.575
		C481.552,316.375,483.086,317.792,483.086,319.95z M477.691,319.976c0,1.094,0.637,1.82,1.571,1.82c0.925,0,1.562-0.729,1.562-1.82
		c0-1.077-0.637-1.818-1.562-1.818C478.328,318.155,477.691,318.896,477.691,319.976z"/>
	<path fill="#575756" d="M491.445,319.04v4.42h-2.236v-3.796c0-0.819-0.48-1.326-1.235-1.326c-0.817,0-1.339,0.585-1.43,1.417v3.705
		h-2.249v-7.007h2.249v1.144c0.494-0.817,1.3-1.233,2.34-1.248C490.431,316.349,491.445,317.401,491.445,319.04z"/>
	<path fill="#575756" d="M500.194,319.04v4.42h-2.236v-3.796c0-0.819-0.481-1.326-1.235-1.326c-0.817,0-1.339,0.585-1.43,1.417
		v3.705h-2.249v-7.007h2.249v1.144c0.494-0.817,1.3-1.233,2.34-1.248C499.18,316.349,500.194,317.401,500.194,319.04z"/>
	<path fill="#575756" d="M508.396,320.561h-4.928c0.223,0.832,0.819,1.303,1.651,1.303c0.61,0,1.209-0.247,1.677-0.716l1.184,1.155
		c-0.716,0.78-1.769,1.235-3.056,1.235c-2.288,0-3.718-1.43-3.718-3.562c0-2.171,1.482-3.601,3.653-3.601
		C507.331,316.375,508.553,318,508.396,320.561z M506.239,319.352c0-0.855-0.546-1.417-1.354-1.417
		c-0.778,0-1.312,0.572-1.456,1.417H506.239z"/>
	<path fill="#575756" d="M515.014,317.142l-0.767,1.456c-0.845-0.455-1.625-0.7-2.21-0.7c-0.403,0-0.689,0.154-0.689,0.479
		c0,0.962,3.692,0.494,3.681,2.938c0,1.441-1.263,2.234-2.951,2.234c-1.17,0-2.301-0.338-3.146-0.988l0.716-1.43
		c0.793,0.562,1.702,0.871,2.482,0.871c0.442,0,0.768-0.156,0.768-0.479c0-1.026-3.628-0.493-3.613-2.951
		c0-1.442,1.222-2.225,2.847-2.225C513.142,316.349,514.155,316.635,515.014,317.142z"/>
	<path fill="#575756" d="M525.504,318.884v4.576h-2.197v-0.806c-0.455,0.598-1.194,0.907-2.146,0.907
		c-1.495,0-2.405-0.907-2.405-2.194c0-1.326,0.949-2.106,2.691-2.119h1.846v-0.104c0-0.688-0.455-1.104-1.365-1.104
		c-0.585,0-1.352,0.208-2.093,0.585l-0.637-1.482c1.092-0.507,2.08-0.793,3.25-0.793
		C524.374,316.349,525.492,317.298,525.504,318.884z M523.294,321.081v-0.624h-1.417c-0.676,0-1.014,0.233-1.014,0.754
		c0,0.507,0.362,0.832,0.986,0.832C522.553,322.043,523.151,321.653,523.294,321.081z"/>
	<path fill="#575756" d="M529.417,314.438c0,0.702-0.494,1.196-1.183,1.196c-0.689,0-1.185-0.494-1.185-1.196
		c0-0.688,0.494-1.183,1.185-1.183C528.923,313.255,529.417,313.749,529.417,314.438z M527.104,323.46v-7.007h2.235v7.007H527.104z"
		/>
	<path fill="#575756" d="M543.028,319.04v4.42h-2.236v-3.796c0-0.832-0.468-1.339-1.209-1.339c-0.845,0.023-1.365,0.715-1.365,1.664
		v3.471h-2.249v-3.796c0-0.832-0.455-1.339-1.194-1.339c-0.858,0.023-1.393,0.715-1.393,1.664v3.471h-2.235v-7.007h2.235v1.156
		c0.481-0.832,1.287-1.248,2.314-1.263c1.144,0,1.988,0.6,2.34,1.588c0.455-1.04,1.312-1.573,2.47-1.588
		C542.041,316.349,543.028,317.401,543.028,319.04z"/>
	<path fill="#575756" d="M550.828,318.884v4.576h-2.197v-0.806c-0.455,0.598-1.196,0.907-2.145,0.907
		c-1.495,0-2.405-0.907-2.405-2.194c0-1.326,0.949-2.106,2.689-2.119h1.848v-0.104c0-0.688-0.455-1.104-1.365-1.104
		c-0.585,0-1.352,0.208-2.093,0.585l-0.639-1.482c1.094-0.507,2.08-0.793,3.25-0.793
		C549.697,316.349,550.815,317.298,550.828,318.884z M548.618,321.081v-0.624h-1.417c-0.676,0-1.014,0.233-1.014,0.754
		c0,0.507,0.362,0.832,0.986,0.832C547.877,322.043,548.475,321.653,548.618,321.081z"/>
	<path fill="#575756" d="M559.577,319.04v4.42h-2.236v-3.796c0-0.819-0.479-1.326-1.233-1.326c-0.819,0-1.341,0.585-1.432,1.417
		v3.705h-2.249v-7.007h2.249v1.144c0.494-0.817,1.3-1.233,2.34-1.248C558.562,316.349,559.577,317.401,559.577,319.04z"/>
	<path fill="#575756" d="M565.7,323.083c-0.507,0.299-1.196,0.48-1.872,0.48c-1.354,0-2.327-0.769-2.327-2.225v-3.094h-0.975v-1.47
		h0.975v-1.95h2.236v1.938h1.833v1.482h-1.833v2.743c0,0.546,0.232,0.777,0.648,0.767c0.234,0,0.533-0.091,0.871-0.232
		L565.7,323.083z"/>
	<path fill="#575756" d="M569.912,323.46v-9.646h2.249v9.646H569.912z"/>
	<path fill="#575756" d="M580.221,318.884v4.576h-2.195v-0.806c-0.455,0.598-1.196,0.907-2.146,0.907
		c-1.495,0-2.405-0.907-2.405-2.194c0-1.326,0.949-2.106,2.691-2.119h1.846v-0.104c0-0.688-0.455-1.104-1.364-1.104
		c-0.586,0-1.353,0.208-2.094,0.585l-0.637-1.482c1.092-0.507,2.08-0.793,3.25-0.793
		C579.09,316.349,580.208,317.298,580.221,318.884z M578.011,321.081v-0.624h-1.417c-0.676,0-1.014,0.233-1.014,0.754
		c0,0.507,0.364,0.832,0.988,0.832C577.27,322.043,577.868,321.653,578.011,321.081z"/>
	<path fill="#575756" d="M592.532,319.989c0,2.132-1.274,3.549-3.237,3.549c-0.91,0-1.651-0.364-2.146-1.014v3.458H584.9v-9.529
		h2.249v0.923c0.492-0.638,1.209-1.001,2.093-1.001C591.219,316.375,592.532,317.817,592.532,319.989z M590.27,319.924
		c0-1.064-0.637-1.82-1.571-1.82c-0.91,0-1.547,0.756-1.547,1.82c0,1.092,0.637,1.833,1.547,1.833
		C589.633,321.757,590.27,321.003,590.27,319.924z"/>
	<path fill="#575756" d="M599.941,318.884v4.576h-2.197v-0.806c-0.455,0.598-1.196,0.907-2.146,0.907
		c-1.495,0-2.403-0.907-2.403-2.194c0-1.326,0.947-2.106,2.689-2.119h1.847v-0.104c0-0.688-0.455-1.104-1.364-1.104
		c-0.585,0-1.354,0.208-2.095,0.585l-0.637-1.482c1.092-0.507,2.08-0.793,3.25-0.793
		C598.811,316.349,599.929,317.298,599.941,318.884z M597.731,321.081v-0.624h-1.417c-0.678,0-1.016,0.233-1.016,0.754
		c0,0.507,0.364,0.832,0.988,0.832C596.99,322.043,597.588,321.653,597.731,321.081z"/>
	<path fill="#575756" d="M608.235,322.823c0,1.986-1.534,3.25-3.796,3.25c-1.224,0-2.327-0.393-3.12-0.923l0.778-1.521
		c0.639,0.442,1.417,0.702,2.171,0.702c1.079,0,1.729-0.572,1.729-1.443v-0.739c-0.455,0.599-1.145,0.937-2.015,0.937
		c-1.77,0-3.018-1.353-3.018-3.394c0-1.988,1.209-3.314,2.964-3.314c0.897-0.014,1.601,0.325,2.067,0.938v-0.857h2.236v6.366
		H608.235z M605.999,319.755c0-1.027-0.585-1.716-1.456-1.716c-0.884,0-1.482,0.702-1.482,1.716c0,1.001,0.6,1.703,1.482,1.703
		C605.414,321.458,605.999,320.756,605.999,319.755z"/>
	<path fill="#575756" d="M616.555,320.561h-4.927c0.221,0.832,0.819,1.303,1.651,1.303c0.609,0,1.209-0.247,1.677-0.716l1.183,1.155
		c-0.715,0.78-1.768,1.235-3.055,1.235c-2.288,0-3.718-1.43-3.718-3.562c0-2.171,1.48-3.601,3.651-3.601
		C615.489,316.375,616.711,318,616.555,320.561z M614.396,319.352c0-0.855-0.547-1.417-1.353-1.417c-0.78,0-1.312,0.572-1.456,1.417
		H614.396z"/>
	<path fill="#575756" d="M623.12,316.18v2.106h4.082v1.819h-4.082v3.354h-2.314v-9.101h6.747v1.818h-4.433V316.18z"/>
	<path fill="#575756" d="M634.846,318.884v4.576h-2.195v-0.806c-0.455,0.598-1.196,0.907-2.146,0.907
		c-1.495,0-2.405-0.907-2.405-2.194c0-1.326,0.949-2.106,2.691-2.119h1.846v-0.104c0-0.688-0.455-1.104-1.364-1.104
		c-0.586,0-1.353,0.208-2.094,0.585l-0.637-1.482c1.092-0.507,2.08-0.793,3.25-0.793
		C633.715,316.349,634.833,317.298,634.846,318.884z M632.636,321.081v-0.624h-1.417c-0.676,0-1.014,0.233-1.014,0.754
		c0,0.507,0.364,0.832,0.988,0.832C631.895,322.043,632.493,321.653,632.636,321.081z"/>
	<path fill="#575756" d="M642.62,317.948l-1.612,0.975c-0.325-0.455-0.806-0.729-1.417-0.729c-0.871,0-1.469,0.716-1.469,1.769
		c0,1.079,0.598,1.781,1.469,1.781c0.638,0,1.131-0.261,1.432-0.793l1.638,0.962c-0.572,1.027-1.703,1.625-3.187,1.625
		c-2.156,0-3.612-1.43-3.612-3.562c0-2.156,1.469-3.601,3.64-3.601C640.891,316.375,642.009,316.946,642.62,317.948z"/>
	<path fill="#575756" d="M650.16,320.561h-4.927c0.221,0.832,0.817,1.303,1.649,1.303c0.611,0,1.209-0.247,1.677-0.716l1.186,1.155
		c-0.716,0.78-1.771,1.235-3.056,1.235c-2.288,0-3.72-1.43-3.72-3.562c0-2.171,1.482-3.601,3.653-3.601
		C649.094,316.375,650.315,318,650.16,320.561z M648.002,319.352c0-0.855-0.546-1.417-1.353-1.417c-0.78,0-1.312,0.572-1.456,1.417
		H648.002z"/>
	<path fill="#575756" d="M659.077,319.989c0,2.132-1.273,3.549-3.236,3.549c-0.91,0-1.649-0.364-2.146-1.014v0.936h-2.249v-9.646
		h2.249v3.562c0.494-0.638,1.209-1.001,2.093-1.001C657.765,316.375,659.077,317.817,659.077,319.989z M656.815,319.924
		c0-1.064-0.639-1.82-1.573-1.82c-0.91,0-1.547,0.756-1.547,1.82c0,1.092,0.637,1.833,1.547,1.833
		C656.179,321.757,656.815,321.003,656.815,319.924z"/>
	<path fill="#575756" d="M667.358,319.95c0,2.158-1.534,3.588-3.822,3.588c-2.301,0-3.835-1.43-3.835-3.588s1.534-3.575,3.835-3.575
		C665.824,316.375,667.358,317.792,667.358,319.95z M661.963,319.976c0,1.094,0.637,1.82,1.573,1.82c0.923,0,1.56-0.729,1.56-1.82
		c0-1.077-0.637-1.818-1.56-1.818C662.6,318.155,661.963,318.896,661.963,319.976z"/>
	<path fill="#575756" d="M675.639,319.95c0,2.158-1.533,3.588-3.82,3.588c-2.303,0-3.835-1.43-3.835-3.588s1.532-3.575,3.835-3.575
		C674.104,316.375,675.639,317.792,675.639,319.95z M670.244,319.976c0,1.094,0.637,1.82,1.572,1.82c0.924,0,1.561-0.729,1.561-1.82
		c0-1.077-0.637-1.818-1.561-1.818C670.881,318.155,670.244,318.896,670.244,319.976z"/>
	<path fill="#575756" d="M679.161,321.549v1.911h-2.249v-9.646h2.249v5.097l2.312-2.457h2.55l-2.574,2.688l2.65,4.316h-2.664
		l-1.521-2.704L679.161,321.549z"/>
	<path fill="#575756" d="M692.941,317.193L692.551,318c-0.533-0.338-1.223-0.56-1.857-0.56c-0.769,0-1.354,0.271-1.354,0.908
		c0,1.521,3.822,0.741,3.822,3.198c0,1.354-1.196,1.95-2.51,1.95c-0.977,0-1.978-0.338-2.626-0.962l0.39-0.77
		c0.586,0.547,1.47,0.871,2.275,0.871c0.807,0,1.456-0.299,1.469-0.975c0.039-1.651-3.796-0.806-3.782-3.237
		c0-1.312,1.131-1.857,2.379-1.857C691.576,316.569,692.369,316.804,692.941,317.193z"/>
	<path fill="#575756" d="M700.768,323.46h-1.015v-1.547c-0.455,1.063-1.364,1.573-2.6,1.586c-1.602,0-2.562-1.014-2.562-2.665
		v-4.226h1.017v3.95c0,1.209,0.715,1.927,1.896,1.927c1.417-0.026,2.249-1.056,2.249-2.512v-3.365h1.015L700.768,323.46
		L700.768,323.46z"/>
	<path fill="#575756" d="M704.251,318.13c0.455-1.001,1.3-1.547,2.457-1.561v1.025c-1.443-0.024-2.34,0.871-2.457,2.225v3.641
		h-1.015v-6.852h1.015V318.13z"/>
	<path fill="#575756" d="M711.7,323.46v-9.646h1.014v9.646H711.7z"/>
	<path fill="#575756" d="M721.15,320.431h-5.592c0.184,1.339,1.157,2.187,2.483,2.187c0.845,0,1.586-0.3,2.119-0.858l0.559,0.6
		c-0.648,0.729-1.61,1.145-2.756,1.145c-2.016,0-3.406-1.417-3.406-3.458s1.404-3.458,3.395-3.458
		C720.163,316.569,721.255,318.104,721.15,320.431z M720.24,319.599c-0.064-1.312-0.948-2.145-2.288-2.145
		c-1.3,0-2.235,0.845-2.394,2.145H720.24z"/>
	<path fill="#575756" d="M726.896,317.193L726.506,318c-0.533-0.338-1.223-0.56-1.859-0.56c-0.767,0-1.352,0.271-1.352,0.908
		c0,1.521,3.822,0.741,3.822,3.198c0,1.354-1.196,1.95-2.51,1.95c-0.977,0-1.978-0.338-2.626-0.962l0.39-0.77
		c0.586,0.547,1.47,0.871,2.275,0.871c0.807,0,1.455-0.299,1.469-0.975c0.039-1.651-3.796-0.806-3.782-3.237
		c0-1.312,1.131-1.857,2.379-1.857C725.531,316.569,726.324,316.804,726.896,317.193z"/>
	<path fill="#575756" d="M739.351,320.054c0,2.028-1.324,3.445-3.264,3.445c-1.222,0-2.157-0.559-2.665-1.508v3.991h-1.014v-9.374
		h1.014v1.48c0.508-0.962,1.443-1.521,2.642-1.521C737.998,316.569,739.351,318,739.351,320.054z M738.323,320.028
		c0-1.472-1.016-2.55-2.444-2.55c-1.44,0-2.457,1.065-2.457,2.55c0,1.494,1.017,2.548,2.457,2.548
		C737.31,322.576,738.323,321.51,738.323,320.028z"/>
	<path fill="#575756" d="M742.146,318.13c0.453-1.001,1.3-1.547,2.455-1.561v1.025c-1.441-0.024-2.34,0.871-2.455,2.225v3.641
		h-1.017v-6.852h1.017V318.13z"/>
	<path fill="#575756" d="M747.124,314.646c0,0.401-0.286,0.7-0.663,0.7s-0.663-0.299-0.663-0.7c0-0.403,0.286-0.702,0.663-0.702
		S747.124,314.242,747.124,314.646z M745.967,323.46v-6.852h1.002v6.852H745.967z"/>
	<path fill="#575756" d="M755.705,319.234v4.226h-1.015v-3.952c0-1.209-0.729-1.924-1.938-1.924
		c-1.353,0.013-2.185,0.896-2.302,2.197v3.679h-1.015v-6.852h1.015v1.509c0.479-1.04,1.403-1.534,2.65-1.548
		C754.742,316.569,755.705,317.584,755.705,319.234z"/>
	<path fill="#575756" d="M763.31,317.597l-0.56,0.715c-0.52-0.492-1.209-0.793-2.041-0.793c-1.417,0-2.431,1.027-2.431,2.522
		s1.014,2.535,2.431,2.535c0.896,0,1.639-0.312,2.119-0.884l0.585,0.623c-0.61,0.739-1.56,1.184-2.743,1.184
		c-1.988,0-3.393-1.417-3.393-3.458s1.417-3.458,3.393-3.458C761.775,316.569,762.686,316.946,763.31,317.597z"/>
	<path fill="#575756" d="M766.416,314.646c0,0.401-0.286,0.7-0.663,0.7s-0.663-0.299-0.663-0.7c0-0.403,0.286-0.702,0.663-0.702
		S766.416,314.242,766.416,314.646z M765.259,323.46v-6.852h1.002v6.852H765.259z"/>
	<path fill="#575756" d="M775.737,320.054c0,2.028-1.325,3.445-3.265,3.445c-1.222,0-2.156-0.559-2.665-1.508v3.991h-1.014v-9.374
		h1.014v1.48c0.509-0.962,1.443-1.521,2.641-1.521C774.386,316.569,775.737,318,775.737,320.054z M774.711,320.028
		c0-1.472-1.015-2.55-2.444-2.55c-1.441,0-2.456,1.065-2.456,2.55c0,1.494,1.015,2.548,2.456,2.548
		C773.696,322.576,774.711,321.51,774.711,320.028z"/>
	<path fill="#575756" d="M781.77,322.407c-0.546,0.74-1.416,1.104-2.509,1.104c-1.417,0-2.327-0.91-2.327-2.093
		c0-1.196,0.949-1.95,2.562-1.963h2.25v-0.403c0-1.001-0.624-1.599-1.834-1.599c-0.754,0-1.456,0.285-2.171,0.779l-0.431-0.74
		c0.886-0.586,1.625-0.924,2.796-0.924c1.689,0,2.627,0.896,2.641,2.364l0.013,4.524h-0.986v-1.051L781.77,322.407L781.77,322.407z
		 M781.757,321.094v-0.817h-2.132c-1.145,0-1.742,0.352-1.742,1.104s0.61,1.248,1.573,1.248
		C780.612,322.628,781.497,322.043,781.757,321.094z"/>
	<path fill="#575756" d="M790.961,323.46h-1.015v-1.547c-0.455,1.063-1.364,1.573-2.602,1.586c-1.6,0-2.562-1.014-2.562-2.665
		v-4.226h1.015v3.95c0,1.209,0.715,1.927,1.897,1.927c1.417-0.026,2.249-1.056,2.249-2.512v-3.365h1.015L790.961,323.46
		L790.961,323.46z"/>
	<path fill="#575756" d="M797.474,316.608h1.118l-2.288,3.326l2.457,3.523h-1.184l-1.95-2.795l-2.015,2.795h-1.146l2.496-3.523
		l-2.327-3.326h1.171l1.819,2.601L797.474,316.608z"/>
	<path fill="#575756" d="M815.192,319.234v4.226h-1.016v-3.952c0-1.222-0.715-1.938-1.896-1.938
		c-1.417,0.039-2.236,1.054-2.236,2.521v3.367h-1.026v-3.952c0-1.222-0.7-1.938-1.896-1.938c-1.404,0.039-2.249,1.054-2.249,2.521
		v3.367h-1.001v-6.852h1.001v1.547c0.455-1.065,1.378-1.572,2.613-1.586c1.286,0,2.171,0.663,2.457,1.795
		c0.429-1.21,1.391-1.781,2.702-1.795C814.243,316.569,815.192,317.584,815.192,319.234z"/>
	<path fill="#575756" d="M821.692,322.407c-0.546,0.74-1.417,1.104-2.511,1.104c-1.417,0-2.325-0.91-2.325-2.093
		c0-1.196,0.946-1.95,2.561-1.963h2.249v-0.403c0-1.001-0.624-1.599-1.833-1.599c-0.754,0-1.456,0.285-2.171,0.779l-0.429-0.74
		c0.884-0.586,1.625-0.924,2.795-0.924c1.688,0,2.626,0.896,2.639,2.364l0.014,4.524h-0.986L821.692,322.407L821.692,322.407z
		 M821.68,321.094v-0.817h-2.133c-1.144,0-1.742,0.352-1.742,1.104s0.611,1.248,1.573,1.248
		C820.535,322.628,821.419,322.043,821.68,321.094z"/>
	<path fill="#575756" d="M825.956,318.13c0.455-1.001,1.3-1.547,2.457-1.561v1.025c-1.443-0.024-2.34,0.871-2.457,2.225v3.641
		h-1.014v-6.852h1.014V318.13z"/>
	<path fill="#575756" d="M833.704,322.407c-0.546,0.74-1.417,1.104-2.509,1.104c-1.417,0-2.327-0.91-2.327-2.093
		c0-1.196,0.948-1.95,2.561-1.963h2.249v-0.403c0-1.001-0.624-1.599-1.833-1.599c-0.754,0-1.456,0.285-2.171,0.779l-0.429-0.74
		c0.884-0.586,1.625-0.924,2.795-0.924c1.688,0,2.626,0.896,2.639,2.364l0.016,4.524h-0.988L833.704,322.407L833.704,322.407z
		 M833.691,321.094v-0.817h-2.135c-1.144,0-1.74,0.352-1.74,1.104s0.609,1.248,1.571,1.248
		C832.547,322.628,833.431,322.043,833.691,321.094z"/>
	<path fill="#575756" d="M840.49,322.992c-0.481,0.325-1.001,0.507-1.548,0.52c-1.001,0-1.741-0.598-1.741-1.95v-3.911h-0.988
		v-0.818h0.988v-1.808h1.001v1.808l2.171-0.014v0.832h-2.171v3.729c0,0.832,0.324,1.146,0.91,1.146c0.351,0,0.715-0.117,1.092-0.354
		L840.49,322.992z"/>
	<path fill="#575756" d="M848.368,319.234v4.226h-1.016v-3.952c0-1.209-0.729-1.924-1.938-1.924
		c-1.456,0.013-2.312,1.04-2.312,2.509v3.367h-1.016v-9.646h1.016v4.327c0.469-1.063,1.402-1.56,2.664-1.571
		C847.406,316.569,848.368,317.584,848.368,319.234z"/>
	<path fill="#575756" d="M856.883,320.028c0,2.054-1.441,3.471-3.471,3.471s-3.472-1.417-3.472-3.471
		c0-2.042,1.441-3.445,3.472-3.445C855.439,316.583,856.883,317.986,856.883,320.028z M850.954,320.041
		c0,1.508,1.026,2.548,2.458,2.548c1.43,0,2.457-1.04,2.457-2.548c0-1.495-1.027-2.535-2.457-2.535
		C851.981,317.506,850.954,318.546,850.954,320.041z"/>
	<path fill="#575756" d="M864.93,319.234v4.226h-1.014v-3.952c0-1.209-0.729-1.924-1.938-1.924
		c-1.354,0.013-2.186,0.896-2.303,2.197v3.679h-1.014v-6.852h1.014v1.509c0.481-1.04,1.404-1.534,2.652-1.548
		C863.968,316.569,864.93,317.584,864.93,319.234z"/>
	<path fill="#575756" d="M871.196,317.193L870.806,318c-0.531-0.338-1.223-0.56-1.857-0.56c-0.77,0-1.354,0.271-1.354,0.908
		c0,1.521,3.822,0.741,3.822,3.198c0,1.354-1.195,1.95-2.509,1.95c-0.978,0-1.979-0.338-2.626-0.962l0.39-0.77
		c0.585,0.547,1.47,0.871,2.275,0.871c0.805,0,1.456-0.299,1.469-0.975c0.039-1.651-3.796-0.806-3.783-3.237
		c0-1.312,1.131-1.857,2.379-1.857C869.831,316.569,870.624,316.804,871.196,317.193z"/>
	<path fill="#575756" d="M882.935,323.46h-1.014v-1.469c-0.508,0.962-1.442,1.521-2.666,1.521c-1.949,0-3.302-1.44-3.302-3.481
		c0-2.057,1.353-3.474,3.289-3.474c1.223,0,2.171,0.562,2.679,1.534v-4.275h1.014V323.46z M881.921,320.054
		c0-1.495-1.026-2.572-2.471-2.572c-1.456,0-2.482,1.077-2.482,2.572c0,1.482,1.026,2.548,2.482,2.548
		C880.894,322.602,881.921,321.536,881.921,320.054z"/>
	<path fill="#575756" d="M891.372,320.431h-5.591c0.183,1.339,1.156,2.187,2.481,2.187c0.847,0,1.586-0.3,2.119-0.858l0.561,0.6
		c-0.649,0.729-1.611,1.145-2.758,1.145c-2.015,0-3.404-1.417-3.404-3.458s1.402-3.458,3.394-3.458
		C890.384,316.569,891.476,318.104,891.372,320.431z M890.462,319.599c-0.065-1.312-0.949-2.145-2.288-2.145
		c-1.301,0-2.236,0.845-2.393,2.145H890.462z"/>
	<path fill="#575756" d="M897.857,315.36v3.196h4.251v1.001h-4.251v3.9h-1.04v-9.101h5.783v1.001L897.857,315.36L897.857,315.36z"/>
	<path fill="#575756" d="M905.007,318.13c0.455-1.001,1.3-1.547,2.457-1.561v1.025c-1.442-0.024-2.34,0.871-2.457,2.225v3.641
		h-1.014v-6.852h1.014V318.13z"/>
	<path fill="#575756" d="M912.756,322.407c-0.546,0.74-1.417,1.104-2.509,1.104c-1.418,0-2.327-0.91-2.327-2.093
		c0-1.196,0.948-1.95,2.561-1.963h2.25v-0.403c0-1.001-0.625-1.599-1.834-1.599c-0.754,0-1.454,0.285-2.171,0.779l-0.429-0.74
		c0.884-0.586,1.625-0.924,2.795-0.924c1.69,0,2.626,0.896,2.639,2.364l0.016,4.524h-0.988L912.756,322.407L912.756,322.407z
		 M912.743,321.094v-0.817h-2.133c-1.146,0-1.742,0.352-1.742,1.104s0.609,1.248,1.573,1.248
		C911.599,322.628,912.482,322.043,912.743,321.094z"/>
	<path fill="#575756" d="M922.271,319.234v4.226h-1.016v-3.952c0-1.209-0.729-1.924-1.938-1.924
		c-1.354,0.013-2.186,0.896-2.303,2.197v3.679h-1.014v-6.852h1.014v1.509c0.481-1.04,1.404-1.534,2.652-1.548
		C921.31,316.569,922.271,317.584,922.271,319.234z"/>
	<path fill="#575756" d="M929.877,317.597l-0.559,0.715c-0.521-0.492-1.209-0.793-2.041-0.793c-1.417,0-2.434,1.027-2.434,2.522
		s1.017,2.535,2.434,2.535c0.896,0,1.638-0.312,2.119-0.884l0.585,0.623c-0.611,0.739-1.562,1.184-2.743,1.184
		c-1.989,0-3.396-1.417-3.396-3.458s1.417-3.458,3.396-3.458C928.343,316.569,929.253,316.946,929.877,317.597z"/>
	<path fill="#575756" d="M937.404,320.431h-5.592c0.184,1.339,1.156,2.187,2.482,2.187c0.845,0,1.586-0.3,2.119-0.858l0.559,0.6
		c-0.647,0.729-1.61,1.145-2.756,1.145c-2.015,0-3.404-1.417-3.404-3.458s1.402-3.458,3.394-3.458
		C936.416,316.569,937.508,318.104,937.404,320.431z M936.494,319.599c-0.065-1.312-0.949-2.145-2.288-2.145
		c-1.301,0-2.236,0.845-2.394,2.145H936.494z"/>
	<path fill="#575756" d="M939.834,322.888c0,0.393-0.271,0.678-0.624,0.678c-0.363,0-0.637-0.285-0.637-0.678
		c0-0.39,0.271-0.676,0.637-0.676C939.562,322.212,939.834,322.498,939.834,322.888z"/>
</g>
</svg>
