<?xml version="1.0" encoding="utf-8"?>
<!-- Generator: Adobe Illustrator 16.0.0, SVG Export Plug-In . SVG Version: 6.00 Build 0)  -->
<!DOCTYPE svg PUBLIC "-//W3C//DTD SVG 1.1//EN" "http://www.w3.org/Graphics/SVG/1.1/DTD/svg11.dtd">
<svg version="1.1" id="Calque_1" xmlns="http://www.w3.org/2000/svg" xmlns:xlink="http://www.w3.org/1999/xlink" x="0px" y="0px"
	 width="1279.141px" height="799.756px" viewBox="0 0 1279.141 799.756" enable-background="new 0 0 1279.141 799.756"
	 xml:space="preserve">
<polygon display="none" fill="#CA4A3F" points="866.178,4047.915 865.46,4047.021 354.947,3962.938 49.805,3772.411 
	182.261,3221.753 1135.441,3185.839 1138.117,3185.737 1196.816,2412.104 1197.041,2409.15 220.024,2322.105 118.758,1576.011 
	1210.703,1436.899 1215.243,1436.321 901.594,909.448 1028.944,655.89 1029.262,655.89 1028.947,655.884 1029.626,654.532 
	953.75,654.532 409.417,644.747 -1.598,501.913 -1.598,525.542 -1.598,531.829 408.465,660.396 408.904,660.532 1019.898,660.532 
	895.495,908.224 894.757,909.692 1205.405,1431.526 115,1570.442 112,1570.823 214.401,2325.284 214.723,2327.657 1190.61,2414.604 
	1132.539,3179.944 179.763,3215.843 177.491,3215.929 42.96,3775.212 352.278,3968.347 352.788,3968.665 862.224,4052.571 
	1276.066,4566.271 1280.738,4562.509 "/>
<polygon fill="#B8DEDB" points="1031.262,-138.241 1031.047,-138.241 1030.947,-138.068 "/>
<line fill="none" stroke="#1D1D1B" stroke-width="0.5" stroke-miterlimit="10" x1="451.854" y1="408.917" x2="831.021" y2="408.917"/>
<path fill="#DF574A" d="M640.431,494.923c-62.434,0-124.867,0-187.303-0.004c-0.795,0-1.772,0.536-2.34-0.271
	c-0.642-0.923,0.055-3.005,0.05-4.617c-0.057-17.766-0.032-35.529-0.027-53.294c0.004-18.893,0.053-37.779-0.028-56.667
	c-0.017-3.539,0.321-4.517,2.02-4.497c10.257,0.101,20.519-0.128,30.775-0.239c0.979-0.011,1.889-0.265,2.704-1.72
	c1.428-2.548,3.273-1.673,4.911-2.581c4.675-2.599,9.202-6.404,13.96-8.284c3.183-1.259,6.319-2.641,9.408-4.964
	c7.859-5.914,15.906-10.246,24.132-13.173c3.207-1.143,6.448-1.312,9.638-2.755c3.618-1.644,7.193-3.644,10.638-6.455
	c1.364-1.11,2.534-3.845,2.707-7.612c0.129-2.807,0.777-3.689,2.087-4.158c5.492-1.965,11.021-0.488,16.52-1.309
	c10.442-1.562,20.942-0.617,31.357-2.93c3.469-0.771,7.031-1.029,10.417-3.329c0.681-0.463,1.349-0.341,2.023-0.454
	c1.756-0.303,3.63,0.678,5.071-2.878c0.369-0.915,1.273-0.827,1.939-1.122c4.671-2.065,9.337-4.214,14.023-6.108
	c1.784-0.722,3.619-1.186,5.432-1.174c3.425,0.021,6.455-3.211,9.67-4.907c2.157-1.136,3.382-4.465,4.948-7.173
	c2.204-3.815,4.971-5.31,7.482-7.861c4.622-4.695,9.411-8.651,13.8-14.431c1.452-1.916,3.152-1.903,4.718-2.965
	c2.068-1.401,3.094-4.376,3.295-8.947c0.104-2.364,0.254-4.724,0.303-7.092c0.07-3.409,0.933-4.702,2.383-5.121
	c3.632-1.054,7.285-0.38,10.923-0.963c7.211-1.158,14.441-1.696,21.664-1.53c5.584,0.127,11.111-0.326,16.578-2.766
	c5.844-2.607,11.842-4.26,17.398-8.905c2.957-2.473,6.008-3.957,8.947-6.331c3.43-2.768,7.069-3.631,10.599-5.532
	c1.128-0.608,1.899-2.126,2.853-3.128c2.281-2.395,4.791-2.969,7.174-4.566c5.244-3.518,10.58-6.378,15.863-9.628
	c1.118-0.688,1.911-1.373,1.901,2.4c-0.008,3.042,1.197,1.424,1.358,0.702c0.952-4.267,3.139-4.172,4.607-5.219
	c2.536-1.805,3.423-5.757,4.429-9.997c0.854-3.6,1.029-7.645,1.274-11.598c0.214-3.437,0.992-5,2.617-4.934
	c1.527,0.063,3.494-1.293,4.462,0.593c1.001,1.95,0.319,6.361,0.322,9.683c0.044,101.33,0.065,202.659,0.094,303.99
	c0,1-0.135,2.12,0.021,2.981c0.873,4.739-0.671,3.837-1.812,3.837C765.756,494.923,703.094,494.923,640.431,494.923z"/>
</svg>
