<?xml version="1.0" encoding="utf-8"?>
<!-- Generator: Adobe Illustrator 16.0.0, SVG Export Plug-In . SVG Version: 6.00 Build 0)  -->
<!DOCTYPE svg PUBLIC "-//W3C//DTD SVG 1.1//EN" "http://www.w3.org/Graphics/SVG/1.1/DTD/svg11.dtd">
<svg version="1.1" id="Calque_1" xmlns="http://www.w3.org/2000/svg" xmlns:xlink="http://www.w3.org/1999/xlink" x="0px" y="0px"
	 width="1279.141px" height="799.756px" viewBox="0 0 1279.141 799.756" enable-background="new 0 0 1279.141 799.756"
	 xml:space="preserve">
<polygon display="none" fill="#CA4A3F" points="866.178,4047.915 865.46,4047.021 354.947,3962.938 49.805,3772.411 
	182.261,3221.753 1135.441,3185.839 1138.117,3185.737 1196.816,2412.104 1197.041,2409.15 220.024,2322.105 118.758,1576.011 
	1210.703,1436.899 1215.243,1436.321 901.594,909.448 1028.944,655.89 1029.262,655.89 1028.947,655.884 1029.626,654.532 
	953.75,654.532 409.417,644.747 -1.598,501.913 -1.598,525.542 -1.598,531.829 408.465,660.396 408.904,660.532 1019.898,660.532 
	895.495,908.224 894.757,909.692 1205.405,1431.526 115,1570.442 112,1570.823 214.401,2325.284 214.723,2327.657 1190.61,2414.604 
	1132.539,3179.944 179.763,3215.843 177.491,3215.929 42.96,3775.212 352.278,3968.347 352.788,3968.665 862.224,4052.571 
	1276.066,4566.271 1280.738,4562.509 "/>
<polygon fill="#B8DEDB" points="1031.262,-138.241 1031.047,-138.241 1030.947,-138.068 "/>
<polygon fill="#DF574A" stroke="#DF574A" stroke-linecap="round" stroke-linejoin="round" stroke-miterlimit="10" points="
	451.961,485.587 461.579,485.587 465.924,475.474 470.812,480.534 474.796,475.474 479.141,491.548 483.668,482.155 492.36,495.702 
	496.887,495.702 501.233,489.378 505.758,495.702 510.286,482.337 514.45,491.907 523.323,468.608 527.668,492.632 531.833,492.45 
	536.541,478.724 541.249,475.474 545.05,485.226 549.578,488.839 554.286,461.026 558.45,478.362 563.701,485.046 567.322,495.702 
	572.392,491.728 575.832,484.864 581.083,484.864 585.791,475.474 589.774,488.839 594.301,488.839 598.646,485.046 602.45,478.362 
	611.502,492.269 616.572,481.974 624.721,489.198 629.428,485.407 633.791,475.292 638.138,478.362 643.17,484.864 646.811,489.017 
	651.52,478.362 655.684,481.431 660.209,489.017 664.193,484.864 669.082,471.862 673.609,487.468 677.955,475.835 682.119,485.226 
	686.646,478.362 691.172,474.751 695.156,415.513 700.227,471.319 704.029,481.431 708.736,485.046 713.082,481.974 
	716.885,488.476 721.955,492.45 726.301,492.45 730.826,485.767 734.99,450.911 748.209,492.632 752.734,492.632 756.719,489.198 
	761.969,474.751 770.844,475.112 774.826,461.026 779.895,467.165 783.697,419.124 788.588,438.991 796.734,446.034 
	801.805,393.839 805.607,405.399 814.783,218.834 823.473,469.753 828.303,450.009 828.303,495.702 451.961,495.702 "/>
<g>
	<polygon fill="none" points="1035.092,480.46 833.164,480.46 833.164,463.462 1035.092,463.462 1035.092,474.64 	"/>
	<path fill="#DF574A" d="M838.769,478.478l-3.228-4.309v4.309h-1.674v-6.995h1.572l3.238,4.315v-4.315h1.664v6.995H838.769z"/>
	<path fill="#DF574A" d="M848.874,474.97c0,2.039-1.624,3.588-3.799,3.588c-2.166,0-3.79-1.539-3.79-3.588
		c0-2.039,1.624-3.549,3.79-3.549C847.25,471.421,848.874,472.94,848.874,474.97z M843.11,474.979c0,1.181,0.911,2.089,1.983,2.089
		c1.083,0,1.945-0.908,1.945-2.089c0-1.18-0.862-2.069-1.945-2.069C844.013,472.909,843.11,473.8,843.11,474.979z"/>
	<path fill="#DF574A" d="M855.952,478.478l-0.01-4.549l-1.686,3.851h-1.163l-1.684-3.851v4.549h-1.594v-7.006h1.953l1.905,4.166
		l1.904-4.166h1.945v7.006H855.952z"/>
	<path fill="#DF574A" d="M862.259,471.481c1.573,0,2.576,0.68,2.576,1.747c0,0.74-0.461,1.33-1.203,1.539
		c0.882,0.17,1.443,0.859,1.443,1.771c0,1.188-1.042,1.938-2.696,1.938h-3.438v-6.996L862.259,471.481L862.259,471.481z
		 M860.715,474.28h1.443c0.521,0,0.852-0.281,0.852-0.73s-0.33-0.709-0.852-0.709h-1.443V474.28z M860.715,477.108h1.443
		c0.661,0,1.072-0.291,1.072-0.791c0-0.47-0.411-0.759-1.072-0.759h-1.443V477.108z"/>
	<path fill="#DF574A" d="M869.296,476.509h-0.05h-1.354v1.969h-1.783v-6.995h3.138c1.854,0,2.917,0.879,2.917,2.438
		c0,1.07-0.451,1.84-1.273,2.25l1.475,2.309h-2.024L869.296,476.509z M869.246,475.108c0.771,0,1.223-0.39,1.223-1.13
		c0-0.729-0.451-1.1-1.223-1.1h-1.354v2.229H869.246z"/>
	<path fill="#DF574A" d="M875.151,472.88v1.389h3.349v1.4h-3.349v1.408h3.818v1.399h-5.604v-6.995h5.493v1.397L875.151,472.88
		L875.151,472.88z"/>
	<path fill="#DF574A" d="M885.468,471.481c2.205,0,3.729,1.418,3.729,3.497c0,2.068-1.544,3.498-3.799,3.498h-2.947v-6.996
		L885.468,471.481L885.468,471.481z M884.234,477.058h1.272c1.093,0,1.874-0.84,1.874-2.067c0-1.24-0.822-2.09-1.955-2.09h-1.191
		V477.058z"/>
	<path fill="#DF574A" d="M891.924,472.88v1.389h3.35v1.4h-3.35v1.408h3.819v1.399h-5.604v-6.995h5.493v1.397L891.924,472.88
		L891.924,472.88z"/>
	<path fill="#DF574A" d="M903.984,476.987v1.489h-4.763v-6.995h1.784v5.506H903.984z"/>
	<path fill="#DF574A" d="M904.837,478.478v-6.995h1.784v6.995H904.837z"/>
	<path fill="#DF574A" d="M910.742,475.729l-0.934,1.029v1.719h-1.783v-6.995h1.783v3.026l2.688-3.026h2.064l-2.605,2.897
		l2.776,4.098h-2.136L910.742,475.729z"/>
	<path fill="#DF574A" d="M917.299,472.88v1.389h3.35v1.4h-3.35v1.408h3.819v1.399h-5.604v-6.995h5.493v1.397L917.299,472.88
		L917.299,472.88z"/>
	<path fill="#DF574A" d="M927.734,472.181l-0.672,1.39c-0.741-0.431-1.675-0.729-2.245-0.729c-0.461,0-0.771,0.17-0.771,0.51
		c0,1.209,3.709,0.521,3.709,3.048c0,1.399-1.243,2.139-2.807,2.139c-1.174,0-2.376-0.439-3.208-1.119l0.69-1.369
		c0.723,0.631,1.806,1.051,2.536,1.051c0.562,0,0.912-0.211,0.912-0.61c0-1.238-3.709-0.498-3.709-2.978
		c0-1.291,1.112-2.108,2.797-2.108C925.98,471.401,927.013,471.71,927.734,472.181z"/>
	<path fill="#DF574A" d="M936.518,472.181l-0.671,1.39c-0.741-0.431-1.675-0.729-2.245-0.729c-0.462,0-0.771,0.17-0.771,0.51
		c0,1.209,3.709,0.521,3.709,3.048c0,1.399-1.243,2.139-2.807,2.139c-1.175,0-2.376-0.439-3.208-1.119l0.69-1.369
		c0.722,0.631,1.805,1.051,2.536,1.051c0.562,0,0.912-0.211,0.912-0.61c0-1.238-3.709-0.498-3.709-2.978
		c0-1.291,1.112-2.108,2.797-2.108C934.764,471.401,935.796,471.71,936.518,472.181z"/>
	<path fill="#DF574A" d="M943.827,475.538c0,1.85-1.233,3.02-3.198,3.02c-1.975,0-3.238-1.17-3.238-3.02v-4.057h1.785v4.057
		c0,0.949,0.611,1.529,1.463,1.529c0.844,0,1.414-0.58,1.414-1.529v-4.057h1.774V475.538z"/>
	<path fill="#DF574A" d="M948.169,471.481c1.794,0,2.827,0.879,2.827,2.438c0,1.641-1.033,2.59-2.827,2.59h-1.272v1.969h-1.784
		v-6.995L948.169,471.481L948.169,471.481z M946.896,475.108h1.183c0.782,0,1.233-0.39,1.233-1.13c0-0.729-0.451-1.1-1.233-1.1
		h-1.183V475.108z"/>
	<path fill="#DF574A" d="M954.986,471.481c1.794,0,2.826,0.879,2.826,2.438c0,1.641-1.032,2.59-2.826,2.59h-1.273v1.969h-1.784
		v-6.995L954.986,471.481L954.986,471.481z M953.713,475.108h1.184c0.781,0,1.232-0.39,1.232-1.13c0-0.729-0.451-1.1-1.232-1.1
		h-1.184V475.108z"/>
	<path fill="#DF574A" d="M963.508,476.987v1.489h-4.762v-6.995h1.784v5.506H963.508z"/>
	<path fill="#DF574A" d="M966.145,472.88v1.389h3.35v1.4h-3.35v1.408h3.819v1.399h-5.604v-6.995h5.493v1.397L966.145,472.88
		L966.145,472.88z M967.588,470.872h-1.323l1.062-1.68l1.563,0.549L967.588,470.872z"/>
	<path fill="#DF574A" d="M977.252,478.478l-0.01-4.549l-1.686,3.851h-1.162l-1.685-3.851v4.549h-1.594v-7.006h1.954l1.904,4.166
		l1.904-4.166h1.945v7.006H977.252z"/>
	<path fill="#DF574A" d="M982.023,472.88v1.389h3.35v1.4h-3.35v1.408h3.819v1.399h-5.604v-6.995h5.493v1.397L982.023,472.88
		L982.023,472.88z"/>
	<path fill="#DF574A" d="M991.898,478.478l-3.229-4.309v4.309h-1.674v-6.995h1.573l3.237,4.315v-4.315h1.664v6.995H991.898z"/>
	<path fill="#DF574A" d="M998.125,472.909v5.567h-1.785v-5.567h-2.095v-1.438h5.995v1.438H998.125z"/>
	<path fill="#DF574A" d="M1001.845,477.188l-0.512,1.289h-1.834l3.026-6.995h1.834l2.959,6.995h-1.905l-0.501-1.289H1001.845z
		 M1003.389,473.249l-1.021,2.59h2.023L1003.389,473.249z"/>
	<path fill="#DF574A" d="M1007.971,478.478v-6.995h1.784v6.995H1007.971z"/>
	<path fill="#DF574A" d="M1014.347,476.509h-0.05h-1.354v1.969h-1.784v-6.995h3.138c1.854,0,2.917,0.879,2.917,2.438
		c0,1.07-0.451,1.84-1.272,2.25l1.474,2.309h-2.024L1014.347,476.509z M1014.297,475.108c0.771,0,1.223-0.39,1.223-1.13
		c0-0.729-0.45-1.1-1.223-1.1h-1.354v2.229H1014.297z"/>
	<path fill="#DF574A" d="M1020.202,472.88v1.389h3.349v1.4h-3.349v1.408h3.819v1.399h-5.604v-6.995h5.493v1.397L1020.202,472.88
		L1020.202,472.88z"/>
	<path fill="#DF574A" d="M1030.638,472.181l-0.671,1.39c-0.742-0.431-1.675-0.729-2.246-0.729c-0.461,0-0.771,0.17-0.771,0.51
		c0,1.209,3.709,0.521,3.709,3.048c0,1.399-1.243,2.139-2.808,2.139c-1.174,0-2.376-0.439-3.208-1.119l0.691-1.369
		c0.722,0.631,1.805,1.051,2.536,1.051c0.562,0,0.912-0.211,0.912-0.61c0-1.238-3.709-0.498-3.709-2.978
		c0-1.291,1.111-2.108,2.797-2.108C1028.884,471.401,1029.916,471.71,1030.638,472.181z"/>
</g>
<g>
	<polygon fill="none" points="1085.092,496.423 833.164,496.423 833.164,481.065 1085.092,481.065 1085.092,491.165 	"/>
	<path fill="#006E7E" d="M838.769,496.081l-3.228-4.309v4.309h-1.674v-6.996h1.572l3.238,4.316v-4.316h1.664v6.996H838.769z"/>
	<path fill="#006E7E" d="M848.874,492.573c0,2.039-1.624,3.588-3.799,3.588c-2.166,0-3.79-1.539-3.79-3.588
		c0-2.039,1.624-3.549,3.79-3.549C847.25,489.024,848.874,490.544,848.874,492.573z M843.11,492.583c0,1.18,0.911,2.088,1.983,2.088
		c1.083,0,1.945-0.908,1.945-2.088s-0.862-2.07-1.945-2.07C844.013,490.513,843.11,491.403,843.11,492.583z"/>
	<path fill="#006E7E" d="M855.952,496.081l-0.01-4.549l-1.686,3.85h-1.163l-1.684-3.85v4.549h-1.594v-7.006h1.953l1.905,4.166
		l1.904-4.166h1.945v7.006H855.952z"/>
	<path fill="#006E7E" d="M862.259,489.085c1.573,0,2.576,0.68,2.576,1.748c0,0.74-0.461,1.33-1.203,1.539
		c0.882,0.17,1.443,0.859,1.443,1.77c0,1.189-1.042,1.939-2.696,1.939h-3.438v-6.996H862.259L862.259,489.085z M860.715,491.884
		h1.443c0.521,0,0.852-0.281,0.852-0.729c0-0.449-0.33-0.709-0.852-0.709h-1.443V491.884z M860.715,494.712h1.443
		c0.661,0,1.072-0.291,1.072-0.791c0-0.469-0.411-0.758-1.072-0.758h-1.443V494.712z"/>
	<path fill="#006E7E" d="M869.296,494.112h-0.05h-1.354v1.969h-1.783v-6.996h3.138c1.854,0,2.917,0.879,2.917,2.438
		c0,1.069-0.451,1.84-1.273,2.25l1.475,2.309h-2.024L869.296,494.112z M869.246,492.712c0.771,0,1.223-0.389,1.223-1.129
		c0-0.73-0.451-1.1-1.223-1.1h-1.354v2.229H869.246z"/>
	<path fill="#006E7E" d="M875.151,490.483v1.389h3.349v1.4h-3.349v1.407h3.818v1.4h-5.604v-6.996h5.493v1.398L875.151,490.483
		L875.151,490.483z"/>
	<path fill="#006E7E" d="M885.468,489.085c2.205,0,3.729,1.418,3.729,3.498c0,2.068-1.544,3.498-3.799,3.498h-2.947v-6.996H885.468
		L885.468,489.085z M884.234,494.661h1.272c1.093,0,1.874-0.84,1.874-2.068c0-1.239-0.822-2.09-1.955-2.09h-1.191V494.661z"/>
	<path fill="#006E7E" d="M891.924,490.483v1.389h3.35v1.4h-3.35v1.407h3.819v1.4h-5.604v-6.996h5.493v1.398L891.924,490.483
		L891.924,490.483z"/>
	<path fill="#006E7E" d="M902.28,489.085c1.794,0,2.827,0.879,2.827,2.438c0,1.641-1.033,2.59-2.827,2.59h-1.273v1.969h-1.784
		v-6.996L902.28,489.085L902.28,489.085z M901.007,492.712h1.184c0.781,0,1.232-0.389,1.232-1.129c0-0.73-0.451-1.1-1.232-1.1
		h-1.184V492.712z"/>
	<path fill="#006E7E" d="M912.355,493.142c0,1.851-1.233,3.021-3.198,3.021c-1.976,0-3.238-1.17-3.238-3.021v-4.057h1.785v4.057
		c0,0.949,0.611,1.529,1.463,1.529c0.843,0,1.414-0.58,1.414-1.529v-4.057h1.774V493.142z"/>
	<path fill="#006E7E" d="M916.958,489.085c1.573,0,2.576,0.68,2.576,1.748c0,0.74-0.461,1.33-1.203,1.539
		c0.882,0.17,1.443,0.859,1.443,1.77c0,1.189-1.042,1.939-2.696,1.939h-3.438v-6.996H916.958L916.958,489.085z M915.414,491.884
		h1.443c0.521,0,0.852-0.281,0.852-0.729c0-0.449-0.33-0.709-0.852-0.709h-1.443V491.884z M915.414,494.712h1.443
		c0.66,0,1.071-0.291,1.071-0.791c0-0.469-0.411-0.758-1.071-0.758h-1.443V494.712z"/>
	<path fill="#006E7E" d="M925.569,494.591v1.49h-4.763v-6.996h1.784v5.506H925.569z"/>
	<path fill="#006E7E" d="M926.422,496.081v-6.996h1.784v6.996H926.422z"/>
	<path fill="#006E7E" d="M935.727,490.204l-1.033,1.219c-0.461-0.559-1.144-0.91-1.765-0.91c-1.112,0-1.955,0.881-1.955,2.029
		c0,1.17,0.843,2.059,1.955,2.059c0.591,0,1.272-0.317,1.765-0.817l1.043,1.1c-0.752,0.771-1.865,1.279-2.897,1.279
		c-2.115,0-3.688-1.549-3.688-3.601c0-2.018,1.613-3.536,3.75-3.536C933.939,489.024,935.023,489.483,935.727,490.204z"/>
	<path fill="#006E7E" d="M938.071,494.792l-0.513,1.289h-1.834l3.027-6.996h1.834l2.958,6.996h-1.905l-0.501-1.289H938.071z
		 M939.615,490.853l-1.022,2.591h2.024L939.615,490.853z"/>
	<path fill="#006E7E" d="M946.693,490.513v5.568h-1.785v-5.568h-2.096v-1.438h5.996v1.438H946.693z"/>
	<path fill="#006E7E" d="M949.571,496.081v-6.996h1.784v6.996H949.571z"/>
	<path fill="#006E7E" d="M959.887,492.573c0,2.039-1.624,3.588-3.799,3.588c-2.166,0-3.79-1.539-3.79-3.588
		c0-2.039,1.624-3.549,3.79-3.549C958.263,489.024,959.887,490.544,959.887,492.573z M954.123,492.583
		c0,1.18,0.912,2.088,1.984,2.088c1.082,0,1.944-0.908,1.944-2.088s-0.862-2.07-1.944-2.07S954.123,491.403,954.123,492.583z"/>
	<path fill="#006E7E" d="M965.73,496.081l-3.228-4.309v4.309h-1.674v-6.996h1.573l3.237,4.316v-4.316h1.664v6.996H965.73z"/>
	<path fill="#006E7E" d="M974.173,489.784l-0.671,1.389c-0.742-0.43-1.675-0.729-2.246-0.729c-0.461,0-0.771,0.17-0.771,0.51
		c0,1.209,3.709,0.52,3.709,3.047c0,1.4-1.243,2.139-2.808,2.139c-1.174,0-2.376-0.438-3.208-1.118l0.691-1.369
		c0.722,0.631,1.805,1.051,2.536,1.051c0.562,0,0.912-0.211,0.912-0.611c0-1.237-3.709-0.498-3.709-2.977
		c0-1.291,1.111-2.109,2.797-2.109C972.419,489.005,973.451,489.312,974.173,489.784z"/>
</g>
<path fill="#006E7E" stroke="#006E7E" stroke-linecap="round" stroke-linejoin="round" stroke-miterlimit="10" d="M451.961,489.269
	l4.588,6.984h4.828l4.104-3.492l4.347,3.492h5.794l3.139-3.492l4.828,3.492l4.587-3.492l3.381,3.492h18.831l4.346-3.492h3.38
	l4.588,3.492h14.002l4.346-5.779l4.347,2.287l4.588-3.492l7.725,6.984h10.141c0,0,7.968-5.299,7.968-9.631
	c0,0,4.588,8.668,9.174,9.631h21.729l5.312-3.611l4.346,3.611l3.622-3.131l4.346-0.242l4.828,3.373l4.664-30.824l4.27,30.824
	l8.689-6.502l4.588,3.129h4.104l4.588,3.373h5.311l3.623-3.611h13.519l3.862,3.611h9.898l3.863-3.371l3.862,3.371l4.828-6.5
	l4.346,3.611h4.587l3.864,2.889h9.414l4.347-3.611l4.104-6.981l4.588,10.594h9.658l3.621-2.889l4.586-0.242l4.104,3.131l4.589-6.5
	h4.346l4.104,6.5l4.586-6.26l4.349,6.26l4.346-3.369h4.586l4.828-6.981l4.105,6.26l4.586-11.32l4.104,11.804l4.828-6.984h3.621
	l5.553,4.094v6.5H451.961V489.269z"/>
</svg>
