<?xml version="1.0" encoding="utf-8"?>
<!-- Generator: Adobe Illustrator 16.0.0, SVG Export Plug-In . SVG Version: 6.00 Build 0)  -->
<!DOCTYPE svg PUBLIC "-//W3C//DTD SVG 1.1//EN" "http://www.w3.org/Graphics/SVG/1.1/DTD/svg11.dtd">
<svg version="1.1" id="Calque_1" xmlns="http://www.w3.org/2000/svg" xmlns:xlink="http://www.w3.org/1999/xlink" x="0px" y="0px"
	 width="1279.141px" height="799.756px" viewBox="0 0 1279.141 799.756" enable-background="new 0 0 1279.141 799.756"
	 xml:space="preserve">
<polygon display="none" fill="#CA4A3F" points="866.178,4047.915 865.46,4047.021 354.947,3962.938 49.805,3772.411 
	182.261,3221.753 1135.441,3185.839 1138.117,3185.737 1196.816,2412.104 1197.041,2409.15 220.024,2322.105 118.758,1576.011 
	1210.703,1436.899 1215.243,1436.321 901.594,909.448 1028.944,655.89 1029.262,655.89 1028.947,655.884 1029.626,654.532 
	953.75,654.532 409.417,644.747 -1.598,501.913 -1.598,525.542 -1.598,531.829 408.465,660.396 408.904,660.532 1019.898,660.532 
	895.495,908.224 894.757,909.692 1205.405,1431.526 115,1570.442 112,1570.823 214.401,2325.284 214.723,2327.657 1190.61,2414.604 
	1132.539,3179.944 179.763,3215.843 177.491,3215.929 42.96,3775.212 352.278,3968.347 352.788,3968.665 862.224,4052.571 
	1276.066,4566.271 1280.738,4562.509 "/>
<polygon fill="#B8DEDB" points="1031.262,-138.241 1031.047,-138.241 1030.947,-138.068 "/>
<g>
	<polygon fill="none" points="691.514,233.516 631.761,233.516 631.761,199.22 691.514,199.22 691.514,221.772 	"/>
	<path fill="#575756" d="M641.122,210.194c0,0.76-0.56,1.549-1.319,2.329l-1.419,1.509h2.948v1.409h-5.237v-1.149l2.498-2.648
		c0.392-0.41,0.67-0.88,0.67-1.199c0-0.4-0.29-0.64-0.789-0.64c-0.569,0-1.27,0.34-1.908,0.89l-0.671-1.279
		c0.881-0.66,1.84-1.05,2.84-1.05C640.122,208.365,641.122,209.084,641.122,210.194z"/>
	<path fill="#575756" d="M644.873,215.441h-1.879l2.499-5.587h-1.931v0.979h-1.559v-2.389h5.446v1.209L644.873,215.441z"/>
	<path fill="#575756" d="M647.255,216.55l3.229-9.215h1.448l-3.228,9.215H647.255z"/>
	<path fill="#575756" d="M657.751,211.933c0,2.288-1.109,3.558-3.088,3.558c-1.999,0-3.108-1.27-3.108-3.558
		c0-2.279,1.109-3.548,3.108-3.548C656.642,208.385,657.751,209.654,657.751,211.933z M653.384,211.933
		c0,1.599,0.379,2.259,1.279,2.259c0.879,0,1.269-0.66,1.269-2.259c0-1.6-0.39-2.249-1.269-2.249
		C653.763,209.684,653.384,210.333,653.384,211.933z"/>
	<path fill="#575756" d="M661.763,212.552v-1.499h1.649v1.499h0.949v1.35h-0.949v1.539h-1.649v-1.539h-3.317v-1.189l2.209-4.268
		h1.709l-2.079,4.107H661.763z"/>
	<path fill="#575756" d="M664.146,216.55l3.228-9.215h1.449l-3.229,9.215H664.146z"/>
	<path fill="#575756" d="M673.482,210.194c0,0.76-0.561,1.549-1.319,2.329l-1.419,1.509h2.948v1.409h-5.237v-1.149l2.498-2.648
		c0.391-0.41,0.67-0.88,0.67-1.199c0-0.4-0.29-0.64-0.789-0.64c-0.57,0-1.27,0.34-1.909,0.89l-0.67-1.279
		c0.88-0.66,1.839-1.05,2.839-1.05C672.482,208.365,673.482,209.084,673.482,210.194z"/>
	<path fill="#575756" d="M680.642,211.933c0,2.288-1.108,3.558-3.088,3.558c-1.999,0-3.107-1.27-3.107-3.558
		c0-2.279,1.108-3.548,3.107-3.548C679.532,208.385,680.642,209.654,680.642,211.933z M676.274,211.933
		c0,1.599,0.379,2.259,1.278,2.259c0.879,0,1.27-0.66,1.27-2.259c0-1.6-0.391-2.249-1.27-2.249
		C676.653,209.684,676.274,210.333,676.274,211.933z"/>
	<path fill="#575756" d="M682.425,215.441v-5.577h-1.289v-1.429h3.068v7.006H682.425z"/>
	<path fill="#575756" d="M688.773,212.552v-1.499h1.648v1.499h0.949v1.35h-0.949v1.539h-1.648v-1.539h-3.318v-1.189l2.209-4.268
		h1.709l-2.079,4.107H688.773z"/>
	<path fill="#575756" d="M643.562,224.722v1.68h-1.09v-1.68h-1.669v-1.089h1.669v-1.68h1.09v1.68h1.68v1.089H643.562z"/>
	<path fill="#575756" d="M646.934,227.441v-5.577h-1.289v-1.429h3.068v7.006H646.934z"/>
	<path fill="#575756" d="M651.054,227.441v-5.577h-1.289v-1.429h3.068v7.006H651.054z"/>
	<path fill="#575756" d="M656.163,221.854v1.129h0.63c1.599,0,2.648,0.86,2.648,2.109c0,1.469-1.101,2.419-2.788,2.419
		c-0.92,0-1.971-0.351-2.699-0.87l0.71-1.349c0.52,0.56,1.149,0.859,1.779,0.859c0.688,0,1.089-0.34,1.089-0.939
		c0-0.55-0.399-0.87-1.089-0.87c-0.36,0-1.471,0.021-1.899,0.051v-3.948h4.588v1.409H656.163z"/>
	<path fill="#575756" d="M667.532,225.952v1.489h-4.748v-6.996h1.778v5.507H667.532z"/>
	<path fill="#575756" d="M668.384,227.441v-6.996h1.779v6.996H668.384z"/>
	<path fill="#575756" d="M674.271,224.693l-0.93,1.029v1.719h-1.779v-6.996h1.779v3.028l2.68-3.028h2.059l-2.599,2.898l2.769,4.098
		h-2.129L674.271,224.693z"/>
	<path fill="#575756" d="M680.812,221.844v1.389h3.338v1.399h-3.338v1.409h3.808v1.399h-5.587v-6.996h5.478v1.399L680.812,221.844
		L680.812,221.844z"/>
	<path fill="#575756" d="M691.221,221.144l-0.67,1.39c-0.738-0.43-1.669-0.729-2.237-0.729c-0.46,0-0.771,0.17-0.771,0.51
		c0,1.209,3.698,0.52,3.698,3.048c0,1.399-1.239,2.139-2.799,2.139c-1.169,0-2.369-0.439-3.198-1.119l0.688-1.369
		c0.721,0.63,1.8,1.05,2.528,1.05c0.562,0,0.91-0.21,0.91-0.61c0-1.239-3.698-0.499-3.698-2.978c0-1.29,1.109-2.109,2.788-2.109
		C689.472,220.365,690.501,220.674,691.221,221.144z"/>
</g>
<g>
	<polygon fill="none" points="814.417,199.22 751.761,199.22 751.761,164.201 814.417,164.201 814.417,187.228 	"/>
	<path fill="#575756" d="M761.817,183.621v-5.577h-1.289v-1.429h3.067v7.006H761.817z"/>
	<path fill="#575756" d="M765.019,183.111l0.681-1.239c0.399,0.29,0.93,0.45,1.469,0.45c1.119,0,1.66-0.71,1.639-1.859
		c-0.33,0.47-0.889,0.75-1.668,0.75c-1.379,0-2.26-0.9-2.26-2.259c0-1.479,1.039-2.419,2.619-2.419c1.879,0,3.018,1.329,3.018,3.478
		c0,2.229-1.27,3.679-3.237,3.679C766.497,183.691,765.608,183.471,765.019,183.111z M768.616,178.934
		c0-0.52-0.33-0.979-1.049-0.979c-0.642,0-1.039,0.36-1.039,1.01c0,0.6,0.369,0.949,1.008,0.949
		C768.229,179.913,768.616,179.503,768.616,178.934z"/>
	<path fill="#575756" d="M770.54,184.73l3.227-9.215h1.449l-3.227,9.215H770.54z"/>
	<path fill="#575756" d="M781.036,180.113c0,2.288-1.109,3.558-3.09,3.558c-1.998,0-3.107-1.27-3.107-3.558
		c0-2.279,1.109-3.548,3.107-3.548C779.927,176.565,781.036,177.834,781.036,180.113z M776.667,180.113
		c0,1.599,0.381,2.259,1.279,2.259c0.881,0,1.27-0.66,1.27-2.259c0-1.6-0.389-2.249-1.27-2.249
		C777.048,177.864,776.667,178.514,776.667,180.113z"/>
	<path fill="#575756" d="M785.048,180.732v-1.499h1.648v1.499h0.948v1.35h-0.948v1.539h-1.648v-1.539h-3.317v-1.189l2.209-4.268
		h1.709l-2.08,4.107H785.048z"/>
	<path fill="#575756" d="M787.431,184.73l3.228-9.215h1.449l-3.228,9.215H787.431z"/>
	<path fill="#575756" d="M796.767,178.374c0,0.76-0.559,1.549-1.317,2.329l-1.42,1.509h2.949v1.409h-5.238v-1.149l2.498-2.648
		c0.391-0.41,0.67-0.88,0.67-1.199c0-0.4-0.289-0.64-0.789-0.64c-0.57,0-1.271,0.34-1.908,0.89l-0.67-1.279
		c0.879-0.66,1.838-1.05,2.838-1.05C795.767,176.545,796.767,177.265,796.767,178.374z"/>
	<path fill="#575756" d="M803.927,180.113c0,2.288-1.108,3.558-3.09,3.558c-1.998,0-3.106-1.27-3.106-3.558
		c0-2.279,1.108-3.548,3.106-3.548C802.817,176.565,803.927,177.834,803.927,180.113z M799.558,180.113
		c0,1.599,0.382,2.259,1.279,2.259c0.881,0,1.271-0.66,1.271-2.259c0-1.6-0.39-2.249-1.271-2.249
		C799.938,177.864,799.558,178.514,799.558,180.113z"/>
	<path fill="#575756" d="M805.71,183.621v-5.577h-1.289v-1.429h3.068v7.006H805.71z"/>
	<path fill="#575756" d="M810.819,178.034v1.129h0.629c1.6,0,2.647,0.86,2.647,2.109c0,1.469-1.1,2.419-2.787,2.419
		c-0.92,0-1.971-0.351-2.698-0.87l0.709-1.349c0.52,0.56,1.149,0.859,1.778,0.859c0.689,0,1.091-0.34,1.091-0.939
		c0-0.55-0.4-0.87-1.091-0.87c-0.358,0-1.469,0.021-1.897,0.051v-3.948h4.588v1.409H810.819z"/>
	<path fill="#575756" d="M768.296,192.902v1.68h-1.09v-1.68h-1.668v-1.089h1.668v-1.68h1.09v1.68h1.68v1.089H768.296z"/>
	<path fill="#575756" d="M773.505,195.621h-1.879l2.5-5.587h-1.93v0.979h-1.56v-2.389h5.445v1.209L773.505,195.621z"/>
	<path fill="#575756" d="M781.954,190.424c0,0.609-0.33,1.149-0.879,1.449c0.77,0.32,1.248,0.989,1.248,1.77
		c0,1.259-1.119,2.059-2.867,2.059c-1.75,0-2.869-0.79-2.869-2.029c0-0.799,0.521-1.479,1.33-1.799
		c-0.59-0.33-0.971-0.89-0.971-1.499c0-1.119,0.979-1.829,2.5-1.829C780.985,188.545,781.954,189.274,781.954,190.424z
		 M778.267,193.492c0,0.59,0.421,0.92,1.189,0.92s1.199-0.32,1.199-0.92c0-0.58-0.431-0.909-1.199-0.909
		S778.267,192.912,778.267,193.492z M778.446,190.523c0,0.5,0.358,0.78,1.01,0.78c0.647,0,1.01-0.28,1.01-0.78
		c0-0.52-0.36-0.81-1.01-0.81C778.806,189.714,778.446,190.004,778.446,190.523z"/>
	<path fill="#575756" d="M790.435,194.132v1.489h-4.747v-6.996h1.778v5.507H790.435z"/>
	<path fill="#575756" d="M791.286,195.621v-6.996h1.779v6.996H791.286z"/>
	<path fill="#575756" d="M797.175,192.873l-0.93,1.029v1.719h-1.779v-6.996h1.779v3.028l2.68-3.028h2.06l-2.601,2.898l2.771,4.098
		h-2.129L797.175,192.873z"/>
	<path fill="#575756" d="M803.716,190.024v1.389h3.338v1.399h-3.338v1.409h3.808v1.399h-5.586v-6.996h5.477v1.399L803.716,190.024
		L803.716,190.024z"/>
	<path fill="#575756" d="M814.124,189.324l-0.67,1.39c-0.74-0.43-1.67-0.729-2.238-0.729c-0.461,0-0.77,0.17-0.77,0.51
		c0,1.209,3.696,0.52,3.696,3.048c0,1.399-1.237,2.139-2.799,2.139c-1.168,0-2.369-0.439-3.196-1.119l0.688-1.369
		c0.719,0.63,1.799,1.05,2.527,1.05c0.561,0,0.91-0.21,0.91-0.61c0-1.239-3.697-0.499-3.697-2.978c0-1.29,1.108-2.109,2.787-2.109
		C812.374,188.545,813.403,188.854,814.124,189.324z"/>
</g>
<g>
	<polygon fill="none" points="557.188,304.183 497.094,304.183 497.094,269.99 557.188,269.99 557.188,292.474 	"/>
	<path fill="#575756" d="M509.364,284.163c0,0.76-0.561,1.549-1.319,2.329l-1.419,1.509h2.948v1.409h-5.237v-1.149l2.498-2.648
		c0.391-0.41,0.67-0.88,0.67-1.199c0-0.4-0.29-0.64-0.789-0.64c-0.569,0-1.27,0.34-1.909,0.89l-0.67-1.279
		c0.88-0.66,1.839-1.05,2.839-1.05C508.364,282.334,509.364,283.054,509.364,284.163z"/>
	<path fill="#575756" d="M511.276,289.41v-5.577h-1.289v-1.429h3.067v7.006H511.276L511.276,289.41z"/>
	<path fill="#575756" d="M513.678,290.52l3.229-9.215h1.449l-3.229,9.215H513.678z"/>
	<path fill="#575756" d="M524.174,285.902c0,2.288-1.108,3.558-3.089,3.558c-1.998,0-3.106-1.27-3.106-3.558
		c0-2.279,1.108-3.548,3.106-3.548C523.064,282.354,524.174,283.623,524.174,285.902z M519.806,285.902
		c0,1.599,0.38,2.259,1.279,2.259c0.88,0,1.271-0.66,1.271-2.259c0-1.6-0.391-2.249-1.271-2.249
		C520.186,283.653,519.806,284.303,519.806,285.902z"/>
	<path fill="#575756" d="M528.186,286.521v-1.499h1.649v1.499h0.949v1.35h-0.949v1.539h-1.649v-1.539h-3.317v-1.189l2.209-4.268
		h1.709l-2.079,4.107H528.186z"/>
	<path fill="#575756" d="M530.568,290.52l3.228-9.215h1.449l-3.229,9.215H530.568z"/>
	<path fill="#575756" d="M539.905,284.163c0,0.76-0.561,1.549-1.319,2.329l-1.419,1.509h2.948v1.409h-5.237v-1.149l2.498-2.648
		c0.391-0.41,0.67-0.88,0.67-1.199c0-0.4-0.29-0.64-0.789-0.64c-0.569,0-1.27,0.34-1.909,0.89l-0.67-1.279
		c0.88-0.66,1.839-1.05,2.839-1.05C538.905,282.334,539.905,283.054,539.905,284.163z"/>
	<path fill="#575756" d="M547.064,285.902c0,2.288-1.109,3.558-3.09,3.558c-1.998,0-3.106-1.27-3.106-3.558
		c0-2.279,1.108-3.548,3.106-3.548C545.955,282.354,547.064,283.623,547.064,285.902z M542.696,285.902
		c0,1.599,0.38,2.259,1.278,2.259c0.881,0,1.271-0.66,1.271-2.259c0-1.6-0.39-2.249-1.271-2.249
		C543.076,283.653,542.696,284.303,542.696,285.902z"/>
	<path fill="#575756" d="M548.848,289.41v-5.577h-1.289v-1.429h3.068v7.006H548.848L548.848,289.41z"/>
	<path fill="#575756" d="M555.137,285.303c1.021,0.159,1.739,0.829,1.739,1.908c0,1.34-1.05,2.279-2.679,2.279
		c-0.96,0-1.969-0.34-2.608-0.85l0.719-1.35c0.521,0.56,1.12,0.85,1.749,0.85c0.7,0,1.08-0.34,1.08-0.909
		c0-0.59-0.39-0.88-1.09-0.88h-1.119v-0.949l1.561-1.619h-2.549v-1.359h4.616v1.01l-1.749,1.818L555.137,285.303z"/>
	<path fill="#575756" d="M510.765,298.691v1.68h-1.089v-1.68h-1.669v-1.09h1.669v-1.68h1.089v1.68h1.681v1.09H510.765z"/>
	<path fill="#575756" d="M516.364,298.521v-1.5h1.648v1.5h0.949v1.35h-0.949v1.539h-1.648v-1.539h-3.318v-1.189l2.209-4.268h1.709
		l-2.079,4.107H516.364z"/>
	<path fill="#575756" d="M522.694,298.521v-1.5h1.648v1.5h0.949v1.35h-0.949v1.539h-1.648v-1.539h-3.318v-1.189l2.209-4.268h1.709
		l-2.079,4.107H522.694z"/>
	<path fill="#575756" d="M533.204,299.921v1.489h-4.748v-6.996h1.779v5.507H533.204z"/>
	<path fill="#575756" d="M534.056,301.41v-6.996h1.779v6.996H534.056z"/>
	<path fill="#575756" d="M539.944,298.662l-0.931,1.029v1.719h-1.778v-6.996h1.778v3.028l2.68-3.028h2.059l-2.599,2.898l2.769,4.098
		h-2.129L539.944,298.662z"/>
	<path fill="#575756" d="M546.484,295.813v1.389h3.338v1.398h-3.338v1.409h3.808v1.399h-5.587v-6.996h5.478v1.399L546.484,295.813
		L546.484,295.813z"/>
	<path fill="#575756" d="M556.893,295.113l-0.67,1.39c-0.738-0.43-1.669-0.729-2.237-0.729c-0.46,0-0.771,0.17-0.771,0.51
		c0,1.209,3.698,0.52,3.698,3.048c0,1.399-1.239,2.139-2.799,2.139c-1.169,0-2.369-0.438-3.198-1.119l0.689-1.368
		c0.72,0.63,1.799,1.05,2.527,1.05c0.562,0,0.91-0.21,0.91-0.61c0-1.239-3.698-0.499-3.698-2.978c0-1.29,1.109-2.109,2.788-2.109
		C555.144,294.334,556.173,294.644,556.893,295.113z"/>
</g>
<g>
	<g>
		
			<line fill="none" stroke="#575756" stroke-linecap="round" stroke-miterlimit="10" x1="561.305" y1="494.923" x2="561.305" y2="494.423"/>
		
			<line fill="none" stroke="#575756" stroke-linecap="round" stroke-miterlimit="10" stroke-dasharray="1.0131,5.0656" x1="561.305" y1="489.357" x2="561.305" y2="285.215"/>
		
			<line fill="none" stroke="#575756" stroke-linecap="round" stroke-miterlimit="10" x1="561.305" y1="282.683" x2="561.305" y2="282.183"/>
	</g>
</g>
<g>
	<g>
		
			<line fill="none" stroke="#575756" stroke-linecap="round" stroke-miterlimit="10" x1="695.091" y1="494.923" x2="695.091" y2="494.423"/>
		
			<line fill="none" stroke="#575756" stroke-linecap="round" stroke-miterlimit="10" stroke-dasharray="0.9979,4.9897" x1="695.091" y1="489.434" x2="695.091" y2="210.51"/>
		
			<line fill="none" stroke="#575756" stroke-linecap="round" stroke-miterlimit="10" x1="695.091" y1="208.016" x2="695.091" y2="207.516"/>
	</g>
</g>
<g>
	<g>
		
			<line fill="none" stroke="#575756" stroke-linecap="round" stroke-miterlimit="10" x1="822.549" y1="494.923" x2="822.549" y2="494.423"/>
		
			<line fill="none" stroke="#575756" stroke-linecap="round" stroke-miterlimit="10" stroke-dasharray="1.0044,5.0222" x1="822.549" y1="489.4" x2="822.549" y2="178.525"/>
		
			<line fill="none" stroke="#575756" stroke-linecap="round" stroke-miterlimit="10" x1="822.549" y1="176.014" x2="822.549" y2="175.514"/>
	</g>
</g>
</svg>
