<?xml version="1.0" encoding="utf-8"?>
<!-- Generator: Adobe Illustrator 16.0.0, SVG Export Plug-In . SVG Version: 6.00 Build 0)  -->
<!DOCTYPE svg PUBLIC "-//W3C//DTD SVG 1.1//EN" "http://www.w3.org/Graphics/SVG/1.1/DTD/svg11.dtd">
<svg version="1.1" id="Calque_1" xmlns="http://www.w3.org/2000/svg" xmlns:xlink="http://www.w3.org/1999/xlink" x="0px" y="0px"
	 width="1279.141px" height="799.756px" viewBox="0 0 1279.141 799.756" enable-background="new 0 0 1279.141 799.756"
	 xml:space="preserve">
<polygon display="none" fill="#CA4A3F" points="866.178,4047.915 865.46,4047.021 354.947,3962.938 49.805,3772.411 
	182.261,3221.753 1135.441,3185.839 1138.117,3185.737 1196.816,2412.104 1197.041,2409.15 220.024,2322.105 118.758,1576.011 
	1210.703,1436.899 1215.243,1436.321 901.594,909.448 1028.944,655.89 1029.262,655.89 1028.947,655.884 1029.626,654.532 
	953.75,654.532 409.417,644.747 -1.598,501.913 -1.598,525.542 -1.598,531.829 408.465,660.396 408.904,660.532 1019.898,660.532 
	895.495,908.224 894.757,909.692 1205.405,1431.526 115,1570.442 112,1570.823 214.401,2325.284 214.723,2327.657 1190.61,2414.604 
	1132.539,3179.944 179.763,3215.843 177.491,3215.929 42.96,3775.212 352.278,3968.347 352.788,3968.665 862.224,4052.571 
	1276.066,4566.271 1280.738,4562.509 "/>
<polygon fill="#B8DEDB" points="1031.262,-138.241 1031.047,-138.241 1030.947,-138.068 "/>
<line fill="none" stroke="#1D1D1B" stroke-width="0.5" stroke-miterlimit="10" x1="450.527" y1="163.978" x2="450.527" y2="496.101"/>
<g>
	<g>
		
			<line fill="none" stroke="#1D1D1B" stroke-width="0.5" stroke-miterlimit="10" x1="526.055" y1="163.978" x2="526.055" y2="164.478"/>
		
			<line fill="none" stroke="#1D1D1B" stroke-width="0.5" stroke-miterlimit="10" stroke-dasharray="1.0004,1.0004" x1="526.055" y1="165.478" x2="526.055" y2="495.101"/>
		
			<line fill="none" stroke="#1D1D1B" stroke-width="0.5" stroke-miterlimit="10" x1="526.055" y1="495.601" x2="526.055" y2="496.101"/>
	</g>
</g>
<g>
	<g>
		
			<line fill="none" stroke="#1D1D1B" stroke-width="0.5" stroke-miterlimit="10" x1="601.707" y1="163.978" x2="601.707" y2="164.478"/>
		
			<line fill="none" stroke="#1D1D1B" stroke-width="0.5" stroke-miterlimit="10" stroke-dasharray="1.0004,1.0004" x1="601.707" y1="165.478" x2="601.707" y2="495.101"/>
		
			<line fill="none" stroke="#1D1D1B" stroke-width="0.5" stroke-miterlimit="10" x1="601.707" y1="495.601" x2="601.707" y2="496.101"/>
	</g>
</g>
<g>
	<g>
		
			<line fill="none" stroke="#1D1D1B" stroke-width="0.5" stroke-miterlimit="10" x1="676.986" y1="163.978" x2="676.986" y2="164.478"/>
		
			<line fill="none" stroke="#1D1D1B" stroke-width="0.5" stroke-miterlimit="10" stroke-dasharray="1.0004,1.0004" x1="676.986" y1="165.478" x2="676.986" y2="495.101"/>
		
			<line fill="none" stroke="#1D1D1B" stroke-width="0.5" stroke-miterlimit="10" x1="676.986" y1="495.601" x2="676.986" y2="496.101"/>
	</g>
</g>
<g>
	<g>
		
			<line fill="none" stroke="#1D1D1B" stroke-width="0.5" stroke-miterlimit="10" x1="753.01" y1="163.978" x2="753.01" y2="164.478"/>
		
			<line fill="none" stroke="#1D1D1B" stroke-width="0.5" stroke-miterlimit="10" stroke-dasharray="1.0004,1.0004" x1="753.01" y1="165.478" x2="753.01" y2="495.101"/>
		
			<line fill="none" stroke="#1D1D1B" stroke-width="0.5" stroke-miterlimit="10" x1="753.01" y1="495.601" x2="753.01" y2="496.101"/>
	</g>
</g>
<g>
	<g>
		
			<line fill="none" stroke="#1D1D1B" stroke-width="0.5" stroke-miterlimit="10" x1="829.035" y1="163.978" x2="829.035" y2="164.478"/>
		
			<line fill="none" stroke="#1D1D1B" stroke-width="0.5" stroke-miterlimit="10" stroke-dasharray="1.0004,1.0004" x1="829.035" y1="165.478" x2="829.035" y2="495.101"/>
		
			<line fill="none" stroke="#1D1D1B" stroke-width="0.5" stroke-miterlimit="10" x1="829.035" y1="495.601" x2="829.035" y2="496.101"/>
	</g>
</g>
<line fill="none" stroke="#1D1D1B" stroke-width="0.5" stroke-miterlimit="10" x1="450.527" y1="496.158" x2="828.488" y2="496.158"/>
<g>
	<g>
		
			<line fill="none" stroke="#1D1D1B" stroke-width="0.5" stroke-miterlimit="10" x1="450.527" y1="412.529" x2="451.027" y2="412.529"/>
		
			<line fill="none" stroke="#1D1D1B" stroke-width="0.5" stroke-miterlimit="10" stroke-dasharray="0.9999,0.9999" x1="452.027" y1="412.529" x2="827.488" y2="412.529"/>
		
			<line fill="none" stroke="#1D1D1B" stroke-width="0.5" stroke-miterlimit="10" x1="827.988" y1="412.529" x2="828.488" y2="412.529"/>
	</g>
</g>
<g>
	<g>
		
			<line fill="none" stroke="#1D1D1B" stroke-width="0.5" stroke-miterlimit="10" x1="450.527" y1="330.039" x2="451.027" y2="330.039"/>
		
			<line fill="none" stroke="#1D1D1B" stroke-width="0.5" stroke-miterlimit="10" stroke-dasharray="0.9999,0.9999" x1="452.027" y1="330.039" x2="827.488" y2="330.039"/>
		
			<line fill="none" stroke="#1D1D1B" stroke-width="0.5" stroke-miterlimit="10" x1="827.988" y1="330.039" x2="828.488" y2="330.039"/>
	</g>
</g>
<g>
	<g>
		
			<line fill="none" stroke="#1D1D1B" stroke-width="0.5" stroke-miterlimit="10" x1="450.527" y1="246.71" x2="451.027" y2="246.71"/>
		
			<line fill="none" stroke="#1D1D1B" stroke-width="0.5" stroke-miterlimit="10" stroke-dasharray="0.9999,0.9999" x1="452.027" y1="246.71" x2="827.488" y2="246.71"/>
		
			<line fill="none" stroke="#1D1D1B" stroke-width="0.5" stroke-miterlimit="10" x1="827.988" y1="246.71" x2="828.488" y2="246.71"/>
	</g>
</g>
<g>
	<g>
		
			<line fill="none" stroke="#1D1D1B" stroke-width="0.5" stroke-miterlimit="10" x1="450.527" y1="163.978" x2="451.027" y2="163.978"/>
		
			<line fill="none" stroke="#1D1D1B" stroke-width="0.5" stroke-miterlimit="10" stroke-dasharray="0.9999,0.9999" x1="452.027" y1="163.978" x2="827.488" y2="163.978"/>
		
			<line fill="none" stroke="#1D1D1B" stroke-width="0.5" stroke-miterlimit="10" x1="827.988" y1="163.978" x2="828.488" y2="163.978"/>
	</g>
</g>
</svg>
