<?xml version="1.0" encoding="utf-8"?>
<!-- Generator: Adobe Illustrator 16.0.0, SVG Export Plug-In . SVG Version: 6.00 Build 0)  -->
<!DOCTYPE svg PUBLIC "-//W3C//DTD SVG 1.1//EN" "http://www.w3.org/Graphics/SVG/1.1/DTD/svg11.dtd">
<svg version="1.1" id="Calque_1" xmlns="http://www.w3.org/2000/svg" xmlns:xlink="http://www.w3.org/1999/xlink" x="0px" y="0px"
	 width="1279.141px" height="799.756px" viewBox="0 0 1279.141 799.756" enable-background="new 0 0 1279.141 799.756"
	 xml:space="preserve">
<polygon display="none" fill="#CA4A3F" points="866.178,4047.915 865.46,4047.021 354.947,3962.938 49.805,3772.411 
	182.261,3221.753 1135.441,3185.839 1138.117,3185.737 1196.816,2412.104 1197.041,2409.15 220.024,2322.105 118.758,1576.011 
	1210.703,1436.899 1215.243,1436.321 901.594,909.448 1028.944,655.89 1029.262,655.89 1028.947,655.884 1029.626,654.532 
	953.75,654.532 409.417,644.747 -1.598,501.913 -1.598,525.542 -1.598,531.829 408.465,660.396 408.904,660.532 1019.898,660.532 
	895.495,908.224 894.757,909.692 1205.405,1431.526 115,1570.442 112,1570.823 214.401,2325.284 214.723,2327.657 1190.61,2414.604 
	1132.539,3179.944 179.763,3215.843 177.491,3215.929 42.96,3775.212 352.278,3968.347 352.788,3968.665 862.224,4052.571 
	1276.066,4566.271 1280.738,4562.509 "/>
<polygon fill="#B8DEDB" points="1031.262,-138.241 1031.047,-138.241 1030.947,-138.068 "/>
<path fill="#575756" d="M688.044,109.775c3.266,0,5.762,2.417,5.762,5.602c0,3.186-2.513,5.603-5.81,5.603h-4.481v-11.204
	L688.044,109.775L688.044,109.775z M684.794,119.763h3.266c2.498,0,4.45-1.872,4.45-4.369c0-2.514-1.983-4.386-4.498-4.386h-3.218
	V119.763z"/>
<path fill="#575756" d="M696.843,118.146l-1.248,2.833h-1.359l5.023-11.204h1.329l5.011,11.204h-1.393l-1.249-2.833H696.843z
	 M699.884,111.231l-2.497,5.683h5.026L699.884,111.231z"/>
<path fill="#575756" d="M709.724,111.008v9.972h-1.279v-9.972h-3.648v-1.232h8.595v1.232H709.724z"/>
<path fill="#575756" d="M715.179,118.146l-1.248,2.833h-1.359l5.024-11.204h1.329l5.011,11.204h-1.394l-1.248-2.833H715.179z
	 M718.22,111.231l-2.496,5.683h5.025L718.22,111.231z"/>
<path fill="#575756" d="M732.587,114.561c2.017,0.097,3.377,1.185,3.377,2.978c0,2.064-1.521,3.506-3.922,3.506
	c-1.296,0-2.625-0.465-3.553-1.137l0.561-1.072c0.8,0.656,1.855,1.056,2.896,1.056c1.744,0,2.77-0.944,2.77-2.305
	c0-1.408-1.041-2.129-2.785-2.129h-1.377v-0.816l3.281-3.633h-4.85v-1.217h6.45v0.864l-3.476,3.857L732.587,114.561z"/>
</svg>
