<?xml version="1.0" encoding="utf-8"?>
<!-- Generator: Adobe Illustrator 16.0.0, SVG Export Plug-In . SVG Version: 6.00 Build 0)  -->
<!DOCTYPE svg PUBLIC "-//W3C//DTD SVG 1.1//EN" "http://www.w3.org/Graphics/SVG/1.1/DTD/svg11.dtd">
<svg version="1.1" id="Calque_1" xmlns="http://www.w3.org/2000/svg" xmlns:xlink="http://www.w3.org/1999/xlink" x="0px" y="0px"
	 width="1279.141px" height="799.756px" viewBox="0 0 1279.141 799.756" enable-background="new 0 0 1279.141 799.756"
	 xml:space="preserve">
<polygon display="none" fill="#CA4A3F" points="866.178,4047.915 865.46,4047.021 354.947,3962.938 49.805,3772.411 
	182.261,3221.753 1135.441,3185.839 1138.117,3185.737 1196.816,2412.104 1197.041,2409.15 220.024,2322.105 118.758,1576.011 
	1210.703,1436.899 1215.243,1436.321 901.594,909.448 1028.944,655.89 1029.262,655.89 1028.947,655.884 1029.626,654.532 
	953.75,654.532 409.417,644.747 -1.598,501.913 -1.598,525.542 -1.598,531.829 408.465,660.396 408.904,660.532 1019.898,660.532 
	895.495,908.224 894.757,909.692 1205.405,1431.526 115,1570.442 112,1570.823 214.401,2325.284 214.723,2327.657 1190.61,2414.604 
	1132.539,3179.944 179.763,3215.843 177.491,3215.929 42.96,3775.212 352.278,3968.347 352.788,3968.665 862.224,4052.571 
	1276.066,4566.271 1280.738,4562.509 "/>
<polygon fill="#B8DEDB" points="1031.262,-138.241 1031.047,-138.241 1030.947,-138.068 "/>
<g>
	<rect x="211.424" y="56.306" fill="none" width="857.957" height="24.158"/>
	<path fill="#575756" d="M494.104,60.704l-1.486,1.891c-1.674-1.705-4.03-2.729-6.418-2.729c-4.899,0-8.837,3.783-8.837,8.558
		c0,4.744,3.938,8.558,8.837,8.558c2.388,0,4.713-0.992,6.418-2.604l1.52,1.706c-2.14,2.015-5.054,3.349-8.062,3.349
		c-6.265,0-11.226-4.868-11.226-11.007c0-6.077,5.023-10.883,11.317-10.883C489.143,57.542,492.026,58.75,494.104,60.704z"/>
	<path fill="#575756" d="M518.749,68.456c0,6.108-5.022,10.976-11.348,10.976c-6.356,0-11.379-4.868-11.379-10.976
		c0-6.139,5.021-10.914,11.379-10.914C513.727,57.542,518.749,62.347,518.749,68.456z M498.533,68.456
		c0,4.775,4.031,8.589,8.868,8.589s8.806-3.814,8.806-8.589s-3.969-8.558-8.806-8.558S498.533,63.681,498.533,68.456z"/>
	<path fill="#575756" d="M542.929,79.308l-0.029-17.89l-7.906,15.596h-1.488l-7.875-15.596v17.89h-2.354V57.604h3.068l7.938,15.627
		l7.905-15.627h3.038v21.704H542.929z"/>
	<path fill="#575756" d="M559.977,57.604c5.364,0,8.466,2.667,8.466,7.287c0,4.806-3.103,7.565-8.466,7.565h-5.674v6.852h-2.479
		V57.604H559.977z M554.302,70.068h5.581c3.907,0,6.17-1.736,6.17-5.116c0-3.286-2.264-4.961-6.17-4.961h-5.581V70.068z"/>
	<path fill="#575756" d="M573.243,73.82l-2.418,5.488h-2.636l9.734-21.704h2.574l9.705,21.704h-2.698l-2.418-5.488H573.243z
		 M579.135,60.425l-4.837,11.007h9.735L579.135,60.425z"/>
	<path fill="#575756" d="M603.314,72.393c-0.467,0.031-0.961,0.062-1.457,0.062h-5.769v6.852h-2.479V57.604h8.248
		c5.426,0,8.558,2.667,8.558,7.287c0,3.597-1.736,6.015-4.868,7.038l5.085,7.379h-2.819L603.314,72.393z M601.857,70.068
		c3.938,0,6.17-1.736,6.17-5.116c0-3.286-2.232-4.961-6.17-4.961h-5.769v10.077H601.857z"/>
	<path fill="#575756" d="M617.914,73.82l-2.419,5.488h-2.635l9.734-21.704h2.573l9.705,21.704h-2.697l-2.419-5.488H617.914z
		 M623.805,60.425l-4.837,11.007h9.736L623.805,60.425z"/>
	<path fill="#575756" d="M638.28,79.308V57.604h2.479v21.704H638.28z"/>
	<path fill="#575756" d="M660.665,59.526l-1.055,2.325c-1.953-1.302-4.248-1.829-5.984-1.829c-2.79,0-4.619,1.054-4.619,2.884
		c0,5.581,12.216,2.666,12.187,10.542c0,3.627-3.193,5.953-7.847,5.953c-3.162,0-6.263-1.364-8.309-3.318l1.116-2.232
		c2.015,1.954,4.773,3.07,7.224,3.07c3.132,0,5.085-1.271,5.085-3.349c0.031-5.705-12.185-2.667-12.185-10.449
		c0-3.411,3.007-5.612,7.503-5.612C656.293,57.51,658.866,58.317,660.665,59.526z"/>
	<path fill="#575756" d="M686.954,68.456c0,6.108-5.023,10.976-11.349,10.976c-6.356,0-11.381-4.868-11.381-10.976
		c0-6.139,5.022-10.914,11.381-10.914C681.931,57.542,686.954,62.347,686.954,68.456z M666.738,68.456
		c0,4.775,4.028,8.589,8.867,8.589c4.837,0,8.806-3.814,8.806-8.589s-3.969-8.558-8.806-8.558
		C670.768,59.898,666.738,63.681,666.738,68.456z"/>
	<path fill="#575756" d="M706.979,79.308l-13.021-17.425v17.425h-2.479V57.604h2.572l13.022,17.457V57.604h2.448v21.704H706.979z"/>
	<path fill="#575756" d="M736.613,76.951v2.356h-11.999V57.604h2.479v19.348L736.613,76.951L736.613,76.951z"/>
	<path fill="#575756" d="M740.642,79.308V57.604h2.48v21.704H740.642z"/>
	<path fill="#575756" d="M756.39,69.014l-4.217,4.62v5.674h-2.479V57.604h2.479V70.1l11.658-12.496h2.946l-8.589,9.426l9.238,12.278
		h-3.039L756.39,69.014z"/>
	<path fill="#575756" d="M773.842,59.991v7.132h10.945v2.387h-10.945v7.441h12.65v2.356h-15.131V57.604h14.728v2.387H773.842z"/>
	<path fill="#575756" d="M804.874,59.526l-1.054,2.325c-1.953-1.302-4.248-1.829-5.984-1.829c-2.79,0-4.62,1.054-4.62,2.884
		c0,5.581,12.217,2.666,12.188,10.542c0,3.627-3.193,5.953-7.846,5.953c-3.163,0-6.264-1.364-8.311-3.318l1.117-2.232
		c2.015,1.954,4.772,3.07,7.224,3.07c3.132,0,5.085-1.271,5.085-3.349c0.031-5.705-12.186-2.667-12.186-10.449
		c0-3.411,3.008-5.612,7.504-5.612C800.503,57.51,803.076,58.317,804.874,59.526z"/>
</g>
</svg>
