<?xml version="1.0" encoding="utf-8"?>
<!-- Generator: Adobe Illustrator 16.0.0, SVG Export Plug-In . SVG Version: 6.00 Build 0)  -->
<!DOCTYPE svg PUBLIC "-//W3C//DTD SVG 1.1//EN" "http://www.w3.org/Graphics/SVG/1.1/DTD/svg11.dtd">
<svg version="1.1" id="Calque_1" xmlns="http://www.w3.org/2000/svg" xmlns:xlink="http://www.w3.org/1999/xlink" x="0px" y="0px"
	 width="1279.141px" height="799.756px" viewBox="0 0 1279.141 799.756" enable-background="new 0 0 1279.141 799.756"
	 xml:space="preserve">
<g>
	<path fill="#575756" d="M743.102,501.896l-0.499,1.035c-0.551-0.32-1.243-0.543-1.668-0.543c-0.343,0-0.573,0.126-0.573,0.379
		c0,0.901,2.755,0.388,2.755,2.271c0,1.043-0.923,1.594-2.085,1.594c-0.871,0-1.765-0.328-2.383-0.834l0.514-1.021
		c0.536,0.47,1.341,0.782,1.885,0.782c0.416,0,0.677-0.156,0.677-0.454c0-0.924-2.755-0.373-2.755-2.22
		c0-0.96,0.826-1.57,2.078-1.57C741.799,501.316,742.565,501.547,743.102,501.896z"/>
	<path fill="#575756" d="M746.256,502.44v4.147h-1.326v-4.147h-1.556v-1.072h4.452v1.072H746.256z"/>
	<path fill="#575756" d="M749.021,505.627l-0.379,0.961h-1.363l2.249-5.213h1.362l2.197,5.213h-1.415l-0.372-0.961H749.021z
		 M750.169,502.693l-0.76,1.929h1.504L750.169,502.693z"/>
	<path fill="#575756" d="M755.431,502.44v4.147h-1.325v-4.147h-1.557v-1.072h4.453v1.072H755.431z"/>
	<path fill="#575756" d="M762.264,504.398c0,1.378-0.916,2.249-2.376,2.249c-1.467,0-2.405-0.871-2.405-2.249v-3.023h1.326v3.023
		c0,0.708,0.454,1.14,1.087,1.14c0.625,0,1.05-0.432,1.05-1.14v-3.023h1.318V504.398z"/>
	<path fill="#575756" d="M765.634,502.44v4.147h-1.325v-4.147h-1.557v-1.072h4.453v1.072H765.634z"/>
</g>
<polygon display="none" fill="#CA4A3F" points="866.178,4047.915 865.46,4047.021 354.947,3962.938 49.805,3772.411 
	182.261,3221.753 1135.441,3185.839 1138.117,3185.737 1196.816,2412.104 1197.041,2409.15 220.024,2322.105 118.758,1576.011 
	1210.703,1436.899 1215.243,1436.321 901.594,909.448 1028.944,655.89 1029.262,655.89 1028.947,655.884 1029.626,654.532 
	953.75,654.532 409.417,644.747 -1.598,501.913 -1.598,525.542 -1.598,531.829 408.465,660.396 408.904,660.532 1019.898,660.532 
	895.495,908.224 894.757,909.692 1205.405,1431.526 115,1570.442 112,1570.823 214.401,2325.284 214.723,2327.657 1190.61,2414.604 
	1132.539,3179.944 179.763,3215.843 177.491,3215.929 42.96,3775.212 352.278,3968.347 352.788,3968.665 862.224,4052.571 
	1276.066,4566.271 1280.738,4562.509 "/>
<polygon fill="#B8DEDB" points="1031.262,-138.241 1031.047,-138.241 1030.947,-138.068 "/>
<g>
	<polygon fill="none" points="526.258,263.48 453.136,263.48 453.136,249.691 526.258,249.691 526.258,258.762 	"/>
	<path fill="#575756" d="M455.928,250.01c1.333,0,2.102,0.654,2.102,1.816c0,1.221-0.769,1.929-2.102,1.929h-0.944v1.467h-1.325
		v-5.212H455.928L455.928,250.01z M454.982,252.712h0.879c0.581,0,0.916-0.29,0.916-0.841c0-0.544-0.335-0.819-0.916-0.819h-0.879
		V252.712z"/>
	<path fill="#575756" d="M459.521,254.261l-0.382,0.961h-1.36l2.249-5.212h1.361l2.197,5.212h-1.415l-0.372-0.961H459.521z
		 M460.668,251.327l-0.76,1.929h1.504L460.668,251.327z"/>
	<path fill="#575756" d="M466.445,253.755h-0.037h-1.005v1.467h-1.325v-5.212h2.331c1.377,0,2.167,0.654,2.167,1.816
		c0,0.797-0.335,1.37-0.945,1.676l1.095,1.72h-1.504L466.445,253.755z M466.408,252.712c0.572,0,0.908-0.29,0.908-0.841
		c0-0.544-0.336-0.819-0.908-0.819h-1.005v1.66H466.408z"/>
	<path fill="#575756" d="M471.886,251.074v4.147h-1.325v-4.147h-1.556v-1.072h4.453v1.072H471.886z"/>
	<path fill="#575756" d="M474.653,254.261l-0.379,0.961h-1.363l2.249-5.212h1.363l2.195,5.212h-1.415l-0.372-0.961H474.653z
		 M475.8,251.327l-0.76,1.929h1.504L475.8,251.327z"/>
	<path fill="#575756" d="M483.676,252.57v2.033c-0.559,0.395-1.437,0.678-2.167,0.678c-1.586,0-2.785-1.146-2.785-2.666
		c0-1.512,1.229-2.65,2.875-2.65c0.774,0,1.595,0.298,2.13,0.774l-0.744,0.9c-0.381-0.35-0.908-0.565-1.395-0.565
		c-0.854,0-1.512,0.67-1.512,1.541c0,0.887,0.663,1.557,1.527,1.557c0.268,0,0.608-0.097,0.923-0.253v-1.349H483.676z"/>
	<path fill="#575756" d="M485.93,251.052v1.035h2.487v1.042h-2.487v1.051h2.837v1.042h-4.161v-5.212h4.079v1.042H485.93z"/>
	<path fill="#575756" d="M493.686,250.53l-0.498,1.035c-0.552-0.32-1.243-0.544-1.668-0.544c-0.343,0-0.572,0.127-0.572,0.38
		c0,0.901,2.755,0.388,2.755,2.271c0,1.042-0.923,1.594-2.085,1.594c-0.871,0-1.766-0.328-2.383-0.834l0.514-1.021
		c0.536,0.469,1.34,0.782,1.884,0.782c0.417,0,0.679-0.156,0.679-0.454c0-0.924-2.756-0.373-2.756-2.22
		c0-0.96,0.827-1.571,2.078-1.571C492.383,249.949,493.15,250.181,493.686,250.53z"/>
</g>
<g>
	<polygon fill="none" points="526.258,346.213 453.136,346.213 453.136,332.426 526.258,332.426 526.258,341.494 	"/>
	<path fill="#575756" d="M458.199,333.576l-0.769,0.909c-0.342-0.417-0.849-0.68-1.311-0.68c-0.827,0-1.452,0.655-1.452,1.514
		c0,0.871,0.625,1.532,1.452,1.532c0.438,0,0.946-0.236,1.311-0.609l0.774,0.817c-0.559,0.573-1.385,0.953-2.152,0.953
		c-1.569,0-2.738-1.152-2.738-2.681c0-1.504,1.197-2.636,2.783-2.636C456.874,332.698,457.678,333.041,458.199,333.576z"/>
	<path fill="#575756" d="M464.02,335.342c0,1.521-1.204,2.673-2.82,2.673c-1.608,0-2.814-1.146-2.814-2.673
		c0-1.52,1.206-2.644,2.814-2.644C462.812,332.698,464.02,333.83,464.02,335.342z M459.738,335.349c0,0.879,0.677,1.559,1.474,1.559
		c0.804,0,1.445-0.679,1.445-1.559c0-0.878-0.643-1.541-1.445-1.541S459.738,334.471,459.738,335.349z"/>
	<path fill="#575756" d="M469.282,337.955l-0.007-3.388l-1.251,2.864h-0.864l-1.251-2.864v3.388h-1.186v-5.22h1.452l1.415,3.104
		l1.415-3.104h1.445v5.22H469.282z"/>
	<path fill="#575756" d="M476.065,337.955l-0.01-3.388l-1.251,2.864h-0.862l-1.251-2.864v3.388h-1.186v-5.22h1.452l1.415,3.104
		l1.415-3.104h1.445v5.22H476.065z"/>
	<path fill="#575756" d="M479.616,333.785v1.035h2.487v1.042h-2.487v1.05h2.837v1.043h-4.162v-5.213h4.08v1.043H479.616
		L479.616,333.785z"/>
	<path fill="#575756" d="M486.956,337.955l-2.398-3.209v3.209h-1.243v-5.213h1.171l2.403,3.217v-3.217h1.236v5.213H486.956z"/>
	<path fill="#575756" d="M491.585,333.808v4.147h-1.325v-4.147h-1.556v-1.07h4.453v1.07H491.585z"/>
	<path fill="#575756" d="M494.352,336.994l-0.38,0.961h-1.36l2.249-5.213h1.361l2.197,5.213h-1.415l-0.372-0.961H494.352z
		 M495.499,334.061l-0.76,1.931h1.504L495.499,334.061z"/>
	<path fill="#575756" d="M498.907,337.955v-5.213h1.325v5.213H498.907z"/>
	<path fill="#575756" d="M503.645,336.488h-0.035h-1.006v1.467h-1.324v-5.213h2.331c1.377,0,2.167,0.656,2.167,1.815
		c0,0.799-0.335,1.37-0.945,1.678l1.095,1.72h-1.504L503.645,336.488z M503.608,335.445c0.571,0,0.906-0.29,0.906-0.843
		c0-0.544-0.335-0.817-0.906-0.817h-1.005v1.66H503.608z"/>
	<path fill="#575756" d="M507.999,333.785v1.035h2.487v1.042h-2.487v1.05h2.837v1.043h-4.162v-5.213h4.08v1.043H507.999
		L507.999,333.785z"/>
	<path fill="#575756" d="M515.755,333.264l-0.499,1.035c-0.551-0.32-1.244-0.543-1.668-0.543c-0.342,0-0.573,0.126-0.573,0.379
		c0,0.901,2.755,0.39,2.755,2.271c0,1.043-0.923,1.594-2.085,1.594c-0.87,0-1.765-0.328-2.383-0.834l0.516-1.021
		c0.534,0.472,1.34,0.782,1.884,0.782c0.417,0,0.678-0.154,0.678-0.454c0-0.924-2.755-0.373-2.755-2.22
		c0-0.96,0.827-1.57,2.078-1.57C514.452,332.684,515.219,332.914,515.755,333.264z"/>
</g>
<g>
	<polygon fill="none" points="526.258,430.977 453.136,430.977 453.136,417.188 526.258,417.188 526.258,426.258 	"/>
	<path fill="#575756" d="M457.194,421.608v1.107h-3.537v-5.211h1.325v4.104H457.194z"/>
	<path fill="#575756" d="M457.831,422.718v-5.211h1.325v5.211H457.831z"/>
	<path fill="#575756" d="M462.219,420.671l-0.69,0.77v1.277h-1.325v-5.211h1.325v2.256l1.996-2.256h1.532l-1.936,2.158l2.062,3.053
		h-1.586L462.219,420.671z"/>
	<path fill="#575756" d="M467.094,418.548v1.035h2.487v1.043h-2.487v1.051h2.837v1.041h-4.163v-5.211h4.081v1.041H467.094
		L467.094,418.548z"/>
	<path fill="#575756" d="M474.851,418.026l-0.499,1.033c-0.551-0.318-1.242-0.543-1.668-0.543c-0.343,0-0.571,0.127-0.571,0.381
		c0,0.9,2.755,0.389,2.755,2.271c0,1.043-0.923,1.594-2.085,1.594c-0.871,0-1.767-0.328-2.383-0.834l0.514-1.02
		c0.536,0.469,1.341,0.781,1.884,0.781c0.417,0,0.677-0.156,0.677-0.453c0-0.926-2.755-0.373-2.755-2.223
		c0-0.959,0.827-1.568,2.078-1.568C473.547,417.446,474.314,417.677,474.851,418.026z"/>
</g>
<g>
	<polygon fill="none" points="562.818,514.848 489.697,514.848 489.697,501.059 562.818,501.059 562.818,510.127 	"/>
	<path fill="#575756" d="M513.13,501.375c1.333,0,2.102,0.656,2.102,1.817c0,1.222-0.769,1.929-2.102,1.929h-0.946v1.467h-1.324
		v-5.213H513.13L513.13,501.375z M512.184,504.078h0.88c0.579,0,0.916-0.29,0.916-0.841c0-0.544-0.337-0.819-0.916-0.819h-0.88
		V504.078z"/>
	<path fill="#575756" d="M519.412,506.588v-2.023h-2.16v2.023h-1.326v-5.213h1.326v2.145h2.16v-2.145h1.325v5.213H519.412z"/>
	<path fill="#575756" d="M527.08,503.975c0,1.521-1.206,2.675-2.822,2.675c-1.606,0-2.813-1.146-2.813-2.675
		c0-1.52,1.207-2.644,2.813-2.644C525.874,501.331,527.08,502.463,527.08,503.975z M522.798,503.981
		c0,0.879,0.678,1.557,1.477,1.557c0.804,0,1.442-0.678,1.442-1.557c0-0.88-0.64-1.541-1.442-1.541
		C523.469,502.44,522.798,503.104,522.798,503.981z"/>
	<path fill="#575756" d="M530.026,502.44v4.146h-1.325v-4.146h-1.558v-1.072h4.453v1.072H530.026z"/>
	<path fill="#575756" d="M537.194,503.975c0,1.521-1.206,2.675-2.822,2.675c-1.608,0-2.814-1.146-2.814-2.675
		c0-1.52,1.206-2.644,2.814-2.644C535.988,501.331,537.194,502.463,537.194,503.975z M532.913,503.981
		c0,0.879,0.677,1.557,1.474,1.557c0.806,0,1.445-0.678,1.445-1.557c0-0.88-0.641-1.541-1.445-1.541
		C533.583,502.44,532.913,503.104,532.913,503.981z"/>
	<path fill="#575756" d="M541.958,501.896l-0.499,1.033c-0.551-0.318-1.244-0.543-1.668-0.543c-0.342,0-0.573,0.126-0.573,0.379
		c0,0.901,2.755,0.39,2.755,2.271c0,1.043-0.923,1.594-2.085,1.594c-0.871,0-1.765-0.328-2.383-0.834l0.514-1.021
		c0.536,0.47,1.342,0.78,1.886,0.78c0.417,0,0.678-0.154,0.678-0.453c0-0.925-2.755-0.372-2.755-2.221
		c0-0.96,0.827-1.568,2.078-1.568C540.655,501.316,541.422,501.547,541.958,501.896z"/>
</g>
<g>
	<polygon fill="none" points="638.268,514.848 565.146,514.848 565.146,501.059 638.268,501.059 638.268,510.127 	"/>
	<path fill="#575756" d="M594.652,505.479v1.109h-3.537v-5.213h1.326v4.104H594.652z"/>
	<path fill="#575756" d="M595.289,506.588v-5.213h1.326v5.213H595.289z"/>
	<path fill="#575756" d="M598.985,502.418v1.035h2.485v1.042h-2.485v1.05h2.837v1.043h-4.163v-5.213h4.081v1.043H598.985
		L598.985,502.418z"/>
	<path fill="#575756" d="M606.324,506.588l-2.398-3.209v3.209h-1.244v-5.213h1.169l2.405,3.217v-3.217h1.236v5.213H606.324z"/>
	<path fill="#575756" d="M612.6,501.896l-0.499,1.033c-0.551-0.318-1.242-0.543-1.668-0.543c-0.343,0-0.571,0.126-0.571,0.379
		c0,0.901,2.755,0.39,2.755,2.271c0,1.043-0.923,1.594-2.085,1.594c-0.871,0-1.767-0.328-2.385-0.834l0.516-1.021
		c0.536,0.47,1.341,0.78,1.884,0.78c0.417,0,0.677-0.154,0.677-0.453c0-0.925-2.755-0.372-2.755-2.221
		c0-0.96,0.827-1.568,2.078-1.568C611.296,501.316,612.062,501.547,612.6,501.896z"/>
</g>
<g>
	<polygon fill="none" points="713.547,514.848 640.424,514.848 640.424,501.059 713.547,501.059 713.547,510.127 	"/>
	<path fill="#575756" d="M664.332,506.588l-2.025-5.213h1.415l1.333,3.835l1.333-3.835h1.362l-2.048,5.213H664.332z"/>
	<path fill="#575756" d="M668.269,506.588v-5.213h1.326v5.213H668.269z"/>
	<path fill="#575756" d="M672.881,501.375c1.638,0,2.771,1.058,2.771,2.606c0,1.542-1.146,2.604-2.822,2.604h-2.189v-5.213
		L672.881,501.375L672.881,501.375z M671.965,505.53h0.945c0.812,0,1.393-0.625,1.393-1.541c0-0.924-0.608-1.559-1.452-1.559h-0.886
		V505.53z"/>
	<path fill="#575756" d="M677.682,502.418v1.035h2.486v1.042h-2.486v1.05h2.837v1.043h-4.163v-5.213h4.081v1.043H677.682
		L677.682,502.418z M678.754,500.921h-0.981l0.788-1.251l1.161,0.41L678.754,500.921z"/>
	<path fill="#575756" d="M686.674,503.975c0,1.521-1.206,2.675-2.822,2.675c-1.606,0-2.812-1.146-2.812-2.675
		c0-1.52,1.206-2.644,2.812-2.644C685.468,501.331,686.674,502.463,686.674,503.975z M682.392,503.981
		c0,0.879,0.68,1.557,1.477,1.557c0.805,0,1.442-0.678,1.442-1.557c0-0.88-0.64-1.541-1.442-1.541
		C683.062,502.44,682.392,503.104,682.392,503.981z"/>
	<path fill="#575756" d="M691.438,501.896l-0.497,1.033c-0.553-0.318-1.243-0.543-1.669-0.543c-0.344,0-0.572,0.126-0.572,0.379
		c0,0.901,2.755,0.39,2.755,2.271c0,1.043-0.923,1.594-2.085,1.594c-0.871,0-1.767-0.328-2.383-0.834l0.514-1.021
		c0.536,0.47,1.341,0.78,1.885,0.78c0.417,0,0.677-0.154,0.677-0.453c0-0.925-2.755-0.372-2.755-2.221
		c0-0.96,0.827-1.568,2.078-1.568C690.135,501.316,690.901,501.547,691.438,501.896z"/>
</g>
</svg>
