<?xml version="1.0" encoding="utf-8"?>
<!-- Generator: Adobe Illustrator 16.0.0, SVG Export Plug-In . SVG Version: 6.00 Build 0)  -->
<!DOCTYPE svg PUBLIC "-//W3C//DTD SVG 1.1//EN" "http://www.w3.org/Graphics/SVG/1.1/DTD/svg11.dtd">
<svg version="1.1" id="Calque_1" xmlns="http://www.w3.org/2000/svg" xmlns:xlink="http://www.w3.org/1999/xlink" x="0px" y="0px"
	 width="1279.141px" height="799.756px" viewBox="0 0 1279.141 799.756" enable-background="new 0 0 1279.141 799.756"
	 xml:space="preserve">
<polygon display="none" fill="#CA4A3F" points="866.178,4047.915 865.46,4047.021 354.947,3962.938 49.805,3772.411 
	182.261,3221.753 1135.441,3185.839 1138.117,3185.737 1196.816,2412.104 1197.041,2409.15 220.024,2322.105 118.758,1576.011 
	1210.703,1436.899 1215.243,1436.321 901.594,909.448 1028.944,655.89 1029.262,655.89 1028.947,655.884 1029.626,654.532 
	953.75,654.532 409.417,644.747 -1.598,501.913 -1.598,525.542 -1.598,531.829 408.465,660.396 408.904,660.532 1019.898,660.532 
	895.495,908.224 894.757,909.692 1205.405,1431.526 115,1570.442 112,1570.823 214.401,2325.284 214.723,2327.657 1190.61,2414.604 
	1132.539,3179.944 179.763,3215.843 177.491,3215.929 42.96,3775.212 352.278,3968.347 352.788,3968.665 862.224,4052.571 
	1276.066,4566.271 1280.738,4562.509 "/>
<polygon fill="#B8DEDB" points="1029.262,-142.241 1029.047,-142.241 1028.947,-142.068 "/>
<polyline fill="#8AC3CA" points="276.025,622.816 1272.657,622.816 298.619,560.037 "/>
<g>
	<rect x="329.852" y="632.159" fill="none" width="89.893" height="38.921"/>
	<path fill="#8AC3CA" d="M363.892,641.062l-5.037-6.739v6.739h-0.959v-8.396h0.995l5.038,6.752v-6.752h0.947v8.396H363.892z"/>
	<path fill="#8AC3CA" d="M367.435,641.062v-8.396h0.959v8.396H367.435z"/>
	<path fill="#8AC3CA" d="M377.595,633.867l-0.576,0.729c-0.648-0.656-1.559-1.055-2.483-1.055c-1.895,0-3.418,1.463-3.418,3.311
		c0,1.836,1.523,3.312,3.418,3.312c0.924,0,1.823-0.384,2.483-1.008l0.587,0.66c-0.827,0.776-1.955,1.295-3.118,1.295
		c-2.422,0-4.341-1.886-4.341-4.261c0-2.351,1.943-4.209,4.377-4.209C375.676,632.645,376.792,633.112,377.595,633.867z"/>
	<path fill="#8AC3CA" d="M380.298,633.592v2.758h4.233v0.927h-4.233v2.879h4.893v0.911h-5.853v-8.396h5.697v0.924L380.298,633.592
		L380.298,633.592z"/>
	<path fill="#8AC3CA" d="M389.035,642.526l3.742-11.298h0.828l-3.754,11.298H389.035z"/>
	<path fill="#8AC3CA" d="M357.123,648.267l-0.576,0.731c-0.648-0.659-1.559-1.055-2.483-1.055c-1.895,0-3.418,1.463-3.418,3.31
		c0,1.835,1.523,3.312,3.418,3.312c0.924,0,1.823-0.387,2.483-1.011l0.587,0.66c-0.827,0.779-1.955,1.295-3.118,1.295
		c-2.423,0-4.342-1.883-4.342-4.258c0-2.351,1.943-4.209,4.378-4.209C355.204,647.044,356.319,647.512,357.123,648.267z"/>
	<path fill="#8AC3CA" d="M359.562,653.34l-0.936,2.123h-1.02l3.766-8.396h0.996l3.754,8.396h-1.043l-0.936-2.123H359.562z
		 M361.841,648.159l-1.871,4.258h3.766L361.841,648.159z"/>
	<path fill="#8AC3CA" d="M373.443,655.463l-5.037-6.74v6.74h-0.959v-8.396h0.995l5.038,6.752v-6.752h0.947v8.396H373.443z"/>
	<path fill="#8AC3CA" d="M382.983,655.463l-5.037-6.74v6.74h-0.959v-8.396h0.995l5.038,6.752v-6.752h0.947v8.396H382.983z"/>
	<path fill="#8AC3CA" d="M387.486,647.991v2.758h4.233v0.924h-4.233v2.879h4.893v0.911h-5.853v-8.396h5.697v0.924H387.486
		L387.486,647.991z"/>
	<path fill="#8AC3CA" d="M399.496,647.812l-0.408,0.896c-0.755-0.504-1.643-0.708-2.314-0.708c-1.08,0-1.787,0.408-1.787,1.115
		c0,2.159,4.726,1.03,4.713,4.078c0,1.4-1.235,2.303-3.034,2.303c-1.224,0-2.423-0.528-3.214-1.283l0.432-0.864
		c0.78,0.758,1.847,1.188,2.794,1.188c1.211,0,1.967-0.491,1.967-1.295c0.012-2.207-4.714-1.031-4.714-4.042
		c0-1.319,1.164-2.171,2.903-2.171C397.805,647.031,398.8,647.344,399.496,647.812z"/>
</g>
<g>
	<rect x="424.609" y="632.159" fill="none" width="89.893" height="38.921"/>
	<path fill="#8AC3CA" d="M434.271,640.152v0.908h-4.643v-8.396h0.959v7.484L434.271,640.152L434.271,640.152z"/>
	<path fill="#8AC3CA" d="M436.662,638.94l-0.938,2.122h-1.02l3.766-8.396h0.996l3.754,8.396h-1.043l-0.936-2.122H436.662z
		 M438.941,633.76l-1.871,4.258h3.766L438.941,633.76z"/>
	<path fill="#8AC3CA" d="M451.588,638.389c-0.18,0.016-0.372,0.024-0.562,0.024h-2.23v2.647h-0.959v-8.396h3.19
		c2.099,0,3.31,1.031,3.31,2.818c0,1.392-0.671,2.325-1.883,2.723l1.967,2.854h-1.091L451.588,638.389z M451.024,637.489
		c1.521,0,2.387-0.672,2.387-1.979c0-1.271-0.863-1.919-2.387-1.919h-2.23v3.897L451.024,637.489L451.024,637.489z"/>
	<path fill="#8AC3CA" d="M464.509,636.866c0,2.362-1.94,4.245-4.39,4.245c-2.458,0-4.402-1.883-4.402-4.245
		c0-2.375,1.943-4.222,4.402-4.222C462.566,632.645,464.509,634.503,464.509,636.866z M456.689,636.866
		c0,1.847,1.559,3.321,3.43,3.321s3.406-1.478,3.406-3.321c0-1.851-1.535-3.312-3.406-3.312S456.689,635.019,456.689,636.866z"/>
	<path fill="#8AC3CA" d="M472.718,633.867l-0.576,0.729c-0.646-0.656-1.559-1.055-2.48-1.055c-1.896,0-3.418,1.463-3.418,3.311
		c0,1.836,1.521,3.312,3.418,3.312c0.924,0,1.823-0.384,2.48-1.008l0.587,0.66c-0.824,0.776-1.952,1.295-3.115,1.295
		c-2.422,0-4.344-1.886-4.344-4.261c0-2.351,1.943-4.209,4.378-4.209C470.799,632.645,471.915,633.112,472.718,633.867z"/>
	<path fill="#8AC3CA" d="M480.482,641.062v-3.693h-5.062v3.693h-0.959v-8.396h0.959v3.79h5.062v-3.79h0.959v8.396H480.482z"/>
	<path fill="#8AC3CA" d="M484.949,633.592v2.758h4.23v0.927h-4.23v2.879h4.893v0.911h-5.853v-8.396h5.696v0.924L484.949,633.592
		L484.949,633.592z"/>
	<path fill="#8AC3CA" d="M496.443,640.152v0.908H491.8v-8.396h0.959v7.484L496.443,640.152L496.443,640.152z"/>
	<path fill="#8AC3CA" d="M502.646,640.152v0.908h-4.643v-8.396h0.959v7.484L502.646,640.152L502.646,640.152z"/>
	<path fill="#8AC3CA" d="M505.169,633.592v2.758h4.233v0.927h-4.233v2.879h4.894v0.911h-5.854v-8.396h5.697v0.924L505.169,633.592
		L505.169,633.592z"/>
</g>
<g>
	<rect x="522.844" y="632.159" fill="none" width="89.896" height="38.921"/>
	<path fill="#8AC3CA" d="M551.048,633.592v7.475h-0.959v-7.475h-2.731v-0.924h6.438v0.924H551.048z"/>
	<path fill="#8AC3CA" d="M562.649,636.866c0,2.362-1.943,4.245-4.393,4.245c-2.458,0-4.398-1.883-4.398-4.245
		c0-2.375,1.94-4.222,4.398-4.222C560.706,632.645,562.649,634.503,562.649,636.866z M554.829,636.866
		c0,1.847,1.559,3.321,3.43,3.321s3.406-1.478,3.406-3.321c0-1.851-1.535-3.312-3.406-3.312S554.829,635.019,554.829,636.866z"/>
	<path fill="#8AC3CA" d="M571.265,637.609c0,2.183-1.316,3.502-3.514,3.502c-2.207,0-3.538-1.319-3.538-3.502v-4.941h0.959v4.941
		c0,1.631,0.983,2.578,2.579,2.578c1.595,0,2.554-0.947,2.554-2.578v-4.941h0.959L571.265,637.609L571.265,637.609z"/>
	<path fill="#8AC3CA" d="M577.375,638.389c-0.18,0.016-0.372,0.024-0.564,0.024h-2.229v2.647h-0.959v-8.396h3.189
		c2.1,0,3.312,1.031,3.312,2.818c0,1.392-0.672,2.325-1.883,2.723l1.967,2.854h-1.091L577.375,638.389z M576.811,637.489
		c1.523,0,2.39-0.672,2.39-1.979c0-1.271-0.863-1.919-2.39-1.919h-2.229v3.897L576.811,637.489L576.811,637.489z"/>
	<path fill="#8AC3CA" d="M587.454,633.412l-0.408,0.896c-0.755-0.504-1.643-0.708-2.312-0.708c-1.08,0-1.787,0.408-1.787,1.115
		c0,2.159,4.726,1.031,4.713,4.078c0,1.403-1.235,2.303-3.034,2.303c-1.224,0-2.423-0.525-3.214-1.28l0.432-0.863
		c0.78,0.755,1.85,1.187,2.794,1.187c1.211,0,1.968-0.489,1.968-1.295c0.014-2.207-4.714-1.028-4.714-4.042
		c0-1.316,1.163-2.171,2.902-2.171C585.763,632.632,586.758,632.944,587.454,633.412z"/>
</g>
<g>
	<rect x="621.43" y="632.159" fill="none" width="89.896" height="38.921"/>
	<path fill="#8AC3CA" d="M648.877,641.062l-5.037-6.739v6.739h-0.959v-8.396h0.995l5.038,6.752v-6.752h0.947v8.396H648.877z"/>
	<path fill="#8AC3CA" d="M653.151,638.94l-0.938,2.122h-1.02l3.767-8.396h0.995l3.754,8.396h-1.043l-0.936-2.122H653.151z
		 M655.431,633.76l-1.87,4.258h3.768L655.431,633.76z"/>
	<path fill="#8AC3CA" d="M667.032,641.062l-5.037-6.739v6.739h-0.959v-8.396h0.995l5.037,6.752v-6.752h0.945v8.396H667.032z"/>
	<path fill="#8AC3CA" d="M673.131,633.592v7.475h-0.96v-7.475h-2.734v-0.924h6.44v0.924H673.131z"/>
	<path fill="#8AC3CA" d="M678.231,633.592v2.758h4.231v0.927h-4.231v2.879h4.894v0.911h-5.854v-8.396h5.694v0.924L678.231,633.592
		L678.231,633.592z"/>
	<path fill="#8AC3CA" d="M690.241,633.412l-0.408,0.896c-0.756-0.504-1.643-0.708-2.314-0.708c-1.076,0-1.784,0.408-1.784,1.115
		c0,2.159,4.726,1.031,4.714,4.078c0,1.403-1.235,2.303-3.035,2.303c-1.225,0-2.422-0.525-3.214-1.28l0.432-0.863
		c0.779,0.755,1.848,1.187,2.795,1.187c1.211,0,1.967-0.489,1.967-1.295c0.015-2.207-4.714-1.028-4.714-4.042
		c0-1.316,1.164-2.171,2.902-2.171C688.55,632.632,689.545,632.944,690.241,633.412z"/>
</g>
<g>
	<rect x="720.161" y="632.159" fill="none" width="89.893" height="38.921"/>
	<path fill="#8AC3CA" d="M755.461,641.062l-0.012-6.922l-3.062,6.032h-0.573l-3.049-6.032v6.922h-0.908v-8.396h1.188l3.07,6.045
		l3.058-6.045h1.176v8.396H755.461z"/>
	<path fill="#8AC3CA" d="M766.908,636.866c0,2.362-1.942,4.245-4.393,4.245c-2.458,0-4.398-1.883-4.398-4.245
		c0-2.375,1.94-4.222,4.398-4.222C764.966,632.645,766.908,634.503,766.908,636.866z M759.089,636.866
		c0,1.847,1.562,3.321,3.43,3.321c1.871,0,3.406-1.478,3.406-3.321c0-1.851-1.535-3.312-3.406-3.312
		C760.648,633.556,759.089,635.019,759.089,636.866z"/>
	<path fill="#8AC3CA" d="M774.661,641.062l-5.037-6.739v6.739h-0.959v-8.396h0.995l5.037,6.752v-6.752h0.947v8.396H774.661z"/>
	<path fill="#8AC3CA" d="M780.76,633.592v7.475h-0.96v-7.475h-2.731v-0.924h6.438v0.924H780.76z"/>
	<path fill="#8AC3CA" d="M728.312,647.812l-0.408,0.896c-0.756-0.504-1.646-0.708-2.314-0.708c-1.079,0-1.787,0.408-1.787,1.115
		c0,2.159,4.729,1.03,4.714,4.078c0,1.4-1.232,2.303-3.032,2.303c-1.226,0-2.425-0.528-3.217-1.283l0.435-0.864
		c0.776,0.758,1.847,1.188,2.795,1.188c1.211,0,1.967-0.491,1.967-1.295c0.012-2.207-4.714-1.031-4.714-4.042
		c0-1.319,1.164-2.171,2.901-2.171C726.621,647.031,727.616,647.344,728.312,647.812z"/>
	<path fill="#8AC3CA" d="M731.123,653.34l-0.936,2.123h-1.021l3.766-8.396h0.996l3.754,8.396h-1.044l-0.936-2.123H731.123z
		 M733.401,648.159l-1.87,4.258h3.766L733.401,648.159z"/>
	<path fill="#8AC3CA" d="M739.008,655.463v-8.396h0.959v8.396H739.008z"/>
	<path fill="#8AC3CA" d="M748.508,655.463l-5.037-6.74v6.74h-0.959v-8.396h0.995l5.037,6.752v-6.752h0.947v8.396H748.508z"/>
	<path fill="#8AC3CA" d="M754.606,647.991v7.472h-0.96v-7.472h-2.734v-0.924h6.438v0.924H754.606z"/>
	<path fill="#8AC3CA" d="M758.244,652.177v-0.692h2.818v0.692H758.244z"/>
	<path fill="#8AC3CA" d="M770.707,655.463l-0.012-6.92l-3.062,6.032h-0.575l-3.047-6.032v6.92h-0.911v-8.396h1.188l3.07,6.045
		l3.058-6.045h1.176v8.396H770.707z"/>
	<path fill="#8AC3CA" d="M774.155,655.463v-8.396h0.959v8.396H774.155z"/>
	<path fill="#8AC3CA" d="M784.315,648.267l-0.576,0.731c-0.647-0.659-1.562-1.055-2.482-1.055c-1.895,0-3.418,1.463-3.418,3.31
		c0,1.835,1.523,3.312,3.418,3.312c0.924,0,1.823-0.387,2.482-1.011l0.588,0.66c-0.827,0.779-1.955,1.295-3.118,1.295
		c-2.423,0-4.342-1.883-4.342-4.258c0-2.351,1.943-4.209,4.378-4.209C782.396,647.044,783.512,647.512,784.315,648.267z"/>
	<path fill="#8AC3CA" d="M792.08,655.463v-3.693h-5.062v3.693h-0.959v-8.396h0.959v3.79h5.062v-3.79h0.96v8.396H792.08z"/>
	<path fill="#8AC3CA" d="M796.547,647.991v2.758h4.234v0.924h-4.234v2.879h4.896v0.911h-5.854v-8.396h5.696v0.924H796.547
		L796.547,647.991z"/>
	<path fill="#8AC3CA" d="M808.041,654.552v0.911h-4.642v-8.396h0.959v7.481L808.041,654.552L808.041,654.552z"/>
</g>
<g>
	<rect x="813.767" y="632.159" fill="none" width="99.483" height="38.921"/>
	<path fill="#8AC3CA" d="M834.611,633.592v7.475h-0.96v-7.475h-2.734v-0.924h6.44v0.924H834.611z"/>
	<path fill="#8AC3CA" d="M846.212,636.866c0,2.362-1.942,4.245-4.39,4.245c-2.458,0-4.401-1.883-4.401-4.245
		c0-2.375,1.943-4.222,4.401-4.222C844.27,632.645,846.212,634.503,846.212,636.866z M838.393,636.866
		c0,1.847,1.562,3.321,3.433,3.321c1.871,0,3.405-1.478,3.405-3.321c0-1.851-1.534-3.312-3.405-3.312
		C839.952,633.556,838.393,635.019,838.393,636.866z"/>
	<path fill="#8AC3CA" d="M854.829,637.609c0,2.183-1.319,3.502-3.515,3.502c-2.206,0-3.538-1.319-3.538-3.502v-4.941h0.96v4.941
		c0,1.631,0.98,2.578,2.578,2.578c1.596,0,2.555-0.947,2.555-2.578v-4.941h0.96V637.609z"/>
	<path fill="#8AC3CA" d="M861.826,640.152v0.908h-4.645v-8.396h0.959v7.484L861.826,640.152L861.826,640.152z"/>
	<path fill="#8AC3CA" d="M871.388,636.866c0,2.362-1.939,4.245-4.39,4.245c-2.458,0-4.401-1.883-4.401-4.245
		c0-2.375,1.943-4.222,4.401-4.222C869.445,632.645,871.388,634.503,871.388,636.866z M863.568,636.866
		c0,1.847,1.56,3.321,3.43,3.321c1.871,0,3.406-1.478,3.406-3.321c0-1.851-1.535-3.312-3.406-3.312
		C865.128,633.556,863.568,635.019,863.568,636.866z"/>
	<path fill="#8AC3CA" d="M880.005,637.609c0,2.183-1.319,3.502-3.515,3.502c-2.206,0-3.538-1.319-3.538-3.502v-4.941h0.96v4.941
		c0,1.631,0.98,2.578,2.578,2.578c1.596,0,2.555-0.947,2.555-2.578v-4.941h0.96V637.609z"/>
	<path fill="#8AC3CA" d="M887.518,633.412l-0.405,0.896c-0.759-0.504-1.646-0.708-2.314-0.708c-1.079,0-1.787,0.408-1.787,1.115
		c0,2.159,4.729,1.031,4.714,4.078c0,1.403-1.232,2.303-3.033,2.303c-1.225,0-2.424-0.525-3.216-1.28l0.435-0.863
		c0.776,0.755,1.847,1.187,2.795,1.187c1.211,0,1.967-0.489,1.967-1.295c0.012-2.207-4.714-1.028-4.714-4.042
		c0-1.316,1.164-2.171,2.901-2.171C885.826,632.632,886.821,632.944,887.518,633.412z"/>
	<path fill="#8AC3CA" d="M890.651,633.592v2.758h4.231v0.927h-4.231v2.879h4.894v0.911h-5.853v-8.396h5.693v0.924L890.651,633.592
		L890.651,633.592z"/>
</g>
<g>
	<rect x="911.642" y="632.159" fill="none" width="99.484" height="38.921"/>
	<path fill="#8AC3CA" d="M937.683,638.94l-0.936,2.122h-1.021l3.767-8.396h0.996l3.754,8.396h-1.044l-0.938-2.122H937.683z
		 M939.961,633.76l-1.87,4.258h3.769L939.961,633.76z"/>
	<path fill="#8AC3CA" d="M951.562,641.062l-5.036-6.739v6.739h-0.959v-8.396h0.995l5.034,6.752v-6.752h0.948v8.396H951.562z"/>
	<path fill="#8AC3CA" d="M961.104,641.062l-5.034-6.739v6.739h-0.959v-8.396h0.993l5.037,6.752v-6.752h0.946v8.396H961.104z"/>
	<path fill="#8AC3CA" d="M965.605,633.592v2.758h4.232v0.927h-4.232v2.879h4.895v0.911h-5.854v-8.396h5.694v0.924L965.605,633.592
		L965.605,633.592z"/>
	<path fill="#8AC3CA" d="M979.115,633.867l-0.576,0.729c-0.646-0.656-1.559-1.055-2.482-1.055c-1.895,0-3.418,1.463-3.418,3.311
		c0,1.836,1.523,3.312,3.418,3.312c0.924,0,1.823-0.384,2.482-1.008l0.588,0.66c-0.827,0.776-1.955,1.295-3.118,1.295
		c-2.423,0-4.342-1.886-4.342-4.261c0-2.351,1.943-4.209,4.378-4.209C977.196,632.645,978.312,633.112,979.115,633.867z"/>
	<path fill="#8AC3CA" d="M983.834,641.062h-0.948v-2.845l-3.25-5.553h0.995l2.723,4.378l2.688-4.378h0.981l-3.188,5.518
		L983.834,641.062L983.834,641.062z"/>
</g>
<g>
	<rect x="239.498" y="632.159" fill="none" width="73.52" height="14.097"/>
	<path fill="#8AC3CA" d="M262.093,641.062l-0.012-6.922l-3.059,6.032h-0.576l-3.046-6.032v6.922h-0.911v-8.396h1.187l3.07,6.045
		l3.059-6.045h1.175v8.396H262.093z"/>
	<path fill="#8AC3CA" d="M266.501,633.592v2.758h4.233v0.927h-4.233v2.879h4.893v0.911h-5.853v-8.396h5.697v0.924L266.501,633.592
		L266.501,633.592z"/>
	<path fill="#8AC3CA" d="M276.748,632.668c2.447,0,4.317,1.812,4.317,4.198s-1.883,4.197-4.354,4.197h-3.358v-8.396L276.748,632.668
		L276.748,632.668z M274.313,640.152h2.446c1.871,0,3.334-1.403,3.334-3.274c0-1.883-1.487-3.286-3.37-3.286h-2.411L274.313,640.152
		L274.313,640.152z"/>
	<path fill="#8AC3CA" d="M290.617,636.866c0,2.362-1.943,4.245-4.39,4.245c-2.458,0-4.402-1.883-4.402-4.245
		c0-2.375,1.943-4.222,4.402-4.222C288.674,632.645,290.617,634.503,290.617,636.866z M282.797,636.866
		c0,1.847,1.559,3.321,3.43,3.321s3.406-1.478,3.406-3.321c0-1.851-1.535-3.312-3.406-3.312S282.797,635.019,282.797,636.866z"/>
	<path fill="#8AC3CA" d="M298.825,633.867l-0.576,0.729c-0.648-0.656-1.559-1.055-2.483-1.055c-1.895,0-3.418,1.463-3.418,3.311
		c0,1.836,1.523,3.312,3.418,3.312c0.924,0,1.823-0.384,2.483-1.008l0.587,0.66c-0.827,0.776-1.955,1.295-3.118,1.295
		c-2.423,0-4.342-1.886-4.342-4.261c0-2.351,1.943-4.209,4.378-4.209C296.906,632.645,298.021,633.112,298.825,633.867z"/>
</g>
<g>
	<rect x="290.848" y="453.496" fill="none" width="73.521" height="8.118"/>
	<path fill="#21A0A1" d="M301.658,453.836c1.383,0,2.183,0.688,2.183,1.879c0,1.239-0.8,1.951-2.183,1.951h-1.463v1.767h-0.64
		v-5.597H301.658z M300.195,457.05h1.439c1.008,0,1.591-0.447,1.591-1.316c0-0.851-0.583-1.279-1.591-1.279h-1.439V457.05z"/>
	<path fill="#21A0A1" d="M305.083,458.018l-0.624,1.415h-0.68l2.511-5.597h0.664l2.503,5.597h-0.696l-0.624-1.415H305.083
		L305.083,458.018z M306.603,454.562l-1.248,2.839h2.511L306.603,454.562z"/>
	<path fill="#21A0A1" d="M312.842,457.649c-0.12,0.008-0.248,0.017-0.376,0.017h-1.487v1.767h-0.64v-5.597h2.126
		c1.399,0,2.207,0.688,2.207,1.879c0,0.928-0.448,1.551-1.255,1.814l1.312,1.9h-0.728L312.842,457.649z M312.466,457.05
		c1.016,0,1.591-0.447,1.591-1.316c0-0.851-0.576-1.279-1.591-1.279h-1.487v2.599L312.466,457.05L312.466,457.05z"/>
	<path fill="#21A0A1" d="M317.827,454.451v4.979h-0.64v-4.979h-1.823v-0.615h4.293v0.615H317.827z"/>
	<path fill="#21A0A1" d="M320.588,459.433v-5.597h0.64v5.597H320.588L320.588,459.433z"/>
	<path fill="#21A0A1" d="M327.361,454.636l-0.384,0.487c-0.432-0.439-1.04-0.704-1.655-0.704c-1.263,0-2.279,0.976-2.279,2.207
		c0,1.224,1.016,2.207,2.279,2.207c0.616,0,1.215-0.256,1.655-0.672l0.392,0.438c-0.552,0.521-1.303,0.864-2.079,0.864
		c-1.615,0-2.895-1.256-2.895-2.839c0-1.567,1.295-2.807,2.918-2.807C326.082,453.819,326.826,454.132,327.361,454.636z"/>
	<path fill="#21A0A1" d="M328.524,459.433v-5.597h0.64v5.597H328.524L328.524,459.433z"/>
	<path fill="#21A0A1" d="M332.962,453.836c1.383,0,2.183,0.688,2.183,1.879c0,1.239-0.8,1.951-2.183,1.951H331.5v1.767h-0.64v-5.597
		H332.962z M331.5,457.05h1.439c1.007,0,1.591-0.447,1.591-1.316c0-0.851-0.584-1.279-1.591-1.279H331.5V457.05z"/>
	<path fill="#21A0A1" d="M336.388,458.018l-0.624,1.415h-0.679l2.51-5.597h0.664l2.503,5.597h-0.696l-0.624-1.415H336.388
		L336.388,458.018z M337.907,454.562l-1.248,2.839h2.511L337.907,454.562z"/>
	<path fill="#21A0A1" d="M345.642,459.433l-3.358-4.49v4.49h-0.64v-5.597h0.664l3.358,4.501v-4.501h0.632v5.597H345.642
		L345.642,459.433z"/>
	<path fill="#21A0A1" d="M349.708,454.451v4.979h-0.64v-4.979h-1.823v-0.615h4.294v0.615H349.708z"/>
	<path fill="#21A0A1" d="M355.906,454.331l-0.272,0.6c-0.503-0.335-1.095-0.472-1.543-0.472c-0.72,0-1.191,0.272-1.191,0.744
		c0,1.438,3.15,0.688,3.142,2.719c0,0.938-0.823,1.535-2.023,1.535c-0.815,0-1.615-0.354-2.143-0.856l0.288-0.572
		c0.52,0.504,1.231,0.792,1.863,0.792c0.808,0,1.311-0.328,1.311-0.864c0.008-1.471-3.142-0.688-3.142-2.694
		c0-0.879,0.775-1.445,1.935-1.445C354.779,453.812,355.442,454.02,355.906,454.331z"/>
</g>
<polygon fill="#B8DEDB" points="247.078,604.961 276.258,622.816 276.258,412.719 "/>
<polygon fill="#21A0A1" points="276.258,473.824 276.258,622.816 305.438,604.961 284.745,468.631 "/>
<polygon fill="#B8DEDB" points="638.579,604.961 667.759,622.816 667.759,539.114 "/>
<polygon fill="#21A0A1" points="667.759,547.932 667.759,622.816 696.938,604.961 670.833,546.051 "/>
<polygon fill="#21A0A1" points="765.634,550.266 765.634,622.816 794.812,604.961 782.133,540.17 "/>
<polygon fill="#B8DEDB" points="765.634,455.866 765.634,622.816 736.454,604.961 "/>
<polygon fill="#21A0A1" points="863.509,556.295 863.509,622.816 892.688,604.961 876.549,548.316 "/>
<polygon fill="#B8DEDB" points="863.509,502.548 863.509,622.816 834.329,604.961 "/>
<polygon fill="#21A0A1" points="961.384,562.099 961.384,622.816 990.562,604.961 963.372,560.881 "/>
<polygon fill="#B8DEDB" points="961.384,557.657 961.384,622.816 932.204,604.961 "/>
<polygon fill="#B8DEDB" points="540.703,604.961 569.884,622.816 569.884,578.663 557.674,571.191 "/>
<polygon fill="#21A0A1" points="569.884,546.895 569.884,622.816 599.062,604.961 "/>
<polygon fill="#B8DEDB" points="442.828,604.961 472.009,622.816 472.009,540.346 464.459,535.726 "/>
<polygon fill="#21A0A1" points="472.009,511.56 472.009,622.816 501.188,604.961 "/>
<polygon fill="#B8DEDB" points="344.953,604.961 374.133,622.816 374.133,443.417 "/>
<polygon fill="#21A0A1" points="374.133,482.577 374.133,622.816 403.312,604.961 380.503,478.68 "/>
<g>
	<path fill="#CA4A3F" d="M251.864,698.936V700h-5.421v-9.805h1.121v8.737L251.864,698.936L251.864,698.936z"/>
	<path fill="#CA4A3F" d="M254.648,697.521L253.555,700h-1.19l4.398-9.805h1.163L262.31,700h-1.219l-1.093-2.479H254.648z
		 M257.309,691.47l-2.185,4.976h4.398L257.309,691.47z"/>
	<path fill="#CA4A3F" d="M272.065,696.877c-0.21,0.014-0.434,0.027-0.658,0.027h-2.605V700h-1.121v-9.805h3.726
		c2.451,0,3.866,1.204,3.866,3.291c0,1.625-0.785,2.718-2.199,3.18l2.297,3.334h-1.274L272.065,696.877z M271.407,695.826
		c1.779,0,2.788-0.784,2.788-2.312c0-1.481-1.009-2.238-2.788-2.238h-2.605v4.553L271.407,695.826L271.407,695.826z"/>
	<path fill="#CA4A3F" d="M278.923,691.273v3.222h4.945v1.079h-4.945v3.358h5.715V700h-6.835v-9.805h6.653v1.078H278.923z"/>
	<path fill="#CA4A3F" d="M292.337,698.936V700h-5.421v-9.805h1.121v8.737L292.337,698.936L292.337,698.936z"/>
	<path fill="#CA4A3F" d="M295.121,697.521L294.028,700h-1.19l4.398-9.805h1.163l4.384,9.805h-1.219l-1.093-2.479H295.121z
		 M297.782,691.47l-2.185,4.976h4.398L297.782,691.47z"/>
	<path fill="#CA4A3F" d="M306.392,691.273V700h-1.121v-8.727h-3.193v-1.078h7.522v1.078H306.392z"/>
	<path fill="#CA4A3F" d="M311.221,700v-9.805h1.121V700H311.221z"/>
	<path fill="#CA4A3F" d="M324.651,695.098c0,2.763-2.269,4.958-5.126,4.958c-2.872,0-5.141-2.195-5.141-4.958
		c0-2.771,2.27-4.931,5.141-4.931C322.382,690.167,324.651,692.338,324.651,695.098z M315.519,695.098
		c0,2.157,1.821,3.881,4.006,3.881s3.978-1.724,3.978-3.881c0-2.154-1.793-3.863-3.978-3.863S315.519,692.94,315.519,695.098z"/>
	<path fill="#CA4A3F" d="M333.694,700l-5.883-7.872V700h-1.121v-9.805h1.163l5.883,7.886v-7.886h1.106V700H333.694z"/>
	<path fill="#CA4A3F" d="M350.999,695.098c0,2.763-2.269,4.958-5.126,4.958c-2.872,0-5.141-2.195-5.141-4.958
		c0-2.771,2.269-4.931,5.141-4.931C348.729,690.167,350.999,692.338,350.999,695.098z M341.866,695.098
		c0,2.157,1.821,3.881,4.006,3.881s3.978-1.724,3.978-3.881c0-2.154-1.793-3.863-3.978-3.863S341.866,692.94,341.866,695.098z"/>
	<path fill="#CA4A3F" d="M357.422,696.877c-0.21,0.014-0.434,0.027-0.658,0.027h-2.605V700h-1.121v-9.805h3.726
		c2.451,0,3.866,1.204,3.866,3.291c0,1.625-0.785,2.718-2.199,3.18l2.297,3.334h-1.274L357.422,696.877z M356.764,695.826
		c1.779,0,2.788-0.784,2.788-2.312c0-1.481-1.009-2.238-2.788-2.238h-2.605v4.553L356.764,695.826L356.764,695.826z"/>
	<path fill="#CA4A3F" d="M363.16,700v-9.805h1.121V700H363.16z"/>
	<path fill="#CA4A3F" d="M375.078,695.21v3.558c-0.966,0.771-2.325,1.288-3.642,1.288c-2.843,0-5.112-2.195-5.112-4.958
		c0-2.76,2.283-4.931,5.168-4.931c1.359,0,2.675,0.519,3.614,1.345l-0.645,0.841c-0.798-0.715-1.877-1.135-2.97-1.135
		c-2.241,0-4.034,1.726-4.034,3.88c0,2.171,1.807,3.896,4.048,3.896c0.882,0,1.821-0.311,2.577-0.826v-2.955L375.078,695.21
		L375.078,695.21z"/>
	<path fill="#CA4A3F" d="M377.79,700v-9.805h1.121V700H377.79z"/>
	<path fill="#CA4A3F" d="M388.881,700l-5.883-7.872V700h-1.121v-9.805h1.163l5.883,7.886v-7.886h1.106V700H388.881z"/>
	<path fill="#CA4A3F" d="M393.862,697.521L392.769,700h-1.19l4.398-9.805h1.163l4.384,9.805h-1.219l-1.093-2.479H393.862z
		 M396.523,691.47l-2.185,4.976h4.398L396.523,691.47z"/>
	<path fill="#CA4A3F" d="M408.48,698.936V700h-5.421v-9.805h1.121v8.737L408.48,698.936L408.48,698.936z"/>
	<path fill="#CA4A3F" d="M411.418,691.273v3.222h4.945v1.079h-4.945v3.358h5.715V700h-6.835v-9.805h6.653v1.078H411.418z"/>
	<path fill="#CA4A3F" d="M424.815,698.754h-0.953l-1.583-2.325l1.583-2.354h0.953l-1.499,2.354L424.815,698.754z M426.973,698.754
		h-0.953l-1.582-2.325l1.582-2.354h0.953l-1.499,2.354L426.973,698.754z"/>
	<path fill="#CA4A3F" d="M438.48,698.936V700h-5.423v-9.805h1.121v8.737L438.48,698.936L438.48,698.936z"/>
	<path fill="#CA4A3F" d="M440.298,700v-9.805h1.121V700H440.298z"/>
	<path fill="#CA4A3F" d="M447.412,695.35l-1.905,2.087V700h-1.121v-9.805h1.121v5.645l5.27-5.645h1.329l-3.881,4.258L452.4,700
		h-1.373L447.412,695.35z"/>
	<path fill="#CA4A3F" d="M455.293,691.273v3.222h4.945v1.079h-4.945v3.358h5.715V700h-6.835v-9.805h6.653v1.078H455.293z"/>
	<path fill="#CA4A3F" d="M467.67,696.877c-0.21,0.014-0.434,0.027-0.658,0.027h-2.604V700h-1.121v-9.805h3.726
		c2.451,0,3.866,1.204,3.866,3.291c0,1.625-0.784,2.718-2.199,3.18l2.297,3.334h-1.271L467.67,696.877z M467.012,695.826
		c1.779,0,2.788-0.784,2.788-2.312c0-1.481-1.009-2.238-2.788-2.238h-2.604v4.553L467.012,695.826L467.012,695.826z"/>
	<path fill="#CA4A3F" d="M479.431,691.062l-0.476,1.052c-0.882-0.589-1.919-0.827-2.704-0.827c-1.26,0-2.087,0.477-2.087,1.303
		c0,2.521,5.519,1.205,5.505,4.763c0,1.642-1.443,2.689-3.544,2.689c-1.429,0-2.83-0.616-3.754-1.499l0.504-1.008
		c0.91,0.882,2.157,1.387,3.264,1.387c1.415,0,2.297-0.574,2.297-1.513c0.017-2.578-5.505-1.205-5.505-4.722
		c0-1.541,1.358-2.534,3.393-2.534C477.456,690.153,478.619,690.518,479.431,691.062z"/>
	<path fill="#CA4A3F" d="M486.918,691.273v3.443h4.581v1.078h-4.581V700h-1.121v-9.805h6.233v1.078H486.918z"/>
	<path fill="#CA4A3F" d="M494.184,697.521L493.091,700h-1.188l4.396-9.805h1.163l4.384,9.805h-1.218l-1.093-2.479H494.184z
		 M496.846,691.47l-2.186,4.976h4.396L496.846,691.47z"/>
	<path fill="#CA4A3F" d="M510.917,691.596l-0.672,0.854c-0.757-0.771-1.821-1.232-2.899-1.232c-2.214,0-3.992,1.709-3.992,3.866
		c0,2.143,1.778,3.865,3.992,3.865c1.078,0,2.129-0.448,2.899-1.176l0.687,0.77c-0.967,0.911-2.28,1.513-3.643,1.513
		c-2.829,0-5.07-2.195-5.07-4.972c0-2.746,2.271-4.917,5.112-4.917C508.676,690.167,509.979,690.713,510.917,691.596z"/>
	<path fill="#CA4A3F" d="M514.062,691.273v3.222h4.942v1.079h-4.942v3.358h5.716V700h-6.836v-9.805h6.651v1.078H514.062z"/>
	<path fill="#CA4A3F" d="M526.189,690.195c1.975,0,3.166,0.91,3.166,2.451c0,1.146-0.659,1.975-1.811,2.213
		c1.415,0.21,2.241,1.135,2.241,2.479c0,1.667-1.316,2.661-3.529,2.661h-4.203v-9.805L526.189,690.195L526.189,690.195z
		 M523.178,694.425h2.955c1.317,0,2.088-0.574,2.088-1.597c0-0.994-0.771-1.555-2.088-1.555h-2.955V694.425z M523.178,698.936h2.955
		c1.601,0,2.521-0.63,2.521-1.751c0-1.062-0.924-1.691-2.521-1.691h-2.955V698.936z"/>
	<path fill="#CA4A3F" d="M541.424,695.098c0,2.763-2.27,4.958-5.127,4.958c-2.872,0-5.141-2.195-5.141-4.958
		c0-2.771,2.269-4.931,5.141-4.931C539.154,690.167,541.424,692.338,541.424,695.098z M532.291,695.098
		c0,2.157,1.82,3.881,4.006,3.881c2.188,0,3.979-1.724,3.979-3.881c0-2.154-1.793-3.863-3.979-3.863
		C534.111,691.232,532.291,692.94,532.291,695.098z"/>
	<path fill="#CA4A3F" d="M552.568,695.098c0,2.763-2.271,4.958-5.127,4.958c-2.872,0-5.144-2.195-5.144-4.958
		c0-2.771,2.271-4.931,5.144-4.931C550.299,690.167,552.568,692.338,552.568,695.098z M543.436,695.098
		c0,2.157,1.82,3.881,4.009,3.881c2.186,0,3.979-1.724,3.979-3.881c0-2.154-1.793-3.863-3.979-3.863
		C545.256,691.232,543.436,692.94,543.436,695.098z"/>
	<path fill="#CA4A3F" d="M557.633,695.35l-1.905,2.087V700h-1.118v-9.805h1.118v5.645l5.27-5.645h1.331l-3.88,4.258L562.62,700
		h-1.373L557.633,695.35z"/>
	<path fill="#CA4A3F" d="M567.808,694.075h0.953l1.582,2.325l-1.582,2.354h-0.953l1.499-2.354L567.808,694.075z M569.965,694.075
		h0.952l1.583,2.325l-1.583,2.354h-0.952l1.499-2.354L569.965,694.075z"/>
	<path fill="#CA4A3F" d="M583.421,698.558c-0.896,0.952-1.933,1.498-3.04,1.498c-1.624,0-2.913-1.146-2.913-2.688
		c0-1.429,1.078-2.172,2.229-2.788c-0.673-0.868-1.009-1.597-1.009-2.312c0-1.229,0.967-2.111,2.396-2.111
		c1.358,0,2.271,0.812,2.271,1.975c0,1.331-1.203,2.02-2.425,2.661c0.604,0.701,1.4,1.513,2.384,2.479
		c0.379-0.529,0.715-1.177,1.009-1.902l0.741,0.573c-0.321,0.741-0.688,1.399-1.105,1.963l1.695,1.666l-0.59,0.613L583.421,698.558z
		 M582.791,697.927c-1.079-1.078-1.962-1.975-2.62-2.745c-0.966,0.532-1.778,1.12-1.778,2.104c0,1.104,0.896,1.877,2.03,1.877
		C581.264,699.16,582.076,698.712,582.791,697.927z M580.438,694.201c1.078-0.562,2.02-1.093,2.02-2.073
		c0-0.729-0.532-1.219-1.372-1.219c-0.911,0-1.499,0.589-1.499,1.345C579.583,692.828,579.877,693.444,580.438,694.201z"/>
	<path fill="#CA4A3F" d="M594.746,690.195c2.423,0,3.824,1.204,3.824,3.291c0,2.172-1.401,3.418-3.824,3.418h-2.563V700h-1.12
		v-9.805H594.746z M592.183,695.826h2.521c1.765,0,2.787-0.784,2.787-2.312c0-1.481-1.022-2.238-2.787-2.238h-2.521V695.826z"/>
	<path fill="#CA4A3F" d="M600.735,697.521L599.644,700h-1.188l4.396-9.805h1.163L608.4,700h-1.221l-1.093-2.479H600.735z
		 M603.396,691.47l-2.188,4.976h4.398L603.396,691.47z"/>
	<path fill="#CA4A3F" d="M614.317,696.877c-0.21,0.014-0.438,0.027-0.658,0.027h-2.605V700h-1.121v-9.805h3.729
		c2.451,0,3.866,1.204,3.866,3.291c0,1.625-0.784,2.718-2.199,3.18l2.297,3.334h-1.272L614.317,696.877z M613.659,695.826
		c1.778,0,2.787-0.784,2.787-2.312c0-1.481-1.009-2.238-2.787-2.238h-2.605v4.553L613.659,695.826L613.659,695.826z"/>
	<path fill="#CA4A3F" d="M623.039,691.273V700h-1.121v-8.727h-3.193v-1.078h7.521v1.078H623.039z"/>
	<path fill="#CA4A3F" d="M627.867,700v-9.805h1.121V700H627.867z"/>
	<path fill="#CA4A3F" d="M639.729,691.596l-0.672,0.854c-0.757-0.771-1.818-1.232-2.896-1.232c-2.214,0-3.992,1.709-3.992,3.866
		c0,2.143,1.778,3.865,3.992,3.865c1.078,0,2.129-0.448,2.896-1.176l0.688,0.77c-0.967,0.911-2.283,1.513-3.646,1.513
		c-2.826,0-5.067-2.195-5.067-4.972c0-2.746,2.269-4.917,5.109-4.917C637.488,690.167,638.791,690.713,639.729,691.596z"/>
	<path fill="#CA4A3F" d="M641.755,700v-9.805h1.121V700H641.755z"/>
	<path fill="#CA4A3F" d="M649.527,690.195c2.423,0,3.821,1.204,3.821,3.291c0,2.172-1.398,3.418-3.821,3.418h-2.563V700h-1.121
		v-9.805H649.527z M646.964,695.826h2.521c1.765,0,2.786-0.784,2.786-2.312c0-1.481-1.021-2.238-2.786-2.238h-2.521V695.826z"/>
	<path fill="#CA4A3F" d="M655.518,697.521L654.426,700h-1.188l4.396-9.805h1.163L663.18,700h-1.218l-1.093-2.479H655.518z
		 M658.18,691.47l-2.186,4.976h4.396L658.18,691.47z"/>
	<path fill="#CA4A3F" d="M671.719,700l-5.883-7.872V700h-1.121v-9.805h1.163l5.883,7.886v-7.886h1.107V700H671.719z"/>
	<path fill="#CA4A3F" d="M678.829,691.273V700h-1.121v-8.727h-3.193v-1.078h7.521v1.078H678.829z"/>
	<path fill="#CA4A3F" d="M689.68,691.062l-0.476,1.052c-0.883-0.589-1.92-0.827-2.704-0.827c-1.261,0-2.087,0.477-2.087,1.303
		c0,2.521,5.519,1.205,5.505,4.763c0,1.642-1.442,2.689-3.544,2.689c-1.429,0-2.829-0.616-3.754-1.499l0.504-1.008
		c0.911,0.882,2.157,1.387,3.264,1.387c1.415,0,2.298-0.574,2.298-1.513c0.017-2.578-5.505-1.205-5.505-4.722
		c0-1.541,1.358-2.534,3.393-2.534C687.705,690.153,688.867,690.518,689.68,691.062z"/>
	<path fill="#CA4A3F" d="M700.431,696.877c-0.21,0.014-0.435,0.027-0.655,0.027h-2.605V700h-1.121v-9.805h3.729
		c2.45,0,3.864,1.204,3.864,3.291c0,1.625-0.782,2.718-2.197,3.18L703.74,700h-1.274L700.431,696.877z M699.771,695.826
		c1.777,0,2.785-0.784,2.785-2.312c0-1.481-1.008-2.238-2.785-2.238h-2.604v4.553L699.771,695.826L699.771,695.826z"/>
	<path fill="#CA4A3F" d="M707.289,691.273v3.222h4.944v1.079h-4.944v3.358h5.715V700h-6.836v-9.805h6.654v1.078H707.289z
		 M709.854,688.977h-1.052l1.684-1.902l1.104,0.529L709.854,688.977z"/>
	<path fill="#CA4A3F" d="M716.403,691.273v3.222h4.941v1.079h-4.941v3.358h5.715V700h-6.836v-9.805h6.653v1.078H716.403z"/>
	<path fill="#CA4A3F" d="M729.816,698.936V700h-5.424v-9.805h1.121v8.737L729.816,698.936L729.816,698.936z"/>
	<path fill="#CA4A3F" d="M737.657,691.062l-0.479,1.052c-0.883-0.589-1.92-0.827-2.704-0.827c-1.261,0-2.087,0.477-2.087,1.303
		c0,2.521,5.521,1.205,5.506,4.763c0,1.642-1.44,2.689-3.545,2.689c-1.429,0-2.827-0.616-3.754-1.499l0.504-1.008
		c0.911,0.882,2.157,1.387,3.267,1.387c1.415,0,2.298-0.574,2.298-1.513c0.014-2.578-5.505-1.205-5.505-4.722
		c0-1.541,1.355-2.534,3.39-2.534C735.683,690.153,736.845,690.518,737.657,691.062z"/>
	<path fill="#CA4A3F" d="M740.776,699.384c0,0.42-0.294,0.729-0.673,0.729c-0.395,0-0.688-0.312-0.688-0.729
		s0.294-0.729,0.688-0.729C740.482,698.655,740.776,698.964,740.776,699.384z"/>
</g>
<polyline fill="#8AC3CA" points="284.749,468.662 298.1,460.544 298.619,461.397 284.912,469.732 "/>
<polyline fill="#8AC3CA" points="284.749,468.662 298.1,460.544 298.619,461.397 284.912,469.732 "/>
<g>
	<rect x="239.499" y="394.299" fill="none" width="73.52" height="19.021"/>
	<path fill="#8AC3CA" d="M255.291,395.253v1.967h2.614v0.616h-2.614v2.396h-0.64v-5.597h3.558v0.615L255.291,395.253
		L255.291,395.253z"/>
	<path fill="#8AC3CA" d="M259.442,398.818l-0.624,1.415h-0.679l2.51-5.597h0.664l2.503,5.597h-0.696l-0.624-1.415H259.442z
		 M260.962,395.364l-1.248,2.841h2.511L260.962,395.364z"/>
	<path fill="#8AC3CA" d="M269.001,395.437l-0.384,0.487c-0.432-0.439-1.04-0.704-1.655-0.704c-1.263,0-2.279,0.976-2.279,2.207
		c0,1.224,1.016,2.207,2.279,2.207c0.616,0,1.215-0.256,1.655-0.672l0.392,0.438c-0.552,0.521-1.303,0.864-2.079,0.864
		c-1.615,0-2.895-1.256-2.895-2.839c0-1.567,1.295-2.807,2.918-2.807C267.721,394.621,268.465,394.933,269.001,395.437z"/>
	<path fill="#8AC3CA" d="M270.803,395.253v1.839h2.822v0.616h-2.822v1.919h3.262v0.604h-3.902v-5.597h3.798v0.615L270.803,395.253
		L270.803,395.253z"/>
	<path fill="#8AC3CA" d="M277.73,394.638c1.127,0,1.807,0.52,1.807,1.399c0,0.652-0.376,1.127-1.031,1.263
		c0.808,0.12,1.279,0.646,1.279,1.415c0,0.952-0.752,1.52-2.015,1.52h-2.398v-5.597H277.73z M276.011,397.052h1.687
		c0.751,0,1.191-0.327,1.191-0.911c0-0.567-0.44-0.888-1.191-0.888h-1.687V397.052z M276.011,399.627h1.687
		c0.912,0,1.439-0.36,1.439-1c0-0.607-0.527-0.967-1.439-0.967h-1.687V399.627z"/>
	<path fill="#8AC3CA" d="M286.432,397.435c0,1.575-1.295,2.831-2.926,2.831c-1.639,0-2.935-1.256-2.935-2.831
		c0-1.583,1.295-2.812,2.935-2.812C285.137,394.621,286.432,395.859,286.432,397.435z M281.219,397.435
		c0,1.231,1.04,2.215,2.287,2.215s2.271-0.98,2.271-2.215c0-1.229-1.023-2.206-2.271-2.206S281.219,396.205,281.219,397.435z"/>
	<path fill="#8AC3CA" d="M292.8,397.435c0,1.575-1.295,2.831-2.926,2.831c-1.639,0-2.935-1.256-2.935-2.831
		c0-1.583,1.295-2.812,2.935-2.812C291.505,394.621,292.8,395.859,292.8,397.435z M287.587,397.435c0,1.231,1.04,2.215,2.287,2.215
		s2.271-0.98,2.271-2.215c0-1.229-1.023-2.206-2.271-2.206C288.627,395.229,287.587,396.205,287.587,397.435z"/>
	<path fill="#8AC3CA" d="M295.698,397.58l-1.087,1.188v1.463h-0.64v-5.597h0.64v3.222l3.006-3.222h0.759l-2.215,2.431l2.383,3.166
		h-0.783L295.698,397.58z"/>
</g>
</svg>
