<?xml version="1.0" encoding="utf-8"?>
<!-- Generator: Adobe Illustrator 16.0.0, SVG Export Plug-In . SVG Version: 6.00 Build 0)  -->
<!DOCTYPE svg PUBLIC "-//W3C//DTD SVG 1.1//EN" "http://www.w3.org/Graphics/SVG/1.1/DTD/svg11.dtd">
<svg version="1.1" id="Calque_1" xmlns="http://www.w3.org/2000/svg" xmlns:xlink="http://www.w3.org/1999/xlink" x="0px" y="0px"
	 width="1279.141px" height="799.756px" viewBox="0 0 1279.141 799.756" enable-background="new 0 0 1279.141 799.756"
	 xml:space="preserve">
<polygon display="none" fill="#CA4A3F" points="866.178,4047.915 865.46,4047.021 354.947,3962.938 49.805,3772.411 
	182.261,3221.753 1135.441,3185.839 1138.117,3185.737 1196.816,2412.104 1197.041,2409.15 220.024,2322.105 118.758,1576.011 
	1210.703,1436.899 1215.243,1436.321 901.594,909.448 1028.944,655.89 1029.262,655.89 1028.947,655.884 1029.626,654.532 
	953.75,654.532 409.417,644.747 -1.598,501.913 -1.598,525.542 -1.598,531.829 408.465,660.396 408.904,660.532 1019.898,660.532 
	895.495,908.224 894.757,909.692 1205.405,1431.526 115,1570.442 112,1570.823 214.401,2325.284 214.723,2327.657 1190.61,2414.604 
	1132.539,3179.944 179.763,3215.843 177.491,3215.929 42.96,3775.212 352.278,3968.347 352.788,3968.665 862.224,4052.571 
	1276.066,4566.271 1280.738,4562.509 "/>
<polygon fill="#B8DEDB" points="1031.262,-138.241 1031.047,-138.241 1030.947,-138.068 "/>
<circle fill="#FFD400" cx="526.054" cy="412.529" r="19.876"/>
<circle fill="#DB0C24" cx="601.706" cy="412.529" r="23.229"/>
<circle fill="#006E7E" cx="676.986" cy="412.529" r="27.453"/>
<circle fill="#F8AE19" cx="753.011" cy="412.529" r="14.534"/>
<circle fill="#8E172F" cx="753.011" cy="330.039" r="5.093"/>
<circle fill="#EF7F21" cx="676.985" cy="330.039" r="10.062"/>
<circle fill="#077E9B" cx="601.706" cy="330.039" r="6.833"/>
<circle fill="#BD1818" cx="526.055" cy="330.039" r="8.447"/>
<circle fill="#04A4C8" cx="526.055" cy="246.71" r="8.447"/>
<circle fill="#E73F44" cx="601.706" cy="246.71" r="10.31"/>
<circle fill="#68184E" cx="676.985" cy="246.71" r="9.315"/>
<circle fill="#3FBCDC" cx="753.01" cy="246.71" r="3.354"/>
</svg>
