<?xml version="1.0" encoding="utf-8"?>
<!-- Generator: Adobe Illustrator 16.0.0, SVG Export Plug-In . SVG Version: 6.00 Build 0)  -->
<!DOCTYPE svg PUBLIC "-//W3C//DTD SVG 1.1//EN" "http://www.w3.org/Graphics/SVG/1.1/DTD/svg11.dtd">
<svg version="1.1" id="Calque_1" xmlns="http://www.w3.org/2000/svg" xmlns:xlink="http://www.w3.org/1999/xlink" x="0px" y="0px"
	 width="1279.141px" height="799.756px" viewBox="0 0 1279.141 799.756" enable-background="new 0 0 1279.141 799.756"
	 xml:space="preserve">
<polygon display="none" fill="#CA4A3F" points="866.178,4047.915 865.46,4047.021 354.947,3962.938 49.805,3772.411 
	182.261,3221.753 1135.441,3185.839 1138.117,3185.737 1196.816,2412.104 1197.041,2409.15 220.024,2322.105 118.758,1576.011 
	1210.703,1436.899 1215.243,1436.321 901.594,909.448 1028.944,655.89 1029.262,655.89 1028.947,655.884 1029.626,654.532 
	953.75,654.532 409.417,644.747 -1.598,501.913 -1.598,525.542 -1.598,531.829 408.465,660.396 408.904,660.532 1019.898,660.532 
	895.495,908.224 894.757,909.692 1205.405,1431.526 115,1570.442 112,1570.823 214.401,2325.284 214.723,2327.657 1190.61,2414.604 
	1132.539,3179.944 179.763,3215.843 177.491,3215.929 42.96,3775.212 352.278,3968.347 352.788,3968.665 862.224,4052.571 
	1276.066,4566.271 1280.738,4562.509 "/>
<polygon fill="#B8DEDB" points="1031.262,-138.241 1031.047,-138.241 1030.947,-138.068 "/>
<path fill="#575756" d="M550.396,110.002c3.265,0,5.762,2.417,5.762,5.602c0,3.186-2.514,5.603-5.811,5.603h-4.481v-11.204
	L550.396,110.002L550.396,110.002z M547.146,119.989h3.266c2.497,0,4.45-1.872,4.45-4.369c0-2.514-1.985-4.386-4.498-4.386h-3.217
	L547.146,119.989L547.146,119.989z"/>
<path fill="#575756" d="M559.193,118.373l-1.248,2.833h-1.361l5.026-11.204h1.329l5.01,11.204h-1.394l-1.249-2.833H559.193z
	 M562.235,111.458l-2.497,5.683h5.025L562.235,111.458z"/>
<path fill="#575756" d="M572.075,111.234v9.972h-1.28v-9.972h-3.648v-1.232h8.595v1.232H572.075z"/>
<path fill="#575756" d="M577.53,118.373l-1.248,2.833h-1.361l5.026-11.204h1.329l5.01,11.204h-1.394l-1.249-2.833H577.53z
	 M580.571,111.458l-2.497,5.683h5.025L580.571,111.458z"/>
<path fill="#575756" d="M593.273,121.206v-9.988H591v-1.216h3.538v11.204H593.273z"/>
<path fill="#575756" d="M600.872,123.159l4.994-15.078h1.104l-5.01,15.078H600.872z"/>
</svg>
