<?xml version="1.0" encoding="utf-8"?>
<!-- Generator: Adobe Illustrator 16.0.0, SVG Export Plug-In . SVG Version: 6.00 Build 0)  -->
<!DOCTYPE svg PUBLIC "-//W3C//DTD SVG 1.1//EN" "http://www.w3.org/Graphics/SVG/1.1/DTD/svg11.dtd">
<svg version="1.1" id="Calque_1" xmlns="http://www.w3.org/2000/svg" xmlns:xlink="http://www.w3.org/1999/xlink" x="0px" y="0px"
	 width="1279.141px" height="799.756px" viewBox="0 0 1279.141 799.756" enable-background="new 0 0 1279.141 799.756"
	 xml:space="preserve">
<g>
	<g>
		<path fill="#FAF4E2" d="M225.666,779.677c0,1.851-1.489,3.408-3.398,3.408c-1.899,0-3.368-1.539-3.368-3.389
			s1.479-3.408,3.388-3.408C224.187,776.288,225.666,777.817,225.666,779.677z M219.33,779.696c0,1.608,1.269,2.929,2.938,2.929
			c1.679,0,2.978-1.339,2.978-2.948c0-1.608-1.289-2.928-2.958-2.928C220.609,776.749,219.33,778.087,219.33,779.696z
			 M223.637,778.458l-0.27,0.319c-0.28-0.261-0.64-0.42-1.029-0.42c-0.77,0-1.389,0.59-1.389,1.318c0,0.75,0.62,1.351,1.389,1.351
			c0.37,0,0.75-0.16,1.029-0.41l0.27,0.29c-0.35,0.34-0.83,0.55-1.319,0.55c-1.009,0-1.809-0.779-1.809-1.771
			c0-0.979,0.81-1.749,1.829-1.749C222.818,777.938,223.297,778.138,223.637,778.458z"/>
		<path fill="#FAF4E2" d="M229.958,776.179c2.039,0,3.598,1.511,3.598,3.498c0,1.988-1.569,3.498-3.628,3.498h-2.798v-6.996H229.958
			z M227.929,782.415h2.039c1.559,0,2.778-1.169,2.778-2.729c0-1.567-1.239-2.737-2.809-2.737h-2.009v5.467H227.929z"/>
		<path fill="#FAF4E2" d="M235.458,781.405l-0.779,1.77h-0.85l3.138-6.996h0.83l3.128,6.996h-0.87l-0.78-1.77H235.458z
			 M237.357,777.089l-1.559,3.547h3.138L237.357,777.089z"/>
		<path fill="#FAF4E2" d="M243.508,776.948v6.227h-0.8v-6.227h-2.279v-0.771h5.367v0.771H243.508z"/>
		<path fill="#FAF4E2" d="M246.919,781.405l-0.779,1.77h-0.85l3.138-6.996h0.83l3.128,6.996h-0.87l-0.78-1.77H246.919z
			 M248.818,777.089l-1.559,3.547h3.138L248.818,777.089z"/>
		<path fill="#FAF4E2" d="M257.707,776.798l-0.34,0.75c-0.629-0.42-1.369-0.59-1.929-0.59c-0.899,0-1.489,0.34-1.489,0.93
			c0,1.799,3.938,0.859,3.928,3.398c0,1.169-1.029,1.919-2.528,1.919c-1.02,0-2.019-0.44-2.679-1.069l0.36-0.72
			c0.649,0.63,1.539,0.989,2.329,0.989c1.009,0,1.639-0.41,1.639-1.08c0.01-1.838-3.928-0.859-3.928-3.367
			c0-1.1,0.969-1.81,2.418-1.81C256.297,776.148,257.127,776.409,257.707,776.798z"/>
		<path fill="#FAF4E2" d="M262.147,776.179c1.729,0,2.729,0.859,2.729,2.35c0,1.55-1,2.438-2.729,2.438h-1.829v2.209h-0.799v-6.996
			H262.147z M260.318,780.196h1.799c1.259,0,1.989-0.561,1.989-1.648c0-1.061-0.729-1.6-1.989-1.6h-1.799V780.196z"/>
		<path fill="#FAF4E2" d="M272.875,779.677c0,1.97-1.619,3.538-3.658,3.538c-2.049,0-3.668-1.568-3.668-3.538
			c0-1.979,1.619-3.518,3.668-3.518C271.256,776.159,272.875,777.708,272.875,779.677z M266.359,779.677
			c0,1.539,1.299,2.77,2.858,2.77c1.559,0,2.838-1.229,2.838-2.77s-1.279-2.758-2.838-2.758
			C267.658,776.919,266.359,778.138,266.359,779.677z"/>
		<path fill="#FAF4E2" d="M277.467,780.946c-0.15,0.01-0.31,0.02-0.47,0.02h-1.859v2.209h-0.799v-6.996h2.658
			c1.749,0,2.759,0.859,2.759,2.35c0,1.159-0.56,1.938-1.569,2.269l1.639,2.379h-0.91L277.467,780.946z M276.997,780.196
			c1.27,0,1.989-0.561,1.989-1.648c0-1.061-0.72-1.6-1.989-1.6h-1.859v3.248H276.997z"/>
		<path fill="#FAF4E2" d="M283.698,776.948v6.227h-0.8v-6.227h-2.279v-0.771h5.367v0.771H283.698z"/>
		<path fill="#FAF4E2" d="M293.716,777.868c0,0.669-0.5,1.479-1.239,2.269l-2.149,2.278h3.788v0.76h-4.807v-0.66l2.618-2.848
			c0.59-0.59,0.959-1.24,0.959-1.689c0-0.68-0.52-1.09-1.399-1.09c-0.64,0-1.35,0.33-1.909,0.87l-0.35-0.64
			c0.68-0.609,1.529-0.97,2.358-0.97C292.877,776.148,293.716,776.818,293.716,777.868z"/>
		<path fill="#FAF4E2" d="M300.946,779.677c0,2.259-1.029,3.519-2.889,3.519c-1.859,0-2.888-1.26-2.888-3.519
			s1.029-3.518,2.888-3.518C299.917,776.159,300.946,777.418,300.946,779.677z M295.979,779.677c0,1.89,0.72,2.838,2.079,2.838
			s2.079-0.948,2.079-2.838c0-1.897-0.72-2.838-2.079-2.838C296.698,776.839,295.979,777.778,295.979,779.677z"/>
		<path fill="#FAF4E2" d="M303.068,783.175v-6.235h-1.419v-0.761h2.209v6.996H303.068L303.068,783.175z"/>
		<path fill="#FAF4E2" d="M306.758,776.948v1.969c0.359-0.06,0.859-0.1,1.179-0.1c1.469,0,2.409,0.868,2.409,2.067
			c0,1.399-0.97,2.31-2.469,2.31c-0.77,0-1.699-0.3-2.359-0.761l0.33-0.68c0.58,0.44,1.319,0.7,1.949,0.7
			c1.05,0,1.699-0.579,1.699-1.519c0-0.83-0.649-1.351-1.679-1.351c-0.459,0-1.299,0.07-1.799,0.17v-3.578h4.058v0.771
			L306.758,776.948L306.758,776.948z"/>
		<path fill="#FAF4E2" d="M314.218,780.438v-0.58h2.349v0.58H314.218z"/>
		<path fill="#FAF4E2" d="M321.618,781.405l-0.779,1.77h-0.85l3.138-6.996h0.83l3.128,6.996h-0.87l-0.78-1.77H321.618z
			 M323.517,777.089l-1.559,3.547h3.138L323.517,777.089z"/>
		<path fill="#FAF4E2" d="M331.016,776.179c2.039,0,3.598,1.511,3.598,3.498c0,1.988-1.569,3.498-3.628,3.498h-2.798v-6.996H331.016
			z M328.987,782.415h2.039c1.559,0,2.778-1.169,2.778-2.729c0-1.567-1.239-2.737-2.809-2.737h-2.009L328.987,782.415
			L328.987,782.415z"/>
		<path fill="#FAF4E2" d="M336.877,776.948v2.299h3.528v0.77h-3.528v2.398h4.078v0.76h-4.877v-6.996h4.747v0.771L336.877,776.948
			L336.877,776.948z"/>
		<path fill="#FAF4E2" d="M346.456,782.415v0.76h-3.868v-6.996h0.799v6.236H346.456L346.456,782.415z"/>
		<path fill="#FAF4E2" d="M347.758,783.175v-6.996h0.799v6.996H347.758z"/>
		<path fill="#FAF4E2" d="M355.675,783.175l-4.198-5.617v5.617h-0.799v-6.996h0.83l4.197,5.627v-5.627h0.79v6.996H355.675z"/>
		<path fill="#FAF4E2" d="M359.427,776.948v2.299h3.528v0.77h-3.528v2.398h4.078v0.76h-4.877v-6.996h4.747v0.771L359.427,776.948
			L359.427,776.948z"/>
		<path fill="#FAF4E2" d="M368.677,776.948v2.459h3.268v0.77h-3.268v2.998h-0.799v-6.996h4.447v0.771L368.677,776.948
			L368.677,776.948z"/>
		<path fill="#FAF4E2" d="M376.635,780.946c-0.15,0.01-0.31,0.02-0.47,0.02h-1.859v2.209h-0.799v-6.996h2.658
			c1.749,0,2.759,0.859,2.759,2.35c0,1.159-0.56,1.938-1.569,2.269l1.639,2.379h-0.91L376.635,780.946z M376.166,780.196
			c1.27,0,1.989-0.561,1.989-1.648c0-1.061-0.72-1.6-1.989-1.6h-1.859v3.248H376.166z"/>
		<path fill="#FAF4E2" d="M381.537,776.948v2.299h3.528v0.77h-3.528v2.398h4.078v0.76h-4.877v-6.996h4.747v0.771L381.537,776.948
			L381.537,776.948z"/>
		<path fill="#FAF4E2" d="M391.115,782.415v0.76h-3.868v-6.996h0.799v6.236H391.115L391.115,782.415z"/>
		<path fill="#FAF4E2" d="M399.083,779.677c0,1.97-1.619,3.538-3.658,3.538c-2.049,0-3.668-1.568-3.668-3.538
			c0-1.979,1.619-3.518,3.668-3.518C397.464,776.159,399.083,777.708,399.083,779.677z M392.567,779.677
			c0,1.539,1.299,2.77,2.858,2.77c1.559,0,2.838-1.229,2.838-2.77s-1.279-2.758-2.838-2.758
			C393.866,776.919,392.567,778.138,392.567,779.677z"/>
		<path fill="#FAF4E2" d="M405.544,783.175l-4.198-5.617v5.617h-0.799v-6.996h0.83l4.197,5.627v-5.627h0.79v6.996H405.544z"/>
		<path fill="#FAF4E2" d="M408.916,782.745c0,0.16-0.06,0.289-0.15,0.43l-0.47,0.72h-0.439l0.33-0.729
			c-0.15-0.09-0.22-0.25-0.22-0.43c0-0.29,0.2-0.5,0.47-0.5C408.696,782.235,408.916,782.425,408.916,782.745z"/>
		<path fill="#FAF4E2" d="M417.504,776.798l-0.34,0.75c-0.629-0.42-1.369-0.59-1.929-0.59c-0.899,0-1.489,0.34-1.489,0.93
			c0,1.799,3.938,0.859,3.928,3.398c0,1.169-1.029,1.919-2.528,1.919c-1.02,0-2.019-0.44-2.679-1.069l0.36-0.72
			c0.649,0.63,1.539,0.989,2.329,0.989c1.009,0,1.639-0.41,1.639-1.08c0.01-1.838-3.928-0.859-3.928-3.367
			c0-1.1,0.969-1.81,2.418-1.81C416.095,776.148,416.924,776.409,417.504,776.798z"/>
		<path fill="#FAF4E2" d="M421.445,776.948v6.227h-0.8v-6.227h-2.279v-0.771h5.367v0.771H421.445z"/>
		<path fill="#FAF4E2" d="M425.696,776.948v2.299h3.527v0.77h-3.527v2.398h4.078v0.76h-4.878v-6.996h4.748v0.771L425.696,776.948
			L425.696,776.948z M427.525,775.31h-0.75l1.198-1.358l0.79,0.379L427.525,775.31z"/>
		<path fill="#FAF4E2" d="M434.035,776.179c1.729,0,2.729,0.859,2.729,2.35c0,1.55-1,2.438-2.729,2.438h-1.829v2.209h-0.799v-6.996
			H434.035z M432.206,780.196h1.799c1.259,0,1.989-0.561,1.989-1.648c0-1.061-0.729-1.6-1.989-1.6h-1.799V780.196z"/>
		<path fill="#FAF4E2" d="M443.113,783.175v-3.078h-4.219v3.078h-0.799v-6.996h0.799v3.158h4.219v-3.158h0.799v6.996H443.113z"/>
		<path fill="#FAF4E2" d="M446.646,781.405l-0.779,1.77h-0.851l3.139-6.996h0.83l3.128,6.996h-0.87l-0.78-1.77H446.646z
			 M448.544,777.089l-1.559,3.547h3.138L448.544,777.089z"/>
		<path fill="#FAF4E2" d="M458.213,783.175l-4.198-5.617v5.617h-0.799v-6.996h0.83l4.197,5.627v-5.627h0.79v6.996H458.213z"/>
		<path fill="#FAF4E2" d="M461.166,783.175v-6.996h0.799v6.996H461.166z"/>
		<path fill="#FAF4E2" d="M464.885,776.948v2.299h3.528v0.77h-3.528v2.398h4.078v0.76h-4.877v-6.996h4.747v0.771L464.885,776.948
			L464.885,776.948z"/>
		<path fill="#FAF4E2" d="M478.354,783.175v-3.078h-4.219v3.078h-0.799v-6.996h0.799v3.158h4.219v-3.158h0.799v6.996H478.354z"/>
		<path fill="#FAF4E2" d="M481.885,781.405l-0.778,1.77h-0.851l3.139-6.996h0.829l3.128,6.996h-0.869l-0.78-1.77H481.885z
			 M483.784,777.089l-1.56,3.547h3.139L483.784,777.089z"/>
		<path fill="#FAF4E2" d="M494.792,783.175l-0.01-5.767l-2.548,5.025h-0.48l-2.539-5.025v5.767h-0.759v-6.996h0.989l2.559,5.037
			l2.549-5.037h0.979v6.996H494.792z"/>
		<path fill="#FAF4E2" d="M498.465,776.948v2.299h3.528v0.77h-3.528v2.398h4.078v0.76h-4.877v-6.996h4.747v0.771L498.465,776.948
			L498.465,776.948z"/>
		<path fill="#FAF4E2" d="M508.043,782.415v0.76h-3.868v-6.996h0.799v6.236H508.043L508.043,782.415z"/>
		<path fill="#FAF4E2" d="M509.345,783.175v-6.996h0.8v6.996H509.345z"/>
		<path fill="#FAF4E2" d="M517.262,783.175l-4.197-5.617v5.617h-0.8v-6.996h0.83l4.197,5.627v-5.627h0.79v6.996H517.262z"/>
		<path fill="#FAF4E2" d="M520.635,782.745c0,0.16-0.06,0.289-0.149,0.43l-0.471,0.72h-0.438l0.33-0.729
			c-0.15-0.09-0.221-0.25-0.221-0.43c0-0.29,0.2-0.5,0.471-0.5C520.415,782.235,520.635,782.425,520.635,782.745z"/>
		<path fill="#FAF4E2" d="M525.534,781.405l-0.779,1.77h-0.85l3.138-6.996h0.83l3.128,6.996h-0.87l-0.78-1.77H525.534z
			 M527.433,777.089l-1.559,3.547h3.138L527.433,777.089z"/>
		<path fill="#FAF4E2" d="M537.102,783.175l-4.197-5.617v5.617h-0.799v-6.996h0.829l4.197,5.627v-5.627h0.79v6.996H537.102z"/>
		<path fill="#FAF4E2" d="M542.184,776.948v6.227h-0.8v-6.227h-2.278v-0.771h5.366v0.771H542.184z"/>
		<path fill="#FAF4E2" d="M551.851,779.677c0,1.97-1.618,3.538-3.657,3.538c-2.05,0-3.668-1.568-3.668-3.538
			c0-1.979,1.618-3.518,3.668-3.518C550.231,776.159,551.851,777.708,551.851,779.677z M545.334,779.677
			c0,1.539,1.299,2.77,2.858,2.77c1.559,0,2.838-1.229,2.838-2.77s-1.279-2.758-2.838-2.758
			C546.633,776.919,545.334,778.138,545.334,779.677z"/>
		<path fill="#FAF4E2" d="M553.314,783.175v-6.996h0.799v6.996H553.314z"/>
		<path fill="#FAF4E2" d="M561.231,783.175l-4.198-5.617v5.617h-0.799v-6.996h0.83l4.196,5.627v-5.627h0.79v6.996H561.231z"/>
		<path fill="#FAF4E2" d="M564.984,776.948v2.299h3.527v0.77h-3.527v2.398h4.078v0.76h-4.878v-6.996h4.747v0.771L564.984,776.948
			L564.984,776.948z"/>
		<path fill="#FAF4E2" d="M579.771,783.175l-0.011-5.767l-2.548,5.025h-0.479l-2.539-5.025v5.767h-0.759v-6.996h0.988l2.56,5.037
			l2.549-5.037h0.979v6.996H579.771z"/>
		<path fill="#FAF4E2" d="M589.31,779.677c0,1.97-1.618,3.538-3.657,3.538c-2.05,0-3.668-1.568-3.668-3.538
			c0-1.979,1.618-3.518,3.668-3.518C587.691,776.159,589.31,777.708,589.31,779.677z M582.794,779.677
			c0,1.539,1.299,2.77,2.858,2.77c1.559,0,2.838-1.229,2.838-2.77s-1.279-2.758-2.838-2.758
			C584.093,776.919,582.794,778.138,582.794,779.677z"/>
		<path fill="#FAF4E2" d="M593.902,780.946c-0.15,0.01-0.311,0.02-0.471,0.02h-1.858v2.209h-0.799v-6.996h2.657
			c1.749,0,2.76,0.859,2.76,2.35c0,1.159-0.561,1.938-1.569,2.269l1.639,2.379h-0.91L593.902,780.946z M593.432,780.196
			c1.271,0,1.989-0.561,1.989-1.648c0-1.061-0.72-1.6-1.989-1.6h-1.858v3.248H593.432z"/>
		<path fill="#FAF4E2" d="M598.803,776.948v2.299h3.528v0.77h-3.528v2.398h4.078v0.76h-4.877v-6.996h4.747v0.771L598.803,776.948
			L598.803,776.948z"/>
		<path fill="#FAF4E2" d="M608.381,782.415v0.76h-3.868v-6.996h0.8v6.236H608.381L608.381,782.415z"/>
		<path fill="#FAF4E2" d="M610.104,782.745c0,0.16-0.061,0.289-0.15,0.43l-0.47,0.72h-0.439l0.33-0.729
			c-0.15-0.09-0.22-0.25-0.22-0.43c0-0.29,0.2-0.5,0.47-0.5C609.883,782.235,610.104,782.425,610.104,782.745z"/>
		<path fill="#FAF4E2" d="M617.021,776.179c1.729,0,2.729,0.859,2.729,2.35c0,1.55-1,2.438-2.729,2.438h-1.828v2.209h-0.8v-6.996
			H617.021z M615.193,780.196h1.799c1.259,0,1.989-0.561,1.989-1.648c0-1.061-0.729-1.6-1.989-1.6h-1.799V780.196z"/>
		<path fill="#FAF4E2" d="M621.083,783.175v-6.996h0.799v6.996H621.083z"/>
		<path fill="#FAF4E2" d="M624.803,776.948v2.299h3.528v0.77h-3.528v2.398h4.078v0.76h-4.877v-6.996h4.747v0.771L624.803,776.948
			L624.803,776.948z"/>
		<path fill="#FAF4E2" d="M633.641,780.946c-0.149,0.01-0.31,0.02-0.47,0.02h-1.858v2.209h-0.8v-6.996h2.658
			c1.749,0,2.759,0.859,2.759,2.35c0,1.159-0.56,1.938-1.568,2.269l1.639,2.379h-0.91L633.641,780.946z M633.171,780.196
			c1.271,0,1.989-0.561,1.989-1.648c0-1.061-0.72-1.6-1.989-1.6h-1.858v3.248H633.171z"/>
		<path fill="#FAF4E2" d="M640.871,780.946c-0.15,0.01-0.311,0.02-0.47,0.02h-1.859v2.209h-0.799v-6.996h2.658
			c1.749,0,2.759,0.859,2.759,2.35c0,1.159-0.562,1.938-1.569,2.269l1.641,2.379h-0.91L640.871,780.946z M640.401,780.196
			c1.27,0,1.988-0.561,1.988-1.648c0-1.061-0.72-1.6-1.988-1.6h-1.859v3.248H640.401z"/>
		<path fill="#FAF4E2" d="M645.771,776.948v2.299h3.528v0.77h-3.528v2.398h4.077v0.76h-4.877v-6.996h4.748v0.771L645.771,776.948
			L645.771,776.948z"/>
		<path fill="#FAF4E2" d="M658.092,782.415v0.76h-3.869v-6.996h0.802v6.236H658.092L658.092,782.415z"/>
		<path fill="#FAF4E2" d="M660.082,781.405l-0.779,1.77h-0.85l3.139-6.996h0.83l3.127,6.996h-0.869l-0.778-1.77H660.082z
			 M661.982,777.089l-1.562,3.547h3.139L661.982,777.089z"/>
		<path fill="#FAF4E2" d="M668.131,776.948v6.227h-0.799v-6.227h-2.279v-0.771h5.367v0.771H668.131z"/>
		<path fill="#FAF4E2" d="M677.799,779.677c0,1.97-1.619,3.538-3.658,3.538c-2.049,0-3.668-1.568-3.668-3.538
			c0-1.979,1.619-3.518,3.668-3.518C676.18,776.159,677.799,777.708,677.799,779.677z M671.281,779.677
			c0,1.539,1.301,2.77,2.858,2.77c1.559,0,2.839-1.229,2.839-2.77s-1.279-2.758-2.839-2.758
			C672.581,776.919,671.281,778.138,671.281,779.677z"/>
		<path fill="#FAF4E2" d="M684.979,780.296c0,1.819-1.1,2.919-2.928,2.919c-1.84,0-2.949-1.1-2.949-2.919v-4.117h0.802v4.117
			c0,1.359,0.817,2.149,2.147,2.149c1.328,0,2.129-0.79,2.129-2.149v-4.117h0.8L684.979,780.296L684.979,780.296z"/>
		<path fill="#FAF4E2" d="M690.07,780.946c-0.148,0.01-0.31,0.02-0.47,0.02h-1.858v2.209h-0.799v-6.996h2.657
			c1.748,0,2.759,0.859,2.759,2.35c0,1.159-0.56,1.938-1.568,2.269l1.639,2.379h-0.91L690.07,780.946z M689.602,780.196
			c1.271,0,1.988-0.561,1.988-1.648c0-1.061-0.719-1.6-1.988-1.6h-1.858v3.248H689.602z"/>
		<path fill="#FAF4E2" d="M694.592,782.745c0,0.16-0.061,0.289-0.149,0.43l-0.47,0.72h-0.438l0.33-0.729
			c-0.15-0.09-0.222-0.25-0.222-0.43c0-0.29,0.199-0.5,0.47-0.5C694.373,782.235,694.592,782.425,694.592,782.745z"/>
		<path fill="#FAF4E2" d="M704.43,777.179l-0.479,0.609c-0.539-0.55-1.299-0.88-2.068-0.88c-1.58,0-2.85,1.22-2.85,2.759
			c0,1.529,1.27,2.758,2.85,2.758c0.771,0,1.521-0.318,2.068-0.84l0.49,0.551c-0.689,0.649-1.63,1.079-2.601,1.079
			c-2.018,0-3.617-1.568-3.617-3.548c0-1.959,1.619-3.508,3.648-3.508C702.83,776.159,703.76,776.548,704.43,777.179z"/>
		<path fill="#FAF4E2" d="M712.379,779.677c0,1.97-1.619,3.538-3.658,3.538c-2.049,0-3.668-1.568-3.668-3.538
			c0-1.979,1.619-3.518,3.668-3.518C710.76,776.159,712.379,777.708,712.379,779.677z M705.861,779.677
			c0,1.539,1.301,2.77,2.858,2.77c1.559,0,2.838-1.229,2.838-2.77s-1.278-2.758-2.838-2.758
			C707.161,776.919,705.861,778.138,705.861,779.677z"/>
		<path fill="#FAF4E2" d="M716.971,780.946c-0.149,0.01-0.311,0.02-0.471,0.02h-1.857v2.209h-0.801v-6.996h2.658
			c1.75,0,2.76,0.859,2.76,2.35c0,1.159-0.561,1.938-1.569,2.269l1.641,2.379h-0.91L716.971,780.946z M716.5,780.196
			c1.27,0,1.99-0.561,1.99-1.648c0-1.061-0.722-1.6-1.99-1.6h-1.857v3.248H716.5z"/>
		<path fill="#FAF4E2" d="M721.871,776.948v2.299h3.527v0.77h-3.527v2.398h4.078v0.76h-4.877v-6.996h4.746v0.771L721.871,776.948
			L721.871,776.948z"/>
		<path fill="#FAF4E2" d="M732.578,783.175l-4.197-5.617v5.617h-0.799v-6.996h0.828l4.199,5.627v-5.627h0.789v6.996H732.578z"/>
		<path fill="#FAF4E2" d="M737.66,776.948v6.227h-0.799v-6.227h-2.279v-0.771h5.367v0.771H737.66z"/>
		<path fill="#FAF4E2" d="M741.111,783.175v-6.996h0.801v6.996H741.111z"/>
		<path fill="#FAF4E2" d="M749.029,783.175l-4.197-5.617v5.617h-0.801v-6.996h0.83l4.196,5.627v-5.627h0.789v6.996H749.029z"/>
		<path fill="#FAF4E2" d="M757.67,776.179c1.408,0,2.258,0.649,2.258,1.749c0,0.819-0.469,1.409-1.289,1.579
			c1.011,0.15,1.601,0.811,1.601,1.771c0,1.188-0.939,1.897-2.521,1.897h-2.998v-6.996H757.67L757.67,776.179z M755.521,779.196
			h2.106c0.939,0,1.49-0.409,1.49-1.14c0-0.709-0.551-1.108-1.49-1.108h-2.106V779.196z M755.521,782.415h2.106
			c1.141,0,1.799-0.449,1.799-1.249c0-0.76-0.658-1.21-1.799-1.21h-2.106V782.415z"/>
		<path fill="#FAF4E2" d="M762.49,781.405l-0.779,1.77h-0.85l3.139-6.996h0.83l3.127,6.996h-0.869l-0.779-1.77H762.49z
			 M764.391,777.089l-1.561,3.547h3.139L764.391,777.089z"/>
		<path fill="#FAF4E2" d="M774.578,780.296c0,1.819-1.1,2.919-2.928,2.919c-1.841,0-2.949-1.1-2.949-2.919v-4.117h0.801v4.117
			c0,1.359,0.818,2.149,2.148,2.149c1.328,0,2.129-0.79,2.129-2.149v-4.117h0.799V780.296L774.578,780.296z"/>
		<path fill="#FAF4E2" d="M779.369,776.179c2.039,0,3.6,1.511,3.6,3.498c0,1.988-1.569,3.498-3.629,3.498h-2.799v-6.996H779.369z
			 M777.342,782.415h2.037c1.561,0,2.779-1.169,2.779-2.729c0-1.567-1.238-2.737-2.81-2.737h-2.008L777.342,782.415L777.342,782.415
			z"/>
		<path fill="#FAF4E2" d="M787.559,780.946c-0.147,0.01-0.309,0.02-0.469,0.02h-1.858v2.209h-0.8v-6.996h2.658
			c1.748,0,2.758,0.859,2.758,2.35c0,1.159-0.559,1.938-1.567,2.269l1.639,2.379h-0.91L787.559,780.946z M787.09,780.196
			c1.271,0,1.988-0.561,1.988-1.648c0-1.061-0.719-1.6-1.988-1.6h-1.858v3.248H787.09z"/>
		<path fill="#FAF4E2" d="M794.049,783.175h-0.789v-2.369l-2.709-4.627h0.83l2.271,3.648l2.237-3.648h0.818l-2.658,4.599V783.175z"
			/>
		<path fill="#FAF4E2" d="M798.24,782.745c0,0.16-0.062,0.289-0.15,0.43l-0.469,0.72h-0.439l0.33-0.729
			c-0.149-0.09-0.221-0.25-0.221-0.43c0-0.29,0.199-0.5,0.469-0.5C798.021,782.235,798.24,782.425,798.24,782.745z"/>
		<path fill="#FAF4E2" d="M803.141,781.405l-0.778,1.77h-0.851l3.14-6.996h0.827l3.13,6.996h-0.869l-0.779-1.77H803.141z
			 M805.039,777.089l-1.559,3.547h3.139L805.039,777.089z"/>
		<path fill="#FAF4E2" d="M812.84,780.946c-0.149,0.01-0.311,0.02-0.471,0.02h-1.857v2.209h-0.801v-6.996h2.658
			c1.75,0,2.76,0.859,2.76,2.35c0,1.159-0.561,1.938-1.57,2.269l1.642,2.379h-0.91L812.84,780.946z M812.369,780.196
			c1.27,0,1.99-0.561,1.99-1.648c0-1.061-0.722-1.6-1.99-1.6h-1.857v3.248H812.369z"/>
		<path fill="#FAF4E2" d="M819.07,776.948v6.227h-0.802v-6.227h-2.276v-0.771h5.365v0.771H819.07z"/>
		<path fill="#FAF4E2" d="M827.539,783.175v-3.078h-4.219v3.078h-0.799v-6.996h0.799v3.158h4.219v-3.158h0.799v6.996H827.539z"/>
		<path fill="#FAF4E2" d="M836.178,780.296c0,1.819-1.1,2.919-2.93,2.919c-1.838,0-2.947-1.1-2.947-2.919v-4.117h0.799v4.117
			c0,1.359,0.82,2.149,2.148,2.149c1.33,0,2.129-0.79,2.129-2.149v-4.117h0.801V780.296L836.178,780.296z"/>
		<path fill="#FAF4E2" d="M841.27,780.946c-0.149,0.01-0.311,0.02-0.471,0.02h-1.856v2.209h-0.802v-6.996h2.658
			c1.75,0,2.76,0.859,2.76,2.35c0,1.159-0.561,1.938-1.569,2.269l1.641,2.379h-0.91L841.27,780.946z M840.799,780.196
			c1.271,0,1.99-0.561,1.99-1.648c0-1.061-0.721-1.6-1.99-1.6h-1.856v3.248H840.799z"/>
		<path fill="#FAF4E2" d="M850.738,776.179c1.729,0,2.729,0.859,2.729,2.35c0,1.55-0.998,2.438-2.729,2.438h-1.828v2.209h-0.799
			v-6.996H850.738z M848.91,780.196h1.799c1.26,0,1.988-0.561,1.988-1.648c0-1.061-0.729-1.6-1.988-1.6h-1.799V780.196z"/>
		<path fill="#FAF4E2" d="M859.818,783.175v-3.078H855.6v3.078h-0.799v-6.996h0.799v3.158h4.22v-3.158h0.799v6.996H859.818z"/>
		<path fill="#FAF4E2" d="M863.541,776.948v2.299h3.527v0.77h-3.527v2.398h4.076v0.76h-4.877v-6.996h4.748v0.771L863.541,776.948
			L863.541,776.948z"/>
		<path fill="#FAF4E2" d="M873.119,782.415v0.76h-3.869v-6.996h0.801v6.236H873.119L873.119,782.415z"/>
		<path fill="#FAF4E2" d="M874.42,783.175v-6.996h0.801v6.996H874.42z"/>
		<path fill="#FAF4E2" d="M879.969,776.179c1.729,0,2.729,0.859,2.729,2.35c0,1.55-1,2.438-2.729,2.438h-1.828v2.209h-0.801v-6.996
			H879.969z M878.141,780.196h1.8c1.258,0,1.987-0.561,1.987-1.648c0-1.061-0.729-1.6-1.987-1.6h-1.8V780.196z"/>
		<path fill="#FAF4E2" d="M886.658,776.179c1.729,0,2.729,0.859,2.729,2.35c0,1.55-1,2.438-2.729,2.438h-1.828v2.209h-0.801v-6.996
			H886.658z M884.83,780.196h1.799c1.258,0,1.988-0.561,1.988-1.648c0-1.061-0.73-1.6-1.988-1.6h-1.799V780.196z"/>
		<path fill="#FAF4E2" d="M891.52,776.948v2.299h3.527v0.77h-3.527v2.398h4.078v0.76h-4.877v-6.996h4.746v0.771L891.52,776.948
			L891.52,776.948z"/>
		<path fill="#FAF4E2" d="M897.84,781.405l-0.779,1.77h-0.85l3.139-6.996h0.828l3.129,6.996h-0.868l-0.779-1.77H897.84z
			 M899.738,777.089l-1.56,3.547h3.14L899.738,777.089z"/>
		<path fill="#FAF4E2" d="M909.926,780.296c0,1.819-1.1,2.919-2.928,2.919c-1.84,0-2.949-1.1-2.949-2.919v-4.117h0.801v4.117
			c0,1.359,0.818,2.149,2.148,2.149c1.328,0,2.129-0.79,2.129-2.149v-4.117h0.799V780.296L909.926,780.296z"/>
		<path fill="#FAF4E2" d="M912.309,782.745c0,0.16-0.061,0.289-0.149,0.43l-0.469,0.72h-0.439l0.33-0.729
			c-0.15-0.09-0.221-0.25-0.221-0.43c0-0.29,0.198-0.5,0.469-0.5C912.09,782.235,912.309,782.425,912.309,782.745z"/>
		<path fill="#FAF4E2" d="M921.896,783.175h-0.959l-2.13-2.928l-2.108,2.928h-0.939l2.568-3.598l-2.389-3.398h0.938l1.93,2.698
			l1.947-2.698h0.939l-2.377,3.357L921.896,783.175z"/>
		<path fill="#FAF4E2" d="M923.859,781.405l-0.779,1.77h-0.85l3.139-6.996h0.828l3.129,6.996h-0.869l-0.779-1.77H923.859z
			 M925.758,777.089l-1.559,3.547h3.139L925.758,777.089z"/>
		<path fill="#FAF4E2" d="M931.809,783.175l-2.84-6.996h0.861l2.408,6.066l2.418-6.066h0.84l-2.859,6.996H931.809z"/>
		<path fill="#FAF4E2" d="M936.619,783.175v-6.996h0.801v6.996H936.619z"/>
		<path fill="#FAF4E2" d="M940.34,776.948v2.299h3.527v0.77h-3.527v2.398h4.076v0.76h-4.877v-6.996h4.748v0.771L940.34,776.948
			L940.34,776.948z"/>
		<path fill="#FAF4E2" d="M949.178,780.946c-0.149,0.01-0.311,0.02-0.471,0.02h-1.857v2.209h-0.801v-6.996h2.658
			c1.75,0,2.76,0.859,2.76,2.35c0,1.159-0.561,1.938-1.57,2.269l1.642,2.379h-0.91L949.178,780.946z M948.707,780.196
			c1.27,0,1.99-0.561,1.99-1.648c0-1.061-0.722-1.6-1.99-1.6h-1.857v3.248H948.707z"/>
		<path fill="#FAF4E2" d="M958.646,776.179c1.729,0,2.729,0.859,2.729,2.35c0,1.55-0.998,2.438-2.729,2.438h-1.828v2.209h-0.799
			v-6.996H958.646z M956.818,780.196h1.799c1.26,0,1.988-0.561,1.988-1.648c0-1.061-0.729-1.6-1.988-1.6h-1.799V780.196z"/>
		<path fill="#FAF4E2" d="M969.375,779.677c0,1.97-1.619,3.538-3.658,3.538c-2.049,0-3.668-1.568-3.668-3.538
			c0-1.979,1.619-3.518,3.668-3.518C967.756,776.159,969.375,777.708,969.375,779.677z M962.857,779.677
			c0,1.539,1.301,2.77,2.858,2.77s2.838-1.229,2.838-2.77s-1.278-2.758-2.838-2.758
			C964.157,776.919,962.857,778.138,962.857,779.677z"/>
		<path fill="#FAF4E2" d="M971.258,782.415h4.688l-0.011,0.76h-5.727v-0.64l4.637-5.587h-4.508v-0.771h5.557v0.641L971.258,782.415z
			"/>
		<path fill="#FAF4E2" d="M977.859,782.415h4.688l-0.012,0.76h-5.728v-0.64l4.64-5.587h-4.508v-0.771h5.557v0.641L977.859,782.415z"
			/>
		<path fill="#FAF4E2" d="M990.705,779.677c0,1.97-1.619,3.538-3.658,3.538c-2.049,0-3.668-1.568-3.668-3.538
			c0-1.979,1.619-3.518,3.668-3.518C989.086,776.159,990.705,777.708,990.705,779.677z M984.188,779.677
			c0,1.539,1.302,2.77,2.859,2.77c1.559,0,2.838-1.229,2.838-2.77s-1.279-2.758-2.838-2.758S984.188,778.138,984.188,779.677z"/>
		<path fill="#FAF4E2" d="M992.588,782.745c0,0.16-0.061,0.289-0.15,0.43l-0.469,0.72h-0.438l0.33-0.729
			c-0.15-0.09-0.222-0.25-0.222-0.43c0-0.29,0.199-0.5,0.469-0.5C992.369,782.235,992.588,782.425,992.588,782.745z"/>
		<path fill="#FAF4E2" d="M1001.176,776.798l-0.34,0.75c-0.629-0.42-1.369-0.59-1.93-0.59c-0.898,0-1.488,0.34-1.488,0.93
			c0,1.799,3.938,0.859,3.928,3.398c0,1.169-1.028,1.919-2.528,1.919c-1.021,0-2.019-0.44-2.679-1.069l0.359-0.72
			c0.65,0.63,1.539,0.989,2.33,0.989c1.008,0,1.639-0.41,1.639-1.08c0.01-1.838-3.928-0.859-3.928-3.367
			c0-1.1,0.969-1.81,2.418-1.81C999.768,776.148,1000.596,776.409,1001.176,776.798z"/>
		<path fill="#FAF4E2" d="M1002.988,783.175v-6.996h0.799v6.996H1002.988z"/>
		<path fill="#FAF4E2" d="M1012.244,783.175l-0.01-5.767l-2.549,5.025h-0.48l-2.537-5.025v5.767h-0.76v-6.996h0.988l2.559,5.037
			l2.549-5.037h0.98v6.996H1012.244z"/>
		<path fill="#FAF4E2" d="M1021.783,779.677c0,1.97-1.619,3.538-3.658,3.538c-2.049,0-3.668-1.568-3.668-3.538
			c0-1.979,1.619-3.518,3.668-3.518C1020.164,776.159,1021.783,777.708,1021.783,779.677z M1015.268,779.677
			c0,1.539,1.3,2.77,2.857,2.77c1.561,0,2.84-1.229,2.84-2.77s-1.279-2.758-2.84-2.758
			C1016.566,776.919,1015.268,778.138,1015.268,779.677z"/>
		<path fill="#FAF4E2" d="M1028.244,783.175l-4.197-5.617v5.617h-0.799v-6.996h0.828l4.199,5.627v-5.627h0.788v6.996H1028.244z"/>
		<path fill="#FAF4E2" d="M1036.566,776.179c1.729,0,2.729,0.859,2.729,2.35c0,1.55-1,2.438-2.729,2.438h-1.828v2.209h-0.801v-6.996
			H1036.566z M1034.738,780.196h1.799c1.258,0,1.988-0.561,1.988-1.648c0-1.061-0.73-1.6-1.988-1.6h-1.799V780.196z"/>
		<path fill="#FAF4E2" d="M1043.756,780.946c-0.15,0.01-0.311,0.02-0.471,0.02h-1.857v2.209h-0.801v-6.996h2.658
			c1.75,0,2.76,0.859,2.76,2.35c0,1.159-0.561,1.938-1.57,2.269l1.642,2.379h-0.91L1043.756,780.946z M1043.285,780.196
			c1.27,0,1.99-0.561,1.99-1.648c0-1.061-0.722-1.6-1.99-1.6h-1.857v3.248H1043.285z"/>
		<path fill="#FAF4E2" d="M1047.857,783.175v-6.996h0.801v6.996H1047.857z"/>
		<path fill="#FAF4E2" d="M1057.443,779.677c0,1.97-1.619,3.538-3.658,3.538c-2.049,0-3.668-1.568-3.668-3.538
			c0-1.979,1.619-3.518,3.668-3.518C1055.824,776.159,1057.443,777.708,1057.443,779.677z M1050.928,779.677
			c0,1.539,1.299,2.77,2.857,2.77c1.561,0,2.84-1.229,2.84-2.77s-1.279-2.758-2.84-2.758
			C1052.227,776.919,1050.928,778.138,1050.928,779.677z"/>
		<path fill="#FAF4E2" d="M1064.623,780.296c0,1.819-1.1,2.919-2.928,2.919c-1.84,0-2.949-1.1-2.949-2.919v-4.117h0.801v4.117
			c0,1.359,0.818,2.149,2.148,2.149c1.328,0,2.129-0.79,2.129-2.149v-4.117h0.799V780.296z"/>
		<path fill="#FAF4E2" d="M1071.885,783.175h-0.959l-2.129-2.928l-2.109,2.928h-0.938l2.568-3.598l-2.39-3.398h0.939l1.93,2.698
			l1.947-2.698h0.938l-2.377,3.357L1071.885,783.175z"/>
		<path fill="#FAF4E2" d="M1073.656,782.735c0,0.299-0.209,0.52-0.48,0.52c-0.279,0-0.488-0.221-0.488-0.52
			c0-0.302,0.209-0.521,0.488-0.521C1073.447,782.216,1073.656,782.435,1073.656,782.735z"/>
	</g>
</g>
<polygon display="none" fill="#CA4A3F" points="866.178,4047.915 865.46,4047.021 354.947,3962.938 49.805,3772.411 
	182.261,3221.753 1135.441,3185.839 1138.117,3185.737 1196.816,2412.104 1197.041,2409.15 220.024,2322.105 118.758,1576.011 
	1210.703,1436.899 1215.243,1436.321 901.594,909.448 1028.944,655.89 1029.262,655.89 1028.947,655.884 1029.626,654.532 
	953.75,654.532 409.417,644.747 -1.598,501.913 -1.598,525.542 -1.598,531.829 408.465,660.396 408.904,660.532 1019.898,660.532 
	895.495,908.224 894.757,909.692 1205.405,1431.526 115,1570.442 112,1570.823 214.401,2325.284 214.723,2327.657 1190.61,2414.604 
	1132.539,3179.944 179.763,3215.843 177.491,3215.929 42.96,3775.212 352.278,3968.347 352.788,3968.665 862.224,4052.571 
	1276.066,4566.271 1280.738,4562.509 "/>
<polygon fill="#B8DEDB" points="1031.262,-138.241 1031.047,-138.241 1030.947,-138.068 "/>
<g>
	<rect x="23.938" y="593.839" fill="none" width="410.98" height="24.158"/>
	<path fill="#F6FBFC" d="M35.379,595.137c5.364,0,8.464,2.666,8.464,7.286c0,4.809-3.101,7.565-8.464,7.565h-5.674v6.853h-2.48
		v-21.704H35.379L35.379,595.137z M29.705,607.601h5.581c3.907,0,6.17-1.733,6.17-5.113c0-3.286-2.264-4.961-6.17-4.961h-5.581
		V607.601z"/>
	<path fill="#F6FBFC" d="M48.646,611.354l-2.418,5.487h-2.636l9.736-21.704h2.574l9.705,21.704h-2.698l-2.418-5.487H48.646z
		 M54.538,597.958l-4.837,11.007h9.735L54.538,597.958z"/>
	<path fill="#F6FBFC" d="M78.717,609.926c-0.465,0.031-0.961,0.062-1.457,0.062h-5.767v6.853h-2.48v-21.704h8.248
		c5.426,0,8.558,2.666,8.558,7.286c0,3.6-1.736,6.018-4.868,7.038l5.085,7.38h-2.821L78.717,609.926z M77.26,607.601
		c3.938,0,6.17-1.733,6.17-5.113c0-3.286-2.232-4.961-6.17-4.961h-5.767v10.074H77.26z"/>
	<path fill="#F6FBFC" d="M98.03,597.523v19.314h-2.48v-19.314h-7.07v-2.39h16.65v2.39H98.03z"/>
	<path fill="#F6FBFC" d="M111.204,597.523v7.132h10.945v2.388h-10.945v7.441h12.65v2.354h-15.131v-21.704h14.728v2.39H111.204
		L111.204,597.523z"/>
	<path fill="#F6FBFC" d="M144.407,616.841l-13.022-17.426v17.426h-2.48v-21.704h2.573l13.022,17.456v-17.456h2.45v21.704H144.407z"
		/>
	<path fill="#F6FBFC" d="M155.44,611.354l-2.418,5.487h-2.636l9.736-21.704h2.574l9.705,21.704h-2.698l-2.418-5.487H155.44z
		 M161.332,597.958l-4.837,11.007h9.735L161.332,597.958z"/>
	<path fill="#F6FBFC" d="M175.807,616.841v-21.704h2.48v21.704H175.807z"/>
	<path fill="#F6FBFC" d="M194.563,609.926c-0.465,0.031-0.961,0.062-1.457,0.062h-5.767v6.853h-2.48v-21.704h8.248
		c5.426,0,8.558,2.666,8.558,7.286c0,3.6-1.736,6.018-4.868,7.038l5.085,7.38h-2.821L194.563,609.926z M193.106,607.601
		c3.938,0,6.17-1.733,6.17-5.113c0-3.286-2.232-4.961-6.17-4.961h-5.767v10.074H193.106z"/>
	<path fill="#F6FBFC" d="M209.751,597.523v7.132h10.945v2.388h-10.945v7.441h12.65v2.354H207.27v-21.704h14.728v2.39H209.751
		L209.751,597.523z"/>
	<path fill="#F6FBFC" d="M240.784,597.059l-1.054,2.325c-1.953-1.302-4.248-1.829-5.984-1.829c-2.79,0-4.62,1.058-4.62,2.887
		c0,5.58,12.216,2.666,12.185,10.542c0,3.628-3.193,5.95-7.844,5.95c-3.163,0-6.263-1.361-8.31-3.314l1.116-2.232
		c2.015,1.953,4.775,3.069,7.224,3.069c3.132,0,5.085-1.271,5.085-3.349c0.031-5.705-12.185-2.668-12.185-10.449
		c0-3.41,3.007-5.612,7.503-5.612C236.413,595.043,238.986,595.85,240.784,597.059z"/>
</g>
<path fill="none" stroke="#E63238" stroke-width="6" stroke-miterlimit="10" d="M630.403,957.927"/>
<polygon fill="#CA4A3F" points="1281.738,563.957 1279.402,561.058 1279.402,565.839 "/>
</svg>
