<?xml version="1.0" encoding="utf-8"?>
<!-- Generator: Adobe Illustrator 16.0.0, SVG Export Plug-In . SVG Version: 6.00 Build 0)  -->
<!DOCTYPE svg PUBLIC "-//W3C//DTD SVG 1.1//EN" "http://www.w3.org/Graphics/SVG/1.1/DTD/svg11.dtd">
<svg version="1.1" id="Calque_1" xmlns="http://www.w3.org/2000/svg" xmlns:xlink="http://www.w3.org/1999/xlink" x="0px" y="0px"
	 width="1279.141px" height="799.756px" viewBox="0 0 1279.141 799.756" enable-background="new 0 0 1279.141 799.756"
	 xml:space="preserve">
<polygon display="none" fill="#CA4A3F" points="866.178,4047.915 865.46,4047.021 354.947,3962.938 49.805,3772.411 
	182.261,3221.753 1135.441,3185.839 1138.117,3185.737 1196.816,2412.104 1197.041,2409.15 220.024,2322.105 118.758,1576.011 
	1210.703,1436.899 1215.243,1436.321 901.594,909.448 1028.944,655.89 1029.262,655.89 1028.947,655.884 1029.626,654.532 
	953.75,654.532 409.417,644.747 -1.598,501.913 -1.598,525.542 -1.598,531.829 408.465,660.396 408.904,660.532 1019.898,660.532 
	895.495,908.224 894.757,909.692 1205.405,1431.526 115,1570.442 112,1570.823 214.401,2325.284 214.723,2327.657 1190.61,2414.604 
	1132.539,3179.944 179.763,3215.843 177.491,3215.929 42.96,3775.212 352.278,3968.347 352.788,3968.665 862.224,4052.571 
	1276.066,4566.271 1280.738,4562.509 "/>
<polygon fill="#B8DEDB" points="1031.262,-138.241 1031.047,-138.241 1030.947,-138.068 "/>
<line fill="none" stroke="#1D1D1B" stroke-width="0.5" stroke-miterlimit="10" x1="450.722" y1="461.161" x2="829.75" y2="461.161"/>
<line fill="none" stroke="#1D1D1B" stroke-width="0.5" stroke-miterlimit="10" x1="450.722" y1="425.05" x2="829.75" y2="425.05"/>
<line fill="none" stroke="#1D1D1B" stroke-width="0.5" stroke-miterlimit="10" x1="450.722" y1="389.788" x2="829.75" y2="389.788"/>
<line fill="none" stroke="#1D1D1B" stroke-width="0.5" stroke-miterlimit="10" x1="450.071" y1="353.385" x2="829.1" y2="353.385"/>
<line fill="none" stroke="#1D1D1B" stroke-width="0.5" stroke-miterlimit="10" x1="450.071" y1="318.124" x2="829.1" y2="318.124"/>
<line fill="none" stroke="#1D1D1B" stroke-width="0.5" stroke-miterlimit="10" x1="450.071" y1="281.866" x2="829.1" y2="281.866"/>
<line fill="none" stroke="#1D1D1B" stroke-width="0.5" stroke-miterlimit="10" x1="450.071" y1="246.606" x2="829.1" y2="246.606"/>
<line fill="none" stroke="#1D1D1B" stroke-width="0.5" stroke-miterlimit="10" x1="450.071" y1="210.723" x2="829.1" y2="210.723"/>
<line fill="none" stroke="#1D1D1B" stroke-width="0.5" stroke-miterlimit="10" x1="450.071" y1="175.463" x2="829.1" y2="175.463"/>
<line fill="none" stroke="#1D1D1B" stroke-width="0.5" stroke-miterlimit="10" x1="450.722" y1="496.423" x2="829.75" y2="496.423"/>
<g>
	<polygon fill="none" points="491.07,508.749 450.714,508.749 450.714,495.267 491.07,495.267 491.07,504.133 	"/>
	<path fill="#575756" d="M454.593,504.261c0,0.539-0.398,1.098-0.938,1.654l-1.012,1.07h2.097v1.001h-3.727v-0.815l1.778-1.88
		c0.278-0.292,0.476-0.624,0.476-0.851c0-0.283-0.206-0.455-0.562-0.455c-0.406,0-0.901,0.245-1.358,0.632l-0.476-0.904
		c0.625-0.469,1.308-0.744,2.018-0.744C453.882,502.963,454.593,503.473,454.593,504.261z"/>
	<path fill="#575756" d="M457.258,507.983h-1.337l1.775-3.966h-1.37v0.695h-1.109v-1.692h3.874v0.853L457.258,507.983z"/>
	<path fill="#575756" d="M458.947,508.771l2.296-6.54h1.033l-2.297,6.54H458.947z"/>
	<path fill="#575756" d="M466.412,505.495c0,1.621-0.786,2.526-2.198,2.526c-1.423,0-2.212-0.902-2.212-2.526
		c0-1.619,0.789-2.519,2.212-2.519C465.625,502.977,466.412,503.878,466.412,505.495z M463.305,505.495
		c0,1.134,0.269,1.603,0.908,1.603c0.625,0,0.903-0.469,0.903-1.603s-0.278-1.598-0.903-1.598
		C463.575,503.897,463.305,504.358,463.305,505.495z"/>
	<path fill="#575756" d="M467.675,507.983v-3.957h-0.917v-1.014h2.183v4.97L467.675,507.983L467.675,507.983z"/>
	<path fill="#575756" d="M469.38,508.771l2.297-6.54h1.029l-2.296,6.54H469.38z"/>
	<path fill="#575756" d="M476.021,504.261c0,0.539-0.395,1.098-0.938,1.654l-1.01,1.07h2.097v1.001h-3.727v-0.815l1.776-1.88
		c0.278-0.292,0.478-0.624,0.478-0.851c0-0.283-0.207-0.455-0.562-0.455c-0.405,0-0.904,0.245-1.357,0.632l-0.479-0.904
		c0.626-0.469,1.31-0.744,2.02-0.744C475.309,502.963,476.021,503.473,476.021,504.261z"/>
	<path fill="#575756" d="M481.11,505.495c0,1.621-0.789,2.526-2.198,2.526c-1.421,0-2.211-0.902-2.211-2.526
		c0-1.619,0.791-2.519,2.211-2.519C480.321,502.977,481.11,503.878,481.11,505.495z M478.002,505.495
		c0,1.134,0.271,1.603,0.91,1.603c0.627,0,0.904-0.469,0.904-1.603s-0.278-1.598-0.904-1.598
		C478.273,503.897,478.002,504.358,478.002,505.495z"/>
	<path fill="#575756" d="M482.374,507.983v-3.957h-0.918v-1.014h2.18v4.97L482.374,507.983L482.374,507.983z"/>
	<path fill="#575756" d="M486.005,504.018v0.802h0.449c1.135,0,1.884,0.61,1.884,1.493c0,1.044-0.782,1.717-1.984,1.717
		c-0.654,0-1.401-0.248-1.92-0.615l0.505-0.96c0.369,0.398,0.818,0.61,1.266,0.61c0.49,0,0.775-0.239,0.775-0.665
		c0-0.39-0.285-0.618-0.775-0.618c-0.259,0-1.045,0.017-1.353,0.035v-2.799h3.266v0.997L486.005,504.018L486.005,504.018z"/>
</g>
<g>
	<polygon fill="none" points="829.75,508.765 789.35,508.765 789.35,495.267 829.75,495.267 829.75,504.143 	"/>
	<path fill="#575756" d="M795.467,504.271c0,0.54-0.398,1.1-0.939,1.656l-1.012,1.072h2.102V508h-3.732v-0.815l1.778-1.883
		c0.277-0.292,0.478-0.625,0.478-0.852c0-0.283-0.204-0.455-0.561-0.455c-0.405,0-0.904,0.245-1.363,0.633l-0.476-0.906
		c0.626-0.469,1.311-0.744,2.021-0.744C794.755,502.972,795.467,503.482,795.467,504.271z"/>
	<path fill="#575756" d="M796.824,507.998v-3.962h-0.915v-1.016h2.183v4.976L796.824,507.998L796.824,507.998z"/>
	<path fill="#575756" d="M798.531,508.786l2.299-6.548h1.031l-2.301,6.548H798.531z"/>
	<path fill="#575756" d="M806.006,505.507c0,1.623-0.79,2.529-2.201,2.529c-1.424,0-2.214-0.903-2.214-2.529
		c0-1.621,0.79-2.521,2.214-2.521C805.216,502.985,806.006,503.887,806.006,505.507z M802.894,505.507
		c0,1.135,0.268,1.604,0.909,1.604c0.626,0,0.904-0.469,0.904-1.604c0-1.136-0.278-1.6-0.904-1.6
		C803.164,503.907,802.894,504.369,802.894,505.507z"/>
	<path fill="#575756" d="M808.858,505.946v-1.064h1.175v1.064h0.675v0.957h-0.675v1.095h-1.175v-1.095h-2.364v-0.843l1.572-3.031
		h1.219l-1.481,2.917H808.858z"/>
	<path fill="#575756" d="M810.549,508.786l2.3-6.548h1.03l-2.299,6.548H810.549z"/>
	<path fill="#575756" d="M817.196,504.271c0,0.54-0.398,1.1-0.939,1.656l-1.012,1.072h2.102V508h-3.731v-0.815l1.777-1.883
		c0.277-0.292,0.48-0.625,0.48-0.852c0-0.283-0.207-0.455-0.563-0.455c-0.405,0-0.904,0.245-1.36,0.633l-0.479-0.906
		c0.626-0.469,1.311-0.744,2.021-0.744C816.484,502.972,817.196,503.482,817.196,504.271z"/>
	<path fill="#575756" d="M822.292,505.507c0,1.623-0.792,2.529-2.201,2.529c-1.424,0-2.214-0.903-2.214-2.529
		c0-1.621,0.79-2.521,2.214-2.521C821.5,502.985,822.292,503.887,822.292,505.507z M819.18,505.507c0,1.135,0.271,1.604,0.911,1.604
		c0.627,0,0.905-0.469,0.905-1.604c0-1.136-0.278-1.6-0.905-1.6C819.45,503.907,819.18,504.369,819.18,505.507z"/>
	<path fill="#575756" d="M823.557,507.998v-3.962h-0.918v-1.016h2.183v4.976L823.557,507.998L823.557,507.998z"/>
	<path fill="#575756" d="M827.192,504.027v0.803h0.448c1.137,0,1.887,0.611,1.887,1.495c0,1.045-0.783,1.719-1.986,1.719
		c-0.654,0-1.402-0.248-1.922-0.616l0.506-0.961c0.37,0.398,0.818,0.611,1.268,0.611c0.491,0,0.775-0.24,0.775-0.666
		c0-0.39-0.284-0.619-0.775-0.619c-0.259,0-1.048,0.017-1.356,0.035v-2.802h3.268v0.999L827.192,504.027L827.192,504.027z"/>
</g>
<g>
	<polygon fill="none" points="448.237,463.552 429.514,463.552 429.514,453.89 448.237,453.89 448.237,460.243 	"/>
	<path fill="#575756" d="M443.254,463.003v-2.836h-0.658v-0.727h1.564v3.562L443.254,463.003L443.254,463.003z"/>
	<path fill="#575756" d="M448.028,461.22c0,1.162-0.565,1.811-1.575,1.811c-1.021,0-1.585-0.646-1.585-1.811
		c0-1.16,0.563-1.805,1.585-1.805C447.462,459.415,448.028,460.06,448.028,461.22z M445.801,461.22c0,0.812,0.194,1.148,0.652,1.148
		c0.448,0,0.646-0.336,0.646-1.148s-0.197-1.145-0.646-1.145C445.995,460.075,445.801,460.405,445.801,461.22z"/>
</g>
<g>
	<polygon fill="none" points="448.237,427.839 429.514,427.839 429.514,418.175 448.237,418.175 448.237,424.53 	"/>
	<path fill="#575756" d="M444.38,424.62c0,0.387-0.285,0.789-0.672,1.186l-0.724,0.768h1.503v0.717h-2.671v-0.584l1.272-1.346
		c0.199-0.209,0.341-0.447,0.341-0.611c0-0.203-0.146-0.324-0.401-0.324c-0.29,0-0.647,0.172-0.975,0.453l-0.341-0.65
		c0.448-0.336,0.938-0.533,1.447-0.533C443.871,423.69,444.38,424.058,444.38,424.62z"/>
	<path fill="#575756" d="M448.027,425.505c0,1.164-0.565,1.811-1.575,1.811c-1.021,0-1.585-0.646-1.585-1.811
		c0-1.158,0.564-1.803,1.585-1.803C447.462,423.702,448.027,424.347,448.027,425.505z M445.8,425.505
		c0,0.812,0.194,1.148,0.652,1.148c0.449,0,0.646-0.336,0.646-1.148c0-0.812-0.197-1.143-0.646-1.143
		C445.994,424.362,445.8,424.692,445.8,425.505z"/>
</g>
<g>
	<polygon fill="none" points="448.237,392.366 429.514,392.366 429.514,382.704 448.237,382.704 448.237,389.058 	"/>
	<path fill="#575756" d="M443.615,389.729c0.52,0.081,0.887,0.423,0.887,0.972c0,0.682-0.535,1.159-1.366,1.159
		c-0.489,0-1.004-0.175-1.33-0.435l0.367-0.686c0.265,0.284,0.571,0.432,0.894,0.432c0.355,0,0.55-0.173,0.55-0.462
		c0-0.3-0.199-0.447-0.557-0.447h-0.569v-0.48l0.795-0.823h-1.3v-0.691h2.354v0.516l-0.892,0.924L443.615,389.729z"/>
	<path fill="#575756" d="M448.027,390.034c0,1.163-0.565,1.809-1.575,1.809c-1.021,0-1.585-0.646-1.585-1.809
		c0-1.159,0.564-1.804,1.585-1.804C447.462,388.23,448.027,388.875,448.027,390.034z M445.8,390.034
		c0,0.812,0.194,1.146,0.652,1.146c0.449,0,0.646-0.336,0.646-1.146c0-0.813-0.197-1.146-0.646-1.146
		C445.994,388.89,445.8,389.22,445.8,390.034z"/>
</g>
<g>
	<polygon fill="none" points="448.237,355.209 429.514,355.209 429.514,345.545 448.237,345.545 448.237,351.901 	"/>
	<path fill="#575756" d="M443.264,353.19v-0.764h0.843v0.764h0.482v0.687h-0.482v0.782h-0.843v-0.782h-1.69v-0.604l1.126-2.172
		h0.872l-1.062,2.09L443.264,353.19L443.264,353.19z"/>
	<path fill="#575756" d="M448.027,352.875c0,1.163-0.565,1.809-1.575,1.809c-1.021,0-1.585-0.646-1.585-1.809
		c0-1.159,0.564-1.804,1.585-1.804C447.462,351.072,448.027,351.716,448.027,352.875z M445.8,352.875
		c0,0.812,0.194,1.148,0.652,1.148c0.449,0,0.646-0.336,0.646-1.148s-0.197-1.144-0.646-1.144
		C445.994,351.732,445.8,352.062,445.8,352.875z"/>
</g>
<g>
	<polygon fill="none" points="448.237,320.559 429.514,320.559 429.514,310.895 448.237,310.895 448.237,317.25 	"/>
	<path fill="#575756" d="M442.826,317.168v0.574h0.32c0.814,0,1.352,0.438,1.352,1.072c0,0.745-0.561,1.229-1.422,1.229
		c-0.469,0-1.004-0.178-1.376-0.441l0.362-0.687c0.265,0.285,0.586,0.438,0.905,0.438c0.354,0,0.558-0.173,0.558-0.478
		c0-0.279-0.204-0.442-0.558-0.442c-0.184,0-0.749,0.012-0.968,0.025v-2.007h2.339v0.716L442.826,317.168L442.826,317.168z"/>
	<path fill="#575756" d="M448.027,318.226c0,1.163-0.565,1.811-1.575,1.811c-1.021,0-1.585-0.646-1.585-1.811
		c0-1.157,0.564-1.804,1.585-1.804C447.462,316.422,448.027,317.067,448.027,318.226z M445.8,318.226
		c0,0.812,0.194,1.148,0.652,1.148c0.449,0,0.646-0.336,0.646-1.148c0-0.812-0.197-1.144-0.646-1.144
		C445.994,317.083,445.8,317.413,445.8,318.226z"/>
</g>
<g>
	<polygon fill="none" points="448.237,284.235 429.514,284.235 429.514,274.571 448.237,274.571 448.237,280.926 	"/>
	<path fill="#575756" d="M444.452,280.382l-0.347,0.63c-0.204-0.147-0.476-0.229-0.749-0.229c-0.571,0-0.848,0.36-0.837,0.945
		c0.168-0.239,0.453-0.381,0.852-0.381c0.703,0,1.152,0.457,1.152,1.147c0,0.753-0.53,1.23-1.336,1.23
		c-0.957,0-1.538-0.676-1.538-1.769c0-1.133,0.646-1.87,1.649-1.87C443.698,280.087,444.151,280.2,444.452,280.382z
		 M442.617,282.506c0,0.264,0.168,0.498,0.535,0.498c0.326,0,0.528-0.184,0.528-0.514c0-0.305-0.188-0.482-0.515-0.482
		C442.816,282.008,442.617,282.216,442.617,282.506z"/>
	<path fill="#575756" d="M448.027,281.902c0,1.163-0.565,1.809-1.575,1.809c-1.021,0-1.585-0.646-1.585-1.809
		c0-1.159,0.564-1.804,1.585-1.804C447.462,280.098,448.027,280.743,448.027,281.902z M445.8,281.902
		c0,0.812,0.194,1.148,0.652,1.148c0.449,0,0.646-0.336,0.646-1.148c0-0.813-0.197-1.144-0.646-1.144
		C445.994,280.758,445.8,281.088,445.8,281.902z"/>
</g>
<g>
	<polygon fill="none" points="448.237,249.364 429.514,249.364 429.514,239.702 448.237,239.702 448.237,246.055 	"/>
	<path fill="#575756" d="M443.264,248.814h-0.958l1.274-2.841h-0.983v0.498h-0.795v-1.214h2.778v0.614L443.264,248.814z"/>
	<path fill="#575756" d="M448.027,247.031c0,1.163-0.565,1.809-1.575,1.809c-1.021,0-1.585-0.646-1.585-1.809
		c0-1.159,0.564-1.804,1.585-1.804C447.462,245.227,448.027,245.872,448.027,247.031z M445.8,247.031
		c0,0.812,0.194,1.148,0.652,1.148c0.449,0,0.646-0.336,0.646-1.148c0-0.813-0.197-1.144-0.646-1.144
		C445.994,245.887,445.8,246.217,445.8,247.031z"/>
</g>
<g>
	<polygon fill="none" points="448.237,213.877 429.514,213.877 429.514,204.215 448.237,204.215 448.237,210.569 	"/>
	<path fill="#575756" d="M444.299,210.687c0,0.311-0.168,0.585-0.449,0.737c0.395,0.162,0.639,0.503,0.639,0.899
		c0,0.64-0.571,1.047-1.463,1.047c-0.894,0-1.463-0.401-1.463-1.032c0-0.406,0.266-0.752,0.679-0.914
		c-0.301-0.168-0.494-0.452-0.494-0.763c0-0.568,0.5-0.93,1.272-0.93C443.804,209.732,444.299,210.103,444.299,210.687z
		 M442.418,212.248c0,0.3,0.214,0.467,0.606,0.467c0.392,0,0.61-0.162,0.61-0.467c0-0.295-0.219-0.463-0.61-0.463
		C442.632,211.785,442.418,211.953,442.418,212.248z M442.51,210.738c0,0.255,0.186,0.396,0.517,0.396
		c0.332,0,0.515-0.142,0.515-0.396c0-0.264-0.184-0.411-0.515-0.411C442.693,210.327,442.51,210.474,442.51,210.738z"/>
	<path fill="#575756" d="M448.027,211.546c0,1.163-0.565,1.809-1.575,1.809c-1.021,0-1.585-0.646-1.585-1.809
		c0-1.159,0.564-1.804,1.585-1.804C447.462,209.743,448.027,210.387,448.027,211.546z M445.8,211.546
		c0,0.812,0.194,1.148,0.652,1.148c0.449,0,0.646-0.336,0.646-1.148c0-0.813-0.197-1.144-0.646-1.144
		C445.994,210.403,445.8,210.733,445.8,211.546z"/>
</g>
<g>
	<polygon fill="none" points="448.237,179.006 429.514,179.006 429.514,169.342 448.237,169.342 448.237,175.698 	"/>
	<path fill="#575756" d="M441.664,178.198l0.347-0.631c0.204,0.147,0.476,0.229,0.749,0.229c0.571,0,0.846-0.361,0.836-0.945
		c-0.168,0.238-0.454,0.381-0.851,0.381c-0.703,0-1.152-0.457-1.152-1.148c0-0.752,0.53-1.229,1.335-1.229
		c0.958,0,1.539,0.676,1.539,1.769c0,1.133-0.646,1.869-1.649,1.869C442.418,178.492,441.965,178.38,441.664,178.198z
		 M443.499,176.074c0-0.265-0.168-0.498-0.535-0.498c-0.326,0-0.53,0.183-0.53,0.513c0,0.306,0.188,0.483,0.517,0.483
		C443.3,176.572,443.499,176.363,443.499,176.074z"/>
	<path fill="#575756" d="M448.027,176.673c0,1.163-0.565,1.809-1.575,1.809c-1.021,0-1.585-0.646-1.585-1.809
		c0-1.159,0.564-1.804,1.585-1.804C447.462,174.87,448.027,175.514,448.027,176.673z M445.8,176.673
		c0,0.812,0.194,1.148,0.652,1.148c0.449,0,0.646-0.336,0.646-1.148c0-0.813-0.197-1.144-0.646-1.144
		C445.994,175.53,445.8,175.86,445.8,176.673z"/>
</g>
</svg>
