<?xml version="1.0" encoding="utf-8"?>
<!-- Generator: Adobe Illustrator 16.0.0, SVG Export Plug-In . SVG Version: 6.00 Build 0)  -->
<!DOCTYPE svg PUBLIC "-//W3C//DTD SVG 1.1//EN" "http://www.w3.org/Graphics/SVG/1.1/DTD/svg11.dtd">
<svg version="1.1" id="Calque_1" xmlns="http://www.w3.org/2000/svg" xmlns:xlink="http://www.w3.org/1999/xlink" x="0px" y="0px"
	 width="1279.141px" height="799.756px" viewBox="0 0 1279.141 799.756" enable-background="new 0 0 1279.141 799.756"
	 xml:space="preserve">
<rect x="419.59" y="96.837" fill="none" width="410.979" height="24.158"/>
<polygon fill="#8AC3CA" points="201.498,541.585 222.243,536.722 303.334,540.007 "/>
<polygon fill="#8AC3CA" points="437.887,757.394 438.826,749.409 539.724,755.815 "/>
<polygon fill="#8AC3CA" points="1060.867,754.331 1061.875,745.757 1245.762,754.622 "/>
<polygon fill="#8AC3CA" points="308.387,741.144 309.326,733.159 410.224,739.565 "/>
<polygon fill="#8AC3CA" points="126.457,518.8 135.947,516.575 173.044,518.079 "/>
<polygon fill="#8AC3CA" points="86.826,512.579 92.854,511.167 116.413,512.122 "/>
<polygon fill="#8AC3CA" points="62.617,509.538 66.659,508.591 82.456,509.231 "/>
<polygon fill="#8AC3CA" points="49.376,505.737 52.427,505.022 64.352,505.505 "/>
<g>
	<path fill="#E17B3A" d="M22.715,502.616c-3.129,0-5.675-2.547-5.675-5.676c0-3.131,2.546-5.678,5.675-5.678
		c3.129,0,5.675,2.547,5.675,5.678C28.39,500.069,25.845,502.616,22.715,502.616z M22.715,492.526c-2.434,0-4.414,1.979-4.414,4.414
		c0,2.434,1.98,4.412,4.414,4.412s4.414-1.979,4.414-4.412C27.129,494.506,25.149,492.526,22.715,492.526z"/>
	<path fill="#E17B3A" d="M25.837,502.931c-3.355,0-6.085-2.842-6.085-6.338c0-3.494,2.729-6.336,6.085-6.336
		c3.355,0,6.085,2.842,6.085,6.336C31.922,500.089,29.192,502.931,25.837,502.931z M25.837,491.519c-2.66,0-4.824,2.277-4.824,5.074
		c0,2.801,2.164,5.076,4.824,5.076s4.824-2.275,4.824-5.076C30.661,493.796,28.497,491.519,25.837,491.519z"/>
	<path fill="#E17B3A" d="M29.368,503.72c-3.774,0-6.844-3.195-6.844-7.127c0-3.928,3.07-7.125,6.844-7.125
		c3.773,0,6.844,3.197,6.844,7.125C36.212,500.522,33.142,503.72,29.368,503.72z M29.368,490.981c-2.939,0-5.331,2.518-5.331,5.609
		c0,3.096,2.391,5.613,5.331,5.613c2.939,0,5.331-2.52,5.331-5.613C34.699,493.499,32.307,490.981,29.368,490.981z"/>
	<path fill="#E17B3A" d="M34.691,503.72c-4.206,0-7.627-3.562-7.627-7.943c0-4.383,3.421-7.945,7.627-7.945s7.627,3.562,7.627,7.945
		C42.318,500.156,38.897,503.72,34.691,503.72z M34.691,489.343c-3.371,0-6.114,2.885-6.114,6.434c0,3.547,2.743,6.432,6.114,6.432
		c3.372,0,6.114-2.885,6.114-6.432C40.805,492.228,38.063,489.343,34.691,489.343z"/>
	<path fill="#E17B3A" d="M41.25,504.665c-4.976,0-9.025-4.215-9.025-9.396c0-5.18,4.049-9.395,9.025-9.395
		c4.977,0,9.025,4.215,9.025,9.395C50.275,500.45,46.226,504.665,41.25,504.665z M41.25,487.892c-3.864,0-7.007,3.312-7.007,7.377
		c0,4.068,3.143,7.381,7.007,7.381s7.007-3.312,7.007-7.381C48.257,491.202,45.113,487.892,41.25,487.892z"/>
	<path fill="#E17B3A" d="M49.825,505.737c-5.807,0-10.531-4.922-10.531-10.975c0-6.049,4.724-10.973,10.531-10.973
		c5.808,0,10.532,4.924,10.532,10.973C60.357,500.815,55.633,505.737,49.825,505.737z M49.825,485.812
		c-4.694,0-8.514,4.016-8.514,8.951c0,4.938,3.819,8.955,8.514,8.955c4.695,0,8.515-4.018,8.515-8.955
		C58.34,489.828,54.521,485.812,49.825,485.812z"/>
	<path fill="#E17B3A" d="M62.941,509.583c-7.84,0-14.219-6.646-14.219-14.818c0-8.17,6.379-14.816,14.219-14.816
		c7.841,0,14.22,6.646,14.22,14.816C77.161,502.938,70.782,509.583,62.941,509.583z M62.941,482.47
		c-6.45,0-11.697,5.518-11.697,12.295c0,6.781,5.247,12.299,11.697,12.299c6.45,0,11.697-5.518,11.697-12.299
		C74.639,487.985,69.392,482.47,62.941,482.47z"/>
	<path fill="#E17B3A" d="M87.194,512.579c-10.184,0-18.469-8.643-18.469-19.264c0-10.623,8.285-19.268,18.469-19.268
		s18.47,8.645,18.47,19.268C105.664,503.938,97.378,512.579,87.194,512.579z M87.194,476.571c-8.793,0-15.947,7.512-15.947,16.744
		c0,9.229,7.153,16.74,15.947,16.74s15.947-7.512,15.947-16.74C103.141,484.083,95.987,476.571,87.194,476.571z"/>
	<path fill="#E2853C" d="M127.687,518.8c-15.299,0-27.746-12.443-27.746-27.744c0-15.299,12.447-27.746,27.746-27.746
		s27.746,12.447,27.746,27.746C155.433,506.355,142.985,518.8,127.687,518.8z M127.687,466.337
		c-13.63,0-24.719,11.088-24.719,24.719c0,13.629,11.089,24.721,24.719,24.721s24.719-11.092,24.719-24.721
		C152.405,477.425,141.316,466.337,127.687,466.337z"/>
	<path fill="#E17B3A" d="M201.675,541.585c-30.181,0-54.735-24.553-54.735-54.734c0-30.18,24.554-54.732,54.735-54.732
		c30.181,0,54.734,24.555,54.734,54.732C256.409,517.032,231.855,541.585,201.675,541.585z M201.675,435.647
		c-28.234,0-51.204,22.971-51.204,51.201c0,28.234,22.97,51.203,51.204,51.203c28.233,0,51.203-22.969,51.203-51.203
		C252.878,458.618,229.908,435.647,201.675,435.647z"/>
</g>
<g>
	<polygon fill="#ECECEC" points="614.327,236.896 579.608,236.896 579.608,201.522 614.327,197.375 	"/>
	<polygon fill="#D9D9D9" points="614.327,236.896 621.458,236.896 621.458,201.522 614.327,197.375 	"/>
	<polygon fill="#C6C6C5" points="621.458,412.218 572.122,411.765 572.122,231.17 621.458,227.549 	"/>
	<polygon fill="#B1B1B1" points="621.458,412.218 644.09,411.765 644.09,237.054 621.458,227.549 	"/>
	<polygon fill="#D9D9D9" points="615.643,483.761 553.628,483.192 553.628,256.188 615.643,251.637 	"/>
	<polygon fill="#C6C6C5" points="615.643,483.761 644.09,483.192 644.09,263.584 615.643,251.636 	"/>
	<polygon fill="#ECECEC" points="619.493,566.058 614.095,568.392 539.724,558.724 539.724,268.66 619.493,262.807 	"/>
	<polygon fill="#B1B1B1" points="619.493,566.058 656.086,550.265 656.086,278.174 619.493,262.806 	"/>
	<polygon fill="#B1B1B1" points="609.749,263.521 549.189,267.965 549.189,559.954 609.749,567.827 609.692,558.185 
		609.749,558.185 	"/>
</g>
<polygon fill="#8AC3CA" points="656.086,550.265 614.095,568.392 892.461,568.392 "/>
<g>
	<polygon fill="#F0842C" points="1068.97,754.622 1063.312,733.7 1079.76,712.646 1090.512,714.14 1076.012,733.919 
		1074.762,741.39 1073.575,754.622 	"/>
	<polyline fill="#F49A2E" points="1079.095,683.608 1067.747,696.438 1055.509,733.546 1055.509,754.622 1063.403,754.622 
		1070.905,734.86 1088.011,713.255 1093.604,713.216 1102.747,721.44 1112.551,742.823 1115.312,754.622 1122.42,754.622 
		1122.42,736.899 1124.591,736.112 1129.327,754.622 1134.459,754.622 1134.459,733.743 1119.656,697.425 1106.564,683.608 	"/>
	<polygon fill="#F0842C" points="1054.074,514.054 1040.395,512.565 1046.04,505.97 1061.151,507.608 	"/>
	<path fill="#F0842C" d="M1215.984,533.052c-0.052,0-0.102-0.004-0.151-0.008l-381.905-41.553c-0.758-0.082-1.306-0.766-1.223-1.523
		c0.082-0.758,0.76-1.307,1.521-1.223l381.904,41.551c0.758,0.082,1.306,0.764,1.224,1.523
		C1217.279,532.526,1216.68,533.052,1215.984,533.052z"/>
	<path fill="#F0842C" d="M1201.304,516.366c-0.136,0-0.273-0.021-0.413-0.064l-106.479-33.389l-26.625-3.916l-31.684,0.508v31.389
		c0,0.766-0.619,1.383-1.385,1.383c-0.763,0-1.381-0.617-1.381-1.383V481.13l-33.042,28.029c-0.411,0.348-0.985,0.428-1.475,0.201
		c-0.489-0.229-0.802-0.719-0.802-1.258v-26.746l-34.38,23.904c-0.423,0.295-0.973,0.328-1.428,0.092
		c-0.457-0.238-0.742-0.711-0.742-1.227v-22.461l-34.773,19.656c-0.427,0.239-0.946,0.236-1.37-0.006
		c-0.424-0.244-0.688-0.691-0.691-1.184l-0.205-18.215l-38.123,15.109c-0.426,0.168-0.904,0.113-1.283-0.145
		c-0.379-0.256-0.605-0.686-0.605-1.143V482.57l-26.824,10.666c-0.502,0.197-1.072,0.088-1.464-0.283l-10.902-10.385l-6.811,0.105
		c-0.007,0-0.015,0-0.021,0c-0.708,0-1.306-0.535-1.374-1.242l-0.79-7.896c-0.06-0.574,0.248-1.123,0.768-1.377
		c0.521-0.254,1.143-0.158,1.561,0.24l7.756,7.385l39.456-0.633c0.006,0,0.012,0,0.017,0l39.98-0.645l0,0l37.051-0.594
		c0.011,0,0.021,0,0.033,0l71.85-1.154c0,0,0.001,0,0.002,0l33.154-0.532c0.072-0.003,0.147,0.005,0.223,0.017l26.844,3.947
		c0.072,0.01,0.146,0.025,0.213,0.049l106.584,33.422c0.729,0.229,1.134,1.004,0.905,1.731
		C1202.438,515.987,1201.892,516.366,1201.304,516.366z M1000.786,480.073v25.049l30.098-25.533L1000.786,480.073z M964.237,480.659
		v20.826l30.655-21.318L964.237,480.659z M927.188,481.255l0.188,16.514l30.075-17L927.188,481.255z M887.182,481.897v11.812
		l31.067-12.312L887.182,481.897z M849.166,482.507l8.229,7.838l20.89-8.305L849.166,482.507z M839.351,476.976l0.292,2.924
		l2.73-0.046L839.351,476.976z"/>
	<path fill="#F0842C" d="M1197.917,531.858c-0.368,0-0.734-0.146-1.006-0.436l-19.771-20.973v16.842
		c0,0.566-0.349,1.078-0.878,1.285c-0.524,0.207-1.13,0.069-1.517-0.347l-24.121-25.964l0.746,21.779
		c0.021,0.592-0.339,1.129-0.895,1.34c-0.555,0.209-1.179,0.043-1.556-0.416l-25.239-30.646l1.881,27.262
		c0.043,0.604-0.313,1.164-0.88,1.383c-0.562,0.219-1.204,0.045-1.581-0.43l-30.777-38.805c-0.476-0.6-0.374-1.469,0.224-1.939
		c0.598-0.475,1.467-0.375,1.941,0.223l28.012,35.316l-1.87-27.123c-0.042-0.598,0.309-1.156,0.866-1.377
		c0.56-0.223,1.194-0.059,1.578,0.404l25.395,30.838l-0.734-21.412c-0.018-0.574,0.322-1.104,0.856-1.324
		c0.531-0.219,1.146-0.084,1.538,0.338l24.247,26.1v-16.805c0-0.564,0.345-1.075,0.871-1.285c0.526-0.209,1.127-0.072,1.515,0.337
		l22.159,23.507c0.524,0.555,0.498,1.43-0.058,1.952C1198.597,531.735,1198.256,531.858,1197.917,531.858z"/>
	<polygon fill="#F49A2E" points="1208.993,524.097 1224.195,524.854 1215.982,531.669 1199.179,529.841 	"/>
	<rect x="1208.08" y="508.634" fill="#F49A2E" width="16.115" height="16.22"/>
	<polygon fill="#F0842C" points="1197.915,530.479 1208.08,524.854 1208.08,508.634 1197.915,514.261 	"/>
	<path fill="#F49A2E" d="M1223.707,526.604c-0.049,0-0.1-0.003-0.149-0.009l-390.192-42.277c-0.437-0.048-0.823-0.301-1.044-0.678
		c-0.224-0.379-0.25-0.84-0.077-1.242l4.093-9.537c0.214-0.498,0.701-0.826,1.243-0.836l236.853-4.477
		c0.062-0.002,0.118,0.002,0.179,0.008l26.315,2.896c0.082,0.01,0.164,0.023,0.243,0.049l123.422,36.812
		c0.73,0.217,1.148,0.984,0.93,1.719c-0.217,0.729-0.985,1.146-1.719,0.93L1100.5,473.185l-26.104-2.869l-235.87,4.457l-3.005,7
		l388.337,42.078c0.758,0.082,1.306,0.766,1.224,1.521C1225.004,526.077,1224.405,526.604,1223.707,526.604z"/>
	<path fill="#F49A2E" d="M1066.827,516.364c-0.015,0-0.026,0-0.04,0c-0.763-0.021-1.363-0.656-1.343-1.42l1.051-37.369
		c0.009-0.287,0.105-0.566,0.281-0.795l6.579-8.688c0.342-0.449,0.924-0.646,1.467-0.498c0.545,0.15,0.942,0.615,1.007,1.18
		l4.475,39.704c0.086,0.761-0.459,1.44-1.218,1.526c-0.756,0.086-1.439-0.459-1.526-1.217l-4.089-36.271l-4.226,5.576l-1.038,36.929
		C1068.188,515.771,1067.571,516.364,1066.827,516.364z"/>
	<path fill="#F49A2E" d="M1106.299,512.274c-0.678,0-1.27-0.498-1.365-1.189l-4.818-34.332l-5.326,6.611v26.354
		c0,0.766-0.619,1.383-1.381,1.383c-0.764,0-1.382-0.617-1.382-1.383v-26.842c0-0.316,0.105-0.621,0.306-0.867l7.632-9.475
		c0.346-0.429,0.912-0.611,1.444-0.465c0.529,0.146,0.924,0.594,0.999,1.141l5.265,37.49c0.104,0.756-0.422,1.453-1.177,1.561
		C1106.428,512.271,1106.364,512.274,1106.299,512.274z"/>
	<path fill="#F49A2E" d="M1040.988,506.804c-0.168,0-0.338-0.027-0.5-0.094c-0.531-0.207-0.881-0.717-0.881-1.287v-32.932
		l-36.196,29.832c-0.425,0.35-1.017,0.414-1.506,0.164c-0.491-0.25-0.785-0.77-0.752-1.318l1.748-28.168l-36.805,25.359
		c-0.435,0.299-1,0.324-1.461,0.064c-0.46-0.258-0.73-0.756-0.702-1.283l1.37-23.799l-38.861,20.814
		c-0.431,0.229-0.945,0.217-1.362-0.033s-0.672-0.701-0.672-1.186v-19.033l-34.93,16.287c-0.429,0.199-0.929,0.168-1.325-0.086
		c-0.398-0.255-0.642-0.693-0.642-1.166v-14.45l-29.988,12.271c-0.43,0.175-0.912,0.125-1.295-0.131
		c-0.384-0.256-0.611-0.688-0.611-1.146v-10.031l-21.585,8.766c-0.707,0.287-1.514-0.053-1.8-0.76
		c-0.288-0.707,0.053-1.514,0.76-1.801l23.486-9.537c0.427-0.174,0.908-0.123,1.291,0.133c0.383,0.258,0.608,0.688,0.608,1.146
		v10.023l29.992-12.271c0.426-0.175,0.911-0.125,1.294,0.133c0.381,0.256,0.611,0.686,0.611,1.146v14.342l34.928-16.289
		c0.43-0.199,0.929-0.168,1.328,0.086c0.396,0.254,0.639,0.691,0.639,1.166v18.896l39.003-20.891
		c0.439-0.234,0.974-0.215,1.396,0.055c0.421,0.271,0.663,0.744,0.636,1.244l-1.35,23.44l36.813-25.368
		c0.437-0.303,1.004-0.326,1.464-0.064c0.46,0.26,0.732,0.76,0.698,1.287l-1.726,27.83l36.002-29.672
		c0.412-0.34,0.982-0.412,1.469-0.186c0.482,0.229,0.792,0.716,0.792,1.25v32.312l31.065-33.877
		c0.518-0.562,1.392-0.602,1.952-0.084c0.562,0.516,0.602,1.391,0.084,1.951l-33.467,36.492
		C1041.74,506.647,1041.369,506.804,1040.988,506.804z"/>
	<path fill="#F49A2E" d="M1208.994,525.479c-0.391,0-0.773-0.166-1.042-0.476l-21.17-24.283l-0.205,20.346
		c-0.006,0.577-0.374,1.094-0.922,1.286c-0.546,0.194-1.156,0.024-1.524-0.425l-23.875-28.93v25.199
		c0,0.596-0.383,1.123-0.947,1.311c-0.564,0.188-1.187-0.008-1.542-0.482l-25.345-34.008v29.969c0,0.604-0.391,1.137-0.965,1.316
		c-0.574,0.183-1.201-0.027-1.547-0.523l-30.268-43.158c-0.438-0.625-0.287-1.486,0.338-1.926c0.624-0.438,1.484-0.287,1.925,0.338
		l27.754,39.576v-29.758c0-0.596,0.382-1.122,0.947-1.311c0.563-0.188,1.188,0.008,1.543,0.486l25.342,34.004v-24.877
		c0-0.584,0.365-1.104,0.915-1.303c0.55-0.195,1.162-0.027,1.532,0.421l23.913,28.979l0.203-20.189
		c0.008-0.572,0.365-1.084,0.903-1.279c0.537-0.201,1.145-0.045,1.521,0.387l20.957,24.039l-0.734-16.316
		c-0.035-0.762,0.557-1.404,1.318-1.439c0.751-0.033,1.408,0.557,1.439,1.316l0.913,20.27c0.026,0.586-0.319,1.125-0.865,1.346
		C1209.341,525.446,1209.167,525.479,1208.994,525.479z"/>
	<polygon fill="#F49A2E" points="1109.723,590.776 1082.354,590.776 1078.931,508.634 1106.301,508.634 	"/>
	<polygon fill="#F0842C" points="1066.826,516.743 1069.462,598.146 1082.354,590.776 1078.931,508.634 	"/>
	<polygon fill="#F49A2E" points="1108.012,549.706 1143.938,549.706 1142.884,519.556 1106.564,514.983 	"/>
	<polygon fill="#F49A2E" points="848.263,502.876 832.327,502.876 832.327,483.005 848.263,484.519 	"/>
	<path fill="#F49A2E" d="M885.799,497.128c-0.189,0-0.386-0.041-0.57-0.125c-0.694-0.316-1.003-1.135-0.686-1.83l3.095-6.803
		c0.316-0.695,1.139-1,1.829-0.688c0.695,0.316,1.002,1.139,0.688,1.83l-3.098,6.805
		C886.826,496.827,886.324,497.128,885.799,497.128z"/>
	<path fill="#F49A2E" d="M857.082,493.337c-0.755,0-1.371-0.604-1.381-1.363l-0.084-6.469c-0.01-0.764,0.601-1.391,1.364-1.398
		c0.764-0.025,1.389,0.602,1.396,1.361l0.084,6.473c0.011,0.764-0.601,1.389-1.363,1.396
		C857.094,493.337,857.089,493.337,857.082,493.337z"/>
	<line fill="none" x1="925.791" y1="492.94" x2="926.019" y2="500.12"/>
	<path fill="#F49A2E" d="M962.854,504.786c-0.17,0-0.343-0.031-0.511-0.098c-0.709-0.283-1.054-1.088-0.771-1.797l2.46-6.182
		c0.281-0.709,1.087-1.055,1.796-0.771c0.708,0.279,1.054,1.086,0.771,1.795l-2.459,6.18
		C963.922,504.456,963.403,504.786,962.854,504.786z"/>
	<path fill="#F49A2E" d="M999.403,509.487c-0.192,0-0.389-0.039-0.573-0.125c-0.694-0.318-1-1.139-0.684-1.832l3.129-6.85
		c0.315-0.693,1.137-1,1.83-0.684c0.693,0.318,1,1.137,0.684,1.832l-3.129,6.85C1000.429,509.188,999.927,509.487,999.403,509.487z"
		/>
	<path fill="#F49A2E" d="M1034.722,512.274c-0.385,0-0.768-0.158-1.041-0.475c-0.502-0.574-0.44-1.447,0.132-1.949l6.27-5.471
		c0.574-0.5,1.448-0.443,1.949,0.131c0.502,0.576,0.441,1.449-0.132,1.951l-6.269,5.471
		C1035.368,512.163,1035.044,512.274,1034.722,512.274z"/>
	<circle fill="#F0842C" cx="1047.746" cy="526.562" r="3.681"/>
	<path fill="#F49A2E" d="M1044.064,526.233c-0.109,0-0.197-0.09-0.197-0.197v-15.145c0-0.107,0.088-0.195,0.197-0.195
		c0.108,0,0.196,0.088,0.196,0.195v15.145C1044.263,526.146,1044.175,526.233,1044.064,526.233z"/>
	<path fill="#F49A2E" d="M1053.796,524.261c-0.108,0-0.196-0.088-0.196-0.198v-14.05c0-0.107,0.088-0.195,0.196-0.195
		c0.109,0,0.197,0.088,0.197,0.195v14.05C1053.993,524.173,1053.905,524.261,1053.796,524.261z"/>
	<path fill="#F49A2E" d="M1046.622,525.419c-0.108,0-0.196-0.09-0.196-0.197v-13.396c0-0.109,0.088-0.197,0.196-0.197
		s0.197,0.088,0.197,0.197v13.396C1046.819,525.329,1046.73,525.419,1046.622,525.419z"/>
	<path fill="#F49A2E" d="M1051.172,525.419c-0.109,0-0.197-0.09-0.197-0.197v-13.396c0-0.109,0.088-0.197,0.197-0.197
		s0.197,0.088,0.197,0.197v13.396C1051.369,525.329,1051.281,525.419,1051.172,525.419z"/>
	<polygon fill="#F49A2E" points="1082.354,590.776 1092.122,622.226 1106.564,622.226 1109.723,590.776 	"/>
	<polygon fill="#F0842C" points="1092.83,622.226 1079.095,622.226 1069.462,598.146 1082.354,590.776 	"/>
	<rect x="1079.095" y="622.226" fill="#F49A2E" width="27.473" height="61.385"/>
	<polygon fill="#F0842C" points="1130.907,559.591 1108.424,559.591 1108.012,549.706 1143.938,549.706 	"/>
	<circle fill="#F49A2E" cx="1050.115" cy="524.062" r="3.681"/>
	<polygon fill="#F0842C" points="850.73,502.876 848.263,502.876 848.263,484.519 850.533,487.175 	"/>
	<polygon fill="#F0842C" points="1093.604,683.608 1093.604,713.216 1108.209,734.532 1112.944,754.622 1115.709,754.622 
		1115.709,731.769 1103.669,694.466 	"/>
	<polygon fill="#F0842C" points="1079.095,683.608 1084.983,683.608 1071.693,697.358 1058.141,733.808 1056.824,754.622 
		1055.246,754.622 1055.771,733.546 1067.088,697.229 	"/>
	<polygon fill="#F0842C" points="1106.564,684.202 1113.274,695.255 1121.433,731.704 1124.591,735.521 1128.934,753.81 
		1134.195,754.622 1133.406,732.757 1119.854,696.966 	"/>
	<polyline fill="#F49A2E" points="1088.011,713.255 1072.221,735.278 1073.668,754.622 1078.011,754.622 1079.062,734.884 
		1093.604,713.216 	"/>
	<path fill="#F49A2E" d="M1080.641,753.546"/>
</g>
<polygon display="none" fill="#CA4A3F" points="866.178,4047.915 865.46,4047.021 354.947,3962.938 49.805,3772.411 
	182.261,3221.753 1135.441,3185.839 1138.117,3185.737 1196.816,2412.104 1197.041,2409.15 220.024,2322.105 118.758,1576.011 
	1210.703,1436.899 1215.243,1436.321 901.594,909.448 1028.944,655.89 1029.262,655.89 1028.947,655.884 1029.626,654.532 
	953.75,654.532 409.417,644.747 -1.598,501.913 -1.598,525.542 -1.598,531.829 408.465,660.396 408.904,660.532 1019.898,660.532 
	895.495,908.224 894.757,909.692 1205.405,1431.526 115,1570.442 112,1570.823 214.401,2325.284 214.723,2327.657 1190.61,2414.604 
	1132.539,3179.944 179.763,3215.843 177.491,3215.929 42.96,3775.212 352.278,3968.347 352.788,3968.665 862.224,4052.571 
	1276.066,4566.271 1280.738,4562.509 "/>
<g>
	<g>
		<path fill="#324C5E" d="M437.361,757.394l-19.568-2.4l-9.766-61.27l-67.352,3.111l-13.858-1.396l-18.143,46.154l-28.195-3.461
			l10.401-51.355l-16.914-52.533l-6.553,39.528l1.106,6.591l-2.417,13.762l-1.326-0.148l-2.884-15.125l2.974-5.777l4.905-45.465
			l38.444-35.869l0.29,0.034l120.491,14.704l2.339,1.906l16.74-13.828l43.316,28.05l0.077,0.294l20.619,78.041L490.6,749.874
			l-8.176-3.496l1.097-3.533l16.77-42.557l-22.398-19.479l-1.813-3.855v8.141l-14.873-12.584l-6.661,4.312L437.361,757.394z
			 M418.94,753.782l17.324,2.127l17.061-80.002l7.854-5.086l13.551,11.463v-8.357l1.277-0.145l2.951,6.268l22.954,19.959
			l-17.11,43.42l-0.695,2.25l5.725,2.451l20.839-47.459l-20.419-77.287l-41.942-27.16l-16.836,13.904l-2.893-2.354l-119.78-14.619
			l-37.731,35.203l-4.628,42.891l6.635-40.027l1.305,0.057l17.896,55.58l-0.035,0.17l-10.118,49.955l25.619,3.146l18.135-46.137
			l14.674,1.487l68.592-3.177L418.94,753.782z M263.302,679.206l2.094,10.979l1.755-9.994l-1.071-6.385L263.302,679.206z"/>
		<polygon fill="#324C5E" points="436.093,605.394 431.402,609.255 428.786,607.124 308.505,592.444 270.418,627.981 
			265.524,673.339 262.597,679.026 265.438,693.927 267.834,680.274 266.729,673.688 273.737,631.413 291.576,686.815 
			281.299,737.558 308.207,740.86 326.345,694.716 340.562,696.157 408.583,693.015 418.367,754.386 436.812,756.651 
			453.933,676.362 461.19,671.663 475.402,683.688 475.402,674.011 478.424,680.429 501.1,700.146 484.167,743.114 483.264,746.026 
			490.214,749.001 511.378,700.804 490.82,622.993 448.19,595.39 		"/>
	</g>
	<polygon fill="#324C5E" points="293.668,531.55 402.428,574.649 433.884,548.767 	"/>
	<polygon fill="#324C5E" points="262.597,563.003 293.668,582.116 303.108,568.858 	"/>
	<polygon fill="#324C5E" points="416.389,603.558 415.688,603.47 415.688,589.024 416.389,589.11 	"/>
	<polygon fill="#324C5E" points="404.917,602.149 404.215,602.062 404.215,587.616 404.917,587.702 	"/>
	<polygon fill="#324C5E" points="393.445,600.741 392.743,600.653 392.743,586.208 393.445,586.294 	"/>
	<polygon fill="#324C5E" points="382.822,599.435 382.121,599.351 382.121,584.903 382.822,584.989 	"/>
	<polygon fill="#324C5E" points="371.35,598.026 370.648,597.94 370.648,583.495 371.35,583.581 	"/>
	<polygon fill="#324C5E" points="359.878,596.618 359.176,596.532 359.176,582.087 359.878,582.173 	"/>
	<polygon fill="#324C5E" points="348.405,595.21 347.704,595.124 347.704,580.679 348.405,580.763 	"/>
	<polygon fill="#324C5E" points="336.933,593.802 336.231,593.714 336.231,579.269 336.933,579.354 	"/>
	<path fill="#324C5E" d="M295.935,600.665"/>
	<polygon fill="#324C5E" points="292.319,600.222 291.617,600.134 291.617,585.688 292.319,585.774 	"/>
	<polygon fill="#324C5E" points="281.839,598.933 281.137,598.849 281.137,584.401 281.839,584.487 	"/>
	<polygon fill="#324C5E" points="325.461,592.394 324.759,592.306 324.759,577.86 325.461,577.946 	"/>
	<polygon fill="#324C5E" points="315.717,591.325 293.341,531.638 293.995,531.46 316.371,591.146 	"/>
	<polygon fill="#324C5E" points="424.881,604.657 424.189,604.458 433.538,548.667 434.23,548.864 	"/>
	<polygon fill="#324C5E" points="297.632,601.396 274.688,598.407 274.693,597.704 297.638,600.694 	"/>
	<polygon fill="#324C5E" points="274.36,598.136 262.267,563.083 262.927,562.925 275.021,597.979 	"/>
	<polygon fill="#324C5E" points="297.981,601.146 297.289,600.946 302.762,568.759 303.455,568.958 	"/>
</g>
<g>
	<path fill="#E0AF57" d="M181.058,75.154v7.132h10.945v2.387h-10.945v7.441h12.65v2.356h-15.131V72.767h14.728v2.387H181.058z
		 M186.731,70.069h-2.325l3.721-4.217l2.449,1.179L186.731,70.069z"/>
	<path fill="#E0AF57" d="M204.463,94.471l-8.806-21.704h2.667l7.472,18.821l7.504-18.821h2.604l-8.868,21.704H204.463z"/>
	<path fill="#E0AF57" d="M239.898,83.619c0,6.108-5.022,10.976-11.348,10.976c-6.356,0-11.379-4.868-11.379-10.976
		c0-6.139,5.023-10.914,11.379-10.914C234.876,72.705,239.898,77.51,239.898,83.619z M219.683,83.619
		c0,4.775,4.031,8.589,8.868,8.589s8.806-3.814,8.806-8.589s-3.969-8.558-8.806-8.558S219.683,78.844,219.683,83.619z"/>
	<path fill="#E0AF57" d="M256.42,92.114v2.356h-12V72.767h2.48v19.348H256.42z"/>
	<path fill="#E0AF57" d="M278.183,85.541c0,5.643-3.411,9.054-9.085,9.054c-5.705,0-9.146-3.411-9.146-9.054V72.767h2.48v12.774
		c0,4.217,2.542,6.667,6.666,6.667c4.124,0,6.604-2.45,6.604-6.667V72.767h2.48V85.541z"/>
	<path fill="#E0AF57" d="M290.859,75.154v19.317h-2.48V75.154h-7.069v-2.387h16.65v2.387H290.859z"/>
	<path fill="#E0AF57" d="M301.553,94.471V72.767h2.48v21.704H301.553z"/>
	<path fill="#E0AF57" d="M331.285,83.619c0,6.108-5.022,10.976-11.348,10.976c-6.356,0-11.379-4.868-11.379-10.976
		c0-6.139,5.023-10.914,11.379-10.914C326.263,72.705,331.285,77.51,331.285,83.619z M311.069,83.619
		c0,4.775,4.031,8.589,8.868,8.589s8.806-3.814,8.806-8.589s-3.969-8.558-8.806-8.558S311.069,78.844,311.069,83.619z"/>
	<path fill="#E0AF57" d="M351.31,94.471l-13.022-17.425v17.425h-2.48V72.767h2.574l13.022,17.457V72.767h2.449v21.704H351.31z"/>
	<path fill="#E0AF57" d="M377.721,72.767c6.325,0,11.162,4.682,11.162,10.852s-4.868,10.852-11.255,10.852h-8.682V72.767H377.721z
		 M371.426,92.114h6.325c4.837,0,8.62-3.627,8.62-8.464c0-4.868-3.845-8.496-8.713-8.496h-6.232V92.114z"/>
	<path fill="#E0AF57" d="M395.885,75.154v7.132h10.945v2.387h-10.945v7.441h12.65v2.356h-15.131V72.767h14.728v2.387H395.885z"/>
	<path fill="#E0AF57" d="M434.078,92.114v2.356h-12V72.767h2.48v19.348H434.078z"/>
	<path fill="#E0AF57" d="M440.245,88.983l-2.419,5.488h-2.635l9.736-21.704h2.573l9.705,21.704h-2.697l-2.419-5.488H440.245z
		 M446.136,75.588l-4.837,11.007h9.736L446.136,75.588z"/>
	<path fill="#E0AF57" d="M477.26,72.767c5.364,0,8.464,2.667,8.464,7.287c0,4.806-3.101,7.565-8.464,7.565h-5.674v6.852h-2.48
		V72.767H477.26z M471.585,85.231h5.581c3.907,0,6.17-1.736,6.17-5.116c0-3.286-2.264-4.961-6.17-4.961h-5.581V85.231z"/>
	<path fill="#E0AF57" d="M510.524,83.619c0,6.108-5.022,10.976-11.348,10.976c-6.356,0-11.379-4.868-11.379-10.976
		c0-6.139,5.023-10.914,11.379-10.914C505.502,72.705,510.524,77.51,510.524,83.619z M490.309,83.619
		c0,4.775,4.031,8.589,8.868,8.589s8.806-3.814,8.806-8.589s-3.969-8.558-8.806-8.558S490.309,78.844,490.309,83.619z"/>
	<path fill="#E0AF57" d="M523.201,72.767c5.364,0,8.464,2.667,8.464,7.287c0,4.806-3.101,7.565-8.464,7.565h-5.674v6.852h-2.48
		V72.767H523.201z M517.527,85.231h5.581c3.907,0,6.17-1.736,6.17-5.116c0-3.286-2.264-4.961-6.17-4.961h-5.581V85.231z"/>
	<path fill="#E0AF57" d="M553.521,85.541c0,5.643-3.411,9.054-9.085,9.054c-5.705,0-9.146-3.411-9.146-9.054V72.767h2.48v12.774
		c0,4.217,2.542,6.667,6.666,6.667c4.124,0,6.604-2.45,6.604-6.667V72.767h2.48V85.541z"/>
	<path fill="#E0AF57" d="M571.592,92.114v2.356h-11.999V72.767h2.48v19.348H571.592z"/>
	<path fill="#E0AF57" d="M577.759,88.983l-2.419,5.488h-2.635l9.736-21.704h2.573l9.705,21.704h-2.697l-2.419-5.488H577.759z
		 M583.649,75.588l-4.837,11.007h9.736L583.649,75.588z"/>
	<path fill="#E0AF57" d="M607.83,87.556c-0.465,0.031-0.961,0.062-1.458,0.062h-5.767v6.852h-2.48V72.767h8.248
		c5.426,0,8.558,2.667,8.558,7.287c0,3.597-1.736,6.015-4.868,7.038l5.085,7.379h-2.822L607.83,87.556z M606.373,85.231
		c3.938,0,6.17-1.736,6.17-5.116c0-3.286-2.232-4.961-6.17-4.961h-5.767v10.077H606.373z"/>
	<path fill="#E0AF57" d="M620.538,94.471V72.767h2.48v21.704H620.538z"/>
	<path fill="#E0AF57" d="M636.193,75.154v19.317h-2.48V75.154h-7.069v-2.387h16.65v2.387H636.193z"/>
	<path fill="#E0AF57" d="M649.367,75.154v7.132h10.945v2.387h-10.945v7.441h12.65v2.356h-15.131V72.767h14.729v2.387H649.367z
		 M655.042,70.069h-2.325l3.721-4.217l2.449,1.179L655.042,70.069z"/>
	<path fill="#E0AF57" d="M684.336,72.767c6.325,0,11.162,4.682,11.162,10.852s-4.867,10.852-11.255,10.852h-8.682V72.767H684.336z
		 M678.042,92.114h6.325c4.837,0,8.619-3.627,8.619-8.464c0-4.868-3.844-8.496-8.712-8.496h-6.232V92.114z"/>
	<path fill="#E0AF57" d="M717.756,85.541c0,5.643-3.411,9.054-9.085,9.054c-5.705,0-9.147-3.411-9.147-9.054V72.767h2.48v12.774
		c0,4.217,2.543,6.667,6.667,6.667s6.604-2.45,6.604-6.667V72.767h2.48V85.541z"/>
	<path fill="#E0AF57" d="M751.979,94.471l-0.031-17.89l-7.907,15.596h-1.488l-7.875-15.596v17.89h-2.356V72.767h3.069l7.938,15.627
		l7.907-15.627h3.038v21.704H751.979z"/>
	<path fill="#E0AF57" d="M762.763,88.983l-2.418,5.488h-2.636l9.735-21.704h2.574l9.705,21.704h-2.698l-2.418-5.488H762.763z
		 M768.654,75.588l-4.837,11.007h9.735L768.654,75.588z"/>
	<path fill="#E0AF57" d="M792.834,87.556c-0.465,0.031-0.961,0.062-1.457,0.062h-5.767v6.852h-2.48V72.767h8.247
		c5.426,0,8.558,2.667,8.558,7.287c0,3.597-1.736,6.015-4.868,7.038l5.085,7.379h-2.821L792.834,87.556z M791.377,85.231
		c3.938,0,6.17-1.736,6.17-5.116c0-3.286-2.232-4.961-6.17-4.961h-5.767v10.077H791.377z"/>
	<path fill="#E0AF57" d="M807.434,88.983l-2.418,5.488h-2.636l9.736-21.704h2.573l9.704,21.704h-2.697l-2.418-5.488H807.434z
		 M813.325,75.588l-4.837,11.007h9.735L813.325,75.588z"/>
	<path fill="#E0AF57" d="M832.39,75.154v19.317h-2.48V75.154h-7.069v-2.387h16.65v2.387H832.39z"/>
	<path fill="#E0AF57" d="M858.648,94.471v-9.55h-13.085v9.55h-2.48V72.767h2.48v9.798h13.085v-9.798h2.48v21.704H858.648z"/>
	<path fill="#E0AF57" d="M888.378,83.619c0,6.108-5.023,10.976-11.349,10.976c-6.356,0-11.379-4.868-11.379-10.976
		c0-6.139,5.022-10.914,11.379-10.914C883.354,72.705,888.378,77.51,888.378,83.619z M868.162,83.619
		c0,4.775,4.03,8.589,8.867,8.589s8.806-3.814,8.806-8.589s-3.969-8.558-8.806-8.558S868.162,78.844,868.162,83.619z"/>
	<path fill="#E0AF57" d="M908.401,94.471L895.38,77.045v17.425h-2.48V72.767h2.573l13.022,17.457V72.767h2.449v21.704H908.401z"/>
	<path fill="#E0AF57" d="M934.812,72.767c6.325,0,11.162,4.682,11.162,10.852s-4.868,10.852-11.256,10.852h-8.682V72.767H934.812z
		 M928.517,92.114h6.326c4.836,0,8.619-3.627,8.619-8.464c0-4.868-3.845-8.496-8.713-8.496h-6.232V92.114z"/>
	<path fill="#E0AF57" d="M952.976,75.154v7.132h10.945v2.387h-10.945v7.441h12.65v2.356h-15.131V72.767h14.729v2.387H952.976z"/>
	<path fill="#E0AF57" d="M994.673,94.471l-13.023-17.425v17.425h-2.48V72.767h2.574l13.022,17.457V72.767h2.449v21.704H994.673z"/>
	<path fill="#E0AF57" d="M1005.705,88.983l-2.418,5.488h-2.636l9.736-21.704h2.573l9.704,21.704h-2.697l-2.418-5.488H1005.705z
		 M1011.597,75.588l-4.837,11.007h9.735L1011.597,75.588z"/>
	<path fill="#E0AF57" d="M1041.575,94.471l-13.023-17.425v17.425h-2.48V72.767h2.574l13.022,17.457V72.767h2.449v21.704H1041.575z"
		/>
	<path fill="#E0AF57" d="M1057.32,75.154v19.317h-2.48V75.154h-7.069v-2.387h16.65v2.387H1057.32z"/>
	<path fill="#E0AF57" d="M1070.495,75.154v7.132h10.944v2.387h-10.944v7.441h12.65v2.356h-15.131V72.767h14.728v2.387H1070.495z"/>
	<path fill="#E0AF57" d="M1101.527,74.689l-1.054,2.325c-1.954-1.302-4.248-1.829-5.984-1.829c-2.791,0-4.62,1.054-4.62,2.884
		c0,5.581,12.216,2.666,12.186,10.542c0,3.627-3.194,5.953-7.845,5.953c-3.162,0-6.264-1.364-8.31-3.318l1.116-2.232
		c2.016,1.954,4.775,3.07,7.225,3.07c3.131,0,5.085-1.271,5.085-3.349c0.03-5.705-12.186-2.667-12.186-10.449
		c0-3.411,3.008-5.612,7.503-5.612C1097.155,72.673,1099.729,73.48,1101.527,74.689z"/>
	<path fill="#E0AF57" d="M532.347,111.889l-1.054,2.325c-1.954-1.302-4.248-1.829-5.984-1.829c-2.791,0-4.62,1.054-4.62,2.884
		c0,5.581,12.216,2.666,12.186,10.542c0,3.627-3.194,5.953-7.845,5.953c-3.163,0-6.263-1.364-8.31-3.318l1.116-2.232
		c2.016,1.954,4.775,3.07,7.225,3.07c3.131,0,5.085-1.271,5.085-3.349c0.031-5.705-12.186-2.667-12.186-10.449
		c0-3.411,3.008-5.612,7.503-5.612C527.975,109.874,530.548,110.68,532.347,111.889z"/>
	<path fill="#E0AF57" d="M555.69,122.741c0,5.643-3.411,9.054-9.085,9.054c-5.705,0-9.146-3.411-9.146-9.054v-12.774h2.48v12.774
		c0,4.217,2.542,6.667,6.666,6.667c4.124,0,6.604-2.45,6.604-6.667v-12.774h2.48V122.741z"/>
	<path fill="#E0AF57" d="M571.468,124.756c-0.465,0.031-0.961,0.062-1.458,0.062h-5.767v6.852h-2.48v-21.704h8.248
		c5.426,0,8.558,2.667,8.558,7.287c0,3.597-1.736,6.015-4.868,7.038l5.085,7.379h-2.822L571.468,124.756z M570.01,122.431
		c3.938,0,6.17-1.736,6.17-5.116c0-3.286-2.232-4.961-6.17-4.961h-5.767v10.077H570.01z"/>
	<path fill="#E0AF57" d="M595.149,112.354v7.628h10.139v2.387h-10.139v9.302h-2.48v-21.704h13.798v2.387H595.149z"/>
	<path fill="#E0AF57" d="M611.238,126.183l-2.419,5.488h-2.635l9.736-21.704h2.573l9.705,21.704h-2.697l-2.419-5.488H611.238z
		 M617.129,112.789l-4.837,11.007h9.736L617.129,112.789z"/>
	<path fill="#E0AF57" d="M648.286,113.067l-1.488,1.891c-1.675-1.705-4.031-2.729-6.419-2.729c-4.898,0-8.836,3.783-8.836,8.558
		c0,4.744,3.938,8.558,8.836,8.558c2.388,0,4.713-0.992,6.419-2.604l1.519,1.706c-2.139,2.015-5.054,3.349-8.061,3.349
		c-6.264,0-11.225-4.868-11.225-11.007c0-6.077,5.023-10.883,11.317-10.883C643.325,109.905,646.209,111.114,648.286,113.067z"/>
	<path fill="#E0AF57" d="M655.258,112.354v7.132h10.945v2.387h-10.945v7.441h12.65v2.356h-15.131v-21.704h14.728v2.387H655.258z"/>
	<path fill="#E0AF57" d="M682.104,109.967c4.372,0,7.008,2.015,7.008,5.426c0,2.542-1.458,4.372-4,4.898
		c3.132,0.465,4.961,2.512,4.961,5.488c0,3.689-2.915,5.891-7.813,5.891h-9.302v-21.704H682.104z M675.438,119.331h6.542
		c2.915,0,4.62-1.271,4.62-3.535c0-2.202-1.705-3.442-4.62-3.442h-6.542V119.331z M675.438,129.314h6.542
		c3.535,0,5.581-1.395,5.581-3.875c0-2.356-2.046-3.752-5.581-3.752h-6.542V129.314z"/>
	<path fill="#E0AF57" d="M715.835,120.819c0,6.108-5.023,10.976-11.349,10.976c-6.355,0-11.379-4.868-11.379-10.976
		c0-6.139,5.023-10.914,11.379-10.914C710.812,109.905,715.835,114.71,715.835,120.819z M695.619,120.819
		c0,4.775,4.03,8.589,8.867,8.589s8.806-3.814,8.806-8.589s-3.969-8.558-8.806-8.558S695.619,116.044,695.619,120.819z"/>
	<path fill="#E0AF57" d="M740.511,120.819c0,6.108-5.023,10.976-11.349,10.976c-6.355,0-11.379-4.868-11.379-10.976
		c0-6.139,5.023-10.914,11.379-10.914C735.487,109.905,740.511,114.71,740.511,120.819z M720.295,120.819
		c0,4.775,4.03,8.589,8.867,8.589s8.806-3.814,8.806-8.589s-3.969-8.558-8.806-8.558S720.295,116.044,720.295,120.819z"/>
	<path fill="#E0AF57" d="M751.729,121.377l-4.217,4.62v5.674h-2.48v-21.704h2.48v12.496l11.658-12.496h2.945l-8.588,9.426
		l9.239,12.278h-3.038L751.729,121.377z"/>
</g>
</svg>
