<?xml version="1.0" encoding="utf-8"?>
<!-- Generator: Adobe Illustrator 16.0.0, SVG Export Plug-In . SVG Version: 6.00 Build 0)  -->
<!DOCTYPE svg PUBLIC "-//W3C//DTD SVG 1.1//EN" "http://www.w3.org/Graphics/SVG/1.1/DTD/svg11.dtd">
<svg version="1.1" id="Calque_1" xmlns="http://www.w3.org/2000/svg" xmlns:xlink="http://www.w3.org/1999/xlink" x="0px" y="0px"
	 width="1279.141px" height="799.756px" viewBox="0 0 1279.141 799.756" enable-background="new 0 0 1279.141 799.756"
	 xml:space="preserve">
<g>
	<path fill="#21A0A1" d="M320.423,469.912h-0.68l2.303-4.981h-2.606v0.815h-0.576v-1.431h3.886v0.532L320.423,469.912z"/>
	<path fill="#21A0A1" d="M324.24,464.931v1.575c0.288-0.048,0.688-0.08,0.943-0.08c1.175,0,1.927,0.696,1.927,1.655
		c0,1.119-0.776,1.847-1.975,1.847c-0.616,0-1.359-0.236-1.887-0.604l0.264-0.544c0.463,0.353,1.055,0.561,1.559,0.561
		c0.839,0,1.359-0.464,1.359-1.216c0-0.664-0.52-1.079-1.343-1.079c-0.368,0-1.04,0.056-1.439,0.136v-2.859h3.246v0.612
		L324.24,464.931L324.24,464.931z"/>
	<path fill="#21A0A1" d="M332.55,467.113c0,1.808-0.824,2.812-2.311,2.812c-1.487,0-2.311-1.007-2.311-2.812
		c0-1.81,0.824-2.814,2.311-2.814C331.726,464.299,332.55,465.307,332.55,467.113z M328.576,467.113
		c0,1.512,0.576,2.271,1.663,2.271c1.087,0,1.663-0.76,1.663-2.271c0-1.521-0.576-2.271-1.663-2.271
		C329.152,464.842,328.576,465.595,328.576,467.113z"/>
	<path fill="#21A0A1" d="M338.022,467.113c0,1.808-0.824,2.812-2.311,2.812c-1.487,0-2.311-1.007-2.311-2.812
		c0-1.81,0.823-2.814,2.311-2.814C337.199,464.299,338.022,465.307,338.022,467.113z M334.048,467.113
		c0,1.512,0.576,2.271,1.663,2.271s1.663-0.76,1.663-2.271c0-1.521-0.576-2.271-1.663-2.271S334.048,465.595,334.048,467.113z"/>
</g>
<g>
	<path fill="#8AC3CA" d="M266.15,410.114v-4.989h-1.136v-0.607h1.767v5.6L266.15,410.114L266.15,410.114z"/>
	<path fill="#8AC3CA" d="M269.118,410.114v-4.989h-1.136v-0.607h1.767v5.6L269.118,410.114L269.118,410.114z"/>
	<path fill="#8AC3CA" d="M278.051,407.315c0,1.808-0.824,2.812-2.311,2.812c-1.487,0-2.311-1.007-2.311-2.812
		c0-1.81,0.823-2.814,2.311-2.814C277.228,404.501,278.051,405.508,278.051,407.315z M274.077,407.315
		c0,1.512,0.576,2.271,1.663,2.271c1.087,0,1.663-0.76,1.663-2.271c0-1.521-0.576-2.271-1.663-2.271
		C274.653,405.044,274.077,405.796,274.077,407.315z"/>
	<path fill="#8AC3CA" d="M283.523,407.315c0,1.808-0.824,2.812-2.311,2.812c-1.487,0-2.311-1.007-2.311-2.812
		c0-1.81,0.823-2.814,2.311-2.814C282.7,404.501,283.523,405.508,283.523,407.315z M279.549,407.315
		c0,1.512,0.576,2.271,1.663,2.271s1.663-0.76,1.663-2.271c0-1.521-0.576-2.271-1.663-2.271S279.549,405.796,279.549,407.315z"/>
	<path fill="#8AC3CA" d="M288.995,407.315c0,1.808-0.824,2.812-2.311,2.812c-1.487,0-2.311-1.007-2.311-2.812
		c0-1.81,0.823-2.814,2.311-2.814C288.172,404.501,288.995,405.508,288.995,407.315z M285.021,407.315
		c0,1.512,0.576,2.271,1.663,2.271s1.663-0.76,1.663-2.271c0-1.521-0.576-2.271-1.663-2.271S285.021,405.796,285.021,407.315z"/>
</g>
<polygon display="none" fill="#CA4A3F" points="866.178,4047.915 865.46,4047.021 354.947,3962.938 49.805,3772.411 
	182.261,3221.753 1135.441,3185.839 1138.117,3185.737 1196.816,2412.104 1197.041,2409.15 220.024,2322.105 118.758,1576.011 
	1210.703,1436.899 1215.243,1436.321 901.594,909.448 1028.944,655.89 1029.262,655.89 1028.947,655.884 1029.626,654.532 
	953.75,654.532 409.417,644.747 -1.598,501.913 -1.598,525.542 -1.598,531.829 408.465,660.396 408.904,660.532 1019.898,660.532 
	895.495,908.224 894.757,909.692 1205.405,1431.526 115,1570.442 112,1570.823 214.401,2325.284 214.723,2327.657 1190.61,2414.604 
	1132.539,3179.944 179.763,3215.843 177.491,3215.929 42.96,3775.212 352.278,3968.347 352.788,3968.665 862.224,4052.571 
	1276.066,4566.271 1280.738,4562.509 "/>
<polygon fill="#B8DEDB" points="1029.262,-142.241 1029.047,-142.241 1028.947,-142.068 "/>
<polyline fill="#8AC3CA" points="284.749,468.662 298.1,460.544 298.619,461.397 284.912,469.732 "/>
<polyline fill="#8AC3CA" points="284.749,468.662 298.1,460.544 298.619,461.397 284.912,469.732 "/>
<g>
	<rect x="338.265" y="425.276" fill="none" width="73.52" height="19.02"/>
	<path fill="#8AC3CA" d="M365.357,440.438l0.256-0.513c0.368,0.215,0.856,0.344,1.288,0.344c1.199,0,1.799-0.981,1.711-2.491
		c-0.248,0.651-0.848,1.021-1.671,1.021c-1.096,0-1.775-0.68-1.775-1.76c0-1.146,0.744-1.855,1.895-1.855
		c1.359,0,2.183,0.984,2.183,2.703c0,1.783-0.88,2.951-2.303,2.951C366.429,440.837,365.813,440.677,365.357,440.438z
		 M368.467,436.999c0-0.537-0.408-1.225-1.367-1.225c-0.792,0-1.335,0.473-1.335,1.271c0,0.744,0.496,1.207,1.288,1.207
		C367.939,438.253,368.467,437.661,368.467,436.999z"/>
	<path fill="#8AC3CA" d="M375.707,436.565c0,0.534-0.399,1.184-0.991,1.813l-1.719,1.822h3.03v0.604h-3.846v-0.524l2.095-2.279
		c0.472-0.471,0.768-0.99,0.768-1.35c0-0.545-0.416-0.873-1.119-0.873c-0.512,0-1.08,0.264-1.527,0.692l-0.28-0.512
		c0.544-0.485,1.223-0.772,1.887-0.772C375.036,435.19,375.707,435.728,375.707,436.565z"/>
	<path fill="#8AC3CA" d="M378.548,437.606c1.007,0.047,1.687,0.592,1.687,1.483c0,1.031-0.76,1.752-1.959,1.752
		c-0.647,0-1.312-0.229-1.775-0.565l0.28-0.535c0.399,0.328,0.927,0.524,1.447,0.524c0.871,0,1.383-0.473,1.383-1.149
		c0-0.703-0.52-1.062-1.391-1.062h-0.688v-0.407l1.639-1.812h-2.423v-0.607h3.222v0.435l-1.735,1.926L378.548,437.606z"/>
	<path fill="#8AC3CA" d="M383.596,438.726v-1.479h0.6v1.479h0.848v0.615h-0.848v1.472h-0.6v-1.472h-2.687v-0.524l2.007-3.601h0.631
		l-1.951,3.51H383.596z"/>
</g>
<g>
	<rect x="384.435" y="475.804" fill="none" width="31.816" height="9.513"/>
	<path fill="#8AC3CA" d="M386.307,481.74h-0.68l2.303-4.981h-2.606v0.815h-0.576v-1.434h3.886v0.535L386.307,481.74z"/>
	<path fill="#8AC3CA" d="M393.913,478.941c0,1.808-0.824,2.812-2.311,2.812s-2.311-1.007-2.311-2.812
		c0-1.81,0.823-2.814,2.311-2.814C393.09,476.127,393.913,477.135,393.913,478.941z M389.939,478.941
		c0,1.512,0.576,2.271,1.663,2.271s1.663-0.76,1.663-2.271c0-1.521-0.576-2.271-1.663-2.271S389.939,477.423,389.939,478.941z"/>
	<path fill="#8AC3CA" d="M399.385,478.941c0,1.808-0.824,2.812-2.311,2.812c-1.487,0-2.311-1.007-2.311-2.812
		c0-1.81,0.823-2.814,2.311-2.814C398.562,476.127,399.385,477.135,399.385,478.941z M395.411,478.941
		c0,1.512,0.576,2.271,1.663,2.271c1.087,0,1.663-0.76,1.663-2.271c0-1.521-0.576-2.271-1.663-2.271
		C395.987,476.67,395.411,477.423,395.411,478.941z"/>
	<path fill="#8AC3CA" d="M404.856,478.941c0,1.808-0.824,2.812-2.311,2.812c-1.487,0-2.311-1.007-2.311-2.812
		c0-1.81,0.823-2.814,2.311-2.814C404.033,476.127,404.856,477.135,404.856,478.941z M400.882,478.941
		c0,1.512,0.576,2.271,1.663,2.271s1.663-0.76,1.663-2.271c0-1.521-0.576-2.271-1.663-2.271S400.882,477.423,400.882,478.941z"/>
</g>
<g>
	<rect x="384.435" y="475.804" fill="none" width="31.816" height="9.513"/>
	<path fill="#21A0A1" d="M386.307,481.74h-0.68l2.303-4.981h-2.606v0.815h-0.576v-1.434h3.886v0.535L386.307,481.74z"/>
	<path fill="#21A0A1" d="M393.913,478.941c0,1.808-0.824,2.812-2.311,2.812s-2.311-1.007-2.311-2.812
		c0-1.81,0.823-2.814,2.311-2.814C393.09,476.127,393.913,477.135,393.913,478.941z M389.939,478.941
		c0,1.512,0.576,2.271,1.663,2.271s1.663-0.76,1.663-2.271c0-1.521-0.576-2.271-1.663-2.271S389.939,477.423,389.939,478.941z"/>
	<path fill="#21A0A1" d="M399.385,478.941c0,1.808-0.824,2.812-2.311,2.812c-1.487,0-2.311-1.007-2.311-2.812
		c0-1.81,0.823-2.814,2.311-2.814C398.562,476.127,399.385,477.135,399.385,478.941z M395.411,478.941
		c0,1.512,0.576,2.271,1.663,2.271c1.087,0,1.663-0.76,1.663-2.271c0-1.521-0.576-2.271-1.663-2.271
		C395.987,476.67,395.411,477.423,395.411,478.941z"/>
	<path fill="#21A0A1" d="M404.856,478.941c0,1.808-0.824,2.812-2.311,2.812c-1.487,0-2.311-1.007-2.311-2.812
		c0-1.81,0.823-2.814,2.311-2.814C404.033,476.127,404.856,477.135,404.856,478.941z M400.882,478.941
		c0,1.512,0.576,2.271,1.663,2.271s1.663-0.76,1.663-2.271c0-1.521-0.576-2.271-1.663-2.271S400.882,477.423,400.882,478.941z"/>
</g>
<g>
	<rect x="441.141" y="531.241" fill="none" width="31.815" height="9.51"/>
	<path fill="#8AC3CA" d="M443.245,533.971c1.007,0.048,1.687,0.592,1.687,1.487c0,1.031-0.76,1.751-1.959,1.751
		c-0.646,0-1.312-0.232-1.772-0.568l0.278-0.532c0.399,0.325,0.929,0.524,1.446,0.524c0.872,0,1.383-0.472,1.383-1.148
		c0-0.703-0.52-1.063-1.392-1.063h-0.688v-0.407l1.639-1.812h-2.423v-0.607h3.222v0.435l-1.735,1.927L443.245,533.971z"/>
	<path fill="#8AC3CA" d="M449.42,537.177h-0.68l2.303-4.979h-2.605v0.812h-0.574v-1.431h3.886v0.535L449.42,537.177z"/>
	<path fill="#8AC3CA" d="M454.916,535.09v-1.479h0.6v1.479h0.851v0.616h-0.851v1.471h-0.6v-1.471h-2.688v-0.528l2.008-3.598h0.631
		l-1.951,3.51H454.916z"/>
	<path fill="#8AC3CA" d="M459.532,535.09v-1.479h0.6v1.479h0.851v0.616h-0.851v1.471h-0.6v-1.471h-2.688v-0.528l2.007-3.598h0.634
		l-1.951,3.51H459.532z"/>
</g>
<g>
	<rect x="536.016" y="565.315" fill="none" width="31.815" height="9.51"/>
	<path fill="#8AC3CA" d="M537.288,571.252v-4.989h-1.136v-0.604h1.767v5.597L537.288,571.252L537.288,571.252z"/>
	<path fill="#8AC3CA" d="M544.111,569.165v-1.479h0.6v1.479h0.848v0.616h-0.848v1.471h-0.6v-1.471h-2.688v-0.528l2.007-3.598h0.634
		l-1.951,3.51H544.111z"/>
	<path fill="#8AC3CA" d="M546.376,570.876l0.256-0.512c0.368,0.216,0.856,0.344,1.288,0.344c1.199,0,1.799-0.983,1.711-2.494
		c-0.248,0.655-0.848,1.023-1.671,1.023c-1.096,0-1.775-0.683-1.775-1.762c0-1.144,0.744-1.854,1.896-1.854
		c1.357,0,2.183,0.98,2.183,2.702c0,1.783-0.88,2.951-2.303,2.951C547.448,571.276,546.832,571.116,546.376,570.876z
		 M549.486,567.438c0-0.533-0.408-1.224-1.367-1.224c-0.792,0-1.335,0.472-1.335,1.271c0,0.74,0.496,1.207,1.288,1.207
		C548.958,568.693,549.486,568.102,549.486,567.438z"/>
	<path fill="#8AC3CA" d="M552.496,571.252h-0.68l2.303-4.979h-2.606v0.812h-0.576v-1.431h3.889v0.534L552.496,571.252z"/>
</g>
<g>
	<rect x="677.351" y="541.849" fill="none" width="31.814" height="9.513"/>
	<path fill="#8AC3CA" d="M679.454,544.578c1.007,0.048,1.687,0.592,1.687,1.487c0,1.028-0.76,1.751-1.959,1.751
		c-0.646,0-1.312-0.232-1.771-0.568l0.278-0.535c0.398,0.328,0.929,0.527,1.445,0.527c0.871,0,1.383-0.475,1.383-1.151
		c0-0.703-0.52-1.062-1.391-1.062h-0.688v-0.407l1.64-1.815h-2.423V542.2h3.222v0.432l-1.734,1.927L679.454,544.578z"/>
	<path fill="#8AC3CA" d="M687.668,543.538c0,0.536-0.398,1.184-0.991,1.815l-1.719,1.82h3.029v0.607h-3.849v-0.527l2.099-2.278
		c0.471-0.473,0.768-0.989,0.768-1.353c0-0.543-0.416-0.871-1.119-0.871c-0.512,0-1.08,0.265-1.524,0.695l-0.28-0.513
		c0.544-0.486,1.224-0.774,1.888-0.774C686.997,542.163,687.668,542.699,687.668,543.538z"/>
	<path fill="#8AC3CA" d="M688.989,547.408l0.256-0.512c0.369,0.216,0.854,0.344,1.288,0.344c1.199,0,1.799-0.983,1.711-2.494
		c-0.248,0.655-0.848,1.021-1.671,1.021c-1.099,0-1.775-0.68-1.775-1.759c0-1.144,0.744-1.854,1.896-1.854
		c1.356,0,2.184,0.98,2.184,2.702c0,1.78-0.88,2.948-2.303,2.948C690.062,547.809,689.446,547.648,688.989,547.408z
		 M692.101,543.971c0-0.536-0.405-1.224-1.364-1.224c-0.792,0-1.336,0.472-1.336,1.271c0,0.743,0.494,1.207,1.284,1.207
		C691.573,545.226,692.101,544.634,692.101,543.971z"/>
	<path fill="#8AC3CA" d="M695.109,547.784h-0.683l2.306-4.981h-2.606v0.815h-0.576v-1.434h3.888v0.535L695.109,547.784z"/>
</g>
<g>
	<rect x="677.351" y="541.849" fill="none" width="31.814" height="9.513"/>
	<path fill="#21A0A1" d="M679.454,544.578c1.007,0.048,1.687,0.592,1.687,1.487c0,1.028-0.76,1.751-1.959,1.751
		c-0.646,0-1.312-0.232-1.771-0.568l0.278-0.535c0.398,0.328,0.929,0.527,1.445,0.527c0.871,0,1.383-0.475,1.383-1.151
		c0-0.703-0.52-1.062-1.391-1.062h-0.688v-0.407l1.64-1.815h-2.423V542.2h3.222v0.432l-1.734,1.927L679.454,544.578z"/>
	<path fill="#21A0A1" d="M687.668,543.538c0,0.536-0.398,1.184-0.991,1.815l-1.719,1.82h3.029v0.607h-3.849v-0.527l2.099-2.278
		c0.471-0.473,0.768-0.989,0.768-1.353c0-0.543-0.416-0.871-1.119-0.871c-0.512,0-1.08,0.265-1.524,0.695l-0.28-0.513
		c0.544-0.486,1.224-0.774,1.888-0.774C686.997,542.163,687.668,542.699,687.668,543.538z"/>
	<path fill="#21A0A1" d="M688.989,547.408l0.256-0.512c0.369,0.216,0.854,0.344,1.288,0.344c1.199,0,1.799-0.983,1.711-2.494
		c-0.248,0.655-0.848,1.021-1.671,1.021c-1.099,0-1.775-0.68-1.775-1.759c0-1.144,0.744-1.854,1.896-1.854
		c1.356,0,2.184,0.98,2.184,2.702c0,1.78-0.88,2.948-2.303,2.948C690.062,547.809,689.446,547.648,688.989,547.408z
		 M692.101,543.971c0-0.536-0.405-1.224-1.364-1.224c-0.792,0-1.336,0.472-1.336,1.271c0,0.743,0.494,1.207,1.284,1.207
		C691.573,545.226,692.101,544.634,692.101,543.971z"/>
	<path fill="#21A0A1" d="M695.109,547.784h-0.683l2.306-4.981h-2.606v0.815h-0.576v-1.434h3.888v0.535L695.109,547.784z"/>
</g>
<g>
	<rect x="787.378" y="534.995" fill="none" width="31.816" height="9.51"/>
	<path fill="#8AC3CA" d="M789.481,537.726c1.008,0.05,1.688,0.595,1.688,1.486c0,1.031-0.76,1.752-1.959,1.752
		c-0.646,0-1.312-0.229-1.775-0.565l0.28-0.535c0.399,0.328,0.927,0.524,1.447,0.524c0.872,0,1.384-0.473,1.384-1.149
		c0-0.703-0.521-1.062-1.393-1.062h-0.688v-0.408l1.643-1.812h-2.426v-0.607h3.226v0.435l-1.735,1.926L789.481,537.726z"/>
	<path fill="#8AC3CA" d="M795.058,540.931v-4.985h-1.135v-0.607h1.77v5.596L795.058,540.931L795.058,540.931z"/>
	<path fill="#8AC3CA" d="M801.8,538.132c0,1.812-0.824,2.814-2.311,2.814c-1.488,0-2.312-1.006-2.312-2.814
		c0-1.807,0.822-2.812,2.312-2.812C800.976,535.317,801.8,536.325,801.8,538.132z M797.825,538.132c0,1.513,0.576,2.271,1.664,2.271
		c1.087,0,1.662-0.763,1.662-2.271c0-1.518-0.575-2.27-1.662-2.27C798.401,535.862,797.825,536.614,797.825,538.132z"/>
	<path fill="#8AC3CA" d="M807.271,538.132c0,1.812-0.823,2.814-2.312,2.814c-1.486,0-2.311-1.006-2.311-2.814
		c0-1.807,0.821-2.812,2.311-2.812C806.448,535.317,807.271,536.325,807.271,538.132z M803.298,538.132
		c0,1.513,0.575,2.271,1.662,2.271c1.088,0,1.664-0.763,1.664-2.271c0-1.518-0.576-2.27-1.664-2.27
		C803.873,535.862,803.298,536.614,803.298,538.132z"/>
</g>
<g>
	<rect x="787.378" y="534.995" fill="none" width="31.816" height="9.51"/>
	<path fill="#21A0A1" d="M789.481,537.726c1.008,0.05,1.688,0.595,1.688,1.486c0,1.031-0.76,1.752-1.959,1.752
		c-0.646,0-1.312-0.229-1.775-0.565l0.28-0.535c0.399,0.328,0.927,0.524,1.447,0.524c0.872,0,1.384-0.473,1.384-1.149
		c0-0.703-0.521-1.062-1.393-1.062h-0.688v-0.408l1.643-1.812h-2.426v-0.607h3.226v0.435l-1.735,1.926L789.481,537.726z"/>
	<path fill="#21A0A1" d="M795.058,540.931v-4.985h-1.135v-0.607h1.77v5.596L795.058,540.931L795.058,540.931z"/>
	<path fill="#21A0A1" d="M801.8,538.132c0,1.812-0.824,2.814-2.311,2.814c-1.488,0-2.312-1.006-2.312-2.814
		c0-1.807,0.822-2.812,2.312-2.812C800.976,535.317,801.8,536.325,801.8,538.132z M797.825,538.132c0,1.513,0.576,2.271,1.664,2.271
		c1.087,0,1.662-0.763,1.662-2.271c0-1.518-0.575-2.27-1.662-2.27C798.401,535.862,797.825,536.614,797.825,538.132z"/>
	<path fill="#21A0A1" d="M807.271,538.132c0,1.812-0.823,2.814-2.312,2.814c-1.486,0-2.311-1.006-2.311-2.814
		c0-1.807,0.821-2.812,2.311-2.812C806.448,535.317,807.271,536.325,807.271,538.132z M803.298,538.132
		c0,1.513,0.575,2.271,1.662,2.271c1.088,0,1.664-0.763,1.664-2.271c0-1.518-0.576-2.27-1.664-2.27
		C803.873,535.862,803.298,536.614,803.298,538.132z"/>
</g>
<g>
	<rect x="882.327" y="543.175" fill="none" width="31.812" height="9.51"/>
	<path fill="#8AC3CA" d="M886.237,544.865c0,0.536-0.4,1.184-0.992,1.812l-1.719,1.823h3.027v0.607h-3.846v-0.527l2.095-2.279
		c0.475-0.472,0.771-0.989,0.771-1.352c0-0.543-0.416-0.871-1.119-0.871c-0.513,0-1.08,0.264-1.527,0.695l-0.277-0.515
		c0.544-0.484,1.224-0.772,1.888-0.772C885.565,543.49,886.237,544.026,886.237,544.865z"/>
	<path fill="#8AC3CA" d="M893.429,544.896c0,0.574-0.344,1-0.912,1.225c0.729,0.216,1.179,0.72,1.179,1.423c0,1-0.791,1.6-2.058,1.6
		c-1.276,0-2.067-0.6-2.067-1.583c0-0.712,0.463-1.224,1.207-1.438c-0.584-0.232-0.938-0.664-0.938-1.239
		c0-0.872,0.695-1.392,1.791-1.392C892.741,543.49,893.429,544.019,893.429,544.896z M890.175,547.488
		c0,0.703,0.543,1.108,1.463,1.108c0.903,0,1.455-0.405,1.455-1.108c0-0.664-0.543-1.063-1.463-1.063
		C890.718,546.425,890.175,546.824,890.175,547.488z M890.39,544.938c0,0.603,0.468,0.951,1.248,0.951
		c0.775,0,1.239-0.352,1.239-0.951c0-0.599-0.464-0.948-1.239-0.948C890.854,543.986,890.39,544.338,890.39,544.938z"/>
	<path fill="#8AC3CA" d="M899.148,546.312c0,1.808-0.823,2.812-2.312,2.812c-1.486,0-2.311-1.007-2.311-2.812
		c0-1.81,0.821-2.814,2.311-2.814S899.148,544.506,899.148,546.312z M895.175,546.312c0,1.512,0.575,2.271,1.662,2.271
		c1.088,0,1.664-0.76,1.664-2.271c0-1.521-0.576-2.271-1.664-2.271C895.75,544.042,895.175,544.794,895.175,546.312z"/>
	<path fill="#8AC3CA" d="M904.62,546.312c0,1.808-0.824,2.812-2.312,2.812c-1.486,0-2.311-1.007-2.311-2.812
		c0-1.81,0.822-2.814,2.311-2.814C903.797,543.498,904.62,544.506,904.62,546.312z M900.646,546.312
		c0,1.512,0.573,2.271,1.661,2.271c1.089,0,1.662-0.76,1.662-2.271c0-1.521-0.573-2.271-1.662-2.271
		C901.222,544.042,900.646,544.794,900.646,546.312z"/>
</g>
<g>
	<rect x="882.327" y="543.175" fill="none" width="31.812" height="9.51"/>
	<path fill="#21A0A1" d="M886.237,544.865c0,0.536-0.4,1.184-0.992,1.812l-1.719,1.823h3.027v0.607h-3.846v-0.527l2.095-2.279
		c0.475-0.472,0.771-0.989,0.771-1.352c0-0.543-0.416-0.871-1.119-0.871c-0.513,0-1.08,0.264-1.527,0.695l-0.277-0.515
		c0.544-0.484,1.224-0.772,1.888-0.772C885.565,543.49,886.237,544.026,886.237,544.865z"/>
	<path fill="#21A0A1" d="M893.429,544.896c0,0.574-0.344,1-0.912,1.225c0.729,0.216,1.179,0.72,1.179,1.423c0,1-0.791,1.6-2.058,1.6
		c-1.276,0-2.067-0.6-2.067-1.583c0-0.712,0.463-1.224,1.207-1.438c-0.584-0.232-0.938-0.664-0.938-1.239
		c0-0.872,0.695-1.392,1.791-1.392C892.741,543.49,893.429,544.019,893.429,544.896z M890.175,547.488
		c0,0.703,0.543,1.108,1.463,1.108c0.903,0,1.455-0.405,1.455-1.108c0-0.664-0.543-1.063-1.463-1.063
		C890.718,546.425,890.175,546.824,890.175,547.488z M890.39,544.938c0,0.603,0.468,0.951,1.248,0.951
		c0.775,0,1.239-0.352,1.239-0.951c0-0.599-0.464-0.948-1.239-0.948C890.854,543.986,890.39,544.338,890.39,544.938z"/>
	<path fill="#21A0A1" d="M899.148,546.312c0,1.808-0.823,2.812-2.312,2.812c-1.486,0-2.311-1.007-2.311-2.812
		c0-1.81,0.821-2.814,2.311-2.814S899.148,544.506,899.148,546.312z M895.175,546.312c0,1.512,0.575,2.271,1.662,2.271
		c1.088,0,1.664-0.76,1.664-2.271c0-1.521-0.576-2.271-1.664-2.271C895.75,544.042,895.175,544.794,895.175,546.312z"/>
	<path fill="#21A0A1" d="M904.62,546.312c0,1.808-0.824,2.812-2.312,2.812c-1.486,0-2.311-1.007-2.311-2.812
		c0-1.81,0.822-2.814,2.311-2.814C903.797,543.498,904.62,544.506,904.62,546.312z M900.646,546.312
		c0,1.512,0.573,2.271,1.661,2.271c1.089,0,1.662-0.76,1.662-2.271c0-1.521-0.573-2.271-1.662-2.271
		C901.222,544.042,900.646,544.794,900.646,546.312z"/>
</g>
<g>
	<rect x="970.993" y="557.005" fill="none" width="31.812" height="9.51"/>
	<path fill="#8AC3CA" d="M974.903,558.695c0,0.536-0.4,1.184-0.992,1.812l-1.719,1.823h3.027v0.606h-3.846v-0.526l2.095-2.279
		c0.475-0.472,0.771-0.991,0.771-1.352c0-0.543-0.416-0.871-1.119-0.871c-0.513,0-1.08,0.264-1.527,0.695l-0.278-0.515
		c0.544-0.484,1.225-0.772,1.889-0.772C974.23,557.32,974.903,557.856,974.903,558.695z"/>
	<path fill="#8AC3CA" d="M979.089,557.96v1.575c0.287-0.048,0.688-0.08,0.943-0.08c1.175,0,1.926,0.696,1.926,1.655
		c0,1.119-0.775,1.847-1.975,1.847c-0.615,0-1.359-0.239-1.89-0.607l0.267-0.544c0.465,0.354,1.056,0.562,1.56,0.562
		c0.839,0,1.359-0.463,1.359-1.215c0-0.664-0.521-1.079-1.344-1.079c-0.369,0-1.039,0.056-1.438,0.136v-2.862h3.246v0.615
		L979.089,557.96L979.089,557.96z"/>
	<path fill="#8AC3CA" d="M987.398,560.143c0,1.811-0.823,2.814-2.312,2.814c-1.486,0-2.311-1.007-2.311-2.814
		c0-1.807,0.821-2.812,2.311-2.812C986.575,557.328,987.398,558.336,987.398,560.143z M983.425,560.143
		c0,1.515,0.575,2.271,1.662,2.271c1.088,0,1.664-0.76,1.664-2.271c0-1.519-0.576-2.271-1.664-2.271
		C984,557.872,983.425,558.624,983.425,560.143z"/>
	<path fill="#8AC3CA" d="M992.87,560.143c0,1.811-0.824,2.814-2.312,2.814c-1.486,0-2.311-1.007-2.311-2.814
		c0-1.807,0.822-2.812,2.311-2.812C992.046,557.328,992.87,558.336,992.87,560.143z M988.896,560.143
		c0,1.515,0.573,2.271,1.664,2.271c1.086,0,1.659-0.76,1.659-2.271c0-1.519-0.573-2.271-1.659-2.271
		C989.472,557.872,988.896,558.624,988.896,560.143z"/>
</g>
<g>
	<rect x="970.993" y="557.005" fill="none" width="31.812" height="9.51"/>
	<path fill="#21A0A1" d="M974.903,558.695c0,0.536-0.4,1.184-0.992,1.812l-1.719,1.823h3.027v0.606h-3.846v-0.526l2.095-2.279
		c0.475-0.472,0.771-0.991,0.771-1.352c0-0.543-0.416-0.871-1.119-0.871c-0.513,0-1.08,0.264-1.527,0.695l-0.278-0.515
		c0.544-0.484,1.225-0.772,1.889-0.772C974.23,557.32,974.903,557.856,974.903,558.695z"/>
	<path fill="#21A0A1" d="M979.089,557.96v1.575c0.287-0.048,0.688-0.08,0.943-0.08c1.175,0,1.926,0.696,1.926,1.655
		c0,1.119-0.775,1.847-1.975,1.847c-0.615,0-1.359-0.239-1.89-0.607l0.267-0.544c0.465,0.354,1.056,0.562,1.56,0.562
		c0.839,0,1.359-0.463,1.359-1.215c0-0.664-0.521-1.079-1.344-1.079c-0.369,0-1.039,0.056-1.438,0.136v-2.862h3.246v0.615
		L979.089,557.96L979.089,557.96z"/>
	<path fill="#21A0A1" d="M987.398,560.143c0,1.811-0.823,2.814-2.312,2.814c-1.486,0-2.311-1.007-2.311-2.814
		c0-1.807,0.821-2.812,2.311-2.812C986.575,557.328,987.398,558.336,987.398,560.143z M983.425,560.143
		c0,1.515,0.575,2.271,1.662,2.271c1.088,0,1.664-0.76,1.664-2.271c0-1.519-0.576-2.271-1.664-2.271
		C984,557.872,983.425,558.624,983.425,560.143z"/>
	<path fill="#21A0A1" d="M992.87,560.143c0,1.811-0.824,2.814-2.312,2.814c-1.486,0-2.311-1.007-2.311-2.814
		c0-1.807,0.822-2.812,2.311-2.812C992.046,557.328,992.87,558.336,992.87,560.143z M988.896,560.143
		c0,1.515,0.573,2.271,1.664,2.271c1.086,0,1.659-0.76,1.659-2.271c0-1.519-0.573-2.271-1.659-2.271
		C989.472,557.872,988.896,558.624,988.896,560.143z"/>
</g>
<g>
	<rect x="436.141" y="493.419" fill="none" width="73.521" height="19.021"/>
	<path fill="#8AC3CA" d="M462.593,503.974v1.574c0.288-0.047,0.688-0.08,0.943-0.08c1.175,0,1.927,0.697,1.927,1.656
		c0,1.119-0.775,1.846-1.975,1.846c-0.616,0-1.359-0.235-1.89-0.604l0.267-0.543c0.464,0.352,1.055,0.561,1.559,0.561
		c0.839,0,1.359-0.465,1.359-1.217c0-0.664-0.521-1.078-1.344-1.078c-0.367,0-1.039,0.055-1.438,0.135v-2.858h3.246v0.614
		L462.593,503.974L462.593,503.974z"/>
	<path fill="#8AC3CA" d="M473.095,506.155c0,1.809-0.823,2.812-2.311,2.812c-1.488,0-2.312-1.006-2.312-2.812
		c0-1.809,0.824-2.814,2.312-2.814C472.271,503.341,473.095,504.349,473.095,506.155z M469.121,506.155
		c0,1.512,0.576,2.271,1.663,2.271s1.663-0.76,1.663-2.271c0-1.521-0.576-2.271-1.663-2.271S469.121,504.638,469.121,506.155z"/>
	<path fill="#8AC3CA" d="M478.567,506.155c0,1.809-0.824,2.812-2.312,2.812s-2.311-1.006-2.311-2.812
		c0-1.809,0.82-2.814,2.311-2.814S478.567,504.349,478.567,506.155z M474.593,506.155c0,1.512,0.576,2.271,1.663,2.271
		s1.663-0.76,1.663-2.271c0-1.521-0.576-2.271-1.663-2.271S474.593,504.638,474.593,506.155z"/>
	<path fill="#8AC3CA" d="M484.039,506.155c0,1.809-0.824,2.812-2.311,2.812c-1.487,0-2.312-1.006-2.312-2.812
		c0-1.809,0.823-2.814,2.312-2.814C483.216,503.341,484.039,504.349,484.039,506.155z M480.064,506.155
		c0,1.512,0.573,2.271,1.66,2.271c1.09,0,1.663-0.76,1.663-2.271c0-1.521-0.573-2.271-1.663-2.271
		C480.64,503.885,480.064,504.638,480.064,506.155z"/>
</g>
<g>
	<rect x="436.141" y="493.419" fill="none" width="73.521" height="19.021"/>
	<path fill="#21A0A1" d="M462.593,503.974v1.574c0.288-0.047,0.688-0.08,0.943-0.08c1.175,0,1.927,0.697,1.927,1.656
		c0,1.119-0.775,1.846-1.975,1.846c-0.616,0-1.359-0.235-1.89-0.604l0.267-0.543c0.464,0.352,1.055,0.561,1.559,0.561
		c0.839,0,1.359-0.465,1.359-1.217c0-0.664-0.521-1.078-1.344-1.078c-0.367,0-1.039,0.055-1.438,0.135v-2.858h3.246v0.614
		L462.593,503.974L462.593,503.974z"/>
	<path fill="#21A0A1" d="M473.095,506.155c0,1.809-0.823,2.812-2.311,2.812c-1.488,0-2.312-1.006-2.312-2.812
		c0-1.809,0.824-2.814,2.312-2.814C472.271,503.341,473.095,504.349,473.095,506.155z M469.121,506.155
		c0,1.512,0.576,2.271,1.663,2.271s1.663-0.76,1.663-2.271c0-1.521-0.576-2.271-1.663-2.271S469.121,504.638,469.121,506.155z"/>
	<path fill="#21A0A1" d="M478.567,506.155c0,1.809-0.824,2.812-2.312,2.812s-2.311-1.006-2.311-2.812
		c0-1.809,0.82-2.814,2.311-2.814S478.567,504.349,478.567,506.155z M474.593,506.155c0,1.512,0.576,2.271,1.663,2.271
		s1.663-0.76,1.663-2.271c0-1.521-0.576-2.271-1.663-2.271S474.593,504.638,474.593,506.155z"/>
	<path fill="#21A0A1" d="M484.039,506.155c0,1.809-0.824,2.812-2.311,2.812c-1.487,0-2.312-1.006-2.312-2.812
		c0-1.809,0.823-2.814,2.312-2.814C483.216,503.341,484.039,504.349,484.039,506.155z M480.064,506.155
		c0,1.512,0.573,2.271,1.66,2.271c1.09,0,1.663-0.76,1.663-2.271c0-1.521-0.573-2.271-1.663-2.271
		C480.64,503.885,480.064,504.638,480.064,506.155z"/>
</g>
<g>
	<rect x="534.016" y="527.095" fill="none" width="73.521" height="19.021"/>
	<path fill="#8AC3CA" d="M562.095,539.425c1.007,0.047,1.688,0.592,1.688,1.486c0,1.031-0.763,1.752-1.959,1.752
		c-0.647,0-1.312-0.232-1.775-0.568l0.28-0.534c0.396,0.327,0.927,0.526,1.447,0.526c0.87,0,1.383-0.473,1.383-1.151
		c0-0.701-0.521-1.062-1.394-1.062h-0.688v-0.408l1.639-1.812h-2.423v-0.607h3.222v0.434l-1.732,1.927L562.095,539.425z"/>
	<path fill="#8AC3CA" d="M568.503,539.425c1.007,0.047,1.688,0.592,1.688,1.486c0,1.031-0.763,1.752-1.959,1.752
		c-0.648,0-1.312-0.232-1.775-0.568l0.28-0.534c0.397,0.327,0.927,0.526,1.444,0.526c0.872,0,1.386-0.473,1.386-1.151
		c0-0.701-0.521-1.062-1.395-1.062h-0.688v-0.408l1.639-1.812h-2.423v-0.607h3.222v0.434l-1.733,1.927L568.503,539.425z"/>
	<path fill="#8AC3CA" d="M575.661,539.831c0,1.809-0.824,2.812-2.312,2.812c-1.484,0-2.311-1.006-2.311-2.812
		s0.824-2.814,2.311-2.814C574.837,537.017,575.661,538.024,575.661,539.831z M571.688,539.831c0,1.512,0.575,2.271,1.662,2.271
		c1.088,0,1.663-0.76,1.663-2.271c0-1.519-0.575-2.271-1.663-2.271C572.263,537.561,571.688,538.312,571.688,539.831z"/>
	<path fill="#8AC3CA" d="M581.133,539.831c0,1.809-0.824,2.812-2.311,2.812c-1.487,0-2.312-1.006-2.312-2.812
		s0.823-2.814,2.312-2.814C580.31,537.017,581.133,538.024,581.133,539.831z M577.159,539.831c0,1.512,0.576,2.271,1.663,2.271
		s1.663-0.76,1.663-2.271c0-1.519-0.576-2.271-1.663-2.271S577.159,538.312,577.159,539.831z"/>
</g>
<g>
	<rect x="534.016" y="527.095" fill="none" width="73.521" height="19.021"/>
	<path fill="#21A0A1" d="M562.095,539.425c1.007,0.047,1.688,0.592,1.688,1.486c0,1.031-0.763,1.752-1.959,1.752
		c-0.647,0-1.312-0.232-1.775-0.568l0.28-0.534c0.396,0.327,0.927,0.526,1.447,0.526c0.87,0,1.383-0.473,1.383-1.151
		c0-0.701-0.521-1.062-1.394-1.062h-0.688v-0.408l1.639-1.812h-2.423v-0.607h3.222v0.434l-1.732,1.927L562.095,539.425z"/>
	<path fill="#21A0A1" d="M568.503,539.425c1.007,0.047,1.688,0.592,1.688,1.486c0,1.031-0.763,1.752-1.959,1.752
		c-0.648,0-1.312-0.232-1.775-0.568l0.28-0.534c0.397,0.327,0.927,0.526,1.444,0.526c0.872,0,1.386-0.473,1.386-1.151
		c0-0.701-0.521-1.062-1.395-1.062h-0.688v-0.408l1.639-1.812h-2.423v-0.607h3.222v0.434l-1.733,1.927L568.503,539.425z"/>
	<path fill="#21A0A1" d="M575.661,539.831c0,1.809-0.824,2.812-2.312,2.812c-1.484,0-2.311-1.006-2.311-2.812
		s0.824-2.814,2.311-2.814C574.837,537.017,575.661,538.024,575.661,539.831z M571.688,539.831c0,1.512,0.575,2.271,1.662,2.271
		c1.088,0,1.663-0.76,1.663-2.271c0-1.519-0.575-2.271-1.663-2.271C572.263,537.561,571.688,538.312,571.688,539.831z"/>
	<path fill="#21A0A1" d="M581.133,539.831c0,1.809-0.824,2.812-2.311,2.812c-1.487,0-2.312-1.006-2.312-2.812
		s0.823-2.814,2.312-2.814C580.31,537.017,581.133,538.024,581.133,539.831z M577.159,539.831c0,1.512,0.576,2.271,1.663,2.271
		s1.663-0.76,1.663-2.271c0-1.519-0.576-2.271-1.663-2.271S577.159,538.312,577.159,539.831z"/>
</g>
<g>
	<rect x="631.891" y="520.974" fill="none" width="73.521" height="19.021"/>
	<path fill="#8AC3CA" d="M660.794,533.304c1.008,0.047,1.688,0.595,1.688,1.486c0,1.031-0.763,1.752-1.959,1.752
		c-0.647,0-1.312-0.231-1.775-0.568l0.28-0.532c0.396,0.326,0.927,0.524,1.444,0.524c0.871,0,1.386-0.473,1.386-1.149
		c0-0.703-0.521-1.062-1.395-1.062h-0.688v-0.408l1.64-1.812h-2.423v-0.607h3.223v0.435l-1.732,1.926L660.794,533.304z"/>
	<path fill="#8AC3CA" d="M666.97,536.509h-0.68l2.303-4.979h-2.604v0.812h-0.576v-1.43h3.886v0.535L666.97,536.509z"/>
	<path fill="#8AC3CA" d="M671.402,536.509h-0.683l2.306-4.979h-2.606v0.812h-0.576v-1.43h3.888v0.535L671.402,536.509z"/>
	<path fill="#8AC3CA" d="M677.872,532.263c0,0.537-0.398,1.187-0.99,1.816l-1.72,1.822h3.03v0.604h-3.849v-0.525l2.098-2.278
		c0.472-0.472,0.768-0.99,0.768-1.353c0-0.545-0.415-0.872-1.119-0.872c-0.512,0-1.079,0.266-1.524,0.694l-0.28-0.512
		c0.544-0.486,1.224-0.775,1.888-0.775C677.201,530.888,677.872,531.425,677.872,532.263z"/>
</g>
<g>
	<rect x="729.767" y="434.974" fill="none" width="73.521" height="19.021"/>
	<path fill="#8AC3CA" d="M761.172,446.296c0,0.576-0.344,1-0.911,1.223c0.729,0.22,1.175,0.724,1.175,1.427c0,1-0.792,1.6-2.055,1.6
		c-1.279,0-2.071-0.6-2.071-1.584c0-0.711,0.467-1.223,1.207-1.439c-0.583-0.229-0.935-0.661-0.935-1.235
		c0-0.873,0.695-1.396,1.791-1.396C760.484,444.888,761.172,445.417,761.172,446.296z M757.917,448.886
		c0,0.703,0.545,1.111,1.464,1.111c0.903,0,1.455-0.408,1.455-1.111c0-0.664-0.544-1.062-1.463-1.062
		C758.462,447.823,757.917,448.222,757.917,448.886z M758.134,446.335c0,0.6,0.463,0.951,1.247,0.951
		c0.775,0,1.239-0.354,1.239-0.951s-0.464-0.951-1.239-0.951C758.597,445.384,758.134,445.735,758.134,446.335z"/>
	<path fill="#8AC3CA" d="M765.294,445.528v1.571c0.287-0.047,0.688-0.077,0.943-0.077c1.175,0,1.927,0.694,1.927,1.653
		c0,1.119-0.776,1.849-1.977,1.849c-0.614,0-1.358-0.238-1.889-0.607l0.266-0.543c0.465,0.352,1.057,0.562,1.561,0.562
		c0.839,0,1.359-0.466,1.359-1.218c0-0.664-0.521-1.078-1.346-1.078c-0.369,0-1.04,0.058-1.438,0.138v-2.861h3.246v0.615
		L765.294,445.528L765.294,445.528z"/>
	<path fill="#8AC3CA" d="M771.493,448.423v-1.479h0.6v1.479h0.847v0.615h-0.847v1.471h-0.6v-1.471h-2.688v-0.527l2.008-3.598h0.634
		l-1.951,3.51H771.493z"/>
	<path fill="#8AC3CA" d="M774.445,450.509v-4.985h-1.139v-0.607h1.771v5.596L774.445,450.509L774.445,450.509z"/>
</g>
<g>
	<rect x="827.64" y="483.909" fill="none" width="73.521" height="19.02"/>
	<path fill="#8AC3CA" d="M855.308,494.464v1.574c0.287-0.047,0.688-0.08,0.943-0.08c1.176,0,1.927,0.697,1.927,1.656
		c0,1.119-0.772,1.846-1.975,1.846c-0.616,0-1.359-0.238-1.888-0.604l0.265-0.546c0.464,0.354,1.056,0.562,1.56,0.562
		c0.839,0,1.359-0.465,1.359-1.217c0-0.664-0.521-1.078-1.344-1.078c-0.368,0-1.039,0.055-1.439,0.135v-2.861h3.246v0.615
		L855.308,494.464L855.308,494.464z"/>
	<path fill="#8AC3CA" d="M865.026,495.231c0,0.573-0.347,1-0.912,1.223c0.728,0.217,1.176,0.721,1.176,1.424
		c0,1-0.792,1.6-2.055,1.6c-1.279,0-2.071-0.6-2.071-1.584c0-0.711,0.464-1.223,1.207-1.438c-0.583-0.232-0.936-0.664-0.936-1.238
		c0-0.873,0.693-1.393,1.791-1.393C864.339,493.823,865.026,494.353,865.026,495.231z M861.771,497.821
		c0,0.703,0.544,1.108,1.464,1.108c0.899,0,1.455-0.405,1.455-1.108c0-0.664-0.544-1.062-1.467-1.062
		C862.315,496.759,861.771,497.157,861.771,497.821z M861.987,495.271c0,0.6,0.464,0.948,1.248,0.948
		c0.772,0,1.235-0.352,1.235-0.948c0-0.602-0.463-0.951-1.235-0.951C862.451,494.319,861.987,494.671,861.987,495.271z"/>
	<path fill="#8AC3CA" d="M870.01,494.224l-0.256,0.515c-0.368-0.215-0.854-0.347-1.287-0.347c-1.199,0-1.8,0.984-1.711,2.494
		c0.247-0.651,0.85-1.021,1.671-1.021c1.099,0,1.775,0.68,1.775,1.76c0,1.143-0.744,1.854-1.896,1.854
		c-1.356,0-2.183-0.981-2.183-2.711c0-1.772,0.879-2.94,2.303-2.94C868.938,493.823,869.554,493.983,870.01,494.224z
		 M866.907,497.661c-0.008,0.537,0.408,1.225,1.356,1.225c0.792,0,1.336-0.479,1.336-1.271c0-0.744-0.494-1.207-1.285-1.207
		C867.427,496.407,866.899,496.999,866.907,497.661z"/>
	<path fill="#8AC3CA" d="M872.636,496.239c1.007,0.047,1.688,0.592,1.688,1.483c0,1.031-0.763,1.752-1.959,1.752
		c-0.647,0-1.312-0.229-1.774-0.565l0.279-0.535c0.396,0.328,0.928,0.527,1.447,0.527c0.87,0,1.383-0.476,1.383-1.152
		c0-0.703-0.521-1.062-1.394-1.062h-0.688v-0.408l1.639-1.814h-2.423v-0.604h3.222v0.432l-1.731,1.926L872.636,496.239z"/>
</g>
<g>
	<rect x="925.515" y="538.265" fill="none" width="73.521" height="19.021"/>
	<path fill="#8AC3CA" d="M955.974,549.554c0,0.537-0.397,1.187-0.991,1.816l-1.72,1.822h3.03v0.604h-3.846v-0.525l2.095-2.278
		c0.472-0.472,0.769-0.99,0.769-1.353c0-0.545-0.416-0.872-1.119-0.872c-0.513,0-1.078,0.266-1.525,0.694l-0.279-0.512
		c0.543-0.486,1.226-0.775,1.889-0.775C955.302,548.179,955.974,548.716,955.974,549.554z"/>
	<path fill="#8AC3CA" d="M960.773,553.8h-0.682l2.305-4.979h-2.605v0.812h-0.575v-1.43h3.886v0.535L960.773,553.8z"/>
	<path fill="#8AC3CA" d="M967.597,549.587c0,0.576-0.344,1-0.911,1.223c0.729,0.22,1.178,0.724,1.178,1.427c0,1-0.791,1.6-2.058,1.6
		c-1.276,0-2.067-0.6-2.067-1.584c0-0.711,0.463-1.223,1.207-1.439c-0.584-0.229-0.938-0.662-0.938-1.235
		c0-0.873,0.695-1.396,1.791-1.396C966.909,548.179,967.597,548.708,967.597,549.587z M964.343,552.177
		c0,0.703,0.543,1.111,1.463,1.111c0.903,0,1.455-0.408,1.455-1.111c0-0.664-0.543-1.062-1.463-1.062
		C964.886,551.114,964.343,551.513,964.343,552.177z M964.558,549.626c0,0.6,0.466,0.951,1.248,0.951
		c0.775,0,1.239-0.354,1.239-0.951s-0.464-0.951-1.239-0.951C965.021,548.675,964.558,549.026,964.558,549.626z"/>
	<path fill="#8AC3CA" d="M970.374,550.595c1.008,0.047,1.688,0.592,1.688,1.486c0,1.031-0.763,1.752-1.959,1.752
		c-0.648,0-1.312-0.232-1.775-0.568l0.279-0.532c0.397,0.325,0.928,0.524,1.444,0.524c0.872,0,1.386-0.473,1.386-1.149
		c0-0.703-0.521-1.062-1.394-1.062h-0.688v-0.408l1.641-1.812h-2.422v-0.607h3.222v0.435l-1.733,1.926L970.374,550.595z"/>
</g>
</svg>
