<?xml version="1.0" encoding="UTF-8" standalone="no"?>
<svg
   xmlns:dc="http://purl.org/dc/elements/1.1/"
   xmlns:cc="http://creativecommons.org/ns#"
   xmlns:rdf="http://www.w3.org/1999/02/22-rdf-syntax-ns#"
   xmlns:svg="http://www.w3.org/2000/svg"
   xmlns="http://www.w3.org/2000/svg"
   version="1.1"
   id="svg3375"
   viewBox="0 0 376 640.00001"
   height="640"
   width="376">
  <defs
     id="defs3377" />
  <metadata
     id="metadata3380">
    <rdf:RDF>
      <cc:Work
         rdf:about="">
        <dc:format>image/svg+xml</dc:format>
        <dc:type
           rdf:resource="http://purl.org/dc/dcmitype/StillImage" />
        <dc:title></dc:title>
      </cc:Work>
    </rdf:RDF>
  </metadata>
  <g
     transform="translate(0,-412.36216)"
     id="layer1">
    <g
       transform="matrix(0.99999422,0,0,0.99913824,-522.73091,311.34062)"
       id="g3">
      <path
         style="fill:#eeeeee"
         id="path5"
         d="m 688.715,250.126 c -7.977,8.939 -19.622,14.606 -30.678,20.795 9.79,5.543 23.538,6.987 39.536,6.097 -2.329,-9.611 0.088,-24.134 -8.858,-26.892 z" />
      <path
         style="fill:#eeeeee"
         id="path7"
         d="m 522.738,101.111 0,640.552 376.00044,-0.004 0,-640.55982 z m 358.424,420.156 c -5.768,6.521 -15.575,11.936 -22.884,18.996 -7.448,7.201 -13.521,14.252 -21.257,20.447 -19.004,15.223 -36.422,30.318 -48.457,50.191 2.994,15.84 -4.189,32.438 0.222,48.385 2.478,8.963 14.821,16.07 7.229,25.441 -20.688,0.115 -35.646,-15.461 -45.478,-39.148 -2.475,-5.953 -5.051,-13.248 -8.578,-19.342 -8.255,-14.254 -15.235,-13.848 -0.951,-25.676 4.532,-3.754 9.212,-11.529 20.076,-9.816 13.393,-10.146 23.271,-22.568 33.26,-36.014 10.443,-14.061 14.758,-29.227 21.933,-44.676 3.841,-8.268 18.077,-15.547 24.286,-23.584 -25.157,-13.146 -56.937,-12.854 -83.011,-25.057 -23.19,20.67 -41.127,43.479 -66.881,61.855 -0.435,4.986 -3.561,16.039 -16.607,24.588 -18.467,23.453 -48.256,48.707 -69.054,74.375 -10.624,13.113 -23.415,23.729 -28.379,40.373 -1.405,4.711 -1.774,8.652 -2.691,12.197 2.75,5.514 8.522,-3.32 -7.182,18.414 -6.973,19.289 14.625,41.066 -1.351,48.445 -18.677,-0.521 -39.013,-69.367 -42.669,-90.674 10.047,-7.465 21.785,-7.172 30.958,-13.242 10.655,-7.053 19.306,-25 26.864,-38.805 16.667,-30.439 25.562,-62.855 55.19,-80.689 17.933,-26.826 54.544,-99.271 59.006,-105.023 -5.362,-26.806 1.771,-41.982 13.632,-56.463 -4.324,-3.357 -10.5,-4.808 -14.467,-8.537 0.543,-17.039 5.782,-29.886 6.117,-47.11 -27.304,-3.952 -62.759,0.271 -88.215,-4.292 -11.723,-18.696 6.834,-31.411 20.417,-43.103 4.688,-4.039 10.231,-7.46 15.311,-11.154 5.152,-3.748 12.052,-6.721 15.367,-9.643 5.38,-4.743 12.288,-19.407 18.003,-23.353 4.875,-3.362 11.858,-3.758 17.05,-6.681 10.907,-6.14 20.325,-10.737 34.817,-15.137 5.929,-23.914 -28.29,-40.031 -11.199,-68.917 7.789,-13.166 26.787,-19.456 43.406,-16.731 14.377,2.357 25.713,14.944 29.271,26.139 -3.446,11.515 4.608,16.032 8.746,23.874 0.256,5.476 -8.05,5.16 -1.23,9.121 -0.266,2.487 -0.236,21.954 -5.443,22.887 -9.088,2.595 -19.311,4.177 -21.536,12.897 5.021,1.946 12.51,4.243 17.665,9.931 8.759,10.025 8.646,16.218 11.942,25.267 3.459,9.493 0.996,18.632 2.424,28.67 0.645,4.533 5.831,10.532 2.338,15.012 8.312,-5.616 14.928,-14.661 17.783,-29.392 3.039,-15.682 -3.094,-33.286 14.413,-35.318 10.046,-1.238 25.271,31.276 6.222,40.603 -1.236,7.52 -6.829,13.232 -10.264,20.04 -6.864,13.614 -12.292,26.963 -20.529,40.08 -4.914,7.828 -12.4,14.891 -14.808,24.747 -2.48,10.179 2.916,20.325 -2.745,31.971 -2.209,2.604 -3.526,4.778 -8.528,3.23 0.259,7.048 0.521,14.095 0.781,21.144 15.451,13.457 35.79,18.012 53.05,31.308 10.239,7.887 18.475,18.768 29.385,29.158 9.545,9.088 24.102,21.008 24.783,32.354 0.61,10.054 -9.997,26.898 -17.553,35.437 z" />
    </g>
  </g>
</svg>
