<?xml version="1.0" encoding="utf-8"?>
<!-- Generator: Adobe Illustrator 15.0.0, SVG Export Plug-In . SVG Version: 6.00 Build 0)  -->
<!DOCTYPE svg PUBLIC "-//W3C//DTD SVG 1.1//EN" "http://www.w3.org/Graphics/SVG/1.1/DTD/svg11.dtd">
<svg version="1.1" id="Calque_1" xmlns="http://www.w3.org/2000/svg" xmlns:xlink="http://www.w3.org/1999/xlink" x="0px" y="0px"
	 width="483.459px" height="637.337px" viewBox="490.947 102.44 483.459 637.337"
	 enable-background="new 490.947 102.44 483.459 637.337" xml:space="preserve">
<path fill="#EEEEEE" d="M490.947,102.44v637.337h483.459v-27.97c-15.529,34.234-71.982,27.947-111.024,26.742
	c-0.198-18.465-7.558-34.691,6.704-39.465c0.315-35.24-21.162-54.477-33.076-83.963c-11.164-27.627-11.125-56.648-23.265-76.176
	c-15.673-25.217-34.606-37.354-55.611-56.131c-17.226,28.572-42.442,81.123-55.977,81.418
	c-41.409,1.928-110.114-6.217-147.573,7.635c-8.265,10.395-20.779,16.537-25.444,30.533c-18.694-15.355-14.534,31.764-38.166,27.986
	c-0.729-46.529,13.38-78.217,30.532-106.865c11.653,0.297,20.71,13.125,33.078,15.27c29.824,5.168,69.243-17.508,101.775-17.812
	c21.189-0.197,24.451,2.312,32.689-17.74c2-4.867,13.461-31.033,9.889-70.582c-3.921-43.416,10.669-56.664,28.662-69.427
	c18.311-32.851,6.816-80.903-7.633-109.412c-22.118,2.479-36.437,12.756-55.976,17.812c5.694,25.685,13.976,48.785,22.898,71.243
	c3.28,3.505,11.054,2.516,17.812,2.543c4.398-0.104,10.167,12.668,7.695,18.023c-6.044,8.24-23.483,27.191-27.405,18.49
	c-18.764-42.303-43.519-72.515-59.165-117.935c9.229-7.364,27.439-17.173,45.798-27.986c15.503-9.128,30.965-24.069,43.255-27.988
	c15.208-4.85,40.156,3.428,43.254-15.268c4.295-25.918-38.878-17.421-30.533-53.43c-2.957,0.41-4.525-0.562-5.089-2.547
	c-28.83,8.45-20.75,50.122-63.608,40.71c-8.306-1.709,3.802-8.072,10.178-7.634c-0.294-4.235-18.282-2.752-10.757-6.434
	c-27.707-16.067,8.057,0.785,15.847-1.196c6.761-2.563-6.582-6.336-5.089-15.269c3.343,3.267,9.378,3.267,12.721,0
	c-5.371-31.136,33.782-47.552,50.892-25.442c11.657,1.232,15.043-14.817,27.983-17.811c16.718-3.867,39.268,1.627,45.8,10.178
	c5.565,8.658,3.562,17.948,7.635,27.987c1.366,3.374,10.046,11.412,10.178,12.722c0.555,5.506-1.755,34.168-10.178,33.077
	c-11.567-1.39-19.05,1.307-22.898,7.635c-5.48,11.309,13.28,17.252,25.442,20.355c14.395,2.49,21.112,58.608,33.077,86.51
	c21.746-9.636,36.12-26.645,50.887-43.256c-6.037-16.579,3.49-46.256,12.724-38.166c8.107,6.192,12.131,4.203,17.812,10.176
	c9.562,10.065,12.604,24.22,5.089,33.077c-4.485,5.287-13.776,4.985-20.356,10.179c-10.725,8.47-19.438,26.952-30.531,38.166
	c-14.998,15.16-29.86,33.246-38.166,30.534c-10.92-4.348-20.072-10.46-22.898-22.899c-14.854,22.464-17,57.633-33.076,78.876
	c0.745,1.56,35.122,72.603,53.431,106.863c11.68,21.859,20.599,24.453,20.355,55.977c-0.066,8.746,2.713,19.639,5.088,27.988
	c9.627,33.842,21.367,73.652,38.167,101.775c10.667-6.396,5.466-2.682,17.807,7.631c10.688,9.67,47.534-1.248,48.344,12.723V102.44
	H490.947z"/>
</svg>
