<?xml version="1.0" encoding="utf-8"?>
<!-- Generator: Adobe Illustrator 15.0.0, SVG Export Plug-In . SVG Version: 6.00 Build 0)  -->
<!DOCTYPE svg PUBLIC "-//W3C//DTD SVG 1.1//EN" "http://www.w3.org/Graphics/SVG/1.1/DTD/svg11.dtd">
<svg version="1.1" id="Calque_1" xmlns="http://www.w3.org/2000/svg" xmlns:xlink="http://www.w3.org/1999/xlink" x="0px" y="0px"
	 width="483.459px" height="636.922px" viewBox="0 0 483.459 636.922" enable-background="new 0 0 483.459 636.922"
	 xml:space="preserve">
<path fill="#EEEEEE" d="M-24.77-27.039v675.794h508.228v-39.387c-15.528,34.234-71.981,27.947-111.023,26.742
	c-0.198-18.465-7.559-34.691,6.704-39.465c0.314-35.24-21.162-54.477-33.076-83.963c-11.164-27.627-11.125-56.648-23.266-76.176
	c-15.673-25.219-34.605-37.355-55.61-56.133c-17.227,28.572-42.442,81.123-55.978,81.42c-41.408,1.928-110.113-6.219-147.572,7.635
	c-8.266,10.395-20.779,16.537-25.444,30.533c-18.694-15.355-14.534,31.764-38.166,27.984c-0.729-46.527,13.38-78.217,30.532-106.863
	c11.652,0.297,20.71,13.125,33.078,15.27c29.823,5.168,69.242-17.508,101.774-17.812c21.189-0.197,24.451,2.312,32.689-17.74
	c2-4.867,13.461-31.033,9.889-70.582c-3.921-43.416,10.669-56.664,28.662-69.426c18.311-32.852,6.815-80.904-7.633-109.413
	c-22.118,2.479-36.438,12.756-55.977,17.812c5.694,25.685,13.977,48.785,22.898,71.244c3.28,3.504,11.054,2.516,17.812,2.543
	c4.398-0.105,10.167,12.668,7.695,18.023c-6.044,8.238-23.482,27.189-27.405,18.488c-18.764-42.303-43.519-72.514-59.165-117.934
	c9.229-7.364,27.439-17.173,45.799-27.986c15.502-9.128,30.965-24.069,43.255-27.988c15.208-4.85,40.155,3.428,43.254-15.268
	c4.295-25.918-38.878-17.421-30.533-53.43c-2.957,0.41-4.525-0.562-5.089-2.547c-28.83,8.45-20.75,50.122-63.608,40.71
	c-8.306-1.709,3.802-8.072,10.178-7.634c-0.294-4.235-18.281-2.752-10.757-6.434c-27.707-16.067,8.058,0.785,15.848-1.196
	c6.761-2.562-6.582-6.336-5.09-15.269c3.344,3.267,9.379,3.267,12.722,0c-5.371-31.136,33.782-47.552,50.892-25.442
	c11.657,1.232,15.043-14.817,27.983-17.811c16.718-3.867,39.268,1.627,45.8,10.178c5.564,8.658,3.562,17.948,7.635,27.987
	c1.366,3.374,10.046,11.412,10.178,12.722c0.556,5.506-1.755,34.168-10.178,33.077c-11.566-1.39-19.05,1.307-22.897,7.635
	c-5.48,11.309,13.279,17.252,25.441,20.355c14.396,2.49,21.112,58.608,33.077,86.51c21.746-9.636,36.12-26.645,50.887-43.256
	c-6.037-16.579,3.49-46.256,12.725-38.166c8.106,6.192,12.131,4.203,17.812,10.176c9.562,10.065,12.604,24.22,5.089,33.077
	c-4.484,5.287-13.775,4.985-20.355,10.179c-10.725,8.47-19.438,26.952-30.531,38.166c-14.998,15.16-29.859,33.246-38.166,30.535
	c-10.92-4.348-20.072-10.461-22.898-22.9c-14.854,22.465-17,57.635-33.075,78.877c0.745,1.561,35.122,72.604,53.431,106.863
	c11.68,21.859,20.599,24.453,20.355,55.977c-0.066,8.746,2.713,19.639,5.088,27.988c9.627,33.842,21.367,73.652,38.167,101.775
	c10.667-6.396,5.466-2.684,17.807,7.631c10.688,9.67,47.534-1.248,48.344,12.723V-27.039H-24.77z"/>
</svg>
