<?xml version="1.0" encoding="utf-8"?>
<!-- Generator: Adobe Illustrator 15.0.0, SVG Export Plug-In . SVG Version: 6.00 Build 0)  -->
<!DOCTYPE svg PUBLIC "-//W3C//DTD SVG 1.1//EN" "http://www.w3.org/Graphics/SVG/1.1/DTD/svg11.dtd">
<svg version="1.1" id="Calque_1" xmlns="http://www.w3.org/2000/svg" xmlns:xlink="http://www.w3.org/1999/xlink" x="0px" y="0px"
	 width="1417.32px" height="841.89px" viewBox="0 0 1417.32 841.89" enable-background="new 0 0 1417.32 841.89"
	 xml:space="preserve">
<rect x="-143.331" y="430.011" fill="#DBDBDB" width="1793.911" height="510.054"/>
<linearGradient id="SVGID_1_" gradientUnits="userSpaceOnUse" x1="0.7627" y1="225.958" x2="1418.0171" y2="225.958">
	<stop  offset="0" style="stop-color:#FFFFFF"/>
	<stop  offset="1" style="stop-color:#000000"/>
</linearGradient>
<rect x="0.763" y="-10.696" opacity="0.8" fill="url(#SVGID_1_)" width="1417.254" height="473.307"/>
<path fill="#DBDBDB" d="M1454.073,538.738H0.792c0-22.059,0-131.99,0-154.048c0-14.683,0-29.366,0-44.049
	c0-14.386-3.544-32.809,2.172-46.094c18.869-0.303,37.819,0.301,56.703,0.658c35.676,0.673,136.134,4.716,151.354,4.653
	c79.479-0.331,158.973,0.006,238.453,0.006c52.232,0,104.468-0.175,156.699-0.006c87.477,0.282,174.937-6.789,262.463-8.273
	c111.138-1.885,223.006-1.835,333.489-12.475c22.131-2.131,44.06-4.387,66.354-5.069c26.939-0.825,142.304-10.843,173.776,1.651
	c24.339,9.663,11.819,86.786,11.819,106.368C1454.073,404.996,1454.073,515.803,1454.073,538.738z"/>
<path fill="#1D1E1C" d="M568.333,488.667c-10.547-10.618-19.763-17.781-30.642-25.964c-9.767-7.344-17.146-6.5-28.826-6.5
	c-20.071,0-36.605,6.088-55.854,8.167c-22.724,2.452-20.571,10.002-4.414,34.626c11.477,17.491,25.06,26.373,18.386,52.021
	c-7.531,28.946-26.689,53.145-39.817,76.991c-8.012,14.553-14.301,32.053-23.142,45.48c14.964,41.521,67.363,42.394,94.665,42.518
	c20.104,0.087,46.306,6.19,65.785-4.878c36.78-20.898,29.2-70.621,30.858-114.462c1.194-31.558,0.522-64.773-16.478-91.44"/>
<path fill="#1D1E1C" d="M731.683,517.948c-6.772-0.301-20.395,7.133-24.147,14.831c-8.477,17.38,10.985,23.772,20.566,30.8
	c68.399,50.171,69.872,71.467,105.232,121.458c14.826,20.96,87.046,202.776,85.334,231.298
	c40.082,3.567,114.869-19.346,154.333-25.002c36.035-5.165,72.017-10.682,108.095-15.282c16.93-2.161,44.507-6.604,30.362-23.384
	c-20.898-24.79-171.092-183.346-194.542-205.054c-47.61-44.069-97.245-88.219-156.176-108.465
	c-31.113-10.689-61.855-17.59-93.996-21.232c-12.884-1.46-35.783-6.323-45.511,5.425"/>
<g>
	<path fill="#EAEAEA" d="M567.118-16.714c-0.374,18.096,2.495,36.709,5.82,54.455c1.836,9.793,0.951,20.283,4,29.813
		c2.862,8.955,11.457,18.44,19.196,23.528c3.621,2.381,8.943,2.658,12.715,4.977c5.257,3.235,9.153,9.415,13.203,14.163
		c18.396,21.569,39.233,41,54.721,65.049c6.005,9.327,12.04,20.851,15.835,31.162c2.009,5.458,1.326,12.356,4,17.516
		c9.23-0.89,19.421-11.237,27.513-16.174c4.726-2.884,9.424-5.816,13.327-9.82c5.556-5.703,6.349-9.492,6.331-17.439
		c-0.047-20.459-3.416-40.111-7.668-59.897c-7.94-36.947-25.081-71.545-56.911-93.023c-6.712-4.529-13.319-6.038-17.224-14.025
		c-5.586-11.423-3.871-26.891-3.267-39.872c-10.234,2.394-21.41-2.527-31.75-3.095c-10.691-0.587-22.701-1.189-32.838,2.482
		c-5.641,2.042-24.475,7.383-27.003,10.907"/>
	<path opacity="0.09" fill="#1D1E1C" d="M736.11,120.617c-7.94-36.947-25.081-71.545-56.911-93.023
		c-6.712-4.529-13.319-6.038-17.224-14.025c-5.586-11.423-3.871-26.891-3.267-39.872c-10.234,2.394-21.41-2.527-31.75-3.095
		c-2.92-0.161-5.938-0.32-8.991-0.395c3.611,12.429,12.222,23.356,13.741,36.801c2.079,18.365-24.396,17.886-37.121,24.154
		c-2.125,1.048-10.338,3.997-9.954,7.707c0.475,4.604,12.956,4.86,16.374,4.948c9.951,0.247,19.793-0.652,29.49,2.237
		c8.8,2.62,16.197,8.613,23.622,13.288c12.32,7.761,21.603,21.655,31.175,32.491c9.954,11.266,18.392,27.145,24.781,40.766
		c1.367,2.911,1.852,5.374,2.671,8.218c2.751,9.54,5.844,18.073,9.789,27.38c4.409,10.394,7.771,22.921,8.508,35.121
		c2.27-1.604,4.437-3.347,6.404-5.364c5.556-5.703,6.349-9.492,6.331-17.439C743.731,160.055,740.363,140.403,736.11,120.617z"/>
	<path fill="#FFFFFF" d="M761.726,179.126c-2.865,0.214-6.622-4.584-9.27-5.986c-2.762-1.463-6.437-2.29-9.491-1.226
		c-9.663,3.363-17.559,10.79-24.477,18.169c-2.313,2.467-4.392,4.587-6.381,7.348c-2.107,2.922-5.141,5.898-7.824,8.281
		c-1.614,1.433-3.367,2.64-4.636,4.1c-2.417,2.786-4.983,5.508-7.251,8.352c-3.192,4.005-3.908,8.951-4.535,13.95
		c-0.679,5.407-0.993,13.255,0.138,18.476c0.905,4.181,3.815,10.598,8.05,12.438c2.971,1.293,5.997,0.708,8.767-0.799
		c15.552-8.461,23.648-25.493,33.111-39.586c2.585-3.847,6.248-7.107,8.64-10.977c3.456-5.599,5.935-11.379,10.872-16.012
		c2.3-2.16,4.416-3.677,5.119-6.792c0.696-3.07,0.401-6.427-0.509-9.351c-0.218-0.043-0.448-0.054-0.673-0.032"/>
	<path opacity="0.31" fill="#1D1E1C" d="M762.048,179.51c-0.218-0.043-0.448-0.054-0.673-0.032l0.351-0.353
		c-2.865,0.214-6.622-4.584-9.27-5.986c-2.762-1.463-6.437-2.29-9.491-1.226c-5.958,2.073-11.241,5.693-16.041,9.892
		c1.785,2.052,3.479,4.16,4.864,6.37c1.632,2.607,3.59,5.45,4.95,8.206c2.808,5.688,3.592,12.79,4.562,18.956
		c0.125,0.798,0.264,1.658,0.396,2.546c1.746-2.022,3.512-4.022,4.869-6.218c3.456-5.599,5.935-11.379,10.872-16.012
		c2.3-2.16,4.416-3.677,5.119-6.792C763.252,185.791,762.958,182.434,762.048,179.51z"/>
	<path fill="#E53855" d="M767.884,178.599c-1.968,0.124-3.921-0.886-5.81-1.24c-1.885-0.351-3.921-0.166-5.841-0.167
		c-5.674-0.005-9.483,1.871-14.22,4.751c-4.122,2.508-6.998,5.66-10.213,9.167c-3.845,4.194-7.217,9.058-9.413,14.367
		c-4.29,10.362-7.952,20.892-12.792,31.021c-2.375,4.969-5.177,10.017-8.932,14.212c-3.647,4.077-7.744,7.548-11.651,11.333
		c-7.51,7.272-13.238,17.002-10.917,27.895c0.269,1.26,1.078,3.214,2.516,3.531c2.084,0.457,5.712-4.527,6.837-5.757
		c4.849-5.299,9.329-10.936,14.378-16.049c5.148-5.211,10.46-10.657,14.456-16.814c7.122-10.973,14.143-22.076,22.458-32.189
		c3.333-4.058,6.923-7.892,10.354-11.869c1.874-2.17,4.061-3.7,6.05-5.649c2.689-2.639,5.142-5.691,7.884-8.349
		c1.961-1.902,4.214-3.854,5.574-6.248c1.339-2.353,2.732-6.902,1.623-9.56c-0.421-1.005-1.496-1.916-2.516-2.032"/>
	<path fill="#828281" d="M794.221,192.089c-6.476,2.441,6.836-4.604,1.043-5.943c-9.314-2.15-29.198-12.357-44.317-5.812
		c-16.405,7.102-24.564,22.748-29.103,38.031c-5.156,17.344-12.448,33.368-25.668,45.739c-5.947,5.566-14.062,10.29-16.575,18.416
		c-2.413,7.797-0.072,15.075,2.476,22.65c11.275,33.537,18.671,67.714,21.56,103.193c1.275,15.656-4.434,34.288,7.273,59.266
		c1.284,2.737,0.028-5.093,2.238-3.041c4.666,4.339,5.853-1.112,9.395-5.63c13.967-17.812,27.289-35.735,34.713-57.433
		c11.132-32.529,6.492-65.723,11.5-99.021c1.935-12.879,5.588-26.163,14.685-35.832c5.875-6.244,11.562-13.355,15.517-21.011
		c5.026-9.724,5.769-22.984,2.187-32.917c-1.335-3.699-1.848-8.321-3.732-11.752c-1.677-3.052-6.071-5.065-4.156-8.822
		c-0.449-0.156-0.908-0.183-1.382-0.081"/>
	<path fill="#828281" d="M794.221,192.089c-6.476,2.441,6.836-4.604,1.043-5.943c-9.314-2.15-29.198-12.357-44.317-5.812
		c-16.405,7.102-24.564,22.748-29.103,38.031c-5.156,17.344-12.448,33.368-25.668,45.739c-5.947,5.566-14.062,10.29-16.575,18.416
		c-2.413,7.797-0.072,15.075,2.476,22.65c11.275,33.537,18.671,67.714,21.56,103.193c1.275,15.656-4.434,34.288,7.273,59.266
		c1.284,2.737,0.028-5.093,2.238-3.041c4.666,4.339,5.853-1.112,9.395-5.63c13.967-17.812,27.289-35.735,34.713-57.433
		c11.132-32.529,6.492-65.723,11.5-99.021c1.935-12.879,5.588-26.163,14.685-35.832c5.875-6.244,11.562-13.355,15.517-21.011
		c5.026-9.724,5.769-22.984,2.187-32.917c-1.335-3.699-1.848-8.321-3.732-11.752c-1.677-3.052-6.071-5.065-4.156-8.822
		c-0.449-0.156-0.908-0.183-1.382-0.081"/>
	<g opacity="0.2">
		<path fill="#1D1E1C" d="M793.131,192.467c0.275-0.083,0.627-0.204,1.09-0.377h-1.37c0.134,0.022,0.272,0.034,0.405,0.081
			C793.205,192.272,793.175,192.367,793.131,192.467z"/>
		<path fill="#1D1E1C" d="M801.144,212.745c-1.335-3.699-1.848-8.321-3.732-11.752c-1.631-2.97-5.817-4.96-4.281-8.525
			c-0.908,0.275-0.875,0.084-0.398-0.377h0.119c-0.034-0.007-0.066-0.016-0.097-0.021c1.427-1.372,6.5-5.001,2.51-5.923
			c-9.314-2.15-29.198-12.357-44.317-5.812c-8.599,3.722-14.913,9.801-19.649,16.935c4.388,10.129,4.329,21.03,1.666,32.615
			c-2.49,10.843-4.051,21.584-6.816,32.447c-3.623,14.233-6.1,29.386-7.715,43.973c-2.234,20.172-5.057,39.83-10.638,59.302
			c-2.178,7.596-4.248,15.237-6.26,22.895c0.858,6.578,1.559,13.196,2.102,19.862c1.275,15.656-4.434,34.288,7.273,59.266
			c1.284,2.737,0.028-5.093,2.238-3.041c4.666,4.339,5.853-1.112,9.395-5.63c13.967-17.812,27.289-35.735,34.713-57.433
			c11.132-32.529,6.492-65.723,11.5-99.021c1.935-12.879,5.588-26.163,14.685-35.832c5.875-6.244,11.562-13.355,15.517-21.011
			C803.984,235.938,804.726,222.678,801.144,212.745z"/>
	</g>
	<path fill="#585756" d="M722.839,417.373c-4.84,0.118-8.908-2.402-13.491-3.168c-1.829-0.304-3.838-0.406-5.574-0.844
		c-0.058-0.071-0.054-0.08,0.015-0.024c0.279,1.496-0.156,3.724-0.297,5.287c-0.173,1.939-0.534,3.968-0.716,5.949
		c-0.373,4.057-0.175,8.284,0.007,12.319c0.225,4.925-0.223,9.603,0.867,14.452c0.684,3.053,1.338,6.549,2.468,9.464
		c1.008,2.603,3.754,8.526,7.016,8.799c0.252-7.275,2.694-14.199,4.37-21.241c1.203-5.058,1.854-10.461,3.56-15.381
		c0.441-1.275,1.382-2.312,1.831-3.509c0.427-1.139,0.335-2.38,0.461-3.607c0.191-1.835,1.35-4.923,0.677-6.814
		c-0.327-0.919-0.974-1.045-1.371-1.857"/>
	<path fill="#A5A4A3" d="M739.204,277.487c0.667-6.275-3.451-14.15-4.84-20.287c-1.4-6.189-2.757-12.14-3.538-18.441
		c-1.175-9.49-1.124-18.883-1.124-28.425c0-4.864,0.167-10.044,2.549-14.314c1.712-3.068,4.521-6.939,7.654-8.974
		c1.214,18.876-0.796,38.554,1.322,57.453c0.837,7.474,2.036,16.709,0.799,24.2c-0.397,2.399-1.813,4.724-2.122,7.03"/>
	<path fill="#EAEAEA" d="M437.143-5.454c0,19.185-1.242,37.534-2.345,56.322c-0.698,11.896-2.929,23.71-4.223,35.508
		c-1.349,12.271-1.408,24.792-1.408,37.206c0,20.943,1.338,40.585,6.101,60.623c4.753,20.005,10.706,39.639,15.47,59.521
		c2.137,8.928,5.335,17.755,8.575,26.241c3.31,8.662,4.178,17.343,7.016,26.313c4.878,15.423,9.776,30.979,10.555,47.132
		c0.396,8.269,1.222,14.623,7.546,20.056c3.865,3.324,7.054,6.33,12.647,5.434c4.252-0.685,10.971-4.19,14.318-6.827
		c6.313-4.975,10.567-11.945,17.714-14.206c2.537-0.802,2.246,1.66,3.741-1.434c1.002-2.07-0.065-2.926-0.795-4.794
		c-1.038-2.658-3.027-5.009-4.013-7.824c-2.898-8.275-4.561-14.692-4.561-23.955c0-8.785,1.406-16.989,1.406-25.809
		c0-18.125-0.409-36.008-1.302-53.96c-0.849-17.06,3.277-33.915,1.666-50.676c-1.683-17.524-1.839-35.182-5.03-52.107
		c-7.928-42.039,5.744-85.821,3.727-128.41c-0.293-6.221-0.208-12.582-0.538-18.831c-15.425-4.932-36.892,3.178-52.117,6.159
		c-7.612,1.491-14.855,3.058-22.429,4.562c-3.297,0.654-11.447,1.592-12.714,4.704c0.199,0.872,0.543,0.091,0.994,0.458"/>
	<path opacity="0.09" fill="#1D1E1C" d="M505.219,46.467c-1.564,8.891-3.09,17.603-4.273,26.577
		c-0.989,7.517-0.068,17.237-5.014,23.43c-4.016,5.028-9.208,6.261-15.138,7.872c-8.566,2.327-16.558,4.779-24.443,9.042
		c-5.94,3.209-13.124,7.095-6.034,12.947c9.283,7.663,22.476,8.545,31.729,16.535c4.922,4.25,6.16,6.313,8.501,12.195
		c4.956,12.452,10.473,23.972,13.263,37.066c3.37,15.83,2.312,33.179,2.312,49.304c0,16.55,2.588,32.947,3.292,49.42
		c0.349,8.103-4.88,15.665-6.123,23.75c-0.529,3.434-1.59,6.333-0.029,9.575c2.502,5.199,8.331,9.868,11.949,14.363
		c3.692,4.588,4.051,6.912,5.352,12.113c0.155,0.619,0.341,1.372,0.556,2.197c2.393-2.174,4.925-4.012,7.99-4.982
		c2.537-0.802,2.246,1.66,3.741-1.434c1.002-2.07-0.065-2.926-0.795-4.794c-1.038-2.658-3.027-5.009-4.013-7.824
		c-2.898-8.275-4.561-14.692-4.561-23.955c0-8.785,1.406-16.989,1.406-25.809c0-18.125-0.409-36.008-1.302-53.96
		c-0.849-17.06,3.277-33.915,1.666-50.676c-1.683-17.524-1.839-35.182-5.03-52.107c-7.928-42.039,5.744-85.821,3.727-128.41
		c-0.293-6.221-0.208-12.582-0.538-18.831c-4.029-1.288-8.471-1.673-13.106-1.506C510.125,1.404,509.198,23.83,505.219,46.467z"/>
	<path fill="#FFFFFF" d="M476.883,343.413c-1.106,0.785-1.51,0.323-2.626,1.333c-0.724,0.655-1.312,2.148-1.496,3.079
		c-0.616,3.136-0.561,6.694-0.836,9.941c-0.29,3.428-0.528,6.866-0.528,10.356c0,4.584,0.179,9.01,0.347,13.575
		c0.183,4.917,1.565,10.229,6.059,12.876c7.948,4.693,16.428-0.333,23.784-3.51c1.694-0.73,3.343-1.75,5.131-2.226
		c1.902-0.509,3.819-0.387,5.668-1.155c3.594-1.495,6.753-2.222,10.572-3.077c1.988-0.445,3.984-0.465,5.928-0.869
		c2.492-0.518,4.787-2.931,6.839-4.297c2.552-1.695,6.01-3.784,6.542-7.025c0.57-3.466,0.585-7.492,0.392-11.035
		c-0.243-4.399-2.907-9.132-4.615-13.197c-0.941-2.244-2.097-4.426-2.907-6.644c-0.978-2.675-1.952-3.172-4.768-3.169
		c0.9,1.589,1.513,6.405-0.066,7.701c-2.042,1.677-6.015,1.536-8.584,1.406c-8.747-0.437-17.331,3.317-26.077,3.726
		c-3.953,0.186-10.574,1.672-14.167-0.387C478.483,349.1,477.365,346.495,476.883,343.413c-0.322,0.036-0.037,0.312-0.207,0.585"/>
	<path opacity="0.31" fill="#1D1E1C" d="M542.66,361.38c-0.243-4.399-2.907-9.132-4.615-13.197
		c-0.941-2.244-2.097-4.426-2.907-6.644c-0.978-2.675-1.952-3.172-4.768-3.169c0.9,1.589,1.513,6.405-0.066,7.701
		c-2.042,1.677-6.015,1.536-8.584,1.406c-1.584-0.079-3.163-0.017-4.739,0.135c0.827,8.391,2.5,20.313,5.62,26.123
		c3.437,6.4-24.662,15.994-43.37,21.574c7.528,3.359,15.437-1.259,22.356-4.245c1.694-0.73,3.343-1.75,5.131-2.226
		c1.902-0.509,3.819-0.387,5.668-1.155c3.594-1.495,6.753-2.222,10.572-3.077c1.988-0.445,3.984-0.465,5.928-0.869
		c2.492-0.518,4.787-2.931,6.839-4.297c2.552-1.695,6.01-3.784,6.542-7.025C542.838,368.949,542.853,364.923,542.66,361.38z"/>
	<path fill="#E53855" d="M470.812,363.823c0.275-0.357,1.014-1.247,1.758-1.409c1.312-0.285,1.372,0.668,1.642,1.76
		c0.507,2.058,0.407,4.271,0.708,6.361c0.457,3.153,0.847,6.171,1.959,9.211c0.818,2.232,1.291,5.557,3.667,6.744
		c2.539,1.27,4.186-1.761,5.719-3.694c2.647-3.34,5.015-8.701,7.301-12.318c3.455-5.457,7.665-8.376,14.341-9.765
		c4.062-0.844,8.578-0.11,12.691-0.534c3.898-0.4,7.778-2.105,11.678-2.105c2.045,0,4.32,0.892,5.721,2.501
		c1.05,1.203-0.503,2.35-1.756,2.78c-2.954,1.013-6.051,1.656-9.125,2.194c-9.89,1.729-20.508,7.135-26.869,15.044
		c-3.213,3.995-6.313,8.122-10.2,11.503c-3.603,3.134-7.996,6.265-12.936,6.33c-7.928,0.104-7.513-8.617-7.942-14.323
		c-0.256-3.419-0.119-6.897-0.119-10.334c0-2.411-0.566-5.648,0.146-7.989c0.293-0.97,0.846-1.38,1.632-1.981
		c0.08,0.097,0.034,0.184-0.137,0.255"/>
	<path fill="#828281" d="M525.376,362.781c1.672-0.474,3.184-1.16,4.795-1.716c3.201-1.101,6.053-2.58,8.609,0.217
		c4.545,4.973,9.315,9.543,11.759,15.963c1.372,3.607,1.973,7.917,2.679,11.66c0.36,1.914,0.604,3.865,0.704,5.804
		c0.084,1.668-0.509,3.444-0.186,5.063c0.859,4.275,3.313,8.428,4.373,12.672c0.794,3.171,0.772,6.632,0.915,9.854
		c0.156,3.589-1.436,2.287-4.223,2.287c-1.471,0-2.862,0.105-4.231,0.344c-3.43,0.596-7.076,1.893-10.685,2.12
		c-6.671,0.421-13.594,1.692-19.923,3.338c-5.788,1.507-11.551,3.112-16.889,6.031c-5.029,2.75-12.157,7.616-17.959,4.526
		c-3.286-1.748-5.904-2.459-9.688-2.459c-3.329,0-6.51,0.223-9.708,0.833c-3.639,0.694-7.043,2.135-10.684,2.87
		c-2.955,0.597-6.111,0.552-9.149,0.705c-1.793,0.09-7.274,0.599-8.495-0.664c-0.574-0.593-0.916-2.881-1.184-3.744
		c-0.407-1.306-0.456-2.82-0.527-4.223c-0.169-3.316,0.215-5.768,1.719-8.641c1.64-3.13,4.822-5.187,7.254-7.741
		c5.139-5.398,10.283-10.672,12.278-17.968c1.625-5.949,3.162-12.004,4.795-18.089c0.954-3.561,2.578-6.978,3.157-10.552
		c0.461-2.839,3.833-9.216,7.367-8.773c0.091,1.43-0.311,2.625-0.324,4.109c-0.014,1.494,0.756,4.124,0.753,5.708
		c-0.002,2.842,0.806,4.561,1.573,7.225c0.756,2.632,1.861,5.706,3.432,7.958c2.076,2.976,4.711,2.654,7.224,0.449
		c2.617-2.297,4.424-5.237,6.066-8.222c1.502-2.733,3.435-5.003,5.014-7.574c1.965-3.202,3.892-5.856,7.213-7.605
		c2.989-1.575,5.997-1.72,9.37-1.72c1.543,0,2.97,0.072,4.395,0.356C520.018,363.794,522.309,363.654,525.376,362.781z"/>
	<path fill="#A5A4A3" d="M553.745,394.673c-0.728,0.026-0.446-0.857-0.832-1.588c-0.546-1.034-1.326-1.5-2.379-1.979
		c-2.129-0.971-4.467-1.533-6.745-1.882c-6.477-0.995-11.904,1.249-17.314,4.699c-6.994,4.462-14.242,9.263-20.427,14.87
		c-3.95,3.582-7.218,7.879-11.078,11.549c-4.567,4.346-9.133,8.691-13.571,13.156c-2.821,2.836-5.042,5.92-6.649,9.531
		c2.019,0.507,5.248,2.894,7.245,2.674c1.33-0.145,2.687-2.197,3.521-3.208c1.678-2.03,3.116-4.273,4.837-6.251
		c6.334-7.29,13.309-14.168,20.111-20.978c6.274-6.284,14.323-12.07,22.302-16.021c4.637-2.293,12.217-4.318,17.109-2.106
		c1.328,0.6,2.835,1.15,3.488,2.448c-0.339-1.265,0.954-4.299-0.321-4.736"/>
	<path fill="#585756" d="M453.686,443.004c-0.767,0.225-2.167-1.629-2.607-2.258c-1.083-1.551-1.77-3.229-2.667-4.899
		c-1.769-3.29-2.639-6.373-2.965-10.087c-0.19-2.175-0.333-4.217,0.147-6.339c0.308-1.365,1.066-2.693,1.268-3.965
		c-1.298,0.772-2.412,2.688-3.626,3.825c-1.191,1.113-2.655,2.284-3.787,3.53c-1.333,1.467-2.205,2.994-2.939,4.799
		c-0.612,1.508-1.182,2.872-1.142,5.688c0.039,2.564,0.638,6.879,2.508,8.797c0.932,0.955,2.865,1.351,4.139,1.497
		c2.156,0.247,4.783,1.221,6.918,0.799c0.917-0.178,1.794-0.662,2.665-0.908c0.502-0.143,1.691-0.566,1.617-0.595"/>
	<path opacity="0.2" fill="#1D1E1C" d="M559.023,422.299c-0.143-3.222-0.121-6.683-0.915-9.854
		c-1.06-4.244-3.514-8.396-4.373-12.672c-0.323-1.619,0.27-3.395,0.186-5.063c-0.1-1.939-0.344-3.89-0.704-5.804
		c-0.706-3.743-1.307-8.053-2.679-11.66c-2.444-6.42-7.214-10.99-11.759-15.963c-2.556-2.797-5.408-1.318-8.609-0.217
		c-1.611,0.556-3.123,1.243-4.795,1.716c-3.067,0.873-5.358,1.013-8.411,0.401c-1.425-0.284-2.852-0.356-4.395-0.356
		c-1.41,0-2.754,0.031-4.062,0.177c2.089,16.222,7.961,40.031,15.91,46.804c19.528,16.63-19.473,8.093-59.475,31.906
		c0.073,0.707-24.716,3.363-24.516,4.007c0.269,0.863-3.613-4.082-3.039-3.489c1.22,1.263,6.701,0.754,8.495,0.664
		c3.039-0.153,6.194-0.108,9.149-0.705c3.641-0.735,7.045-2.176,10.684-2.87c3.198-0.61,6.379-0.833,9.708-0.833
		c3.784,0,6.402,0.711,9.688,2.459c5.802,3.09,12.93-1.776,17.959-4.526c5.338-2.919,11.102-4.524,16.889-6.031
		c6.329-1.646,13.251-2.917,19.923-3.338c3.609-0.228,7.255-1.524,10.685-2.12c1.37-0.238,2.76-0.344,4.231-0.344
		C557.587,424.586,559.18,425.888,559.023,422.299z"/>
	<path fill="#FFFFFF" d="M572.22,459.074c0.041-2.932,0.977-5.671,0.703-8.798c-0.25-2.862-1.706-5.478-2.82-8.093
		c-1.091-2.561-2.31-5.266-2.952-7.963c-0.705-2.965-1.429-5.826-3.95-7.654c-4.547-3.299-11.379-2.385-16.487-1.628
		c-2.987,0.442-6.036,1.52-9.149,1.76c-3.153,0.241-6.068,1.258-9.159,1.407c-3.335,0.16-6.021,0.394-9.149,1.228
		c-3.294,0.878-6.159,2.353-9.322,3.523c-3.18,1.175-5.888,2.622-8.798,4.218c-2.635,1.445-5.226,3.359-8.273,3.35
		c-2.117-0.01-4.156-0.248-6.159-0.75c-1.744-0.434-4.358-1.996-5.944-1.735c-0.475-0.444-3.321-0.281-4.312-0.33
		c-1.673-0.083-3.371,0.002-5.049,0c-3.819-0.006-7.406,1.384-11.089,1.938c-6.027,0.908-11.655,2.516-17.946,1.933
		c-1.378-0.128-3.471,0.204-4.761-0.35c-1.366-0.587-0.151-1.763-1.962-1.53c-3.661,0.471-2.561,7.528-2.429,9.975
		c0.146,2.705,0.116,7.832,2.278,9.857c2.052,1.92,5.513,3.715,8.103,4.396c3.498,0.914,7.27,0.342,10.896,0.874
		c4.395,0.646,8.453-0.562,12.697-1.184c3.959-0.579,7.135-0.813,8.651,3.3c1.065,2.882,2.737,4.876,5.55,6.204
		c2.734,1.298,5.702,1.043,8.797,1.182c3.827,0.175,7.219-0.021,10.954-1.1c4.057-1.172,8.233-2.243,12.219-3.294
		c4.049-1.062,8.527-1.538,12.391-3.029c3.1-1.193,6.469-1.434,9.699-1.898c3.615-0.52,7.289-1.471,10.905-2.073
		c7.215-1.198,14.698-1.63,21.81-2.685c1.268-0.189,2.816-0.041,3.704-0.874"/>
	<path fill="#DBDBDB" d="M474.741,462.944c-0.972-2.632,0.141-6.319-0.176-9.148c-0.146-1.275-0.744-2.895-2.288-2.99
		c-1.286-0.079-2.931,1.898-3.881,2.769c-3.78,3.465-7.917,6.848-12.834,8.32c-1.537,0.461-6.509,1.495-3.558,3.734
		c2.09,1.584,7.032,0.356,9.367,0.124c2.729-0.273,5.851-0.438,8.619-0.167c0.885,0.083,2.567,1.139,3.306,0.843
		C474.383,465.999,475.091,465.702,474.741,462.944"/>
	<path fill="#E53855" d="M434.329,457.432c-2.38,5.481,15.04,9.745,18.493,9.906c4.35,0.201,8.996,0.181,13.466,0.181
		c1.971,0,4.668-0.537,6.517-0.231c2.055,0.338,3.102,2.159,4.274,3.694c5.02,6.573,13.155,8.404,20.829,8.034
		c7.271-0.353,7.775-0.377,12.785-1.526c3.236-0.743,7.999-1.672,11.261-2.109c5.631-0.758,11.651-2.343,16.658-3.17
		c8.176-1.351,15.152-3.583,23.226-5.729c3.806-1.011,9.291-1.483,10.381-7.406c-2.699-2.571-7.395-0.895-10.728-0.467
		c-5.774,0.741-11.511,2.3-17.298,3.461c-6.691,1.338-13.39,1.987-19.892,3.809c-5.856,1.64-11.851,3.054-17.771,4.693
		c-7.799,2.161-15.443,3.878-23.169,0.658c-3.627-1.514-5.78-4.862-9.164-6.472c-3.325-1.579-6.65-0.929-10.073-0.756
		c-5.753,0.287-12.233,0.261-17.831-0.353c-5.144-0.564-8.462-2.349-12.266-5.705c-0.301,0.045-0.229,0.263-0.404,0.428"/>
	<path fill="#FFFFFF" d="M783.399,187.074c-15.354,3.989-26.713,12.617-34.341,26.952c-8.529,16.034-6.729,33.329-9.28,50.815
		c-2.524,17.323-5.031,34.209-4.212,52.507c0.582,13.031,1.773,24.979,0.002,38.014c-1.603,11.791-6.527,22.339-9.371,33.732
		c-4.519,18.08-13.24,36.357-14.925,54.601c-0.654,7.082-2.618,16.403-0.574,23.341c0.808,2.744,3.088,4.677,6.333,5.997
		c3.182,1.293,8.079,1.308,10.91,1.165c3.872-0.198,10.638-0.196,13.608-1.518c9.953-1.292,8.031-3.42,14.152-5.602
		c11.849-4.223,12.555-3.043,20.683-7.038c16.395-8.052,34.363-20.289,44.579-35.512c12.003-17.888,18.757-36.688,17.597-58.596
		c-0.904-17.047-15.89-36.03-10.452-53.255c3.068-9.716,12.211-10.968,16.611-25.924c3.931-13.369,6.558-21.345,7.214-35.369
		c0.344-7.39,0.38-15.113-0.88-21.291c-0.741-3.638-2.287-8.621-5.806-14.429c-2.178-3.594-3.829-4.639-8.61-10.303
		c-2.609-3.091-10.302-7.265-13.737-8.875c-7.766-3.64-14.426-5.82-22.59-8.509c-3.712-1.22-6.845-2.928-10.783-2.929
		C786.655,185.049,786.346,186.179,783.399,187.074"/>
	<path fill="#E53855" d="M837.499,357.627c1.112,6.07,1.143,8.722,0.944,12.765c-1.098,22.46-3.294,40.563-19.209,56.6
		c-7.186,7.239-14.486,16.135-22.848,21.979c-9.617,6.72-22.46,13.276-33.424,17.709c-9.835,3.98-30.319,10.409-41.006,7.41
		c-8.566-2.403-2.622-17.11-0.569-23.229c4.327-12.902,7.354-19.547,11.365-29.323c4.575-11.145,10.082-17.741,16.06-26.748
		c12.363-18.63,26.523-33.965,44.998-46.475c7.079-4.792,16.107-8.604,24.81-8.423c8.074,0.169,16.86,7.839,18.388,16.008"/>
	<path fill="#E53855" d="M776.858,216.488c7.505-13.303,26.126-14.225,39.987-15.473c9.646-0.868,21.29,3.999,26.92,11.983
		c6.267,8.89,10.696,21.103,1.256,24.3c-3.512,1.19-11.884,1.006-11.308,6.793c3.608,2.486,7.717-0.679,11.65,0.526
		c4.236,1.297,4.506,5.052,4.693,8.951c0.383,8.052-1.315,15.484-2.792,23.005c-3.12,15.886-10.106,28.427-26.325,34.124
		c-2.262,0.793-8.631,3.111-10.205,1.053c-1.781-2.336,2.17-10.538,2.838-12.7c2.893-9.382,3.087-19.159,4.563-28.848
		c1.34-8.792,3.411-16.548-1.044-24.622c-3.319-6.018-11.169-8.046-16.879-11.131C792.361,230.203,780.037,224.319,776.858,216.488"
		/>
	<path fill="#E53855" d="M797.973,246.988c-2.13-2.04-4.101-3.123-6.465-5.732c-2.095-2.314-6.039-5.097-8.548-6.845
		c-2.951-2.054-5.842-4.235-9.387-4.291c-4.537-0.07-4.556,1.739-6.453,5.607c-7.643,15.585-6.685,36.182-6.685,53.607
		c0,9.734-0.782,18.984,5.277,26.498c4.66,5.778,11.594,7.661,19.111,5.409c8.425-2.525,8.761-10.463,7.987-18.415
		c-0.795-8.15-1.876-16.247-1.876-24.87c0-4.758,2.51-10.926,4.222-21.205"/>
	<path opacity="0.2" fill="#1D1E1C" d="M845.364,244.617c-3.934-1.206-8.042,1.959-11.65-0.526
		c-0.576-5.787,7.796-5.603,11.308-6.793c9.44-3.197,5.011-15.41-1.256-24.3c-5.63-7.984-17.274-12.851-26.92-11.983
		c-2.565,0.231-5.299,0.452-8.091,0.741c1.447,0.543,2.836,1.032,4.095,1.337c5.43,1.306,10.689,2.815,15.855,4.967
		c5.434,2.264,6.852,4.159,9.397,8.977c1.547,2.928,3.373,6.14,2.027,9.488c-2.55,6.335-10.51,7.236-14.385,11.619
		c-1.754,1.983-1.763,6.196-1.384,8.657c0.592,3.866,3.048,4.903,5.338,7.821c6.886,8.773,10,20.558,5.834,30.939
		c-3.023,7.534-5.89,15.364-9.327,22.771c-0.021,0.044-0.043,0.089-0.063,0.133c12.552-6.392,18.36-17.826,21.122-31.892
		c1.477-7.521,3.176-14.953,2.792-23.005C849.87,249.669,849.6,245.914,845.364,244.617z"/>
	<path opacity="0.2" fill="#1D1E1C" d="M797.973,246.988c-2.13-2.04-4.101-3.123-6.465-5.732c-2.095-2.314-6.039-5.097-8.548-6.845
		c-2.951-2.054-5.842-4.235-9.387-4.291c-3.305-0.05-4.212,0.897-5.194,2.909c2.779,2.766,6.073,5.372,8.513,7.533
		c6.438,5.706,7.357,9.761,7.357,18.095c0,13.519-0.469,26.955,0.018,40.461c0.255,7.083,1.256,15.908-1.252,22.43
		c-0.019,0.054-0.047,0.108-0.068,0.162c0.621-0.13,1.246-0.28,1.877-0.469c8.425-2.525,8.761-10.463,7.987-18.415
		c-0.795-8.15-1.876-16.247-1.876-24.87c0-4.758,2.51-10.926,4.222-21.205L797.973,246.988z"/>
	<path opacity="0.2" fill="#1D1E1C" d="M837.499,357.627l-0.493-1.727c-1.528-8.169-10.314-15.839-18.388-16.008
		c-2.818-0.059-5.669,0.305-8.479,0.982c7.106,14.39,9.045,27.708,2.078,43.422c-7.767,17.524-19.783,39.148-32.649,52.529
		c-9.018,9.376-23.338,16.994-34.42,23.639c-6.447,3.862-13.423,9.456-20.804,14.11c11.121,1.615,29.47-4.194,38.617-7.896
		c10.964-4.433,23.808-10.989,33.424-17.709c8.362-5.844,15.662-14.739,22.848-21.979c15.915-16.037,18.112-34.14,19.209-56.6
		C838.642,366.349,838.611,363.697,837.499,357.627z"/>
</g>
<path opacity="0.72" fill="#1D1E1C" d="M129.669,442.824c2.035-6.126,18.349,5.288,33.315,1.801
	c2.68,1.069-1.926,8.226-3.805,12.292c-2.393,5.178-1.526,5.335-3.169,11.72c-5.177,20.104-12.397,22.171-21.308,30.185
	c-9.408,8.46-15.985,25.091-21.625,44.441c-7.884,27.058-9.552,50.794-5.305,72.854c1.611,8.375,3.13,8.879,7.576,11.109
	c14.984,7.52,30.402,13.67,45.138,22.193c13.98,8.086,26.836,23.358,36.792,43.589c7.115,14.462,9.776,32.64,13.45,52.911
	c3.505,19.346,3.277,36.345,3.459,58.715c0.033,4.086,0.685,9.073,0.481,13.18c-0.289,5.799-1.601,17.576-3.064,23.034
	c-3.229,12.055-0.919,8.356-7.837,12.73c-16.14,10.207-31.42,18.968-47.143,21.489c-26.142,4.195-50.763-4.502-75.467-9.071
	c-27.364-5.061-54.994-8.954-82.144-15.147c-5.429-1.238-12.211-7.729-18.693,1.116c-8.847,12.077-6.464,18-15.022,12.523
	c-15.952-10.207-32.11-23.191-46.841-37.838c-5.124-5.099-7.021-11.941-5.818-27.233c0.942-11.961,5.037-24.903,8.955-35.009
	c9.491-24.466,20.074-48.335,29.959-72.243c4.712-11.399,10.599-22.297,15.743-33.99c23.87-54.249,51.832-99.614,81.522-126.6
	c13.336-12.123,26.486-25.438,39.817-35.75c11.312-8.755,22.285-8.628,33.336-16.224c3.257-2.242,10.161-7.271,11.583-16.388
	C134.376,457.941,130.393,447.689,129.669,442.824"/>
<path opacity="0.72" fill="#1D1E1C" d="M1537.141,454.645c-34.335-0.105-69.343-7.02-103.271-11.52
	c-28.8-3.822-57.028-7.391-85.288-11.85c-44.029-6.945-84.266-21.809-128.544-23.366c-5.491-0.193-13.945-1.04-18.502,0.834
	c7.543,3.475,65.996,1.568,64.247,16.565c-6.944,0.389-19.904-2.9-24.84,2.422c10.049,4.215,23.986,9.227,29.701,18.814
	c-33.318,6.408-71.158,0.912-103.67-7.566c-16.875-4.404-34.766-4.789-51.095-11.41c-8.799-3.57-17.918-7.096-26.683-10.665
	c-4.938-2.011-13.271-3.483-16.165-8.16c3.144-2.32,7.741-2.298,11.757-3.522c-16.048-8.287-43.111-4.839-61.124-4.823
	c-9.341,0.009-40.666-6.635-46.422,2.338c10.034,0.657,50.69-0.36,44.395,16.271c-0.552,1.457-4.885,2.47-5.482,4.532
	c-1.589,5.486,4.263,7.867,8.548,10.426c7.467,4.463,15.842,5.711,24.216,7.729c23.766,5.721,45.35,12.965,67.982,22.361
	c43.391,18.018,88.619,31.268,131.002,51.557c35.185,16.844,70.622,30.879,107.086,44.693c26.261,9.949,50.616,24.877,76.61,36.043
	c21.996,9.447,43.431,19.131,66.357,26.064c16.645,5.037,34.234,13.754,52.071,12.514c4.174-0.289,5.826,0.684,8.814-1.715
	c6.86-5.5,6.064-32.633,6.689-40.039c2.269-26.928,7.265-54.631,6.738-81.703c-0.215-11.127-1.787-55.846-14.27-60.158
	c-5.928-2.049-19.324,3.24-25.867,4.168"/>
<path fill="#D7D9D8" d="M941.254-2.293c-9.348,8.774-16.439,18.809-25.375,27.091c-5.302,4.914-14.055,7.421-21.187,7.395
	c-14.07-0.054-22.359-12.031-32.179-20.321C855.05,5.569,847.191-0.382,840.662-6.74c22.103-1.898,46.098-1.44,68.241,0.745
	c8.811,0.87,24.06,0.44,30.487,6.499"/>
<g opacity="0.09">
	<path fill="#1D1E1C" d="M896.066,26.46c-2.799,1.967-5.782,3.378-8.917,4.48c2.335,0.785,4.831,1.241,7.543,1.252
		c7.132,0.027,15.884-2.48,21.187-7.395c8.155-7.558,14.779-16.574,22.978-24.76c-4.122-3.426-11.259-4.601-18.141-5.193
		C915.376,6.99,906.208,19.331,896.066,26.46z"/>
	<path fill="#1D1E1C" d="M941.254-2.293c-0.817,0.767-1.612,1.546-2.397,2.331c0.183,0.151,0.363,0.304,0.533,0.465L941.254-2.293z"
		/>
</g>
<path fill="#FFFFFF" d="M126.814,366.268c-1.858,0.644-4.662,3.652-5.752,5.307c-1.379,2.096-2.38,5.32-2.689,7.802
	c-0.69,5.53,0.845,10.449,5.048,14.078c3.379,2.915,9.609,5.678,9.022,11.034c-0.165,1.516-0.939,2.805-1.3,4.269
	c-0.375,1.535-0.269,3.071-0.269,4.665c0,4.213,0.916,6.998,3.865,10.117c4.398,4.652,11.083,6.334,17.352,6.441
	c4.323,0.076,10.531,0.344,12.625-4.293c0.54-1.193,0.651-2.512,0.669-3.826c0.061-4.341-2.436-6.882-5.797-9.682
	c-5.333-4.443-10.374-8.195-13.859-14.448c-2.854-5.119-5.197-10.771-8.643-15.538c-1.812-2.508-3.865-4.531-4.157-7.75
	c-0.318-3.482,0.194-4.68-2.303-7.446c-0.537-0.597-1.057-1.059-1.343-1.799C128.439,365.118,127.424,365.792,126.814,366.268"/>
<path fill="#C0BFBF" d="M256.74,120.938c-1.334,4.734-4.863,9.423-7.112,13.81c-3.261,6.357-6.542,12.703-9.738,19.111
	c-4.976,9.975-10.848,19.799-14.998,30.136c-3.509,8.742-6.678,17.833-10.004,26.736c-2.071,5.547-5.402,10.332-6.878,16.083
	c-3.246,12.648-1.067,26.355-1.85,39.338c-0.501,8.327-1.319,16.998-3.53,25.023c-1.268,4.6-3.25,9.029-3.974,13.743
	c-2.512,16.351-11.04,31.892-16.264,47.461c-2.587,7.706-5.017,15.405-7.639,23.025c-1.874,5.448-4.098,11.085-5.502,16.582
	c-6.955,0.466-14.481-5.999-20.207-9.651c-4.797-3.059-10.352-7.135-4.755-12.233c8.381-7.636,12.505-13.393,12.508-24.925
	c0.002-11.521,0.011-22.986-0.632-34.433c-0.337-5.99-0.345-12.011-0.305-18.03c0.047-6.964,3.082-14.471,6.175-20.635
	c3.877-7.724,5.608-17.037,5.691-25.557c0.145-14.646,0.672-28.486,2.876-43.04c0.88-5.812,2.732-11.246,3.98-16.918
	c1.866-8.492,0.169-18.643,0.427-27.258c0.443-14.897,2.593-30.928,11.742-43.309c4.235-5.73,11.01-8.524,16.609-12.625
	c4.581-3.354,6.597-5.622,12.729-6.116c5.33-0.429,11.308-0.48,16.567,0.351c3.397,0.536,9.068,1.095,11.873,3.42
	c2.145,1.78,3.117,3.15,5.723,4.546c5.559,2.98,10.234,5.798,11.257,12.577c0.52,3.432-1.572,8.925-5.082,5.599"/>
<path opacity="0.09" fill="#1D1E1C" d="M261.509,118.15c-1.023-6.779-5.698-9.597-11.257-12.577
	c-2.606-1.396-3.578-2.766-5.723-4.546c-0.298-0.247-0.643-0.464-1-0.674c-2.695,9.339-7.701,18.777-10.941,27.464
	c-4.48,12.01-9.38,23.763-14.063,35.71c-8.292,21.159-13.173,43.99-24.376,63.483c-3.231,5.623-6.438,9.403-11.033,13.536
	c-3.672,3.303-4.101,5.383-1.146,8.941c10.402,12.524,11.722,33.989,8.671,49.767c-2.566,13.273-6.643,25.917-10.014,38.974
	c-2.539,9.838-5.141,19.706-9.986,28.683c-4.013,7.435-10.144,13.851-16.863,18.633c4.826,3.309,10.306,6.788,15.473,6.442
	c1.404-5.497,3.628-11.134,5.502-16.582c2.623-7.62,5.052-15.319,7.639-23.025c5.224-15.569,13.752-31.11,16.264-47.461
	c0.725-4.714,2.706-9.143,3.974-13.743c2.211-8.025,3.028-16.696,3.53-25.023c0.783-12.983-1.396-26.69,1.85-39.338
	c1.476-5.752,4.807-10.537,6.878-16.083c3.326-8.903,6.495-17.995,10.004-26.736c4.15-10.337,10.022-20.161,14.998-30.136
	c3.196-6.408,6.477-12.754,9.738-19.111c2.25-4.387,5.778-9.076,7.112-13.81l-0.313,2.811
	C259.937,127.076,262.028,121.583,261.509,118.15z"/>
<path fill="#EAEAEA" d="M257.677,135.305c-9.286,0-18.571,0-27.858,0c-4.223,0-18.197-1.842-20.957,1.2
	c-0.316-0.15-0.664-0.439-1.083-0.44c-0.509-5.396,1.956-10.43,2.831-15.661c1.224-7.312,0.571-15.539,0.844-22.972
	c0.134-3.71,1.134-9.999,0.076-13.469c-2.677-8.778-14.497-12.685-22.008-15.278c-11.176-3.857-22.002-6.834-33.682-8.658
	c-6.155-0.962-12.589-1.886-18.538,0.229c-11.901,4.231-8.827,16.872-7.895,27.088c1.494,16.362,2.184,32.982,4.894,49.319
	c2.717,16.369,3.268,32.808,7.611,49.35c2.384,9.082,6.044,23.131,12.898,29.758c7.16,6.92,18.813,6.431,27.1,1.986
	c6.817-3.656,12.354-8.23,19.458-11.243c5.243-2.222,9.833-5.185,14.669-8.143c3.521-2.153,7.261-4.489,10.933-6.367
	c1.588-0.813,4.5-1.2,5.84-2.12c2.204-1.512,2.96-2.941,4.736-5.321c7.663-10.268,18.139-18.552,20.152-31.776
	c0.851-5.579-1.27-11.382-1.27-17.065"/>
<path opacity="0.09" fill="#1D1E1C" d="M187.216,93.78c1.024,8.084,1.334,16.314,1.334,24.461c0,5.198,2.269,17.033-2.533,20.304
	c-3.084,2.101-10.314,3.079-14.134,4.346c-5.041,1.672-9.996,3.519-14.98,5.229c-3.177,1.09-9.931,2.236-11.19,5.435
	c14.678,0.84,29.763,0.075,44.47,0.073c15.148-0.001,29.863-1.279,44.779-2.518c6.886-0.571,15.487-1.646,22.916-0.309
	c0.193-4.962-1.449-10.067-1.449-15.08l1.25-0.416c-9.286,0-18.571,0-27.858,0c-4.223,0-18.197-1.842-20.957,1.2
	c-0.316-0.15-0.664-0.439-1.083-0.44c-0.509-5.396,1.956-10.43,2.831-15.661c1.224-7.312,0.571-15.539,0.844-22.972
	c0.134-3.71,1.134-9.999,0.076-13.469c-2.677-8.778-14.497-12.685-22.008-15.278c-3.073-1.061-6.12-2.047-9.166-2.97
	C182.216,75.023,186.029,84.421,187.216,93.78z"/>
<path opacity="0.09" fill="#1D1E1C" d="M239.9,180.678c-12.772,3.24-24.878,6.277-36.72,12.125
	c-10.296,5.083-25.841,15.913-37.565,9.283c-3.608-2.04-5.701-6.141-8.657-8.788c-3.487-3.125-7.73-5.245-11.689-7.686
	c-1.308-0.807-2.699-1.825-4.153-2.802c0.25,1.067,0.514,2.135,0.795,3.202c2.384,9.082,6.044,23.131,12.898,29.758
	c7.16,6.92,18.813,6.431,27.1,1.986c6.817-3.656,12.354-8.23,19.458-11.243c5.243-2.222,9.833-5.185,14.669-8.143
	c3.521-2.153,7.261-4.489,10.933-6.367c1.588-0.813,4.5-1.2,5.84-2.12c2.204-1.512,2.96-2.941,4.736-5.321
	c1.039-1.391,2.13-2.745,3.244-4.08C240.477,180.543,240.179,180.607,239.9,180.678z"/>
<path fill="#FFFFFF" d="M266.213,222.339c-3.257,1.06-5.202,5.232-7.631,7.491c-2.839,2.642-5.604,5.421-8.791,7.656
	c-3.444,2.417-7.323,4.493-10.886,6.708c-2.061,1.282-4.639,1.578-7.067,1.677c-5.897,0.239-14.304-3.143-18.484-7.188
	c-9.041-8.748-4.773-25.508-3.911-36.351c1.27-15.944,4.184-31.63,11.146-46.104c2.583-5.368,6.15-9.972,10.464-13.748
	c3.45-3.019,6.371-6.017,10.828-7.398c4.522-1.402,12.896-2.872,16.351-6.268c3.196-3.142,5.24-6.179,7.636-10.065
	c5.195-8.425,8.467-15.832,16.561-22.088c6.056-4.682,10.43-9.225,18.663-9.143c3.837,0.039,5.496,1.583,8.502,3.054
	c3.27,1.601,5.841,3.646,8.995,5.691c7.409,4.806,13.742,12.376,15.624,21.238c1.875,8.815-2.582,16.225-7.035,23.495
	c-5.034,8.216-13.401,14.145-21.401,19.37c-5.806,3.793-10.923,9.015-13.44,15.541c-3.418,8.861-4.202,18.572-7.558,27.519
	c-2.927,7.8-7.429,9.676-16.132,7.477c-17.039-4.303-21.568-20.457-28.901-33.91c-3.682-6.757-6.666-11.577-8.06-18.905
	c-0.439-2.31-1.102-4.466-1.804-6.544"/>
<path opacity="0.31" fill="#1D1E1C" d="M273.917,111.984c-0.561,3.087-2.685,6.018-3.545,9.103
	c-1.201,4.31-0.888,9.564-0.259,13.914c0.66,4.569,1.069,9.418-0.614,13.789c-0.868,2.253-1.889,3.957-2.285,6.265
	c-0.8,4.654-0.118,7.223,4.184,9.85c2.457,1.501,4.171,2.884,6.049,4.919c1.455,1.574,3.14,4.159,5.024,5.172
	c-0.042-1.549,0.162-3.219-0.168-4.705c-0.42-1.883-1.922-4.003-1.034-6.049c1.695-3.898,8.647-3.166,11.851-3.321
	c3.113-0.151,6.663-0.965,9.491-2.296c2.262-1.064,5.366-3.393,6.821-5.408c0.761-1.053,1.857-3.227,1.986-4.413
	c0.315-2.897-4.382-8.376-5.68-10.625c-2.437-4.221-4.363-8.853-7.685-12.483c-1.239-1.355-2.756-3.15-4.438-3.986
	c-0.874-0.434-1.981-0.22-2.72-0.62c-3.575-1.937-5.17-6.746-8.934-8.505c-2.43-1.136-5.575-1.172-8.192-1.235
	c0.185,0.241,0.327,0.146,0.566,0.219"/>
<path fill="#E53855" d="M330.969,113.651c-2.417-6.565-8.307-13.107-14.158-16.449c-7.408-4.231-16.046-10.516-24.571-6.047
	c-8.902,4.667-18.271,14.217-19.988,24.161c-1.183,6.855,1.513,14.618,2.395,21.352c0.437,3.329,3.089,16.16-0.335,18.126
	c-3.724,2.137-4.686-5.235-6.004-7.726c-2.776-5.249-6.895-9.572-13.027-10.107c-8.902-0.774-19.188,5.085-24.588,12.481
	c-5.596,7.665-7.966,19.057-10.909,27.818c-3.767,11.214-5.691,22.891-6.27,34.667c-0.442,9.002-2.103,23.269,5.852,29.255
	c8.01,6.027,19.052,6.976,28.736,5.332c11.121-1.888,22.425-10.775,29.911-18.459c9.164-9.406,12.471-18.371,12.563-31.556
	c0.037-5.283,0.678-10.429,0.416-15.8c-0.284-5.812-2.936-7.93-6.704-12.08c-2.115-2.329-5.398-5.588-4.539-9.138
	c1.125-4.643,9.039-4.305,13.222-4.697c5.8-0.543,12.092,0.596,17.592-1.48c5.54-2.092,8.986-5.547,12.818-10.077
	c4.438-5.247,12.161-18.074,10.097-25.423c-0.433-1.541-1.596-2.143-2.092-3.738"/>
<path opacity="0.2" fill="#1D1E1C" d="M333.478,117.805c-0.433-1.541-1.596-2.143-2.092-3.738l-0.417-0.417
	c-1.657-4.499-4.943-8.984-8.73-12.439c0.874,4.314,0.788,8.895,0.017,12.554c-1.622,7.696-7.456,14.888-12.621,20.615
	c-8.915,9.882-20.468,14.2-31.45,20.499c-5.464,3.133-8.179,8.525-7.202,14.989c1.229,8.124,3.677,15.428,2.569,24.154
	c-0.78,6.14-4.407,13.108-7.911,18.165c-3.52,5.08-8.345,13.323-13.332,17.083c-8.648,6.523-21.455,10.182-33.334,11.568
	c0.134,0.11,0.25,0.237,0.39,0.343c8.01,6.027,19.052,6.976,28.736,5.332c11.121-1.888,22.425-10.775,29.911-18.459
	c9.164-9.406,12.471-18.371,12.563-31.556c0.037-5.283,0.678-10.429,0.416-15.8c-0.284-5.812-2.936-7.93-6.704-12.08
	c-2.115-2.329-5.398-5.588-4.539-9.138c1.125-4.643,9.039-4.305,13.222-4.697c5.8-0.543,12.092,0.596,17.592-1.48
	c5.54-2.092,8.986-5.547,12.818-10.077C327.819,137.981,335.542,125.154,333.478,117.805z"/>
<path fill="#1D1E1C" d="M125.668-3.783c-0.026,14.44-2.914,28.417-2.915,42.881c-0.001,9.729-2.16,19.387-1.27,29.108
	c0.991,10.819,4.451,21.058,7.505,31.171c3.545-6.914,3.438-12.69,12.056-16c12.94-4.97,31.326-7.04,44.663-2.614
	c6.801,2.257,18.674,4.891,24.102,9.969c2.657,2.488,1.524,6.913,1.699,10.778c4.347,0.104,8.364,0.886,12.646,1.741
	c6.599,1.317,10.477,5.105,16.061,8.661c5.711,3.637,10.405,9.793,16.222,13.002c3.732,2.058,4.75-0.045,7.083-3.854
	c5.188-8.466,7.225-18.657,9.648-28.179c3.548-13.946,8.304-27.029,8.672-41.55c0.372-14.666-3.866-25.928-9.183-39.27
	c-1.676-4.204-3.113-8.748-4.538-12.898c-2.326-6.774-4.5-5.237-12.083-5.435c-35.829-0.933-71.13-5.983-106.779-0.826
	c-5.959,0.862-11.503,1.546-17.282,3.021c-1.977,0.505-4.258,1.093-6.308,1.125"/>
<path opacity="0.2" fill="#1D1E1C" d="M272.658,12.062c-1.676-4.204-3.113-8.748-4.538-12.898c-2.326-6.774-4.5-5.237-12.083-5.435
	c-35.829-0.933-71.13-5.983-106.779-0.826c-5.959,0.862-11.503,1.546-17.282,3.021c-1.977,0.505-4.258,1.093-6.308,1.125v-0.833
	c-0.012,6.583-0.623,13.07-1.279,19.55c22.735-0.383,45.767-0.85,68.064,2.072c9.165,1.201,18.409,3.184,27.435,5.186
	c5.712,1.267,14.953,1.876,19.714,5.435c8.267,6.181,1.706,8.984-4.429,12.038c-6.687,3.329-10.276,6.497-13.57,13.007
	c-5.169,10.223-3.876,20.613-7.181,31.064c-0.999,3.16-2.014,6.47-2.929,9.874c0.277,2.193-0.09,4.732,0.015,7.067
	c4.347,0.104,8.364,0.886,12.646,1.741c6.599,1.317,10.477,5.105,16.061,8.661c5.711,3.637,10.405,9.793,16.222,13.002
	c3.732,2.058,4.75-0.045,7.083-3.854c5.188-8.466,7.225-18.657,9.648-28.179c3.548-13.946,8.304-27.029,8.672-41.55
	C282.213,36.666,277.975,25.404,272.658,12.062z"/>
<path fill="#FFFFFF" d="M162.523,393.7c-4.289-1.057-9.648-4.773-13.127-7.543c-2.956-2.352-6.115-4.557-8.371-7.604
	c-1.222-1.65-3.165-3.717-1.827-5.644c0.85-1.226,3.536-2.484,4.741-3.616c3.38-3.171,3.332-8.022,10.671-3.124
	c3.921,2.619,7.912,5.577,11.816,8.203c1.132,0.761,2.147,1.011,3.487,1.422c0.79,0.243,1.958,1.109,2.811,1.249
	c2.369,0.385,1.749,1.634,1.197,3.747c-0.616,2.358-1.595,4.62-2.035,7.074c-0.229,1.275-0.014,6.221-1.079,7.044
	c-1.643,1.267-10.391-1.061-11.202-2.457"/>
<path opacity="0.16" fill="#1D1E1C" d="M172.726,377.042c-0.854-0.14-2.021-1.006-2.811-1.249c-0.692-0.212-1.296-0.385-1.875-0.604
	c0,0.001,0,0.001,0,0.003c0.367,1.885,1.082,3.446,1.095,5.435c0.014,2.754-0.031,5.499-0.152,8.249
	c-0.098,2.252-0.239,4.236-1.049,6.329c1.312,0.128,2.398,0.07,2.876-0.298c1.064-0.823,0.85-5.769,1.079-7.044
	c0.439-2.454,1.419-4.716,2.035-7.074C174.475,378.676,175.095,377.427,172.726,377.042z"/>
<path fill="#E53855" d="M171.484,393.17c0.161-1.024,1.25-2.607,0.247-2.815c-1.504-0.313-5.39-1.078-6.646-1.493
	c-3.277-1.081-6.765-2.209-9.787-3.716c-5.363-2.674-13.418-8.692-11.084-15.69c0.479-1.436,3.113-3.847,2.76-5.193
	c-1.56-0.346-3.085,1.566-3.901,2.625c-0.992,1.281-1.963,2.605-2.397,4.132c-0.926,3.251-1.116,8.203-0.592,11.527
	c0.531,3.376,3.197,6.197,6.391,6.817c4.07,0.789,7.925,2.531,12.071,3.02c4.216,0.497,8.663,0.019,12.783,0.787"/>
<path fill="#828281" d="M166.791,418.581c0-5.192,0.266-9.455,1.562-14.365c0.968-3.661,3.917-7.596,3.228-11.443
	c-9.598-4.056-22.508-5.261-28.136-15.807c-2.379-4.458,0.727-8.272,4.061-11.408c1.201-1.131,5.026-3.623,1.483-4.131
	c-2.426-0.349-4.301,3.002-6.307,4.294c-4.818,3.103-6.394-3.818-11.877-1.865c-4.874,1.736-9.161,8.732-9.941,13.936
	c-1.405,9.381,6.435,10.448,12.22,14.854c5.56,4.232,4.347,13.423,7.777,18.996c4.849,7.878,15.902,8.94,24.314,8.449
	c1.197-2.273,0.418-5.062,1.304-7.129"/>
<path fill="#DBDBDB" d="M131.603,407.417c0.105-0.291,0.347-0.484,0.53-0.722c0.203-0.263,0.379-0.547,0.58-0.813
	c0.208-0.271,0.426-0.527,0.619-0.808c0.079-0.111,0.191-0.211,0.263-0.318c0.062-0.094,0.067-0.177,0.125-0.288
	c0.611-1.148,1.327-2.181,1.794-3.406c0.074-0.196,0.21-0.351,0.281-0.531c0.057-0.147,0.087-0.354,0.13-0.513
	c0.061-0.23,0.127-0.487,0.156-0.725c0.075-0.639,0.075-1.437-0.166-2.027c-0.104-0.259-0.161-0.426-0.38-0.593
	c-0.399-0.299-0.917-0.507-1.408-0.581c-0.564-0.083-1.124-0.072-1.685-0.186c-0.817-0.164-1.625-0.375-2.451-0.489
	c-0.533-0.073-1.055-0.027-1.586-0.075c-0.464-0.039-0.915-0.154-1.382-0.158c-0.287,0-0.574,0-0.858,0
	c-0.135,0-0.329-0.04-0.42,0.052c1.14,0.98,2.523,1.821,3.638,2.89c0.71,0.68,1.345,1.35,1.931,2.134
	c0.626,0.835,0.955,1.697,1.045,2.749c0.071,0.815,0.174,1.76-0.046,2.56c-0.201,0.727-0.647,1.419-0.762,2.161"/>
<path fill="#585756" d="M150.98,363.144c0.096-1.448-0.956-1.796-2.184-1.796c-0.97,0-1.55,0.387-2.306,0.954
	c-1.583,1.188-3.396,3.73-6.323,4.229c0,0,1.641,0.628,2.252,0.744c0.337,0.063,0.705,0.069,1.027,0.122
	c0.407,0.068,0.768,0.251,1.17,0.317c1.032,0.17,1.604-0.895,2.275-1.557c0.518-0.509,0.849-0.69,1.492-1.062
	c0.432-0.248,1.078-0.445,1.473-0.656c0.243-0.128,0.537-0.053,0.729-0.243c0.204-0.202,0.27-0.616,0.357-0.933
	c-0.001-0.015-0.001-0.029-0.002-0.042"/>
<path fill="#A5A4A3" d="M140.245,410.617c2.026-1.411,3.985-2.933,6.193-4.054c1.245-0.629,2.309-1.62,3.5-2.363
	c1.668-1.038,3.365-2.018,5.15-2.842c1.689-0.778,3.44-1.371,5.074-2.243c0.767-0.411,1.624-0.696,2.468-0.902
	c0.672-0.162,1.396-0.08,2.094-0.142c1.009-0.09,2.006-0.426,3.018-0.508c0.574-0.046,2.994-0.296,2.838,0.667
	c-0.048,0.31-0.422,0.571-0.498,0.895c-0.092,0.39-0.13,0.706-0.272,1.069c-0.108,0.282-0.199,0.798-0.401,1.058
	c-0.385,0.487-1.322,0.433-1.94,0.557c-1.229,0.246-2.529,0.419-3.711,0.843c-1.056,0.379-2.116,0.701-3.183,1.045
	c-0.998,0.323-1.812,0.831-2.735,1.245c-0.887,0.397-1.749,0.743-2.615,1.197c-0.726,0.381-1.445,0.75-2.149,1.181
	c-2.032,1.241-3.988,2.705-6.065,3.866c-1.163,0.648-2.346,1.208-3.383,2.087c-0.335,0.283-0.633,0.583-0.979,0.865
	c-0.988-1.045-1.935-2.164-2.353-3.571"/>
<g opacity="0.2">
	<path fill="#1D1E1C" d="M145.269,366.571c0.107,0.586,0.111,0.96,0.047,1.252c0.676-0.791,1.425-1.545,2.19-2.266
		c1.201-1.131,5.026-3.623,1.483-4.131c-1.707-0.244-3.141,1.341-4.541,2.752C144.834,364.938,145.126,365.793,145.269,366.571z"/>
	<path fill="#1D1E1C" d="M143.363,370.709c0.095-0.198,0.197-0.395,0.306-0.589C143.56,370.306,143.461,370.506,143.363,370.709z"/>
	<path fill="#1D1E1C" d="M171.582,392.772c-9.598-4.056-22.508-5.261-28.136-15.807c-1.182-2.216-1.009-4.271-0.128-6.163
		c-0.997,2.112-1.471,5.061-1.207,7.033c0.565,4.204,4.78,7.273,8.093,9.363c4.199,2.651,12.345,2.773,13.16,8.864
		c0.409,3.055-0.481,7-2.009,9.575c-1.708,2.879-5.375,3.388-8.621,3.261c-6.678-0.263-11.532-7.499-14.758-12.68
		c-1.416-2.271-2.412-4.341-4.56-6.06c-1.972-1.578-4.233-2.349-6.48-3.322c-1.793-0.776-3.431-1.752-4.953-2.997
		c-0.211-0.173-0.435-0.329-0.649-0.494c1.843,4.539,7.38,5.969,11.751,9.298c5.56,4.232,4.347,13.423,7.777,18.996
		c4.849,7.878,15.902,8.94,24.314,8.449c1.197-2.273,0.418-5.062,1.304-7.129l0.312,5.62c0-5.192,0.266-9.455,1.562-14.365
		C169.321,400.554,172.271,396.62,171.582,392.772z"/>
</g>
<path fill="#1D1E1C" d="M139.047,366.423c-0.71-0.024-1.484,0.127-1.989,0.641c-0.492,0.498-0.549,1.251-0.652,1.948
	c-0.534,3.536-1.623,7.32-4.292,9.876c-1.318,1.261-2.886,2.178-4.555,2.905c-1.103,0.481-2.337,1.104-3.532,1.303
	c-0.55,0.092-1.131,0.092-1.689,0.089c-0.38-0.004-0.675,0.179-1.033,0.099c-0.026-0.455-0.471-0.923-0.592-1.4
	c-0.167-0.652-0.164-1.305-0.195-1.989c-0.044-0.95,0.117-1.763,0.271-2.685c0.104-0.625,0.181-1.333,0.362-1.946
	c0.204-0.687,0.502-1.411,0.768-2.085c0.407-1.028,0.872-2.015,1.537-2.903c1.252-1.676,2.362-3.496,3.994-4.824
	c0.489-0.396,0.97-0.88,1.505-1.216c0.515-0.323,1.144-0.388,1.708-0.553c1.173-0.342,2.415-0.63,3.607-0.136
	c1.035,0.43,1.995,0.97,2.904,1.563c0.664,0.434,1.542,0.786,2.141,1.261C139.241,366.443,139.164,366.423,139.047,366.423"/>
<g>
	<path fill="#E53855" d="M159.764,426.234c-2.338,0.262-4.719,0.125-7.418,0c-2.618-0.121-4.634-0.391-7.367-1.223
		c-0.935-0.285-2.212-0.725-3.179-1.066c-1.245-0.443-3.093-1.381-4.368-2.24c-3.755-2.53-5.936-4.58-6.09-9.085
		c-0.064-1.852-0.053-1.982,0.078-3.825c0.083-1.192,0.461-1.995,0.455-2.181c-0.262,0.704-0.549,1.402-0.732,2.143
		c-0.375,1.535-0.269,3.071-0.269,4.665c0,4.213,0.916,6.998,3.865,10.117c4.398,4.652,11.083,6.334,17.352,6.441
		c4.323,0.076,10.531,0.344,12.625-4.293c0.143-0.314,0.252-0.641,0.341-0.969C163.993,425.604,162.982,425.875,159.764,426.234z"/>
	<path fill="#E53855" d="M123.79,392.033c-1.289-1.476-2.552-2.646-3.378-4.445c-0.833-1.815-1.424-3.865-1.562-5.865
		c-0.074-1.069-0.207-2.139-0.343-3.212c-0.052,0.296-0.099,0.588-0.134,0.866c-0.69,5.53,0.845,10.449,5.048,14.078
		c1.128,0.972,2.571,1.931,3.974,2.971C126.247,394.917,125.049,393.476,123.79,392.033z"/>
</g>
<g>
	<path fill="#EAEAEA" d="M942.331,122.392c0.357,10.66-3.47,20.613-5.75,30.946c-2.444,11.086-4.795,21.646-6.345,32.804
		c-0.445,3.203-1.574,6.937-0.746,10.38c0.949,3.945,4.373,7.579,5.891,11.406c2.882,7.267,5.812,14.806,9.045,21.794
		c5.807,12.549,12.746,25.236,20.389,37.128c8.481,13.194,18.386,27.977,22.799,43.128c5.668-0.402,10.415-7.208,14.532-10.379
		c2.392-1.842,5.434-2.267,5.245-5.333c-0.137-2.235-3.142-5.676-3.954-7.658c-1.25-3.052-2.209-6.277-3.7-9.302
		c-3.849-7.809-6.163-16.513-6.588-25.429c-0.215-4.543,0.481-9.26-0.361-13.687c-0.972-5.097-4.174-9.993-5.895-14.596
		c-3.682-9.845-9.345-17.055-14.705-25.851c-4.321-7.099-1.903-13.049,1.716-20.076c1.828-3.546,4.473-6.951,6.404-10.289
		c2.29-3.96,4.731-7.74,7.125-11.499c3.749-5.892,6.714-12.236,10.658-18.246c2.815-4.289,5.483-8.711,8.396-12.936
		c2.076-3.011,4.096-8.523,6.819-10.654c-4.282-1.147-7.981-3.924-12.266-5.229c-6.618-2.018-14.311-2.812-21.215-2.235
		c-10.085,0.843-17.544,7.845-25.841,12.925c-3.894,2.382-8.005,3.701-12.461,3.692"/>
	<g opacity="0.09">
		<path fill="#1D1E1C" d="M941.523,123.199c0.274,0.001,0.543-0.019,0.814-0.029c-0.003-0.259,0.001-0.517-0.007-0.778
			L941.523,123.199z"/>
		<path fill="#1D1E1C" d="M980.308,167.38c2.29-3.96,4.731-7.74,7.125-11.499c3.749-5.892,6.714-12.236,10.658-18.246
			c2.815-4.289,5.483-8.711,8.396-12.936c2.076-3.011,4.096-8.523,6.819-10.654c-4.282-1.147-7.981-3.924-12.266-5.229
			c-6.618-2.018-14.311-2.812-21.215-2.235c-10.085,0.843-17.544,7.845-25.841,12.925c-3.654,2.236-7.503,3.519-11.646,3.664
			c0.015,1.047,0.002,2.088-0.056,3.122c2.143-0.998,4.265-2.008,6.422-3.052c0.079,0.254,0.074,0.48,0.07,0.713
			c8.708,0.186,22.029,7.727,24.534,15.689c2.749,8.73,0.472,19.392-2.122,27.74c-2.085,6.714-5.149,14.446-10.693,18.46
			c-4.374,3.167-10.069,4.663-15.024,6.756c-2.625,1.11-8.058,2.226-9.14,4.763c10.407,3.18,20.15,5.127,28.994,12.1
			c5.977,4.712,10.939,10.051,14.038,17.121c3.627,8.271,3.311,15.699,4.497,24.424c2.373,17.464,10.766,32.948,17.28,48.622
			c0.082,0.195,0.159,0.401,0.24,0.6c0.259-0.221,0.514-0.431,0.768-0.626c2.392-1.842,5.434-2.267,5.245-5.333
			c-0.137-2.235-3.142-5.676-3.954-7.658c-1.25-3.052-2.209-6.277-3.7-9.302c-3.849-7.809-6.163-16.513-6.588-25.429
			c-0.215-4.543,0.481-9.26-0.361-13.687c-0.972-5.097-4.174-9.993-5.895-14.596c-3.682-9.845-9.345-17.055-14.705-25.851
			c-4.321-7.099-1.903-13.049,1.716-20.076C975.731,174.124,978.377,170.719,980.308,167.38z"/>
	</g>
	<path fill="#FFFFFF" d="M1011.326,296.143c-1.415-0.865-2.21-3.263-3.779-3.903c-1.644-0.671-4.163,1.158-5.562,1.816
		c-1.553,0.73-2.857,1.773-4.458,2.354c-1.449,0.525-2.602,1.281-3.862,2.151c-2.609,1.8-5.243,3.513-7.31,5.946
		c-1.336,1.575-2.301,3.919-2.42,6.011c-0.364,6.371,2.996,10.164,9.294,10.139c8.789-0.035,12.646-8.346,16.738-14.687
		c1.535-2.381,3.012-5.727,1.845-8.356c-0.201-0.456-0.552-0.849-0.79-1.32"/>
	<path opacity="0.09" fill="#1D1E1C" d="M1007.337,310.182c0.898-1.428,1.76-2.864,2.63-4.212c1.535-2.381,3.012-5.727,1.845-8.356
		c-0.201-0.456-0.552-0.849-0.79-1.32l0.303-0.151c-1.415-0.865-2.21-3.263-3.779-3.903c-1.644-0.671-4.163,1.158-5.562,1.816
		c-1.462,0.688-2.711,1.64-4.188,2.235C1000.329,301.215,1004.372,305.444,1007.337,310.182z"/>
	<path fill="#E53855" d="M983.687,308.147c0.544,0,1.087-0.083,1.552,0.258c1.224,0.903,1.742,2.742,3.032,3.466
		c2.014,1.132,4.029,0.816,6.109,0.022c3.071-1.172,5.091-3.49,7.189-5.905c1.176-1.353,2.054-3.003,3.096-4.468
		c0.63-0.885,1.384-1.734,2.08-2.565c0.633-0.754,1.084-1.581,1.643-2.363c0.296-0.412,0.608-0.81,0.969-1.167
		c0.225-0.223,0.681-0.673,1.064-0.5c0.554,0.249,0.418,2.817,0.44,3.243c0.2,3.633-0.928,6.973-2.486,10.214
		c-0.269,0.557-0.436,0.85-0.836,1.299c-1.829,2.053-3.753,4.015-5.741,5.917c-1.341,1.283-2.749,2.53-4.43,3.357
		c-2.042,1.006-4.302,1.141-6.538,1.153c-1.003,0.005-2.115,0.156-3.036-0.3c-0.548-0.271-1.189-0.809-1.66-1.191
		c-1.652-1.336-3.261-2.72-3.667-4.901c-0.341-1.832,0.453-3.848,1.127-5.512c0.104-0.042,0.137,0.015,0.193,0.041"/>
	<path fill="#FFFFFF" d="M1030.504,312.181c1.246,0.2,3.305,1.833,4.225,2.595c1.077,0.893,2.2,1.907,3.046,2.977
		c1.508,1.904,0.4,5.732-0.721,7.663c-0.944,1.626-2.463,3.506-3.826,4.775c-1.558,1.45-3.44,3.187-5.332,4.237
		c-4.173,2.317-7.669,5.617-12.012,7.639c-2.768,1.29-6.577,2.059-7.886,5.146c-0.463,1.096-0.693,2.325-1.129,3.459
		c-0.54,1.397-1.567,2.646-2.306,3.931c-1.103,1.923-2.765,3.635-4.414,5.12c-3.868,3.492-7.654,6.751-12.752,8.188
		c-1.968,0.554-3.892,1.395-5.903,1.841c-1.86,0.412-3.771,0.718-5.645,1.076c-2.538,0.488-7.308,0.748-9.538-0.772
		c-0.646-0.441-1.052-0.92-1.484-1.539c-0.422-0.606-1.266-1.895-1.112-2.619c0.174-0.812,1.46-0.505,2.218-0.604
		c1.048-0.135,1.928-0.457,2.923-0.831c2.454-0.928,5.03-1.458,7.471-2.371c2.225-0.833,4.47-1.923,6.629-2.953
		c3.091-1.472,6.028-3.208,7.782-6.326c1.591-2.827,2.736-6.046,4.041-9.015c1.043-2.377,2-4.793,3.047-7.167
		c0.767-1.737,1.928-3.171,2.741-4.854c2.143-4.445,4.192-9.838,7.848-13.32c1.619-1.542,3.638-2.476,5.637-3.397
		c4.392-2.024,9.621-2.398,14.341-3.023c0.762-0.1,3.07-0.773,3.109,0.499"/>
	<path fill="#C0BFBF" d="M1056.366-53.026c-2.126,25.512,25.332,45.754,29.396,69.864c1.907,11.314-2.337,24.276-10.129,32.349
		c-22.2,22.995-47.217-35.408-50.898-50.128c-3.829-15.324-8.064-42.972,10.385-50.648c4.055-1.688,15.811-6.635,17.576-0.703"/>
	<path fill="#1D1E1C" d="M1004.819,125.066c0.459,2.63,10.124-5.559,13.871,0.807c8.849,0.477,3.737,23.535,12.406,24.763
		c-1.203-4.531,0.978,0.994-0.827-3.583c-1.741-4.415-3.987-8.614-5.545-13.091c-1.528-4.389-2.79-9.097-4.557-13.163
		c7.387-3.858,18.436-2.934,26.484-2.37c8.033,0.562,17.301,2.509,24.41,6.461c4.47,2.488,10.661,11.193,15.665,12.014
		c1.062-8.863-4.947-16.271-5.193-23.306c-0.18-5.156,2.261-9.479,2.814-14.628c0.393-3.66,1.15-7.568,0.816-11.286
		c-0.469-5.24-3.493-7.684-6.87-11.693c-4.198-4.983-8.284-10.058-12.833-14.524c-3.658-3.594-13.305-6.757-18.691-4.746
		c-4.019,1.5-8.394,8.123-11.095,11.297c-4.961,5.828-9.229,12.141-12.935,18.833c-4.697,8.48-8.379,17.071-10.123,26.619
		c-0.642,3.519-2.239,11.851-6.739,11.696"/>
	<path fill="#828281" d="M1012.133,294.276c-2.114,0.007-2.447-0.149-3.234,1.908c-1.034,2.704-1.629,5.611-2.824,8.229
		c-1.958,4.29-3.959,6.772-8.272,8.778c-2.499,1.162-6.686,1.832-9.479,1.26c-2.803-0.574-3.208-4.26-4.46-6.419
		c-1.914-0.108-3.551-0.197-4.973,1.018c-1.573,1.345-1.835,3.954-1.461,5.956c1.082,5.8,6.058,10.193,3.341,16.593
		c-2.409,5.674-4.815,11.065-7.422,16.663c-1.571,3.374-3.719,6.365-5.811,9.467c-1.011,1.5-2.767,3.175-3.375,4.783
		c-2.022,5.349,3.744,3.826,6.771,2.729c3.834-1.39,7.454-2.893,11.135-4.833c2.686-1.415,5.864-2.867,8.03-5.048
		c7.525-7.578,12.775-16.799,18.458-25.792c4.609-7.295,14.002-10.435,21.319-14.265c4.374-2.289,2.119-2.971,0.219-5.285
		c-2.001-2.437-4.157-4.669-6.574-6.875c-1.964-1.793-4.243-2.783-6.349-4.283c-1.312-0.933-2.685-4.397-4.433-3.978"/>
	<path fill="#E53855" d="M1036.786,316.651c-1.921,0.882-2.545,2.358-3.851,3.963c-1.647,2.021-3.532,3.882-5.241,5.862
		c-2.14,2.481-4.83,4.4-7.286,6.553c-1.584,1.39-2.751,3.021-4.17,4.533c-1.132,1.205-2.129,2.213-3.019,3.625
		c-0.552,0.873-1.078,1.674-1.426,2.593c1.36-0.64,2.83-1.126,4.09-1.714c4.343-2.022,7.839-5.322,12.012-7.639
		c1.891-1.05,3.774-2.787,5.332-4.237c1.363-1.269,2.882-3.148,3.826-4.775c1.121-1.93,2.229-5.758,0.721-7.663
		C1037.477,317.376,1037.138,317.01,1036.786,316.651z"/>
	<path fill="#E53855" d="M1004.161,351.394c-1.676,1.632-3.526,3.077-5.22,4.733c-3.236,3.161-6.385,6.027-10.434,8.252
		c-4.204,2.311-8.246,4.076-12.961,5.245c-2.702,0.671-5.702,0.756-8.631,0.742c2.397,1.147,6.599,0.909,8.934,0.46
		c1.874-0.358,3.785-0.664,5.645-1.076c2.011-0.446,3.935-1.287,5.903-1.841c5.099-1.437,8.885-4.695,12.752-8.188
		c1.648-1.485,3.311-3.197,4.414-5.12c0.738-1.285,1.766-2.533,2.306-3.931c0.147-0.383,0.269-0.779,0.387-1.176
		C1006.046,349.708,1004.988,350.588,1004.161,351.394z"/>
	<path opacity="0.09" fill="#1D1E1C" d="M1011.78,343.804c-0.661-0.258-1.259-1.15-1.802-1.625
		c-0.681-0.593-1.351-1.227-1.981-1.849c-0.514-0.509-1.812-1.997-2.615-1.812c-0.174,0.207-0.426,0.334-0.55,0.606
		c-0.238,0.517-0.318,1.318-0.417,1.878c-0.335,1.907,0.026,3.879-0.161,5.8c-0.266,2.751-0.7,5.496-1.152,8.215
		c-0.134,0.801-0.3,1.552-0.545,2.286c0.759-0.344,1.344-1.685,1.755-2.35c0.544-0.88,1.05-1.725,1.655-2.525
		c1.236-1.637,1.511-3.736,2.245-5.585c0.312-0.786,0.837-1.303,1.511-1.774c0.356-0.252,2.042-0.724,2.006-1.163"/>
	<path fill="#1D1E1C" d="M981.613,352.377c-1.376-0.215-3.372-0.671-4.469-1.635c-0.867-0.761-1.163-2.121-1.697-3.104
		c-0.303-0.56-0.698-1.067-1.086-1.573c-0.336,0.73-0.668,1.458-1.012,2.196c-1.571,3.374-3.719,6.365-5.811,9.467
		c-1.011,1.5-2.767,3.175-3.375,4.783c-2.022,5.349,3.744,3.826,6.771,2.729c3.834-1.39,7.454-2.893,11.135-4.833
		c2.686-1.415,5.864-2.867,8.03-5.048c1.064-1.072,2.073-2.185,3.054-3.316c-0.26,0.065-0.518,0.14-0.782,0.193
		C988.947,352.932,985.064,352.919,981.613,352.377z"/>
	<path fill="#A5A4A3" d="M1011.643,325.838c0.038-8.795,1.109-17.717,6.061-25.183c0.725-1.095,0.836-0.884,1.973-0.301
		c0.771,0.396,1.521,0.823,2.261,1.364c-0.254,0.898-0.865,1.802-1.25,2.667c-0.642,1.443-0.917,2.965-1.19,4.53
		c-0.824,4.716-1.303,7.301-0.943,12.023c0,0-1.315,0.67-3.029,1.797C1014.248,323.575,1013.142,324.475,1011.643,325.838
		C1011.493,325.5,1011.606,326.218,1011.643,325.838"/>
	<path opacity="0.09" fill="#1D1E1C" d="M1030.094,310.018c-2.001-2.437-4.157-4.669-6.574-6.875
		c-1.964-1.793-4.243-2.783-6.349-4.283c-1.312-0.933-2.685-4.397-4.433-3.978l-0.606-0.606c-2.114,0.007-2.447-0.149-3.234,1.908
		c-1.034,2.704-1.629,5.611-2.824,8.229c-1.958,4.29-3.959,6.772-8.272,8.778c-2.499,1.162-6.686,1.832-9.479,1.26
		c-2.803-0.574-3.208-4.26-4.46-6.419c-1.562-0.088-2.938-0.151-4.166,0.486c0.15,0.272,0.296,0.54,0.453,0.769
		c0.508,0.742,0.915,1.56,1.486,2.263c0.616,0.758,0.997,1.563,1.64,2.298c1.938,2.21,4.458,3.146,7.372,3.178
		c2.9,0.029,6.017-1.603,8.665-2.707c2.353-0.98,4.289-2.686,6.19-4.48c1.507-1.421,3.499-2.982,5.649-2.023
		c1.145,0.51,2.315,1.54,3.392,2.234c1.188,0.765,2.469,1.329,3.287,2.531c1.59,2.334-2.125,4.365-3.571,5.52
		c-4.807,3.836-10.094,7.494-13.214,13.002c-1.164,2.057-2.524,3.908-3.704,5.958c-1.01,1.754-1.96,3.551-3.018,5.276
		c-1.871,3.049-3.678,6.255-6.146,8.87c-2.403,2.547-5.078,4.75-7.698,7.052c-1.211,1.062-2.728,1.412-4.113,2.19
		c-1.216,0.682-2.451,1.403-3.699,2.029c-1.01,0.506-2.107,0.84-3.124,1.308c-0.778,0.357-1.661,0.763-2.494,0.976
		c-0.643,0.163-1.262,0.185-1.935,0.152c-0.465-0.021-0.902-0.212-1.349-0.282c0.234,2.721,4.644,1.525,7.166,0.611
		c3.834-1.39,7.454-2.893,11.135-4.833c2.686-1.415,5.864-2.867,8.03-5.048c7.525-7.578,12.775-16.799,18.458-25.792
		c4.609-7.295,14.002-10.435,21.319-14.265C1034.249,313.014,1031.994,312.332,1030.094,310.018z"/>
	<path opacity="0.25" fill="#1D1E1C" d="M976.979,312.635c-0.217,1.326,1.964,3.62,2.841,4.472c1.37,1.33,2.858,2.604,4.537,3.509
		c1.377,0.744,3.042,1.598,4.564,1.933c0.474,7.545-2.516,14.395-6.088,20.914c-0.972,1.772-1.745,3.684-2.758,5.43
		c-0.467,0.808-0.836,1.286-1.734,1.416c-0.65,0.096-1.347-0.007-1.968,0.229c-1.588,0.606-2.782,2.54-4.462,2.804
		c-2.333,0.365-0.466-1.57-0.02-2.501c1.525-3.179,3.06-6.379,4.619-9.53c0.626-1.267,1.034-2.859,1.545-4.222
		c0.592-1.576,1.284-3.142,1.932-4.709c0.64-1.545,1.153-2.744,1.153-4.462c0-1.499-0.171-2.485-0.736-3.858
		c-0.528-1.285-0.792-2.659-1.382-3.934c-0.546-1.178-1.315-2.5-1.591-3.841c-0.167-0.812-0.234-1.942-0.225-2.74"/>
	<path fill="#828281" d="M944.348,76.395c-4.018,16.577-7.466,32.538-8.111,49.56c10.407,0.614,20.438,2.086,30.958,2.086
		c7.771,0,15.474-0.423,23.241-0.403c4.847,0.012,9.697-0.645,14.435-0.806c3.896-0.132,3.359,0.081,6.145-2.739
		c4.514-4.567,7.66-10.087,11.708-15.055c4.218-5.175,9.042-9.706,13.307-14.846c5.796-6.988,19.281-19.931,17.643-30.218
		c-21.191-3.062-41.219-11.74-63.144-8.214c-8.585,1.381-17.905,8.003-25.217,12.576c-5.249,3.282-13.302,9.656-19.754,6.85"/>
	<path opacity="0.2" fill="#1D1E1C" d="M1053.673,63.973c-21.191-3.062-41.219-11.74-63.144-8.214
		c-8.585,1.381-17.905,8.003-25.217,12.576c-1.312,0.82-2.8,1.833-4.392,2.849c6.069,0.165,11.7,1.16,17.724,2.114
		c7.523,1.192,15.146,1.452,22.64,2.989c9.238,1.894,14.888,9.819,10.37,19.258c-1.905,3.98-5.55,7.811-8.512,11.049
		c-3.064,3.348-4.063,6.567-6.511,10.266c-2.29,3.458-4.062,7.13-5.896,10.77c4.747-0.014,9.495-0.64,14.135-0.798
		c3.896-0.132,3.359,0.081,6.145-2.739c4.514-4.567,7.66-10.087,11.708-15.055c4.218-5.175,9.042-9.706,13.307-14.846
		C1041.826,87.204,1055.311,74.26,1053.673,63.973z"/>
	<path fill="#E53855" d="M943.743-22.057c-0.354,10.364,5.933,19.788,8.222,29.732c1.806,7.853,3.432,16.553,2.089,24.859
		c-1.498,9.257-5.456,18.719-7.757,27.869c-1.31,5.208-0.613,11.01-1.763,16.104c7.76,1.129,18.765-4.072,26.441-5.493
		c14.561-2.694,29.344-2.41,44.321-2.286c22.458,0.186,45.285,8.791,66.707,12.027c2.426-15.161-12.899-31.958-18.398-45.615
		c-9.138-22.692-12.73-47.42-13.005-71.496c-25.839-3.36-50.711,0.732-75.189,7.656c-9.397,2.658-20.918,6.373-30.981,5.432"/>
	<path fill="#D7D9D8" d="M1013.306,121.509c6.24-1.881,15.06-4.782,22.24-5.483c7.794-0.761,15.699-0.016,23.009,2.421
		c11.429,3.808,26.937,8.264,28.941,21.587c1.819,12.093,2.258,27.004,8.161,37.726c6.207,11.276,16.922,15.707,25.733,24.502
		c9.381,9.362,17.438,18.52,24.713,29.492c3.559,5.369,7.083,11.047,10.904,16.242c2.921,3.971,3.268,8.029,5.63,12.398
		c2.875,5.32,5.714,10.825,9.277,15.725c2.234,3.07,4.755,9.108,8.23,10.157c-9.333,9.141-14.905,21.113-21.445,31.766
		c-2.16-6.198-6.107-12.342-9.38-18.217c-4.944-8.874-9.189-18.138-15.915-25.633c-6.01-6.699-12.38-13.278-18.37-20.186
		c-5.444-6.279-11.368-12.55-17.863-17.429c-6.031-4.529-12.733-10.502-19.653-14.123c-7.766-4.063-14.977-7.891-20.496-14.605
		c-2.572-3.129-3.947-8.241-5.669-11.934c-2.64-5.664-4.917-11.741-8.169-17.268c-5.707-9.694-12.603-16.52-18.24-26.248
		c-4.885-8.429-12.218-15.207-16.938-25.806"/>
	<path opacity="0.2" fill="#1D1E1C" d="M1046.471,116.322c4.665,2.628,9.587,7.724,13.183,11.719
		c7.026,7.806,10.862,19.276,14.223,29.083c1.925,5.621,5.147,13.526,4.023,19.747c-0.924,5.119-6.892,9.491-10.975,12.411
		c-4.129,2.953-10.228,6.852-1.041,8.068c3.927,0.52,7.65-1.267,11.339-2.239c5.411-1.427,11.739-1.354,17.342-0.902
		c10.044,0.809,16.336,10.314,22.544,17.444c9.18,10.543,18.579,21.955,25.812,33.833c6.074,9.972,11.192,21.3,16.494,31.864
		c3.29,6.557,8.811,12.255,12.598,18.69c2.418-3.459,5.069-6.764,8.13-9.763c-3.475-1.049-5.997-7.087-8.23-10.157
		c-3.562-4.899-6.401-10.404-9.277-15.725c-2.362-4.37-2.708-8.428-5.63-12.398c-3.821-5.195-7.345-10.874-10.904-16.242
		c-7.274-10.972-15.332-20.129-24.713-29.492c-8.812-8.795-19.526-13.226-25.733-24.502c-5.903-10.722-6.342-25.633-8.161-37.726
		c-2.004-13.323-17.512-17.78-28.941-21.587c-4.118-1.373-8.428-2.191-12.799-2.523
		C1046.009,116.064,1046.25,116.198,1046.471,116.322z"/>
	<path fill="#E53855" d="M1178.066,279.877c-1.529-0.413-2.81-1.175-4.457-0.984c-1.739,0.2-2.97,1.645-3.714,3.128
		c-0.757,1.512-1.042,3.376-1.529,4.976c-0.504,1.654-0.883,3.317-0.967,4.62c-0.126,1.954-0.556,3.965-1.337,5.938
		c-0.664,1.678-1.711,3.42-2.622,4.993c-0.783,1.354-2.321,3.077-3.229,4.338c-1.072,1.49-1.833,2.795-2.975,4.237
		c-0.765,0.965-1.767,1.369-2.776,2.106c-1.173,0.85-2.502,0.67-3.841,0.975c-0.295,0.067-0.853,0.14-1.062,0.396
		c-0.215,0.266-0.16,0.796-0.17,1.106c-0.08,2.411,2.84,2.791,4.712,2.901c2.948,0.173,6.312-0.366,9.129-1.315
		c2.834-0.955,4.506-3.593,5.75-6.157c1.978-4.076,3.057-8.576,4.617-12.814c1.174-3.19,2.574-6.309,3.934-9.427
		c0.688-1.576,1.729-3.225,1.958-4.958c0.125-0.933-0.48-4.438-2.028-4.361"/>
	<path fill="#585756" d="M1162.33,312.787c-4.84,4.27-13.845-0.757-15,1.354c-1.826,6.859,6.256,13.156,9.643,17.833
		c2.034,2.808,4.766,4.845,7.43,6.684c1.182-7.567-0.323-14.237-0.934-21.63c-0.167-2.033,0.229-7.869-1.406-8.92
		c-0.096,1.152-0.412,2.19-0.438,3.351"/>
	<path fill="#828281" d="M1205.264,289.674c-2.957-1.009-8.644-3.629-11.623-4.729c-3.166-1.169-6.186-2.062-9.487-2.616
		c-2.563-0.431-7.309-3.98-9.967-2.578c-3.754,1.982-4.447,9.405-4.751,11.888c-0.462,3.778-1.083,7.408-3.322,10.503
		c-2.358,3.259-4.524,6.524-6.912,9.739c-1.256,1.693-2.402,2.906-2.622,4.99c-0.422,3.996,0.323,7.766,1.56,11.489
		c1.092,3.291,2.63,6.381,3.681,9.726c1.231,3.919,2.1,7.63,3.087,11.618c2.374,9.592,2.163,19.59,2.163,29.466
		c0,4.795,1.478,7.315,4.64,10.662c1.128-2.569,3.46-4.646,5.192-6.882c4.14-5.346,6.462-11.717,10.308-17.244
		c6.719-9.66,10.545-21.079,10.524-32.962c-0.006-3.544,0.132-7.1-0.198-10.628c-0.246-2.641-1.016-4.833-1.011-7.467
		c0.012-5.445-0.042-10.718,2.068-15.79c0.612-1.471,6.361-6.606,4.021-7.937"/>
	<path fill="#A5A4A3" d="M1178.974,280.559c-2.217,3.341-3.643,6.176-3.631,10.239c0.014,5.059,1.598,9.642,4.953,13.509
		c3.28,3.781,6.409,6.593,10.705,9.122c2.18,1.283,4.38,2.517,6.593,3.692c0.445-1.367,1.538-2.67,1.693-4.147
		c0.219-2.087-2.336-2.066-4.092-2.91c-4.602-2.214-8.037-6.538-10.811-10.638c-2.008-2.969-3.139-5.629-3.139-9.248
		c0-3.158,0.108-5.618,1.196-8.379c-1.083-0.307-2.551-1.1-3.314-1.24"/>
	<g opacity="0.09">
		<path fill="#1D1E1C" d="M1157.121,314.952c0.029-0.022,0.056-0.051,0.083-0.076c-0.017,0.003-0.037,0.007-0.054,0.01
			C1157.139,314.907,1157.131,314.93,1157.121,314.952z"/>
		<path fill="#1D1E1C" d="M1203.372,290.922l1.665-1.399c-2.957-1.01-8.417-3.478-11.396-4.578
			c-3.166-1.169-6.186-2.062-9.487-2.616c-2.563-0.431-7.309-3.98-9.967-2.578c-3.754,1.982-4.447,9.405-4.751,11.888
			c-0.462,3.778-1.083,7.408-3.322,10.503c-2.358,3.259-4.524,6.524-6.912,9.739c-0.789,1.063-1.532,1.937-2.034,2.955l0.168-0.083
			c-0.043,0.048-0.089,0.083-0.134,0.122c3.726-0.526,7.708-4.8,9.832-7.539c2.97-3.831,4.002-8.95,7.208-12.566
			c3.637-4.103,12.598-3.718,14.592,1.873c1.177,3.298,0.823,6.731,0.158,10.071c-1.333,6.711-2.105,13.556-2.487,20.424
			c-0.233,4.219-0.127,8.494-0.118,12.731c0.014,7.099-1.643,13.967-2.108,20.967c-0.284,4.275-1.028,8.666-1.804,12.982
			c1.473-2.763,2.937-5.528,4.734-8.111c6.719-9.66,10.545-21.079,10.524-32.962c-0.006-3.544,0.132-7.1-0.198-10.628
			c-0.246-2.641-1.016-4.833-1.011-7.467c0.012-5.445-0.042-10.718,2.068-15.79C1199.206,297.388,1205.713,292.253,1203.372,290.922
			z"/>
	</g>
	<path fill="#1D1E1C" d="M1181.937,358.232c-4.147-1.141-8.016-3.018-12.241-3.968c-1.305-0.293-2.633-0.493-3.968-0.655
		c1.495,8.384,1.344,17.018,1.344,25.562c0,4.795,1.478,7.315,4.64,10.662c1.128-2.569,3.46-4.646,5.192-6.882
		c4.14-5.346,6.462-11.717,10.308-17.244c1.985-2.856,3.712-5.868,5.168-8.998C1189.171,358.375,1185.913,359.326,1181.937,358.232z
		"/>
	<path opacity="0.25" fill="#1D1E1C" d="M1164.909,349.705c2.221,8.975,2.179,18.305,2.166,27.558
		c1.629-2.366,3.13-4.855,3.443-7.771c0.294-2.756-0.383-5.405,1.261-7.765c1.675-2.402,3.788-2.47,2.974-6.121
		c-0.783-3.511-3.018-7.479-4.327-10.894c-2.562-6.689-2.286-12.543-2.692-19.599c-4.357-0.078-7.561-1.537-11.1-3.265
		c0.258,2.209,0.797,4.37,1.509,6.512c1.092,3.291,2.63,6.381,3.681,9.726C1163.053,342.005,1163.921,345.716,1164.909,349.705z"/>
	<path fill="#FFFFFF" d="M1215.49,291.755c-2.069-1.614-2.957-1.437-4.994-2.168c-1.804-0.647-3.741-0.248-5.641-0.252
		c-3.548-0.009-6.846,2.653-8.783,5.406c-1.441,2.046-1.65,3.877-2.462,6.097c-1.619,4.434-1.625,8.303-1.625,13.054
		c0,6.475,1.142,12.518,1.703,18.87c0.297,3.389-0.104,7.304-2.308,9.993c-0.973,1.188-2.255,2.235-3.238,3.465
		c-2.493,3.118-4.392,6.693-5.761,10.481c-1.553,4.292-3.377,8.182-5.299,12.331c-2.023,4.371-3.543,9.421-4.728,14.115
		c-0.369,1.457-0.724,2.911-0.795,4.385c-0.077,1.589-0.169,2.392,1.395,3.065c2.751,1.185,6.025,0.006,8.712-0.945
		c3.134-1.111,6.657-2.981,9.51-4.652c6.022-3.532,11.36-9.171,15.45-14.727c3.396-4.613,6.422-10.099,7.192-15.883
		c0.647-4.859-1.319-8.255-3.08-12.56c-1.255-3.07-2.691-6.572-2.095-10.012c0.788-4.55,5.875-7.024,7.709-11.044
		c1.853-4.057,2.261-7.993,2.446-12.345c0.159-3.716,0.53-7.826-0.154-11.472c-0.256-1.36-0.915-2.049-1.267-3.217
		C1216.744,293.518,1216.166,291.824,1215.49,291.755"/>
	<path opacity="0.2" fill="#1D1E1C" d="M1203.083,306.18c1.858,0,3.332-0.178,4.182,1.803c0.829,1.933,0.388,4.734,0.134,6.759
		c-0.338,2.685-1.269,5.045-1.291,7.795c-0.014,1.906,0.406,4.411-0.302,6.214c-0.81,2.061-3.315,2.457-4.214,4.381
		c-1.953,4.177,6.05,5.729,5.525,10.175c-0.262,2.212-2.706,3.225-4.544,3.932c-1.924,0.742-3.822,1.401-5.619,2.237
		c-0.821,0.381-1.5,1.017-2.342,1.367c-0.867,0.36-1.817,0.252-2.623,0.646c-1.33,0.646-1.256,2.907-0.735,4.104
		c0.731,1.676,3.128,1.969,4.766,2.056c2.926,0.156,5.983,0.329,8.764-0.736c1.368-0.523,2.749-1.318,4.056-2.018
		c0.743-0.396,1.471-0.926,1.985-1.633c1.25-1.718-0.295-4.518-0.681-6.537c-0.551-2.886-1.723-5.551-2.246-8.471
		c-0.478-2.656-0.581-5.645-0.478-8.354c0.07-1.832,1.737-3.519,3.214-4.556c0.001-1.673,0.885-3.684,1.347-5.282
		c0.947-3.284,1.451-6.46,1.699-9.879c0.131-1.791,0.803-5.435-0.405-6.955c-0.642-0.81-2.342-1.619-3.209-2.174
		c-0.852-0.544-1.571-0.937-2.572-1.033c-3.25-0.313-4.392,3.854-4.411,6.461"/>
	<path fill="#E53855" d="M1198.341,325.647c0.027-0.761-1.113-2.028-1.435-2.739c-0.899-1.989-1.232-4.146-1.575-6.287
		c-0.468-2.93-0.579-6.428-0.246-9.398c0.723-6.477,3.589-13.433,10.567-15.173c2.699-0.674,7.672,0.928,9.341,3.356
		c3.203,4.661,2.917,9.774,2.917,15.216c0,2.162,0.077,4.392-0.729,6.434c-0.638,1.615-2.037,3.011-2.998,4.456
		c-0.872,1.31-2.073,2.91-3.438,3.74c-0.922,0.562-2.038,0.428-3.108,0.386c-0.111-2.448,0.439-4.388,1.3-6.65
		c1.066-2.799,1.673-5.518,1.71-8.539c0.024-1.94-0.234-4.6-2.563-4.877c-2.526-0.3-5.017,1.084-5.284,3.709
		c-0.289,2.839-0.09,5.962,0.181,8.769c0.204,2.11,0.701,5.432-0.908,7.093c-0.821,0.847-2.903,1.19-3.833,0.202"/>
	<path fill="#E53855" d="M1211.457,352.581c-2.178-2.801-7.468-1.326-9.845,0.246c-2.761,1.828-4.057,3.609-7.51,1.963
		c-1.552-0.739-2.137-2.001-4.035-2.007c-2.076-0.008-2.621,1.149-3.621,2.829c-3.001,5.039-4.748,10.191-7.122,15.475
		c-1.767,3.928-5.673,11.036-3.629,15.588c2.909,6.486,19.322-7.267,21.847-10.036
		C1203.713,369.874,1211.457,362.122,1211.457,352.581"/>
	<path opacity="0.2" fill="#1D1E1C" d="M1214.994,295.407c-1.669-2.429-6.642-4.03-9.341-3.356c-1.401,0.35-2.628,0.917-3.713,1.641
		c2.965,0.084,5.87,0.548,7.898,2.993c1.599,1.924,3.074,5.741,3.487,8.236c0.977,5.908,1.242,12.298-3.268,16.627
		c-0.764,0.732-1.559,1.412-2.346,2.092c-0.07,0.639-0.106,1.294-0.073,1.999c1.07,0.042,2.186,0.177,3.108-0.386
		c1.365-0.831,2.566-2.431,3.438-3.74c0.961-1.445,2.36-2.84,2.998-4.456c0.807-2.042,0.729-4.272,0.729-6.434
		C1217.911,305.181,1218.197,300.067,1214.994,295.407z"/>
	<path opacity="0.2" fill="#1D1E1C" d="M1201.612,352.827c-2.456,1.627-3.755,3.208-6.441,2.381c0.66,1.408,2.352,1.926,4.176,2.014
		c3.462,0.168,7.349-2.157,6.665,3.062c-0.495,3.783-5.048,8.166-7.25,11.12c-2.159,2.895-5.15,5.646-7.845,8.037
		c-3.082,2.732-6.518,6.323-10.37,8.649c5.99-1.63,15.16-9.438,16.996-11.451c6.171-6.765,13.915-14.517,13.915-24.058
		C1209.279,349.78,1203.989,351.254,1201.612,352.827z"/>
</g>
<path fill="#1D1E1C" d="M415.657,651.706c-5.077,6.912-18.202,31.215-20.753,35.331c-9,14.517-17.855,29.129-27.125,43.477
	c-14.138,21.881-28.206,43.817-43.088,65.193c-11.606,16.671-22.071,34.394-31.729,52.273c-3.963,7.336-11.069,16.254-12.501,24.701
	c-4.101,24.187,32.287,32.012,48.751,35.781c18.748,4.293,37.89,4.644,56.962,6.231c22.792,1.897,45.215,5.519,67.741,9.375
	c18.567,3.179,36.737,9.942,55.585,9.3c23.337-0.797,8.673-3.826,28.846-17.369c6.74-4.524,5.002-4.841,5.447-13.093
	c1.384-25.678,19.501-36.082,22.208-61.018c2.024-18.648,9.325-49.769,12.667-76.556c2.598-20.829,15.954-89.785,16.021-123.396
	c0.024-12-41.781,42.638-43.395,29.325c-2.657-21.91-2.959-44.83-7.667-66.181c-3.354-15.214,41.874-28.808,40.584-44.343
	c-9.489-1.383-19.716,2.116-28.445,5.13c-29.671,10.245-55.063,29.164-77.605,50.571c-14.576,13.842-31.482,29.549-40.21,48.188
	c-6.915,0.08-15.618-6.603-19.949-11.295"/>
</svg>
